<?xml version="1.0" encoding="UTF-8" standalone="no"?>
<!-- Created with Inkscape (http://www.inkscape.org/) -->

<svg
   width="50"
   height="70"
   viewBox="0 0 13.229166 18.520833"
   version="1.1"
   id="svg18473"
   xml:space="preserve"
   inkscape:version="1.2.2 (732a01da63, 2022-12-09)"
   sodipodi:docname="templar_idle5.svg"
   xmlns:inkscape="http://www.inkscape.org/namespaces/inkscape"
   xmlns:sodipodi="http://sodipodi.sourceforge.net/DTD/sodipodi-0.dtd"
   xmlns="http://www.w3.org/2000/svg"
   xmlns:svg="http://www.w3.org/2000/svg"><sodipodi:namedview
     id="namedview18475"
     pagecolor="#ffffff"
     bordercolor="#000000"
     borderopacity="0.25"
     inkscape:showpageshadow="2"
     inkscape:pageopacity="0.0"
     inkscape:pagecheckerboard="0"
     inkscape:deskcolor="#d1d1d1"
     inkscape:document-units="mm"
     showgrid="true"
     inkscape:zoom="8"
     inkscape:cx="18.75"
     inkscape:cy="20.5"
     inkscape:window-width="1366"
     inkscape:window-height="705"
     inkscape:window-x="-8"
     inkscape:window-y="-8"
     inkscape:window-maximized="1"
     inkscape:current-layer="g32875"><inkscape:grid
       type="xygrid"
       id="grid36773"
       originx="0"
       originy="0" /></sodipodi:namedview><defs
     id="defs18470" /><g
     inkscape:label="Capa 1"
     inkscape:groupmode="layer"
     id="layer1"><g
       id="g32875"
       transform="matrix(0.35404553,0,0,0.35404553,0.19039912,-34.874894)"><path
         style="opacity:0.99;fill:#999999;fill-opacity:1;fill-rule:nonzero;stroke:none;stroke-width:0.1;stroke-dasharray:none;stroke-opacity:1;paint-order:fill markers stroke"
         d="m 12.384835,131.79024 c -0.335384,0 0.07341,3.28233 0.244786,3.55735 0.146044,0.23436 -0.08942,2.13362 -0.164419,2.25863 0.570591,0.9075 -0.501053,1.80405 -1.410662,2.74162 -0.137249,0.0491 -0.725038,1.07506 -0.725038,1.07506 0,0 0.550027,0.15 0.725038,0.15 0.175009,0 1.325068,-0.125 1.650082,-0.17501 0.325017,-0.05 0.700037,-0.05 0.95005,-0.05 0.250012,0 0.550026,0.45002 0.650033,0.45002 0.100005,0 0,-0.37501 0.025,-0.62503 1.060465,-1.15768 1.174264,-1.06706 1.495196,-2.35362 -0.368489,-1.96203 -0.552934,-3.67938 -1.295186,-5.29677 -0.250013,-0.35002 -0.975048,-1.37507 -0.975048,-1.37507 z"
         id="path20232"
         sodipodi:nodetypes="cscccscssccccc" /><path
         style="opacity:0.99;fill:#666666;fill-opacity:1;fill-rule:nonzero;stroke:none;stroke-width:0.1;stroke-dasharray:none;stroke-opacity:1;paint-order:fill markers stroke"
         d="m 16.754829,134.89756 c 0,0 1.024851,1.82065 1.149859,1.89566 0.125005,0.075 0.85878,1.56362 0.85878,1.56362 0,0 0.02665,0.54947 -0.07335,1.0745 -0.100007,0.52503 -0.710221,1.06651 -0.710221,1.31652 0,0.25001 -0.250013,0.67504 -0.150009,0.67504 0.100005,0 1.000051,0.075 1.600081,0.075 0.600033,0 0.625033,0.15 1.475076,0.025 0.850043,-0.12501 1.100056,-0.1 1.250064,-0.15001 0.150008,-0.05 -0.347242,0 -0.472251,-0.40002 -0.125005,-0.40001 -0.248159,0.0241 -0.398172,-0.57595 -0.138581,-1.06694 -0.23486,-1.99874 -0.06061,-2.65462 -0.528344,-0.93796 -1.762339,-2.96545 -2.66914,-3.44477 l -0.750038,-0.125 c 0,0 -0.650034,0.52502 -0.750038,0.57503 l -0.300017,0.15 z"
         id="path20234"
         sodipodi:nodetypes="cscsssscssccccccc" /><path
         style="opacity:0.99;fill:#fde0a4;fill-opacity:1;fill-rule:nonzero;stroke:none;stroke-width:0.1;stroke-dasharray:none;stroke-opacity:1;paint-order:fill markers stroke"
         d="m 14.659953,117.80464 c 0,0 0.717791,-3.53779 0.541004,-3.64386 -0.176787,-0.10607 1.025358,-0.17678 1.308214,-0.56571 0.282858,-0.38893 0.707144,-0.81322 0.813215,-1.27286 0.106072,-0.45964 0.212143,-1.09607 0.212143,-1.44964 0,-0.35358 -0.106071,-1.30822 -0.106071,-1.30822 v -0.14143 c 0,0 4.348927,0.21215 6.611783,1.41429 2.262857,1.20214 2.368929,1.27286 2.368929,1.27286 0,0 0.990002,-0.77786 1.060714,-0.91929 0.07072,-0.14143 0.459645,-0.35357 0.459645,-0.35357 l 0.459642,0.99 c 0,0 0.141428,4.31357 -0.03536,4.98536 -0.176787,0.67178 -0.106071,0.31821 -0.14143,0.495 -0.03536,0.17678 -0.141428,1.20214 -0.141428,1.52035 0,0.31822 0.07071,1.13143 0.03536,1.44965 -0.03536,0.31821 -0.565713,1.87393 -0.565713,1.87393 0,0 -1.025359,0.99 -1.272858,1.09607 -0.247499,0.10607 -1.485,0.63643 -1.661784,0.70714 -0.176787,0.0707 -0.707144,0.14143 -0.883931,0.14143 h -1.661784 c -0.353571,0 -1.308214,-0.14143 -1.626428,-0.21214 -0.318215,-0.0707 -1.096071,-0.2475 -1.555716,-0.31822 -0.459642,-0.0707 -1.272857,-0.38893 -1.626428,-0.56571 -0.353571,-0.17679 -1.025356,-0.45965 -1.166786,-0.53036 -0.141428,-0.0707 -0.777857,-0.67178 -0.99,-0.77786 -0.212142,-0.10607 -0.707143,-0.495 -0.813215,-0.63642 -0.106071,-0.14143 -0.494998,-0.49501 -0.494998,-0.49501 v -0.45964 c 0,0 -0.459642,0.495 -0.99,0.21215 -0.530357,-0.28286 7.476951,-5.77 7.194095,-6.12357 -0.282858,-0.35357 -0.667126,-0.40484 -0.667126,-0.54627 0,-0.14142 1.615987,-0.16006 1.651347,-0.44292 0.03536,-0.28286 0.141428,-0.7425 0.141428,-0.7425 0,0 0.212143,-0.35357 0.636428,-0.60107 0.424286,-0.2475 0.565717,-0.38893 0.77786,-0.42429 0.212143,-0.0354 -9.521889,4.46101 -9.521889,4.46101 0,0 0.494999,0.17679 0.60107,0.35357 0.106072,0.17679 0.318214,0.45965 0.424286,0.60107 0.106071,0.14143 0.353571,0.45965 0.424286,0.60108 0.07071,0.14142 0.201496,0.35564 0.201496,0.35564 z"
         id="path20216"
         sodipodi:nodetypes="cssssccsccccsssccscsscccccccccssscsccscscc" /><path
         style="opacity:0.99;fill:#fde0a4;fill-opacity:0.992157;fill-rule:nonzero;stroke:none;stroke-width:0.108535;stroke-dasharray:none;stroke-opacity:1;paint-order:fill markers stroke"
         d="m 16.364418,122.53362 v 0.70618 c 0,0 -0.09175,0.83457 0.734045,0.96296 0.825802,0.1284 1.238702,0.321 1.238702,0.321 l 0.09175,-1.32307 c 0,0 -0.734043,-0.21768 -1.2387,-0.41027 -0.504657,-0.1926 -0.550533,-0.44939 -0.550533,-0.44939 z"
         id="path20220"
         sodipodi:nodetypes="ccsccscc" /><path
         style="opacity:0.99;fill:#999999;fill-opacity:1;fill-rule:nonzero;stroke:none;stroke-width:0.121125;stroke-dasharray:none;stroke-opacity:1;paint-order:fill markers stroke"
         d="m 12.877714,132.00451 6.707443,0.57408 c -0.0089,-0.002 -0.117744,0.74389 -0.05485,1.39498 -0.380179,0.5403 -0.481287,1.20305 -0.752844,1.47321 -0.271557,0.27016 -0.804028,0.39616 -1.129893,0.4637 -0.32587,0.0675 -0.860542,0.16883 -1.295032,0.10133 -0.434488,-0.0675 -0.977601,0.0667 -1.384937,-0.10206 -0.407333,-0.16885 -0.813569,0.11335 -1.00366,-0.59579 -0.190088,-0.70916 -0.353022,-1.82356 -0.488799,-2.05994 -0.13578,-0.2364 -0.733205,-1.28325 -0.733205,-1.28325 z"
         id="path20230"
         sodipodi:nodetypes="cccscsccscc" /><path
         style="opacity:0.99;fill:#cccccc;fill-opacity:1;fill-rule:nonzero;stroke:none;stroke-width:0.1;stroke-dasharray:none;stroke-opacity:1;paint-order:fill markers stroke"
         d="m 10.354503,141.4979 c 0,0 3.000153,-0.20001 3.275169,-0.075 0.275013,0.125 1.150056,0.60003 1.250063,0.82504 0.100005,0.22501 0.350018,0.75004 0.475023,0.87504 0.125007,0.12501 -0.550027,0.25001 -0.725035,0.20001 -0.175012,-0.05 -0.900047,-0.05 -1.350071,-0.05 -0.450022,0 -1.075055,-0.05 -1.825093,-0.075 -0.750039,-0.025 -1.17506,-0.025 -1.375069,-0.025 -0.2000122,0 -0.7000372,0.12501 -0.6000302,0 0.100004,-0.12501 0.250013,-0.97505 0.450022,-1.40007 0.2000092,-0.42502 0.4250212,-0.27501 0.4250212,-0.27501 z"
         id="path20236" /><path
         style="opacity:0.99;fill:#e3dedb;fill-opacity:1;fill-rule:nonzero;stroke:none;stroke-width:0.1;stroke-dasharray:none;stroke-opacity:1;paint-order:fill markers stroke"
         d="m 9.5294608,143.24799 c -0.125005,-0.025 -0.275013,0.27501 -0.275013,0.27501 0,0 0.05,0.40002 0.200009,0.45002 0.150008,0.05 0.175008,0.05 0.8750462,0.12501 0.700034,0.075 1.300064,0.10001 1.825093,0.10001 0.525026,0 1.80009,-0.075 2.050103,-0.10001 0.250012,-0.025 0.850045,-0.05 1.075055,-0.15001 0.225012,-0.1 0.40002,-0.17501 0.40002,-0.35001 0,-0.17501 -0.125005,-0.45003 -0.250012,-0.45003 -0.125005,0 -5.9003012,0.10001 -5.9003012,0.10001 z"
         id="path20238" /><path
         style="opacity:0.99;fill:#cccccc;fill-opacity:1;fill-rule:nonzero;stroke:none;stroke-width:0.1;stroke-dasharray:none;stroke-opacity:1;paint-order:fill markers stroke"
         d="m 18.239146,141.21504 c 0,0 3.000153,-0.20001 3.275169,-0.075 0.275013,0.125 1.150056,0.60003 1.250063,0.82504 0.100005,0.22501 0.350018,0.75004 0.475023,0.87504 0.125007,0.12501 -0.550027,0.25001 -0.725035,0.20001 -0.175012,-0.05 -0.900047,-0.05 -1.350071,-0.05 -0.450022,0 -1.075055,-0.05 -1.825093,-0.075 -0.750039,-0.025 -1.17506,-0.025 -1.375069,-0.025 -0.200012,0 -0.700037,0.12501 -0.60003,0 0.100004,-0.12501 0.250013,-0.97505 0.450022,-1.40007 0.200009,-0.42502 0.425021,-0.27501 0.425021,-0.27501 z"
         id="path20240" /><path
         style="opacity:0.99;fill:#e3dedb;fill-opacity:1;fill-rule:nonzero;stroke:none;stroke-width:0.1;stroke-dasharray:none;stroke-opacity:1;paint-order:fill markers stroke"
         d="m 17.414104,142.96513 c -0.125005,-0.025 -0.275013,0.27501 -0.275013,0.27501 0,0 0.05,0.40002 0.200009,0.45002 0.150008,0.05 0.175008,0.05 0.875046,0.12501 0.700034,0.075 1.300064,0.10001 1.825093,0.10001 0.525026,0 1.80009,-0.075 2.050103,-0.10001 0.250012,-0.025 0.850045,-0.05 1.075055,-0.15001 0.225012,-0.1 0.40002,-0.17501 0.40002,-0.35001 0,-0.17501 -0.125005,-0.45003 -0.250012,-0.45003 -0.125005,0 -5.900301,0.10001 -5.900301,0.10001 z"
         id="path20242" /><ellipse
         style="opacity:0.99;fill:#000000;fill-opacity:1;fill-rule:nonzero;stroke:#000000;stroke-width:0.1;stroke-dasharray:none;stroke-opacity:1;paint-order:fill markers stroke"
         id="ellipse20244"
         cx="21.918814"
         cy="117.21918"
         rx="0.77785712"
         ry="1.3966072" /><ellipse
         style="opacity:0.99;fill:#000000;fill-opacity:1;fill-rule:nonzero;stroke:#000000;stroke-width:0.0792771;stroke-dasharray:none;stroke-opacity:1;paint-order:fill markers stroke"
         id="ellipse20246"
         cx="26.828669"
         cy="117.12996"
         rx="0.56723642"
         ry="1.203665" /><ellipse
         style="opacity:0.99;fill:#ffffff;fill-opacity:1;fill-rule:nonzero;stroke:none;stroke-width:0.1;stroke-dasharray:none;stroke-opacity:1;paint-order:fill markers stroke"
         id="ellipse20248"
         cx="21.963011"
         cy="116.75954"
         rx="0.53919643"
         ry="0.68946427" /><ellipse
         style="opacity:0.99;fill:#ffffff;fill-opacity:1;fill-rule:nonzero;stroke:none;stroke-width:0.0775845;stroke-dasharray:none;stroke-opacity:1;paint-order:fill markers stroke"
         id="ellipse20250"
         cx="26.815775"
         cy="116.60042"
         rx="0.40013629"
         ry="0.55924344" /><path
         style="opacity:0.99;fill:#000000;fill-opacity:1;fill-rule:nonzero;stroke:#000000;stroke-width:0.1;stroke-dasharray:none;stroke-opacity:1;paint-order:fill markers stroke"
         d="m 19.74435,113.68346 c 0.335891,-0.28286 0.848572,-0.76018 1.11375,-0.7425 0.265179,0.0177 0.636429,0.053 0.919285,0.0884 0.282858,0.0354 0.689464,0.30054 0.830894,0.38893 0.141428,0.0884 0.371251,0.53036 0.548035,0.65411 0.176786,0.12375 0.335893,0.51268 0.37125,0.54804 0.03536,0.0354 0.159107,0.22982 0.141427,0.26517 -0.01767,0.0354 -0.318214,-0.22098 -0.459642,-0.25634 -0.141427,-0.0353 -0.609909,-0.30937 -0.715981,-0.41544 -0.106071,-0.10607 -0.07071,-0.22982 -0.291698,-0.32705 -0.220982,-0.0972 -0.822052,-0.18563 -0.892767,-0.20331 -0.07071,-0.0177 -0.353571,-0.0177 -0.574553,-0.0177 -0.220983,0 -0.742501,0.0354 -0.804376,0.053 -0.06187,0.0177 -0.247499,0.053 -0.247499,0.053 z"
         id="path20252" /><path
         style="opacity:0.99;fill:#000000;fill-opacity:1;fill-rule:nonzero;stroke:#000000;stroke-width:0.1;stroke-dasharray:none;stroke-opacity:1;paint-order:fill markers stroke"
         d="m 26.19703,115.04471 c 0.03536,-0.0884 0.194463,-0.53036 0.406606,-0.65411 0.212143,-0.12375 0.583393,-0.37125 0.671785,-0.4066 0.08839,-0.0354 0.282858,0 0.441965,0.0707 0.159107,0.0707 0.318215,0.12375 0.265179,0.21214 -0.05304,0.0884 -0.159107,0.0884 -0.406609,0.14143 -0.247499,0.053 -0.494999,0.14143 -0.583393,0.26518 -0.08839,0.12375 -0.335891,0.2475 -0.441963,0.40661 -0.106071,0.1591 -0.318214,0.2475 -0.318214,0.17678 0,-0.0707 -0.03536,-0.21214 -0.03536,-0.21214 z"
         id="path20254" /><path
         style="opacity:0.99;fill:none;fill-opacity:1;fill-rule:nonzero;stroke:#000000;stroke-width:0.1;stroke-dasharray:none;stroke-opacity:1;paint-order:fill markers stroke"
         d="m 25.335496,118.34217 c -0.01249,0.075 -0.025,0.27501 -0.01249,0.36252 0.01249,0.0875 0.08751,0.21251 0.237513,0.23751 0.150009,0.025 0.262512,0.075 0.350018,0.12501 0.08751,0.05 0.337518,0.25001 0.350017,0.36252 0.01252,0.1125 -0.075,0.38752 -0.112506,0.46252 -0.0375,0.075 0.0375,0.23751 -0.112504,0.23751 -0.150008,0 -0.387522,-0.0625 -0.462526,-0.0625 -0.075,0 -0.362516,-0.0375 -0.362516,-0.0375 l 0.137507,-0.0125 0.21251,0.0625"
         id="path20256" /><path
         style="opacity:0.99;fill:none;fill-opacity:1;fill-rule:nonzero;stroke:#000000;stroke-width:0.1;stroke-dasharray:none;stroke-opacity:1;paint-order:fill markers stroke"
         d="m 24.372947,121.87985 c -0.075,0.025 -1.100055,0.15001 -1.36257,0.075 -0.262514,-0.075 -0.800039,-0.33752 -0.862544,-0.42503 -0.0625,-0.0875 -0.437523,-0.28751 -0.500025,-0.41252 -0.0625,-0.125 -0.075,-0.37502 -0.075,-0.37502 0,0 -0.237512,0.31252 -0.287515,0.33752 -0.05,0.025 -0.175009,0.025 -0.175009,0.025"
         id="path20258" /><path
         style="opacity:0.99;fill:#f0d194;fill-opacity:0.992157;fill-rule:nonzero;stroke:none;stroke-width:0.1;stroke-dasharray:none;stroke-opacity:1;paint-order:fill markers stroke"
         d="m 19.903189,130.24347 c 0.03084,0.0952 -0.120327,0.19661 -0.123809,0.59189 -0.0035,0.3953 0.07418,0.55411 0.104273,0.72832 0.03013,0.1742 -0.109804,0.79759 -0.109804,0.79759 0,0 -0.550586,0.5723 -0.05384,0.7269 0.496742,0.15459 0.748611,0.28332 0.867548,0.24483 0.118948,-0.0384 0.30223,-0.2029 0.399468,-0.47086 0.09724,-0.26796 0.233656,-0.49604 0.276319,-0.85145 0.04266,-0.35542 0.07201,-0.99559 0.07201,-0.99559 0,0 0.09098,0.44357 0.358936,0.54081 0.267963,0.0972 0.08467,0.26166 0.474341,0.004 0.389681,-0.25748 0.553368,-0.88854 0.53867,-1.01518 -0.01473,-0.12662 0.06784,-0.52123 -0.0091,-0.75909 -0.07697,-0.23788 -0.296659,-0.42956 -0.54923,-0.47923 -0.25257,-0.0497 -0.744324,0.13613 -0.974541,0.23663 -0.230165,0.1008 -1.134774,0.47231 -1.134774,0.47231 z"
         id="path20226"
         sodipodi:nodetypes="csscsssscsssssscc" /><path
         style="opacity:0.99;fill:#f0d194;fill-opacity:0.992157;fill-rule:nonzero;stroke:none;stroke-width:0.1;stroke-dasharray:none;stroke-opacity:1;paint-order:fill markers stroke"
         d="m 20.94645,132.98037 c 0,0 -0.01187,0.45056 0.03431,0.59329 0.04618,0.14273 0.48765,0.28892 0.756308,0.3071 0.268661,0.0182 0.84654,-0.0637 1.054337,-0.31482 0.20778,-0.25118 0.282618,-0.66957 0.3155,-0.81158 0.03287,-0.14203 0.04126,-0.1973 0.160205,-0.23578 0.11893,-0.0385 0.319708,-0.39252 0.273527,-0.53524 -0.04618,-0.14271 -0.08467,-0.26165 -0.123158,-0.38058 -0.03849,-0.11894 0.177687,-0.42539 0.177687,-0.42539 0,0 0.07345,-0.26025 -0.01122,-0.52192 -0.08467,-0.26165 0.09933,-0.50513 -0.225295,-0.45265 -0.324554,0.0529 -0.687038,-0.093 -0.687038,-0.093 0,0 -1.735742,0.48287 -1.848384,0.70321 -0.112633,0.22038 0.123225,2.16743 0.123225,2.16743 z"
         id="path20228" /><path
         style="opacity:0.99;fill:#cccccc;fill-opacity:1;fill-rule:nonzero;stroke:none;stroke-width:0.1;stroke-dasharray:none;stroke-opacity:1;paint-order:fill markers stroke"
         d="m 14.07339,127.84527 c -0.200012,-0.30002 -0.787795,-0.0989 -0.837796,-0.44888 0.188628,-1.10809 0.415019,-2.66853 1.47436,-3.04141 0.400021,-0.05 1.000051,-0.10001 1.000051,-0.10001 l -1.181699,0.24816 c 0,0 0.531665,-0.99819 0.98169,-1.19821 0.450021,-0.20001 0.800039,-0.45002 0.800039,-0.45002 0,0 0.300016,0.45002 0.600032,0.80004 0.300014,0.35002 0.450022,0.70004 0.950048,0.55003 0.500025,-0.15001 0.650033,-0.45002 0.650033,-0.45002 0,0 1.20006,4.40022 0.950048,6.30032 -0.250013,1.90009 0.564231,2.44412 0.264215,2.54412 -0.300014,0.10001 -2.297805,-0.0491 -2.297805,-0.0491 0,0 -1.130255,-0.16991 -1.33026,-0.16795 l -1.732712,0.017 c -0.250019,0.002 -1.486381,-0.47966 -1.839928,-0.47884 -0.68592,0.002 0.157019,-0.71539 0.437665,-2.06853 0.213488,-1.02935 0.148505,-1.19677 0.648527,-1.59679 0.500026,-0.40002 2.17131,0.0553 2.17131,0.0553 0,0 0.127365,-3.6e-4 0.477696,-0.51976 0.232895,-0.34531 0.937673,-2.06347 1.029124,-2.05041 -0.548972,1.05529 -0.646602,2.36346 -1.666998,2.57018 z"
         id="path20222"
         sodipodi:nodetypes="cccccscsscsscssssscsccc" /><path
         style="opacity:0.99;fill:#fde0a4;fill-opacity:0.992157;fill-rule:nonzero;stroke:none;stroke-width:0.1;stroke-dasharray:none;stroke-opacity:1;paint-order:fill markers stroke"
         d="m 15.980894,128.41077 c 0,0 -0.347172,0.53562 -0.351717,0.64732 -0.01598,0.39456 -0.556448,1.02945 -0.08835,0.91175 0.13466,-0.002 1.076282,0.60788 1.331318,0.57184 0.254934,-0.0357 1.703292,0.15985 1.703292,0.15985 0,0 -0.367813,-0.0887 -0.07484,-0.43091 0.293034,-0.34244 0.241089,-0.4161 0.352322,-0.42677 0.111288,-0.0106 0.878175,-0.33092 0.878175,-0.33092 l 0.892044,0.0497 c 0,0 0.346605,-0.13418 0.405497,0.12976 0.05889,0.26395 0.227491,0.38262 0.08384,0.40757 -0.143678,0.025 -0.608474,-0.0205 -0.608474,-0.0205 l 0.897358,0.10532 0.472223,-0.11246 c 0,0 0.450535,0.0131 0.42309,0.43131 -0.02747,0.41821 -0.325815,0.70502 -0.325815,0.70502 0,0 -0.02704,0.0699 0.06051,0.39854 0.08751,0.32862 0.309687,0.65558 0.08339,0.75581 -0.226289,0.10027 -0.368311,0.25981 -0.445693,0.3907 -0.07745,0.13087 0.01386,0.38056 -0.04916,0.54383 -0.06305,0.16326 -0.04016,0.5205 -0.420973,0.53417 -0.38056,0.0139 -0.51517,0.0155 -0.895741,0.0294 -0.380525,0.0138 -0.384228,0.0929 -0.725094,-0.0656 -0.340867,-0.15832 -0.584661,-0.35979 -0.744259,-0.50178 -0.159569,-0.14201 -0.197202,-0.18335 -0.421433,-0.29672 -2.439904,-1.05992 -3.55075,-1.15391 -4.849225,-2.13939 -0.01135,-2.31422 -0.156777,-2.30774 -0.252713,-3.29917 0.213538,0.15942 0.897591,0.20289 2.670431,0.85233 z"
         id="path20224"
         sodipodi:nodetypes="cscccccccscccccccccccccscccc" /><path
         style="opacity:0.99;fill:#fde0a4;fill-opacity:1;fill-rule:nonzero;stroke:none;stroke-width:0.1;stroke-dasharray:none;stroke-opacity:1;paint-order:fill markers stroke"
         d="m 14.722286,118.04619 c 0,0 0.717791,-3.53779 0.541004,-3.64386 -0.176787,-0.10607 1.025358,-0.17678 1.308214,-0.56571 0.282858,-0.38893 0.707144,-0.81322 0.813215,-1.27286 0.106072,-0.45964 0.212143,-1.09607 0.212143,-1.44964 0,-0.35358 -0.106071,-1.30822 -0.106071,-1.30822 v -0.14143 c 0,0 4.348927,0.21215 6.611783,1.41429 2.262857,1.20214 2.368929,1.27286 2.368929,1.27286 0,0 0.990002,-0.77786 1.060714,-0.91929 0.07072,-0.14143 0.459645,-0.35357 0.459645,-0.35357 l 0.459642,0.99 c 0,0 0.141428,4.31357 -0.03536,4.98536 -0.176787,0.67178 -0.106071,0.31821 -0.14143,0.495 -0.03536,0.17678 -0.141428,1.20214 -0.141428,1.52035 0,0.31822 0.07071,1.13143 0.03536,1.44965 -0.03536,0.31821 -0.565713,1.87393 -0.565713,1.87393 0,0 -1.025359,0.99 -1.272858,1.09607 -0.247499,0.10607 -1.485,0.63643 -1.661784,0.70714 -0.176787,0.0707 -0.707144,0.14143 -0.883931,0.14143 h -1.661784 c -0.353571,0 -1.308214,-0.14143 -1.626428,-0.21214 -0.318215,-0.0707 -1.096071,-0.2475 -1.555716,-0.31822 -0.459642,-0.0707 -1.272857,-0.38893 -1.626428,-0.56571 -0.353571,-0.17679 -1.025356,-0.45965 -1.166786,-0.53036 -0.141428,-0.0707 -0.777857,-0.67178 -0.99,-0.77786 -0.212142,-0.10607 -0.707143,-0.495 -0.813215,-0.63642 -0.106071,-0.14143 -0.494998,-0.49501 -0.494998,-0.49501 v -0.45964 c 0,0 1.455351,-2.79785 0.924993,-3.0807 -0.530357,-0.28286 0.746899,-0.447 0.464043,-0.80057 -0.282858,-0.35357 -0.08729,0.083 -0.08729,-0.0585 0,-0.14142 -0.479078,0.18291 -0.443718,-0.1 0.03536,-0.28286 0.93545,-1.06945 0.93545,-1.06945 0,0 -0.815414,-0.72723 -0.391129,-0.97473 0.424286,-0.2475 -1.769641,0.96558 -1.557498,0.93022 0.212143,-0.0354 -0.622704,0.94619 -0.622704,0.94619 0,0 0.494999,0.17679 0.60107,0.35357 0.106072,0.17679 0.318214,0.45965 0.424286,0.60107 0.106071,0.14143 0.353571,0.45965 0.424286,0.60108 0.07071,0.14142 0.201496,0.35564 0.201496,0.35564 z"
         id="path20216-0"
         sodipodi:nodetypes="cssssccsccccsssccscsscccccccccssscsccscscc" /><path
         style="opacity:0.99;fill:#fde0a4;fill-opacity:0.992157;fill-rule:nonzero;stroke:none;stroke-width:0.0719722;stroke-dasharray:none;stroke-opacity:1;paint-order:fill markers stroke"
         d="m 16.624965,122.67627 v 0.3435 c 0,0 -0.08294,0.40597 0.663569,0.46842 0.746515,0.0624 1.119772,0.15615 1.119772,0.15615 l 0.08294,-0.64359 c 0,0 -0.663567,-0.10589 -1.119771,-0.19957 -0.456204,-0.0937 -0.497676,-0.2186 -0.497676,-0.2186 z"
         id="path20220-1"
         sodipodi:nodetypes="ccsccscc" /><ellipse
         style="opacity:0.99;fill:#000000;fill-opacity:1;fill-rule:nonzero;stroke:#000000;stroke-width:0.1;stroke-dasharray:none;stroke-opacity:1;paint-order:fill markers stroke"
         id="ellipse20244-8"
         cx="21.981146"
         cy="117.46073"
         rx="0.77785712"
         ry="1.3966072" /><ellipse
         style="opacity:0.99;fill:#000000;fill-opacity:1;fill-rule:nonzero;stroke:#000000;stroke-width:0.0792771;stroke-dasharray:none;stroke-opacity:1;paint-order:fill markers stroke"
         id="ellipse20246-7"
         cx="26.891001"
         cy="117.37151"
         rx="0.56723642"
         ry="1.203665" /><ellipse
         style="opacity:0.99;fill:#ffffff;fill-opacity:1;fill-rule:nonzero;stroke:none;stroke-width:0.1;stroke-dasharray:none;stroke-opacity:1;paint-order:fill markers stroke"
         id="ellipse20248-4"
         cx="22.025343"
         cy="117.00109"
         rx="0.53919643"
         ry="0.68946427" /><ellipse
         style="opacity:0.99;fill:#ffffff;fill-opacity:1;fill-rule:nonzero;stroke:none;stroke-width:0.0775845;stroke-dasharray:none;stroke-opacity:1;paint-order:fill markers stroke"
         id="ellipse20250-8"
         cx="26.878107"
         cy="116.84197"
         rx="0.40013629"
         ry="0.55924344" /><path
         style="opacity:0.99;fill:#000000;fill-opacity:1;fill-rule:nonzero;stroke:#000000;stroke-width:0.1;stroke-dasharray:none;stroke-opacity:1;paint-order:fill markers stroke"
         d="m 19.806683,113.92501 c 0.335891,-0.28286 0.848572,-0.76018 1.11375,-0.7425 0.265179,0.0177 0.636429,0.053 0.919285,0.0884 0.282858,0.0354 0.689464,0.30054 0.830894,0.38893 0.141428,0.0884 0.371251,0.53036 0.548035,0.65411 0.176786,0.12375 0.335893,0.51268 0.37125,0.54804 0.03536,0.0354 0.159107,0.22982 0.141427,0.26517 -0.01767,0.0354 -0.318214,-0.22098 -0.459642,-0.25634 -0.141427,-0.0353 -0.609909,-0.30937 -0.715981,-0.41544 -0.106071,-0.10607 -0.07071,-0.22982 -0.291698,-0.32705 -0.220982,-0.0972 -0.822052,-0.18563 -0.892767,-0.20331 -0.07071,-0.0177 -0.353571,-0.0177 -0.574553,-0.0177 -0.220983,0 -0.742501,0.0354 -0.804376,0.053 -0.06187,0.0177 -0.247499,0.053 -0.247499,0.053 z"
         id="path20252-4" /><path
         style="opacity:0.99;fill:#000000;fill-opacity:1;fill-rule:nonzero;stroke:#000000;stroke-width:0.1;stroke-dasharray:none;stroke-opacity:1;paint-order:fill markers stroke"
         d="m 26.259363,115.28626 c 0.03536,-0.0884 0.194463,-0.53036 0.406606,-0.65411 0.212143,-0.12375 0.583393,-0.37125 0.671785,-0.4066 0.08839,-0.0354 0.282858,0 0.441965,0.0707 0.159107,0.0707 0.318215,0.12375 0.265179,0.21214 -0.05304,0.0884 -0.159107,0.0884 -0.406609,0.14143 -0.247499,0.053 -0.494999,0.14143 -0.583393,0.26518 -0.08839,0.12375 -0.335891,0.2475 -0.441963,0.40661 -0.106071,0.1591 -0.318214,0.2475 -0.318214,0.17678 0,-0.0707 -0.03536,-0.21214 -0.03536,-0.21214 z"
         id="path20254-6" /><path
         style="opacity:0.99;fill:none;fill-opacity:1;fill-rule:nonzero;stroke:#000000;stroke-width:0.1;stroke-dasharray:none;stroke-opacity:1;paint-order:fill markers stroke"
         d="m 25.397829,118.58372 c -0.01249,0.075 -0.025,0.27501 -0.01249,0.36252 0.01249,0.0875 0.08751,0.21251 0.237513,0.23751 0.150009,0.025 0.262512,0.075 0.350018,0.12501 0.08751,0.05 0.337518,0.25001 0.350017,0.36252 0.01252,0.1125 -0.075,0.38752 -0.112506,0.46252 -0.0375,0.075 0.0375,0.23751 -0.112504,0.23751 -0.150008,0 -0.387522,-0.0625 -0.462526,-0.0625 -0.075,0 -0.362516,-0.0375 -0.362516,-0.0375 l 0.137507,-0.0125 0.21251,0.0625"
         id="path20256-2" /><path
         style="opacity:0.99;fill:none;fill-opacity:1;fill-rule:nonzero;stroke:#000000;stroke-width:0.1;stroke-dasharray:none;stroke-opacity:1;paint-order:fill markers stroke"
         d="m 24.43528,122.1214 c -0.075,0.025 -1.100055,0.15001 -1.36257,0.075 -0.262514,-0.075 -0.800039,-0.33752 -0.862544,-0.42503 -0.0625,-0.0875 -0.437523,-0.28751 -0.500025,-0.41252 -0.0625,-0.125 -0.075,-0.37502 -0.075,-0.37502 0,0 -0.237512,0.31252 -0.287515,0.33752 -0.05,0.025 -0.175009,0.025 -0.175009,0.025"
         id="path20258-7" /><path
         style="opacity:0.99;fill:#fde0a4;fill-opacity:1;fill-rule:nonzero;stroke:none;stroke-width:0.1;stroke-dasharray:none;stroke-opacity:1;paint-order:fill markers stroke"
         d="m 14.75712,117.29814 c 0,0 0.717791,-3.53779 0.541004,-3.64386 -0.176787,-0.10607 1.025358,-0.17678 1.308214,-0.56571 0.282858,-0.38893 0.707144,-0.81322 0.813215,-1.27286 0.106072,-0.45964 0.212143,-1.09607 0.212143,-1.44964 0,-0.35358 -0.106071,-1.30822 -0.106071,-1.30822 v -0.14143 c 0,0 4.348927,0.21215 6.611783,1.41429 2.262857,1.20214 2.368929,1.27286 2.368929,1.27286 0,0 0.990002,-0.77786 1.060714,-0.91929 0.07072,-0.14143 0.459645,-0.35357 0.459645,-0.35357 l 0.459641,0.99 c 0,0 0.141422,4.31357 -0.03536,4.98536 -0.176785,0.67178 -0.10606,0.31821 -0.141423,0.495 -0.03536,0.17678 -0.141422,1.20214 -0.141422,1.52035 0,0.31822 0.0707,1.13143 0.03536,1.44965 -0.03536,0.31821 -0.565714,1.87393 -0.565714,1.87393 0,0 -1.025359,0.99 -1.272858,1.09607 -0.247499,0.10607 -1.485,0.63643 -1.661784,0.70714 -0.176788,0.0707 -0.707144,0.14143 -0.883931,0.14143 h -1.661784 c -0.353571,0 -1.308214,-0.14143 -1.626428,-0.21214 -0.318226,-0.0707 -1.096082,-0.2475 -1.555727,-0.31822 -0.459642,-0.0707 -1.272857,-0.38893 -1.626428,-0.56571 -0.353571,-0.17679 -1.025356,-0.45965 -1.166786,-0.53036 -0.141428,-0.0707 -0.777857,-0.67178 -0.99,-0.77786 -0.212142,-0.10607 -0.707143,-0.495 -0.813215,-0.63642 -0.106071,-0.14143 -0.494998,-0.49501 -0.494998,-0.49501 v -0.45964 c 0,0 -0.459642,0.495 -0.99,0.21215 -0.530357,-0.28286 -0.447053,-0.75059 -0.729909,-1.10416 -0.282858,-0.35357 0.784752,-1.63321 0.784752,-1.77464 0,-0.14142 -0.584624,0.17491 -0.549264,-0.10795 0.03536,-0.28286 0.341161,-0.7425 0.341161,-0.7425 0,0 0.561673,-1.10256 0.985959,-1.35006 0.424286,-0.2475 0.06639,0.2602 0.278529,0.22484 0.212142,-0.0354 -0.899086,0.43486 -0.899086,0.43486 0,0 0.494999,0.17679 0.60107,0.35357 0.106072,0.17679 0.318214,0.45965 0.424286,0.60107 0.106071,0.14143 0.353571,0.45965 0.424286,0.60108 0.07071,0.14142 0.201497,0.35564 0.201497,0.35564 z"
         id="path20216-7"
         sodipodi:nodetypes="cssssccsccccsssccscsscccccccccssscsccccscc" /><path
         style="opacity:0.99;fill:#fde0a4;fill-opacity:0.992157;fill-rule:nonzero;stroke:none;stroke-width:0.108535;stroke-dasharray:none;stroke-opacity:1;paint-order:fill markers stroke"
         d="m 16.461585,122.02712 v 0.70618 c 0,0 -0.09175,0.83457 0.734045,0.96296 0.825802,0.1284 1.238702,0.321 1.238702,0.321 l 0.09175,-1.32307 c 0,0 -0.734042,-0.21768 -1.2387,-0.41027 -0.504657,-0.1926 -0.550533,-0.44939 -0.550533,-0.44939 z"
         id="path20220-9"
         sodipodi:nodetypes="ccsccscc" /><ellipse
         style="opacity:0.99;fill:#000000;fill-opacity:1;fill-rule:nonzero;stroke:#000000;stroke-width:0.1;stroke-dasharray:none;stroke-opacity:1;paint-order:fill markers stroke"
         id="ellipse20244-4"
         cx="22.01598"
         cy="116.71268"
         rx="0.77785707"
         ry="1.3966072" /><ellipse
         style="opacity:0.99;fill:#000000;fill-opacity:1;fill-rule:nonzero;stroke:#000000;stroke-width:0.0792771;stroke-dasharray:none;stroke-opacity:1;paint-order:fill markers stroke"
         id="ellipse20246-6"
         cx="26.925833"
         cy="116.62346"
         rx="0.56723642"
         ry="1.203665" /><ellipse
         style="opacity:0.99;fill:#ffffff;fill-opacity:1;fill-rule:nonzero;stroke:none;stroke-width:0.1;stroke-dasharray:none;stroke-opacity:1;paint-order:fill markers stroke"
         id="ellipse20248-8"
         cx="22.060175"
         cy="116.25304"
         rx="0.53919643"
         ry="0.68946427" /><ellipse
         style="opacity:0.99;fill:#ffffff;fill-opacity:1;fill-rule:nonzero;stroke:none;stroke-width:0.0775844;stroke-dasharray:none;stroke-opacity:1;paint-order:fill markers stroke"
         id="ellipse20250-0"
         cx="26.912941"
         cy="116.09393"
         rx="0.40013632"
         ry="0.55924344" /><path
         style="opacity:0.99;fill:#000000;fill-opacity:1;fill-rule:nonzero;stroke:#000000;stroke-width:0.1;stroke-dasharray:none;stroke-opacity:1;paint-order:fill markers stroke"
         d="m 19.841517,113.17696 c 0.335891,-0.28286 0.848572,-0.76018 1.11375,-0.7425 0.265177,0.0177 0.636429,0.053 0.919285,0.0884 0.282858,0.0354 0.689464,0.30054 0.830894,0.38893 0.141428,0.0884 0.371251,0.53036 0.548035,0.65411 0.176785,0.12375 0.335893,0.51268 0.37125,0.54804 0.03536,0.0354 0.159106,0.22982 0.141428,0.26517 -0.01767,0.0354 -0.318215,-0.22098 -0.459643,-0.25634 -0.141427,-0.0353 -0.609909,-0.30937 -0.715981,-0.41544 -0.106071,-0.10607 -0.07071,-0.22982 -0.291698,-0.32705 -0.220982,-0.0972 -0.822052,-0.18563 -0.892767,-0.20331 -0.07071,-0.0177 -0.353571,-0.0177 -0.574553,-0.0177 -0.220983,0 -0.742501,0.0354 -0.804376,0.053 -0.06187,0.0177 -0.2475,0.053 -0.2475,0.053 z"
         id="path20252-6" /><path
         style="opacity:0.99;fill:#000000;fill-opacity:1;fill-rule:nonzero;stroke:#000000;stroke-width:0.1;stroke-dasharray:none;stroke-opacity:1;paint-order:fill markers stroke"
         d="m 26.294197,114.53821 c 0.03536,-0.0884 0.194463,-0.53036 0.406606,-0.65411 0.212142,-0.12375 0.583393,-0.37125 0.671785,-0.4066 0.08839,-0.0354 0.282858,0 0.441965,0.0707 0.159107,0.0707 0.318216,0.12375 0.265178,0.21214 -0.05304,0.0884 -0.159107,0.0884 -0.406609,0.14143 -0.2475,0.053 -0.494999,0.14143 -0.583393,0.26518 -0.08839,0.12375 -0.335891,0.2475 -0.441963,0.40661 -0.106071,0.1591 -0.318215,0.2475 -0.318215,0.17678 0,-0.0707 -0.03536,-0.21214 -0.03536,-0.21214 z"
         id="path20254-2" /><path
         style="opacity:0.99;fill:none;fill-opacity:1;fill-rule:nonzero;stroke:#000000;stroke-width:0.1;stroke-dasharray:none;stroke-opacity:1;paint-order:fill markers stroke"
         d="m 25.432663,117.83567 c -0.01249,0.075 -0.025,0.27501 -0.01249,0.36252 0.01249,0.0875 0.08751,0.21251 0.237512,0.23751 0.150009,0.025 0.262512,0.075 0.350018,0.12501 0.08751,0.05 0.337518,0.25001 0.350017,0.36252 0.01251,0.1125 -0.075,0.38752 -0.112505,0.46252 -0.0375,0.075 0.0375,0.23751 -0.112505,0.23751 -0.150009,0 -0.387522,-0.0625 -0.462526,-0.0625 -0.075,0 -0.362516,-0.0375 -0.362516,-0.0375 l 0.137507,-0.0125 0.21251,0.0625"
         id="path20256-9" /><path
         style="opacity:0.99;fill:none;fill-opacity:1;fill-rule:nonzero;stroke:#000000;stroke-width:0.1;stroke-dasharray:none;stroke-opacity:1;paint-order:fill markers stroke"
         d="m 24.470114,121.37335 c -0.075,0.025 -1.100055,0.15001 -1.36257,0.075 -0.262514,-0.075 -0.800039,-0.33752 -0.862544,-0.42503 -0.0625,-0.0875 -0.437523,-0.28751 -0.500025,-0.41252 -0.0625,-0.125 -0.075,-0.37502 -0.075,-0.37502 0,0 -0.237512,0.31252 -0.287515,0.33752 -0.05,0.025 -0.175009,0.025 -0.175009,0.025"
         id="path20258-6" /><path
         style="opacity:0.99;fill:#999999;fill-opacity:1;fill-rule:nonzero;stroke:none;stroke-width:0.28245;stroke-dasharray:none;stroke-opacity:1;paint-order:fill markers stroke"
         d="m 15.798842,104.30955 c -0.904243,0.60283 3.223045,5.73903 8.897614,5.57866 5.688975,-0.16078 3.951795,-1.91608 3.954495,-1.90663 1.04186,4.14249 1.109075,15.42752 -3.1727,16.62107 -4.884797,2.13093 -15.066588,-5.08268 -14.198833,-6.31114 1.227472,-1.7377 0.659436,-5.07995 4.519424,-13.98196 z"
         id="path157"
         sodipodi:nodetypes="csccsc" /><ellipse
         style="opacity:0.99;fill:#9a9a99;fill-opacity:1;fill-rule:nonzero;stroke:none;stroke-width:0.266218;stroke-dasharray:none;stroke-opacity:1;paint-order:fill markers stroke"
         id="path981"
         transform="matrix(0.94256129,0.33403324,-0.54042653,0.84139121,0,0)"
         ry="2.9252892"
         rx="6.9429483"
         cy="96.125496"
         cx="78.600075" /><path
         style="opacity:0.99;fill:#4d4d4d;fill-opacity:1;fill-rule:nonzero;stroke:none;stroke-width:0.280562;stroke-dasharray:none;stroke-opacity:1;paint-order:fill markers stroke"
         d="m 26.190571,110.03982 c 0,0 1.303152,5.63175 0.173297,10.09098 -1.129856,4.45922 -0.988624,4.45922 -0.988624,4.45922 0,0 1.129856,-0.2787 1.41232,-0.97545 0.282463,-0.69676 2.259709,-5.15598 1.977245,-7.10689 -0.282463,-1.95091 -0.298128,-5.59094 -0.298128,-5.59094 0,0 0.548528,-1.43432 -2.27611,-0.87692 z"
         id="path983"
         sodipodi:nodetypes="cscsscc" /><path
         style="opacity:0.99;fill:#4d4d4d;fill-opacity:1;fill-rule:nonzero;stroke:none;stroke-width:0.28245;stroke-dasharray:none;stroke-opacity:1;paint-order:fill markers stroke"
         d="m 29.064434,115.70404 c -1.303279,0.66405 -5.450035,0.8221 -8.902509,-0.98463 -0.39865,-1.46428 -1.930694,1.20304 0.09492,2.32506 1.464932,0.72773 4.2734,1.24551 5.271028,1.20159 0.997696,-0.0439 3.478619,-0.26029 3.513032,-0.84158 0.0344,-0.5813 0.123402,-2.2497 0.123402,-2.2497 z"
         id="path989"
         sodipodi:nodetypes="cccsccc" /><path
         style="opacity:0.99;fill:#808080;fill-opacity:1;fill-rule:nonzero;stroke:none;stroke-width:0.304975;stroke-dasharray:none;stroke-opacity:1;paint-order:fill markers stroke"
         d="m 21.793373,104.5567 c 0,0 -4.775083,-0.56492 -5.227893,0.0706 -0.452809,0.63554 0.08233,1.09455 0.28815,1.23578 3.371978,1.31079 7.105617,1.27996 10.702773,1.73009"
         id="path1412"
         sodipodi:nodetypes="cscc" /><path
         style="opacity:0.99;fill:#666666;fill-opacity:0.423792;fill-rule:nonzero;stroke:none;stroke-width:0.262678;stroke-dasharray:none;stroke-opacity:1;paint-order:fill markers stroke"
         d="m 13.592024,120.03779 c -2.274846,-1.93165 -1.122034,-2.12161 -1.375059,-1.8351 -0.103441,-5.39277 2.745128,-8.68684 3.41864,-12.04347 0.274196,0.259 -0.403084,0.21953 1.748087,1.59963"
         id="path3187"
         sodipodi:nodetypes="cccc" /><path
         style="opacity:0.99;fill:#666666;fill-opacity:1;fill-rule:nonzero;stroke:none;stroke-width:0.199389;stroke-dasharray:none;stroke-opacity:1;paint-order:fill markers stroke"
         d="m 27.224852,111.30019 c 0,0 0.591847,4.91079 -0.19774,8.74824 -0.789589,3.83746 -0.707386,3.84078 -0.707386,3.84078 0,0 0.66588,-0.21489 0.850906,-0.812 0.185027,-0.59711 1.46784,-4.41461 1.361159,-6.11179 -0.106681,-1.69718 -0.0079,-4.85175 -0.0079,-4.85175 0,0 0.361713,-1.22997 -1.29886,-0.81348 z"
         id="path5668"
         sodipodi:nodetypes="cscsscc" /><path
         style="opacity:0.99;fill:#666666;fill-opacity:1;fill-rule:nonzero;stroke:none;stroke-width:0.201434;stroke-dasharray:none;stroke-opacity:1;paint-order:fill markers stroke"
         d="m 29.072419,116.30783 c -1.199098,0.36708 -5.014368,0.45446 -8.190856,-0.5443 -0.366782,-0.80945 -1.776357,0.66504 0.08734,1.28529 1.347826,0.40229 3.931789,0.68851 4.849669,0.66424 0.917941,-0.0243 3.200541,-0.14389 3.232203,-0.46523 0.03166,-0.32134 0.113517,-1.24363 0.113517,-1.24363 z"
         id="path5670"
         sodipodi:nodetypes="cccsccc" /></g></g></svg>
