<?xml version="1.0" encoding="UTF-8" standalone="no"?>
<!-- Created with Inkscape (http://www.inkscape.org/) -->

<svg
   width="50"
   height="70"
   viewBox="0 0 13.229166 18.520833"
   version="1.1"
   id="svg18473"
   xml:space="preserve"
   inkscape:version="1.2.2 (732a01da63, 2022-12-09)"
   sodipodi:docname="templar_idle3.svg"
   xmlns:inkscape="http://www.inkscape.org/namespaces/inkscape"
   xmlns:sodipodi="http://sodipodi.sourceforge.net/DTD/sodipodi-0.dtd"
   xmlns="http://www.w3.org/2000/svg"
   xmlns:svg="http://www.w3.org/2000/svg"><sodipodi:namedview
     id="namedview18475"
     pagecolor="#ffffff"
     bordercolor="#000000"
     borderopacity="0.25"
     inkscape:showpageshadow="2"
     inkscape:pageopacity="0.0"
     inkscape:pagecheckerboard="0"
     inkscape:deskcolor="#d1d1d1"
     inkscape:document-units="mm"
     showgrid="true"
     inkscape:zoom="8"
     inkscape:cx="12.25"
     inkscape:cy="37.125"
     inkscape:window-width="1366"
     inkscape:window-height="705"
     inkscape:window-x="-8"
     inkscape:window-y="-8"
     inkscape:window-maximized="1"
     inkscape:current-layer="g32875"><inkscape:grid
       type="xygrid"
       id="grid36773"
       originx="0"
       originy="0" /></sodipodi:namedview><defs
     id="defs18470" /><g
     inkscape:label="Capa 1"
     inkscape:groupmode="layer"
     id="layer1"><g
       id="g32875"
       transform="matrix(0.35404553,0,0,0.35404553,0.19039912,-34.874894)"><path
         style="opacity:0.99;fill:#999999;fill-opacity:1;fill-rule:nonzero;stroke:none;stroke-width:0.1;stroke-dasharray:none;stroke-opacity:1;paint-order:fill markers stroke"
         d="m 12.384835,131.79024 c -0.335384,0 0.07341,3.28233 0.244786,3.55735 0.146044,0.23436 0.844728,2.6474 0.769724,2.77241 0.570591,0.9075 -1.435196,1.29027 -2.344805,2.22784 -0.137249,0.0491 -0.725038,1.07506 -0.725038,1.07506 0,0 0.550027,0.15 0.725038,0.15 0.175009,0 1.325068,-0.125 1.650082,-0.17501 0.325017,-0.05 0.700037,-0.05 0.95005,-0.05 0.250012,0 0.550026,0.45002 0.650033,0.45002 0.100005,0 0,-0.37501 0.025,-0.62503 1.060465,-1.15768 1.711396,-0.88023 2.032328,-2.16679 -0.368489,-1.96203 -1.090066,-3.86621 -1.832318,-5.4836 -0.250013,-0.35002 -0.975048,-1.37507 -0.975048,-1.37507 z"
         id="path20232"
         sodipodi:nodetypes="cscccscssccccc" /><path
         style="opacity:0.99;fill:#666666;fill-opacity:1;fill-rule:nonzero;stroke:none;stroke-width:0.1;stroke-dasharray:none;stroke-opacity:1;paint-order:fill markers stroke"
         d="m 16.754829,134.89756 c 0,0 1.048205,1.51705 1.173213,1.59206 0.125005,0.075 1.522638,1.71058 1.522638,1.71058 0,0 -0.477255,0.4287 -0.577255,0.95373 -0.100007,0.52503 -0.893529,1.34392 -0.893529,1.59393 0,0.25001 -0.250013,0.67504 -0.150009,0.67504 0.100005,0 1.000051,0.075 1.600081,0.075 0.600033,0 0.625033,0.15 1.475076,0.025 0.850043,-0.12501 1.100056,-0.1 1.250064,-0.15001 0.150008,-0.05 -0.347242,0 -0.472251,-0.40002 -0.125005,-0.40001 -0.248159,0.0241 -0.398172,-0.57595 -0.138581,-1.06694 0.734657,-1.87728 0.908904,-2.53316 -0.528344,-0.93796 -2.731856,-3.08691 -3.638657,-3.56623 l -0.750038,-0.125 c 0,0 -0.650034,0.52502 -0.750038,0.57503 l -0.300017,0.15 z"
         id="path20234"
         sodipodi:nodetypes="cscsssscssccccccc" /><path
         style="opacity:0.99;fill:#fde0a4;fill-opacity:1;fill-rule:nonzero;stroke:none;stroke-width:0.1;stroke-dasharray:none;stroke-opacity:1;paint-order:fill markers stroke"
         d="m 14.37971,118.27171 c 0,0 0.717791,-3.53779 0.541004,-3.64386 -0.176787,-0.10607 1.025358,-0.17678 1.308214,-0.56571 0.282858,-0.38893 0.707144,-0.81322 0.813215,-1.27286 0.106072,-0.45964 0.212143,-1.09607 0.212143,-1.44964 0,-0.35358 -0.106071,-1.30822 -0.106071,-1.30822 v -0.14143 c 0,0 4.348927,0.21215 6.611783,1.41429 2.262857,1.20214 2.368929,1.27286 2.368929,1.27286 0,0 0.990002,-0.77786 1.060714,-0.91929 0.07072,-0.14143 0.459645,-0.35357 0.459645,-0.35357 l 0.459642,0.99 c 0,0 0.141428,4.31357 -0.03536,4.98536 -0.176787,0.67178 -0.106071,0.31821 -0.14143,0.495 -0.03536,0.17678 -0.141428,1.20214 -0.141428,1.52035 0,0.31822 0.07071,1.13143 0.03536,1.44965 -0.03536,0.31821 -0.565713,1.87393 -0.565713,1.87393 0,0 -1.025359,0.99 -1.272858,1.09607 -0.247499,0.10607 -1.485,0.63643 -1.661784,0.70714 -0.176787,0.0707 -0.707144,0.14143 -0.883931,0.14143 H 21.78 c -0.353571,0 -1.308214,-0.14143 -1.626428,-0.21214 -0.318215,-0.0707 -1.096071,-0.2475 -1.555716,-0.31822 -0.459642,-0.0707 -1.272857,-0.38893 -1.626428,-0.56571 -0.353571,-0.17679 -1.025356,-0.45965 -1.166786,-0.53036 -0.141428,-0.0707 -0.777857,-0.67178 -0.99,-0.77786 -0.212142,-0.10607 -0.707143,-0.495 -0.813215,-0.63642 -0.106071,-0.14143 -0.494998,-0.49501 -0.494998,-0.49501 v -0.45964 c 0,0 1.455351,-2.79785 0.924993,-3.0807 -0.530357,-0.28286 0.746899,-0.447 0.464043,-0.80057 -0.282858,-0.35357 -0.08729,0.083 -0.08729,-0.0585 0,-0.14142 -0.479078,0.18291 -0.443718,-0.1 0.03536,-0.28286 0.93545,-1.06945 0.93545,-1.06945 0,0 -0.815414,-0.72723 -0.391129,-0.97473 0.424286,-0.2475 -1.769641,0.96558 -1.557498,0.93022 0.212143,-0.0354 -0.622704,0.94619 -0.622704,0.94619 0,0 0.494999,0.17679 0.60107,0.35357 0.106072,0.17679 0.318214,0.45965 0.424286,0.60107 0.106071,0.14143 0.353571,0.45965 0.424286,0.60108 0.07071,0.14142 0.201496,0.35564 0.201496,0.35564 z"
         id="path20216"
         sodipodi:nodetypes="cssssccsccccsssccscsscccccccccssscsccscscc" /><path
         style="opacity:0.99;fill:#fde0a4;fill-opacity:0.992157;fill-rule:nonzero;stroke:none;stroke-width:0.108535;stroke-dasharray:none;stroke-opacity:1;paint-order:fill markers stroke"
         d="m 16.084175,123.00069 v 0.70618 c 0,0 -0.09175,0.83457 0.734045,0.96296 0.825802,0.1284 1.238702,0.321 1.238702,0.321 l 0.09175,-1.32307 c 0,0 -0.734043,-0.21768 -1.2387,-0.41027 -0.504657,-0.1926 -0.550533,-0.44939 -0.550533,-0.44939 z"
         id="path20220"
         sodipodi:nodetypes="ccsccscc" /><path
         style="opacity:0.99;fill:#999999;fill-opacity:1;fill-rule:nonzero;stroke:none;stroke-width:0.121125;stroke-dasharray:none;stroke-opacity:1;paint-order:fill markers stroke"
         d="m 12.52741,131.93444 6.707443,0.57408 c -0.0089,-0.002 -0.117744,0.74389 -0.05485,1.39498 -0.380179,0.5403 -0.481287,1.20305 -0.752844,1.47321 -0.271557,0.27016 -0.804028,0.39616 -1.129893,0.4637 -0.32587,0.0675 -0.860542,0.16883 -1.295032,0.10133 -0.434488,-0.0675 -0.977601,0.0667 -1.384937,-0.10206 -0.407333,-0.16885 -0.813569,0.11335 -1.00366,-0.59579 -0.190088,-0.70916 -0.353022,-1.82356 -0.488799,-2.05994 -0.13578,-0.2364 -0.733205,-1.28325 -0.733205,-1.28325 z"
         id="path20230"
         sodipodi:nodetypes="cccscsccscc" /><path
         style="opacity:0.99;fill:#cccccc;fill-opacity:1;fill-rule:nonzero;stroke:none;stroke-width:0.1;stroke-dasharray:none;stroke-opacity:1;paint-order:fill markers stroke"
         d="m 10.354503,141.4979 c 0,0 3.000153,-0.20001 3.275169,-0.075 0.275013,0.125 1.150056,0.60003 1.250063,0.82504 0.100005,0.22501 0.350018,0.75004 0.475023,0.87504 0.125007,0.12501 -0.550027,0.25001 -0.725035,0.20001 -0.175012,-0.05 -0.900047,-0.05 -1.350071,-0.05 -0.450022,0 -1.075055,-0.05 -1.825093,-0.075 -0.750039,-0.025 -1.17506,-0.025 -1.375069,-0.025 -0.2000122,0 -0.7000372,0.12501 -0.6000302,0 0.100004,-0.12501 0.250013,-0.97505 0.450022,-1.40007 0.2000092,-0.42502 0.4250212,-0.27501 0.4250212,-0.27501 z"
         id="path20236" /><path
         style="opacity:0.99;fill:#e3dedb;fill-opacity:1;fill-rule:nonzero;stroke:none;stroke-width:0.1;stroke-dasharray:none;stroke-opacity:1;paint-order:fill markers stroke"
         d="m 9.5294608,143.24799 c -0.125005,-0.025 -0.275013,0.27501 -0.275013,0.27501 0,0 0.05,0.40002 0.200009,0.45002 0.150008,0.05 0.175008,0.05 0.8750462,0.12501 0.700034,0.075 1.300064,0.10001 1.825093,0.10001 0.525026,0 1.80009,-0.075 2.050103,-0.10001 0.250012,-0.025 0.850045,-0.05 1.075055,-0.15001 0.225012,-0.1 0.40002,-0.17501 0.40002,-0.35001 0,-0.17501 -0.125005,-0.45003 -0.250012,-0.45003 -0.125005,0 -5.9003012,0.10001 -5.9003012,0.10001 z"
         id="path20238" /><path
         style="opacity:0.99;fill:#cccccc;fill-opacity:1;fill-rule:nonzero;stroke:none;stroke-width:0.1;stroke-dasharray:none;stroke-opacity:1;paint-order:fill markers stroke"
         d="m 18.239146,141.21504 c 0,0 3.000153,-0.20001 3.275169,-0.075 0.275013,0.125 1.150056,0.60003 1.250063,0.82504 0.100005,0.22501 0.350018,0.75004 0.475023,0.87504 0.125007,0.12501 -0.550027,0.25001 -0.725035,0.20001 -0.175012,-0.05 -0.900047,-0.05 -1.350071,-0.05 -0.450022,0 -1.075055,-0.05 -1.825093,-0.075 -0.750039,-0.025 -1.17506,-0.025 -1.375069,-0.025 -0.200012,0 -0.700037,0.12501 -0.60003,0 0.100004,-0.12501 0.250013,-0.97505 0.450022,-1.40007 0.200009,-0.42502 0.425021,-0.27501 0.425021,-0.27501 z"
         id="path20240" /><path
         style="opacity:0.99;fill:#e3dedb;fill-opacity:1;fill-rule:nonzero;stroke:none;stroke-width:0.1;stroke-dasharray:none;stroke-opacity:1;paint-order:fill markers stroke"
         d="m 17.414104,142.96513 c -0.125005,-0.025 -0.275013,0.27501 -0.275013,0.27501 0,0 0.05,0.40002 0.200009,0.45002 0.150008,0.05 0.175008,0.05 0.875046,0.12501 0.700034,0.075 1.300064,0.10001 1.825093,0.10001 0.525026,0 1.80009,-0.075 2.050103,-0.10001 0.250012,-0.025 0.850045,-0.05 1.075055,-0.15001 0.225012,-0.1 0.40002,-0.17501 0.40002,-0.35001 0,-0.17501 -0.125005,-0.45003 -0.250012,-0.45003 -0.125005,0 -5.900301,0.10001 -5.900301,0.10001 z"
         id="path20242" /><ellipse
         style="opacity:0.99;fill:#000000;fill-opacity:1;fill-rule:nonzero;stroke:#000000;stroke-width:0.1;stroke-dasharray:none;stroke-opacity:1;paint-order:fill markers stroke"
         id="ellipse20244"
         cx="21.638571"
         cy="117.68625"
         rx="0.77785712"
         ry="1.3966072" /><ellipse
         style="opacity:0.99;fill:#000000;fill-opacity:1;fill-rule:nonzero;stroke:#000000;stroke-width:0.0792771;stroke-dasharray:none;stroke-opacity:1;paint-order:fill markers stroke"
         id="ellipse20246"
         cx="26.548426"
         cy="117.59703"
         rx="0.56723642"
         ry="1.203665" /><ellipse
         style="opacity:0.99;fill:#ffffff;fill-opacity:1;fill-rule:nonzero;stroke:none;stroke-width:0.1;stroke-dasharray:none;stroke-opacity:1;paint-order:fill markers stroke"
         id="ellipse20248"
         cx="21.682768"
         cy="117.22661"
         rx="0.53919643"
         ry="0.68946427" /><ellipse
         style="opacity:0.99;fill:#ffffff;fill-opacity:1;fill-rule:nonzero;stroke:none;stroke-width:0.0775845;stroke-dasharray:none;stroke-opacity:1;paint-order:fill markers stroke"
         id="ellipse20250"
         cx="26.535532"
         cy="117.06749"
         rx="0.40013629"
         ry="0.55924344" /><path
         style="opacity:0.99;fill:#000000;fill-opacity:1;fill-rule:nonzero;stroke:#000000;stroke-width:0.1;stroke-dasharray:none;stroke-opacity:1;paint-order:fill markers stroke"
         d="m 19.464107,114.15053 c 0.335891,-0.28286 0.848572,-0.76018 1.11375,-0.7425 0.265179,0.0177 0.636429,0.053 0.919285,0.0884 0.282858,0.0354 0.689464,0.30054 0.830894,0.38893 0.141428,0.0884 0.371251,0.53036 0.548035,0.65411 0.176786,0.12375 0.335893,0.51268 0.37125,0.54804 0.03536,0.0354 0.159107,0.22982 0.141427,0.26517 -0.01767,0.0354 -0.318214,-0.22098 -0.459642,-0.25634 -0.141427,-0.0353 -0.609909,-0.30937 -0.715981,-0.41544 -0.106071,-0.10607 -0.07071,-0.22982 -0.291698,-0.32705 -0.220982,-0.0972 -0.822052,-0.18563 -0.892767,-0.20331 -0.07071,-0.0177 -0.353571,-0.0177 -0.574553,-0.0177 -0.220983,0 -0.742501,0.0354 -0.804376,0.053 -0.06187,0.0177 -0.247499,0.053 -0.247499,0.053 z"
         id="path20252" /><path
         style="opacity:0.99;fill:#000000;fill-opacity:1;fill-rule:nonzero;stroke:#000000;stroke-width:0.1;stroke-dasharray:none;stroke-opacity:1;paint-order:fill markers stroke"
         d="m 25.916787,115.51178 c 0.03536,-0.0884 0.194463,-0.53036 0.406606,-0.65411 0.212143,-0.12375 0.583393,-0.37125 0.671785,-0.4066 0.08839,-0.0354 0.282858,0 0.441965,0.0707 0.159107,0.0707 0.318215,0.12375 0.265179,0.21214 -0.05304,0.0884 -0.159107,0.0884 -0.406609,0.14143 -0.247499,0.053 -0.494999,0.14143 -0.583393,0.26518 -0.08839,0.12375 -0.335891,0.2475 -0.441963,0.40661 -0.106071,0.1591 -0.318214,0.2475 -0.318214,0.17678 0,-0.0707 -0.03536,-0.21214 -0.03536,-0.21214 z"
         id="path20254" /><path
         style="opacity:0.99;fill:none;fill-opacity:1;fill-rule:nonzero;stroke:#000000;stroke-width:0.1;stroke-dasharray:none;stroke-opacity:1;paint-order:fill markers stroke"
         d="m 25.055253,118.80924 c -0.01249,0.075 -0.025,0.27501 -0.01249,0.36252 0.01249,0.0875 0.08751,0.21251 0.237513,0.23751 0.150009,0.025 0.262512,0.075 0.350018,0.12501 0.08751,0.05 0.337518,0.25001 0.350017,0.36252 0.01252,0.1125 -0.075,0.38752 -0.112506,0.46252 -0.0375,0.075 0.0375,0.23751 -0.112504,0.23751 -0.150008,0 -0.387522,-0.0625 -0.462526,-0.0625 -0.075,0 -0.362516,-0.0375 -0.362516,-0.0375 l 0.137507,-0.0125 0.21251,0.0625"
         id="path20256" /><path
         style="opacity:0.99;fill:none;fill-opacity:1;fill-rule:nonzero;stroke:#000000;stroke-width:0.1;stroke-dasharray:none;stroke-opacity:1;paint-order:fill markers stroke"
         d="m 24.092704,122.34692 c -0.075,0.025 -1.100055,0.15001 -1.36257,0.075 -0.262514,-0.075 -0.800039,-0.33752 -0.862544,-0.42503 -0.0625,-0.0875 -0.437523,-0.28751 -0.500025,-0.41252 -0.0625,-0.125 -0.075,-0.37502 -0.075,-0.37502 0,0 -0.237512,0.31252 -0.287515,0.33752 -0.05,0.025 -0.175009,0.025 -0.175009,0.025"
         id="path20258" /><path
         style="opacity:0.99;fill:#f0d194;fill-opacity:0.992157;fill-rule:nonzero;stroke:none;stroke-width:0.1;stroke-dasharray:none;stroke-opacity:1;paint-order:fill markers stroke"
         d="m 19.576239,129.40274 c 0.03084,0.0952 -0.120327,0.19661 -0.123809,0.59189 -0.0035,0.3953 0.07418,0.55411 0.104273,0.72832 0.03013,0.1742 -0.109804,0.79759 -0.109804,0.79759 0,0 -0.550586,0.5723 -0.05384,0.7269 0.496742,0.15459 0.748611,0.28332 0.867548,0.24483 0.118948,-0.0384 0.30223,-0.2029 0.399468,-0.47086 0.09724,-0.26796 0.233656,-0.49604 0.276319,-0.85145 0.04266,-0.35542 0.07201,-0.99559 0.07201,-0.99559 0,0 0.09098,0.44357 0.358936,0.54081 0.267963,0.0972 0.08467,0.26166 0.474341,0.004 0.389681,-0.25748 0.553368,-0.88854 0.53867,-1.01518 -0.01473,-0.12662 0.06784,-0.52123 -0.0091,-0.75909 -0.07697,-0.23788 -0.296659,-0.42956 -0.54923,-0.47923 -0.25257,-0.0497 -0.744324,0.13613 -0.974541,0.23663 -0.230165,0.1008 -1.134774,0.47231 -1.134774,0.47231 z"
         id="path20226"
         sodipodi:nodetypes="csscsssscsssssscc" /><path
         style="opacity:0.99;fill:#f0d194;fill-opacity:0.992157;fill-rule:nonzero;stroke:none;stroke-width:0.1;stroke-dasharray:none;stroke-opacity:1;paint-order:fill markers stroke"
         d="m 20.6195,132.13964 c 0,0 -0.01187,0.45056 0.03431,0.59329 0.04618,0.14273 0.48765,0.28892 0.756308,0.3071 0.268661,0.0182 0.84654,-0.0637 1.054337,-0.31482 0.20778,-0.25118 0.282618,-0.66957 0.3155,-0.81158 0.03287,-0.14203 0.04126,-0.1973 0.160205,-0.23578 0.11893,-0.0385 0.319708,-0.39252 0.273527,-0.53524 -0.04618,-0.14271 -0.08467,-0.26165 -0.123158,-0.38058 -0.03849,-0.11894 0.177687,-0.42539 0.177687,-0.42539 0,0 0.07345,-0.26025 -0.01122,-0.52192 -0.08467,-0.26165 0.09933,-0.50513 -0.225295,-0.45265 -0.324554,0.0529 -0.687038,-0.093 -0.687038,-0.093 0,0 -1.735742,0.48287 -1.848384,0.70321 -0.112633,0.22038 0.123225,2.16743 0.123225,2.16743 z"
         id="path20228" /><path
         style="opacity:0.99;fill:#cccccc;fill-opacity:1;fill-rule:nonzero;stroke:none;stroke-width:0.1;stroke-dasharray:none;stroke-opacity:1;paint-order:fill markers stroke"
         d="m 13.629672,128.17222 c -0.200012,-0.30002 -1.780322,-1.92044 -1.830323,-2.27046 0.292576,-0.75658 1.583591,-0.70264 2.630362,-1.07971 0.400021,-0.05 1.000051,-0.10001 1.000051,-0.10001 l -1.000051,0.05 c 0,0 0.350017,-0.80003 0.800042,-1.00005 0.450021,-0.20001 0.800039,-0.45002 0.800039,-0.45002 0,0 0.300016,0.45002 0.600032,0.80004 0.300014,0.35002 0.450022,0.70004 0.950048,0.55003 0.500025,-0.15001 0.650033,-0.45002 0.650033,-0.45002 0,0 1.20006,4.40022 0.950048,6.30032 -0.250013,1.90009 0.349556,2.03128 0.04954,2.13128 -0.300014,0.10001 -2.165697,0.0995 -2.165697,0.0995 0,0 -1.182363,0.0457 -1.379801,0.0137 l -1.319875,-0.21419 c -0.246794,-0.0401 -1.870644,0.0849 -2.120657,-0.16508 -0.250013,-0.25002 0.686171,-1.06519 0.63617,-2.11524 -0.05,-1.05006 -0.05,-1.15006 0.450022,-1.55008 0.500026,-0.40002 0.700035,-0.40002 0.700035,-0.40002 0,0 0.441445,-0.11465 0.991474,-0.41467 0.550027,-0.30001 1.408649,-1.48543 1.408649,-1.48543 -0.548972,1.05529 -1.329723,1.69338 -2.35012,1.9001 z"
         id="path20222"
         sodipodi:nodetypes="cccccscsscsscssssscsccc" /><path
         style="opacity:0.99;fill:#fde0a4;fill-opacity:0.992157;fill-rule:nonzero;stroke:none;stroke-width:0.1;stroke-dasharray:none;stroke-opacity:1;paint-order:fill markers stroke"
         d="m 13.674148,128.23832 c 0,0 -0.819775,1.18202 -0.728211,1.24621 0.09158,0.0642 1.47907,0.55483 1.610079,0.52378 0.131036,-0.031 1.127449,0.082 1.368406,-0.009 0.240946,-0.0906 0.904529,-0.48718 0.904529,-0.48718 0,0 -0.378292,-0.006 -0.167368,-0.40407 0.21097,-0.39829 0.144136,-0.4588 0.250338,-0.49356 0.106283,-0.0347 0.784419,-0.51517 0.784419,-0.51517 l 0.88127,-0.14685 c 0,0 0.308817,-0.20681 0.42407,0.0378 0.115254,0.24465 0.305731,0.32355 0.171038,0.37932 -0.13471,0.0558 -0.598205,0.11318 -0.598205,0.11318 l 0.898647,-0.0937 0.43614,-0.21313 c 0,0 0.442462,-0.0859 0.507235,0.32825 0.06476,0.41407 -0.163542,0.75924 -0.163542,0.75924 0,0 -0.01109,0.0742 0.146294,0.37564 0.157345,0.30148 0.445709,0.57187 0.246848,0.71921 -0.198845,0.14738 -0.302485,0.33414 -0.34931,0.47882 -0.04692,0.14466 0.09685,0.36829 0.0711,0.5414 -0.02577,0.1731 0.07477,0.51667 -0.293804,0.61337 -0.368283,0.0969 -0.499289,0.12787 -0.867576,0.22477 -0.368276,0.0968 -0.354579,0.17474 -0.721856,0.0948 -0.367246,-0.0799 -0.649276,-0.22301 -0.836073,-0.32664 -0.186793,-0.10362 -0.232565,-0.13571 -0.476173,-0.19725 -2.014657,0.42555 -4.075762,0.14108 -5.914969,-1.0878 -0.544858,-1.68244 0.717689,-3.88083 0.5942,-4.53187 0.630529,0.74227 1.177264,1.34084 1.822474,2.07043 z"
         id="path20224"
         sodipodi:nodetypes="cscccccccscccccccccccccscccc" /><path
         style="opacity:0.99;fill:#fde0a4;fill-opacity:1;fill-rule:nonzero;stroke:none;stroke-width:0.1;stroke-dasharray:none;stroke-opacity:1;paint-order:fill markers stroke"
         d="m 14.414544,117.52366 c 0,0 0.717791,-3.53779 0.541004,-3.64386 -0.176787,-0.10607 1.025358,-0.17678 1.308214,-0.56571 0.282858,-0.38893 0.707144,-0.81322 0.813215,-1.27286 0.106072,-0.45964 0.212143,-1.09607 0.212143,-1.44964 0,-0.35358 -0.106071,-1.30822 -0.106071,-1.30822 v -0.14143 c 0,0 4.348927,0.21215 6.611783,1.41429 2.262857,1.20214 2.368929,1.27286 2.368929,1.27286 0,0 0.990002,-0.77786 1.060714,-0.91929 0.07072,-0.14143 0.459645,-0.35357 0.459645,-0.35357 l 0.459641,0.99 c 0,0 0.141422,4.31357 -0.03536,4.98536 -0.176785,0.67178 -0.10606,0.31821 -0.141423,0.495 -0.03536,0.17678 -0.141422,1.20214 -0.141422,1.52035 0,0.31822 0.0707,1.13143 0.03536,1.44965 -0.03536,0.31821 -0.565714,1.87393 -0.565714,1.87393 0,0 -1.025359,0.99 -1.272858,1.09607 -0.247499,0.10607 -1.485,0.63643 -1.661784,0.70714 -0.176788,0.0707 -0.707144,0.14143 -0.883931,0.14143 h -1.661784 c -0.353571,0 -1.308214,-0.14143 -1.626428,-0.21214 -0.318226,-0.0707 -1.096082,-0.2475 -1.555727,-0.31822 -0.459642,-0.0707 -1.272857,-0.38893 -1.626428,-0.56571 -0.353571,-0.17679 -1.025356,-0.45965 -1.166786,-0.53036 -0.141428,-0.0707 -0.777857,-0.67178 -0.99,-0.77786 -0.212142,-0.10607 -0.707143,-0.495 -0.813215,-0.63642 -0.106071,-0.14143 -0.494998,-0.49501 -0.494998,-0.49501 v -0.45964 c 0,0 -0.459642,0.495 -0.99,0.21215 -0.530357,-0.28286 -0.447053,-0.75059 -0.729909,-1.10416 -0.282858,-0.35357 0.784752,-1.63321 0.784752,-1.77464 0,-0.14142 -0.584624,0.17491 -0.549264,-0.10795 0.03536,-0.28286 0.341161,-0.7425 0.341161,-0.7425 0,0 0.561673,-1.10256 0.985959,-1.35006 0.424286,-0.2475 0.06639,0.2602 0.278529,0.22484 0.212142,-0.0354 -0.899086,0.43486 -0.899086,0.43486 0,0 0.494999,0.17679 0.60107,0.35357 0.106072,0.17679 0.318214,0.45965 0.424286,0.60107 0.106071,0.14143 0.353571,0.45965 0.424286,0.60108 0.07071,0.14142 0.201497,0.35564 0.201497,0.35564 z"
         id="path20216-7"
         sodipodi:nodetypes="cssssccsccccsssccscsscccccccccssscsccccscc" /><path
         style="opacity:0.99;fill:#fde0a4;fill-opacity:0.992157;fill-rule:nonzero;stroke:none;stroke-width:0.108535;stroke-dasharray:none;stroke-opacity:1;paint-order:fill markers stroke"
         d="m 16.119009,122.25264 v 0.70618 c 0,0 -0.09175,0.83457 0.734045,0.96296 0.825802,0.1284 1.238702,0.321 1.238702,0.321 l 0.09175,-1.32307 c 0,0 -0.734042,-0.21768 -1.2387,-0.41027 -0.504657,-0.1926 -0.550533,-0.44939 -0.550533,-0.44939 z"
         id="path20220-9"
         sodipodi:nodetypes="ccsccscc" /><ellipse
         style="opacity:0.99;fill:#000000;fill-opacity:1;fill-rule:nonzero;stroke:#000000;stroke-width:0.1;stroke-dasharray:none;stroke-opacity:1;paint-order:fill markers stroke"
         id="ellipse20244-4"
         cx="21.673405"
         cy="116.9382"
         rx="0.77785707"
         ry="1.3966072" /><ellipse
         style="opacity:0.99;fill:#000000;fill-opacity:1;fill-rule:nonzero;stroke:#000000;stroke-width:0.0792771;stroke-dasharray:none;stroke-opacity:1;paint-order:fill markers stroke"
         id="ellipse20246-6"
         cx="26.583258"
         cy="116.84898"
         rx="0.56723642"
         ry="1.203665" /><ellipse
         style="opacity:0.99;fill:#ffffff;fill-opacity:1;fill-rule:nonzero;stroke:none;stroke-width:0.1;stroke-dasharray:none;stroke-opacity:1;paint-order:fill markers stroke"
         id="ellipse20248-8"
         cx="21.7176"
         cy="116.47856"
         rx="0.53919643"
         ry="0.68946427" /><ellipse
         style="opacity:0.99;fill:#ffffff;fill-opacity:1;fill-rule:nonzero;stroke:none;stroke-width:0.0775844;stroke-dasharray:none;stroke-opacity:1;paint-order:fill markers stroke"
         id="ellipse20250-0"
         cx="26.570366"
         cy="116.31944"
         rx="0.40013632"
         ry="0.55924344" /><path
         style="opacity:0.99;fill:#000000;fill-opacity:1;fill-rule:nonzero;stroke:#000000;stroke-width:0.1;stroke-dasharray:none;stroke-opacity:1;paint-order:fill markers stroke"
         d="m 19.498941,113.40248 c 0.335891,-0.28286 0.848572,-0.76018 1.11375,-0.7425 0.265177,0.0177 0.636429,0.053 0.919285,0.0884 0.282858,0.0354 0.689464,0.30054 0.830894,0.38893 0.141428,0.0884 0.371251,0.53036 0.548035,0.65411 0.176785,0.12375 0.335893,0.51268 0.37125,0.54804 0.03536,0.0354 0.159106,0.22982 0.141428,0.26517 -0.01767,0.0354 -0.318215,-0.22098 -0.459643,-0.25634 -0.141427,-0.0353 -0.609909,-0.30937 -0.715981,-0.41544 -0.106071,-0.10607 -0.07071,-0.22982 -0.291698,-0.32705 -0.220982,-0.0972 -0.822052,-0.18563 -0.892767,-0.20331 -0.07071,-0.0177 -0.353571,-0.0177 -0.574553,-0.0177 -0.220983,0 -0.742501,0.0354 -0.804376,0.053 -0.06187,0.0177 -0.2475,0.053 -0.2475,0.053 z"
         id="path20252-6" /><path
         style="opacity:0.99;fill:#000000;fill-opacity:1;fill-rule:nonzero;stroke:#000000;stroke-width:0.1;stroke-dasharray:none;stroke-opacity:1;paint-order:fill markers stroke"
         d="m 25.951621,114.76373 c 0.03536,-0.0884 0.194463,-0.53036 0.406606,-0.65411 0.212142,-0.12375 0.583393,-0.37125 0.671785,-0.4066 0.08839,-0.0354 0.282858,0 0.441965,0.0707 0.159107,0.0707 0.318216,0.12375 0.265178,0.21214 -0.05304,0.0884 -0.159107,0.0884 -0.406609,0.14143 -0.2475,0.053 -0.494999,0.14143 -0.583393,0.26518 -0.08839,0.12375 -0.335891,0.2475 -0.441963,0.40661 -0.106071,0.1591 -0.318215,0.2475 -0.318215,0.17678 0,-0.0707 -0.03536,-0.21214 -0.03536,-0.21214 z"
         id="path20254-2" /><path
         style="opacity:0.99;fill:none;fill-opacity:1;fill-rule:nonzero;stroke:#000000;stroke-width:0.1;stroke-dasharray:none;stroke-opacity:1;paint-order:fill markers stroke"
         d="m 25.090087,118.06119 c -0.01249,0.075 -0.025,0.27501 -0.01249,0.36252 0.01249,0.0875 0.08751,0.21251 0.237512,0.23751 0.150009,0.025 0.262512,0.075 0.350018,0.12501 0.08751,0.05 0.337518,0.25001 0.350017,0.36252 0.01251,0.1125 -0.075,0.38752 -0.112505,0.46252 -0.0375,0.075 0.0375,0.23751 -0.112505,0.23751 -0.150009,0 -0.387522,-0.0625 -0.462526,-0.0625 -0.075,0 -0.362516,-0.0375 -0.362516,-0.0375 l 0.137507,-0.0125 0.21251,0.0625"
         id="path20256-9" /><path
         style="opacity:0.99;fill:none;fill-opacity:1;fill-rule:nonzero;stroke:#000000;stroke-width:0.1;stroke-dasharray:none;stroke-opacity:1;paint-order:fill markers stroke"
         d="m 24.127538,121.59887 c -0.075,0.025 -1.100055,0.15001 -1.36257,0.075 -0.262514,-0.075 -0.800039,-0.33752 -0.862544,-0.42503 -0.0625,-0.0875 -0.437523,-0.28751 -0.500025,-0.41252 -0.0625,-0.125 -0.075,-0.37502 -0.075,-0.37502 0,0 -0.237512,0.31252 -0.287515,0.33752 -0.05,0.025 -0.175009,0.025 -0.175009,0.025"
         id="path20258-6" /><path
         style="opacity:0.99;fill:#999999;fill-opacity:1;fill-rule:nonzero;stroke:none;stroke-width:0.28245;stroke-dasharray:none;stroke-opacity:1;paint-order:fill markers stroke"
         d="m 15.456266,104.53507 c -0.904243,0.60283 3.223045,5.73903 8.897614,5.57866 5.688975,-0.16078 3.951795,-1.91608 3.954495,-1.90663 1.04186,4.14249 1.109075,15.42752 -3.1727,16.62107 -4.884797,2.13093 -15.066588,-5.08268 -14.198833,-6.31114 1.227472,-1.7377 0.659436,-5.07995 4.519424,-13.98196 z"
         id="path157"
         sodipodi:nodetypes="csccsc" /><ellipse
         style="opacity:0.99;fill:#9a9a99;fill-opacity:1;fill-rule:nonzero;stroke:none;stroke-width:0.266218;stroke-dasharray:none;stroke-opacity:1;paint-order:fill markers stroke"
         id="path981"
         transform="matrix(0.94256129,0.33403324,-0.54042653,0.84139121,0,0)"
         ry="2.9252892"
         rx="6.9429483"
         cy="96.461372"
         cx="78.429199" /><path
         style="opacity:0.99;fill:#4d4d4d;fill-opacity:1;fill-rule:nonzero;stroke:none;stroke-width:0.280562;stroke-dasharray:none;stroke-opacity:1;paint-order:fill markers stroke"
         d="m 25.847995,110.26534 c 0,0 1.303152,5.63175 0.173297,10.09098 -1.129856,4.45922 -0.988624,4.45922 -0.988624,4.45922 0,0 1.129856,-0.2787 1.41232,-0.97545 0.282463,-0.69676 2.259709,-5.15598 1.977245,-7.10689 -0.282463,-1.95091 -0.298128,-5.59094 -0.298128,-5.59094 0,0 0.548528,-1.43432 -2.27611,-0.87692 z"
         id="path983"
         sodipodi:nodetypes="cscsscc" /><path
         style="opacity:0.99;fill:#4d4d4d;fill-opacity:1;fill-rule:nonzero;stroke:none;stroke-width:0.28245;stroke-dasharray:none;stroke-opacity:1;paint-order:fill markers stroke"
         d="m 28.721858,115.92956 c -1.303279,0.66405 -5.450035,0.8221 -8.902509,-0.98463 -0.39865,-1.46428 -1.930694,1.20304 0.09492,2.32506 1.464932,0.72773 4.2734,1.24551 5.271028,1.20159 0.997696,-0.0439 3.478619,-0.26029 3.513032,-0.84158 0.0344,-0.5813 0.123402,-2.2497 0.123402,-2.2497 z"
         id="path989"
         sodipodi:nodetypes="cccsccc" /><path
         style="opacity:0.99;fill:#808080;fill-opacity:1;fill-rule:nonzero;stroke:none;stroke-width:0.304975;stroke-dasharray:none;stroke-opacity:1;paint-order:fill markers stroke"
         d="m 21.450797,104.78222 c 0,0 -4.775083,-0.56492 -5.227893,0.0706 -0.452809,0.63554 0.08233,1.09455 0.28815,1.23578 3.371978,1.31079 7.105617,1.27996 10.702773,1.73009"
         id="path1412"
         sodipodi:nodetypes="cscc" /><path
         style="opacity:0.99;fill:#666666;fill-opacity:0.423792;fill-rule:nonzero;stroke:none;stroke-width:0.262678;stroke-dasharray:none;stroke-opacity:1;paint-order:fill markers stroke"
         d="m 13.249448,120.26331 c -2.274846,-1.93165 -1.122034,-2.12161 -1.375059,-1.8351 -0.103441,-5.39277 2.745128,-8.68684 3.41864,-12.04347 0.274196,0.259 -0.403084,0.21953 1.748087,1.59963"
         id="path3187"
         sodipodi:nodetypes="cccc" /><path
         style="opacity:0.99;fill:#666666;fill-opacity:1;fill-rule:nonzero;stroke:none;stroke-width:0.199389;stroke-dasharray:none;stroke-opacity:1;paint-order:fill markers stroke"
         d="m 26.882276,111.52571 c 0,0 0.591847,4.91079 -0.19774,8.74824 -0.789589,3.83746 -0.707386,3.84078 -0.707386,3.84078 0,0 0.66588,-0.21489 0.850906,-0.812 0.185027,-0.59711 1.46784,-4.41461 1.361159,-6.11179 -0.106681,-1.69718 -0.0079,-4.85175 -0.0079,-4.85175 0,0 0.361713,-1.22997 -1.29886,-0.81348 z"
         id="path5668"
         sodipodi:nodetypes="cscsscc" /><path
         style="opacity:0.99;fill:#666666;fill-opacity:1;fill-rule:nonzero;stroke:none;stroke-width:0.201434;stroke-dasharray:none;stroke-opacity:1;paint-order:fill markers stroke"
         d="m 28.729843,116.53335 c -1.199098,0.36708 -5.014368,0.45446 -8.190856,-0.5443 -0.366782,-0.80945 -1.776357,0.66504 0.08734,1.28529 1.347826,0.40229 3.931789,0.68851 4.849669,0.66424 0.917941,-0.0243 3.200541,-0.14389 3.232203,-0.46523 0.03166,-0.32134 0.113517,-1.24363 0.113517,-1.24363 z"
         id="path5670"
         sodipodi:nodetypes="cccsccc" /></g></g></svg>
