<?xml version="1.0" encoding="UTF-8" standalone="no"?>
<!-- Created with Inkscape (http://www.inkscape.org/) -->

<svg
   width="50"
   height="70"
   viewBox="0 0 13.229166 18.520833"
   version="1.1"
   id="svg18473"
   xml:space="preserve"
   inkscape:version="1.2.2 (732a01da63, 2022-12-09)"
   sodipodi:docname="oshosi_idle4.svg"
   xmlns:inkscape="http://www.inkscape.org/namespaces/inkscape"
   xmlns:sodipodi="http://sodipodi.sourceforge.net/DTD/sodipodi-0.dtd"
   xmlns="http://www.w3.org/2000/svg"
   xmlns:svg="http://www.w3.org/2000/svg"><sodipodi:namedview
     id="namedview18475"
     pagecolor="#ffffff"
     bordercolor="#000000"
     borderopacity="0.25"
     inkscape:showpageshadow="2"
     inkscape:pageopacity="0.0"
     inkscape:pagecheckerboard="0"
     inkscape:deskcolor="#d1d1d1"
     inkscape:document-units="mm"
     showgrid="true"
     inkscape:zoom="5.6568542"
     inkscape:cx="9.8994949"
     inkscape:cy="6.8942911"
     inkscape:window-width="1366"
     inkscape:window-height="705"
     inkscape:window-x="-8"
     inkscape:window-y="-8"
     inkscape:window-maximized="1"
     inkscape:current-layer="g32875"><inkscape:grid
       type="xygrid"
       id="grid36773"
       originx="0"
       originy="0" /></sodipodi:namedview><defs
     id="defs18470" /><g
     inkscape:label="Capa 1"
     inkscape:groupmode="layer"
     id="layer1"><g
       id="g32875"
       transform="matrix(0.35404553,0,0,0.35404553,0.19039912,-34.874894)"><path
         style="opacity:0.99;fill:#444960;fill-opacity:1;fill-rule:nonzero;stroke:none;stroke-width:0.1;stroke-dasharray:none;stroke-opacity:1;paint-order:fill markers stroke"
         d="m 12.384835,131.79024 c -0.335384,0 0.07341,3.28233 0.244786,3.55735 0.146044,0.23436 1.031557,2.78752 0.956553,2.91253 0.570591,0.9075 -1.622025,1.15015 -2.531634,2.08772 -0.137249,0.0491 -0.725038,1.07506 -0.725038,1.07506 0,0 0.550027,0.15 0.725038,0.15 0.175009,0 1.325068,-0.125 1.650082,-0.17501 0.325017,-0.05 0.700037,-0.05 0.95005,-0.05 0.250012,0 0.550026,0.45002 0.650033,0.45002 0.100005,0 0,-0.37501 0.025,-0.62503 1.060465,-1.15768 1.828164,-0.6934 2.149096,-1.97996 -0.368489,-1.96203 -1.206834,-4.05304 -1.949086,-5.67043 -0.250013,-0.35002 -0.975048,-1.37507 -0.975048,-1.37507 z"
         id="path20232"
         sodipodi:nodetypes="cscccscssccccc" /><path
         style="opacity:0.99;fill:#23283b;fill-opacity:1;fill-rule:nonzero;stroke:none;stroke-width:0.1;stroke-dasharray:none;stroke-opacity:1;paint-order:fill markers stroke"
         d="m 16.754829,134.89756 c 0,0 1.024851,1.82065 1.149859,1.89566 0.125005,0.075 1.387211,1.58013 1.387211,1.58013 0,0 -0.154999,0.5825 -0.254999,1.10753 -0.100007,0.52503 -1.057004,1.01697 -1.057004,1.26698 0,0.25001 -0.250013,0.67504 -0.150009,0.67504 0.100005,0 1.000051,0.075 1.600081,0.075 0.600033,0 0.625033,0.15 1.475076,0.025 0.850043,-0.12501 1.100056,-0.1 1.250064,-0.15001 0.150008,-0.05 -0.347242,0 -0.472251,-0.40002 -0.125005,-0.40001 -0.248159,0.0241 -0.398172,-0.57595 -0.138581,-1.06694 0.605869,-1.34484 0.780116,-2.00072 -0.528344,-0.93796 -2.603068,-3.61935 -3.509869,-4.09867 l -0.750038,-0.125 c 0,0 -0.650034,0.52502 -0.750038,0.57503 l -0.300017,0.15 z"
         id="path20234"
         sodipodi:nodetypes="cscsssscssccccccc" /><path
         style="opacity:0.99;fill:#c87137;fill-opacity:1;fill-rule:nonzero;stroke:none;stroke-width:0.1;stroke-dasharray:none;stroke-opacity:1;paint-order:fill markers stroke"
         d="m 14.473124,118.55195 c 0,0 0.717791,-3.53779 0.541004,-3.64386 -0.176787,-0.10607 1.025358,-0.17678 1.308214,-0.56571 0.282858,-0.38893 0.707144,-0.81322 0.813215,-1.27286 0.106072,-0.45964 0.212143,-1.09607 0.212143,-1.44964 0,-0.35358 -0.106071,-1.30822 -0.106071,-1.30822 v -0.14143 c 0,0 4.348927,0.21215 6.611783,1.41429 2.262857,1.20214 2.368929,1.27286 2.368929,1.27286 0,0 0.990002,-0.77786 1.060714,-0.91929 0.07072,-0.14143 0.459645,-0.35357 0.459645,-0.35357 l 0.459642,0.99 c 0,0 0.141428,4.31357 -0.03536,4.98536 -0.176787,0.67178 -0.106071,0.31821 -0.14143,0.495 -0.03536,0.17678 -0.141428,1.20214 -0.141428,1.52035 0,0.31822 0.07071,1.13143 0.03536,1.44965 -0.03536,0.31821 -0.565713,1.87393 -0.565713,1.87393 0,0 -1.025359,0.99 -1.272858,1.09607 -0.247499,0.10607 -1.485,0.63643 -1.661784,0.70714 -0.176787,0.0707 -0.707144,0.14143 -0.883931,0.14143 -0.176784,0 -1.308214,0 -1.661784,0 -0.353571,0 -1.308214,-0.14143 -1.626428,-0.21214 -0.318215,-0.0707 -1.096071,-0.2475 -1.555716,-0.31822 -0.459642,-0.0707 -1.272857,-0.38893 -1.626428,-0.56571 -0.353571,-0.17679 -1.025356,-0.45965 -1.166786,-0.53036 -0.141428,-0.0707 -0.777857,-0.67178 -0.99,-0.77786 -0.212142,-0.10607 -0.707143,-0.495 -0.813215,-0.63642 -0.106071,-0.14143 -0.494998,-0.49501 -0.494998,-0.49501 v -0.45964 c 0,0 -0.459642,0.495 -0.99,0.21215 -0.530357,-0.28286 -1.308216,-0.35358 -1.591072,-0.70715 -0.282858,-0.35357 -0.601072,-1.13143 -0.601072,-1.27286 0,-0.14142 -0.03536,-0.42428 0,-0.70714 0.03536,-0.28286 0.141428,-0.7425 0.141428,-0.7425 0,0 0.212143,-0.35357 0.636428,-0.60107 0.424286,-0.2475 0.565717,-0.38893 0.77786,-0.42429 0.212143,-0.0354 0.848571,0.0354 0.848571,0.0354 0,0 0.494999,0.17679 0.60107,0.35357 0.106072,0.17679 0.318214,0.45965 0.424286,0.60107 0.106071,0.14143 0.353571,0.45965 0.424286,0.60108 0.07071,0.14142 0.201496,0.35564 0.201496,0.35564 z"
         id="path20216" /><g
         id="g26347"
         transform="translate(0.20050882,0.21985555)"><ellipse
           style="opacity:0.99;fill:#c87137;fill-opacity:0.992157;fill-rule:nonzero;stroke:none;stroke-width:0.484468;stroke-dasharray:none;stroke-opacity:1;paint-order:fill markers stroke"
           id="path4347"
           cx="20.156431"
           cy="114.36007"
           rx="8.0551071"
           ry="8.009944" /><path
           style="opacity:0.99;fill:none;fill-opacity:0.992157;fill-rule:nonzero;stroke:#2b1100;stroke-width:1.07362;stroke-dasharray:none;stroke-opacity:1;paint-order:fill markers stroke"
           id="path5099"
           sodipodi:type="arc"
           sodipodi:cx="20.105627"
           sodipodi:cy="110.54581"
           sodipodi:rx="7.666091"
           sodipodi:ry="1.4319514"
           sodipodi:start="0.28424498"
           sodipodi:end="2.8139227"
           sodipodi:arc-type="arc"
           d="m 27.464106,110.94737 a 7.666091,1.4319514 0 0 1 -7.192042,1.03005 7.666091,1.4319514 0 0 1 -7.424652,-0.97076"
           sodipodi:open="true" /><path
           style="opacity:0.99;fill:#008000;fill-opacity:0.992157;fill-rule:nonzero;stroke:none;stroke-width:0.225959;stroke-dasharray:none;stroke-opacity:1;paint-order:fill markers stroke"
           d="m 24.551732,110.66474 c 0.01801,-0.005 -0.342769,-3.20988 -1.897455,-4.5439 -1.290648,-1.10745 -0.798929,-2.59652 -1.14846,-2.59652 -0.349532,0 -0.299599,1.19839 0,3.24565 0.299598,2.04725 0.649129,3.44538 1.348192,3.99464 0.699063,0.54926 1.547924,1.39813 1.547924,1.39813 z"
           id="path12676"
           sodipodi:nodetypes="csscscc" /><path
           style="opacity:0.99;fill:#008000;fill-opacity:0.992157;fill-rule:nonzero;stroke:none;stroke-width:0.164221;stroke-dasharray:none;stroke-opacity:1;paint-order:fill markers stroke"
           d="m 25.622218,110.14884 c -0.0098,-0.005 0.186716,-3.11246 1.033599,-4.40599 0.703053,-1.07384 0.4352,-2.51771 0.6256,-2.51771 0.190399,0 0.163199,1.16202 0,3.14714 -0.1632,1.98511 -0.3536,3.34081 -0.734399,3.8734 -0.380801,0.53258 -0.843201,1.35569 -0.843201,1.35569 z"
           id="path12786"
           sodipodi:nodetypes="csscscc" /><path
           style="opacity:0.99;fill:#44aa00;fill-opacity:0.992157;fill-rule:nonzero;stroke:none;stroke-width:0.145182;stroke-dasharray:none;stroke-opacity:1;paint-order:fill markers stroke"
           d="m 24.065478,110.36069 c 0.01157,-0.003 -0.220234,-2.0624 -1.219145,-2.91953 -0.829261,-0.71155 -0.513325,-1.66831 -0.737904,-1.66831 -0.224579,0 -0.192497,0.76999 0,2.08539 0.192497,1.31539 0.417076,2.21371 0.866235,2.56662 0.449159,0.35291 0.994567,0.89832 0.994567,0.89832 z"
           id="path12792"
           sodipodi:nodetypes="csscscc" /><path
           style="opacity:0.99;fill:#44aa00;fill-opacity:0.992157;fill-rule:nonzero;stroke:none;stroke-width:0.145182;stroke-dasharray:none;stroke-opacity:1;paint-order:fill markers stroke"
           d="m 25.094613,109.84873 c -0.01157,-0.003 0.220234,-2.0624 1.219145,-2.91953 0.829261,-0.71155 0.513325,-1.66831 0.737904,-1.66831 0.224579,0 0.192497,0.76999 0,2.08539 -0.192497,1.31539 -0.417076,2.21371 -0.866235,2.56662 -0.449159,0.35291 -0.994567,0.89832 -0.994567,0.89832 z"
           id="path12794"
           sodipodi:nodetypes="csscscc" /><path
           style="opacity:0.99;fill:#008000;fill-opacity:1;fill-rule:nonzero;stroke:none;stroke-width:0.225959;stroke-dasharray:none;stroke-opacity:1;paint-order:fill markers stroke"
           d="m 23.962142,111.22937 c 0,0 -0.142724,0.32477 -0.604601,-1.18571 -0.46188,-1.51047 -0.693658,-2.19725 -0.693658,-2.19725"
           id="path12852"
           sodipodi:nodetypes="ccc" /><path
           style="opacity:0.99;fill:#008000;fill-opacity:1;fill-rule:nonzero;stroke:none;stroke-width:0.225959;stroke-dasharray:none;stroke-opacity:1;paint-order:fill markers stroke"
           d="m 25.652821,110.23856 c 0,0 0.142724,0.32477 0.604601,-1.18571 0.46188,-1.51047 0.693658,-2.19725 0.693658,-2.19725"
           id="path12962"
           sodipodi:nodetypes="ccc" /><path
           style="opacity:0.99;fill:#0066ff;fill-opacity:0.992157;fill-rule:nonzero;stroke:none;stroke-width:0.301024;stroke-dasharray:none;stroke-opacity:1;paint-order:fill markers stroke"
           d="m 23.620453,109.10556 c -0.02354,0.006 -1.463714,-4.1058 -0.453322,-6.72035 0.838798,-2.1705 0.50374,-4.323201 0.904374,-4.540881 0.400635,-0.21768 0.651905,1.70653 1.492641,4.419691 0.840731,2.71311 1.376991,4.93235 0.893414,6.04556 -0.483577,1.1132 -1.478423,3.10361 -1.478423,3.10361 z"
           id="path12788"
           sodipodi:nodetypes="csscscc" /><path
           style="opacity:0.99;fill:#2a7fff;fill-opacity:0.992157;fill-rule:nonzero;stroke:none;stroke-width:0.202973;stroke-dasharray:none;stroke-opacity:1;paint-order:fill markers stroke"
           d="m 24.05489,108.55895 c -0.01587,0.004 -0.986948,-2.76845 -0.305665,-4.53138 0.565582,-1.46352 0.33966,-2.91503 0.609799,-3.0618 0.270139,-0.14678 0.439564,1.15067 1.006453,2.98009 0.566885,1.82938 0.928473,3.32577 0.602408,4.07638 -0.326065,0.7506 -0.996866,2.09269 -0.996866,2.09269 z"
           id="path12790"
           sodipodi:nodetypes="csscscc" /><ellipse
           style="opacity:0.99;fill:#ffff00;fill-opacity:0.992157;fill-rule:nonzero;stroke:none;stroke-width:0.309886;stroke-dasharray:none;stroke-opacity:1;paint-order:fill markers stroke"
           id="path5313"
           cx="25.109236"
           cy="111.13461"
           rx="0.92135352"
           ry="1.4696532" /><path
           style="opacity:0.99;fill:#5599ff;fill-opacity:1;fill-rule:nonzero;stroke:none;stroke-width:0.0681125;stroke-dasharray:none;stroke-opacity:1;paint-order:fill markers stroke"
           d="m 24.790845,108.17206 c -0.002,0.003 -0.636594,-2.31878 -0.266525,-3.92396 0.285306,-1.23752 0.02891,-2.50743 0.05154,-2.63837 0.136571,3.28535 0.237116,5.41112 0.386242,7.8976 z"
           id="path12796"
           sodipodi:nodetypes="csccc" /><ellipse
           style="opacity:0.99;fill:#dfdf00;fill-opacity:0.992157;fill-rule:nonzero;stroke:none;stroke-width:0.219216;stroke-dasharray:none;stroke-opacity:1;paint-order:fill markers stroke"
           id="ellipse12964"
           cx="25.150738"
           cy="111.11832"
           rx="0.63590556"
           ry="1.0655899" /></g><path
         style="opacity:0.99;fill:#c87137;fill-opacity:0.992157;fill-rule:nonzero;stroke:none;stroke-width:0.108535;stroke-dasharray:none;stroke-opacity:1;paint-order:fill markers stroke"
         d="m 16.177589,123.28093 v 0.70618 c 0,0 -0.09175,0.83457 0.734045,0.96296 0.825802,0.1284 1.238702,0.321 1.238702,0.321 l 0.09175,-1.32307 c 0,0 -0.734043,-0.21768 -1.2387,-0.41027 -0.504657,-0.1926 -0.550533,-0.44939 -0.550533,-0.44939 z"
         id="path20220"
         sodipodi:nodetypes="ccsccscc" /><path
         style="opacity:0.99;fill:#474e61;fill-opacity:1;fill-rule:nonzero;stroke:none;stroke-width:0.121125;stroke-dasharray:none;stroke-opacity:1;paint-order:fill markers stroke"
         d="m 12.877714,132.75182 6.707443,0.57408 c -0.0089,-0.002 -0.117744,0.74389 -0.05485,1.39498 -0.380179,0.5403 -0.481287,1.20305 -0.752844,1.47321 -0.271557,0.27016 -0.804028,0.39616 -1.129893,0.4637 -0.32587,0.0675 -0.860542,0.16883 -1.295032,0.10133 -0.434488,-0.0675 -0.977601,0.0667 -1.384937,-0.10206 -0.407333,-0.16885 -0.813569,0.11335 -1.00366,-0.59579 -0.190088,-0.70916 -0.353022,-1.82356 -0.488799,-2.05994 -0.13578,-0.2364 -0.733205,-1.28325 -0.733205,-1.28325 z"
         id="path20230"
         sodipodi:nodetypes="cccscsccscc" /><path
         style="opacity:0.99;fill:#552200;fill-opacity:1;fill-rule:nonzero;stroke:#2b1100;stroke-width:0.1;stroke-dasharray:none;stroke-opacity:1;paint-order:fill markers stroke"
         d="m 10.354503,141.4979 c 0,0 3.000153,-0.20001 3.275169,-0.075 0.275013,0.125 1.150056,0.60003 1.250063,0.82504 0.100005,0.22501 0.350018,0.75004 0.475023,0.87504 0.125007,0.12501 -0.550027,0.25001 -0.725035,0.20001 -0.175012,-0.05 -0.900047,-0.05 -1.350071,-0.05 -0.450022,0 -1.075055,-0.05 -1.825093,-0.075 -0.750039,-0.025 -1.17506,-0.025 -1.375069,-0.025 -0.2000122,0 -0.7000372,0.12501 -0.6000302,0 0.100004,-0.12501 0.250013,-0.97505 0.450022,-1.40007 0.2000092,-0.42502 0.4250212,-0.27501 0.4250212,-0.27501 z"
         id="path20236" /><path
         style="opacity:0.99;fill:#e3dedb;fill-opacity:1;fill-rule:nonzero;stroke:none;stroke-width:0.1;stroke-dasharray:none;stroke-opacity:1;paint-order:fill markers stroke"
         d="m 9.5294608,143.24799 c -0.125005,-0.025 -0.275013,0.27501 -0.275013,0.27501 0,0 0.05,0.40002 0.200009,0.45002 0.150008,0.05 0.175008,0.05 0.8750462,0.12501 0.700034,0.075 1.300064,0.10001 1.825093,0.10001 0.525026,0 1.80009,-0.075 2.050103,-0.10001 0.250012,-0.025 0.850045,-0.05 1.075055,-0.15001 0.225012,-0.1 0.40002,-0.17501 0.40002,-0.35001 0,-0.17501 -0.125005,-0.45003 -0.250012,-0.45003 -0.125005,0 -5.9003012,0.10001 -5.9003012,0.10001 z"
         id="path20238" /><path
         style="opacity:0.99;fill:#2b1100;fill-opacity:1;fill-rule:nonzero;stroke:#2b1100;stroke-width:0.1;stroke-dasharray:none;stroke-opacity:1;paint-order:fill markers stroke"
         d="m 18.239146,141.21504 c 0,0 3.000153,-0.20001 3.275169,-0.075 0.275013,0.125 1.150056,0.60003 1.250063,0.82504 0.100005,0.22501 0.350018,0.75004 0.475023,0.87504 0.125007,0.12501 -0.550027,0.25001 -0.725035,0.20001 -0.175012,-0.05 -0.900047,-0.05 -1.350071,-0.05 -0.450022,0 -1.075055,-0.05 -1.825093,-0.075 -0.750039,-0.025 -1.17506,-0.025 -1.375069,-0.025 -0.200012,0 -0.700037,0.12501 -0.60003,0 0.100004,-0.12501 0.250013,-0.97505 0.450022,-1.40007 0.200009,-0.42502 0.425021,-0.27501 0.425021,-0.27501 z"
         id="path20240" /><path
         style="opacity:0.99;fill:#e3dedb;fill-opacity:1;fill-rule:nonzero;stroke:none;stroke-width:0.1;stroke-dasharray:none;stroke-opacity:1;paint-order:fill markers stroke"
         d="m 17.414104,142.96513 c -0.125005,-0.025 -0.275013,0.27501 -0.275013,0.27501 0,0 0.05,0.40002 0.200009,0.45002 0.150008,0.05 0.175008,0.05 0.875046,0.12501 0.700034,0.075 1.300064,0.10001 1.825093,0.10001 0.525026,0 1.80009,-0.075 2.050103,-0.10001 0.250012,-0.025 0.850045,-0.05 1.075055,-0.15001 0.225012,-0.1 0.40002,-0.17501 0.40002,-0.35001 0,-0.17501 -0.125005,-0.45003 -0.250012,-0.45003 -0.125005,0 -5.900301,0.10001 -5.900301,0.10001 z"
         id="path20242" /><ellipse
         style="opacity:0.99;fill:#000000;fill-opacity:1;fill-rule:nonzero;stroke:#000000;stroke-width:0.1;stroke-dasharray:none;stroke-opacity:1;paint-order:fill markers stroke"
         id="ellipse20244"
         cx="21.731985"
         cy="117.96649"
         rx="0.77785712"
         ry="1.3966072" /><ellipse
         style="opacity:0.99;fill:#000000;fill-opacity:1;fill-rule:nonzero;stroke:#000000;stroke-width:0.0792771;stroke-dasharray:none;stroke-opacity:1;paint-order:fill markers stroke"
         id="ellipse20246"
         cx="26.64184"
         cy="117.87727"
         rx="0.56723642"
         ry="1.203665" /><ellipse
         style="opacity:0.99;fill:#ffffff;fill-opacity:1;fill-rule:nonzero;stroke:none;stroke-width:0.1;stroke-dasharray:none;stroke-opacity:1;paint-order:fill markers stroke"
         id="ellipse20248"
         cx="21.776182"
         cy="117.50685"
         rx="0.53919643"
         ry="0.68946427" /><ellipse
         style="opacity:0.99;fill:#ffffff;fill-opacity:1;fill-rule:nonzero;stroke:none;stroke-width:0.0775845;stroke-dasharray:none;stroke-opacity:1;paint-order:fill markers stroke"
         id="ellipse20250"
         cx="26.628946"
         cy="117.34773"
         rx="0.40013629"
         ry="0.55924344" /><path
         style="opacity:0.99;fill:#000000;fill-opacity:1;fill-rule:nonzero;stroke:#000000;stroke-width:0.1;stroke-dasharray:none;stroke-opacity:1;paint-order:fill markers stroke"
         d="m 19.557521,114.43077 c 0.335891,-0.28286 0.848572,-0.76018 1.11375,-0.7425 0.265179,0.0177 0.636429,0.053 0.919285,0.0884 0.282858,0.0354 0.689464,0.30054 0.830894,0.38893 0.141428,0.0884 0.371251,0.53036 0.548035,0.65411 0.176786,0.12375 0.335893,0.51268 0.37125,0.54804 0.03536,0.0354 0.159107,0.22982 0.141427,0.26517 -0.01767,0.0354 -0.318214,-0.22098 -0.459642,-0.25634 -0.141427,-0.0353 -0.609909,-0.30937 -0.715981,-0.41544 -0.106071,-0.10607 -0.07071,-0.22982 -0.291698,-0.32705 -0.220982,-0.0972 -0.822052,-0.18563 -0.892767,-0.20331 -0.07071,-0.0177 -0.353571,-0.0177 -0.574553,-0.0177 -0.220983,0 -0.742501,0.0354 -0.804376,0.053 -0.06187,0.0177 -0.247499,0.053 -0.247499,0.053 z"
         id="path20252" /><path
         style="opacity:0.99;fill:#000000;fill-opacity:1;fill-rule:nonzero;stroke:#000000;stroke-width:0.1;stroke-dasharray:none;stroke-opacity:1;paint-order:fill markers stroke"
         d="m 26.010201,115.79202 c 0.03536,-0.0884 0.194463,-0.53036 0.406606,-0.65411 0.212143,-0.12375 0.583393,-0.37125 0.671785,-0.4066 0.08839,-0.0354 0.282858,0 0.441965,0.0707 0.159107,0.0707 0.318215,0.12375 0.265179,0.21214 -0.05304,0.0884 -0.159107,0.0884 -0.406609,0.14143 -0.247499,0.053 -0.494999,0.14143 -0.583393,0.26518 -0.08839,0.12375 -0.335891,0.2475 -0.441963,0.40661 -0.106071,0.1591 -0.318214,0.2475 -0.318214,0.17678 0,-0.0707 -0.03536,-0.21214 -0.03536,-0.21214 z"
         id="path20254" /><path
         style="opacity:0.99;fill:none;fill-opacity:1;fill-rule:nonzero;stroke:#000000;stroke-width:0.1;stroke-dasharray:none;stroke-opacity:1;paint-order:fill markers stroke"
         d="m 25.148667,119.08948 c -0.01249,0.075 -0.025,0.27501 -0.01249,0.36252 0.01249,0.0875 0.08751,0.21251 0.237513,0.23751 0.150009,0.025 0.262512,0.075 0.350018,0.12501 0.08751,0.05 0.337518,0.25001 0.350017,0.36252 0.01252,0.1125 -0.075,0.38752 -0.112506,0.46252 -0.0375,0.075 0.0375,0.23751 -0.112504,0.23751 -0.150008,0 -0.387522,-0.0625 -0.462526,-0.0625 -0.075,0 -0.362516,-0.0375 -0.362516,-0.0375 l 0.137507,-0.0125 0.21251,0.0625"
         id="path20256" /><path
         style="opacity:0.99;fill:none;fill-opacity:1;fill-rule:nonzero;stroke:#000000;stroke-width:0.1;stroke-dasharray:none;stroke-opacity:1;paint-order:fill markers stroke"
         d="m 24.186118,122.62716 c -0.075,0.025 -1.100055,0.15001 -1.36257,0.075 -0.262514,-0.075 -0.800039,-0.33752 -0.862544,-0.42503 -0.0625,-0.0875 -0.437523,-0.28751 -0.500025,-0.41252 -0.0625,-0.125 -0.075,-0.37502 -0.075,-0.37502 0,0 -0.237512,0.31252 -0.287515,0.33752 -0.05,0.025 -0.175009,0.025 -0.175009,0.025"
         id="path20258" /><path
         style="opacity:0.99;fill:#a05a2c;fill-opacity:0.992157;fill-rule:nonzero;stroke:none;stroke-width:0.1;stroke-dasharray:none;stroke-opacity:1;paint-order:fill markers stroke"
         d="m 19.949896,127.53445 c 0.03084,0.0952 -0.120327,0.19661 -0.123809,0.59189 -0.0035,0.3953 0.07418,0.55411 0.104273,0.72832 0.03013,0.1742 -0.109804,0.79759 -0.109804,0.79759 0,0 -0.550586,0.5723 -0.05384,0.7269 0.496742,0.15459 0.748611,0.28332 0.867548,0.24483 0.118948,-0.0384 0.30223,-0.2029 0.399468,-0.47086 0.09724,-0.26796 0.233656,-0.49604 0.276319,-0.85145 0.04266,-0.35542 0.07201,-0.99559 0.07201,-0.99559 0,0 0.09098,0.44357 0.358936,0.54081 0.267963,0.0972 0.08467,0.26166 0.474341,0.004 0.389681,-0.25748 0.553368,-0.88854 0.53867,-1.01518 -0.01473,-0.12662 0.06784,-0.52123 -0.0091,-0.75909 -0.07697,-0.23788 -0.296659,-0.42956 -0.54923,-0.47923 -0.25257,-0.0497 -0.744324,0.13613 -0.974541,0.23663 -0.230165,0.1008 -1.134774,0.47231 -1.134774,0.47231 z"
         id="path20226"
         sodipodi:nodetypes="csscsssscsssssscc" /><path
         style="opacity:0.99;fill:#a05a2c;fill-opacity:0.992157;fill-rule:nonzero;stroke:none;stroke-width:0.1;stroke-dasharray:none;stroke-opacity:1;paint-order:fill markers stroke"
         d="m 20.993157,130.27135 c 0,0 -0.01187,0.45056 0.03431,0.59329 0.04618,0.14273 0.48765,0.28892 0.756308,0.3071 0.268661,0.0182 0.84654,-0.0637 1.054337,-0.31482 0.20778,-0.25118 0.282618,-0.66957 0.3155,-0.81158 0.03287,-0.14203 0.04126,-0.1973 0.160205,-0.23578 0.11893,-0.0385 0.319708,-0.39252 0.273527,-0.53524 -0.04618,-0.14271 -0.08467,-0.26165 -0.123158,-0.38058 -0.03849,-0.11894 0.177687,-0.42539 0.177687,-0.42539 0,0 0.07345,-0.26025 -0.01122,-0.52192 -0.08467,-0.26165 0.09933,-0.50513 -0.225295,-0.45265 -0.324554,0.0529 -0.687038,-0.093 -0.687038,-0.093 0,0 -1.735742,0.48287 -1.848384,0.70321 -0.112633,0.22038 0.123225,2.16743 0.123225,2.16743 z"
         id="path20228" /><path
         style="opacity:0.99;fill:#552200;fill-opacity:1;fill-rule:nonzero;stroke:#2b1100;stroke-width:0.1;stroke-dasharray:none;stroke-opacity:1;paint-order:fill markers stroke"
         d="m 13.886561,128.59258 c -0.200012,-0.30002 -0.787795,-0.0989 -0.837796,-0.44888 0.188628,-1.10809 0.415019,-2.66853 1.47436,-3.04141 0.400021,-0.05 1.000051,-0.10001 1.000051,-0.10001 l -1.000051,0.05 c 0,0 0.350017,-0.80003 0.800042,-1.00005 0.450021,-0.20001 0.800039,-0.45002 0.800039,-0.45002 0,0 0.300016,0.45002 0.600032,0.80004 0.300014,0.35002 0.450022,0.70004 0.950048,0.55003 0.500025,-0.15001 0.650033,-0.45002 0.650033,-0.45002 0,0 1.20006,4.40022 0.950048,6.30032 -0.250013,1.90009 0.564231,2.44412 0.264215,2.54412 -0.300014,0.10001 -2.297805,-0.0491 -2.297805,-0.0491 0,0 -1.26493,-0.21852 -1.462368,-0.25052 l -1.319875,-0.21419 c -0.246794,-0.0401 -1.76711,-0.1659 -2.120657,-0.16508 -0.68592,0.002 0.157019,-0.71539 0.437665,-2.06853 0.213488,-1.02935 0.148505,-1.19677 0.648527,-1.59679 0.500026,-0.40002 2.17131,0.0553 2.17131,0.0553 0,0 0.127365,-3.6e-4 0.477696,-0.51976 0.232895,-0.34531 0.359701,-1.84879 0.451152,-1.83573 -0.548972,1.05529 -0.06863,2.14878 -1.089026,2.3555 z"
         id="path20222"
         sodipodi:nodetypes="cccccscsscsscssssscsccc" /><path
         style="opacity:0.99;fill:#c87137;fill-opacity:0.992157;fill-rule:nonzero;stroke:none;stroke-width:0.1;stroke-dasharray:none;stroke-opacity:1;paint-order:fill markers stroke"
         d="m 15.601299,129.09217 c 0,0 -0.08948,0.65318 -0.0095,0.73129 0.282566,0.27585 0.65555,0.7611 0.881231,0.33444 0.08892,-0.10115 0.98529,-0.38344 1.129133,-0.5971 0.144065,-0.21332 1.437542,-0.8644 1.437542,-0.8644 0,0 -0.311977,0.21404 -0.370339,-0.23267 -0.05847,-0.4469 -0.147973,-0.45757 -0.08148,-0.54738 0.06659,-0.0898 0.34157,-0.87409 0.34157,-0.87409 l 0.633708,-0.62978 c 0,0 0.132161,-0.34738 0.367714,-0.2146 0.235578,0.13282 0.436577,0.0869 0.359008,0.21036 -0.07757,0.12347 -0.422349,0.4385 -0.422349,0.4385 l 0.678641,-0.59648 0.232339,-0.42622 c 0,0 0.311124,-0.32612 0.603624,-0.0259 0.292446,0.30021 0.30602,0.71383 0.30602,0.71383 0,0 0.0339,0.0669 0.336699,0.22167 0.302792,0.15481 0.694441,0.20843 0.617535,0.44368 -0.07687,0.23527 -0.05331,0.44756 -0.0078,0.59264 0.04545,0.14513 0.292122,0.2443 0.371306,0.40038 0.07916,0.15608 0.359986,0.37808 0.11537,0.67025 -0.244264,0.29216 -0.333181,0.39323 -0.577447,0.6854 -0.244319,0.29206 -0.188042,0.3477 -0.533828,0.49506 -0.345734,0.1474 -0.658568,0.19383 -0.870873,0.21746 -0.212297,0.0236 -0.268205,0.0239 -0.502484,0.11471 -1.396722,1.51298 -3.40874,1.40354 -5.619838,1.46575 -2.918019,-2.02733 -1.575871,-3.11717 -2.053353,-3.57665 1.793819,0.64578 0.693845,0.17649 2.112355,0.74476 z"
         id="path20224"
         sodipodi:nodetypes="cscccccccscccccccccccccsccccc" /></g></g></svg>
