<?xml version="1.0" encoding="UTF-8" standalone="no"?>
<!-- Created with Inkscape (http://www.inkscape.org/) -->

<svg
   width="50"
   height="70"
   viewBox="0 0 13.229166 18.520833"
   version="1.1"
   id="svg18473"
   xml:space="preserve"
   inkscape:version="1.2.2 (732a01da63, 2022-12-09)"
   sodipodi:docname="templar_ataque1.svg"
   xmlns:inkscape="http://www.inkscape.org/namespaces/inkscape"
   xmlns:sodipodi="http://sodipodi.sourceforge.net/DTD/sodipodi-0.dtd"
   xmlns="http://www.w3.org/2000/svg"
   xmlns:svg="http://www.w3.org/2000/svg"><sodipodi:namedview
     id="namedview18475"
     pagecolor="#ffffff"
     bordercolor="#000000"
     borderopacity="0.25"
     inkscape:showpageshadow="2"
     inkscape:pageopacity="0.0"
     inkscape:pagecheckerboard="0"
     inkscape:deskcolor="#d1d1d1"
     inkscape:document-units="mm"
     showgrid="true"
     inkscape:zoom="5.2913965"
     inkscape:cx="48.569409"
     inkscape:cy="28.914862"
     inkscape:window-width="1366"
     inkscape:window-height="705"
     inkscape:window-x="-8"
     inkscape:window-y="-8"
     inkscape:window-maximized="1"
     inkscape:current-layer="g32875"
     showguides="true"><inkscape:grid
       type="xygrid"
       id="grid36773"
       originx="0"
       originy="0" /><sodipodi:guide
       position="0.91928567,17.177262"
       orientation="0,-1"
       id="guide2266"
       inkscape:locked="false" /></sodipodi:namedview><defs
     id="defs18470" /><g
     inkscape:label="Capa 1"
     inkscape:groupmode="layer"
     id="layer1"><g
       id="g32875"
       transform="matrix(0.35404553,0,0,0.35404553,0.19039912,-34.874894)"><path
         style="opacity:0.99;fill:#fde0a4;fill-opacity:1;fill-rule:nonzero;stroke:none;stroke-width:0.1;stroke-dasharray:none;stroke-opacity:1;paint-order:fill markers stroke"
         d="m 14.37971,118.27171 c 0,0 0.717791,-3.53779 0.541004,-3.64386 -0.176787,-0.10607 1.025358,-0.17678 1.308214,-0.56571 0.282858,-0.38893 0.707144,-0.81322 0.813215,-1.27286 0.106072,-0.45964 0.212143,-1.09607 0.212143,-1.44964 0,-0.35358 -0.106071,-1.30822 -0.106071,-1.30822 v -0.14143 c 0,0 4.348927,0.21215 6.611783,1.41429 2.262857,1.20214 2.368929,1.27286 2.368929,1.27286 0,0 0.990002,-0.77786 1.060714,-0.91929 0.07072,-0.14143 0.459645,-0.35357 0.459645,-0.35357 l 0.459642,0.99 c 0,0 0.141428,4.31357 -0.03536,4.98536 -0.176787,0.67178 -0.106071,0.31821 -0.14143,0.495 -0.03536,0.17678 -0.141428,1.20214 -0.141428,1.52035 0,0.31822 0.07071,1.13143 0.03536,1.44965 -0.03536,0.31821 -0.565713,1.87393 -0.565713,1.87393 0,0 -1.025359,0.99 -1.272858,1.09607 -0.247499,0.10607 -1.485,0.63643 -1.661784,0.70714 -0.176787,0.0707 -0.707144,0.14143 -0.883931,0.14143 H 21.78 c -0.353571,0 -1.308214,-0.14143 -1.626428,-0.21214 -0.318215,-0.0707 -1.096071,-0.2475 -1.555716,-0.31822 -0.459642,-0.0707 -1.272857,-0.38893 -1.626428,-0.56571 -0.353571,-0.17679 -1.025356,-0.45965 -1.166786,-0.53036 -0.141428,-0.0707 -0.777857,-0.67178 -0.99,-0.77786 -0.212142,-0.10607 2.888036,-2.44239 2.781964,-2.58381 -0.106071,-0.14143 -0.494998,-0.49501 -0.494998,-0.49501 v -0.45964 c 0,0 -0.459642,0.495 -0.99,0.21215 -0.530357,-0.28286 1.637834,-1.40217 1.354978,-1.75574 -0.282858,-0.35357 -0.601072,-1.13143 -0.601072,-1.27286 0,-0.14142 -0.03536,-0.42428 0,-0.70714 0.03536,-0.28286 0.141428,-0.7425 0.141428,-0.7425 0,0 0.212143,-0.35357 0.636428,-0.60107 0.424286,-0.2475 0.565717,-0.38893 0.77786,-0.42429 0.212143,-0.0354 -5.692658,3.03138 -5.692658,3.03138 0,0 0.494999,0.17679 0.60107,0.35357 0.106072,0.17679 0.318214,0.45965 0.424286,0.60107 0.106071,0.14143 3.94875,-1.48774 4.019465,-1.34631 0.07071,0.14142 -3.393683,2.30303 -3.393683,2.30303 z"
         id="path20216"
         sodipodi:nodetypes="cssssccsccccsssccscsscccccccccssscsccscscc" /><path
         style="opacity:0.99;fill:#fde0a4;fill-opacity:0.992157;fill-rule:nonzero;stroke:none;stroke-width:0.108535;stroke-dasharray:none;stroke-opacity:1;paint-order:fill markers stroke"
         d="m 16.084175,123.00069 v 0.70618 c 0,0 -0.09175,0.83457 0.734045,0.96296 0.825802,0.1284 1.238702,0.321 1.238702,0.321 l 0.09175,-1.32307 c 0,0 -0.734043,-0.21768 -1.2387,-0.41027 -0.504657,-0.1926 -0.550533,-0.44939 -0.550533,-0.44939 z"
         id="path20220"
         sodipodi:nodetypes="ccsccscc" /><path
         style="opacity:0.99;fill:#999999;fill-opacity:1;fill-rule:nonzero;stroke:none;stroke-width:0.1;stroke-dasharray:none;stroke-opacity:1;paint-order:fill markers stroke"
         d="m 12.528288,132.2562 c 0,0 0.07633,2.81637 0.101333,3.09139 0.025,0.27501 -0.147152,1.86478 -0.222156,1.98979 -0.075,0.12501 -0.25287,0.86035 -0.327874,0.98536 -0.075,0.125 -0.900046,1.9501 -1.025051,2.0251 -0.125008,0.075 -0.725038,1.07506 -0.725038,1.07506 0,0 0.550027,0.15 0.725038,0.15 0.175009,0 1.325068,-0.125 1.650082,-0.17501 0.325017,-0.05 0.700037,-0.05 0.95005,-0.05 0.250012,0 0.550026,0.45002 0.650033,0.45002 0.100005,0 0,-0.37501 0.025,-0.62503 0.025,-0.25001 -0.025,-0.35001 0.200009,-0.52503 0.225012,-0.175 0.308792,-0.22062 0.4588,-0.82065 0.150006,-0.60003 0.229398,-1.23384 0.279402,-1.45886 0.05,-0.22501 0.150008,-0.75299 -0.025,-1.20301 -0.175011,-0.45003 -0.17205,-1.10302 -0.272054,-1.22802 -0.100008,-0.12501 -0.191134,-2.0648 -0.441147,-2.41482 -0.250013,-0.35002 -0.975048,-1.37507 -0.975048,-1.37507 z"
         id="path20232"
         sodipodi:nodetypes="csssscscssscssssscc" /><path
         style="opacity:0.99;fill:#666666;fill-opacity:1;fill-rule:nonzero;stroke:none;stroke-width:0.1;stroke-dasharray:none;stroke-opacity:1;paint-order:fill markers stroke"
         d="m 16.754829,134.89756 c 0,0 0.850043,1.55008 0.975051,1.62509 0.125005,0.075 0.60003,1.07505 0.60003,1.07505 0,0 0.05,0.85004 -0.05,1.37507 -0.100007,0.52503 -0.300016,1.52508 -0.300016,1.77509 0,0.25001 -0.250013,0.67504 -0.150009,0.67504 0.100005,0 1.000051,0.075 1.600081,0.075 0.600033,0 0.625033,0.15 1.475076,0.025 0.850043,-0.12501 1.100056,-0.1 1.250064,-0.15001 0.150008,-0.05 -0.05,0 -0.175009,-0.40002 -0.125005,-0.40001 -0.13827,-0.075 -0.288279,-0.67503 -0.150008,-0.60003 -0.342671,-1.00444 -0.31767,-1.50446 0.025,-0.50003 -0.435329,-2.00745 -0.785346,-2.20747 -0.350018,-0.2 -0.358794,-0.7133 -0.558803,-0.8633 -0.200012,-0.15001 -1.475076,-1.42508 -1.475076,-1.42508 l -0.750038,-0.125 c 0,0 -0.650034,0.52502 -0.750038,0.57503 l -0.300017,0.15 z"
         id="path20234"
         sodipodi:nodetypes="cscsssscsssscsccccc" /><path
         style="opacity:0.99;fill:#999999;fill-opacity:1;fill-rule:nonzero;stroke:none;stroke-width:0.1;stroke-dasharray:none;stroke-opacity:1;paint-order:fill markers stroke"
         d="m 13.079643,131.94741 6.175314,0.42502 c 0,0 0.450024,0.65004 0.100004,1.05006 -0.350017,0.40002 -0.700034,0.80004 -0.950047,1.00005 -0.250013,0.20001 -0.725038,0.55003 -1.025051,0.60003 -0.300017,0.05 -0.625034,0.125 -1.025054,0.075 -0.400019,-0.05 -0.900044,0.025 -1.275065,-0.1 -0.375017,-0.12501 -0.825042,-0.075 -1.000051,-0.60003 -0.175008,-0.52503 -0.325016,-1.35007 -0.450021,-1.52508 -0.125008,-0.17501 -0.675037,-0.95005 -0.675037,-0.95005 z"
         id="path20230" /><path
         style="opacity:0.99;fill:#cccccc;fill-opacity:1;fill-rule:nonzero;stroke:#999999;stroke-width:0.1;stroke-dasharray:none;stroke-opacity:1;paint-order:fill markers stroke"
         d="m 10.354503,141.4979 c 0,0 3.000153,-0.20001 3.275169,-0.075 0.275013,0.125 1.150056,0.60003 1.250063,0.82504 0.100005,0.22501 0.350018,0.75004 0.475023,0.87504 0.125007,0.12501 -0.550027,0.25001 -0.725035,0.20001 -0.175012,-0.05 -0.900047,-0.05 -1.350071,-0.05 -0.450022,0 -1.075055,-0.05 -1.825093,-0.075 -0.750039,-0.025 -1.17506,-0.025 -1.375069,-0.025 -0.2000122,0 -0.7000372,0.12501 -0.6000302,0 0.100004,-0.12501 0.250013,-0.97505 0.450022,-1.40007 0.2000092,-0.42502 0.4250212,-0.27501 0.4250212,-0.27501 z"
         id="path20236" /><path
         style="opacity:0.99;fill:#e3dedb;fill-opacity:1;fill-rule:nonzero;stroke:none;stroke-width:0.1;stroke-dasharray:none;stroke-opacity:1;paint-order:fill markers stroke"
         d="m 9.5294608,143.24799 c -0.125005,-0.025 -0.275013,0.27501 -0.275013,0.27501 0,0 0.05,0.40002 0.200009,0.45002 0.150008,0.05 0.175008,0.05 0.8750462,0.12501 0.700034,0.075 1.300064,0.10001 1.825093,0.10001 0.525026,0 1.80009,-0.075 2.050103,-0.10001 0.250012,-0.025 0.850045,-0.05 1.075055,-0.15001 0.225012,-0.1 0.40002,-0.17501 0.40002,-0.35001 0,-0.17501 -0.125005,-0.45003 -0.250012,-0.45003 -0.125005,0 -5.9003012,0.10001 -5.9003012,0.10001 z"
         id="path20238" /><path
         style="opacity:0.99;fill:#999999;fill-opacity:1;fill-rule:nonzero;stroke:none;stroke-width:0.1;stroke-dasharray:none;stroke-opacity:1;paint-order:fill markers stroke"
         d="m 18.239146,141.21504 c 0,0 3.000153,-0.20001 3.275169,-0.075 0.275013,0.125 1.150056,0.60003 1.250063,0.82504 0.100005,0.22501 0.350018,0.75004 0.475023,0.87504 0.125007,0.12501 -0.550027,0.25001 -0.725035,0.20001 -0.175012,-0.05 -0.900047,-0.05 -1.350071,-0.05 -0.450022,0 -1.075055,-0.05 -1.825093,-0.075 -0.750039,-0.025 -1.17506,-0.025 -1.375069,-0.025 -0.200012,0 -0.700037,0.12501 -0.60003,0 0.100004,-0.12501 0.250013,-0.97505 0.450022,-1.40007 0.200009,-0.42502 0.425021,-0.27501 0.425021,-0.27501 z"
         id="path20240" /><path
         style="opacity:0.99;fill:#e3dedb;fill-opacity:1;fill-rule:nonzero;stroke:none;stroke-width:0.1;stroke-dasharray:none;stroke-opacity:1;paint-order:fill markers stroke"
         d="m 17.414104,142.96513 c -0.125005,-0.025 -0.275013,0.27501 -0.275013,0.27501 0,0 0.05,0.40002 0.200009,0.45002 0.150008,0.05 0.175008,0.05 0.875046,0.12501 0.700034,0.075 1.300064,0.10001 1.825093,0.10001 0.525026,0 1.80009,-0.075 2.050103,-0.10001 0.250012,-0.025 0.850045,-0.05 1.075055,-0.15001 0.225012,-0.1 0.40002,-0.17501 0.40002,-0.35001 0,-0.17501 -0.125005,-0.45003 -0.250012,-0.45003 -0.125005,0 -5.900301,0.10001 -5.900301,0.10001 z"
         id="path20242" /><path
         style="opacity:0.99;fill:#000000;fill-opacity:1;fill-rule:nonzero;stroke:#000000;stroke-width:0.1;stroke-dasharray:none;stroke-opacity:1;paint-order:fill markers stroke"
         d="m 19.464107,114.15053 c 0.335891,-0.28286 0.848572,-0.76018 1.11375,-0.7425 0.265179,0.0177 0.636429,0.053 0.919285,0.0884 0.282858,0.0354 0.689464,0.30054 0.830894,0.38893 0.141428,0.0884 0.371251,0.53036 0.548035,0.65411 0.176786,0.12375 0.335893,0.51268 0.37125,0.54804 0.03536,0.0354 0.159107,0.22982 0.141427,0.26517 -0.01767,0.0354 -0.318214,-0.22098 -0.459642,-0.25634 -0.141427,-0.0353 -0.609909,-0.30937 -0.715981,-0.41544 -0.106071,-0.10607 -0.07071,-0.22982 -0.291698,-0.32705 -0.220982,-0.0972 -0.822052,-0.18563 -0.892767,-0.20331 -0.07071,-0.0177 -0.353571,-0.0177 -0.574553,-0.0177 -0.220983,0 -0.742501,0.0354 -0.804376,0.053 -0.06187,0.0177 -0.247499,0.053 -0.247499,0.053 z"
         id="path20252" /><path
         style="opacity:0.99;fill:#000000;fill-opacity:1;fill-rule:nonzero;stroke:#000000;stroke-width:0.1;stroke-dasharray:none;stroke-opacity:1;paint-order:fill markers stroke"
         d="m 25.916787,115.51178 c 0.03536,-0.0884 0.194463,-0.53036 0.406606,-0.65411 0.212143,-0.12375 0.583393,-0.37125 0.671785,-0.4066 0.08839,-0.0354 0.282858,0 0.441965,0.0707 0.159107,0.0707 0.318215,0.12375 0.265179,0.21214 -0.05304,0.0884 -0.159107,0.0884 -0.406609,0.14143 -0.247499,0.053 -0.494999,0.14143 -0.583393,0.26518 -0.08839,0.12375 -0.335891,0.2475 -0.441963,0.40661 -0.106071,0.1591 -0.318214,0.2475 -0.318214,0.17678 0,-0.0707 -0.03536,-0.21214 -0.03536,-0.21214 z"
         id="path20254" /><path
         style="opacity:0.99;fill:none;fill-opacity:1;fill-rule:nonzero;stroke:#000000;stroke-width:0.1;stroke-dasharray:none;stroke-opacity:1;paint-order:fill markers stroke"
         d="m 25.055253,118.80924 c -0.01249,0.075 -0.025,0.27501 -0.01249,0.36252 0.01249,0.0875 0.08751,0.21251 0.237513,0.23751 0.150009,0.025 0.262512,0.075 0.350018,0.12501 0.08751,0.05 0.337518,0.25001 0.350017,0.36252 0.01252,0.1125 -0.075,0.38752 -0.112506,0.46252 -0.0375,0.075 0.0375,0.23751 -0.112504,0.23751 -0.150008,0 -0.387522,-0.0625 -0.462526,-0.0625 -0.075,0 -0.362516,-0.0375 -0.362516,-0.0375 l 0.137507,-0.0125 0.21251,0.0625"
         id="path20256" /><path
         style="opacity:0.99;fill:#f1cd83;fill-opacity:0.97647059;fill-rule:nonzero;stroke:none;stroke-width:0.1;stroke-dasharray:none;stroke-opacity:1;paint-order:fill markers stroke"
         d="m 19.529973,131.7974 c 0,0.10001 -0.175012,0.15001 -0.300017,0.52503 -0.125008,0.37502 -0.100004,0.55003 -0.125008,0.72504 -0.025,0.17501 -0.350017,0.72504 -0.350017,0.72504 0,0 -0.700035,0.37501 -0.275014,0.67503 0.425024,0.30001 0.625031,0.50002 0.750039,0.50002 0.125005,0 0.350017,-0.1 0.525026,-0.32501 0.175009,-0.22501 0.375021,-0.40002 0.525029,-0.72504 0.150005,-0.32502 0.375017,-0.92505 0.375017,-0.92505 0,0 -0.05,0.45003 0.175009,0.62504 0.225012,0.17501 0,0.27501 0.450025,0.15 0.450021,-0.125 0.800039,-0.67503 0.825042,-0.80004 0.025,-0.125 0.225009,-0.47502 0.225009,-0.72503 0,-0.25002 -0.150005,-0.50003 -0.375017,-0.62504 -0.225013,-0.125 -0.750038,-0.1 -1.000051,-0.075 -0.250013,0.025 -1.225063,0.10001 -1.225063,0.10001 z"
         id="path20226"
         sodipodi:nodetypes="csscsssscsssssscc" /><path
         style="opacity:0.99;fill:#f1cd83;fill-opacity:0.97647059;fill-rule:nonzero;stroke:none;stroke-width:0.1;stroke-dasharray:none;stroke-opacity:1;paint-order:fill markers stroke"
         d="m 19.679978,134.72255 c 0,0 -0.150005,0.42502 -0.150005,0.57503 0,0.15001 0.375017,0.42502 0.62503,0.52503 0.250013,0.10001 0.825042,0.20001 1.100055,0.025 0.275016,-0.17501 0.475025,-0.55003 0.55003,-0.67503 0.075,-0.12501 0.100004,-0.17501 0.225012,-0.17501 0.125005,0 0.425021,-0.27502 0.425021,-0.42503 0,-0.15 0,-0.27501 0,-0.40002 0,-0.125 0.300014,-0.35001 0.300014,-0.35001 0,0 0.150008,-0.22501 0.150008,-0.50003 0,-0.27501 0.250013,-0.45002 -0.075,-0.50002 -0.325017,-0.05 -0.625031,-0.30002 -0.625031,-0.30002 0,0 -1.800092,-0.075 -1.975101,0.10001 -0.175009,0.175 -0.550029,2.1001 -0.550029,2.1001 z"
         id="path20228" /><path
         style="opacity:0.99;fill:#cccccc;fill-opacity:1;fill-rule:nonzero;stroke:#999999;stroke-width:0.101943;stroke-dasharray:none;stroke-opacity:1;paint-order:fill markers stroke"
         d="m 13.519089,128.26782 c -0.203898,-0.30585 0.965029,-0.53662 0.914057,-0.89344 -0.05097,-0.35681 -1.705394,-0.73836 -0.99176,-1.19713 0.864327,-1.39393 0.256381,-1.21329 1.708867,-2.39513 0.458764,-0.2039 0.815581,-0.45877 0.815581,-0.45877 0,0 0.305844,0.45877 0.611689,0.81559 0.305842,0.35681 0.458764,0.71363 0.968504,0.56071 0.509738,-0.15292 0.66266,-0.45876 0.66266,-0.45876 0.24022,-0.0801 2.04337,4.21237 0.968504,6.42271 -0.854395,1.75697 0.305844,1.83506 0,1.937 -0.305842,0.10195 -2.089929,0.051 -2.089929,0.051 0,0 -1.121428,-0.25486 -1.325322,-0.25486 h -1.376296 c -0.254869,0 -1.564537,0.84602 -1.819406,0.59115 -0.25487,-0.25488 0.239213,-1.50869 0.188241,-2.57914 -0.05097,-1.07046 -0.05097,-1.1724 0.458764,-1.58019 0.50974,-0.40779 0.713634,-0.40779 0.713634,-0.40779 0,0 0.450021,-0.11688 1.010735,-0.42273 0.560712,-0.30583 1.436014,-1.51428 1.436014,-1.51428 -0.559636,1.07579 -1.355555,1.72627 -2.395774,1.93701 z"
         id="path20222"
         sodipodi:nodetypes="cscccsscsscssssscsccc" /><path
         style="opacity:0.99;fill:#fde0a4;fill-opacity:0.992157;fill-rule:nonzero;stroke:none;stroke-width:0.1;stroke-dasharray:none;stroke-opacity:1;paint-order:fill markers stroke"
         d="m 12.601731,128.55855 2.559978,0.69923 c 0,0 -0.05139,0.92826 0.02082,1.01362 0.07225,0.0854 1.00452,0.51218 1.139118,0.51548 0.134611,0.003 1.06034,0.1281 1.316397,0.10185 0.256084,-0.0261 1.007835,-0.003 1.007835,-0.003 0,0 -0.364369,-0.10184 -0.05906,-0.43333 0.305312,-0.33156 0.256078,-0.40706 0.367701,-0.41362 0.111579,-0.007 0.889661,-0.29868 0.889661,-0.29868 l 0.889648,0.0821 c 0,0 0.351265,-0.1214 0.4005,0.14447 0.04922,0.26591 0.213352,0.39066 0.06891,0.41035 -0.144399,0.02 -0.607322,-0.0427 -0.607322,-0.0427 l 0.892921,0.13794 0.476014,-0.0952 c 0,0 0.449753,0.0296 0.407054,0.4465 -0.04267,0.41693 -0.351306,0.69265 -0.351306,0.69265 0,0 -0.02987,0.0689 0.04591,0.40051 0.07549,0.33157 0.285576,0.66644 0.05577,0.75833 -0.229814,0.0919 -0.377522,0.24622 -0.45963,0.37421 -0.08203,0.12808 -2e-5,0.38082 -0.06894,0.54168 -0.06894,0.16085 -0.05907,0.5187 -0.439936,0.51865 -0.380807,-4e-5 -0.515394,-0.003 -0.896202,-0.003 -0.380816,-4e-5 -0.387376,0.0788 -0.722223,-0.092 -0.334827,-0.17072 -0.571182,-0.38084 -0.725467,-0.52858 -0.154286,-0.14773 -0.190382,-0.19041 -0.410324,-0.31188 -0.219947,-0.12149 -0.666438,0.28555 -1.142435,0.19034 -0.476016,-0.0952 -0.810862,-0.0756 -1.191667,-0.0756 -0.380816,-4e-5 -0.623727,0.0592 -1.024241,-0.0854 -0.40049,-0.14446 -0.669691,-0.15104 -1.116114,-0.50561 -0.446452,-0.35459 -0.39394,-0.22326 -0.74188,-0.80763 -0.347935,-0.58436 -0.439844,-0.81417 -0.512041,-1.08994 -0.103965,-0.25156 0.02263,-1.98764 -0.06945,-2.24174 z"
         id="path20224"
         sodipodi:nodetypes="ccscccccccccccccccscccccsccccsscc" /><path
         style="opacity:0.99;fill:#cccccc;fill-opacity:0.99215686;fill-rule:nonzero;stroke:#999999;stroke-width:0.066511;stroke-dasharray:none;stroke-opacity:1;paint-order:fill markers stroke"
         d="m 14.119618,124.96117 c 0,0 -0.526607,0.49752 -0.59655,0.60389 -0.06994,0.10638 -0.40096,0.83221 -0.40096,0.83221 l -0.412659,1.80327 c 0,0 -0.139956,0.21268 -0.03336,0.31798 0.106572,0.10527 0.636613,0.17265 0.796252,0.29525 0.159647,0.1226 1.485937,0.48522 1.820163,0.28898 0.334255,-0.19622 0.788663,-0.94054 0.822703,-1.15257 0.03401,-0.21206 0.275109,-1.20218 0.149046,-1.60745 -0.126063,-0.40528 -0.323606,-0.95136 -0.323606,-0.95136"
         id="path3136" /><g
         id="g5642"
         transform="matrix(2.2740921,0.42801485,-0.42801485,2.2740921,8.3148875,99.277382)"><g
           id="g14148"><path
             style="opacity:0.99;fill:#550000;fill-opacity:0.992157;fill-rule:nonzero;stroke:#2b1100;stroke-width:0.0199435;stroke-dasharray:none;stroke-opacity:1;paint-order:fill markers stroke"
             d="m 7.7096886,8.0230299 c 0,0 -0.5894613,0.1424741 -0.5272694,0.5705024 0.062195,0.428028 0.1029554,0.4778843 0.1568286,0.5080281 0.053873,0.030144 0.8223668,0.2853669 1.0348057,0.017244 C 8.4648944,9.0041525 8.5079854,8.9190873 8.5258023,8.8545486 8.5496518,8.7681574 8.5282141,8.7185464 8.5153979,8.6839844 8.4930072,8.6236024 8.4509053,8.5501105 8.4509053,8.5501105 l 0.1113885,-0.210232 0.051101,-0.1024846 0.1981791,-0.101333 c 0,0 -0.5723333,0.1936692 -0.8955753,0.012807 C 7.5927559,7.9680057 7.7096898,8.0230303 7.7096898,8.0230303 Z"
             id="path2322-3"
             sodipodi:nodetypes="ccssssccccscc" /><path
             style="opacity:0.99;fill:#ffffff;fill-opacity:0.992157;fill-rule:nonzero;stroke:none;stroke-width:0.0199435;stroke-dasharray:none;stroke-opacity:1;paint-order:fill markers stroke"
             d="m 7.6924971,8.0289731 -0.1943335,0.086288 c 0,0 0.176589,0.3792404 0.5363891,0.3683376 L 8.3943523,8.472696 8.5067704,8.4381045 C 8.5951393,8.1971332 8.6388355,8.2078531 8.7041133,8.1772591 8.1793594,8.3050229 7.9643359,8.2202461 7.6924971,8.0289731 Z"
             id="path3106-2"
             sodipodi:nodetypes="ccscccc" /><path
             style="opacity:0.99;fill:#ff2a2a;fill-opacity:0.992157;fill-rule:nonzero;stroke:#2b1100;stroke-width:0.0199435;stroke-dasharray:none;stroke-opacity:1;paint-order:fill markers stroke"
             d="m 7.2242396,8.4109538 c 0,0 0.5804629,0.033502 0.7949009,0.3865117 0.2144383,0.353009 0.1776921,0.3740607 0.1776921,0.3740607 l 0.040764,0.049855 -0.2271712,0.00813 c -0.2456567,0.013533 -0.471448,-0.089484 -0.7053383,-0.144985 0,0 -0.1895576,-0.4160691 -0.080847,-0.6735735 z"
             id="path3108-3"
             sodipodi:nodetypes="csccccsc" /></g></g><g
         id="g15668"
         transform="matrix(2.5851987,1.1377708,-1.1377708,2.5851987,11.103148,93.778295)"><path
           style="opacity:0.99;fill:#000000;fill-opacity:0.992157;fill-rule:nonzero;stroke:none;stroke-width:0.0152703;stroke-dasharray:none;stroke-opacity:1;paint-order:fill markers stroke"
           d="m 6.0468578,6.0830891 c 0,0 0.2559863,-0.1715442 0.5078802,-0.0391 0.2518945,0.1324446 0.2624206,0.1935469 0.2624206,0.1935469 l 0.071628,0.050575 c 0,0 -0.3386097,-0.073949 -0.4091181,-0.015019 -0.070507,0.058932 -0.2831213,0.2762372 -0.2831213,0.2762372 0,0 -0.045764,0.043374 -0.00941,0.048404 0.036357,0.00503 0.093733,-0.017758 0.135336,-0.057193 0.041603,-0.039431 0.1127636,-0.1226722 0.1659791,-0.1415194 0.053214,-0.018853 0.1957864,-0.043412 0.2240407,-0.038597 0.028253,0.00481 0.2137654,0.042221 0.2459623,0.051193 0.032196,0.00897 0.047534,0.041822 0.080818,0.010274 0.033284,-0.031545 0.034802,-0.08827 0.034802,-0.08827 -0.047576,-0.053975 -0.054645,-0.065192 -0.0666,-0.086932 0,0 -0.1016538,-0.1405825 -0.1564236,-0.2150344 C 6.7962861,5.9572052 6.7384422,5.8461792 6.6381256,5.8069992 6.5378087,5.7678188 6.43771,5.7205347 6.2896751,5.7976609 6.1416403,5.8747868 6.0317345,6.0421373 6.0317345,6.0421373 Z"
           id="path3110-3"
           sodipodi:nodetypes="csccscsscsssccssscc" /><path
           style="opacity:0.99;fill:#000000;fill-opacity:0.992157;fill-rule:nonzero;stroke:none;stroke-width:0.0152703;stroke-dasharray:none;stroke-opacity:1;paint-order:fill markers stroke"
           d="m 8.2315561,5.8725043 c 0.042307,-0.2958945 0.060714,-0.049463 0.091744,-0.4583117 0.00727,-0.027723 0.1116447,-0.1816852 0.1307135,-0.1956476 0.019069,-0.013964 0.086892,-0.060176 0.1456841,-0.022241 0.05879,0.037936 0.1050052,0.1057591 0.1050052,0.1057591 l -0.012373,0.060754 c 0,0 -0.059977,-0.056023 -0.1024396,-0.038715 -0.042464,0.017312 -0.1395697,0.1435471 -0.150965,0.191522 -0.011394,0.047974 -0.050111,0.1504141 -0.050111,0.1504141 l 0.1922739,-0.059801 c 0,0 0.1193449,0.019445 0.08966,0.037735 -0.029686,0.018287 -0.191091,0.077888 -0.24948,0.1016878 -0.058389,0.023799 -0.048351,0.093987 -0.048351,0.093987 0,0 -0.040099,0.053484 -0.061332,0.062138 -0.021232,0.00866 -0.080025,-0.029282 -0.080025,-0.029283 z"
           id="path3112-5"
           sodipodi:nodetypes="ccssccssccsscssc" /></g></g><path
       style="opacity:0.99;fill:#fde0a4;fill-opacity:1;fill-rule:nonzero;stroke:none;stroke-width:0.1;stroke-dasharray:none;stroke-opacity:1;paint-order:fill markers stroke"
       d="m -101.026,40.768853 c 0,0 0.71779,-3.53779 0.541,-3.64386 -0.17679,-0.10607 1.025358,-0.17678 1.308214,-0.56571 0.282858,-0.38893 0.707144,-0.81322 0.813215,-1.27286 0.106072,-0.45964 0.212143,-1.09607 0.212143,-1.44964 0,-0.35358 -0.106071,-1.30822 -0.106071,-1.30822 v -0.14143 c 0,0 4.348927,0.21215 6.611783,1.41429 2.262857,1.20214 2.368929,1.27286 2.368929,1.27286 0,0 0.990002,-0.77786 1.060714,-0.91929 0.07072,-0.14143 0.459645,-0.35357 0.459645,-0.35357 l 0.459642,0.99 c 0,0 0.141428,4.31357 -0.03536,4.98536 -0.176787,0.67178 -0.106071,0.31821 -0.14143,0.495 -0.03536,0.17678 -0.141428,1.20214 -0.141428,1.52035 0,0.31822 0.07071,1.13143 0.03536,1.44965 -0.03536,0.31821 -0.565713,1.87393 -0.565713,1.87393 0,0 -1.025359,0.99 -1.272858,1.09607 -0.247499,0.10607 -1.485,0.63643 -1.661784,0.70714 -0.176787,0.0707 -0.707144,0.14143 -0.883931,0.14143 -0.176784,0 -1.308214,0 -1.661784,0 -0.353571,0 -1.308214,-0.14143 -1.626428,-0.21214 -0.318215,-0.0707 -1.096071,-0.2475 -1.555716,-0.31822 -0.459642,-0.0707 -1.272857,-0.38893 -1.626428,-0.56571 -0.353571,-0.17679 -1.025356,-0.45965 -1.166786,-0.53036 -0.141428,-0.0707 -0.777858,-0.67178 -0.989998,-0.77786 -0.21214,-0.10607 -0.70715,-0.495 -0.81322,-0.63642 -0.10607,-0.14143 -0.495,-0.49501 -0.495,-0.49501 v -0.45964 c 0,0 -0.45964,0.495 -0.99,0.21215 -0.53035,-0.28286 -1.30821,-0.35358 -1.59107,-0.70715 -0.28286,-0.35357 -0.60107,-1.13143 -0.60107,-1.27286 0,-0.14142 -0.0354,-0.42428 0,-0.70714 0.0354,-0.28286 0.14143,-0.7425 0.14143,-0.7425 0,0 0.21214,-0.35357 0.63643,-0.60107 0.42428,-0.2475 0.56571,-0.38893 0.77786,-0.42429 0.21214,-0.0354 0.84857,0.0354 0.84857,0.0354 0,0 0.495,0.17679 0.60107,0.35357 0.10607,0.17679 0.31821,0.45965 0.42428,0.60107 0.10607,0.14143 0.35357,0.45965 0.42429,0.60108 0.0707,0.14142 0.2015,0.35564 0.2015,0.35564 z"
       id="path32083" /><path
       style="opacity:0.99;fill:#ff6600;fill-opacity:1;fill-rule:nonzero;stroke:none;stroke-width:0.1;stroke-dasharray:none;stroke-opacity:1;paint-order:fill markers stroke"
       d="m -103.77615,32.368433 c 0,0 -3.65018,1.85009 -2.70013,4.85024 0.95004,3.00015 1.40007,3.15016 1.40007,3.15016 l 0.15001,-0.05 c 0,0 0.55002,-1.00005 0.80004,-1.10006 0.25001,-0.1 0.60003,-0.30001 0.90004,-0.25001 0.30002,0.05 1.20006,0.35002 1.30007,0.60003 0.1,0.25002 0.50002,0.65003 0.65003,0.85005 0.15001,0.20001 0.35002,0.30001 0.35002,0.30001 0,0 0.25001,-0.90004 0.40002,-1.35007 0.15001,-0.45002 0.20001,-0.65003 0.15001,-1.05005 -0.05,-0.40002 -0.15001,-0.90005 -0.15001,-0.90005 l -0.25001,-0.65003 c 0.955262,0.71155 3.449013,0.57575 2.703689,-2.67943 -0.311283,-1.35952 0.02071,-1.47936 0.02071,-1.47936 0,0 0.375756,-0.24143 1.175798,-0.0914 0.800039,0.15001 1.80009,0.30002 2.350119,0.50003 0.550026,0.20001 1.400071,0.45002 1.800092,0.60003 0.400019,0.15001 1.450073,0.50002 1.700086,0.70003 0.250013,0.20002 0.900046,0.40002 1.150059,0.55003 0.250013,0.15001 0.800039,0.45002 0.800039,0.45002 0,0 0.425022,-0.77504 0.675035,-0.92505 0.250012,-0.15 0.525028,-0.47501 0.525028,-0.47501 l 0.300016,0.075 0.200011,0.77504 -3e-6,0.97505 c 0,0 0.600031,-0.82504 0.850044,-1.27507 0.250013,-0.45002 0.350017,-0.80004 0.60003,-1.30006 0.250013,-0.50003 0.400021,-0.90005 0.400021,-1.35007 0,-0.45003 0.250013,-1.55008 0.150008,-2.30012 -0.100005,-0.75004 -0.100005,-0.90005 -0.250013,-1.20006 -0.150008,-0.30002 -0.150008,-0.55003 -0.250012,-0.75004 -0.100005,-0.20001 -0.20001,-0.50003 -0.20001,-0.50003 0,0 0.05,0.60003 -0.150008,1.10006 -0.200012,0.50003 -0.350017,1.05005 -0.350017,1.05005 0,0 0.150005,-0.95004 -0.35002,-2.50012 -0.500025,-1.55008 -0.350017,-1.70009 -0.350017,-1.70009 v -0.30001 c 0,0 -0.100005,0.75003 -0.700035,1.15005 -0.600032,0.40002 -1.450075,1.05006 -2.000102,1.15006 -0.550029,0.10001 -2.100109,0.45003 -2.500127,0.45003 h -1.750092 c -0.200009,0 -0.700034,-0.10001 -0.700034,-0.10001 0,0 0.750038,0.15001 1.350068,-0.70004 0.60003,-0.85004 0.550029,-0.90004 0.550029,-0.90004 0,0 -0.750038,0.20001 -1.200063,0.20001 h -1.650081 c -0.300017,0 -2.200114,0.55003 -2.550131,0.65003 -0.350018,0.10001 -2.150107,0.50003 -2.550127,1.05005 -0.40003,0.55003 -1.65009,1.55008 -1.75009,1.8001 -0.10001,0.25001 -0.15001,0.35001 -0.45003,1.10005 -0.30001,0.75004 -0.25001,1.15006 -0.35002,1.45008 -0.1,0.30001 -0.25001,0.35002 -0.25001,0.35002 z"
       id="path32085"
       sodipodi:nodetypes="csccsssscssccscssssscsccccsssssscscsccsssscscssssssscc" /><path
       style="opacity:0.99;fill:#fde0a4;fill-opacity:0.992157;fill-rule:nonzero;stroke:none;stroke-width:0.108535;stroke-dasharray:none;stroke-opacity:1;paint-order:fill markers stroke"
       d="m -99.321539,45.497833 v 0.70618 c 0,0 -0.09175,0.83457 0.734045,0.96296 0.825802,0.1284 1.238702,0.321 1.238702,0.321 l 0.09175,-1.32307 c 0,0 -0.734043,-0.21768 -1.2387,-0.41027 -0.504657,-0.1926 -0.550533,-0.44939 -0.550533,-0.44939 z"
       id="path32087"
       sodipodi:nodetypes="ccsccscc" /><path
       style="opacity:0.99;fill:#48a4df;fill-opacity:1;fill-rule:nonzero;stroke:#0055d4;stroke-width:0.1;stroke-dasharray:none;stroke-opacity:1;paint-order:fill markers stroke"
       d="m -101.77604,50.669363 c -0.20001,-0.30002 -1.50008,-1.50008 -1.55008,-1.8501 -0.05,-0.35001 -0.10001,-0.2 0.60003,-0.65003 0.70003,-0.45002 1.35007,-0.80004 1.75009,-0.85004 0.40002,-0.05 1.000048,-0.10001 1.000048,-0.10001 l -1.000048,0.05 c 0,0 0.35001,-0.80003 0.80004,-1.00005 0.45002,-0.20001 0.800038,-0.45002 0.800038,-0.45002 0,0 0.300016,0.45002 0.600032,0.80004 0.300014,0.35002 0.450022,0.70004 0.950048,0.55003 0.500025,-0.15001 0.650033,-0.45002 0.650033,-0.45002 0,0 1.20006,4.40022 0.950048,6.30032 -0.250013,1.90009 0.300016,1.80009 0,1.90009 -0.300014,0.10001 -2.050103,0.05 -2.050103,0.05 0,0 -1.100058,-0.25001 -1.300067,-0.25001 H -100.926 c -0.25001,0 -0.50003,0.25001 -0.75004,0 -0.25001,-0.25002 -0.80004,-0.90005 -0.85004,-1.9501 -0.05,-1.05006 -0.05,-1.15006 0.45002,-1.55008 0.50003,-0.40002 0.70004,-0.40002 0.70004,-0.40002 0,0 0.44144,-0.11465 0.99147,-0.41467 0.550027,-0.30001 1.408649,-1.48543 1.408649,-1.48543 -0.548972,1.05529 -1.329719,1.69338 -2.350119,1.9001 z"
       id="path32089"
       sodipodi:nodetypes="csssccscsscsscssssscsccc" /><path
       style="opacity:0.99;fill:#444960;fill-opacity:1;fill-rule:nonzero;stroke:none;stroke-width:0.1;stroke-dasharray:none;stroke-opacity:1;paint-order:fill markers stroke"
       d="m -103.30112,54.894573 c 0,0 0.50002,2.67514 0.52503,2.95016 0.025,0.27501 0.1,1.90009 0.025,2.0251 -0.075,0.12501 -0.50003,0.82504 -0.57503,0.95005 -0.075,0.125 -0.90005,1.9501 -1.02505,2.0251 -0.12501,0.075 -0.72504,1.07506 -0.72504,1.07506 0,0 0.55002,0.15 0.72504,0.15 0.175,0 1.32506,-0.125 1.65008,-0.17501 0.32501,-0.05 0.70003,-0.05 0.95005,-0.05 0.25001,0 0.55002,0.45002 0.65003,0.45002 0.10001,0 0,-0.37501 0.025,-0.62503 0.025,-0.25001 -0.025,-0.35001 0.20001,-0.52503 0.22501,-0.175 0.45002,-0.15 0.60003,-0.75003 0.15001,-0.60003 0.300016,-1.37507 0.35002,-1.60009 0.05,-0.22501 0.150008,-0.70003 -0.025,-1.15005 -0.17501,-0.45003 -0.22501,-1.05006 -0.32502,-1.17506 -0.1,-0.12501 -0.35002,-2.10011 -0.60003,-2.45013 -0.25001,-0.35002 -0.97505,-1.37507 -0.97505,-1.37507 z"
       id="path32091" /><path
       style="opacity:0.99;fill:#23283b;fill-opacity:1;fill-rule:nonzero;stroke:none;stroke-width:0.1;stroke-dasharray:none;stroke-opacity:1;paint-order:fill markers stroke"
       d="m -98.650885,57.394703 c 0,0 0.850043,1.55008 0.975051,1.62509 0.125005,0.075 0.60003,1.07505 0.60003,1.07505 0,0 0.05,0.85004 -0.05,1.37507 -0.100007,0.52503 -0.300016,1.52508 -0.300016,1.77509 0,0.25001 -0.250013,0.67504 -0.150009,0.67504 0.100005,0 1.000051,0.075 1.600081,0.075 0.600033,0 0.625033,0.15 1.475076,0.025 0.850043,-0.12501 1.100056,-0.1 1.250064,-0.15001 0.150008,-0.05 -0.05,0 -0.175009,-0.40002 -0.125005,-0.40001 -0.05,-0.075 -0.200009,-0.67503 -0.150008,-0.60003 -0.325017,-1.07506 -0.300016,-1.57508 0.025,-0.50003 -0.400021,-2.0251 -0.750038,-2.22512 -0.350018,-0.2 -0.500026,-0.62503 -0.700035,-0.77503 -0.200012,-0.15001 -1.475076,-1.42508 -1.475076,-1.42508 l -0.750038,-0.125 c 0,0 -0.650034,0.52502 -0.750038,0.57503 -0.100005,0.05 -0.300017,0.15 -0.300018,0.15 z"
       id="path32093" /><path
       style="opacity:0.99;fill:#474e61;fill-opacity:1;fill-rule:nonzero;stroke:none;stroke-width:0.1;stroke-dasharray:none;stroke-opacity:1;paint-order:fill markers stroke"
       d="m -102.32607,54.444553 6.175313,0.42502 c 0,0 0.450024,0.65004 0.100004,1.05006 -0.350017,0.40002 -0.700034,0.80004 -0.950047,1.00005 -0.250013,0.20001 -0.725038,0.55003 -1.025051,0.60003 -0.300017,0.05 -0.625034,0.125 -1.025054,0.075 -0.400019,-0.05 -0.900044,0.025 -1.275065,-0.1 -0.37502,-0.12501 -0.82504,-0.075 -1.00005,-0.60003 -0.17501,-0.52503 -0.32502,-1.35007 -0.45002,-1.52508 -0.12501,-0.17501 -0.67504,-0.95005 -0.67504,-0.95005 z"
       id="path32095" /><path
       style="opacity:0.99;fill:#47a3e3;fill-opacity:1;fill-rule:nonzero;stroke:#0055d4;stroke-width:0.1;stroke-dasharray:none;stroke-opacity:1;paint-order:fill markers stroke"
       d="m -105.05121,63.995043 c 0,0 3.00015,-0.20001 3.27517,-0.075 0.27501,0.125 1.15005,0.60003 1.25006,0.82504 0.10001,0.22501 0.35002,0.75004 0.47502,0.87504 0.125011,0.12501 -0.55002,0.25001 -0.72503,0.20001 -0.17501,-0.05 -0.90005,-0.05 -1.35007,-0.05 -0.45002,0 -1.07506,-0.05 -1.8251,-0.075 -0.75003,-0.025 -1.17506,-0.025 -1.37506,-0.025 -0.20002,0 -0.70004,0.12501 -0.60003,0 0.1,-0.12501 0.25001,-0.97505 0.45002,-1.40007 0.20001,-0.42502 0.42502,-0.27501 0.42502,-0.27501 z"
       id="path32097" /><path
       style="opacity:0.99;fill:#e3dedb;fill-opacity:1;fill-rule:nonzero;stroke:none;stroke-width:0.1;stroke-dasharray:none;stroke-opacity:1;paint-order:fill markers stroke"
       d="m -105.87625,65.745133 c -0.12501,-0.025 -0.27502,0.27501 -0.27502,0.27501 0,0 0.05,0.40002 0.20001,0.45002 0.15001,0.05 0.17501,0.05 0.87505,0.12501 0.70003,0.075 1.30006,0.10001 1.82509,0.10001 0.52503,0 1.80009,-0.075 2.0501,-0.10001 0.25002,-0.025 0.85005,-0.05 1.07506,-0.15001 0.225012,-0.1 0.40002,-0.17501 0.40002,-0.35001 0,-0.17501 -0.125005,-0.45003 -0.250012,-0.45003 -0.125008,0 -5.900298,0.10001 -5.900298,0.10001 z"
       id="path32099" /><path
       style="opacity:0.99;fill:#47a3e3;fill-opacity:1;fill-rule:nonzero;stroke:#0055d4;stroke-width:0.1;stroke-dasharray:none;stroke-opacity:1;paint-order:fill markers stroke"
       d="m -97.166568,63.712183 c 0,0 3.000153,-0.20001 3.275169,-0.075 0.275013,0.125 1.150056,0.60003 1.250063,0.82504 0.100005,0.22501 0.350018,0.75004 0.475023,0.87504 0.125007,0.12501 -0.550027,0.25001 -0.725035,0.20001 -0.175012,-0.05 -0.900047,-0.05 -1.350071,-0.05 -0.450022,0 -1.075055,-0.05 -1.825093,-0.075 -0.750039,-0.025 -1.17506,-0.025 -1.375069,-0.025 -0.200012,0 -0.700037,0.12501 -0.60003,0 0.100004,-0.12501 0.250013,-0.97505 0.450022,-1.40007 0.200009,-0.42502 0.425021,-0.27501 0.425021,-0.27501 z"
       id="path32101" /><path
       style="opacity:0.99;fill:#e3dedb;fill-opacity:1;fill-rule:nonzero;stroke:none;stroke-width:0.1;stroke-dasharray:none;stroke-opacity:1;paint-order:fill markers stroke"
       d="m -97.99161,65.462273 c -0.125005,-0.025 -0.275013,0.27501 -0.275013,0.27501 0,0 0.05,0.40002 0.200009,0.45002 0.150008,0.05 0.175008,0.05 0.875046,0.12501 0.700034,0.075 1.300064,0.10001 1.825093,0.10001 0.525026,0 1.80009,-0.075 2.050103,-0.10001 0.250012,-0.025 0.850045,-0.05 1.075055,-0.15001 0.225012,-0.1 0.40002,-0.17501 0.40002,-0.35001 0,-0.17501 -0.125005,-0.45003 -0.250012,-0.45003 -0.125005,0 -5.900301,0.10001 -5.900301,0.10001 z"
       id="path32103" /><ellipse
       style="opacity:0.99;fill:#000000;fill-opacity:1;fill-rule:nonzero;stroke:#000000;stroke-width:0.1;stroke-dasharray:none;stroke-opacity:1;paint-order:fill markers stroke"
       id="ellipse32105"
       cx="-93.767143"
       cy="40.183392"
       rx="0.77785712"
       ry="1.3966072" /><ellipse
       style="opacity:0.99;fill:#000000;fill-opacity:1;fill-rule:nonzero;stroke:#000000;stroke-width:0.0792771;stroke-dasharray:none;stroke-opacity:1;paint-order:fill markers stroke"
       id="ellipse32107"
       cx="-88.857292"
       cy="40.094173"
       rx="0.56723642"
       ry="1.203665" /><ellipse
       style="opacity:0.99;fill:#ffffff;fill-opacity:1;fill-rule:nonzero;stroke:none;stroke-width:0.1;stroke-dasharray:none;stroke-opacity:1;paint-order:fill markers stroke"
       id="ellipse32109"
       cx="-93.722946"
       cy="39.723751"
       rx="0.53919643"
       ry="0.68946427" /><ellipse
       style="opacity:0.99;fill:#ffffff;fill-opacity:1;fill-rule:nonzero;stroke:none;stroke-width:0.0775845;stroke-dasharray:none;stroke-opacity:1;paint-order:fill markers stroke"
       id="ellipse32111"
       cx="-88.870186"
       cy="39.564632"
       rx="0.40013629"
       ry="0.55924344" /><path
       style="opacity:0.99;fill:#000000;fill-opacity:1;fill-rule:nonzero;stroke:#000000;stroke-width:0.1;stroke-dasharray:none;stroke-opacity:1;paint-order:fill markers stroke"
       d="m -95.941607,36.647673 c 0.335891,-0.28286 0.848572,-0.76018 1.11375,-0.7425 0.265179,0.0177 0.636429,0.053 0.919285,0.0884 0.282858,0.0354 0.689464,0.30054 0.830894,0.38893 0.141428,0.0884 0.371251,0.53036 0.548035,0.65411 0.176786,0.12375 0.335893,0.51268 0.37125,0.54804 0.03536,0.0354 0.159107,0.22982 0.141427,0.26517 -0.01767,0.0354 -0.318214,-0.22098 -0.459642,-0.25634 -0.141427,-0.0353 -0.609909,-0.30937 -0.715981,-0.41544 -0.106071,-0.10607 -0.07071,-0.22982 -0.291698,-0.32705 -0.220982,-0.0972 -0.822052,-0.18563 -0.892767,-0.20331 -0.07071,-0.0177 -0.353571,-0.0177 -0.574553,-0.0177 -0.220983,0 -0.742501,0.0354 -0.804376,0.053 -0.06187,0.0177 -0.247499,0.053 -0.247499,0.053 z"
       id="path32113" /><path
       style="opacity:0.99;fill:#000000;fill-opacity:1;fill-rule:nonzero;stroke:#000000;stroke-width:0.1;stroke-dasharray:none;stroke-opacity:1;paint-order:fill markers stroke"
       d="m -89.488927,38.008923 c 0.03536,-0.0884 0.194463,-0.53036 0.406606,-0.65411 0.212143,-0.12375 0.583393,-0.37125 0.671785,-0.4066 0.08839,-0.0354 0.282858,0 0.441965,0.0707 0.159107,0.0707 0.318215,0.12375 0.265179,0.21214 -0.05304,0.0884 -0.159107,0.0884 -0.406609,0.14143 -0.247499,0.053 -0.494999,0.14143 -0.583393,0.26518 -0.08839,0.12375 -0.335891,0.2475 -0.441963,0.40661 -0.106071,0.1591 -0.318214,0.2475 -0.318214,0.17678 0,-0.0707 -0.03536,-0.21214 -0.03536,-0.21214 z"
       id="path32115" /><path
       style="opacity:0.99;fill:none;fill-opacity:1;fill-rule:nonzero;stroke:#000000;stroke-width:0.1;stroke-dasharray:none;stroke-opacity:1;paint-order:fill markers stroke"
       d="m -90.350461,41.306383 c -0.01249,0.075 -0.025,0.27501 -0.01249,0.36252 0.01249,0.0875 0.08751,0.21251 0.237513,0.23751 0.150009,0.025 0.262512,0.075 0.350018,0.12501 0.08751,0.05 0.337518,0.25001 0.350017,0.36252 0.01252,0.1125 -0.075,0.38752 -0.112506,0.46252 -0.0375,0.075 0.0375,0.23751 -0.112504,0.23751 -0.150008,0 -0.387522,-0.0625 -0.462526,-0.0625 -0.075,0 -0.362516,-0.0375 -0.362516,-0.0375 l 0.137507,-0.0125 0.21251,0.0625"
       id="path32117" /><path
       style="opacity:0.99;fill:none;fill-opacity:1;fill-rule:nonzero;stroke:#000000;stroke-width:0.1;stroke-dasharray:none;stroke-opacity:1;paint-order:fill markers stroke"
       d="m -91.31301,44.844063 c -0.075,0.025 -1.100055,0.15001 -1.36257,0.075 -0.262514,-0.075 -0.800039,-0.33752 -0.862544,-0.42503 -0.0625,-0.0875 -0.437523,-0.28751 -0.500025,-0.41252 -0.0625,-0.125 -0.075,-0.37502 -0.075,-0.37502 0,0 -0.237512,0.31252 -0.287515,0.33752 -0.05,0.025 -0.175009,0.025 -0.175009,0.025"
       id="path32119" /><path
       style="opacity:0.99;fill:#fde0a4;fill-opacity:0.992157;fill-rule:nonzero;stroke:none;stroke-width:0.1;stroke-dasharray:none;stroke-opacity:1;paint-order:fill markers stroke"
       d="m -103.37613,48.944273 1.9001,2.0251 c 0,0 -0.97505,0.52503 -1.02505,0.62503 -0.05,0.10001 -0.075,1.12506 -0.025,1.25007 0.05,0.12501 0.30001,1.02505 0.42502,1.25006 0.12501,0.22501 0.40002,0.92505 0.40002,0.92505 0,0 -0.05,-0.37502 0.37502,-0.22501 0.42502,0.15001 0.47502,0.075 0.52503,0.17501 0.05,0.1 0.62503,0.70003 0.62503,0.70003 l 0.275012,0.85005 c 0,0 0.250013,0.27501 0.025,0.42502 -0.225012,0.15001 -0.275012,0.35002 -0.350022,0.22501 -0.075,-0.12501 -0.2,-0.57503 -0.2,-0.57503 l 0.22501,0.87505 0.275011,0.40002 c 0,0 0.150008,0.42502 -0.250011,0.55003 -0.40002,0.125 -0.77504,-0.05 -0.77504,-0.05 0,0 -0.075,0 -0.35002,0.20001 -0.27501,0.20001 -0.50003,0.52503 -0.67503,0.35002 -0.17501,-0.17501 -0.37502,-0.25001 -0.52503,-0.27502 -0.15001,-0.025 -0.35002,0.15001 -0.52503,0.15001 -0.17501,0 -0.50002,0.15001 -0.65003,-0.20001 -0.15001,-0.35002 -0.20001,-0.47502 -0.35002,-0.82504 -0.15001,-0.35002 -0.22501,-0.32502 -0.20001,-0.70004 0.025,-0.37501 0.12501,-0.67503 0.20001,-0.87504 0.075,-0.20001 0.10001,-0.25001 0.12501,-0.50002 0.025,-0.25002 -0.52503,-0.50003 -0.62504,-0.97505 -0.1,-0.47503 -0.25001,-0.77504 -0.40001,-1.12506 -0.15001,-0.35002 -0.30002,-0.55003 -0.32502,-0.97505 -0.025,-0.42502 -0.12501,-0.67504 0.025,-1.22506 0.15001,-0.55003 0.05,-0.45003 0.45002,-1.00006 0.40002,-0.55002 0.57503,-0.72503 0.80004,-0.90004 0.22502,-0.17501 0.60003,-0.55003 0.60003,-0.55003 z"
       id="path32121" /><path
       style="opacity:0.99;fill:#fde0a4;fill-opacity:0.992157;fill-rule:nonzero;stroke:none;stroke-width:0.1;stroke-dasharray:none;stroke-opacity:1;paint-order:fill markers stroke"
       d="m -95.875741,54.294543 c 0,0.10001 -0.175012,0.15001 -0.300017,0.52503 -0.125008,0.37502 -0.100004,0.55003 -0.125008,0.72504 -0.025,0.17501 -0.350017,0.72504 -0.350017,0.72504 0,0 -0.700035,0.37501 -0.275014,0.67503 0.425024,0.30001 0.625031,0.50002 0.750039,0.50002 0.125005,0 0.350017,-0.1 0.525026,-0.32501 0.175009,-0.22501 0.375021,-0.40002 0.525029,-0.72504 0.150005,-0.32502 0.375017,-0.92505 0.375017,-0.92505 0,0 -0.05,0.45003 0.175009,0.62504 0.225012,0.17501 0,0.27501 0.450025,0.15 0.450021,-0.125 0.800039,-0.67503 0.825042,-0.80004 0.025,-0.125 0.225009,-0.47502 0.225009,-0.72503 0,-0.25002 -0.150005,-0.50003 -0.375017,-0.62504 -0.225013,-0.125 -0.750038,-0.1 -1.000051,-0.075 -0.250013,0.025 -1.225063,0.10001 -1.225063,0.10001 z"
       id="path32123"
       sodipodi:nodetypes="csscsssscsssssscc" /><path
       style="opacity:0.99;fill:#fde0a4;fill-opacity:0.992157;fill-rule:nonzero;stroke:none;stroke-width:0.1;stroke-dasharray:none;stroke-opacity:1;paint-order:fill markers stroke"
       d="m -95.725736,57.219693 c 0,0 -0.150005,0.42502 -0.150005,0.57503 0,0.15001 0.375017,0.42502 0.62503,0.52503 0.250013,0.10001 0.825042,0.20001 1.100055,0.025 0.275016,-0.17501 0.475025,-0.55003 0.55003,-0.67503 0.075,-0.12501 0.100004,-0.17501 0.225012,-0.17501 0.125005,0 0.425021,-0.27502 0.425021,-0.42503 0,-0.15 0,-0.27501 0,-0.40002 0,-0.125 0.300014,-0.35001 0.300014,-0.35001 0,0 0.150008,-0.22501 0.150008,-0.50003 0,-0.27501 0.250013,-0.45002 -0.075,-0.50002 -0.325017,-0.05 -0.625031,-0.30002 -0.625031,-0.30002 0,0 -1.800092,-0.075 -1.975101,0.10001 -0.175009,0.175 -0.550029,2.1001 -0.550029,2.1001 z"
       id="path32125" /><path
       style="opacity:0.99;fill:#fde0a4;fill-opacity:1;fill-rule:nonzero;stroke:none;stroke-width:0.1;stroke-dasharray:none;stroke-opacity:1;paint-order:fill markers stroke"
       d="m -101.026,40.768853 c 0,0 0.71779,-3.53779 0.541,-3.64386 -0.17679,-0.10607 1.025358,-0.17678 1.308214,-0.56571 0.282858,-0.38893 0.707144,-0.81322 0.813215,-1.27286 0.106072,-0.45964 0.212143,-1.09607 0.212143,-1.44964 0,-0.35358 -0.106071,-1.30822 -0.106071,-1.30822 v -0.14143 c 0,0 4.348927,0.21215 6.611783,1.41429 2.262857,1.20214 2.368929,1.27286 2.368929,1.27286 0,0 0.990002,-0.77786 1.060714,-0.91929 0.07072,-0.14143 0.459645,-0.35357 0.459645,-0.35357 l 0.459642,0.99 c 0,0 0.141428,4.31357 -0.03536,4.98536 -0.176787,0.67178 -0.106071,0.31821 -0.14143,0.495 -0.03536,0.17678 -0.141428,1.20214 -0.141428,1.52035 0,0.31822 0.07071,1.13143 0.03536,1.44965 -0.03536,0.31821 -0.565713,1.87393 -0.565713,1.87393 0,0 -1.025359,0.99 -1.272858,1.09607 -0.247499,0.10607 -1.485,0.63643 -1.661784,0.70714 -0.176787,0.0707 -0.707144,0.14143 -0.883931,0.14143 -0.176784,0 -1.308214,0 -1.661784,0 -0.353571,0 -1.308214,-0.14143 -1.626428,-0.21214 -0.318215,-0.0707 -1.096071,-0.2475 -1.555716,-0.31822 -0.459642,-0.0707 -1.272857,-0.38893 -1.626428,-0.56571 -0.353571,-0.17679 -1.025356,-0.45965 -1.166786,-0.53036 -0.141428,-0.0707 -0.777858,-0.67178 -0.989998,-0.77786 -0.21214,-0.10607 -0.70715,-0.495 -0.81322,-0.63642 -0.10607,-0.14143 -0.495,-0.49501 -0.495,-0.49501 v -0.45964 c 0,0 -0.45964,0.495 -0.99,0.21215 -0.53035,-0.28286 -1.30821,-0.35358 -1.59107,-0.70715 -0.28286,-0.35357 -0.60107,-1.13143 -0.60107,-1.27286 0,-0.14142 -0.0354,-0.42428 0,-0.70714 0.0354,-0.28286 0.14143,-0.7425 0.14143,-0.7425 0,0 0.21214,-0.35357 0.63643,-0.60107 0.42428,-0.2475 0.56571,-0.38893 0.77786,-0.42429 0.21214,-0.0354 0.84857,0.0354 0.84857,0.0354 0,0 0.495,0.17679 0.60107,0.35357 0.10607,0.17679 0.31821,0.45965 0.42428,0.60107 0.10607,0.14143 0.35357,0.45965 0.42429,0.60108 0.0707,0.14142 0.2015,0.35564 0.2015,0.35564 z"
       id="path37522" /><path
       style="opacity:0.99;fill:#ff6600;fill-opacity:1;fill-rule:nonzero;stroke:none;stroke-width:0.1;stroke-dasharray:none;stroke-opacity:1;paint-order:fill markers stroke"
       d="m -103.77615,32.368433 c 0,0 -3.65018,1.85009 -2.70013,4.85024 0.95004,3.00015 1.40007,3.15016 1.40007,3.15016 l 0.15001,-0.05 c 0,0 0.55002,-1.00005 0.80004,-1.10006 0.25001,-0.1 0.60003,-0.30001 0.90004,-0.25001 0.30002,0.05 1.20006,0.35002 1.30007,0.60003 0.1,0.25002 0.50002,0.65003 0.65003,0.85005 0.15001,0.20001 0.35002,0.30001 0.35002,0.30001 0,0 0.25001,-0.90004 0.40002,-1.35007 0.15001,-0.45002 0.20001,-0.65003 0.15001,-1.05005 -0.05,-0.40002 -0.15001,-0.90005 -0.15001,-0.90005 l -0.25001,-0.65003 c 0.955262,0.71155 3.449013,0.57575 2.703689,-2.67943 -0.311283,-1.35952 0.02071,-1.47936 0.02071,-1.47936 0,0 0.375756,-0.24143 1.175798,-0.0914 0.800039,0.15001 1.80009,0.30002 2.350119,0.50003 0.550026,0.20001 1.400071,0.45002 1.800092,0.60003 0.400019,0.15001 1.450073,0.50002 1.700086,0.70003 0.250013,0.20002 0.900046,0.40002 1.150059,0.55003 0.250013,0.15001 0.800039,0.45002 0.800039,0.45002 0,0 0.425022,-0.77504 0.675035,-0.92505 0.250012,-0.15 0.525028,-0.47501 0.525028,-0.47501 l 0.300016,0.075 0.200011,0.77504 -3e-6,0.97505 c 0,0 0.600031,-0.82504 0.850044,-1.27507 0.250013,-0.45002 0.350017,-0.80004 0.60003,-1.30006 0.250013,-0.50003 0.400021,-0.90005 0.400021,-1.35007 0,-0.45003 0.250013,-1.55008 0.150008,-2.30012 -0.100005,-0.75004 -0.100005,-0.90005 -0.250013,-1.20006 -0.150008,-0.30002 -0.150008,-0.55003 -0.250012,-0.75004 -0.100005,-0.20001 -0.20001,-0.50003 -0.20001,-0.50003 0,0 0.05,0.60003 -0.150008,1.10006 -0.200012,0.50003 -0.350017,1.05005 -0.350017,1.05005 0,0 0.150005,-0.95004 -0.35002,-2.50012 -0.500025,-1.55008 -0.350017,-1.70009 -0.350017,-1.70009 v -0.30001 c 0,0 -0.100005,0.75003 -0.700035,1.15005 -0.600032,0.40002 -1.450075,1.05006 -2.000102,1.15006 -0.550029,0.10001 -2.100109,0.45003 -2.500127,0.45003 h -1.750092 c -0.200009,0 -0.700034,-0.10001 -0.700034,-0.10001 0,0 0.750038,0.15001 1.350068,-0.70004 0.60003,-0.85004 0.550029,-0.90004 0.550029,-0.90004 0,0 -0.750038,0.20001 -1.200063,0.20001 h -1.650081 c -0.300017,0 -2.200114,0.55003 -2.550131,0.65003 -0.350018,0.10001 -2.150107,0.50003 -2.550127,1.05005 -0.40003,0.55003 -1.65009,1.55008 -1.75009,1.8001 -0.10001,0.25001 -0.15001,0.35001 -0.45003,1.10005 -0.30001,0.75004 -0.25001,1.15006 -0.35002,1.45008 -0.1,0.30001 -0.25001,0.35002 -0.25001,0.35002 z"
       id="path37524"
       sodipodi:nodetypes="csccsssscssccscssssscsccccsssssscscsccsssscscssssssscc" /><path
       style="opacity:0.99;fill:#fde0a4;fill-opacity:0.992157;fill-rule:nonzero;stroke:none;stroke-width:0.108535;stroke-dasharray:none;stroke-opacity:1;paint-order:fill markers stroke"
       d="m -99.321539,45.497833 v 0.70618 c 0,0 -0.09175,0.83457 0.734045,0.96296 0.825802,0.1284 1.238702,0.321 1.238702,0.321 l 0.09175,-1.32307 c 0,0 -0.734043,-0.21768 -1.2387,-0.41027 -0.504657,-0.1926 -0.550533,-0.44939 -0.550533,-0.44939 z"
       id="path37526"
       sodipodi:nodetypes="ccsccscc" /><path
       style="opacity:0.99;fill:#48a4df;fill-opacity:1;fill-rule:nonzero;stroke:#0055d4;stroke-width:0.1;stroke-dasharray:none;stroke-opacity:1;paint-order:fill markers stroke"
       d="m -101.77604,50.669363 c -0.20001,-0.30002 -1.50008,-1.50008 -1.55008,-1.8501 -0.05,-0.35001 -0.10001,-0.2 0.60003,-0.65003 0.70003,-0.45002 1.35007,-0.80004 1.75009,-0.85004 0.40002,-0.05 1.000048,-0.10001 1.000048,-0.10001 l -1.000048,0.05 c 0,0 0.35001,-0.80003 0.80004,-1.00005 0.45002,-0.20001 0.800038,-0.45002 0.800038,-0.45002 0,0 0.300016,0.45002 0.600032,0.80004 0.300014,0.35002 0.450022,0.70004 0.950048,0.55003 0.500025,-0.15001 0.650033,-0.45002 0.650033,-0.45002 0,0 1.20006,4.40022 0.950048,6.30032 -0.250013,1.90009 0.300016,1.80009 0,1.90009 -0.300014,0.10001 -2.050103,0.05 -2.050103,0.05 0,0 -1.100058,-0.25001 -1.300067,-0.25001 H -100.926 c -0.25001,0 -0.50003,0.25001 -0.75004,0 -0.25001,-0.25002 -0.80004,-0.90005 -0.85004,-1.9501 -0.05,-1.05006 -0.05,-1.15006 0.45002,-1.55008 0.50003,-0.40002 0.70004,-0.40002 0.70004,-0.40002 0,0 0.44144,-0.11465 0.99147,-0.41467 0.550027,-0.30001 1.408649,-1.48543 1.408649,-1.48543 -0.548972,1.05529 -1.329719,1.69338 -2.350119,1.9001 z"
       id="path37528"
       sodipodi:nodetypes="csssccscsscsscssssscsccc" /><path
       style="opacity:0.99;fill:#444960;fill-opacity:1;fill-rule:nonzero;stroke:none;stroke-width:0.1;stroke-dasharray:none;stroke-opacity:1;paint-order:fill markers stroke"
       d="m -103.30112,54.894573 c 0,0 0.50002,2.67514 0.52503,2.95016 0.025,0.27501 0.1,1.90009 0.025,2.0251 -0.075,0.12501 -0.50003,0.82504 -0.57503,0.95005 -0.075,0.125 -0.90005,1.9501 -1.02505,2.0251 -0.12501,0.075 -0.72504,1.07506 -0.72504,1.07506 0,0 0.55002,0.15 0.72504,0.15 0.175,0 1.32506,-0.125 1.65008,-0.17501 0.32501,-0.05 0.70003,-0.05 0.95005,-0.05 0.25001,0 0.55002,0.45002 0.65003,0.45002 0.10001,0 0,-0.37501 0.025,-0.62503 0.025,-0.25001 -0.025,-0.35001 0.20001,-0.52503 0.22501,-0.175 0.45002,-0.15 0.60003,-0.75003 0.15001,-0.60003 0.300016,-1.37507 0.35002,-1.60009 0.05,-0.22501 0.150008,-0.70003 -0.025,-1.15005 -0.17501,-0.45003 -0.22501,-1.05006 -0.32502,-1.17506 -0.1,-0.12501 -0.35002,-2.10011 -0.60003,-2.45013 -0.25001,-0.35002 -0.97505,-1.37507 -0.97505,-1.37507 z"
       id="path37530" /><path
       style="opacity:0.99;fill:#23283b;fill-opacity:1;fill-rule:nonzero;stroke:none;stroke-width:0.1;stroke-dasharray:none;stroke-opacity:1;paint-order:fill markers stroke"
       d="m -98.650885,57.394703 c 0,0 0.850043,1.55008 0.975051,1.62509 0.125005,0.075 0.60003,1.07505 0.60003,1.07505 0,0 0.05,0.85004 -0.05,1.37507 -0.100007,0.52503 -0.300016,1.52508 -0.300016,1.77509 0,0.25001 -0.250013,0.67504 -0.150009,0.67504 0.100005,0 1.000051,0.075 1.600081,0.075 0.600033,0 0.625033,0.15 1.475076,0.025 0.850043,-0.12501 1.100056,-0.1 1.250064,-0.15001 0.150008,-0.05 -0.05,0 -0.175009,-0.40002 -0.125005,-0.40001 -0.05,-0.075 -0.200009,-0.67503 -0.150008,-0.60003 -0.325017,-1.07506 -0.300016,-1.57508 0.025,-0.50003 -0.400021,-2.0251 -0.750038,-2.22512 -0.350018,-0.2 -0.500026,-0.62503 -0.700035,-0.77503 -0.200012,-0.15001 -1.475076,-1.42508 -1.475076,-1.42508 l -0.750038,-0.125 c 0,0 -0.650034,0.52502 -0.750038,0.57503 -0.100005,0.05 -0.300017,0.15 -0.300018,0.15 z"
       id="path37532" /><path
       style="opacity:0.99;fill:#474e61;fill-opacity:1;fill-rule:nonzero;stroke:none;stroke-width:0.1;stroke-dasharray:none;stroke-opacity:1;paint-order:fill markers stroke"
       d="m -102.32607,54.444553 6.175313,0.42502 c 0,0 0.450024,0.65004 0.100004,1.05006 -0.350017,0.40002 -0.700034,0.80004 -0.950047,1.00005 -0.250013,0.20001 -0.725038,0.55003 -1.025051,0.60003 -0.300017,0.05 -0.625034,0.125 -1.025054,0.075 -0.400019,-0.05 -0.900044,0.025 -1.275065,-0.1 -0.37502,-0.12501 -0.82504,-0.075 -1.00005,-0.60003 -0.17501,-0.52503 -0.32502,-1.35007 -0.45002,-1.52508 -0.12501,-0.17501 -0.67504,-0.95005 -0.67504,-0.95005 z"
       id="path37534" /><path
       style="opacity:0.99;fill:#47a3e3;fill-opacity:1;fill-rule:nonzero;stroke:#0055d4;stroke-width:0.1;stroke-dasharray:none;stroke-opacity:1;paint-order:fill markers stroke"
       d="m -105.05121,63.995043 c 0,0 3.00015,-0.20001 3.27517,-0.075 0.27501,0.125 1.15005,0.60003 1.25006,0.82504 0.10001,0.22501 0.35002,0.75004 0.47502,0.87504 0.125011,0.12501 -0.55002,0.25001 -0.72503,0.20001 -0.17501,-0.05 -0.90005,-0.05 -1.35007,-0.05 -0.45002,0 -1.07506,-0.05 -1.8251,-0.075 -0.75003,-0.025 -1.17506,-0.025 -1.37506,-0.025 -0.20002,0 -0.70004,0.12501 -0.60003,0 0.1,-0.12501 0.25001,-0.97505 0.45002,-1.40007 0.20001,-0.42502 0.42502,-0.27501 0.42502,-0.27501 z"
       id="path37536" /><path
       style="opacity:0.99;fill:#47a3e3;fill-opacity:1;fill-rule:nonzero;stroke:#0055d4;stroke-width:0.1;stroke-dasharray:none;stroke-opacity:1;paint-order:fill markers stroke"
       d="m -97.166568,63.712183 c 0,0 3.000153,-0.20001 3.275169,-0.075 0.275013,0.125 1.150056,0.60003 1.250063,0.82504 0.100005,0.22501 0.350018,0.75004 0.475023,0.87504 0.125007,0.12501 -0.550027,0.25001 -0.725035,0.20001 -0.175012,-0.05 -0.900047,-0.05 -1.350071,-0.05 -0.450022,0 -1.075055,-0.05 -1.825093,-0.075 -0.750039,-0.025 -1.17506,-0.025 -1.375069,-0.025 -0.200012,0 -0.700037,0.12501 -0.60003,0 0.100004,-0.12501 0.250013,-0.97505 0.450022,-1.40007 0.200009,-0.42502 0.425021,-0.27501 0.425021,-0.27501 z"
       id="path37538" /><path
       style="opacity:0.99;fill:#e3dedb;fill-opacity:1;fill-rule:nonzero;stroke:none;stroke-width:0.1;stroke-dasharray:none;stroke-opacity:1;paint-order:fill markers stroke"
       d="m -97.99161,65.462273 c -0.125005,-0.025 -0.275013,0.27501 -0.275013,0.27501 0,0 0.05,0.40002 0.200009,0.45002 0.150008,0.05 0.175008,0.05 0.875046,0.12501 0.700034,0.075 1.300064,0.10001 1.825093,0.10001 0.525026,0 1.80009,-0.075 2.050103,-0.10001 0.250012,-0.025 0.850045,-0.05 1.075055,-0.15001 0.225012,-0.1 0.40002,-0.17501 0.40002,-0.35001 0,-0.17501 -0.125005,-0.45003 -0.250012,-0.45003 -0.125005,0 -5.900301,0.10001 -5.900301,0.10001 z"
       id="path37540" /><ellipse
       style="opacity:0.99;fill:#000000;fill-opacity:1;fill-rule:nonzero;stroke:#000000;stroke-width:0.1;stroke-dasharray:none;stroke-opacity:1;paint-order:fill markers stroke"
       id="ellipse37542"
       cx="-93.767143"
       cy="40.183392"
       rx="0.77785712"
       ry="1.3966072" /><ellipse
       style="opacity:0.99;fill:#000000;fill-opacity:1;fill-rule:nonzero;stroke:#000000;stroke-width:0.0792771;stroke-dasharray:none;stroke-opacity:1;paint-order:fill markers stroke"
       id="ellipse37544"
       cx="-88.857292"
       cy="40.094173"
       rx="0.56723642"
       ry="1.203665" /><ellipse
       style="opacity:0.99;fill:#ffffff;fill-opacity:1;fill-rule:nonzero;stroke:none;stroke-width:0.1;stroke-dasharray:none;stroke-opacity:1;paint-order:fill markers stroke"
       id="ellipse37546"
       cx="-93.722946"
       cy="39.723751"
       rx="0.53919643"
       ry="0.68946427" /><ellipse
       style="opacity:0.99;fill:#ffffff;fill-opacity:1;fill-rule:nonzero;stroke:none;stroke-width:0.0775845;stroke-dasharray:none;stroke-opacity:1;paint-order:fill markers stroke"
       id="ellipse37548"
       cx="-88.870186"
       cy="39.564632"
       rx="0.40013629"
       ry="0.55924344" /><path
       style="opacity:0.99;fill:#000000;fill-opacity:1;fill-rule:nonzero;stroke:#000000;stroke-width:0.1;stroke-dasharray:none;stroke-opacity:1;paint-order:fill markers stroke"
       d="m -95.941607,36.647673 c 0.335891,-0.28286 0.848572,-0.76018 1.11375,-0.7425 0.265179,0.0177 0.636429,0.053 0.919285,0.0884 0.282858,0.0354 0.689464,0.30054 0.830894,0.38893 0.141428,0.0884 0.371251,0.53036 0.548035,0.65411 0.176786,0.12375 0.335893,0.51268 0.37125,0.54804 0.03536,0.0354 0.159107,0.22982 0.141427,0.26517 -0.01767,0.0354 -0.318214,-0.22098 -0.459642,-0.25634 -0.141427,-0.0353 -0.609909,-0.30937 -0.715981,-0.41544 -0.106071,-0.10607 -0.07071,-0.22982 -0.291698,-0.32705 -0.220982,-0.0972 -0.822052,-0.18563 -0.892767,-0.20331 -0.07071,-0.0177 -0.353571,-0.0177 -0.574553,-0.0177 -0.220983,0 -0.742501,0.0354 -0.804376,0.053 -0.06187,0.0177 -0.247499,0.053 -0.247499,0.053 z"
       id="path37550" /><path
       style="opacity:0.99;fill:#000000;fill-opacity:1;fill-rule:nonzero;stroke:#000000;stroke-width:0.1;stroke-dasharray:none;stroke-opacity:1;paint-order:fill markers stroke"
       d="m -89.488927,38.008923 c 0.03536,-0.0884 0.194463,-0.53036 0.406606,-0.65411 0.212143,-0.12375 0.583393,-0.37125 0.671785,-0.4066 0.08839,-0.0354 0.282858,0 0.441965,0.0707 0.159107,0.0707 0.318215,0.12375 0.265179,0.21214 -0.05304,0.0884 -0.159107,0.0884 -0.406609,0.14143 -0.247499,0.053 -0.494999,0.14143 -0.583393,0.26518 -0.08839,0.12375 -0.335891,0.2475 -0.441963,0.40661 -0.106071,0.1591 -0.318214,0.2475 -0.318214,0.17678 0,-0.0707 -0.03536,-0.21214 -0.03536,-0.21214 z"
       id="path37552" /><path
       style="opacity:0.99;fill:none;fill-opacity:1;fill-rule:nonzero;stroke:#000000;stroke-width:0.1;stroke-dasharray:none;stroke-opacity:1;paint-order:fill markers stroke"
       d="m -90.350461,41.306383 c -0.01249,0.075 -0.025,0.27501 -0.01249,0.36252 0.01249,0.0875 0.08751,0.21251 0.237513,0.23751 0.150009,0.025 0.262512,0.075 0.350018,0.12501 0.08751,0.05 0.337518,0.25001 0.350017,0.36252 0.01252,0.1125 -0.075,0.38752 -0.112506,0.46252 -0.0375,0.075 0.0375,0.23751 -0.112504,0.23751 -0.150008,0 -0.387522,-0.0625 -0.462526,-0.0625 -0.075,0 -0.362516,-0.0375 -0.362516,-0.0375 l 0.137507,-0.0125 0.21251,0.0625"
       id="path37554" /><path
       style="opacity:0.99;fill:none;fill-opacity:1;fill-rule:nonzero;stroke:#000000;stroke-width:0.1;stroke-dasharray:none;stroke-opacity:1;paint-order:fill markers stroke"
       d="m -91.31301,44.844063 c -0.075,0.025 -1.100055,0.15001 -1.36257,0.075 -0.262514,-0.075 -0.800039,-0.33752 -0.862544,-0.42503 -0.0625,-0.0875 -0.437523,-0.28751 -0.500025,-0.41252 -0.0625,-0.125 -0.075,-0.37502 -0.075,-0.37502 0,0 -0.237512,0.31252 -0.287515,0.33752 -0.05,0.025 -0.175009,0.025 -0.175009,0.025"
       id="path37556" /><path
       style="opacity:0.99;fill:#fde0a4;fill-opacity:0.992157;fill-rule:nonzero;stroke:none;stroke-width:0.1;stroke-dasharray:none;stroke-opacity:1;paint-order:fill markers stroke"
       d="m -103.37613,48.944273 1.9001,2.0251 c 0,0 -0.97505,0.52503 -1.02505,0.62503 -0.05,0.10001 -0.075,1.12506 -0.025,1.25007 0.05,0.12501 0.30001,1.02505 0.42502,1.25006 0.12501,0.22501 0.40002,0.92505 0.40002,0.92505 0,0 -0.05,-0.37502 0.37502,-0.22501 0.42502,0.15001 0.47502,0.075 0.52503,0.17501 0.05,0.1 0.62503,0.70003 0.62503,0.70003 l 0.275012,0.85005 c 0,0 0.250013,0.27501 0.025,0.42502 -0.225012,0.15001 -0.275012,0.35002 -0.350022,0.22501 -0.075,-0.12501 -0.2,-0.57503 -0.2,-0.57503 l 0.22501,0.87505 0.275011,0.40002 c 0,0 0.150008,0.42502 -0.250011,0.55003 -0.40002,0.125 -0.77504,-0.05 -0.77504,-0.05 0,0 -0.075,0 -0.35002,0.20001 -0.27501,0.20001 -0.50003,0.52503 -0.67503,0.35002 -0.17501,-0.17501 -0.37502,-0.25001 -0.52503,-0.27502 -0.15001,-0.025 -0.35002,0.15001 -0.52503,0.15001 -0.17501,0 -0.50002,0.15001 -0.65003,-0.20001 -0.15001,-0.35002 -0.20001,-0.47502 -0.35002,-0.82504 -0.15001,-0.35002 -0.22501,-0.32502 -0.20001,-0.70004 0.025,-0.37501 0.12501,-0.67503 0.20001,-0.87504 0.075,-0.20001 0.10001,-0.25001 0.12501,-0.50002 0.025,-0.25002 -0.52503,-0.50003 -0.62504,-0.97505 -0.1,-0.47503 -0.25001,-0.77504 -0.40001,-1.12506 -0.15001,-0.35002 -0.30002,-0.55003 -0.32502,-0.97505 -0.025,-0.42502 -0.12501,-0.67504 0.025,-1.22506 0.15001,-0.55003 0.05,-0.45003 0.45002,-1.00006 0.40002,-0.55002 0.57503,-0.72503 0.80004,-0.90004 0.22502,-0.17501 0.60003,-0.55003 0.60003,-0.55003 z"
       id="path37558" /><path
       style="opacity:0.99;fill:#fde0a4;fill-opacity:0.992157;fill-rule:nonzero;stroke:none;stroke-width:0.1;stroke-dasharray:none;stroke-opacity:1;paint-order:fill markers stroke"
       d="m -95.875741,54.294543 c 0,0.10001 -0.175012,0.15001 -0.300017,0.52503 -0.125008,0.37502 -0.100004,0.55003 -0.125008,0.72504 -0.025,0.17501 -0.350017,0.72504 -0.350017,0.72504 0,0 -0.700035,0.37501 -0.275014,0.67503 0.425024,0.30001 0.625031,0.50002 0.750039,0.50002 0.125005,0 0.350017,-0.1 0.525026,-0.32501 0.175009,-0.22501 0.375021,-0.40002 0.525029,-0.72504 0.150005,-0.32502 0.375017,-0.92505 0.375017,-0.92505 0,0 -0.05,0.45003 0.175009,0.62504 0.225012,0.17501 0,0.27501 0.450025,0.15 0.450021,-0.125 0.800039,-0.67503 0.825042,-0.80004 0.025,-0.125 0.225009,-0.47502 0.225009,-0.72503 0,-0.25002 -0.150005,-0.50003 -0.375017,-0.62504 -0.225013,-0.125 -0.750038,-0.1 -1.000051,-0.075 -0.250013,0.025 -1.225063,0.10001 -1.225063,0.10001 z"
       id="path37560"
       sodipodi:nodetypes="csscsssscsssssscc" /><path
       style="opacity:0.99;fill:#fde0a4;fill-opacity:0.992157;fill-rule:nonzero;stroke:none;stroke-width:0.1;stroke-dasharray:none;stroke-opacity:1;paint-order:fill markers stroke"
       d="m -95.725736,57.219693 c 0,0 -0.150005,0.42502 -0.150005,0.57503 0,0.15001 0.375017,0.42502 0.62503,0.52503 0.250013,0.10001 0.825042,0.20001 1.100055,0.025 0.275016,-0.17501 0.475025,-0.55003 0.55003,-0.67503 0.075,-0.12501 0.100004,-0.17501 0.225012,-0.17501 0.125005,0 0.425021,-0.27502 0.425021,-0.42503 0,-0.15 0,-0.27501 0,-0.40002 0,-0.125 0.300014,-0.35001 0.300014,-0.35001 0,0 0.150008,-0.22501 0.150008,-0.50003 0,-0.27501 0.250013,-0.45002 -0.075,-0.50002 -0.325017,-0.05 -0.625031,-0.30002 -0.625031,-0.30002 0,0 -1.800092,-0.075 -1.975101,0.10001 -0.175009,0.175 -0.550029,2.1001 -0.550029,2.1001 z"
       id="path37562" /><path
       style="opacity:0.99;fill:none;fill-opacity:0.992157;fill-rule:nonzero;stroke:#2b1100;stroke-width:0.02354792;stroke-dasharray:none;stroke-opacity:1;paint-order:fill markers stroke"
       d="m -5.1252614,7.7878973 c 0,0 -0.6875351,-0.2000104 -0.8750446,0.275014 -0.1875096,0.4750242 -0.1750089,0.550028 -0.1375071,0.6125311 0.037502,0.062503 0.6750344,0.7750397 1.0500535,0.6250321 0.3750193,-0.1500077 0.3875198,-0.2875148 0.4000206,-0.3625186 0.012502,-0.075004 0.012502,-0.1750089 0.012502,-0.1750089 l 0.2375122,-0.1500077 0.1125056,-0.075004 0.2625135,0.012502 c 0,0 -0.7000357,-0.1375069 -0.9250471,-0.512526 C -5.2127649,7.662892 -5.1252604,7.7878984 -5.1252604,7.7878984 Z"
       id="path2322" /><path
       style="opacity:0.99;fill:none;fill-opacity:0.992157;fill-rule:nonzero;stroke:#2b1100;stroke-width:0.0235479;stroke-dasharray:none;stroke-opacity:1;paint-order:fill markers stroke"
       d="m -5.1627635,7.7628961 -0.2250114,0.012501 c 0,0 -0.050003,0.4750242 0.3250168,0.6750344 0.3750191,0.2000102 0.3750191,0.2000102 0.3750191,0.2000102 l 0.1625081,0.050002 0.2250115,-0.1500076 -0.550028,-0.3500178 z"
       id="path3106" /><path
       style="opacity:0.99;fill:none;fill-opacity:0.992157;fill-rule:nonzero;stroke:#2b1100;stroke-width:0.0235479;stroke-dasharray:none;stroke-opacity:1;paint-order:fill markers stroke"
       d="m -5.8502983,7.9004029 c 0,0 0.5750293,0.3750191 0.5875298,0.8625441 0.012501,0.4875249 -0.037502,0.4875249 -0.037502,0.4875249 l 0.012501,0.075004 L -5.5252814,9.2004696 -6.162814,8.6379408 c 0,0 0.050002,-0.5375275 0.3125157,-0.7375379 z"
       id="path3108" /><path
       style="opacity:0.99;fill:none;fill-opacity:0.992157;fill-rule:nonzero;stroke:#2b1100;stroke-width:0.0235479;stroke-dasharray:none;stroke-opacity:1;paint-order:fill markers stroke"
       d="m -5.2328571,6.0814285 c 0,0 0.4684821,0.079554 0.6099108,0.495 0.1414286,0.4154463 0.088393,0.4949999 0.088393,0.4949999 l 0.026518,0.1325894 c 0,0 -0.3005357,-0.4419643 -0.4419642,-0.4508035 -0.1414288,-0.00884 -0.6099109,0.00884 -0.6099109,0.00884 0,0 -0.097232,0 -0.061875,0.044196 0.035357,0.044196 0.1237498,0.079553 0.2121429,0.079553 0.088393,0 0.2563392,-0.017679 0.3358928,0.017679 0.079554,0.035357 0.2651786,0.1591072 0.2916965,0.1944642 0.026518,0.035357 0.1944642,0.2740179 0.2209821,0.3182144 0.026518,0.044196 0.00884,0.097232 0.079554,0.097232 0.070714,0 0.1325893,-0.061875 0.1325893,-0.061875 0,0 0.070714,-0.044196 0.1060712,-0.044196 0.035357,0 0.097232,0 0.097232,0 0,0 0.061875,-0.1060715 0.026518,-0.1149109 -0.035357,-0.00884 -0.185625,-0.00884 -0.185625,-0.00884 H -4.33125 c 0,0 0.035357,-0.2651786 0.053036,-0.4066071 0.017679,-0.1414285 0.070714,-0.3270536 0,-0.4773213 -0.070714,-0.150268 -0.1325893,-0.3093752 -0.3800893,-0.3800893 -0.2475,-0.070714 -0.5480357,0 -0.5480357,0 z"
       id="path3110" /><path
       style="opacity:0.99;fill:none;fill-opacity:0.992157;fill-rule:nonzero;stroke:#2b1100;stroke-width:0.0235479;stroke-dasharray:none;stroke-opacity:1;paint-order:fill markers stroke"
       d="m -3.5091965,7.6636607 c 0.017679,-0.061875 0.088393,-0.079554 0.079554,-0.2033038 -0.00884,-0.1237498 -0.00884,-0.1237498 -0.00884,-0.1237498 0,0 0.1237498,0.088393 0.1149106,0.1591072 -0.00884,0.070714 0.1856251,-0.397768 0.2121429,-0.4331251 0.026518,-0.035357 0.2651787,-0.1944642 0.3005358,-0.2033037 0.035357,-0.00884 0.1591071,-0.035357 0.2209821,0.053036 0.061875,0.088393 0.088393,0.2121429 0.088393,0.2121429 l -0.053036,0.079554 c 0,0 -0.053036,-0.1149107 -0.1237499,-0.1149107 -0.070714,0 -0.2828573,0.1237499 -0.3270536,0.1856251 -0.044196,0.061875 -0.1591072,0.1856247 -0.1591072,0.1856247 l 0.3093749,0.026518 c 0,0 0.1591072,0.097232 0.1060715,0.1060715 -0.053036,0.00884 -0.3182141,0 -0.4154464,0 -0.097232,0 -0.1237501,0.1060714 -0.1237501,0.1060714 0,0 -0.088393,0.053036 -0.1237499,0.053036 -0.035357,0 -0.097232,-0.088393 -0.097232,-0.088394 z"
       id="path3112" /><path
       style="opacity:0.99;fill:#fde0a4;fill-opacity:1;fill-rule:nonzero;stroke:none;stroke-width:0.0354046;stroke-dasharray:none;stroke-opacity:1;paint-order:fill markers stroke"
       d="m 5.3352549,6.7634624 c 0,0 0.2541307,-1.2525388 0.19154,-1.2900924 C 5.4642043,5.4358164 5.8898183,5.4107818 5.9899622,5.2730829 6.0901068,5.135384 6.2403234,4.985166 6.2778774,4.8224325 6.3154314,4.659699 6.3529854,4.4343738 6.3529854,4.309194 c 0,-0.1251835 -0.037554,-0.4631695 -0.037554,-0.4631695 v -0.050073 c 0,0 1.5397182,0.075111 2.3408722,0.500723 0.8011544,0.4256123 0.8387087,0.4506504 0.8387087,0.4506504 0,0 0.3505058,-0.2753979 0.3755411,-0.3254705 0.025038,-0.050073 0.1627356,-0.1251799 0.1627356,-0.1251799 l 0.162734,0.3505051 c 0,0 0.05007,1.5272002 -0.01252,1.7650444 -0.06259,0.2378407 -0.03755,0.1126608 -0.05007,0.1752525 -0.01252,0.062588 -0.05007,0.4256123 -0.05007,0.5382732 0,0.1126643 0.02503,0.4005777 0.01252,0.5132421 -0.01252,0.1126608 -0.2002889,0.6634565 -0.2002889,0.6634565 0,0 -0.3630238,0.3505048 -0.4506497,0.3880588 -0.087626,0.03755 -0.5257576,0.225325 -0.5883472,0.25036 -0.062591,0.02503 -0.2503612,0.05007 -0.3129518,0.05007 H 7.9552985 c -0.1251803,0 -0.4631674,-0.05007 -0.5758296,-0.07511 C 7.2668023,8.8908011 6.9914059,8.8282061 6.8286706,8.8031681 6.6659364,8.7781371 6.3780213,8.6654691 6.252841,8.6028811 6.1276608,8.5402891 5.8898183,8.4401441 5.8397457,8.4151091 5.7896737,8.3900781 5.5643489,8.1772688 5.4892406,8.1397117 5.4141327,8.1021581 5.2388798,7.9644591 5.2013255,7.91439 5.1637715,7.8643174 5.0260736,7.7391339 5.0260736,7.7391339 V 7.5764005 c 0,0 -0.1627342,0.1752525 -0.350505,0.075111 C 4.487798,7.5513659 4.5173559,7.400368 4.417212,7.2751881 4.3170674,7.1500082 4.6949855,6.6823559 4.6949855,6.6322832 c 0,-0.050069 -0.2069833,0.061929 -0.1944643,-0.038217 0.012519,-0.1001454 0.1207863,-0.2628788 0.1207863,-0.2628788 0,0 0.198858,-0.3903585 0.3490745,-0.4779848 0.1502166,-0.087626 0.023504,0.092123 0.098612,0.079603 0.075108,-0.012533 -0.3183173,0.1539616 -0.3183173,0.1539616 0,0 0.1752522,0.062592 0.2128062,0.1251799 0.037554,0.062592 0.1126622,0.1627371 0.1502165,0.2128062 0.037554,0.050073 0.1251803,0.162737 0.1502166,0.2128097 0.025035,0.050069 0.071339,0.1259127 0.071339,0.1259127 z"
       id="path20216-6"
       sodipodi:nodetypes="cssssccsccccsssccscsscccccccccssscsccccscc" /><path
       style="opacity:0.99;fill:#fde0a4;fill-opacity:0.992157;fill-rule:nonzero;stroke:none;stroke-width:0.0384263;stroke-dasharray:none;stroke-opacity:1;paint-order:fill markers stroke"
       d="m 5.9387131,8.4377371 v 0.250019 c 0,0 -0.032484,0.295476 0.2598853,0.340932 0.2923715,0.04546 0.4385569,0.113649 0.4385569,0.113649 l 0.032484,-0.468427 c 0,0 -0.2598846,-0.07707 -0.4385562,-0.145255 -0.1786718,-0.06819 -0.194914,-0.159104 -0.194914,-0.159104 z"
       id="path20220-5"
       sodipodi:nodetypes="ccsccscc" /><ellipse
       style="opacity:0.99;fill:#000000;fill-opacity:1;fill-rule:nonzero;stroke:#000000;stroke-width:0.0354046;stroke-dasharray:none;stroke-opacity:1;paint-order:fill markers stroke"
       id="ellipse20244"
       cx="7.9052224"
       cy="6.5561829"
       rx="0.27539682"
       ry="0.49446252" /><ellipse
       style="opacity:0.99;fill:#000000;fill-opacity:1;fill-rule:nonzero;stroke:#000000;stroke-width:0.0280677;stroke-dasharray:none;stroke-opacity:1;paint-order:fill markers stroke"
       id="ellipse20246"
       cx="9.6435347"
       cy="6.5245953"
       rx="0.20082752"
       ry="0.42615223" /><ellipse
       style="opacity:0.99;fill:#ffffff;fill-opacity:1;fill-rule:nonzero;stroke:none;stroke-width:0.0354046;stroke-dasharray:none;stroke-opacity:1;paint-order:fill markers stroke"
       id="ellipse20248"
       cx="7.9208698"
       cy="6.3934488"
       rx="0.19090009"
       ry="0.24410175" /><ellipse
       style="opacity:0.99;fill:#ffffff;fill-opacity:1;fill-rule:nonzero;stroke:none;stroke-width:0.0274684;stroke-dasharray:none;stroke-opacity:1;paint-order:fill markers stroke"
       id="ellipse20250"
       cx="9.6389704"
       cy="6.3371143"
       rx="0.14166647"
       ry="0.19799764" /><path
       style="opacity:0.99;fill:#000000;fill-opacity:1;fill-rule:nonzero;stroke:#000000;stroke-width:0.0354046;stroke-dasharray:none;stroke-opacity:1;paint-order:fill markers stroke"
       d="M 7.1353629,5.304377 C 7.2542836,5.2042317 7.435796,5.0352387 7.5296811,5.0414982 c 0.093885,0.00627 0.2253249,0.018764 0.3254688,0.031298 0.1001446,0.012533 0.2441016,0.1064049 0.2941743,0.1376989 0.050072,0.031298 0.1314397,0.1877716 0.1940293,0.2315848 0.06259,0.043813 0.1189214,0.181512 0.1314394,0.1940311 0.012519,0.012533 0.056331,0.081367 0.050072,0.093882 C 8.5186085,5.742526 8.4122023,5.6517558 8.3621303,5.6392368 8.3120587,5.626739 8.1461948,5.5297057 8.1086404,5.4921521 8.0710865,5.4545985 8.0836059,5.4107854 8.0053661,5.3763615 7.9271284,5.3419483 7.7143222,5.3106401 7.6892859,5.3043805 c -0.025035,-0.00627 -0.1251802,-0.00627 -0.2034179,-0.00627 -0.078238,0 -0.2628792,0.012533 -0.2847858,0.018764 -0.021905,0.00627 -0.087626,0.018765 -0.087626,0.018765 z"
       id="path20252-3" /><path
       style="opacity:0.99;fill:#000000;fill-opacity:1;fill-rule:nonzero;stroke:#000000;stroke-width:0.0354046;stroke-dasharray:none;stroke-opacity:1;paint-order:fill markers stroke"
       d="m 9.4199054,5.7863215 c 0.012519,-0.031298 0.068849,-0.1877716 0.143957,-0.2315848 0.075108,-0.043813 0.2065477,-0.1314394 0.2378425,-0.1439549 0.031294,-0.012533 0.1001446,0 0.1564757,0.025031 0.05633,0.025031 0.1126634,0.043813 0.09389,0.075107 -0.01878,0.031298 -0.05633,0.031298 -0.1439584,0.050073 -0.087626,0.018764 -0.1752522,0.050073 -0.2065477,0.093886 -0.031294,0.043813 -0.1189207,0.087626 -0.156475,0.1439585 -0.037554,0.056329 -0.1126623,0.087626 -0.1126623,0.062588 0,-0.025031 -0.012519,-0.075107 -0.012519,-0.075107 z"
       id="path20254-2" /><path
       style="opacity:0.99;fill:none;fill-opacity:1;fill-rule:nonzero;stroke:#000000;stroke-width:0.0354046;stroke-dasharray:none;stroke-opacity:1;paint-order:fill markers stroke"
       d="m 9.1148831,6.9537724 c -0.00442,0.026554 -0.00885,0.097366 -0.00442,0.1283486 0.00442,0.030979 0.030983,0.075238 0.08409,0.084089 0.05311,0.00885 0.092941,0.026553 0.1239223,0.044259 0.030983,0.017702 0.1194968,0.088515 0.123922,0.1283486 0.00443,0.03983 -0.026553,0.1371997 -0.039832,0.1637531 -0.013277,0.026553 0.013277,0.084089 -0.039832,0.084089 -0.05311,0 -0.1372004,-0.022128 -0.1637552,-0.022128 -0.026554,0 -0.1283472,-0.013277 -0.1283472,-0.013277 l 0.048684,-0.00443 0.075238,0.022128"
       id="path20256-1" /><path
       style="opacity:0.99;fill:none;fill-opacity:1;fill-rule:nonzero;stroke:#000000;stroke-width:0.0354046;stroke-dasharray:none;stroke-opacity:1;paint-order:fill markers stroke"
       d="M 8.774097,8.2062722 C 8.747544,8.2151222 8.3846274,8.2593822 8.2916852,8.2328252 8.1987433,8.2062722 8.0084349,8.1133282 7.9863053,8.0823457 7.9641775,8.0513667 7.8314022,7.980554 7.8092737,7.9362948 7.7871458,7.8920391 7.7827203,7.8035207 7.7827203,7.8035207 c 0,0 -0.08409,0.1106463 -0.1017934,0.1194974 -0.017702,0.00885 -0.061961,0.00885 -0.061961,0.00885"
       id="path20258" /><path
       style="opacity:0.99;fill:#999999;fill-opacity:1;fill-rule:nonzero;stroke:none;stroke-width:0.1;stroke-dasharray:none;stroke-opacity:1;paint-order:fill markers stroke"
       d="M 5.7040719,2.1649086 C 5.3839287,2.3783374 6.8451765,4.1967891 8.8542324,4.1400094 10.868389,4.0830855 10.253348,3.4616286 10.254304,3.464975 10.62317,4.9316055 10.646967,8.9270211 9.1310233,9.3495901 7.4015828,10.104038 3.7967651,7.5500912 4.1039903,7.1151609 4.5385713,6.4999363 4.3374604,5.3166254 5.7040719,2.1649086 Z"
       id="path157"
       sodipodi:nodetypes="csccsc" /><ellipse
       style="opacity:0.99;fill:#9a9a99;fill-opacity:1;fill-rule:nonzero;stroke:none;stroke-width:0.0942533;stroke-dasharray:none;stroke-opacity:1;paint-order:fill markers stroke"
       id="path981"
       transform="matrix(0.94256129,0.33403324,-0.54042652,0.84139121,0,0)"
       ry="1.0356855"
       rx="2.4581199"
       cy="0.33720115"
       cx="8.6256132" /><path
       style="opacity:0.99;fill:#4d4d4d;fill-opacity:1;fill-rule:nonzero;stroke:none;stroke-width:0.0993318;stroke-dasharray:none;stroke-opacity:1;paint-order:fill markers stroke"
       d="m 9.3832173,4.1936865 c 0,0 0.4613752,1.9938966 0.061355,3.572665 -0.4000206,1.5787686 -0.3500181,1.5787686 -0.3500181,1.5787686 0,0 0.4000207,-0.09867 0.5000258,-0.345355 0.1000048,-0.246683 0.80004,-1.8254518 0.700035,-2.5161629 -0.100005,-0.6907114 -0.105551,-1.9794463 -0.105551,-1.9794463 0,0 0.194204,-0.5078155 -0.8058467,-0.3104694 z"
       id="path983"
       sodipodi:nodetypes="cscsscc" /><path
       style="opacity:0.99;fill:#4d4d4d;fill-opacity:1;fill-rule:nonzero;stroke:none;stroke-width:0.1;stroke-dasharray:none;stroke-opacity:1;paint-order:fill markers stroke"
       d="M 10.400696,6.199079 C 9.9392754,6.4341802 8.4711351,6.4901392 7.248802,5.8504734 7.1076619,5.3320514 6.5652483,6.2764041 7.2824096,6.6736513 c 0.5186524,0.25765 1.5129779,0.4409665 1.8661839,0.4254188 0.3532297,-0.015549 1.2315895,-0.092155 1.2437735,-0.2979597 0.01218,-0.2058051 0.04369,-0.7964957 0.04369,-0.7964957 z"
       id="path989"
       sodipodi:nodetypes="cccsccc" /><path
       style="opacity:0.99;fill:#808080;fill-opacity:1;fill-rule:nonzero;stroke:none;stroke-width:0.107975;stroke-dasharray:none;stroke-opacity:1;paint-order:fill markers stroke"
       d="m 7.826409,2.252413 c 0,0 -1.6905969,-0.2000102 -1.8509122,0.025001 -0.1603151,0.2250115 0.029147,0.3875199 0.1020183,0.4375224 1.1938337,0.4640799 2.5157117,0.4531663 3.7892688,0.6125313"
       id="path1412"
       sodipodi:nodetypes="cscc" /><path
       style="opacity:0.99;fill:#666666;fill-opacity:0.423792;fill-rule:nonzero;stroke:none;stroke-width:0.093;stroke-dasharray:none;stroke-opacity:1;paint-order:fill markers stroke"
       d="M 4.9227581,7.7334243 C 4.1173588,7.0495301 4.525507,6.9822773 4.4359246,7.0837145 4.3993015,5.1744261 5.4078247,4.0081759 5.6462786,2.8197778 c 0.097078,0.091698 -0.14271,0.077723 0.6189023,0.5663423"
       id="path3187"
       sodipodi:nodetypes="cccc" /><path
       style="opacity:0.99;fill:#666666;fill-opacity:1;fill-rule:nonzero;stroke:none;stroke-width:0.0705928;stroke-dasharray:none;stroke-opacity:1;paint-order:fill markers stroke"
       d="m 9.7493997,4.6399158 c 0,0 0.2095409,1.7386411 -0.070009,3.0972749 -0.2795505,1.3586334 -0.2504466,1.3598114 -0.2504466,1.3598114 0,0 0.2357516,-0.07608 0.3012592,-0.287486 0.065508,-0.211404 0.5196827,-1.5629726 0.4819127,-2.1638513 -0.03777,-0.6008788 -0.0028,-1.7177401 -0.0028,-1.7177401 0,0 0.128063,-0.4354652 -0.4598556,-0.288009 z"
       id="path5668"
       sodipodi:nodetypes="cscsscc" /><path
       style="opacity:0.99;fill:#666666;fill-opacity:1;fill-rule:nonzero;stroke:none;stroke-width:0.0713168;stroke-dasharray:none;stroke-opacity:1;paint-order:fill markers stroke"
       d="M 10.403523,6.412848 C 9.9789876,6.5428115 8.6282081,6.5737455 7.5035866,6.2201395 7.3737291,5.9335568 6.8746753,6.4555931 7.5345078,6.6751908 c 0.4771919,0.1424283 1.3920325,0.2437655 1.7170037,0.2351706 0.3249931,-0.00859 1.1331375,-0.050943 1.1443475,-0.1647115 0.01121,-0.1137687 0.04019,-0.4403014 0.04019,-0.4403014 z"
       id="path5670"
       sodipodi:nodetypes="cccsccc" /></g></svg>
