<?xml version="1.0" encoding="UTF-8" standalone="no"?>
<!-- Created with Inkscape (http://www.inkscape.org/) -->

<svg
   width="50"
   height="70"
   viewBox="0 0 13.229166 18.520833"
   version="1.1"
   id="svg18473"
   xml:space="preserve"
   inkscape:version="1.2.2 (732a01da63, 2022-12-09)"
   sodipodi:docname="templar_ataque3.svg"
   xmlns:inkscape="http://www.inkscape.org/namespaces/inkscape"
   xmlns:sodipodi="http://sodipodi.sourceforge.net/DTD/sodipodi-0.dtd"
   xmlns="http://www.w3.org/2000/svg"
   xmlns:svg="http://www.w3.org/2000/svg"><sodipodi:namedview
     id="namedview18475"
     pagecolor="#ffffff"
     bordercolor="#000000"
     borderopacity="0.25"
     inkscape:showpageshadow="2"
     inkscape:pageopacity="0.0"
     inkscape:pagecheckerboard="0"
     inkscape:deskcolor="#d1d1d1"
     inkscape:document-units="mm"
     showgrid="true"
     inkscape:zoom="4"
     inkscape:cx="20.5"
     inkscape:cy="54.625"
     inkscape:window-width="1350"
     inkscape:window-height="728"
     inkscape:window-x="0"
     inkscape:window-y="0"
     inkscape:window-maximized="0"
     inkscape:current-layer="layer1"
     showguides="true"><inkscape:grid
       type="xygrid"
       id="grid36773"
       originx="0"
       originy="0" /><sodipodi:guide
       position="0.91928567,17.177262"
       orientation="0,-1"
       id="guide2266"
       inkscape:locked="false" /></sodipodi:namedview><defs
     id="defs18470" /><g
     inkscape:label="Capa 1"
     inkscape:groupmode="layer"
     id="layer1"><path
       style="opacity:0.99;fill:#fde0a4;fill-opacity:1;fill-rule:nonzero;stroke:none;stroke-width:0.0354046;stroke-dasharray:none;stroke-opacity:1;paint-order:fill markers stroke"
       d="m 6.8910715,6.2893071 c 0,0 -2.618684,9.599e-4 -2.6908198,-0.010191 C 4.1281162,6.2679649 4.5127987,6.0841351 4.5535611,5.9188226 4.5943239,5.7535098 4.6767298,5.5577045 4.6500826,5.3928336 4.6234358,5.2279625 4.5731636,5.0051298 4.5259148,4.8892093 4.4786646,4.7732856 4.3163164,4.4744747 4.3163164,4.4744747 l -0.018902,-0.046369 c 0,0 1.4541773,-0.5116075 2.3567169,-0.4198711 0.90254,0.091737 0.9467671,0.1007478 0.9467671,0.1007478 0,0 0.2206311,-0.3873245 0.2249147,-0.4431427 0.00429,-0.05582 0.1034491,-0.1773445 0.1034491,-0.1773445 L 8.212256,3.7516504 c 0,0 0.622804,1.395336 0.6546177,1.6392114 0.031812,0.2438724 0.00775,0.1185004 0.019782,0.1811881 0.01199,0.062692 0.1142807,0.4130288 0.1568067,0.5173557 0.042527,0.1043303 0.1743728,0.3615006 0.2053158,0.4705526 0.03096,0.1090464 0.06495,0.6899784 0.06495,0.6899784 0,0 -0.203874,0.4616009 -0.2708437,0.5294509 -0.06697,0.06785 -0.40182,0.4071041 -0.4503307,0.4539111 C 8.544043,8.2801029 8.379614,8.3741657 8.3216532,8.3977904 L 7.7768255,8.6198606 C 7.6609046,8.6671098 7.3290181,8.7483124 7.2152404,8.7676544 7.101453,8.7870026 6.822801,8.832985 6.6626524,8.871223 6.5025076,8.909467 6.1933631,8.9138059 6.0538185,8.9030963 5.9142726,8.8923833 5.6562235,8.8894187 5.6004055,8.8851357 5.5445894,8.8808557 5.2556072,8.7688355 5.1718787,8.762406 5.0881519,8.7559794 4.8738882,8.6946146 4.8202133,8.6624239 4.7665374,8.6302297 4.5917747,8.5662797 4.5917747,8.5662797 L 4.5303514,8.4155835 c 0,0 2.296702,-1.033058 2.085022,-1.0549185 C 6.4036923,7.3388006 6.139215,7.4195625 5.9992299,7.3414411 5.859244,7.26332 5.6509671,7.0508171 5.6320674,7.0044482 5.6131689,6.9580828 5.5637764,6.8700703 5.5375697,6.7726074 5.5113607,6.6751448 5.4847167,6.5102735 5.4847167,6.5102735 c 0,0 0.022304,-0.1442698 0.1283344,-0.2821132 C 5.7190821,6.090317 5.7465514,6.025048 5.8113787,5.9851055 5.8762007,5.9451505 6.0943193,5.883314 6.0943193,5.883314 c 0,0 0.185914,-0.00819 0.244314,0.035598 0.058401,0.043787 0.1657534,0.1081756 0.2194283,0.1403664 0.053676,0.032195 0.1773455,0.1034505 0.2194297,0.1403695 0.042082,0.036916 0.1135874,0.089672 0.1135874,0.089672 z"
       id="path20216"
       sodipodi:nodetypes="cssssccsccccscsccsssscccccccccssccsccscscc" /><path
       style="opacity:0.99;fill:#fde0a4;fill-opacity:0.992157;fill-rule:nonzero;stroke:none;stroke-width:0.0384263;stroke-dasharray:none;stroke-opacity:1;paint-order:fill markers stroke"
       d="m 5.700593,8.8687341 0.09437,0.2315261 c 0,0 0.081445,0.2858806 0.3693456,0.2176202 0.2879033,-0.068259 0.4490137,-0.06029 0.4490137,-0.06029 L 6.4665969,8.8115516 c 0,0 -0.2697508,0.026724 -0.4609425,0.031022 -0.1911942,0.00429 -0.2405506,-0.073766 -0.2405506,-0.073766 z"
       id="path20220"
       sodipodi:nodetypes="ccsccscc" /><path
       style="opacity:0.99;fill:#999999;fill-opacity:1;fill-rule:nonzero;stroke:none;stroke-width:0.0354046;stroke-dasharray:none;stroke-opacity:1;paint-order:fill markers stroke"
       d="m 4.7252022,12.206137 c 0.2231328,0.382747 0.052206,0.957165 0.091862,1.542654 -0.026553,0.04426 -0.089527,0.304604 -0.1160823,0.348863 -0.026553,0.04425 -0.552518,0.690424 -0.5967755,0.716977 -0.044258,0.02655 -0.2566965,0.380621 -0.2566965,0.380621 0,0 0.1947346,0.05311 0.2566965,0.05311 0.061961,0 0.4691344,-0.04425 0.5842041,-0.06196 0.1150709,-0.0177 0.247845,-0.0177 0.336361,-0.0177 0.088516,0 0.1947343,0.159327 0.2301413,0.159327 -0.030123,-0.316459 0.1603094,-0.504819 0.2420981,-0.697721 0.053109,-0.212438 0.081217,-0.436835 0.098921,-0.516503 0.017702,-0.07966 0.05311,-0.266592 -0.00885,-0.42592 C 5.525123,13.528554 5.526171,13.297366 5.490766,13.25311 5.455359,13.20885 5.8695804,12.571686 5.7810643,12.447763 5.6925483,12.32384 4.9893685,11.911316 4.9893685,11.911316 Z"
       id="path20232"
       sodipodi:nodetypes="ccsscscsccsssscc" /><path
       style="opacity:0.99;fill:#666666;fill-opacity:1;fill-rule:nonzero;stroke:none;stroke-width:0.0354046;stroke-dasharray:none;stroke-opacity:1;paint-order:fill markers stroke"
       d="m 6.1223714,12.884984 c 0,0 0.300954,0.548799 0.3452125,0.575356 0.3922845,0.661321 0.2987939,0.957964 0.088517,1.495917 0,0.08851 -0.088516,0.238995 -0.05311,0.238995 0.035406,0 0.3540636,0.02655 0.5665015,0.02655 0.212439,0 0.2212902,0.05311 0.5222441,0.0089 0.3009539,-0.04426 0.3894699,-0.0354 0.4425796,-0.05311 0.05311,-0.0177 -0.017702,0 -0.061961,-0.141626 -0.044258,-0.141667 -0.048954,-0.0266 -0.1020644,-0.239037 C 7.8171807,14.584491 7.7489692,14.441312 7.7578207,14.264282 7.7666718,14.087248 7.6036944,13.553553 7.4797724,13.482737 7.3558501,13.411928 7.352743,13.230196 7.2819307,13.177089 7.2111174,13.123979 6.7596867,12.672546 6.7596867,12.672546 L 6.4941391,12.62829 c 0,0 -0.2301417,0.185881 -0.2655476,0.203587 l -0.1062197,0.05311 z"
       id="path20234"
       sodipodi:nodetypes="cccsscsssscsccccc" /><path
       style="opacity:0.99;fill:#999999;fill-opacity:1;fill-rule:nonzero;stroke:none;stroke-width:0.0354046;stroke-dasharray:none;stroke-opacity:1;paint-order:fill markers stroke"
       d="m 4.8211883,11.840497 2.1863423,0.150476 c 0,0 0.159329,0.230144 0.035406,0.371769 -0.1239219,0.141625 -0.2478439,0.283251 -0.3363598,0.354063 -0.088516,0.07081 -0.2566965,0.194736 -0.3629148,0.212438 -0.1062197,0.0177 -0.2212905,0.04426 -0.3629158,0.02655 -0.1416249,-0.0177 -0.3186565,0.0089 -0.451431,-0.03541 C 5.396542,12.876133 5.2372126,12.893839 5.1752515,12.707954 5.1132907,12.52207 5.060181,12.229968 5.0159236,12.168007 4.971665,12.106045 4.7769297,11.831646 4.7769297,11.831646 Z"
       id="path20230" /><path
       style="opacity:0.99;fill:#cccccc;fill-opacity:1;fill-rule:nonzero;stroke:#999999;stroke-width:0.0354046;stroke-dasharray:none;stroke-opacity:1;paint-order:fill markers stroke"
       d="m 3.8563646,15.221805 c 0,0 1.0621908,-0.07081 1.159559,-0.02655 0.097367,0.04425 0.4071722,0.212438 0.4425792,0.292101 0.035406,0.07966 0.1239223,0.265549 0.1681798,0.309804 0.044258,0.04426 -0.1947346,0.08851 -0.2566954,0.07081 -0.061962,-0.0177 -0.3186577,-0.0177 -0.4779866,-0.0177 -0.1593283,0 -0.3806185,-0.0177 -0.6461661,-0.02655 -0.2655479,-0.0089 -0.4160247,-0.0089 -0.486837,-0.0089 -0.070813,0 -0.247845,0.04426 -0.212438,0 0.035406,-0.04426 0.088516,-0.345212 0.1593283,-0.495688 0.070812,-0.150477 0.1504768,-0.09737 0.1504768,-0.09737 z"
       id="path20236" /><path
       style="opacity:0.99;fill:#e3dedb;fill-opacity:1;fill-rule:nonzero;stroke:none;stroke-width:0.0354046;stroke-dasharray:none;stroke-opacity:1;paint-order:fill markers stroke"
       d="m 3.5642621,15.841417 c -0.044257,-0.0089 -0.097367,0.09737 -0.097367,0.09737 0,0 0.017702,0.141625 0.070812,0.159327 0.05311,0.0177 0.061961,0.0177 0.3098062,0.04426 0.2478439,0.02655 0.4602818,0.03541 0.646166,0.03541 0.1858831,0 0.6373138,-0.02655 0.7258298,-0.03541 0.088516,-0.0089 0.3009546,-0.0177 0.3806184,-0.05311 0.079664,-0.0354 0.1416253,-0.06196 0.1416253,-0.123919 0,-0.06196 -0.044257,-0.159332 -0.088516,-0.159332 -0.044258,0 -2.0889753,0.03541 -2.0889753,0.03541 z"
       id="path20238" /><path
       style="opacity:0.99;fill:#cccccc;fill-opacity:1;fill-rule:nonzero;stroke:#999999;stroke-width:0.0354046;stroke-dasharray:none;stroke-opacity:1;paint-order:fill markers stroke"
       d="m 6.6478872,15.12166 c 0,0 1.0621908,-0.07081 1.159559,-0.02655 0.097367,0.04426 0.4071722,0.212438 0.4425792,0.292102 0.035406,0.07966 0.1239223,0.265548 0.1681798,0.309804 0.044258,0.04426 -0.1947346,0.08851 -0.2566954,0.07081 -0.061962,-0.0177 -0.3186577,-0.0177 -0.4779866,-0.0177 -0.1593283,0 -0.3806185,-0.0177 -0.6461661,-0.02655 -0.2655479,-0.0089 -0.4160247,-0.0089 -0.486837,-0.0089 -0.070813,0 -0.247845,0.04426 -0.2124379,0 0.035406,-0.04426 0.088516,-0.345212 0.1593282,-0.495689 0.070812,-0.150476 0.1504768,-0.09737 0.1504768,-0.09737 z"
       id="path20240" /><path
       style="opacity:0.99;fill:#e3dedb;fill-opacity:1;fill-rule:nonzero;stroke:none;stroke-width:0.0354046;stroke-dasharray:none;stroke-opacity:1;paint-order:fill markers stroke"
       d="m 6.3557848,15.741271 c -0.044258,-0.0089 -0.097367,0.09737 -0.097367,0.09737 0,0 0.017702,0.141626 0.070812,0.159328 0.05311,0.0177 0.061961,0.0177 0.3098061,0.04426 0.2478439,0.02655 0.4602818,0.03541 0.646166,0.03541 0.1858831,0 0.6373138,-0.02655 0.7258298,-0.03541 0.088516,-0.0089 0.3009546,-0.0177 0.3806184,-0.05311 0.079664,-0.03541 0.1416253,-0.06196 0.1416253,-0.12392 0,-0.06196 -0.044257,-0.159331 -0.088516,-0.159331 -0.044258,0 -2.0889752,0.03541 -2.0889752,0.03541 z"
       id="path20242" /><path
       style="opacity:0.99;fill:#000000;fill-opacity:1;fill-rule:nonzero;stroke:#000000;stroke-width:0.0354046;stroke-dasharray:none;stroke-opacity:1;paint-order:fill markers stroke"
       d="m 5.6016771,5.4300298 c 0.09621,-0.1221267 0.2397938,-0.3243369 0.3330049,-0.3371943 0.093213,-0.012845 0.2244634,-0.027194 0.3250726,-0.035173 0.1006102,-0.00798 0.2605769,0.054838 0.3159439,0.075359 0.055367,0.020524 0.1666993,0.1573087 0.2368559,0.1875584 0.070157,0.03025 0.1531735,0.1537102 0.1679648,0.1634389 0.014796,0.00974 0.071623,0.068293 0.068024,0.081815 -0.00359,0.01354 -0.1261579,-0.053835 -0.1777269,-0.055968 -0.051565,-0.00211 -0.2336251,-0.063597 -0.2779984,-0.092779 -0.044372,-0.029182 -0.040973,-0.074622 -0.1245579,-0.092511 -0.083581,-0.017879 -0.2983214,-0.0055 -0.3241062,-0.00657 -0.025785,-0.00107 -0.1238621,0.019174 -0.2004823,0.035 -0.076621,0.015823 -0.2549124,0.065439 -0.275106,0.075972 -0.020184,0.010571 -0.082021,0.036098 -0.082021,0.036098 z"
       id="path20252" /><path
       style="opacity:0.99;fill:#000000;fill-opacity:1;fill-rule:nonzero;stroke:#000000;stroke-width:0.0354046;stroke-dasharray:none;stroke-opacity:1;paint-order:fill markers stroke"
       d="m 7.9169047,5.1417211 c -0.00418,-0.03345 -0.030595,-0.1976421 0.013942,-0.2723246 0.044536,-0.074682 0.1171717,-0.214963 0.1385046,-0.241057 0.021325,-0.02611 0.087643,-0.048452 0.1490534,-0.053799 0.061408,-0.00535 0.1197972,-0.01616 0.1185032,0.020308 -0.00129,0.036477 -0.034157,0.054645 -0.1017615,0.1134718 -0.067609,0.058816 -0.1291492,0.1286121 -0.1353406,0.1820974 -0.00619,0.053484 -0.061681,0.1342235 -0.067293,0.2016933 -0.00561,0.067466 -0.056204,0.1311956 -0.068318,0.1092826 -0.012109,-0.021906 -0.047294,-0.059674 -0.047294,-0.059674 z"
       id="path20254" /><path
       style="opacity:0.99;fill:#f1cd83;fill-opacity:0.976471;fill-rule:nonzero;stroke:none;stroke-width:0.0354046;stroke-dasharray:none;stroke-opacity:1;paint-order:fill markers stroke"
       d="m 7.1299,10.887339 c 0,0.03541 -0.061962,0.05311 -0.1062196,0.185884 -0.044259,0.132775 -0.035406,0.194736 -0.044259,0.256698 -0.00885,0.06196 -0.1239219,0.256697 -0.1239219,0.256697 0,0 -0.2478443,0.13277 -0.097367,0.238991 0.1504779,0.106217 0.2212894,0.17703 0.265548,0.17703 0.044257,0 0.1239219,-0.03541 0.1858831,-0.115068 0.061961,-0.07966 0.1327745,-0.141626 0.1858841,-0.256698 0.053109,-0.115071 0.1327731,-0.327509 0.1327731,-0.327509 0,0 -0.017702,0.159331 0.061961,0.221292 0.079664,0.06196 0,0.09737 0.1593293,0.05311 0.159328,-0.04426 0.2832503,-0.238991 0.2921025,-0.283251 0.00885,-0.04425 0.079663,-0.168178 0.079663,-0.256693 0,-0.08852 -0.053109,-0.177034 -0.1327731,-0.221293 -0.079665,-0.04425 -0.2655476,-0.0354 -0.3540636,-0.02655 -0.088516,0.0089 -0.4337281,0.03541 -0.4337281,0.03541 z"
       id="path20226"
       sodipodi:nodetypes="csscsssscsssssscc" /><path
       style="opacity:0.99;fill:#f1cd83;fill-opacity:0.976471;fill-rule:nonzero;stroke:none;stroke-width:0.0354046;stroke-dasharray:none;stroke-opacity:1;paint-order:fill markers stroke"
       d="m 7.1830086,11.922975 c 0,0 -0.053109,0.150477 -0.053109,0.203587 0,0.05311 0.1327731,0.150476 0.2212891,0.185884 0.088516,0.03541 0.2921025,0.07081 0.3894696,0.0089 0.097368,-0.06196 0.1681805,-0.194736 0.1947356,-0.238992 0.026554,-0.04426 0.035406,-0.06196 0.079665,-0.06196 0.044258,0 0.1504768,-0.09737 0.1504768,-0.15048 0,-0.05311 0,-0.09737 0,-0.141626 0,-0.04425 0.1062186,-0.123919 0.1062186,-0.123919 0,0 0.05311,-0.07966 0.05311,-0.177033 0,-0.09737 0.088516,-0.159328 -0.026553,-0.17703 -0.1150708,-0.0177 -0.2212895,-0.106221 -0.2212895,-0.106221 0,0 -0.6373145,-0.02655 -0.6992756,0.03541 -0.061961,0.06196 -0.1947353,0.743531 -0.1947353,0.743531 z"
       id="path20228" /><path
       style="opacity:0.99;fill:#cccccc;fill-opacity:1;fill-rule:nonzero;stroke:#999999;stroke-width:0.0360925;stroke-dasharray:none;stroke-opacity:1;paint-order:fill markers stroke"
       d="M 4.9767722,10.537754 C 4.904583,10.429469 5.3184364,10.347766 5.3003899,10.221436 5.2823442,10.095109 4.6966028,9.9600228 4.9492618,9.7975974 c 0.3060111,-0.4935147 0.09077,-0.42956 0.6050167,-0.8479851 0.1624233,-0.07219 0.2887528,-0.1624255 0.2887528,-0.1624255 0,0 0.1082827,0.1624255 0.2165657,0.288756 0.108282,0.126327 0.1624234,0.2526575 0.3428945,0.1985169 0.1804705,-0.054141 0.2346119,-0.162422 0.2346119,-0.162422 0.252524,-0.106514 0.886689,1.4151913 0.3428945,2.2739323 -0.3700579,0.584382 0.1082827,0.649694 0,0.685786 -0.108282,0.03609 -0.73993,0.01806 -0.73993,0.01806 0,0 -0.3970366,-0.09023 -0.4692244,-0.09023 H 5.2835721 c -0.090235,0 -0.5700335,0.402803 -0.5780068,0.27544 -0.014634,-0.233757 0.1589902,-0.658415 0.2864616,-0.921949 0.1522381,-0.314737 8.074e-4,-0.360113 -0.1235384,-0.616789 -0.1007617,-0.207995 0.252659,-0.144376 0.252659,-0.144376 0,0 0.1593279,-0.04138 0.3578462,-0.149666 C 5.6775107,10.333962 5.9874075,9.9061158 5.9874075,9.9061158 5.7892709,10.286994 5.5074793,10.517294 5.1391944,10.591906 Z"
       id="path20222"
       sodipodi:nodetypes="cscccsscsscssssscsccc" /><path
       style="opacity:0.99;fill:#fde0a4;fill-opacity:1;fill-rule:nonzero;stroke:none;stroke-width:0.1;stroke-dasharray:none;stroke-opacity:1;paint-order:fill markers stroke"
       d="m -101.026,40.768853 c 0,0 0.71779,-3.53779 0.541,-3.64386 -0.17679,-0.10607 1.025358,-0.17678 1.308214,-0.56571 0.282858,-0.38893 0.707144,-0.81322 0.813215,-1.27286 0.106072,-0.45964 0.212143,-1.09607 0.212143,-1.44964 0,-0.35358 -0.106071,-1.30822 -0.106071,-1.30822 v -0.14143 c 0,0 4.348927,0.21215 6.611783,1.41429 2.262857,1.20214 2.368929,1.27286 2.368929,1.27286 0,0 0.990002,-0.77786 1.060714,-0.91929 0.07072,-0.14143 0.459645,-0.35357 0.459645,-0.35357 l 0.459642,0.99 c 0,0 0.141428,4.31357 -0.03536,4.98536 -0.176787,0.67178 -0.106071,0.31821 -0.14143,0.495 -0.03536,0.17678 -0.141428,1.20214 -0.141428,1.52035 0,0.31822 0.07071,1.13143 0.03536,1.44965 -0.03536,0.31821 -0.565713,1.87393 -0.565713,1.87393 0,0 -1.025359,0.99 -1.272858,1.09607 -0.247499,0.10607 -1.485,0.63643 -1.661784,0.70714 -0.176787,0.0707 -0.707144,0.14143 -0.883931,0.14143 -0.176784,0 -1.308214,0 -1.661784,0 -0.353571,0 -1.308214,-0.14143 -1.626428,-0.21214 -0.318215,-0.0707 -1.096071,-0.2475 -1.555716,-0.31822 -0.459642,-0.0707 -1.272857,-0.38893 -1.626428,-0.56571 -0.353571,-0.17679 -1.025356,-0.45965 -1.166786,-0.53036 -0.141428,-0.0707 -0.777858,-0.67178 -0.989998,-0.77786 -0.21214,-0.10607 -0.70715,-0.495 -0.81322,-0.63642 -0.10607,-0.14143 -0.495,-0.49501 -0.495,-0.49501 v -0.45964 c 0,0 -0.45964,0.495 -0.99,0.21215 -0.53035,-0.28286 -1.30821,-0.35358 -1.59107,-0.70715 -0.28286,-0.35357 -0.60107,-1.13143 -0.60107,-1.27286 0,-0.14142 -0.0354,-0.42428 0,-0.70714 0.0354,-0.28286 0.14143,-0.7425 0.14143,-0.7425 0,0 0.21214,-0.35357 0.63643,-0.60107 0.42428,-0.2475 0.56571,-0.38893 0.77786,-0.42429 0.21214,-0.0354 0.84857,0.0354 0.84857,0.0354 0,0 0.495,0.17679 0.60107,0.35357 0.10607,0.17679 0.31821,0.45965 0.42428,0.60107 0.10607,0.14143 0.35357,0.45965 0.42429,0.60108 0.0707,0.14142 0.2015,0.35564 0.2015,0.35564 z"
       id="path32083" /><path
       style="opacity:0.99;fill:#ff6600;fill-opacity:1;fill-rule:nonzero;stroke:none;stroke-width:0.1;stroke-dasharray:none;stroke-opacity:1;paint-order:fill markers stroke"
       d="m -103.77615,32.368433 c 0,0 -3.65018,1.85009 -2.70013,4.85024 0.95004,3.00015 1.40007,3.15016 1.40007,3.15016 l 0.15001,-0.05 c 0,0 0.55002,-1.00005 0.80004,-1.10006 0.25001,-0.1 0.60003,-0.30001 0.90004,-0.25001 0.30002,0.05 1.20006,0.35002 1.30007,0.60003 0.1,0.25002 0.50002,0.65003 0.65003,0.85005 0.15001,0.20001 0.35002,0.30001 0.35002,0.30001 0,0 0.25001,-0.90004 0.40002,-1.35007 0.15001,-0.45002 0.20001,-0.65003 0.15001,-1.05005 -0.05,-0.40002 -0.15001,-0.90005 -0.15001,-0.90005 l -0.25001,-0.65003 c 0.955262,0.71155 3.449013,0.57575 2.703689,-2.67943 -0.311283,-1.35952 0.02071,-1.47936 0.02071,-1.47936 0,0 0.375756,-0.24143 1.175798,-0.0914 0.800039,0.15001 1.80009,0.30002 2.350119,0.50003 0.550026,0.20001 1.400071,0.45002 1.800092,0.60003 0.400019,0.15001 1.450073,0.50002 1.700086,0.70003 0.250013,0.20002 0.900046,0.40002 1.150059,0.55003 0.250013,0.15001 0.800039,0.45002 0.800039,0.45002 0,0 0.425022,-0.77504 0.675035,-0.92505 0.250012,-0.15 0.525028,-0.47501 0.525028,-0.47501 l 0.300016,0.075 0.200011,0.77504 -3e-6,0.97505 c 0,0 0.600031,-0.82504 0.850044,-1.27507 0.250013,-0.45002 0.350017,-0.80004 0.60003,-1.30006 0.250013,-0.50003 0.400021,-0.90005 0.400021,-1.35007 0,-0.45003 0.250013,-1.55008 0.150008,-2.30012 -0.100005,-0.75004 -0.100005,-0.90005 -0.250013,-1.20006 -0.150008,-0.30002 -0.150008,-0.55003 -0.250012,-0.75004 -0.100005,-0.20001 -0.20001,-0.50003 -0.20001,-0.50003 0,0 0.05,0.60003 -0.150008,1.10006 -0.200012,0.50003 -0.350017,1.05005 -0.350017,1.05005 0,0 0.150005,-0.95004 -0.35002,-2.50012 -0.500025,-1.55008 -0.350017,-1.70009 -0.350017,-1.70009 v -0.30001 c 0,0 -0.100005,0.75003 -0.700035,1.15005 -0.600032,0.40002 -1.450075,1.05006 -2.000102,1.15006 -0.550029,0.10001 -2.100109,0.45003 -2.500127,0.45003 h -1.750092 c -0.200009,0 -0.700034,-0.10001 -0.700034,-0.10001 0,0 0.750038,0.15001 1.350068,-0.70004 0.60003,-0.85004 0.550029,-0.90004 0.550029,-0.90004 0,0 -0.750038,0.20001 -1.200063,0.20001 h -1.650081 c -0.300017,0 -2.200114,0.55003 -2.550131,0.65003 -0.350018,0.10001 -2.150107,0.50003 -2.550127,1.05005 -0.40003,0.55003 -1.65009,1.55008 -1.75009,1.8001 -0.10001,0.25001 -0.15001,0.35001 -0.45003,1.10005 -0.30001,0.75004 -0.25001,1.15006 -0.35002,1.45008 -0.1,0.30001 -0.25001,0.35002 -0.25001,0.35002 z"
       id="path32085"
       sodipodi:nodetypes="csccsssscssccscssssscsccccsssssscscsccsssscscssssssscc" /><path
       style="opacity:0.99;fill:#fde0a4;fill-opacity:0.992157;fill-rule:nonzero;stroke:none;stroke-width:0.108535;stroke-dasharray:none;stroke-opacity:1;paint-order:fill markers stroke"
       d="m -99.321539,45.497833 v 0.70618 c 0,0 -0.09175,0.83457 0.734045,0.96296 0.825802,0.1284 1.238702,0.321 1.238702,0.321 l 0.09175,-1.32307 c 0,0 -0.734043,-0.21768 -1.2387,-0.41027 -0.504657,-0.1926 -0.550533,-0.44939 -0.550533,-0.44939 z"
       id="path32087"
       sodipodi:nodetypes="ccsccscc" /><path
       style="opacity:0.99;fill:#48a4df;fill-opacity:1;fill-rule:nonzero;stroke:#0055d4;stroke-width:0.1;stroke-dasharray:none;stroke-opacity:1;paint-order:fill markers stroke"
       d="m -101.77604,50.669363 c -0.20001,-0.30002 -1.50008,-1.50008 -1.55008,-1.8501 -0.05,-0.35001 -0.10001,-0.2 0.60003,-0.65003 0.70003,-0.45002 1.35007,-0.80004 1.75009,-0.85004 0.40002,-0.05 1.000048,-0.10001 1.000048,-0.10001 l -1.000048,0.05 c 0,0 0.35001,-0.80003 0.80004,-1.00005 0.45002,-0.20001 0.800038,-0.45002 0.800038,-0.45002 0,0 0.300016,0.45002 0.600032,0.80004 0.300014,0.35002 0.450022,0.70004 0.950048,0.55003 0.500025,-0.15001 0.650033,-0.45002 0.650033,-0.45002 0,0 1.20006,4.40022 0.950048,6.30032 -0.250013,1.90009 0.300016,1.80009 0,1.90009 -0.300014,0.10001 -2.050103,0.05 -2.050103,0.05 0,0 -1.100058,-0.25001 -1.300067,-0.25001 H -100.926 c -0.25001,0 -0.50003,0.25001 -0.75004,0 -0.25001,-0.25002 -0.80004,-0.90005 -0.85004,-1.9501 -0.05,-1.05006 -0.05,-1.15006 0.45002,-1.55008 0.50003,-0.40002 0.70004,-0.40002 0.70004,-0.40002 0,0 0.44144,-0.11465 0.99147,-0.41467 0.550027,-0.30001 1.408649,-1.48543 1.408649,-1.48543 -0.548972,1.05529 -1.329719,1.69338 -2.350119,1.9001 z"
       id="path32089"
       sodipodi:nodetypes="csssccscsscsscssssscsccc" /><path
       style="opacity:0.99;fill:#444960;fill-opacity:1;fill-rule:nonzero;stroke:none;stroke-width:0.1;stroke-dasharray:none;stroke-opacity:1;paint-order:fill markers stroke"
       d="m -103.30112,54.894573 c 0,0 0.50002,2.67514 0.52503,2.95016 0.025,0.27501 0.1,1.90009 0.025,2.0251 -0.075,0.12501 -0.50003,0.82504 -0.57503,0.95005 -0.075,0.125 -0.90005,1.9501 -1.02505,2.0251 -0.12501,0.075 -0.72504,1.07506 -0.72504,1.07506 0,0 0.55002,0.15 0.72504,0.15 0.175,0 1.32506,-0.125 1.65008,-0.17501 0.32501,-0.05 0.70003,-0.05 0.95005,-0.05 0.25001,0 0.55002,0.45002 0.65003,0.45002 0.10001,0 0,-0.37501 0.025,-0.62503 0.025,-0.25001 -0.025,-0.35001 0.20001,-0.52503 0.22501,-0.175 0.45002,-0.15 0.60003,-0.75003 0.15001,-0.60003 0.300016,-1.37507 0.35002,-1.60009 0.05,-0.22501 0.150008,-0.70003 -0.025,-1.15005 -0.17501,-0.45003 -0.22501,-1.05006 -0.32502,-1.17506 -0.1,-0.12501 -0.35002,-2.10011 -0.60003,-2.45013 -0.25001,-0.35002 -0.97505,-1.37507 -0.97505,-1.37507 z"
       id="path32091" /><path
       style="opacity:0.99;fill:#23283b;fill-opacity:1;fill-rule:nonzero;stroke:none;stroke-width:0.1;stroke-dasharray:none;stroke-opacity:1;paint-order:fill markers stroke"
       d="m -98.650885,57.394703 c 0,0 0.850043,1.55008 0.975051,1.62509 0.125005,0.075 0.60003,1.07505 0.60003,1.07505 0,0 0.05,0.85004 -0.05,1.37507 -0.100007,0.52503 -0.300016,1.52508 -0.300016,1.77509 0,0.25001 -0.250013,0.67504 -0.150009,0.67504 0.100005,0 1.000051,0.075 1.600081,0.075 0.600033,0 0.625033,0.15 1.475076,0.025 0.850043,-0.12501 1.100056,-0.1 1.250064,-0.15001 0.150008,-0.05 -0.05,0 -0.175009,-0.40002 -0.125005,-0.40001 -0.05,-0.075 -0.200009,-0.67503 -0.150008,-0.60003 -0.325017,-1.07506 -0.300016,-1.57508 0.025,-0.50003 -0.400021,-2.0251 -0.750038,-2.22512 -0.350018,-0.2 -0.500026,-0.62503 -0.700035,-0.77503 -0.200012,-0.15001 -1.475076,-1.42508 -1.475076,-1.42508 l -0.750038,-0.125 c 0,0 -0.650034,0.52502 -0.750038,0.57503 -0.100005,0.05 -0.300017,0.15 -0.300018,0.15 z"
       id="path32093" /><path
       style="opacity:0.99;fill:#474e61;fill-opacity:1;fill-rule:nonzero;stroke:none;stroke-width:0.1;stroke-dasharray:none;stroke-opacity:1;paint-order:fill markers stroke"
       d="m -102.32607,54.444553 6.175313,0.42502 c 0,0 0.450024,0.65004 0.100004,1.05006 -0.350017,0.40002 -0.700034,0.80004 -0.950047,1.00005 -0.250013,0.20001 -0.725038,0.55003 -1.025051,0.60003 -0.300017,0.05 -0.625034,0.125 -1.025054,0.075 -0.400019,-0.05 -0.900044,0.025 -1.275065,-0.1 -0.37502,-0.12501 -0.82504,-0.075 -1.00005,-0.60003 -0.17501,-0.52503 -0.32502,-1.35007 -0.45002,-1.52508 -0.12501,-0.17501 -0.67504,-0.95005 -0.67504,-0.95005 z"
       id="path32095" /><path
       style="opacity:0.99;fill:#47a3e3;fill-opacity:1;fill-rule:nonzero;stroke:#0055d4;stroke-width:0.1;stroke-dasharray:none;stroke-opacity:1;paint-order:fill markers stroke"
       d="m -105.05121,63.995043 c 0,0 3.00015,-0.20001 3.27517,-0.075 0.27501,0.125 1.15005,0.60003 1.25006,0.82504 0.10001,0.22501 0.35002,0.75004 0.47502,0.87504 0.125011,0.12501 -0.55002,0.25001 -0.72503,0.20001 -0.17501,-0.05 -0.90005,-0.05 -1.35007,-0.05 -0.45002,0 -1.07506,-0.05 -1.8251,-0.075 -0.75003,-0.025 -1.17506,-0.025 -1.37506,-0.025 -0.20002,0 -0.70004,0.12501 -0.60003,0 0.1,-0.12501 0.25001,-0.97505 0.45002,-1.40007 0.20001,-0.42502 0.42502,-0.27501 0.42502,-0.27501 z"
       id="path32097" /><path
       style="opacity:0.99;fill:#e3dedb;fill-opacity:1;fill-rule:nonzero;stroke:none;stroke-width:0.1;stroke-dasharray:none;stroke-opacity:1;paint-order:fill markers stroke"
       d="m -105.87625,65.745133 c -0.12501,-0.025 -0.27502,0.27501 -0.27502,0.27501 0,0 0.05,0.40002 0.20001,0.45002 0.15001,0.05 0.17501,0.05 0.87505,0.12501 0.70003,0.075 1.30006,0.10001 1.82509,0.10001 0.52503,0 1.80009,-0.075 2.0501,-0.10001 0.25002,-0.025 0.85005,-0.05 1.07506,-0.15001 0.225012,-0.1 0.40002,-0.17501 0.40002,-0.35001 0,-0.17501 -0.125005,-0.45003 -0.250012,-0.45003 -0.125008,0 -5.900298,0.10001 -5.900298,0.10001 z"
       id="path32099" /><path
       style="opacity:0.99;fill:#47a3e3;fill-opacity:1;fill-rule:nonzero;stroke:#0055d4;stroke-width:0.1;stroke-dasharray:none;stroke-opacity:1;paint-order:fill markers stroke"
       d="m -97.166568,63.712183 c 0,0 3.000153,-0.20001 3.275169,-0.075 0.275013,0.125 1.150056,0.60003 1.250063,0.82504 0.100005,0.22501 0.350018,0.75004 0.475023,0.87504 0.125007,0.12501 -0.550027,0.25001 -0.725035,0.20001 -0.175012,-0.05 -0.900047,-0.05 -1.350071,-0.05 -0.450022,0 -1.075055,-0.05 -1.825093,-0.075 -0.750039,-0.025 -1.17506,-0.025 -1.375069,-0.025 -0.200012,0 -0.700037,0.12501 -0.60003,0 0.100004,-0.12501 0.250013,-0.97505 0.450022,-1.40007 0.200009,-0.42502 0.425021,-0.27501 0.425021,-0.27501 z"
       id="path32101" /><path
       style="opacity:0.99;fill:#e3dedb;fill-opacity:1;fill-rule:nonzero;stroke:none;stroke-width:0.1;stroke-dasharray:none;stroke-opacity:1;paint-order:fill markers stroke"
       d="m -97.99161,65.462273 c -0.125005,-0.025 -0.275013,0.27501 -0.275013,0.27501 0,0 0.05,0.40002 0.200009,0.45002 0.150008,0.05 0.175008,0.05 0.875046,0.12501 0.700034,0.075 1.300064,0.10001 1.825093,0.10001 0.525026,0 1.80009,-0.075 2.050103,-0.10001 0.250012,-0.025 0.850045,-0.05 1.075055,-0.15001 0.225012,-0.1 0.40002,-0.17501 0.40002,-0.35001 0,-0.17501 -0.125005,-0.45003 -0.250012,-0.45003 -0.125005,0 -5.900301,0.10001 -5.900301,0.10001 z"
       id="path32103" /><ellipse
       style="opacity:0.99;fill:#000000;fill-opacity:1;fill-rule:nonzero;stroke:#000000;stroke-width:0.1;stroke-dasharray:none;stroke-opacity:1;paint-order:fill markers stroke"
       id="ellipse32105"
       cx="-93.767143"
       cy="40.183392"
       rx="0.77785712"
       ry="1.3966072" /><ellipse
       style="opacity:0.99;fill:#000000;fill-opacity:1;fill-rule:nonzero;stroke:#000000;stroke-width:0.0792771;stroke-dasharray:none;stroke-opacity:1;paint-order:fill markers stroke"
       id="ellipse32107"
       cx="-88.857292"
       cy="40.094173"
       rx="0.56723642"
       ry="1.203665" /><ellipse
       style="opacity:0.99;fill:#ffffff;fill-opacity:1;fill-rule:nonzero;stroke:none;stroke-width:0.1;stroke-dasharray:none;stroke-opacity:1;paint-order:fill markers stroke"
       id="ellipse32109"
       cx="-93.722946"
       cy="39.723751"
       rx="0.53919643"
       ry="0.68946427" /><ellipse
       style="opacity:0.99;fill:#ffffff;fill-opacity:1;fill-rule:nonzero;stroke:none;stroke-width:0.0775845;stroke-dasharray:none;stroke-opacity:1;paint-order:fill markers stroke"
       id="ellipse32111"
       cx="-88.870186"
       cy="39.564632"
       rx="0.40013629"
       ry="0.55924344" /><path
       style="opacity:0.99;fill:#000000;fill-opacity:1;fill-rule:nonzero;stroke:#000000;stroke-width:0.1;stroke-dasharray:none;stroke-opacity:1;paint-order:fill markers stroke"
       d="m -95.941607,36.647673 c 0.335891,-0.28286 0.848572,-0.76018 1.11375,-0.7425 0.265179,0.0177 0.636429,0.053 0.919285,0.0884 0.282858,0.0354 0.689464,0.30054 0.830894,0.38893 0.141428,0.0884 0.371251,0.53036 0.548035,0.65411 0.176786,0.12375 0.335893,0.51268 0.37125,0.54804 0.03536,0.0354 0.159107,0.22982 0.141427,0.26517 -0.01767,0.0354 -0.318214,-0.22098 -0.459642,-0.25634 -0.141427,-0.0353 -0.609909,-0.30937 -0.715981,-0.41544 -0.106071,-0.10607 -0.07071,-0.22982 -0.291698,-0.32705 -0.220982,-0.0972 -0.822052,-0.18563 -0.892767,-0.20331 -0.07071,-0.0177 -0.353571,-0.0177 -0.574553,-0.0177 -0.220983,0 -0.742501,0.0354 -0.804376,0.053 -0.06187,0.0177 -0.247499,0.053 -0.247499,0.053 z"
       id="path32113" /><path
       style="opacity:0.99;fill:#000000;fill-opacity:1;fill-rule:nonzero;stroke:#000000;stroke-width:0.1;stroke-dasharray:none;stroke-opacity:1;paint-order:fill markers stroke"
       d="m -89.488927,38.008923 c 0.03536,-0.0884 0.194463,-0.53036 0.406606,-0.65411 0.212143,-0.12375 0.583393,-0.37125 0.671785,-0.4066 0.08839,-0.0354 0.282858,0 0.441965,0.0707 0.159107,0.0707 0.318215,0.12375 0.265179,0.21214 -0.05304,0.0884 -0.159107,0.0884 -0.406609,0.14143 -0.247499,0.053 -0.494999,0.14143 -0.583393,0.26518 -0.08839,0.12375 -0.335891,0.2475 -0.441963,0.40661 -0.106071,0.1591 -0.318214,0.2475 -0.318214,0.17678 0,-0.0707 -0.03536,-0.21214 -0.03536,-0.21214 z"
       id="path32115" /><path
       style="opacity:0.99;fill:none;fill-opacity:1;fill-rule:nonzero;stroke:#000000;stroke-width:0.1;stroke-dasharray:none;stroke-opacity:1;paint-order:fill markers stroke"
       d="m -90.350461,41.306383 c -0.01249,0.075 -0.025,0.27501 -0.01249,0.36252 0.01249,0.0875 0.08751,0.21251 0.237513,0.23751 0.150009,0.025 0.262512,0.075 0.350018,0.12501 0.08751,0.05 0.337518,0.25001 0.350017,0.36252 0.01252,0.1125 -0.075,0.38752 -0.112506,0.46252 -0.0375,0.075 0.0375,0.23751 -0.112504,0.23751 -0.150008,0 -0.387522,-0.0625 -0.462526,-0.0625 -0.075,0 -0.362516,-0.0375 -0.362516,-0.0375 l 0.137507,-0.0125 0.21251,0.0625"
       id="path32117" /><path
       style="opacity:0.99;fill:none;fill-opacity:1;fill-rule:nonzero;stroke:#000000;stroke-width:0.1;stroke-dasharray:none;stroke-opacity:1;paint-order:fill markers stroke"
       d="m -91.31301,44.844063 c -0.075,0.025 -1.100055,0.15001 -1.36257,0.075 -0.262514,-0.075 -0.800039,-0.33752 -0.862544,-0.42503 -0.0625,-0.0875 -0.437523,-0.28751 -0.500025,-0.41252 -0.0625,-0.125 -0.075,-0.37502 -0.075,-0.37502 0,0 -0.237512,0.31252 -0.287515,0.33752 -0.05,0.025 -0.175009,0.025 -0.175009,0.025"
       id="path32119" /><path
       style="opacity:0.99;fill:#fde0a4;fill-opacity:0.992157;fill-rule:nonzero;stroke:none;stroke-width:0.1;stroke-dasharray:none;stroke-opacity:1;paint-order:fill markers stroke"
       d="m -103.37613,48.944273 1.9001,2.0251 c 0,0 -0.97505,0.52503 -1.02505,0.62503 -0.05,0.10001 -0.075,1.12506 -0.025,1.25007 0.05,0.12501 0.30001,1.02505 0.42502,1.25006 0.12501,0.22501 0.40002,0.92505 0.40002,0.92505 0,0 -0.05,-0.37502 0.37502,-0.22501 0.42502,0.15001 0.47502,0.075 0.52503,0.17501 0.05,0.1 0.62503,0.70003 0.62503,0.70003 l 0.275012,0.85005 c 0,0 0.250013,0.27501 0.025,0.42502 -0.225012,0.15001 -0.275012,0.35002 -0.350022,0.22501 -0.075,-0.12501 -0.2,-0.57503 -0.2,-0.57503 l 0.22501,0.87505 0.275011,0.40002 c 0,0 0.150008,0.42502 -0.250011,0.55003 -0.40002,0.125 -0.77504,-0.05 -0.77504,-0.05 0,0 -0.075,0 -0.35002,0.20001 -0.27501,0.20001 -0.50003,0.52503 -0.67503,0.35002 -0.17501,-0.17501 -0.37502,-0.25001 -0.52503,-0.27502 -0.15001,-0.025 -0.35002,0.15001 -0.52503,0.15001 -0.17501,0 -0.50002,0.15001 -0.65003,-0.20001 -0.15001,-0.35002 -0.20001,-0.47502 -0.35002,-0.82504 -0.15001,-0.35002 -0.22501,-0.32502 -0.20001,-0.70004 0.025,-0.37501 0.12501,-0.67503 0.20001,-0.87504 0.075,-0.20001 0.10001,-0.25001 0.12501,-0.50002 0.025,-0.25002 -0.52503,-0.50003 -0.62504,-0.97505 -0.1,-0.47503 -0.25001,-0.77504 -0.40001,-1.12506 -0.15001,-0.35002 -0.30002,-0.55003 -0.32502,-0.97505 -0.025,-0.42502 -0.12501,-0.67504 0.025,-1.22506 0.15001,-0.55003 0.05,-0.45003 0.45002,-1.00006 0.40002,-0.55002 0.57503,-0.72503 0.80004,-0.90004 0.22502,-0.17501 0.60003,-0.55003 0.60003,-0.55003 z"
       id="path32121" /><path
       style="opacity:0.99;fill:#fde0a4;fill-opacity:0.992157;fill-rule:nonzero;stroke:none;stroke-width:0.1;stroke-dasharray:none;stroke-opacity:1;paint-order:fill markers stroke"
       d="m -95.875741,54.294543 c 0,0.10001 -0.175012,0.15001 -0.300017,0.52503 -0.125008,0.37502 -0.100004,0.55003 -0.125008,0.72504 -0.025,0.17501 -0.350017,0.72504 -0.350017,0.72504 0,0 -0.700035,0.37501 -0.275014,0.67503 0.425024,0.30001 0.625031,0.50002 0.750039,0.50002 0.125005,0 0.350017,-0.1 0.525026,-0.32501 0.175009,-0.22501 0.375021,-0.40002 0.525029,-0.72504 0.150005,-0.32502 0.375017,-0.92505 0.375017,-0.92505 0,0 -0.05,0.45003 0.175009,0.62504 0.225012,0.17501 0,0.27501 0.450025,0.15 0.450021,-0.125 0.800039,-0.67503 0.825042,-0.80004 0.025,-0.125 0.225009,-0.47502 0.225009,-0.72503 0,-0.25002 -0.150005,-0.50003 -0.375017,-0.62504 -0.225013,-0.125 -0.750038,-0.1 -1.000051,-0.075 -0.250013,0.025 -1.225063,0.10001 -1.225063,0.10001 z"
       id="path32123"
       sodipodi:nodetypes="csscsssscsssssscc" /><path
       style="opacity:0.99;fill:#fde0a4;fill-opacity:0.992157;fill-rule:nonzero;stroke:none;stroke-width:0.1;stroke-dasharray:none;stroke-opacity:1;paint-order:fill markers stroke"
       d="m -95.725736,57.219693 c 0,0 -0.150005,0.42502 -0.150005,0.57503 0,0.15001 0.375017,0.42502 0.62503,0.52503 0.250013,0.10001 0.825042,0.20001 1.100055,0.025 0.275016,-0.17501 0.475025,-0.55003 0.55003,-0.67503 0.075,-0.12501 0.100004,-0.17501 0.225012,-0.17501 0.125005,0 0.425021,-0.27502 0.425021,-0.42503 0,-0.15 0,-0.27501 0,-0.40002 0,-0.125 0.300014,-0.35001 0.300014,-0.35001 0,0 0.150008,-0.22501 0.150008,-0.50003 0,-0.27501 0.250013,-0.45002 -0.075,-0.50002 -0.325017,-0.05 -0.625031,-0.30002 -0.625031,-0.30002 0,0 -1.800092,-0.075 -1.975101,0.10001 -0.175009,0.175 -0.550029,2.1001 -0.550029,2.1001 z"
       id="path32125" /><path
       style="opacity:0.99;fill:#fde0a4;fill-opacity:1;fill-rule:nonzero;stroke:none;stroke-width:0.1;stroke-dasharray:none;stroke-opacity:1;paint-order:fill markers stroke"
       d="m -101.026,40.768853 c 0,0 0.71779,-3.53779 0.541,-3.64386 -0.17679,-0.10607 1.025358,-0.17678 1.308214,-0.56571 0.282858,-0.38893 0.707144,-0.81322 0.813215,-1.27286 0.106072,-0.45964 0.212143,-1.09607 0.212143,-1.44964 0,-0.35358 -0.106071,-1.30822 -0.106071,-1.30822 v -0.14143 c 0,0 4.348927,0.21215 6.611783,1.41429 2.262857,1.20214 2.368929,1.27286 2.368929,1.27286 0,0 0.990002,-0.77786 1.060714,-0.91929 0.07072,-0.14143 0.459645,-0.35357 0.459645,-0.35357 l 0.459642,0.99 c 0,0 0.141428,4.31357 -0.03536,4.98536 -0.176787,0.67178 -0.106071,0.31821 -0.14143,0.495 -0.03536,0.17678 -0.141428,1.20214 -0.141428,1.52035 0,0.31822 0.07071,1.13143 0.03536,1.44965 -0.03536,0.31821 -0.565713,1.87393 -0.565713,1.87393 0,0 -1.025359,0.99 -1.272858,1.09607 -0.247499,0.10607 -1.485,0.63643 -1.661784,0.70714 -0.176787,0.0707 -0.707144,0.14143 -0.883931,0.14143 -0.176784,0 -1.308214,0 -1.661784,0 -0.353571,0 -1.308214,-0.14143 -1.626428,-0.21214 -0.318215,-0.0707 -1.096071,-0.2475 -1.555716,-0.31822 -0.459642,-0.0707 -1.272857,-0.38893 -1.626428,-0.56571 -0.353571,-0.17679 -1.025356,-0.45965 -1.166786,-0.53036 -0.141428,-0.0707 -0.777858,-0.67178 -0.989998,-0.77786 -0.21214,-0.10607 -0.70715,-0.495 -0.81322,-0.63642 -0.10607,-0.14143 -0.495,-0.49501 -0.495,-0.49501 v -0.45964 c 0,0 -0.45964,0.495 -0.99,0.21215 -0.53035,-0.28286 -1.30821,-0.35358 -1.59107,-0.70715 -0.28286,-0.35357 -0.60107,-1.13143 -0.60107,-1.27286 0,-0.14142 -0.0354,-0.42428 0,-0.70714 0.0354,-0.28286 0.14143,-0.7425 0.14143,-0.7425 0,0 0.21214,-0.35357 0.63643,-0.60107 0.42428,-0.2475 0.56571,-0.38893 0.77786,-0.42429 0.21214,-0.0354 0.84857,0.0354 0.84857,0.0354 0,0 0.495,0.17679 0.60107,0.35357 0.10607,0.17679 0.31821,0.45965 0.42428,0.60107 0.10607,0.14143 0.35357,0.45965 0.42429,0.60108 0.0707,0.14142 0.2015,0.35564 0.2015,0.35564 z"
       id="path37522" /><path
       style="opacity:0.99;fill:#ff6600;fill-opacity:1;fill-rule:nonzero;stroke:none;stroke-width:0.1;stroke-dasharray:none;stroke-opacity:1;paint-order:fill markers stroke"
       d="m -103.77615,32.368433 c 0,0 -3.65018,1.85009 -2.70013,4.85024 0.95004,3.00015 1.40007,3.15016 1.40007,3.15016 l 0.15001,-0.05 c 0,0 0.55002,-1.00005 0.80004,-1.10006 0.25001,-0.1 0.60003,-0.30001 0.90004,-0.25001 0.30002,0.05 1.20006,0.35002 1.30007,0.60003 0.1,0.25002 0.50002,0.65003 0.65003,0.85005 0.15001,0.20001 0.35002,0.30001 0.35002,0.30001 0,0 0.25001,-0.90004 0.40002,-1.35007 0.15001,-0.45002 0.20001,-0.65003 0.15001,-1.05005 -0.05,-0.40002 -0.15001,-0.90005 -0.15001,-0.90005 l -0.25001,-0.65003 c 0.955262,0.71155 3.449013,0.57575 2.703689,-2.67943 -0.311283,-1.35952 0.02071,-1.47936 0.02071,-1.47936 0,0 0.375756,-0.24143 1.175798,-0.0914 0.800039,0.15001 1.80009,0.30002 2.350119,0.50003 0.550026,0.20001 1.400071,0.45002 1.800092,0.60003 0.400019,0.15001 1.450073,0.50002 1.700086,0.70003 0.250013,0.20002 0.900046,0.40002 1.150059,0.55003 0.250013,0.15001 0.800039,0.45002 0.800039,0.45002 0,0 0.425022,-0.77504 0.675035,-0.92505 0.250012,-0.15 0.525028,-0.47501 0.525028,-0.47501 l 0.300016,0.075 0.200011,0.77504 -3e-6,0.97505 c 0,0 0.600031,-0.82504 0.850044,-1.27507 0.250013,-0.45002 0.350017,-0.80004 0.60003,-1.30006 0.250013,-0.50003 0.400021,-0.90005 0.400021,-1.35007 0,-0.45003 0.250013,-1.55008 0.150008,-2.30012 -0.100005,-0.75004 -0.100005,-0.90005 -0.250013,-1.20006 -0.150008,-0.30002 -0.150008,-0.55003 -0.250012,-0.75004 -0.100005,-0.20001 -0.20001,-0.50003 -0.20001,-0.50003 0,0 0.05,0.60003 -0.150008,1.10006 -0.200012,0.50003 -0.350017,1.05005 -0.350017,1.05005 0,0 0.150005,-0.95004 -0.35002,-2.50012 -0.500025,-1.55008 -0.350017,-1.70009 -0.350017,-1.70009 v -0.30001 c 0,0 -0.100005,0.75003 -0.700035,1.15005 -0.600032,0.40002 -1.450075,1.05006 -2.000102,1.15006 -0.550029,0.10001 -2.100109,0.45003 -2.500127,0.45003 h -1.750092 c -0.200009,0 -0.700034,-0.10001 -0.700034,-0.10001 0,0 0.750038,0.15001 1.350068,-0.70004 0.60003,-0.85004 0.550029,-0.90004 0.550029,-0.90004 0,0 -0.750038,0.20001 -1.200063,0.20001 h -1.650081 c -0.300017,0 -2.200114,0.55003 -2.550131,0.65003 -0.350018,0.10001 -2.150107,0.50003 -2.550127,1.05005 -0.40003,0.55003 -1.65009,1.55008 -1.75009,1.8001 -0.10001,0.25001 -0.15001,0.35001 -0.45003,1.10005 -0.30001,0.75004 -0.25001,1.15006 -0.35002,1.45008 -0.1,0.30001 -0.25001,0.35002 -0.25001,0.35002 z"
       id="path37524"
       sodipodi:nodetypes="csccsssscssccscssssscsccccsssssscscsccsssscscssssssscc" /><path
       style="opacity:0.99;fill:#fde0a4;fill-opacity:0.992157;fill-rule:nonzero;stroke:none;stroke-width:0.108535;stroke-dasharray:none;stroke-opacity:1;paint-order:fill markers stroke"
       d="m -99.321539,45.497833 v 0.70618 c 0,0 -0.09175,0.83457 0.734045,0.96296 0.825802,0.1284 1.238702,0.321 1.238702,0.321 l 0.09175,-1.32307 c 0,0 -0.734043,-0.21768 -1.2387,-0.41027 -0.504657,-0.1926 -0.550533,-0.44939 -0.550533,-0.44939 z"
       id="path37526"
       sodipodi:nodetypes="ccsccscc" /><path
       style="opacity:0.99;fill:#48a4df;fill-opacity:1;fill-rule:nonzero;stroke:#0055d4;stroke-width:0.1;stroke-dasharray:none;stroke-opacity:1;paint-order:fill markers stroke"
       d="m -101.77604,50.669363 c -0.20001,-0.30002 -1.50008,-1.50008 -1.55008,-1.8501 -0.05,-0.35001 -0.10001,-0.2 0.60003,-0.65003 0.70003,-0.45002 1.35007,-0.80004 1.75009,-0.85004 0.40002,-0.05 1.000048,-0.10001 1.000048,-0.10001 l -1.000048,0.05 c 0,0 0.35001,-0.80003 0.80004,-1.00005 0.45002,-0.20001 0.800038,-0.45002 0.800038,-0.45002 0,0 0.300016,0.45002 0.600032,0.80004 0.300014,0.35002 0.450022,0.70004 0.950048,0.55003 0.500025,-0.15001 0.650033,-0.45002 0.650033,-0.45002 0,0 1.20006,4.40022 0.950048,6.30032 -0.250013,1.90009 0.300016,1.80009 0,1.90009 -0.300014,0.10001 -2.050103,0.05 -2.050103,0.05 0,0 -1.100058,-0.25001 -1.300067,-0.25001 H -100.926 c -0.25001,0 -0.50003,0.25001 -0.75004,0 -0.25001,-0.25002 -0.80004,-0.90005 -0.85004,-1.9501 -0.05,-1.05006 -0.05,-1.15006 0.45002,-1.55008 0.50003,-0.40002 0.70004,-0.40002 0.70004,-0.40002 0,0 0.44144,-0.11465 0.99147,-0.41467 0.550027,-0.30001 1.408649,-1.48543 1.408649,-1.48543 -0.548972,1.05529 -1.329719,1.69338 -2.350119,1.9001 z"
       id="path37528"
       sodipodi:nodetypes="csssccscsscsscssssscsccc" /><path
       style="opacity:0.99;fill:#444960;fill-opacity:1;fill-rule:nonzero;stroke:none;stroke-width:0.1;stroke-dasharray:none;stroke-opacity:1;paint-order:fill markers stroke"
       d="m -103.30112,54.894573 c 0,0 0.50002,2.67514 0.52503,2.95016 0.025,0.27501 0.1,1.90009 0.025,2.0251 -0.075,0.12501 -0.50003,0.82504 -0.57503,0.95005 -0.075,0.125 -0.90005,1.9501 -1.02505,2.0251 -0.12501,0.075 -0.72504,1.07506 -0.72504,1.07506 0,0 0.55002,0.15 0.72504,0.15 0.175,0 1.32506,-0.125 1.65008,-0.17501 0.32501,-0.05 0.70003,-0.05 0.95005,-0.05 0.25001,0 0.55002,0.45002 0.65003,0.45002 0.10001,0 0,-0.37501 0.025,-0.62503 0.025,-0.25001 -0.025,-0.35001 0.20001,-0.52503 0.22501,-0.175 0.45002,-0.15 0.60003,-0.75003 0.15001,-0.60003 0.300016,-1.37507 0.35002,-1.60009 0.05,-0.22501 0.150008,-0.70003 -0.025,-1.15005 -0.17501,-0.45003 -0.22501,-1.05006 -0.32502,-1.17506 -0.1,-0.12501 -0.35002,-2.10011 -0.60003,-2.45013 -0.25001,-0.35002 -0.97505,-1.37507 -0.97505,-1.37507 z"
       id="path37530" /><path
       style="opacity:0.99;fill:#23283b;fill-opacity:1;fill-rule:nonzero;stroke:none;stroke-width:0.1;stroke-dasharray:none;stroke-opacity:1;paint-order:fill markers stroke"
       d="m -98.650885,57.394703 c 0,0 0.850043,1.55008 0.975051,1.62509 0.125005,0.075 0.60003,1.07505 0.60003,1.07505 0,0 0.05,0.85004 -0.05,1.37507 -0.100007,0.52503 -0.300016,1.52508 -0.300016,1.77509 0,0.25001 -0.250013,0.67504 -0.150009,0.67504 0.100005,0 1.000051,0.075 1.600081,0.075 0.600033,0 0.625033,0.15 1.475076,0.025 0.850043,-0.12501 1.100056,-0.1 1.250064,-0.15001 0.150008,-0.05 -0.05,0 -0.175009,-0.40002 -0.125005,-0.40001 -0.05,-0.075 -0.200009,-0.67503 -0.150008,-0.60003 -0.325017,-1.07506 -0.300016,-1.57508 0.025,-0.50003 -0.400021,-2.0251 -0.750038,-2.22512 -0.350018,-0.2 -0.500026,-0.62503 -0.700035,-0.77503 -0.200012,-0.15001 -1.475076,-1.42508 -1.475076,-1.42508 l -0.750038,-0.125 c 0,0 -0.650034,0.52502 -0.750038,0.57503 -0.100005,0.05 -0.300017,0.15 -0.300018,0.15 z"
       id="path37532" /><path
       style="opacity:0.99;fill:#474e61;fill-opacity:1;fill-rule:nonzero;stroke:none;stroke-width:0.1;stroke-dasharray:none;stroke-opacity:1;paint-order:fill markers stroke"
       d="m -102.32607,54.444553 6.175313,0.42502 c 0,0 0.450024,0.65004 0.100004,1.05006 -0.350017,0.40002 -0.700034,0.80004 -0.950047,1.00005 -0.250013,0.20001 -0.725038,0.55003 -1.025051,0.60003 -0.300017,0.05 -0.625034,0.125 -1.025054,0.075 -0.400019,-0.05 -0.900044,0.025 -1.275065,-0.1 -0.37502,-0.12501 -0.82504,-0.075 -1.00005,-0.60003 -0.17501,-0.52503 -0.32502,-1.35007 -0.45002,-1.52508 -0.12501,-0.17501 -0.67504,-0.95005 -0.67504,-0.95005 z"
       id="path37534" /><path
       style="opacity:0.99;fill:#47a3e3;fill-opacity:1;fill-rule:nonzero;stroke:#0055d4;stroke-width:0.1;stroke-dasharray:none;stroke-opacity:1;paint-order:fill markers stroke"
       d="m -105.05121,63.995043 c 0,0 3.00015,-0.20001 3.27517,-0.075 0.27501,0.125 1.15005,0.60003 1.25006,0.82504 0.10001,0.22501 0.35002,0.75004 0.47502,0.87504 0.125011,0.12501 -0.55002,0.25001 -0.72503,0.20001 -0.17501,-0.05 -0.90005,-0.05 -1.35007,-0.05 -0.45002,0 -1.07506,-0.05 -1.8251,-0.075 -0.75003,-0.025 -1.17506,-0.025 -1.37506,-0.025 -0.20002,0 -0.70004,0.12501 -0.60003,0 0.1,-0.12501 0.25001,-0.97505 0.45002,-1.40007 0.20001,-0.42502 0.42502,-0.27501 0.42502,-0.27501 z"
       id="path37536" /><path
       style="opacity:0.99;fill:#47a3e3;fill-opacity:1;fill-rule:nonzero;stroke:#0055d4;stroke-width:0.1;stroke-dasharray:none;stroke-opacity:1;paint-order:fill markers stroke"
       d="m -97.166568,63.712183 c 0,0 3.000153,-0.20001 3.275169,-0.075 0.275013,0.125 1.150056,0.60003 1.250063,0.82504 0.100005,0.22501 0.350018,0.75004 0.475023,0.87504 0.125007,0.12501 -0.550027,0.25001 -0.725035,0.20001 -0.175012,-0.05 -0.900047,-0.05 -1.350071,-0.05 -0.450022,0 -1.075055,-0.05 -1.825093,-0.075 -0.750039,-0.025 -1.17506,-0.025 -1.375069,-0.025 -0.200012,0 -0.700037,0.12501 -0.60003,0 0.100004,-0.12501 0.250013,-0.97505 0.450022,-1.40007 0.200009,-0.42502 0.425021,-0.27501 0.425021,-0.27501 z"
       id="path37538" /><path
       style="opacity:0.99;fill:#e3dedb;fill-opacity:1;fill-rule:nonzero;stroke:none;stroke-width:0.1;stroke-dasharray:none;stroke-opacity:1;paint-order:fill markers stroke"
       d="m -97.99161,65.462273 c -0.125005,-0.025 -0.275013,0.27501 -0.275013,0.27501 0,0 0.05,0.40002 0.200009,0.45002 0.150008,0.05 0.175008,0.05 0.875046,0.12501 0.700034,0.075 1.300064,0.10001 1.825093,0.10001 0.525026,0 1.80009,-0.075 2.050103,-0.10001 0.250012,-0.025 0.850045,-0.05 1.075055,-0.15001 0.225012,-0.1 0.40002,-0.17501 0.40002,-0.35001 0,-0.17501 -0.125005,-0.45003 -0.250012,-0.45003 -0.125005,0 -5.900301,0.10001 -5.900301,0.10001 z"
       id="path37540" /><ellipse
       style="opacity:0.99;fill:#000000;fill-opacity:1;fill-rule:nonzero;stroke:#000000;stroke-width:0.1;stroke-dasharray:none;stroke-opacity:1;paint-order:fill markers stroke"
       id="ellipse37542"
       cx="-93.767143"
       cy="40.183392"
       rx="0.77785712"
       ry="1.3966072" /><ellipse
       style="opacity:0.99;fill:#000000;fill-opacity:1;fill-rule:nonzero;stroke:#000000;stroke-width:0.0792771;stroke-dasharray:none;stroke-opacity:1;paint-order:fill markers stroke"
       id="ellipse37544"
       cx="-88.857292"
       cy="40.094173"
       rx="0.56723642"
       ry="1.203665" /><ellipse
       style="opacity:0.99;fill:#ffffff;fill-opacity:1;fill-rule:nonzero;stroke:none;stroke-width:0.1;stroke-dasharray:none;stroke-opacity:1;paint-order:fill markers stroke"
       id="ellipse37546"
       cx="-93.722946"
       cy="39.723751"
       rx="0.53919643"
       ry="0.68946427" /><ellipse
       style="opacity:0.99;fill:#ffffff;fill-opacity:1;fill-rule:nonzero;stroke:none;stroke-width:0.0775845;stroke-dasharray:none;stroke-opacity:1;paint-order:fill markers stroke"
       id="ellipse37548"
       cx="-88.870186"
       cy="39.564632"
       rx="0.40013629"
       ry="0.55924344" /><path
       style="opacity:0.99;fill:#000000;fill-opacity:1;fill-rule:nonzero;stroke:#000000;stroke-width:0.1;stroke-dasharray:none;stroke-opacity:1;paint-order:fill markers stroke"
       d="m -95.941607,36.647673 c 0.335891,-0.28286 0.848572,-0.76018 1.11375,-0.7425 0.265179,0.0177 0.636429,0.053 0.919285,0.0884 0.282858,0.0354 0.689464,0.30054 0.830894,0.38893 0.141428,0.0884 0.371251,0.53036 0.548035,0.65411 0.176786,0.12375 0.335893,0.51268 0.37125,0.54804 0.03536,0.0354 0.159107,0.22982 0.141427,0.26517 -0.01767,0.0354 -0.318214,-0.22098 -0.459642,-0.25634 -0.141427,-0.0353 -0.609909,-0.30937 -0.715981,-0.41544 -0.106071,-0.10607 -0.07071,-0.22982 -0.291698,-0.32705 -0.220982,-0.0972 -0.822052,-0.18563 -0.892767,-0.20331 -0.07071,-0.0177 -0.353571,-0.0177 -0.574553,-0.0177 -0.220983,0 -0.742501,0.0354 -0.804376,0.053 -0.06187,0.0177 -0.247499,0.053 -0.247499,0.053 z"
       id="path37550" /><path
       style="opacity:0.99;fill:#000000;fill-opacity:1;fill-rule:nonzero;stroke:#000000;stroke-width:0.1;stroke-dasharray:none;stroke-opacity:1;paint-order:fill markers stroke"
       d="m -89.488927,38.008923 c 0.03536,-0.0884 0.194463,-0.53036 0.406606,-0.65411 0.212143,-0.12375 0.583393,-0.37125 0.671785,-0.4066 0.08839,-0.0354 0.282858,0 0.441965,0.0707 0.159107,0.0707 0.318215,0.12375 0.265179,0.21214 -0.05304,0.0884 -0.159107,0.0884 -0.406609,0.14143 -0.247499,0.053 -0.494999,0.14143 -0.583393,0.26518 -0.08839,0.12375 -0.335891,0.2475 -0.441963,0.40661 -0.106071,0.1591 -0.318214,0.2475 -0.318214,0.17678 0,-0.0707 -0.03536,-0.21214 -0.03536,-0.21214 z"
       id="path37552" /><path
       style="opacity:0.99;fill:none;fill-opacity:1;fill-rule:nonzero;stroke:#000000;stroke-width:0.1;stroke-dasharray:none;stroke-opacity:1;paint-order:fill markers stroke"
       d="m -90.350461,41.306383 c -0.01249,0.075 -0.025,0.27501 -0.01249,0.36252 0.01249,0.0875 0.08751,0.21251 0.237513,0.23751 0.150009,0.025 0.262512,0.075 0.350018,0.12501 0.08751,0.05 0.337518,0.25001 0.350017,0.36252 0.01252,0.1125 -0.075,0.38752 -0.112506,0.46252 -0.0375,0.075 0.0375,0.23751 -0.112504,0.23751 -0.150008,0 -0.387522,-0.0625 -0.462526,-0.0625 -0.075,0 -0.362516,-0.0375 -0.362516,-0.0375 l 0.137507,-0.0125 0.21251,0.0625"
       id="path37554" /><path
       style="opacity:0.99;fill:none;fill-opacity:1;fill-rule:nonzero;stroke:#000000;stroke-width:0.1;stroke-dasharray:none;stroke-opacity:1;paint-order:fill markers stroke"
       d="m -91.31301,44.844063 c -0.075,0.025 -1.100055,0.15001 -1.36257,0.075 -0.262514,-0.075 -0.800039,-0.33752 -0.862544,-0.42503 -0.0625,-0.0875 -0.437523,-0.28751 -0.500025,-0.41252 -0.0625,-0.125 -0.075,-0.37502 -0.075,-0.37502 0,0 -0.237512,0.31252 -0.287515,0.33752 -0.05,0.025 -0.175009,0.025 -0.175009,0.025"
       id="path37556" /><path
       style="opacity:0.99;fill:#fde0a4;fill-opacity:0.992157;fill-rule:nonzero;stroke:none;stroke-width:0.1;stroke-dasharray:none;stroke-opacity:1;paint-order:fill markers stroke"
       d="m -103.37613,48.944273 1.9001,2.0251 c 0,0 -0.97505,0.52503 -1.02505,0.62503 -0.05,0.10001 -0.075,1.12506 -0.025,1.25007 0.05,0.12501 0.30001,1.02505 0.42502,1.25006 0.12501,0.22501 0.40002,0.92505 0.40002,0.92505 0,0 -0.05,-0.37502 0.37502,-0.22501 0.42502,0.15001 0.47502,0.075 0.52503,0.17501 0.05,0.1 0.62503,0.70003 0.62503,0.70003 l 0.275012,0.85005 c 0,0 0.250013,0.27501 0.025,0.42502 -0.225012,0.15001 -0.275012,0.35002 -0.350022,0.22501 -0.075,-0.12501 -0.2,-0.57503 -0.2,-0.57503 l 0.22501,0.87505 0.275011,0.40002 c 0,0 0.150008,0.42502 -0.250011,0.55003 -0.40002,0.125 -0.77504,-0.05 -0.77504,-0.05 0,0 -0.075,0 -0.35002,0.20001 -0.27501,0.20001 -0.50003,0.52503 -0.67503,0.35002 -0.17501,-0.17501 -0.37502,-0.25001 -0.52503,-0.27502 -0.15001,-0.025 -0.35002,0.15001 -0.52503,0.15001 -0.17501,0 -0.50002,0.15001 -0.65003,-0.20001 -0.15001,-0.35002 -0.20001,-0.47502 -0.35002,-0.82504 -0.15001,-0.35002 -0.22501,-0.32502 -0.20001,-0.70004 0.025,-0.37501 0.12501,-0.67503 0.20001,-0.87504 0.075,-0.20001 0.10001,-0.25001 0.12501,-0.50002 0.025,-0.25002 -0.52503,-0.50003 -0.62504,-0.97505 -0.1,-0.47503 -0.25001,-0.77504 -0.40001,-1.12506 -0.15001,-0.35002 -0.30002,-0.55003 -0.32502,-0.97505 -0.025,-0.42502 -0.12501,-0.67504 0.025,-1.22506 0.15001,-0.55003 0.05,-0.45003 0.45002,-1.00006 0.40002,-0.55002 0.57503,-0.72503 0.80004,-0.90004 0.22502,-0.17501 0.60003,-0.55003 0.60003,-0.55003 z"
       id="path37558" /><path
       style="opacity:0.99;fill:#fde0a4;fill-opacity:0.992157;fill-rule:nonzero;stroke:none;stroke-width:0.1;stroke-dasharray:none;stroke-opacity:1;paint-order:fill markers stroke"
       d="m -95.875741,54.294543 c 0,0.10001 -0.175012,0.15001 -0.300017,0.52503 -0.125008,0.37502 -0.100004,0.55003 -0.125008,0.72504 -0.025,0.17501 -0.350017,0.72504 -0.350017,0.72504 0,0 -0.700035,0.37501 -0.275014,0.67503 0.425024,0.30001 0.625031,0.50002 0.750039,0.50002 0.125005,0 0.350017,-0.1 0.525026,-0.32501 0.175009,-0.22501 0.375021,-0.40002 0.525029,-0.72504 0.150005,-0.32502 0.375017,-0.92505 0.375017,-0.92505 0,0 -0.05,0.45003 0.175009,0.62504 0.225012,0.17501 0,0.27501 0.450025,0.15 0.450021,-0.125 0.800039,-0.67503 0.825042,-0.80004 0.025,-0.125 0.225009,-0.47502 0.225009,-0.72503 0,-0.25002 -0.150005,-0.50003 -0.375017,-0.62504 -0.225013,-0.125 -0.750038,-0.1 -1.000051,-0.075 -0.250013,0.025 -1.225063,0.10001 -1.225063,0.10001 z"
       id="path37560"
       sodipodi:nodetypes="csscsssscsssssscc" /><path
       style="opacity:0.99;fill:#fde0a4;fill-opacity:0.992157;fill-rule:nonzero;stroke:none;stroke-width:0.1;stroke-dasharray:none;stroke-opacity:1;paint-order:fill markers stroke"
       d="m -95.725736,57.219693 c 0,0 -0.150005,0.42502 -0.150005,0.57503 0,0.15001 0.375017,0.42502 0.62503,0.52503 0.250013,0.10001 0.825042,0.20001 1.100055,0.025 0.275016,-0.17501 0.475025,-0.55003 0.55003,-0.67503 0.075,-0.12501 0.100004,-0.17501 0.225012,-0.17501 0.125005,0 0.425021,-0.27502 0.425021,-0.42503 0,-0.15 0,-0.27501 0,-0.40002 0,-0.125 0.300014,-0.35001 0.300014,-0.35001 0,0 0.150008,-0.22501 0.150008,-0.50003 0,-0.27501 0.250013,-0.45002 -0.075,-0.50002 -0.325017,-0.05 -0.625031,-0.30002 -0.625031,-0.30002 0,0 -1.800092,-0.075 -1.975101,0.10001 -0.175009,0.175 -0.550029,2.1001 -0.550029,2.1001 z"
       id="path37562" /><g
       id="g5642"
       transform="matrix(0.7799962,-0.25061339,0.25061339,0.7799962,-0.58500808,3.0524399)"><g
         id="g14148"><path
           style="opacity:0.99;fill:#550000;fill-opacity:0.992157;fill-rule:nonzero;stroke:#2b1100;stroke-width:0.0199435;stroke-dasharray:none;stroke-opacity:1;paint-order:fill markers stroke"
           d="m 7.7096886,8.0230299 c 0,0 -0.5894613,0.1424741 -0.5272694,0.5705024 0.062195,0.428028 0.1029554,0.4778843 0.1568286,0.5080281 0.053873,0.030144 0.8223668,0.2853669 1.0348057,0.017244 C 8.4648944,9.0041525 8.5079854,8.9190873 8.5258023,8.8545486 8.5496518,8.7681574 8.5282141,8.7185464 8.5153979,8.6839844 8.4930072,8.6236024 8.4509053,8.5501105 8.4509053,8.5501105 l 0.1113885,-0.210232 0.051101,-0.1024846 0.1981791,-0.101333 c 0,0 -0.5723333,0.1936692 -0.8955753,0.012807 C 7.5927559,7.9680057 7.7096898,8.0230303 7.7096898,8.0230303 Z"
           id="path2322"
           sodipodi:nodetypes="ccssssccccscc" /><path
           style="opacity:0.99;fill:#ffffff;fill-opacity:0.992157;fill-rule:nonzero;stroke:none;stroke-width:0.0199435;stroke-dasharray:none;stroke-opacity:1;paint-order:fill markers stroke"
           d="m 7.6924971,8.0289731 -0.1943335,0.086288 c 0,0 0.176589,0.3792404 0.5363891,0.3683376 L 8.3943523,8.472696 8.5067704,8.4381045 C 8.5951393,8.1971332 8.6388355,8.2078531 8.7041133,8.1772591 8.1793594,8.3050229 7.9643359,8.2202461 7.6924971,8.0289731 Z"
           id="path3106"
           sodipodi:nodetypes="ccscccc" /><path
           style="opacity:0.99;fill:#ff2a2a;fill-opacity:0.992157;fill-rule:nonzero;stroke:#2b1100;stroke-width:0.0199435;stroke-dasharray:none;stroke-opacity:1;paint-order:fill markers stroke"
           d="m 7.2242396,8.4109538 c 0,0 0.5804629,0.033502 0.7949009,0.3865117 0.2144383,0.353009 0.1776921,0.3740607 0.1776921,0.3740607 l 0.040764,0.049855 -0.2271712,0.00813 c -0.2456567,0.013533 -0.471448,-0.089484 -0.7053383,-0.144985 0,0 -0.1895576,-0.4160691 -0.080847,-0.6735735 z"
           id="path3108"
           sodipodi:nodetypes="csccccsc" /></g></g><g
       id="g15668"
       transform="translate(0,0.1984375)"><path
         style="opacity:0.99;fill:none;fill-opacity:1;fill-rule:nonzero;stroke:#000000;stroke-width:0.0354046;stroke-dasharray:none;stroke-opacity:1;paint-order:fill markers stroke"
         d="m 8.0817066,6.0972627 c 0.00593,0.026259 0.028553,0.093505 0.044352,0.120523 0.015783,0.027019 0.057089,0.057978 0.1096094,0.046129 0.052522,-0.011851 0.096089,-0.010488 0.1314613,-0.00579 0.035373,0.0047 0.1440674,0.036864 0.1632005,0.072081 0.019136,0.035212 0.027201,0.1370726 0.024919,0.1666756 -0.00227,0.0296 0.044034,0.072858 -0.00515,0.092904 -0.049181,0.020047 -0.1354039,0.031295 -0.1599954,0.041314 -0.02459,0.010018 -0.1238649,0.036149 -0.1238649,0.036149 l 0.043411,-0.022477 0.078025,-0.00791"
         id="path20256" /><path
         style="opacity:0.99;fill:#000000;fill-opacity:0.992157;fill-rule:nonzero;stroke:none;stroke-width:0.0152703;stroke-dasharray:none;stroke-opacity:1;paint-order:fill markers stroke"
         d="m 6.0468578,6.0830891 c 0,0 0.2559863,-0.1715442 0.5078802,-0.0391 0.2518945,0.1324446 0.2624206,0.1935469 0.2624206,0.1935469 l 0.071628,0.050575 c 0,0 -0.3386097,-0.073949 -0.4091181,-0.015019 -0.070507,0.058932 -0.2831213,0.2762372 -0.2831213,0.2762372 0,0 -0.045764,0.043374 -0.00941,0.048404 0.036357,0.00503 0.093733,-0.017758 0.135336,-0.057193 0.041603,-0.039431 0.1127636,-0.1226722 0.1659791,-0.1415194 0.053214,-0.018853 0.1957864,-0.043412 0.2240407,-0.038597 0.028253,0.00481 0.2137654,0.042221 0.2459623,0.051193 0.032196,0.00897 0.047534,0.041822 0.080818,0.010274 0.033284,-0.031545 0.034802,-0.08827 0.034802,-0.08827 -0.047576,-0.053975 -0.054645,-0.065192 -0.0666,-0.086932 0,0 -0.1016538,-0.1405825 -0.1564236,-0.2150344 C 6.7962861,5.9572052 6.7384422,5.8461792 6.6381256,5.8069992 6.5378087,5.7678188 6.43771,5.7205347 6.2896751,5.7976609 6.1416403,5.8747868 6.0317345,6.0421373 6.0317345,6.0421373 Z"
         id="path3110"
         sodipodi:nodetypes="csccscsscsssccssscc" /><path
         style="opacity:0.99;fill:#000000;fill-opacity:0.992157;fill-rule:nonzero;stroke:none;stroke-width:0.0152703;stroke-dasharray:none;stroke-opacity:1;paint-order:fill markers stroke"
         d="m 8.2315561,5.8725043 c 0.042307,-0.2958945 0.060714,-0.049463 0.091744,-0.4583117 0.00727,-0.027723 0.1116447,-0.1816852 0.1307135,-0.1956476 0.019069,-0.013964 0.086892,-0.060176 0.1456841,-0.022241 0.05879,0.037936 0.1050052,0.1057591 0.1050052,0.1057591 l -0.012373,0.060754 c 0,0 -0.059977,-0.056023 -0.1024396,-0.038715 -0.042464,0.017312 -0.1395697,0.1435471 -0.150965,0.191522 -0.011394,0.047974 -0.050111,0.1504141 -0.050111,0.1504141 l 0.1922739,-0.059801 c 0,0 0.1193449,0.019445 0.08966,0.037735 -0.029686,0.018287 -0.191091,0.077888 -0.24948,0.1016878 -0.058389,0.023799 -0.048351,0.093987 -0.048351,0.093987 0,0 -0.040099,0.053484 -0.061332,0.062138 -0.021232,0.00866 -0.080025,-0.029282 -0.080025,-0.029283 z"
         id="path3112"
         sodipodi:nodetypes="ccssccssccsscssc" /></g><path
       style="opacity:0.99;fill:#cccccc;fill-opacity:0.992157;fill-rule:nonzero;stroke:#999999;stroke-width:0.0235479;stroke-dasharray:none;stroke-opacity:1;paint-order:fill markers stroke"
       d="m 4.3531542,10.321889 c 0.1215921,0.4874 0.5219426,0.458017 0.6541649,0.460506 0,0 0.7556132,0.04533 0.8070209,0.03225 C 5.768389,10.451482 5.8825783,10.122777 5.8889483,9.7113084 5.5486319,9.5918068 5.1335315,9.7692228 4.7646939,9.8699161 4.6187602,9.8340911 4.4057154,10.038345 4.4057154,10.038345"
       id="path3136"
       sodipodi:nodetypes="cccccc" /><path
       style="opacity:0.99;fill:#fde0a4;fill-opacity:1;fill-rule:nonzero;stroke:none;stroke-width:0.0354046;stroke-dasharray:none;stroke-opacity:1;paint-order:fill markers stroke"
       d="m 4.700032,7.7845907 c 0,0 -0.3132865,-1.2390672 -0.3859662,-1.2458155 -0.07268,-0.00675 0.3001249,-0.2136078 0.330769,-0.3810915 C 4.6754797,5.9902 4.7458382,5.7897501 4.7092244,5.6268025 4.6726104,5.4638549 4.6088941,5.2444877 4.5546904,5.1316518 4.5004851,5.0188126 4.3202841,4.7304162 4.3202841,4.7304162 l -0.021682,-0.045136 c 0,0 1.4204114,-0.5990039 2.326857,-0.5622661 0.9064461,0.036738 0.9511389,0.043045 0.9511389,0.043045 0,0 0.1966935,-0.4000125 0.1975782,-0.4559878 8.873e-4,-0.055978 0.092485,-0.1833014 0.092485,-0.1833014 l 0.2984581,0.245477 c 0,0 0.7064204,1.3549236 0.7529905,1.596416 0.046569,0.2414893 0.014936,0.1178108 0.030753,0.1796516 0.015815,0.061838 0.1391602,0.4053236 0.1879432,0.5068752 0.048785,0.1015548 0.1960146,0.3502388 0.2335227,0.4572104 0.037496,0.1069723 0.1067433,0.6847596 0.1067433,0.6847596 0,0 -0.1754557,0.4731337 -0.2381794,0.5449269 -0.062724,0.071794 -0.376346,0.4307638 -0.4219238,0.480431 -0.04558,0.049664 -0.2039925,0.1535406 -0.2604112,0.1806429 L 8.026226,8.657919 C 7.9133898,8.712123 7.5870506,8.813341 7.4746556,8.8395537 7.3622628,8.8657817 7.086919,8.9286077 6.9293892,8.9765037 6.7718635,9.0244059 6.4635535,9.0475174 6.323616,9.0453048 6.1836771,9.043089 5.9259246,9.0558064 5.8699494,9.0549222 5.8139764,9.0540411 5.5187227,8.9597834 5.4347583,8.9584522 5.3507958,8.957124 5.1331999,8.9088889 5.0776685,8.8800184 5.022136,8.8511445 4.843811,8.7979295 4.843811,8.7979295 L 4.7733465,8.6512431 c 0,0 -0.070802,0.2284359 -0.2834186,0.2194753 -0.2126182,-0.00896 -0.4717006,0.087716 -0.6161732,0.018241 -0.1444731,-0.069474 0.2140251,-0.900238 0.1923431,-0.9453731 -0.02168,-0.045132 -0.1597575,0.1454473 -0.1918367,0.049756 -0.032079,-0.095692 -0.00495,-0.2892579 -0.00495,-0.2892579 0,0 0.01022,-0.4379724 0.1076851,-0.5820021 0.097461,-0.14403 0.061076,0.072862 0.1233564,0.029055 0.062274,-0.043819 -0.2202619,0.2766129 -0.2202619,0.2766129 0,0 0.1850735,-0.019466 0.2460254,0.020689 0.060953,0.040158 0.1720188,0.097906 0.2275501,0.1267773 0.055533,0.028874 0.1833026,0.092485 0.2275519,0.1267796 0.044247,0.034291 0.1188255,0.082606 0.1188255,0.082606 z"
       id="path20216-8"
       sodipodi:nodetypes="cssssccsccccsssccscsscccccccccssscsccccscc"
       inkscape:transform-center-x="-0.13668355"
       inkscape:transform-center-y="0.80967377" /><path
       style="opacity:0.99;fill:#fde0a4;fill-opacity:0.992157;fill-rule:nonzero;stroke:none;stroke-width:0.0384263;stroke-dasharray:none;stroke-opacity:1;paint-order:fill markers stroke"
       d="M 5.9689554,9.0324644 6.0772157,9.25783 c 0,0 0.098663,0.2804054 0.3818836,0.1947807 0.2832257,-0.085617 0.444522,-0.087451 0.444522,-0.087451 L 6.7300701,8.9288529 c 0,0 -0.267629,0.043063 -0.4582066,0.058967 -0.1905794,0.015901 -0.2445869,-0.059016 -0.2445869,-0.059016 z"
       id="path20220-4"
       sodipodi:nodetypes="ccsccscc"
       inkscape:transform-center-x="0.085234069"
       inkscape:transform-center-y="3.7176432" /><ellipse
       style="opacity:0.99;fill:#000000;fill-opacity:1;fill-rule:nonzero;stroke:#000000;stroke-width:0.0354046;stroke-dasharray:none;stroke-opacity:1;paint-order:fill markers stroke"
       id="ellipse20244"
       cx="3.4357536"
       cy="8.8448229"
       rx="0.27539682"
       ry="0.49446252"
       transform="rotate(-25.658519)"
       inkscape:transform-center-x="-0.40530101"
       inkscape:transform-center-y="1.0037434" /><ellipse
       style="opacity:0.99;fill:#000000;fill-opacity:1;fill-rule:nonzero;stroke:#000000;stroke-width:0.0280677;stroke-dasharray:none;stroke-opacity:1;paint-order:fill markers stroke"
       id="ellipse20246"
       cx="5.1740646"
       cy="8.8132353"
       rx="0.20082752"
       ry="0.42615223"
       transform="rotate(-25.658519)"
       inkscape:transform-center-x="-1.9585208"
       inkscape:transform-center-y="0.22257047" /><ellipse
       style="opacity:0.99;fill:#ffffff;fill-opacity:1;fill-rule:nonzero;stroke:none;stroke-width:0.0354046;stroke-dasharray:none;stroke-opacity:1;paint-order:fill markers stroke"
       id="ellipse20248"
       cx="3.451401"
       cy="8.6820889"
       rx="0.19090009"
       ry="0.24410175"
       transform="rotate(-25.658519)"
       inkscape:transform-center-x="-0.34894054"
       inkscape:transform-center-y="0.85028097" /><ellipse
       style="opacity:0.99;fill:#ffffff;fill-opacity:1;fill-rule:nonzero;stroke:none;stroke-width:0.0274684;stroke-dasharray:none;stroke-opacity:1;paint-order:fill markers stroke"
       id="ellipse20250"
       cx="5.1695004"
       cy="8.6257544"
       rx="0.14166647"
       ry="0.19799764"
       transform="rotate(-25.658519)"
       inkscape:transform-center-x="-1.873226"
       inkscape:transform-center-y="0.055553257" /><path
       style="opacity:0.99;fill:#000000;fill-opacity:1;fill-rule:nonzero;stroke:#000000;stroke-width:0.0354046;stroke-dasharray:none;stroke-opacity:1;paint-order:fill markers stroke"
       d="M 5.690839,5.689926 C 5.75467,5.5481625 5.845108,5.3172377 5.9324456,5.282227 6.0197876,5.247226 6.1436763,5.201574 6.2393724,5.1695085 c 0.095696,-0.032066 0.2661048,-0.00979 0.3247904,-0.00326 0.058686,0.00653 0.199785,0.112341 0.275174,0.1247327 0.075388,0.01239 0.1857906,0.1121192 0.2024949,0.1179841 0.016711,0.00587 0.086008,0.048953 0.085785,0.062943 C 7.1274027,5.4859153 6.9921865,5.4501693 6.9416312,5.4605663 6.8910852,5.4709843 6.6995611,5.4553363 6.649449,5.4377483 6.599337,5.4201593 6.59165,5.3752463 6.5062204,5.3780943 c -0.085424,0.00286 -0.2908021,0.066783 -0.31608,0.071982 -0.02528,0.00519 -0.1155512,0.048552 -0.186074,0.082429 -0.070523,0.033878 -0.23153,0.1251256 -0.2485783,0.1402279 -0.01703,0.015137 -0.07086,0.054857 -0.07086,0.054857 z"
       id="path20252-2"
       inkscape:transform-center-x="0.11539974"
       inkscape:transform-center-y="-0.041085854" /><path
       style="opacity:0.99;fill:#000000;fill-opacity:1;fill-rule:nonzero;stroke:#000000;stroke-width:0.0354046;stroke-dasharray:none;stroke-opacity:1;paint-order:fill markers stroke"
       d="M 7.9587897,5.1351243 C 7.956524,5.101491 7.9395433,4.9360565 7.9882742,4.8640415 8.0370051,4.7920272 8.1175406,4.6561268 8.1403298,4.6312946 c 0.022782,-0.024847 0.090269,-0.043363 0.1518844,-0.045192 0.061615,-0.00183 0.1205246,-0.00929 0.1171489,0.027048 -0.00338,0.036344 -0.037223,0.052603 -0.1080805,0.1074703 -0.070861,0.054857 -0.1362887,0.1210206 -0.1455269,0.1740645 -0.00924,0.053043 -0.069252,0.1304786 -0.07871,0.1975176 -0.00946,0.067035 -0.06361,0.1277688 -0.074452,0.1051997 -0.010839,-0.022563 -0.043807,-0.06228 -0.043807,-0.06228 z"
       id="path20254-6"
       inkscape:transform-center-x="-1.6602767"
       inkscape:transform-center-y="-0.587981" /><path
       style="opacity:0.99;fill:none;fill-opacity:1;fill-rule:nonzero;stroke:#000000;stroke-width:0.0354046;stroke-dasharray:none;stroke-opacity:1;paint-order:fill markers stroke"
       d="m 8.1893592,6.3195304 c 0.00751,0.025849 0.034183,0.091597 0.051591,0.1176061 0.017398,0.02601 0.060506,0.054403 0.112209,0.039386 0.051705,-0.015021 0.095274,-0.01631 0.1308669,-0.013765 0.035592,0.00254 0.1460409,0.028043 0.167278,0.062033 0.02124,0.033985 0.035474,0.1351681 0.035002,0.1648531 -4.688e-4,0.029685 0.048378,0.070048 5.101e-4,0.093044 -0.047872,0.022998 -0.1332527,0.039463 -0.1571888,0.050961 -0.023936,0.011497 -0.1214401,0.043607 -0.1214401,0.043607 l 0.041966,-0.025073 0.0774,-0.012632"
       id="path20256-6"
       inkscape:transform-center-x="-1.9270855"
       inkscape:transform-center-y="1.1171986" /><path
       style="opacity:0.99;fill:none;fill-opacity:1;fill-rule:nonzero;stroke:#000000;stroke-width:0.0354046;stroke-dasharray:none;stroke-opacity:1;paint-order:fill markers stroke"
       d="M 8.4245186,7.5960846 C 8.4044159,7.6155592 8.0964513,7.8126004 8.0011747,7.8289068 7.9058999,7.8452164 7.6941126,7.8438432 7.6607495,7.8254968 7.6273898,7.807154 7.4770453,7.8008147 7.437934,7.7705032 7.3988249,7.7401931 7.3565065,7.6623195 7.3565065,7.6623195 c 0,0 -0.027889,0.1361466 -0.040012,0.1517912 -0.012125,0.015643 -0.052019,0.034807 -0.052019,0.034807"
       id="path20258"
       inkscape:transform-center-x="-1.3229746"
       inkscape:transform-center-y="2.2413068" /><path
       style="opacity:0.99;fill:#999999;fill-opacity:1;fill-rule:nonzero;stroke:none;stroke-width:0.1;stroke-dasharray:none;stroke-opacity:1;paint-order:fill markers stroke"
       d="M 3.041276,3.4797966 C 2.845118,3.8108035 4.9496749,4.8172091 6.7360332,3.8960938 8.5269266,2.9726401 7.7034393,2.6787815 7.7057502,2.6813839 8.6733033,3.8436697 10.424796,7.4347965 9.2413127,8.4721089 8.009092,9.901021 3.653867,9.1598267 3.7424692,8.6347542 3.8678002,7.89202 3.1741392,6.9124768 3.041276,3.4797966 Z"
       id="path157"
       sodipodi:nodetypes="csccsc"
       inkscape:transform-center-x="0.18840544"
       inkscape:transform-center-y="0.51017853" /><ellipse
       style="opacity:0.99;fill:#9a9a99;fill-opacity:1;fill-rule:nonzero;stroke:none;stroke-width:0.0942533;stroke-dasharray:none;stroke-opacity:1;paint-order:fill markers stroke"
       id="path981"
       transform="matrix(0.99425463,-0.1070408,-0.1228075,0.99243051,0,0)"
       ry="1.0356855"
       rx="2.4581199"
       cy="4.0863776"
       cx="6.0334063"
       inkscape:transform-center-x="1.0246183"
       inkscape:transform-center-y="-2.0715694" /><path
       style="opacity:0.99;fill:#4d4d4d;fill-opacity:1;fill-rule:nonzero;stroke:none;stroke-width:0.0993318;stroke-dasharray:none;stroke-opacity:1;paint-order:fill markers stroke"
       d="m 7.2360979,3.715424 c 0,0 1.2792497,1.5975014 1.6022923,3.1938 0.3230422,1.5962985 0.368114,1.5746471 0.368114,1.5746471 0,0 0.3178504,-0.2621519 0.3011774,-0.5278144 C 9.4910099,7.6903966 9.4383978,5.9641895 9.0491717,5.3848917 8.6599456,4.8055935 8.0969156,3.6463414 8.0969156,3.6463414 c 0,0 -0.044833,-0.5418318 -0.8608177,0.069083 z"
       id="path983"
       sodipodi:nodetypes="cscsscc"
       inkscape:transform-center-x="-1.8506842"
       inkscape:transform-center-y="0.47312951" /><path
       style="opacity:0.99;fill:#4d4d4d;fill-opacity:1;fill-rule:nonzero;stroke:none;stroke-width:0.1;stroke-dasharray:none;stroke-opacity:1;paint-order:fill markers stroke"
       d="M 9.0215917,5.0824913 C 8.7074721,5.4942074 7.4083346,6.1803627 6.0295553,6.1330523 5.6778529,5.7268661 5.5978372,6.8129656 6.4162904,6.8605049 6.995363,6.8681683 7.9710161,6.6028586 8.2826604,6.4359035 8.5943256,6.2689369 9.3528998,5.8195496 9.2747676,5.6287633 9.1966315,5.4379784 8.9692614,4.8918914 8.9692614,4.8918914 Z"
       id="path989"
       sodipodi:nodetypes="cccsccc"
       inkscape:transform-center-x="-1.0068619"
       inkscape:transform-center-y="0.39508501" /><path
       style="opacity:0.99;fill:#808080;fill-opacity:1;fill-rule:nonzero;stroke:none;stroke-width:0.107975;stroke-dasharray:none;stroke-opacity:1;paint-order:fill markers stroke"
       d="m 4.9922211,2.6396863 c 0,0 -1.6104943,0.5517523 -1.6575697,0.8239929 -0.047077,0.2722404 0.1940716,0.336686 0.2814085,0.350204 1.2770603,-0.098621 2.4638633,-0.6808399 3.6808419,-1.0886485"
       id="path1412"
       sodipodi:nodetypes="cscc"
       inkscape:transform-center-x="1.2087626"
       inkscape:transform-center-y="-2.2544096" /><path
       style="opacity:0.99;fill:#666666;fill-opacity:0.423792;fill-rule:nonzero;stroke:none;stroke-width:0.093;stroke-dasharray:none;stroke-opacity:1;paint-order:fill markers stroke"
       d="M 4.7482111,8.8375192 C 3.7261009,8.5698064 4.064881,8.3324546 4.0280552,8.4626788 3.1683091,6.7575221 3.5723884,5.2695777 3.2727443,4.0951146 c 0.1272111,0.040621 -0.094983,0.131853 0.8031028,0.2425069"
       id="path3187"
       sodipodi:nodetypes="cccc"
       inkscape:transform-center-x="2.5110446"
       inkscape:transform-center-y="0.98512256" /><path
       style="opacity:0.99;fill:#666666;fill-opacity:1;fill-rule:nonzero;stroke:none;stroke-width:0.0705928;stroke-dasharray:none;stroke-opacity:1;paint-order:fill markers stroke"
       d="m 7.7593915,3.9590915 c 0,0 0.9417212,1.4764624 1.278035,2.8221693 0.3363132,1.3457073 0.3630569,1.334166 0.3630569,1.334166 0,0 0.1795609,-0.1706599 0.1470692,-0.3895844 C 9.5150615,7.5069199 9.339212,6.0919678 9.044982,5.566696 8.750752,5.0414241 8.2986654,4.0195534 8.2986654,4.0195534 c 0,0 -0.073125,-0.4479764 -0.5392193,-0.060487 z"
       id="path5668"
       sodipodi:nodetypes="cscsscc"
       inkscape:transform-center-x="-2.1339155"
       inkscape:transform-center-y="0.47714261" /><path
       style="opacity:0.99;fill:#666666;fill-opacity:1;fill-rule:nonzero;stroke:none;stroke-width:0.0713168;stroke-dasharray:none;stroke-opacity:1;paint-order:fill markers stroke"
       d="M 9.1167032,5.2739566 C 8.7903062,5.574931 7.5861208,6.1877111 6.4192838,6.3559425 6.1781392,6.1538487 5.9543418,6.8405009 6.644196,6.7527324 7.1360048,6.6744888 8.0045133,6.369701 8.2937177,6.221239 8.5829439,6.0727719 9.2930584,5.6846636 9.2539004,5.5772597 9.2147425,5.4698557 9.099474,5.1629735 9.099474,5.1629735 Z"
       id="path5670"
       sodipodi:nodetypes="cccsccc"
       inkscape:transform-center-x="-1.1975135"
       inkscape:transform-center-y="0.48055589" /><path
       style="opacity:0.99;fill:#fde0a3;fill-opacity:0.992157;fill-rule:nonzero;stroke:#ffb380;stroke-width:0.0354046;stroke-dasharray:none;stroke-opacity:1;paint-order:fill markers stroke"
       d="M 5.5943601,10.717637 5.3669555,10.1106 c 0.071328,-0.3338316 1.229608,-0.6049905 1.2121472,-0.5883743 -0.055163,0.052494 -1.0455232,0.038004 -1.0991322,-0.00649 -0.046691,-0.00964 -0.4312464,-0.00704 -0.522089,-0.014244 -0.090849,-0.00725 -0.3745536,0.024423 -0.3745536,0.024423 0,0 0.120393,0.058719 -0.00709,0.1546744 -0.1274627,0.096012 -0.1151601,0.1254173 -0.1544485,0.1205778 -0.03932,-0.00467 -0.3288831,0.047235 -0.3288831,0.047235 L 3.7883268,9.7630273 c 0,0 -0.1300696,0.019862 -0.13025,-0.075872 -1.67e-4,-0.095742 -0.049372,-0.1496577 0.0022,-0.1473028 0.051566,0.00225 0.2087731,0.05363 0.2087731,0.05363 L 3.566898,9.4884587 l -0.17185,0.00278 c 0,0 -0.1547332,-0.039012 -0.1132624,-0.181468 0.041467,-0.142471 0.1665433,-0.2187912 0.1665433,-0.2187912 0,0 0.014818,-0.022091 0.00958,-0.1424061 -0.00513,-0.1202854 -0.056917,-0.2503114 0.028972,-0.2676438 0.085898,-0.017337 0.1471857,-0.061653 0.1839489,-0.100985 0.036741,-0.03937 0.024312,-0.1326184 0.058578,-0.1842378 0.034275,-0.051616 0.053675,-0.1768657 0.1863055,-0.1525409 0.1326138,0.024317 0.179295,0.033937 0.3119063,0.058241 0.1326174,0.024317 0.1399318,-0.00272 0.2456385,0.078132 0.1057146,0.080818 0.1746117,0.1690768 0.2189083,0.2303746 0.044288,0.061294 0.05415,0.078458 0.1229932,0.1347963 0.4822001,-0.018108 1.007723,0.014049 1.7191425,0.2014508 C 6.782465,9.0626095 6.9490245,8.9162297 7.221395,9.4250345 7.181244,10.054261 6.1479377,10.849458 5.5613344,10.73831 Z"
       id="path20224"
       sodipodi:nodetypes="ccscccccccccccccccscccccsccccc" /></g></svg>
