<?xml version="1.0" encoding="UTF-8" standalone="no"?>
<!-- Created with Inkscape (http://www.inkscape.org/) -->

<svg
   width="200"
   height="300"
   viewBox="0 0 52.916665 79.375"
   version="1.1"
   id="svg4681"
   xml:space="preserve"
   inkscape:version="1.2.1 (9c6d41e4, 2022-07-14)"
   sodipodi:docname="start_anim_7.svg"
   inkscape:export-filename="start_anim_7.png"
   inkscape:export-xdpi="96"
   inkscape:export-ydpi="96"
   xmlns:inkscape="http://www.inkscape.org/namespaces/inkscape"
   xmlns:sodipodi="http://sodipodi.sourceforge.net/DTD/sodipodi-0.dtd"
   xmlns="http://www.w3.org/2000/svg"
   xmlns:svg="http://www.w3.org/2000/svg"><sodipodi:namedview
     id="namedview4683"
     pagecolor="#ffffff"
     bordercolor="#666666"
     borderopacity="1.0"
     inkscape:showpageshadow="2"
     inkscape:pageopacity="0.0"
     inkscape:pagecheckerboard="0"
     inkscape:deskcolor="#d1d1d1"
     inkscape:document-units="mm"
     showgrid="false"
     inkscape:zoom="2.2645281"
     inkscape:cx="64.031001"
     inkscape:cy="177.96202"
     inkscape:window-width="1309"
     inkscape:window-height="430"
     inkscape:window-x="0"
     inkscape:window-y="25"
     inkscape:window-maximized="0"
     inkscape:current-layer="g27171" /><defs
     id="defs4678">
	
	
	
	
	
	
<style
   id="style20996">.a{fill:#fce0cd;}.b{fill:#211916;}.c{fill:#f5e06c;}</style></defs><g
     inkscape:label="Layer 1"
     inkscape:groupmode="layer"
     id="layer1"><g
       id="g15468"
       transform="matrix(-0.15615006,0,0,-0.15615006,6.6599249,6.6362571)"><g
         id="g18040"
         transform="matrix(-0.04445405,-0.04374466,0.04374466,-0.04445405,17.117709,69.038852)"><g
           id="g21843"
           transform="matrix(6.0134064,1.879502,-1.879502,6.0134064,3857.4201,-2243.7138)"><path
             class="a"
             d="m 212.98169,970.91278 c 3.14529,-3.34053 71.49333,-85.65005 73.68038,-89.6825 2.18705,-4.03245 4.05947,-8.5371 3.12449,-13.0301 -1.4681,-4.10144 -2.43731,-8.36463 -2.88674,-12.69766 -1.42191,-14.90491 4.54907,-29.53887 9.46616,-43.48272 1.60478,-7.17567 10.09563,-30.44324 11.85898,-47.44237 0.63566,-10.25029 2.5231,-19.81063 6.6388,-29.05218 1.5972,-3.58549 4.6987,-7.14085 8.61622,-7.32581 2.24293,-0.10482 6.95302,1.83347 8.44105,3.51432 1.66328,2.15317 2.99118,4.54561 3.93863,7.09609 3.98089,10.65179 3.13386,19.2744 0.23946,30.16318 -0.79563,3.63136 -1.6888,15.75058 -1.61947,25.63905 4.59442,0.51582 10.62787,-1.56793 14.45457,-3.60508 3.07685,-3.27006 16.60517,-14.1742 19.43453,-17.9006 10.00076,-11.42495 14.26209,-16.83368 22.81282,-28.2396 6.50847,-8.68218 16.15838,-21.15415 21.75306,-27.83761 4.5381,-7.08679 14.31219,-18.32841 17.10584,-20.16404 2.79365,-1.83563 6.34656,-2.66209 9.30625,-1.1047 4.99033,2.62606 6.09119,6.70456 6.14327,11.78369 0.0555,5.51714 -5.94122,15.4663 -13.22662,24.35145 -6.31463,10.20447 -14.7522,20.74785 -19.41309,27.06992 -6.71125,9.61679 -13.42976,19.60051 -20.45792,30.74007 -1.91009,3.35177 7.17417,9.35652 9.73725,8.12375 5.58913,-5.24982 22.80717,-21.68523 29.50114,-28.07566 5.57954,-6.47055 26.72697,-27.45538 31.6272,-32.22192 6.35159,-6.17424 11.74523,-12.66584 19.72166,-17.13203 6.01415,-3.36827 12.84081,0.48239 14.45977,2.73649 1.61895,2.25409 1.83297,6.79818 0.93572,9.61673 -2.44876,7.74822 -15.28608,19.64167 -17.913,22.39356 -0.24412,0.25632 -19.87085,22.05384 -28.48486,30.57595 -9.8772,11.01958 -19.55094,22.09207 -29.52583,33.40059 -0.98947,2.82322 3.24544,9.04076 7.5627,9.14689 6.41179,-1.51312 22.91742,-11.84386 28.671,-15.9108 8.58932,-6.50088 21.53818,-15.03963 27.86546,-19.84744 l 22.74531,-15.15408 c 3.48091,-2.31899 7.67461,-4.75707 11.63213,-2.57504 1.89711,1.10193 3.22937,2.9658 3.65787,5.11746 0.9556,4.36939 -0.96193,8.45901 -3.2829,12.02556 -4.13737,6.36343 -12.10127,13.76598 -18.43678,17.94627 -5.16339,4.22699 -23.82901,18.42963 -29.83215,22.10243 -4.32707,4.11664 -21.98774,16.67785 -25.07526,18.96912 -3.18495,2.41472 -3.21541,6.88871 -2.1053,8.61782 1.1741,1.82855 2.48881,3.69405 4.56582,3.01657 9.2122,-1.54951 18.49662,-2.63395 27.81795,-3.2492 5.16674,-1.1648 11.81296,-2.44445 17.06257,-3.08421 7.00888,-1.93995 15.6826,-3.03502 21.07705,-0.26666 1.12805,0.53205 2.1439,1.27499 2.99279,2.18876 0.92713,1.43653 1.18153,3.20601 0.69666,4.84555 -0.736,2.94488 -2.98428,5.33367 -5.57809,6.90156 -2.59381,1.56788 -5.55144,2.43133 -8.46698,3.27708 -3.36174,0.97472 -8.24889,2.82693 -11.60807,3.80309 l -23.82701,6.59016 c -8.69035,2.9636 -17.59908,5.24329 -26.64477,6.81824 -2.13744,0.37216 -4.28086,0.70544 -6.42493,1.03835 -3.63662,0.56548 -9.73886,4.9093 -17.75873,9.88769 -9.30162,7.97841 -38.79634,26.18714 -46.65077,29.08499 -5.47369,2.01876 -14.57156,3.38368 -20.27872,4.59564 -2.16224,2.32009 -75.62249,87.22686 -76.97776,90.09416"
             id="path21000"
             style="stroke-width:0.736357"
             sodipodi:nodetypes="csccccccccccccccscccccccccscccccccccccccccccccccscccsccccc" /><path
             class="b"
             d="m 337.77939,813.91908 c -0.14148,-4.88439 -1.17153,-9.68872 -1.40752,-14.56888 -0.19722,-4.0698 -0.15112,-8.15296 -0.0189,-12.22396 0.12829,-3.9515 0.34692,-7.90283 0.70071,-11.84056 0.14125,-1.57102 0.23487,-2.53838 0.4387,-3.98794 0.21249,-1.51144 0.61098,-2.95699 0.96978,-4.4401 1.10277,-4.27957 1.72774,-8.6682 1.86344,-13.08548 0.0541,-4.29604 -0.56152,-8.57427 -1.82458,-12.68079 -0.67117,-2.24361 -1.54815,-4.42044 -2.61975,-6.50273 -0.89992,-1.72565 -1.94397,-3.63054 -3.50887,-4.84337 -1.70977,-1.26901 -3.63625,-2.21619 -5.68524,-2.79525 -1.81314,-0.62321 -3.77762,-0.65295 -5.6088,-0.0849 -4.51989,1.53933 -6.9769,5.78397 -8.67382,9.95307 -2.04938,5.04945 -3.56645,10.2989 -4.52659,15.66313 -0.90674,5.03934 -1.07016,10.14244 -1.81305,15.19547 -0.6357,4.31814 -1.5495,8.59286 -2.58133,12.83405 -1.9687,8.07527 -4.42725,16.0149 -6.83065,23.96615 -0.42567,1.40826 -0.84876,2.81798 -1.24872,4.23312 -0.32369,1.14623 -0.55451,2.33465 -0.9528,3.45577 -1.68176,4.74981 -3.4329,9.47574 -4.97409,14.27008 -3.03834,9.44447 -5.3315,19.43548 -4.30724,29.41564 0.28443,2.74806 0.7807,5.47005 1.48437,8.14168 0.62062,2.36699 1.68888,4.61597 1.6084,7.09933 -0.15875,2.30943 -0.77308,4.5646 -1.80756,6.63547 -1.0879,2.39368 -2.42954,4.66369 -4.00189,6.77105 -1.71505,2.19786 -70.80753,85.3587 -72.75129,87.35715 -1.55833,1.65761 0.94896,4.15012 2.50866,2.49158 3.8105,-4.05182 74.64433,-89.30288 77.07011,-94.35025 1.09439,-2.14128 1.86883,-4.43148 2.29859,-6.7975 0.20058,-1.18687 0.26117,-2.39317 0.18054,-3.59416 -0.15193,-1.27674 -0.45025,-2.53176 -0.88908,-3.74031 -1.56855,-4.83971 -2.38318,-9.89193 -2.41528,-14.97937 0.0575,-4.845 0.67527,-9.66709 1.84085,-14.37015 1.18321,-4.81193 2.61368,-9.55966 4.28571,-14.22431 1.33057,-3.82781 2.86961,-7.60411 3.91596,-11.51851 1.79839,-6.73022 4.03802,-13.34204 5.93339,-20.04637 2.37787,-8.42202 4.55172,-16.97249 5.51072,-25.68584 0.2838,-2.58773 0.4005,-5.18338 0.75044,-7.76849 0.3539,-2.62515 0.81785,-5.23562 1.41031,-7.81766 0.58711,-2.57129 1.30859,-5.11004 2.16147,-7.6058 0.73858,-2.35335 1.6852,-4.63628 2.82864,-6.82176 0.88311,-1.7072 2.19427,-3.15591 3.80519,-4.20441 1.34135,-0.84024 2.98435,-1.04809 4.49269,-0.56835 1.66096,0.43384 3.23452,1.15127 4.6513,2.12068 1.47862,1.14395 2.37653,3.12371 3.17743,4.75809 3.68482,7.51513 4.26894,16.12668 2.79959,24.2652 -0.60284,3.34612 -1.65366,6.59032 -2.07301,9.96628 -0.43067,3.46508 -0.68932,6.95185 -0.88358,10.43685 -0.45423,8.12635 -0.63349,16.30619 0.42837,24.39072 0.38614,2.57931 0.64034,5.17664 0.76162,7.78187 0.0658,2.27166 3.60095,2.2254 3.53462,-0.0558 z"
             id="path21002"
             style="stroke-width:0.736357"
             sodipodi:nodetypes="ccscscccccccccccsccccccccccccccccccccccccccccccccccc" /><path
             class="b"
             d="m 334.98839,796.41403 c 4.83796,0.28451 10.32936,-1.31859 14.51818,-3.718 1.0554,-0.75331 2.02927,-1.61474 2.90578,-2.57029 1.24883,-1.13219 2.51926,-2.24121 3.78997,-3.34923 2.918,-2.54397 5.85805,-5.06707 8.71597,-7.68291 2.48987,-2.33637 4.84117,-4.81614 7.0419,-7.42667 13.00559,-14.98574 24.4375,-31.18673 36.7859,-46.69818 2.56648,-3.22372 5.146,-6.37756 7.53073,-9.73325 2.55297,-3.54986 5.28336,-6.9687 8.18075,-10.2435 1.25483,-1.4339 2.53444,-2.84877 3.86937,-4.20882 0.50966,-0.51917 1.02795,-1.03264 1.56463,-1.52476 0.19136,-0.17618 0.38613,-0.34789 0.58275,-0.51688 0.38195,-0.32997 0.0161,-0.0526 0.36174,-0.2881 1.71143,-1.27905 3.83378,-1.88343 5.96229,-1.69788 2.0566,0.42371 3.87413,1.61592 5.08199,3.33354 2.09335,2.92277 2.29517,7.27997 1.30091,10.63379 -1.40212,4.72901 -4.24597,9.10224 -7.02651,13.12153 -1.70789,2.46923 -3.71626,4.72019 -5.42587,7.17746 -1.62695,2.33904 -3.08022,4.80634 -4.70172,7.15521 -3.09554,4.48246 -6.35454,8.85002 -9.64458,13.19166 -6.45204,8.51451 -12.45222,17.33259 -18.31552,26.26327 -1.67311,2.54799 -3.33073,5.10751 -4.97288,7.67857 -1.08163,1.69205 -2.88035,3.59035 -2.70905,5.74226 0.2511,3.09949 3.42322,5.56253 5.88427,7.00889 1.24447,0.78298 2.62331,1.32845 4.06663,1.60877 1.36805,0.2777 2.78108,-0.1875 3.71661,-1.22358 2.34752,-2.2109 4.68827,-4.42928 7.02224,-6.65513 5.94043,-5.64438 11.87249,-11.29742 17.79618,-16.95911 4.24055,-4.04706 8.14858,-8.38454 12.23151,-12.59138 5.35677,-5.51848 10.78441,-10.96322 16.23659,-16.384 5.13798,-5.10758 10.2128,-10.29807 15.42222,-15.32992 1.98489,-1.95838 4.09316,-3.78764 6.31185,-5.47656 1.99325,-1.48447 4.24344,-3.21803 6.67211,-3.89264 3.24971,-0.76165 6.66946,-0.006 9.29522,2.05502 0.21216,0.16736 0.41433,0.347 0.60548,0.538 0.10559,0.10512 0.20845,0.21208 0.30541,0.32501 0.20707,0.24004 -0.22454,-0.33355 0.0548,0.0782 0.56609,0.9141 0.91593,1.94542 1.02283,3.01529 0.30422,1.98947 0.0872,4.02383 -0.62999,5.90432 -1.40933,3.48003 -3.92358,6.56753 -6.32905,9.4019 -3.55556,4.19037 -7.62864,7.85763 -11.30811,11.91988 -8.72729,9.6339 -17.42048,19.33181 -26.54922,28.58913 -3.74629,3.7998 -7.20573,7.89303 -10.74211,11.88882 -4.11635,4.64975 -8.22266,9.3077 -12.31893,13.97383 -2.0699,2.3532 -4.14051,4.70516 -6.21183,7.05587 -0.79638,0.90362 -2.01166,1.87723 -2.28101,3.09803 -0.17175,0.90511 -0.13252,1.83762 0.11463,2.72511 0.92501,3.68702 4.37071,7.55331 8.21836,8.20203 1.53621,0.25855 2.96658,-0.35724 4.36977,-0.92327 1.64179,-0.66403 3.24906,-1.41681 4.83057,-2.21538 3.67966,-1.85714 7.25428,-3.92389 10.77916,-6.05837 6.85911,-4.1541 13.22938,-8.87768 19.781,-13.48812 7.95451,-5.59752 15.85257,-11.31389 23.9469,-16.70503 l 15.74729,-10.49085 c 3.16727,-2.11028 8.03635,-6.13289 11.97287,-3.51899 4.51438,2.99689 2.39966,9.40946 0.21662,13.12724 -2.52716,4.30316 -6.00237,8.02832 -9.62278,11.42912 -3.24981,3.05346 -6.86209,5.51565 -10.3244,8.29221 -2.41353,1.9365 -4.86611,3.82228 -7.32393,5.70088 -5.9983,4.58238 -12.02616,9.15572 -18.2539,13.42376 -1.03196,0.70669 -2.15998,1.32885 -3.14913,2.09008 -0.95207,0.73141 -1.82159,1.59383 -2.7584,2.35666 -2.6852,2.18323 -5.46031,4.25749 -8.23758,6.32209 -2.95524,2.19648 -5.92607,4.37263 -8.91248,6.52844 -2.0094,1.45762 -4.46939,2.83297 -6.17753,4.65299 -3.35918,3.57305 -3.18446,9.1931 0.39018,12.55058 2.20103,2.11799 4.67598,1.2607 7.37309,0.83872 3.02372,-0.47267 6.05464,-0.89762 9.09276,-1.27484 2.9844,-0.37086 5.97464,-0.69308 8.97071,-0.96665 2.81313,-0.25436 5.67461,-0.27949 8.43637,-0.88226 2.65176,-0.57853 5.31359,-1.10743 7.9855,-1.58671 2.59473,-0.46529 5.29811,-0.65386 7.85998,-1.23485 5.15628,-1.17323 10.46187,-2.45251 15.78062,-1.52867 2.02716,0.35172 4.28233,1.05332 5.8245,2.49253 1.79645,1.67796 0.72454,4.65504 -0.46993,6.35536 -3.14853,4.48051 -9.09952,5.42918 -13.94727,7.01792 -5.18292,1.69913 -10.31848,3.3607 -15.5777,4.81569 -6.04028,1.66831 -12.24631,3.07422 -18.18757,5.07383 -5.59131,1.87946 -11.27368,3.47627 -17.02555,4.78438 -2.87579,0.65517 -5.76744,1.23745 -8.67493,1.74685 -2.50747,0.44091 -5.18091,0.59733 -7.62813,1.30037 -4.02118,1.15513 -7.69051,3.8176 -11.1791,6.03169 -2.23885,1.42387 -4.71564,2.712 -6.76188,4.40157 -0.97827,0.80793 -1.97064,1.59438 -2.98619,2.35596 -2.78916,2.0917 -5.66025,4.07979 -8.55244,6.02133 -6.65256,4.46906 -13.4433,8.72731 -20.37221,12.77476 -2.88454,1.68639 -5.79183,3.33968 -8.75606,4.88399 -2.11717,1.18133 -4.34616,2.15002 -6.65432,2.89186 -4.52571,1.27287 -9.11828,2.29474 -13.75673,3.06092 -1.06215,0.20118 -2.12383,0.40601 -3.18503,0.6145 -1.31928,0.26255 -2.04743,0.45243 -2.97211,1.51029 -1.96849,2.25742 -75.17394,86.64919 -76.47388,89.34749 -0.98433,2.0384 2.09108,3.7895 3.07951,1.7348 0.64691,-1.3542 1.38651,-2.6621 2.21353,-3.9145 0.37395,-0.5618 72.31482,-82.99204 72.72922,-83.52515 0.25656,-0.32791 0.52359,-0.6474 0.79602,-0.96299 0.0676,-0.0794 0.7338,-0.75802 0.38108,-0.54597 0.55955,-0.19227 1.14207,-0.30972 1.73241,-0.3493 0.49499,-0.0975 0.99066,-0.19328 1.48701,-0.28724 1.26189,-0.23967 2.52353,-0.47891 3.78493,-0.71773 4.45941,-0.85586 9.08236,-1.64495 13.32435,-3.31209 5.53728,-2.17816 10.73458,-5.40313 15.83686,-8.4264 6.93719,-4.11265 13.76668,-8.42119 20.427,-12.96955 2.82942,-1.93211 5.62821,-3.9119 8.33447,-6.01396 1.23434,-0.99796 2.51786,-1.9335 3.84575,-2.80312 2.35649,-1.48267 4.69251,-2.99801 7.05999,-4.46267 1.81689,-1.16486 3.69717,-2.22774 5.63213,-3.18371 1.71532,-0.71209 3.52596,-1.16831 5.37391,-1.35404 5.9337,-0.93897 11.82281,-2.10337 17.64202,-3.60126 5.89663,-1.51681 11.64587,-3.50711 17.51044,-5.12904 l 18.24909,-5.051 c 4.84636,-1.34021 9.56147,-3.14059 14.37468,-4.59751 5.13157,-1.55395 10.65075,-3.97303 12.93289,-9.20951 1.01704,-2.33356 1.27728,-5.09851 0.0266,-7.3987 -1.03018,-1.892 -3.25018,-3.09863 -5.18322,-3.87399 -4.86003,-1.94669 -10.43173,-1.5078 -15.47826,-0.64039 -2.61895,0.44826 -5.15412,1.1829 -7.78088,1.56253 -2.70711,0.39071 -5.40409,0.84798 -8.09095,1.3718 -2.61068,0.5011 -5.24892,1.28669 -7.90039,1.46563 -2.95097,0.2015 -5.89674,0.45777 -8.8373,0.76882 -3.01402,0.31643 -6.02199,0.68162 -9.0239,1.09557 -1.48964,0.2049 -2.978,0.41954 -4.46509,0.64391 -1.53926,0.34654 -3.09854,0.5972 -4.66886,0.75055 -1.01644,0.019 -1.64999,-1.10526 -2.15352,-1.87825 -0.50789,-0.77571 -0.73648,-1.70124 -0.64814,-2.62421 0.11504,-1.79119 1.05573,-3.42728 2.54585,-4.42785 5.31492,-3.88386 10.67036,-7.71362 15.92661,-11.67786 2.6028,-1.96342 5.2192,-3.92848 7.69406,-6.05187 0.76152,-0.66872 1.57668,-1.27377 2.43725,-1.80905 1.24831,-0.82822 2.47671,-1.68709 3.69986,-2.55315 6.36994,-4.50995 12.60281,-9.22219 18.77897,-13.99427 6.43712,-4.97581 13.1366,-9.64917 18.74999,-15.59018 3.39719,-3.59416 6.70079,-7.62981 8.56579,-12.25781 1.82855,-4.5378 1.88642,-10.44072 -2.1754,-13.84189 -3.83359,-3.20921 -8.6617,-2.05142 -12.60862,0.25016 -5.10573,2.9799 -9.93261,6.542 -14.85157,9.81897 -8.52114,5.67471 -16.84528,11.59983 -25.24467,17.45299 -6.79562,4.73752 -13.36528,9.77305 -20.39602,14.1643 -3.57733,2.2351 -7.20683,4.39178 -10.91928,6.39864 -2.8166,1.51929 -5.91803,3.41818 -9.07937,4.12716 -1.22294,0.27456 -3.03843,-1.17156 -4.05111,-2.30996 -0.88962,-0.99978 -2.10309,-2.73895 -1.96707,-4.15065 0.0189,-0.19557 0.17709,-0.31436 -0.006,0.0109 0.20859,-0.28372 0.44235,-0.54805 0.69844,-0.78977 l 1.5603,-1.77061 3.28347,-3.72836 c 2.05939,-2.34053 4.11911,-4.68116 6.17916,-7.02188 6.99641,-7.94755 13.92636,-15.95114 21.27183,-23.57614 5.35133,-5.55534 10.57616,-11.23265 15.78602,-16.92093 2.97151,-3.24658 5.87407,-6.5658 8.88654,-9.77408 4.74879,-5.0513 9.78923,-9.72618 13.95091,-15.31358 2.19753,-2.94983 4.38605,-6.26476 4.85355,-9.99476 0.46447,-3.82213 -0.13414,-8.1696 -3.35988,-10.64847 -2.97365,-2.31094 -6.71783,-3.39855 -10.4668,-3.04038 -5.11333,0.61089 -9.66567,4.54231 -13.40221,7.81769 -4.03088,3.53384 -7.64796,7.50784 -11.48202,11.2489 -1.75095,1.708 -3.49333,3.42477 -5.22714,5.15032 -5.42013,5.37291 -10.80292,10.78404 -16.14837,16.23339 -4.1865,4.28119 -8.1397,8.81888 -12.46787,12.95096 -5.86581,5.59795 -11.73384,11.19184 -17.60409,16.78166 -2.58003,2.45461 -5.16321,4.90631 -7.74955,7.35511 -0.4268,0.40358 -0.88969,0.79021 -1.29059,1.21683 -0.0654,0.0696 -0.24743,0.16318 -0.26726,0.2509 l -0.065,0.0614 c 0.58633,-0.27371 0.7204,-0.35567 0.40219,-0.24588 0.006,0.0276 -0.30513,0.003 -0.21497,0.02 -1.29977,-0.27262 -2.5348,-0.79328 -3.63744,-1.53349 -1.19885,-0.71235 -2.24956,-1.64855 -3.09492,-2.75762 -0.22872,-0.351 -0.41326,-0.72888 -0.54944,-1.12508 -0.0453,-0.12357 0.0246,-0.27772 -0.0494,-0.0938 0.34326,-0.67632 0.74527,-1.32118 1.20139,-1.92715 3.28285,-5.17055 6.62982,-10.29991 10.04093,-15.38806 3.13561,-4.67964 6.24166,-9.4148 9.57285,-13.95552 2.84398,-3.87537 5.81073,-7.65961 8.67415,-11.52148 3.37922,-4.55846 6.6793,-9.18348 9.71483,-13.9795 1.58646,-2.50721 3.60564,-4.75037 5.32892,-7.17038 1.64256,-2.28197 3.16784,-4.64611 4.5699,-7.08324 2.06188,-3.62123 4.22868,-7.79778 4.30133,-12.0646 0.0711,-4.15446 -0.9476,-8.57543 -4.16552,-11.43276 -1.72143,-1.63023 -3.915,-2.6733 -6.266,-2.97956 -2.32771,-0.16127 -4.65133,0.36706 -6.68046,1.51897 -2.69722,1.4454 -4.81286,3.98581 -6.83265,6.22104 -3.0107,3.33267 -5.86222,6.81333 -8.55769,10.40556 -1.16433,1.5508 -2.19652,3.20309 -3.36024,4.74832 -1.21873,1.61736 -2.58288,3.1418 -3.85088,4.7221 -6.20893,7.73786 -12.24766,15.61469 -18.20237,23.55238 -5.93912,7.91604 -12.04305,15.67755 -18.50297,23.17682 -2.37204,2.88625 -4.90165,5.63931 -7.5773,8.24659 -2.80978,2.61591 -5.72254,5.12057 -8.61859,7.64057 -1.27027,1.10573 -2.54118,2.21111 -3.79967,3.33194 -0.96017,0.85531 -1.85608,1.85161 -2.8587,2.65174 -1.45534,1.16122 -3.78881,1.81086 -5.57462,2.35996 -2.40972,0.80658 -4.94495,1.17285 -7.48443,1.0813 -2.27069,-0.13395 -2.20908,3.40392 0.0558,3.53461 z"
             id="path21004"
             style="stroke-width:0.736357"
             sodipodi:nodetypes="cccccccccsccccccccccccccccccccccccccccccccccccccccccccccccccccccccccccccccccccccsccsccccccccccccccccccscccccccccscccccccccccccccccccsccccccccscccccccccccccccccccsccccccccccccccccccccccccccccccccc" /><path
             class="b"
             d="m 334.65558,831.92751 c 0.50005,6.54934 2.63637,12.87355 3.96073,19.27536 a 35.717722,35.717722 0 0 1 1.0114,8.79224 32.15891,32.15891 0 0 1 -1.64941,7.81903 44.925127,44.925127 0 0 1 -5.27935,11.17221 1.7672603,1.7672603 45 0 0 3.07952,1.73476 45.47224,45.47224 0 0 0 7.26428,-19.41583 30.887222,30.887222 0 0 0 -0.57983,-8.7452 c -0.60407,-3.4496 -1.47423,-6.84541 -2.2993,-10.24625 a 65.898041,65.898041 0 0 1 -1.97627,-10.44461 c -0.17304,-2.25685 -3.70869,-2.22018 -3.53498,0.0565 z"
             id="path21006"
             style="stroke-width:0.736357" /><path
             class="b"
             d="m 356.79368,818.43946 11.4917,8.76302 a 42.598976,42.598976 0 0 1 3.71752,3.06269 c 2.76395,2.64301 5.39685,5.42264 8.03718,8.19209 q 10.6739,11.20797 21.01524,22.74077 c 1.40578,1.5703 2.80639,3.14528 4.18292,4.7405 0.47126,0.54522 0.93943,1.09292 1.39868,1.64743 0.17079,0.20692 0.33913,0.41669 0.50856,0.62454 0.3,0.36761 -0.042,-0.0515 -0.0287,-0.0407 a 1.3556328,1.3556328 0 0 1 0.16945,0.2273 1.8195376,1.8195376 45 0 0 2.41808,0.63447 1.7812471,1.7812471 0 0 0 0.63411,-2.41743 c -1.69665,-2.33674 -3.71207,-4.46765 -5.6278,-6.62101 -3.24643,-3.6484 -6.53737,-7.25679 -9.84421,-10.85047 -6.41681,-6.9742 -12.82509,-14.00106 -19.59494,-20.63662 a 31.424762,31.424762 0 0 0 -2.91363,-2.60985 l -13.07116,-9.968 a 1.8276375,1.8276375 0 0 0 -2.49999,0.009 1.7797743,1.7797743 0 0 0 0.008,2.49962 z"
             id="path21008"
             style="stroke-width:0.736357" /></g><ellipse
           class="c"
           cx="5074.6763"
           cy="-455.48303"
           rx="71.888672"
           ry="69.175087"
           id="ellipse21010"
           transform="rotate(29.393416)"
           style="stroke-width:2.21879" /><path
           class="b"
           d="m 4710.2149,2124.4643 c -23.7524,-13.5483 -38.1547,-40.5801 -33.6689,-67.9733 a 62.185913,62.185913 48.550132 0 1 7.0118,-20.3269 c 3.331,-5.9901 -5.8711,-11.1866 -9.2792,-5.2272 -13.0067,22.746 -41.472,34.3493 -66.9608,30.5289 a 65.966722,65.966722 48.000616 0 1 -22.3751,-7.5621 c -5.9903,-3.3261 -11.1879,5.8781 -5.2272,9.2791 23.1471,13.2124 37.4376,40.4563 33.7014,67.1156 a 60.743705,60.743705 48.388923 0 1 -7.0432,21.1828 c -3.3261,5.9903 5.88,11.189 9.2792,5.2272 a 64.076315,64.076315 48.76681 0 1 65.9297,-31.316 73.148934,73.148934 48.682709 0 1 23.4073,8.3472 c 5.9859,3.3339 11.2266,-5.9378 5.2272,-9.2791 a 79.567881,79.567881 47.910978 0 0 -46.448,-10.2208 75.330001,75.330001 47.610915 0 0 -41.1455,17.4633 73.841196,73.841196 48.751952 0 0 -16.2445,19.7685 l 9.2792,5.2272 c 15.28,-27.5137 9.898,-62.1947 -10.1064,-85.8324 a 76.99187,76.99187 47.726699 0 0 -20.6059,-16.9684 l -5.2272,9.2792 c 27.6548,15.3594 63.0287,11.6181 87.5899,-7.9958 a 66.845363,66.845363 47.058051 0 0 16.2491,-19.0172 l -9.2792,-5.2272 c -15.1123,27.1981 -10.6745,61.5663 9.167,85.1403 a 79.672162,79.672162 49.359093 0 0 21.5421,17.6663 c 5.952,3.3987 11.1869,-5.8761 5.2272,-9.2792 z"
           id="path21012"
           style="stroke-width:2.21879" /><ellipse
           class="c"
           cx="4950.293"
           cy="109.45093"
           rx="71.888672"
           ry="69.175087"
           id="ellipse21014"
           transform="rotate(29.393416)"
           style="stroke-width:2.21879" /><path
           class="b"
           d="m 4324.5795,2555.6311 c -23.7524,-13.5483 -38.1492,-40.5898 -33.6678,-67.9753 a 62.177036,62.177036 48.549129 0 1 7.0118,-20.3269 c 3.33,-5.9881 -5.8722,-11.1846 -9.2791,-5.2272 -13.0098,22.7468 -41.4731,34.3512 -66.9628,30.5278 a 65.995566,65.995566 48.003222 0 1 -22.3732,-7.561 c -5.9902,-3.3261 -11.1887,5.875 -5.2271,9.2792 23.1471,13.2123 37.443,40.4466 33.7013,67.1155 a 60.77033,60.77033 48.391867 0 1 -7.0421,21.1809 c -3.3272,5.9921 5.8789,11.1907 9.2792,5.227 a 64.076315,64.076315 48.76681 0 1 65.9275,-31.312 73.148934,73.148934 48.682709 0 1 23.4073,8.3473 c 5.9871,3.3318 11.2258,-5.9408 5.2272,-9.2792 a 79.527941,79.527941 47.908076 0 0 -46.448,-10.2207 75.318905,75.318905 50.177672 0 0 -41.1592,17.4606 73.785727,73.785727 47.505515 0 0 -16.234,19.777 l 9.2792,5.227 c 15.2788,-27.5116 9.8968,-62.1927 -10.1083,-85.8334 a 76.97634,76.97634 47.725605 0 0 -20.6008,-16.9731 l -5.2271,9.2792 c 27.6547,15.3594 63.0278,11.6151 87.591,-7.9978 a 66.836486,66.836486 49.094003 0 0 16.249,-19.0171 l -9.2791,-5.2272 c -15.1182,27.1948 -10.6757,61.5682 9.1669,85.1403 a 79.674386,79.674386 47.918722 0 0 21.5411,17.6682 c 5.9464,3.3905 11.1812,-5.8843 5.2271,-9.2791 z"
           id="path21016"
           style="stroke-width:2.21879" /><ellipse
           class="c"
           cx="4833.1411"
           cy="138.30844"
           rx="37.37323"
           ry="35.964298"
           id="ellipse21018"
           transform="rotate(29.393416)"
           style="stroke-width:2.21879" /><path
           class="b"
           d="m 4178.2652,2506.3306 c -14.6911,-8.477 -21.2187,-27.2504 -12.8848,-42.4244 3.3001,-6.0075 -5.8375,-11.1651 -9.2792,-5.2272 -8.4103,14.5096 -28.6165,18.8294 -42.9604,10.9657 -6.0077,-3.2951 -11.1713,5.8441 -5.2272,9.2792 14.4337,8.3371 21.0917,27.4488 12.8859,42.4224 -3.2932,6.0089 5.8499,11.1746 9.2792,5.2272 8.8206,-15.2921 27.857,-19.2802 42.9593,-10.9638 6.0004,3.3037 11.2526,-5.9613 5.2272,-9.2791 a 43.741147,43.741147 48.513314 0 0 -32.7885,-4.3113 41.491297,41.491297 48.164204 0 0 -24.6772,19.327 l 9.2792,5.2272 c 11.0009,-20.0712 2.5313,-45.6864 -16.9379,-56.9288 l -5.2272,9.2792 c 19.4425,10.6569 46.1362,4.5266 57.4668,-15.0177 l -9.2792,-5.2272 c -11.1601,20.3177 -2.7478,45.5644 16.9368,56.9307 5.9397,3.4249 11.1707,-5.8521 5.2272,-9.2791 z"
           id="path21020"
           style="stroke-width:2.21879" /><path
           d="m 4742.5261,-261.42677 5.3781,4.30852 c 180.3933,-186.59695 404.9415,-417.28791 388.4556,-699.80322 -34.5903,219.522 -185.8934,358.78609 -353.3307,485.12464 42.138,-239.96484 69.7458,-478.32524 33.8561,-714.57727 27.6854,428.34913 -236.8616,918.37774 -370.7159,1504.27872 -133.8543,585.90091 -81.6311,1325.29048 -114.3475,1576.35308 -32.7164,251.0628 -115.7135,402.6304 -136.691,390.2395 -251.1947,-143.8471 -574.5344,-230.7051 -666.3437,-529.416 30.4507,320.1926 362.8814,489.3867 573.6949,667.1065 90.3573,63.5584 172.0976,137.8733 238.7734,208.949 9.1212,38.2117 18.7773,81.2667 27.8987,119.4783 121.8165,481.6865 219.668,865.9553 246.8187,1289.4609 l 398.0598,-66.4454 c -24.0032,-306.1971 -102.8562,-665.1663 -216.6819,-1030.0786 -62.719,-346.0438 -190.2959,-1057.5048 -242.641,-1620.3968 211.6227,-214.5569 449.0965,-461.38201 468.1483,-777.23486 -64.2153,262.0114 -270.9641,431.90906 -479.852,582.43356 -0.5043,-48.9678 -5.8519,-97.4007 -5.8213,-141.5252 -12.6208,-425.10959 113.0445,-840.97571 205.3414,-1248.25537 z"
           fill="#65320b"
           id="path18030"
           sodipodi:nodetypes="cccccccccccccccccccc"
           style="stroke-width:6.30028" /><g
           id="g27171"
           transform="matrix(6.0134064,1.879502,-1.879502,6.0134064,3005.4761,239.60758)"><g
             id="g27177"
             transform="translate(11.226735,-417.85218)"><path
               class="a"
               d="m 212.98169,970.91278 c 3.14529,-3.34053 71.49333,-85.65005 73.68038,-89.6825 2.18705,-4.03245 4.05947,-8.5371 3.12449,-13.0301 -1.4681,-4.10144 -2.43731,-8.36463 -2.88674,-12.69766 -1.42191,-14.90491 4.54907,-29.53887 9.46616,-43.48272 1.60478,-7.17567 10.09563,-30.44324 11.85898,-47.44237 0.63566,-10.25029 2.5231,-19.81063 6.6388,-29.05218 1.5972,-3.58549 4.6987,-7.14085 8.61622,-7.32581 2.24293,-0.10482 6.95302,1.83347 8.44105,3.51432 1.66328,2.15317 2.99118,4.54561 3.93863,7.09609 3.98089,10.65179 3.13386,19.2744 0.23946,30.16318 -0.79563,3.63136 -11.22308,48.27982 38.51169,101.92101 45.36588,39.07579 32.3258,39.31318 -1.50383,59.51916 -5.47369,2.01876 -14.57156,3.38368 -20.27872,4.59564 -2.16224,2.32009 -75.62249,87.22686 -76.97776,90.09416"
               id="path27161"
               style="stroke-width:0.736357"
               sodipodi:nodetypes="csccccccccccccc" /><path
               class="b"
               d="m 337.77939,813.91908 c -0.14148,-4.88439 -1.17153,-9.68872 -1.40752,-14.56888 -0.19722,-4.0698 -0.15112,-8.15296 -0.0189,-12.22396 0.12829,-3.9515 0.34692,-7.90283 0.70071,-11.84056 0.14125,-1.57102 0.23487,-2.53838 0.4387,-3.98794 0.21249,-1.51144 0.61098,-2.95699 0.96978,-4.4401 1.10277,-4.27957 1.72774,-8.6682 1.86344,-13.08548 0.0541,-4.29604 -0.56152,-8.57427 -1.82458,-12.68079 -0.67117,-2.24361 -1.54815,-4.42044 -2.61975,-6.50273 -0.89992,-1.72565 -1.94397,-3.63054 -3.50887,-4.84337 -1.70977,-1.26901 -3.63625,-2.21619 -5.68524,-2.79525 -1.81314,-0.62321 -3.77762,-0.65295 -5.6088,-0.0849 -4.51989,1.53933 -6.9769,5.78397 -8.67382,9.95307 -2.04938,5.04945 -3.56645,10.2989 -4.52659,15.66313 -0.90674,5.03934 -1.07016,10.14244 -1.81305,15.19547 -0.6357,4.31814 -1.5495,8.59286 -2.58133,12.83405 -1.9687,8.07527 -4.42725,16.0149 -6.83065,23.96615 -0.42567,1.40826 -0.84876,2.81798 -1.24872,4.23312 -0.32369,1.14623 -0.55451,2.33465 -0.9528,3.45577 -1.68176,4.74981 -3.4329,9.47574 -4.97409,14.27008 -3.03834,9.44447 -5.3315,19.43548 -4.30724,29.41564 0.28443,2.74806 0.7807,5.47005 1.48437,8.14168 0.62062,2.36699 1.68888,4.61597 1.6084,7.09933 -0.15875,2.30943 -0.77308,4.5646 -1.80756,6.63547 -1.0879,2.39368 -2.42954,4.66369 -4.00189,6.77105 -1.71505,2.19786 -70.80753,85.3587 -72.75129,87.35715 -1.55833,1.65761 0.94896,4.15012 2.50866,2.49158 3.8105,-4.05182 74.64433,-89.30288 77.07011,-94.35025 1.09439,-2.14128 1.86883,-4.43148 2.29859,-6.7975 0.20058,-1.18687 0.26117,-2.39317 0.18054,-3.59416 -0.15193,-1.27674 -0.45025,-2.53176 -0.88908,-3.74031 -1.56855,-4.83971 -2.38318,-9.89193 -2.41528,-14.97937 0.0575,-4.845 0.67527,-9.66709 1.84085,-14.37015 1.18321,-4.81193 2.61368,-9.55966 4.28571,-14.22431 1.33057,-3.82781 2.86961,-7.60411 3.91596,-11.51851 1.79839,-6.73022 4.03802,-13.34204 5.93339,-20.04637 2.37787,-8.42202 4.55172,-16.97249 5.51072,-25.68584 0.2838,-2.58773 0.4005,-5.18338 0.75044,-7.76849 0.3539,-2.62515 0.81785,-5.23562 1.41031,-7.81766 0.58711,-2.57129 1.30859,-5.11004 2.16147,-7.6058 0.73858,-2.35335 1.6852,-4.63628 2.82864,-6.82176 0.88311,-1.7072 2.19427,-3.15591 3.80519,-4.20441 1.34135,-0.84024 2.98435,-1.04809 4.49269,-0.56835 1.66096,0.43384 3.23452,1.15127 4.6513,2.12068 1.47862,1.14395 2.37653,3.12371 3.17743,4.75809 3.68482,7.51513 4.26894,16.12668 2.79959,24.2652 -0.60284,3.34612 -1.65366,6.59032 -2.07301,9.96628 -0.43067,3.46508 -0.68932,6.95185 -0.88358,10.43685 -0.45423,8.12635 -0.63349,16.30619 0.42837,24.39072 0.38614,2.57931 0.64034,5.17664 0.76162,7.78187 0.0658,2.27166 3.60095,2.2254 3.53462,-0.0558 z"
               id="path27163"
               style="stroke-width:0.736357"
               sodipodi:nodetypes="ccscscccccccccccsccccccccccccccccccccccccccccccccccc" /><path
               class="b"
               d="m 386.22667,921.53965 c -2.88454,1.68639 -5.79183,3.33968 -8.75606,4.88399 -2.11717,1.18133 -4.34616,2.15002 -6.65432,2.89186 -4.52571,1.27287 -9.11828,2.29474 -13.75673,3.06092 -1.06215,0.20118 -2.12383,0.40601 -3.18503,0.6145 -1.31928,0.26255 -2.04743,0.45243 -2.97211,1.51029 -1.96849,2.25742 -75.17394,86.64919 -76.47388,89.34749 -0.98433,2.0384 2.09108,3.7895 3.07951,1.7348 0.64691,-1.3542 1.38651,-2.6621 2.21353,-3.9145 0.37395,-0.5618 72.31482,-82.99204 72.72922,-83.52515 0.25656,-0.32791 0.52359,-0.6474 0.79602,-0.96299 0.0676,-0.0794 0.7338,-0.75802 0.38108,-0.54597 0.55955,-0.19227 1.14207,-0.30972 1.73241,-0.3493 0.49499,-0.0975 0.99066,-0.19328 1.48701,-0.28724 1.26189,-0.23967 2.52353,-0.47891 3.78493,-0.71773 4.45941,-0.85586 9.08236,-1.64495 13.32435,-3.31209 5.53728,-2.17816 10.73458,-5.40313 15.83686,-8.4264 6.93719,-4.11265 13.76668,-8.42119 11.95977,-9.36468 -1.80691,-0.9435 -8.59765,3.31475 -15.52656,7.3622 z"
               id="path27165"
               style="stroke-width:0.736357"
               sodipodi:nodetypes="ccccccccccccccccccc" /><path
               class="b"
               d="m 334.65558,831.92751 c 0.50005,6.54934 2.63637,12.87355 3.96073,19.27536 a 35.717722,35.717722 0 0 1 1.0114,8.79224 32.15891,32.15891 0 0 1 -1.64941,7.81903 44.925127,44.925127 0 0 1 -5.27935,11.17221 1.7672603,1.7672603 45 0 0 3.07952,1.73476 45.47224,45.47224 0 0 0 7.26428,-19.41583 30.887222,30.887222 0 0 0 -0.57983,-8.7452 c -0.60407,-3.4496 -1.47423,-6.84541 -2.2993,-10.24625 a 65.898041,65.898041 0 0 1 -1.97627,-10.44461 c -0.17304,-2.25685 -3.70869,-2.22018 -3.53498,0.0565 z"
               id="path27167"
               style="stroke-width:0.736357" /></g></g></g></g></g></svg>
