<?xml version="1.0" encoding="UTF-8" standalone="no"?>
<!-- Created with Inkscape (http://www.inkscape.org/) -->

<svg
   width="200"
   height="300"
   viewBox="0 0 52.916665 79.375"
   version="1.1"
   id="svg4681"
   xml:space="preserve"
   inkscape:version="1.2.1 (9c6d41e4, 2022-07-14)"
   sodipodi:docname="start_anim_1.svg"
   inkscape:export-filename="start_anim_1.png"
   inkscape:export-xdpi="96"
   inkscape:export-ydpi="96"
   xmlns:inkscape="http://www.inkscape.org/namespaces/inkscape"
   xmlns:sodipodi="http://sodipodi.sourceforge.net/DTD/sodipodi-0.dtd"
   xmlns="http://www.w3.org/2000/svg"
   xmlns:svg="http://www.w3.org/2000/svg"><sodipodi:namedview
     id="namedview4683"
     pagecolor="#ffffff"
     bordercolor="#666666"
     borderopacity="1.0"
     inkscape:showpageshadow="2"
     inkscape:pageopacity="0.0"
     inkscape:pagecheckerboard="0"
     inkscape:deskcolor="#d1d1d1"
     inkscape:document-units="mm"
     showgrid="false"
     inkscape:zoom="6.0796678"
     inkscape:cx="-11.596028"
     inkscape:cy="281.10089"
     inkscape:window-width="1792"
     inkscape:window-height="1022"
     inkscape:window-x="0"
     inkscape:window-y="25"
     inkscape:window-maximized="1"
     inkscape:current-layer="layer1" /><defs
     id="defs4678">
	
	
	
	
	
	
<style
   id="style20996">.a{fill:#fce0cd;}.b{fill:#211916;}.c{fill:#f5e06c;}</style></defs><g
     inkscape:label="Layer 1"
     inkscape:groupmode="layer"
     id="layer1"><path
       class="a"
       d="m -7.8706286,59.082621 c 0.2436364,0.141049 6.1184785,3.069845 6.3900133,3.143955 0.2715341,0.07411 0.56686411,0.122806 0.82214088,0.004 0.22441387,-0.145195 0.4654827,-0.262856 0.71801077,-0.350446 0.87039589,-0.293889 1.82824615,-0.142373 2.73009955,-0.04413 0.4511289,-0.0047 1.9600243,0.176267 3.0001692,0.04329 0.6212011,-0.105731 1.2187374,-0.127012 1.8284697,-0.01073 0.2365666,0.04514 0.4924228,0.180564 0.5583897,0.41198 0.037705,0.132509 -0.012045,0.441033 -0.091588,0.553483 -0.1052997,0.129539 -0.2295938,0.242401 -0.3686614,0.33475 -0.5804646,0.387122 -1.1074017,0.457407 -1.7984073,0.437162 -0.2280695,0.0034 -0.964519,0.11993 -1.554224,0.262699 0.033597,0.281673 0.2426507,0.612863 0.4179848,0.812888 0.238468,0.137949 1.0794678,0.793183 1.3417259,0.90995 0.822658,0.437219 1.2054816,0.615939 2.0066745,0.966808 0.6098637,0.26706 1.4901456,0.668642 1.967806,0.909138 0.486941,0.17173 1.295471,0.597977 1.444284,0.73912 0.148814,0.14114 0.24799,0.341784 0.196453,0.54041 -0.0869,0.334907 -0.315097,0.457843 -0.617763,0.532158 -0.328782,0.08066 -1.007153,-0.13807 -1.6400316,-0.448694 C 8.7828396,68.596234 8.0347557,68.240034 7.5917731,68.050249 6.923239,67.784179 6.2326858,67.522818 5.4687482,67.259163 c -0.2269926,-0.06711 -0.4583268,0.559712 -0.3487566,0.695532 0.3919464,0.260263 1.6150779,1.058355 2.0906465,1.368625 0.4647302,0.242578 2.0147024,1.211608 2.3681237,1.437496 0.4578542,0.292848 0.9212362,0.524027 1.2998412,0.937878 0.285512,0.312028 0.1512,0.773793 0.03925,0.9021 -0.111949,0.128306 -0.380385,0.204794 -0.561326,0.190713 C 9.8593661,72.753854 8.9689572,72.153766 8.767749,72.035428 8.7490152,72.024435 7.171817,71.15764 6.541998,70.762562 5.7452871,70.327042 4.9482673,69.904417 4.1329269,69.467113 c -0.1825132,-0.01953 -0.4945422,0.320605 -0.4403572,0.57998 0.1802712,0.361789 1.0287595,1.202908 1.3523537,1.489576 0.5087359,0.421938 1.2003195,1.07572 1.5762108,1.386271 l 1.2240797,1.146221 c 0.1873219,0.175419 0.3917492,0.391744 0.316889,0.658733 -0.039227,0.128769 -0.1318862,0.234481 -0.2544062,0.290241 -0.2476043,0.118336 -0.5187759,0.06113 -0.7643571,-0.02751 C 6.7052251,74.832689 6.151396,74.460751 5.8128736,74.14091 5.487993,73.891738 4.37794,72.975876 4.0743914,72.668774 3.7678267,72.468012 2.7699112,71.589167 2.5897608,71.436858 2.4008703,71.280461 2.133194,71.341363 2.0454706,71.431908 c -0.092767,0.09577 -0.1857698,0.200453 -0.116183,0.315023 0.2217041,0.528559 0.4166404,1.067951 0.5840675,1.616126 0.1420111,0.2923 0.3116232,0.671365 0.4234332,0.975975 0.2141378,0.391471 0.4011479,0.894235 0.3114082,1.255276 -0.015968,0.07484 -0.046105,0.145938 -0.088788,0.209455 -0.072811,0.07552 -0.1749433,0.115523 -0.2796768,0.109544 C 2.6935049,75.910621 2.5192945,75.809817 2.3892749,75.67686 2.2592574,75.543901 2.1662165,75.379336 2.0748239,75.217036 1.9694713,75.02989 1.7903192,74.763927 1.6849165,74.576956 L 0.9572293,73.246063 C 0.65837136,72.768501 0.39730517,72.268307 0.17641529,71.750051 0.12421979,71.627592 0.0742627,71.504229 0.0243192,71.380822 -0.06044108,71.17152 -0.40546198,70.867905 -0.81527157,70.45864 -1.4222526,70.014868 -2.9234184,68.508301 -3.2066298,68.07975 -3.403954,67.781087 -3.6130292,67.256771 -3.7654331,66.93285 -3.9343333,66.836217 -10.035988,63.63846 -10.226263,63.597702"
       id="path21000"
       style="stroke-width:0.0451806"
       sodipodi:nodetypes="csccccccccccccccscccccccccscccccccccccccccccccccscccsccccc" /><path
       class="b"
       d="m 3.2567607,64.336376 c 0.28978,-0.07693 0.562321,-0.205806 0.8505239,-0.288319 0.2403404,-0.06883 0.4848895,-0.123324 0.7299194,-0.172497 0.2378367,-0.04773 0.4769302,-0.09007 0.7171061,-0.124136 0.095823,-0.01358 0.1549202,-0.02156 0.2443656,-0.0297 0.093263,-0.0085 0.1851976,-0.005 0.27882,-0.0043 0.2710948,0.0059 0.5420063,-0.01832 0.8077708,-0.07213 0.2573772,-0.057 0.5043025,-0.153745 0.731894,-0.286762 C 7.7417704,63.286992 7.859507,63.204084 7.968868,63.110881 8.059331,63.032931 8.1584808,62.943865 8.20899,62.833384 8.260823,62.713462 8.290395,62.585109 8.296259,62.454597 8.308067,62.337555 8.282304,62.219791 8.2227,62.11837 8.0673858,61.869959 7.7793924,61.782699 7.5065666,61.739781 7.1762127,61.688151 6.8413751,61.671121 6.507488,61.688971 c -0.3137315,0.01648 -0.6208504,0.07826 -0.9331016,0.104725 -0.2668519,0.02256 -0.5350081,0.02791 -0.8028165,0.02573 -0.509966,-0.0044 -1.0186979,-0.03994 -1.5273503,-0.07204 -0.090089,-0.0057 -0.1802273,-0.0112 -0.2703671,-0.01524 -0.073006,-0.0033 -0.1472311,-4.69e-4 -0.2197833,-0.0085 -0.3073016,-0.03387 -0.6141488,-0.07222 -0.9221401,-0.09707 -0.606749,-0.04909 -1.23569941,-0.04601 -1.81749376,0.15509 -0.1601653,0.05551 -0.31580304,0.123318 -0.46552565,0.202806 -0.13268851,0.07025 -0.2520529,0.165594 -0.40152208,0.195602 -0.14017637,0.02289 -0.28349901,0.01781 -0.42170241,-0.01494 -0.1582353,-0.03143 -0.3126406,-0.07975 -0.4605646,-0.144125 -0.1553295,-0.07164 -6.0914607,-3.032963 -6.2380858,-3.121056 -0.1208611,-0.06985 -0.2345986,0.114866 -0.1136625,0.184781 0.2954505,0.170814 6.3808504,3.206858 6.7163568,3.281 0.1432494,0.03535 0.2909085,0.04951 0.43826542,0.04201 0.073708,-0.0047 0.14661445,-0.01795 0.21722457,-0.0396 0.0741338,-0.02698 0.14491959,-0.06239 0.21095904,-0.105545 0.26710436,-0.161544 0.55747383,-0.281031 0.86091618,-0.354269 0.29021691,-0.06449 0.5869192,-0.09519 0.88419219,-0.0915 0.3040229,0.0032 0.6076767,0.02211 0.9097548,0.05659 0.2473037,0.02582 0.4944524,0.06481 0.7429431,0.07244 0.4272345,0.01307 0.8535815,0.05416 1.2806286,0.07339 0.5364158,0.02397 1.0776442,0.03395 1.6115707,-0.03092 0.1585536,-0.01933 0.3152377,-0.04874 0.4745623,-0.06408 0.1617723,-0.01566 0.32421,-0.02455 0.4867512,-0.02535 0.1618236,-9.37e-4 0.3235873,0.0065 0.4846257,0.02249 0.1509286,0.01113 0.3005678,0.03567 0.4471448,0.07333 0.114358,0.02882 0.2192758,0.08683 0.304491,0.168357 0.068995,0.06835 0.1044439,0.163575 0.096933,0.260399 -0.00263,0.105296 -0.023425,0.20935 -0.061471,0.30757 -0.047604,0.10436 -0.1532739,0.18575 -0.2396739,0.256503 -0.3972512,0.325464 -0.9034634,0.481081 -1.4102081,0.507405 -0.2083286,0.0109 -0.4168488,-0.0064 -0.6243863,0.01589 -0.2130207,0.02285 -0.4249247,0.05628 -0.6358208,0.09354 -0.4917862,0.08679 -0.9829136,0.190756 -1.4509481,0.367522 -0.1486585,0.05923 -0.3002436,0.110822 -0.4541637,0.154589 -0.1347728,0.03578 -0.08245,0.246297 0.052885,0.210354 z"
       id="path21002"
       style="stroke-width:0.0451806"
       sodipodi:nodetypes="ccscscccccccccccsccccccccccccccccccccccccccccccccccc" /><path
       class="b"
       d="m 4.2632783,63.924255 c 0.050829,0.292979 0.223572,0.598527 0.4256212,0.815105 0.059794,0.05248 0.1249032,0.09858 0.1942694,0.13754 0.085137,0.05872 0.1691938,0.119066 0.2531947,0.179437 0.1928687,0.138639 0.3847999,0.278887 0.5811197,0.412933 0.1744659,0.115975 0.3555552,0.221664 0.5423442,0.316524 1.0774831,0.56679 2.205495,1.022539 3.3051676,1.542701 0.2285448,0.108114 0.4530979,0.217984 0.6869779,0.31339 0.247838,0.102733 0.490336,0.217902 0.726571,0.345064 0.103243,0.05486 0.205699,0.111455 0.305654,0.17213 0.03816,0.02316 0.0761,0.04693 0.113014,0.07209 0.01321,0.009 0.02619,0.01819 0.03904,0.02756 0.02506,0.01819 0.0034,1.56e-4 0.02228,0.01757 0.100395,0.0843 0.166251,0.202602 0.185006,0.332348 0.0035,0.128788 -0.04221,0.254071 -0.127881,0.350301 -0.145242,0.166017 -0.402684,0.239156 -0.61696,0.226783 -0.302138,-0.01746 -0.603236,-0.126024 -0.882305,-0.235769 C 9.8449583,68.882557 9.6823448,68.794146 9.5115957,68.726472 9.3490666,68.662081 9.1813121,68.60986 9.018273,68.54593 8.7071217,68.423861 8.400542,68.290417 8.0950757,68.154756 7.4960197,67.888715 6.885165,67.653921 6.2695026,67.428884 6.0938457,67.364663 5.9177174,67.301528 5.7411166,67.23948 5.6248807,67.198591 5.4862713,67.117758 5.3601308,67.158159 c -0.1816244,0.05845 -0.2842814,0.282463 -0.3361766,0.449748 -0.029325,0.08531 -0.042578,0.175324 -0.039088,0.265469 0.00259,0.08561 0.050188,0.163497 0.1251918,0.204855 0.1649764,0.109232 0.3303041,0.217954 0.4959823,0.326168 0.4204399,0.275716 0.8412798,0.55081 1.2625195,0.825284 0.3011947,0.196568 0.6150762,0.369205 0.9236057,0.554117 0.4047374,0.242617 0.806063,0.490501 1.2063018,0.740186 0.3771249,0.235309 0.7583172,0.465682 1.1319207,0.70632 0.144808,0.09111 0.283632,0.191401 0.415622,0.300255 0.116617,0.09825 0.251714,0.208363 0.326059,0.343979 0.09105,0.183442 0.09386,0.39831 0.0076,0.58405 -0.007,0.01502 -0.01492,0.02961 -0.02365,0.04371 -0.0048,0.0078 -0.0097,0.01543 -0.01513,0.0228 -0.01144,0.01573 0.01678,-0.01809 -0.0039,0.0044 -0.04667,0.04663 -0.103368,0.08199 -0.165776,0.10337 -0.114575,0.04606 -0.239137,0.06162 -0.36152,0.04514 C 10.082012,72.642585 9.8623361,72.535683 9.6593049,72.431729 9.3591525,72.278087 9.082993,72.086197 8.7887557,71.923358 8.0909367,71.5371 7.3897731,71.153777 6.7088209,70.738261 6.4293246,70.56775 6.1363225,70.418486 5.8480614,70.263262 5.5126063,70.082561 5.1768023,69.902576 4.8406507,69.723303 4.6710666,69.63265 4.5015473,69.541938 4.3320923,69.451163 c -0.065141,-0.0349 -0.1403358,-0.09385 -0.217035,-0.09282 -0.056474,0.0024 -0.1116261,0.01785 -0.1611744,0.04505 -0.2072723,0.106943 -0.3899157,0.36697 -0.3747264,0.605899 0.00609,0.09539 0.062928,0.172197 0.1164108,0.24808 0.062681,0.08876 0.1301806,0.174216 0.2000535,0.257491 0.1625188,0.193765 0.3360873,0.378317 0.5130028,0.558949 0.3442993,0.351484 0.7157618,0.665786 1.0830083,0.992507 0.4458774,0.396682 0.8980609,0.788326 1.3335694,1.196253 l 0.8474215,0.793575 c 0.1704576,0.15961 0.4790034,0.394066 0.3780507,0.665855 C 7.934945,75.033675 7.5222509,74.997253 7.269569,74.918972 6.9770963,74.828339 6.705859,74.672974 6.4519611,74.504389 6.2240068,74.353073 6.0262901,74.171814 5.811897,74.003921 5.6623865,73.886899 5.5153589,73.766834 5.3686867,73.646356 5.0108724,73.352295 4.6531846,73.05634 4.3109314,72.744167 4.2542507,72.692431 4.201273,72.633772 4.1419354,72.585357 4.0848977,72.53874 4.0211927,72.498891 3.9624924,72.453626 3.7944356,72.323836 3.6316273,72.187147 3.4693665,72.050192 3.296732,71.904457 3.1250946,71.757506 2.9544527,71.609337 2.8392135,71.509743 2.7225683,71.382082 2.5899086,71.305559 2.3293839,71.154993 1.9961261,71.244219 1.8456839,71.504815 c -0.09566,0.161167 -0.00975,0.296988 0.053263,0.45218 0.070624,0.173994 0.1384984,0.349083 0.2036231,0.525275 0.063991,0.173071 0.125159,0.347172 0.1835022,0.522303 0.054631,0.164475 0.096248,0.33505 0.1709709,0.49157 0.071733,0.15029 0.140642,0.301877 0.2067287,0.454761 0.064169,0.14847 0.1133323,0.307311 0.1839519,0.452196 0.1423675,0.291556 0.2931632,0.590546 0.3125426,0.921208 0.00741,0.126019 -0.00288,0.270565 -0.067234,0.382862 C 3.0179853,75.838002 2.8251255,75.815709 2.7068137,75.7682 2.3950359,75.642933 2.2549409,75.300757 2.092078,75.033455 1.9179232,74.747678 1.7466751,74.464205 1.5860345,74.170449 1.4016998,73.833028 1.2307172,73.482027 1.027982,73.155165 0.8373301,72.847522 0.66228479,72.530478 0.50351047,72.205235 0.42405961,72.042638 0.34873906,71.878071 0.27754994,71.711537 0.21606039,71.567937 0.16923832,71.410434 0.09293513,71.274108 -0.03243838,71.050101 -0.24291789,70.868242 -0.42408162,70.690895 -0.54052007,70.577121 -0.65218844,70.447232 -0.78179908,70.348687 -0.8437741,70.301578 -0.9046642,70.253325 -0.96439331,70.20334 -1.1284403,70.066056 -1.2874467,69.922424 -1.4439678,69.776881 -1.8041843,69.44215 -2.1537457,69.096209 -2.4926522,68.73906 -2.6338256,68.590396 -2.7733409,68.439911 -2.9071441,68.284496 -3.0073901,68.17459 -3.0965018,68.055023 -3.1731726,67.927548 -3.3126524,67.675053 -3.4380765,67.415046 -3.54887,67.148715 c -0.026908,-0.06063 -0.054026,-0.121172 -0.081357,-0.181638 -0.034179,-0.07513 -0.055729,-0.115959 -0.131882,-0.156364 -0.1624408,-0.08594 -6.2297605,-3.275694 -6.409164,-3.315517 -0.13556,-0.03022 -0.197046,0.178033 -0.06046,0.208271 0.08996,0.01966 0.178456,0.0455 0.2648597,0.07734 0.038802,0.01446 5.9712226,3.156179 6.008877,3.173458 0.023184,0.01073 0.046012,0.0222 0.068682,0.03405 0.00569,0.0029 0.055567,0.03321 0.037956,0.01512 0.019329,0.03073 0.034511,0.06388 0.045152,0.09859 0.012764,0.0282 0.025433,0.05647 0.038004,0.0848 0.032008,0.07202 0.063985,0.144027 0.095934,0.216026 0.1136407,0.25438 0.2255851,0.519465 0.3846389,0.749483 0.2077363,0.300228 0.4732379,0.565472 0.7253589,0.827869 0.3429166,0.356729 0.696026,0.70428 1.0610887,1.038363 0.1550783,0.141926 0.312575,0.281354 0.4760783,0.41354 0.0769159,0.05974 0.15079378,0.123296 0.22135487,0.190425 0.12160233,0.119976 0.2448675,0.238273 0.36554948,0.359156 0.0950537,0.0922 0.18490259,0.189616 0.26913243,0.291796 0.0665835,0.09248 0.11921776,0.194242 0.15621924,0.302023 0.13927304,0.34128 0.29138678,0.676735 0.46244121,1.00334 0.17327035,0.330965 0.37275752,0.646488 0.55185697,0.974063 l 0.5575509,1.01928 c 0.1479969,0.270702 0.3216422,0.527116 0.4761458,0.794203 0.1647628,0.284744 0.3866378,0.580513 0.7314272,0.643424 0.1536499,0.02804 0.3224594,0.0048 0.4423254,-0.102135 0.098575,-0.08806 0.1395287,-0.237585 0.1587445,-0.363923 0.048151,-0.3176 -0.056175,-0.644266 -0.1787367,-0.933554 C 3.1254216,74.460042 3.0459979,74.318906 2.9864963,74.167321 2.9252062,74.011092 2.860083,73.856402 2.7911259,73.703248 2.7245939,73.554328 2.6406826,73.407748 2.5928226,73.251875 2.5394162,73.078426 2.4828113,72.906057 2.4230079,72.734766 2.3618525,72.559163 2.2978697,72.384605 2.2310587,72.211092 c -0.033123,-0.08611 -0.06681,-0.172007 -0.1010602,-0.25769 -0.042279,-0.08709 -0.079111,-0.176716 -0.110285,-0.268367 -0.015385,-0.06045 0.04289,-0.114055 0.082004,-0.154969 0.039217,-0.04122 0.091298,-0.06784 0.1476687,-0.07551 0.1086072,-0.01824 0.2195253,0.01502 0.3001832,0.09 0.3065079,0.263034 0.6103522,0.529246 0.9208397,0.787646 0.153771,0.127951 0.3078314,0.256691 0.4693646,0.374756 0.050622,0.03611 0.098192,0.07632 0.1422296,0.120224 0.066973,0.06296 0.1354978,0.124294 0.2043789,0.185216 0.3586967,0.317275 0.7275561,0.623529 1.0991945,0.925555 0.387467,0.314758 0.760545,0.649428 1.1941192,0.901451 0.2623185,0.15254 0.5496968,0.293301 0.8522912,0.339825 0.296695,0.04561 0.6501098,-0.03369 0.7963331,-0.323995 C 8.3662753,74.581249 8.2294302,74.309079 8.0366159,74.10558 7.7870376,73.842372 7.5065918,73.60398 7.241886,73.356092 6.7834553,72.926645 6.3128282,72.512476 5.8454451,72.092804 5.4671867,71.75329 5.0742946,71.431452 4.7134235,71.073039 4.5297619,70.890686 4.3500528,70.704116 4.1781302,70.51049 4.0478914,70.363543 3.8909846,70.204903 3.8043149,70.026003 c -0.033545,-0.0692 0.027387,-0.197922 0.081191,-0.274371 0.047248,-0.06716 0.1341241,-0.164023 0.2203575,-0.175689 0.011947,-0.0016 0.021261,0.0062 -7.339e-4,-1.56e-4 0.019872,0.0085 0.038938,0.01874 0.056967,0.03065 l 0.12764,0.06838 0.26874,0.143867 c 0.1686799,0.0902 0.3373702,0.180425 0.5060702,0.270664 0.5728214,0.306507 1.1480583,0.608256 1.7065055,0.940136 0.4068621,0.241775 0.8192374,0.474284 1.2320582,0.705745 0.2355882,0.131986 0.4745489,0.258834 0.7084243,0.393804 0.3683071,0.21285 0.7182183,0.448398 1.1103175,0.618662 0.2070118,0.08991 0.4357078,0.17417 0.6650688,0.149804 0.234822,-0.02584 0.486122,-0.122542 0.588972,-0.34998 0.09635,-0.210025 0.108831,-0.448927 0.03488,-0.667846 -0.108175,-0.296876 -0.406834,-0.51369 -0.654868,-0.69097 C 10.188306,70.997463 9.9002154,70.837112 9.622998,70.660535 9.4964257,70.579888 9.3694496,70.499877 9.2420702,70.420499 8.8451399,70.172058 8.4464504,69.926381 8.0460017,69.683471 7.7315793,69.493413 7.4051053,69.320887 7.097603,69.120277 6.6809827,68.848366 6.2645737,68.576267 5.8483766,68.303979 5.6655837,68.184274 5.4829206,68.064342 5.3003858,67.944178 c -0.030091,-0.01984 -0.059674,-0.04206 -0.090779,-0.06003 -0.00507,-0.0029 -0.013219,-0.01249 -0.018734,-0.01244 l -0.00458,-0.003 c 0.024569,0.03119 0.031345,0.03805 0.020327,0.02058 -0.00157,7.81e-4 -0.00446,-0.01818 -0.00421,-0.01256 -0.00194,-0.08146 0.01185,-0.162535 0.040608,-0.238777 0.025745,-0.0816 0.066938,-0.157485 0.1213359,-0.22353 0.017764,-0.01858 0.037745,-0.0349 0.059502,-0.04859 0.00675,-0.0044 0.016935,-0.0024 0.00491,-0.0043 0.045211,0.01102 0.089367,0.026 0.131958,0.04475 0.3548802,0.123612 0.7081975,0.251631 1.0599532,0.384059 0.3234917,0.121697 0.6498849,0.240852 0.96782,0.37618 0.2713606,0.115554 0.5389993,0.239718 0.8098261,0.356621 0.3196681,0.13795 0.6422022,0.270238 0.9712426,0.384325 0.1720058,0.05962 0.3343059,0.148786 0.5030212,0.217796 0.1593382,0.06613 0.3219402,0.124094 0.4871752,0.173678 0.245216,0.0724 0.525074,0.143279 0.780966,0.0878 0.249159,-0.054 0.49896,-0.176823 0.624527,-0.409099 0.07325,-0.125682 0.104802,-0.271336 0.09014,-0.416064 -0.023,-0.141303 -0.08713,-0.272695 -0.184388,-0.377755 -0.124152,-0.140853 -0.30556,-0.231614 -0.467394,-0.320927 -0.241281,-0.133121 -0.489169,-0.254658 -0.741535,-0.36531 -0.108958,-0.04781 -0.222126,-0.0863 -0.330744,-0.134152 C 10.017637,67.313302 9.9074531,67.253189 9.7952793,67.1996 9.2460238,66.937193 8.6908524,66.686901 8.1332242,66.442483 7.5771079,66.19869 7.027911,65.942888 6.4893888,65.662143 6.2837283,65.560916 6.0838141,65.448408 5.8905608,65.325132 5.6949122,65.193966 5.504465,65.055088 5.3133355,64.917423 5.2294784,64.857047 5.1456334,64.796627 5.0610384,64.737165 4.9964867,64.6918 4.9244141,64.652252 4.8625634,64.603578 4.7727969,64.532924 4.7012782,64.402645 4.6434428,64.303669 4.5614809,64.171033 4.504061,64.02473 4.4739284,63.871753 c -0.023832,-0.137515 -0.234298,-0.08424 -0.2103537,0.05289 z"
       id="path21004"
       style="stroke-width:0.0451806"
       sodipodi:nodetypes="cccccccccsccccccccccccccccccccccccccccccccccccccccccccccccccccccccccccccccccccccsccsccccccccccccccccccscccccccccscccccccccccccccccccsccccccccscccccccccccccccccccsccccccccccccccccccccccccccccccccc" /><path
       class="b"
       d="M 2.1372536,64.402239 C 1.7530464,64.523925 1.4052259,64.740194 1.0413862,64.90905 a 2.1915297,2.1915297 0 0 1 -0.51101511,0.183673 1.9731718,1.9731718 0 0 1 -0.49018455,0.01109 2.7564677,2.7564677 0 0 1 -0.74137144,-0.158731 0.10843366,0.10843366 0 0 0 -0.0604519,0.208271 2.790037,2.790037 0 0 0 1.26162159,0.161732 1.895145,1.895145 0 0 0 0.51425581,-0.157235 c 0.1975898,-0.08444 0.3882367,-0.184027 0.579815,-0.280989 a 4.0433012,4.0433012 0 0 1 0.5961919,-0.264473 c 0.1323849,-0.04197 0.080628,-0.25266 -0.052932,-0.210365 z"
       id="path21006"
       style="stroke-width:0.0451806" /><path
       class="b"
       d="m 3.2533026,65.535544 -0.3623469,0.809293 a 2.6137421,2.6137421 0 0 1 -0.1308308,0.265 C 2.6409957,66.81199 2.5118685,67.008232 2.383453,67.204773 q -0.5198585,0.794719 -1.0637819,1.574125 c -0.074092,0.105987 -0.148537,0.211732 -0.2245277,0.31632 -0.025962,0.03579 -0.052115,0.07144 -0.078799,0.106644 -0.00997,0.0131 -0.0201371,0.0261 -0.0301776,0.03913 -0.0177526,0.02307 0.002484,-0.0032 0.00203,-0.0023 a 0.08317746,0.08317746 0 0 1 -0.0112022,0.0133 0.11164123,0.11164123 0 0 0 -0.004001,0.153338 0.10929184,0.10929184 0 0 0 0.1532925,0.004 C 1.2420828,69.275224 1.3411164,69.124962 1.442888,68.980339 1.6153095,68.735271 1.784717,68.488104 1.9530229,68.240192 2.2796618,67.759121 2.6095658,67.277819 2.9110268,66.780406 a 1.9281269,1.9281269 0 0 0 0.1150503,-0.21063 L 3.438259,65.649243 a 0.11213822,0.11213822 0 0 0 -0.035585,-0.149208 0.10920148,0.10920148 0 0 0 -0.1491995,0.03552 z"
       id="path21008"
       style="stroke-width:0.0451806" /><ellipse
       class="c"
       cx="13.384293"
       cy="8.5718184"
       rx="1.4638513"
       ry="1.4085953"
       id="ellipse21010"
       transform="rotate(73.932589)"
       style="stroke-width:0.0451806" /><path
       class="b"
       d="m -4.0232835,16.610522 c -0.1512412,-0.535881 0.025804,-1.133919 0.4821498,-1.467435 a 1.2662763,1.2662763 0 0 1 0.3920863,-0.19488 c 0.1338983,-0.03937 0.074557,-0.246216 -0.060021,-0.208396 -0.5136466,0.144367 -1.0925133,-0.09377 -1.4078927,-0.513263 a 1.343264,1.343264 0 0 1 -0.2167486,-0.429326 c -0.039437,-0.13383 -0.2463328,-0.07447 -0.2083941,0.06002 0.1472517,0.52236 -0.034444,1.121879 -0.469429,1.455449 a 1.236909,1.236909 0 0 1 -0.4047647,0.206853 c -0.1338302,0.03944 -0.074463,0.246378 0.060021,0.208396 a 1.3047701,1.3047701 0 0 1 1.4041689,0.487113 1.4895136,1.4895136 0 0 1 0.2205156,0.455464 c 0.039264,0.13388 0.2477483,0.07416 0.2083949,-0.06002 a 1.6202211,1.6202211 0 0 0 -0.5281693,-0.811731 1.5339262,1.5339262 0 0 0 -0.8466011,-0.334192 1.50361,1.50361 0 0 0 -0.518113,0.05491 l 0.060022,0.208395 c 0.6147331,-0.181098 1.0319461,-0.761327 1.0792058,-1.390113 a 1.5677664,1.5677664 0 0 0 -0.056726,-0.540581 l -0.2083949,0.06002 c 0.1820109,0.617903 0.7488627,1.068824 1.3854767,1.13494 a 1.3611556,1.3611556 0 0 0 0.5074493,-0.04394 l -0.060021,-0.208396 c -0.6077932,0.178912 -1.034242,0.741114 -1.0829557,1.366651 a 1.6223445,1.6223445 0 0 0 0.060345,0.564081 c 0.037845,0.134336 0.2462903,0.07449 0.2083957,-0.06002 z"
       id="path21012"
       style="stroke-width:0.0451806" /><ellipse
       class="c"
       cx="10.851509"
       cy="20.075428"
       rx="1.4638513"
       ry="1.4085953"
       id="ellipse21014"
       transform="rotate(73.932589)"
       style="stroke-width:0.0451806" /><path
       class="b"
       d="m -15.778472,17.36068 c -0.151239,-0.53588 0.02602,-1.133981 0.482195,-1.467447 a 1.2660956,1.2660956 0 0 1 0.392086,-0.19488 c 0.133855,-0.03935 0.07451,-0.246203 -0.06002,-0.208395 -0.513702,0.144336 -1.092557,-0.09376 -1.407905,-0.513307 a 1.3438514,1.3438514 0 0 1 -0.216735,-0.429282 c -0.03944,-0.13383 -0.246303,-0.07453 -0.208396,0.06002 0.147254,0.52236 -0.03423,1.121816 -0.469428,1.455449 a 1.2374512,1.2374512 0 0 1 -0.404722,0.20684 c -0.133872,0.03945 -0.0745,0.246388 0.06002,0.208395 a 1.3047701,1.3047701 0 0 1 1.404081,0.487139 1.4895136,1.4895136 0 0 1 0.220515,0.455463 c 0.03931,0.133868 0.247779,0.07411 0.208395,-0.06002 a 1.6194078,1.6194078 0 0 0 -0.528169,-0.81173 1.5337002,1.5337002 0 0 0 -0.846762,-0.334428 1.5024805,1.5024805 0 0 0 -0.518083,0.05518 l 0.06002,0.208395 c 0.614688,-0.181085 1.031902,-0.761315 1.079193,-1.390155 a 1.5674502,1.5674502 0 0 0 -0.05658,-0.540576 l -0.208394,0.06002 c 0.182011,0.617901 0.748895,1.068768 1.385521,1.134928 a 1.3609748,1.3609748 0 0 0 0.507448,-0.04394 l -0.06002,-0.208395 c -0.607831,0.178781 -1.034285,0.741126 -1.082955,1.366649 a 1.6223898,1.6223898 0 0 0 0.0603,0.564095 c 0.03788,0.134137 0.246327,0.07429 0.208395,-0.06002 z"
       id="path21016"
       style="stroke-width:0.0451806" /><ellipse
       class="c"
       cx="8.4659729"
       cy="20.663048"
       rx="0.76102179"
       ry="0.73233211"
       id="ellipse21018"
       transform="rotate(73.932589)"
       style="stroke-width:0.0451806" /><path
       class="b"
       d="m -17.197946,14.555418 c -0.09215,-0.332858 0.08123,-0.698564 0.418911,-0.799772 0.133698,-0.04006 0.07474,-0.245422 -0.06002,-0.208396 -0.329297,0.09047 -0.684268,-0.135422 -0.780141,-0.454419 -0.04013,-0.133631 -0.245609,-0.07473 -0.208397,0.06002 0.09042,0.327151 -0.08591,0.699629 -0.418868,0.799758 -0.133617,0.04018 -0.07469,0.245739 0.06002,0.208396 0.34643,-0.09597 0.679684,0.118031 0.780101,0.454434 0.0399,0.133649 0.248461,0.07419 0.208395,-0.06002 a 0.89069014,0.89069014 0 0 0 -0.414316,-0.530871 0.84487702,0.84487702 0 0 0 -0.634201,-0.07194 l 0.06002,0.208396 c 0.446334,-0.134194 0.68925,-0.626938 0.567244,-1.068175 l -0.208397,0.06002 c 0.129983,0.432359 0.604969,0.724632 1.04856,0.602794 l -0.06002,-0.208396 c -0.452162,0.135499 -0.690649,0.622076 -0.567284,1.06819 0.03729,0.134541 0.245713,0.07461 0.208395,-0.06002 z"
       id="path21020"
       style="stroke-width:0.0451806" /><path
       d="m 44.478935,6.0541187 4.69e-4,0.067108 C 46.997854,6.335865 50.120823,6.6127534 52.152785,4.7508121 50.282387,5.8396583 48.300262,5.5535939 46.316516,5.0662043 48.387699,3.9086302 50.357411,2.6512025 51.920693,0.92725616 48.856379,3.7706354 43.529092,4.7866164 38.281597,7.3791045 33.034104,9.9715933 27.771947,14.913143 25.674903,16.210111 c -2.097044,1.296969 -3.751996,1.602366 -3.78744,1.367755 -0.458604,-2.781487 -1.791236,-5.757283 -0.100215,-8.2876096 -2.230587,2.1991026 -1.463788,5.7499086 -1.509305,8.4347816 0.07574,1.073193 0.01727,2.147467 -0.109388,3.088063 -0.23245,0.303877 -0.498185,0.641578 -0.730636,0.945454 -2.888176,3.882209 -5.188112,6.984341 -8.219141,9.793896 l 2.94979,2.59722 c 2.164558,-2.064347 4.390288,-4.867425 6.445817,-7.971142 2.227349,-2.601752 6.815184,-7.940555 10.743809,-11.797576 2.921643,0.278508 6.245935,0.553778 8.748193,-1.244835 -2.373439,1.126449 -4.927874,0.610094 -7.349173,-0.04156 0.366667,-0.304957 0.69951,-0.643197 1.032894,-0.914329 3.132501,-2.7097029 7.045654,-4.3183248 10.688756,-6.1261123 z"
       fill="#65320b"
       id="path18030"
       sodipodi:nodetypes="cccccccccccccccccccc"
       style="stroke-width:0.0613568" /></g></svg>
