<?xml version="1.0" encoding="UTF-8" standalone="no"?>
<!-- Created with Inkscape (http://www.inkscape.org/) -->

<svg
   width="100"
   height="100"
   viewBox="0 0 26.458333 26.458333"
   version="1.1"
   id="svg75724"
   xml:space="preserve"
   inkscape:version="1.2.2 (732a01da63, 2022-12-09)"
   sodipodi:docname="dios_veles.svg"
   xmlns:inkscape="http://www.inkscape.org/namespaces/inkscape"
   xmlns:sodipodi="http://sodipodi.sourceforge.net/DTD/sodipodi-0.dtd"
   xmlns:xlink="http://www.w3.org/1999/xlink"
   xmlns="http://www.w3.org/2000/svg"
   xmlns:svg="http://www.w3.org/2000/svg"><sodipodi:namedview
     id="namedview75726"
     pagecolor="#ffffff"
     bordercolor="#000000"
     borderopacity="0.25"
     inkscape:showpageshadow="2"
     inkscape:pageopacity="0.0"
     inkscape:pagecheckerboard="0"
     inkscape:deskcolor="#d1d1d1"
     inkscape:document-units="mm"
     showgrid="false"
     inkscape:zoom="2.6456983"
     inkscape:cx="84.287765"
     inkscape:cy="22.678322"
     inkscape:window-width="1366"
     inkscape:window-height="705"
     inkscape:window-x="-8"
     inkscape:window-y="-8"
     inkscape:window-maximized="1"
     inkscape:current-layer="layer1" /><defs
     id="defs75721"><linearGradient
       inkscape:collect="always"
       id="linearGradient80718"><stop
         style="stop-color:#f2f2f2;stop-opacity:1;"
         offset="0"
         id="stop80714" /><stop
         style="stop-color:#f2f2f2;stop-opacity:0;"
         offset="1"
         id="stop80716" /></linearGradient><linearGradient
       inkscape:collect="always"
       id="linearGradient80710"><stop
         style="stop-color:#cccccc;stop-opacity:1;"
         offset="0"
         id="stop80706" /><stop
         style="stop-color:#cccccc;stop-opacity:0;"
         offset="1"
         id="stop80708" /></linearGradient><linearGradient
       inkscape:collect="always"
       id="linearGradient80694"><stop
         style="stop-color:#2b1100;stop-opacity:1;"
         offset="0"
         id="stop80690" /><stop
         style="stop-color:#2b1100;stop-opacity:0;"
         offset="1"
         id="stop80692" /></linearGradient><linearGradient
       inkscape:collect="always"
       id="linearGradient80565"><stop
         style="stop-color:#800000;stop-opacity:1;"
         offset="0"
         id="stop80561" /><stop
         style="stop-color:#800000;stop-opacity:0"
         offset="1"
         id="stop80563" /></linearGradient><linearGradient
       inkscape:collect="always"
       xlink:href="#linearGradient80565"
       id="linearGradient80567"
       x1="89.804588"
       y1="103.60529"
       x2="86.004387"
       y2="157.60803"
       gradientUnits="userSpaceOnUse"
       gradientTransform="matrix(0.24882368,0,0,0.24882368,-7.6231249,-14.366267)" /><linearGradient
       inkscape:collect="always"
       xlink:href="#linearGradient80694"
       id="linearGradient80696"
       x1="56.202869"
       y1="110.40563"
       x2="60.203072"
       y2="161.80824"
       gradientUnits="userSpaceOnUse"
       gradientTransform="matrix(0.24882368,0,0,0.24882368,-7.6231249,-14.366267)" /><linearGradient
       inkscape:collect="always"
       xlink:href="#linearGradient80710"
       id="linearGradient80712"
       x1="92.658089"
       y1="100.51178"
       x2="95.843826"
       y2="139.48531"
       gradientUnits="userSpaceOnUse"
       gradientTransform="matrix(0.24882368,0,0,0.24882368,-8.3973222,-14.999701)" /><linearGradient
       inkscape:collect="always"
       xlink:href="#linearGradient80718"
       id="linearGradient80720"
       x1="86.412857"
       y1="138.74142"
       x2="85.564285"
       y2="142.27715"
       gradientUnits="userSpaceOnUse"
       gradientTransform="matrix(0.24882368,0,0,0.24882368,-7.6231249,-14.366267)" /></defs><g
     inkscape:label="Capa 1"
     inkscape:groupmode="layer"
     id="layer1"><path
       style="opacity:1;fill:url(#linearGradient80567);fill-opacity:1;fill-rule:nonzero;stroke:none;stroke-width:0.0811168;stroke-dasharray:none;stroke-opacity:1;paint-order:fill markers stroke"
       d="m 12.506,9.3875082 c 0,0 -1.266868,-0.1407629 -1.548395,0 -0.281526,0.1407629 -1.5483931,0.7741968 -1.7947289,0.9501508 -0.2463348,0.175953 -0.5630525,0.45748 -0.6334345,0.809387 -0.07038,0.351909 -0.7390064,1.090915 -0.9149592,1.161297 -0.1759549,0.07038 -0.3519077,0.07038 -0.3519077,0.07038 0,0 -1.8299215,0.84458 -2.1466383,1.090915 -0.3167167,0.246336 -0.7390064,0 -0.7741974,0.91496 -0.035185,0.914959 -0.3519077,1.548395 -0.3870976,2.076257 -0.035195,0.527862 -0.2111449,1.126104 0.1759528,1.30206 0.3870997,0.175952 0.8797703,0.598241 1.5483948,0.633432 0.6686244,0.03519 0.9149602,0.281527 1.196486,-0.140764 0.2815268,-0.422289 0.8797703,-0.950151 1.161296,-1.231677 0.2815268,-0.281527 0.4574807,-0.492668 1.0557232,-0.774195 0.5982436,-0.281527 1.1964868,-0.774198 1.3020588,-0.950154 0.105573,-0.175952 -0.6686242,0.563054 -0.6686242,1.090916 0,0.527862 0.1055729,0.914959 0.2111448,1.478012 0.1055724,0.563054 0.07038,0.774198 0,1.161295 -0.07038,0.3871 -0.1407629,0.598245 -0.1407629,0.985343 0,0.387099 -1.1261052,5.137855 -1.1261052,5.137855 l -0.07038,1.055722 c 0,0 1.5483945,-0.211144 2.6041175,-0.140762 1.055723,0.07038 3.343124,-0.105574 4.609992,0.07038 1.266868,0.175956 2.815262,0.387099 3.483889,0.351908 0.668623,-0.03519 1.266865,-0.774197 1.231677,-1.090915 -0.0352,-0.316715 -0.739007,-1.653965 -0.809389,-2.146637 -0.07038,-0.492671 -0.281527,-1.478013 -0.422288,-2.111445 -0.140765,-0.633436 -0.316718,-1.196489 -0.316718,-1.583587 0,-0.387097 -0.351909,-2.604116 -0.351909,-2.885643 0,-0.281526 0,-0.809388 0,-0.809388 0,0 0.03519,3.800605 0.3871,4.258085 0.351906,0.457479 0.633432,0.809386 0.985341,1.055724 0.351907,0.246336 0.422289,0.598241 0.739006,1.02053 0.316716,0.422292 0.457481,0.527862 0.739007,0.563053 0.281527,0.0352 1.126104,0.246336 1.126104,0.246336 0,0 0.246336,-0.07038 0.3871,-0.316718 0.140762,-0.246335 0.422288,-1.055722 0.527859,-1.302057 0.105574,-0.246335 0.246336,-0.703815 0.246336,-0.703815 0,0 0.140765,-1.337251 0.140765,-1.478013 0,-0.140765 -0.387101,-0.774197 -0.387101,-0.774197 l -0.45748,-0.35191 -1.161295,-0.563052 c 0,0 -0.703814,-0.422289 -0.703814,-0.633434 0,-0.211144 -0.0352,-0.527861 -0.281527,-0.527861 -0.246336,0 -0.633435,0 -0.633435,0 l 0.387099,-0.07038 c 0,0 0.07038,-0.246336 -0.140761,-0.422289 -0.211147,-0.175954 -0.527863,-0.492672 -0.527863,-0.492672 l -0.601131,-1.518162 -0.199068,-0.945577 -0.298604,-1.244184 c 0,0 -0.547439,-1.393482 -0.796277,-1.642318 C 17.857721,9.770864 15.618195,9.6713293 15.369358,9.6215625 15.120521,9.5717997 12.506002,9.3875102 12.506002,9.3875102 Z"
       id="path78831" /><path
       style="opacity:1;fill:url(#linearGradient80720);fill-opacity:1;fill-rule:nonzero;stroke:none;stroke-width:0.0811168;stroke-dasharray:none;stroke-opacity:1;paint-order:fill markers stroke"
       d="M 12.506,9.633844 C 12.365237,9.2115543 11.379895,8.9300286 11.16875,9.2819363 10.957605,9.633844 10.676079,10.548804 10.676079,10.548804 c 0,0 -0.07038,0.422289 0.211144,0.91496 0.281527,0.49267 0.774198,1.337251 1.266869,2.041065 0.492671,0.703815 1.126104,0.844577 1.126104,1.337249 0,0.49267 -0.140761,0.351909 -0.07038,1.126106 0.07038,0.774195 0.07038,1.266868 0.140763,2.32259 0.07038,1.055724 -0.422288,2.604119 -0.422288,2.956026 0,0.351908 -0.211145,0.844579 -0.211145,1.407633 0,0.56305 -0.211145,2.111445 -0.281527,2.392972 -0.07038,0.281526 -0.07038,0.563053 0.351908,0.49267 0.422289,-0.07038 0.49267,-1.266868 0.703815,-2.463354 0.211145,-1.196486 0.703816,-3.870985 0.703816,-4.574803 0,-0.703815 0.281526,-2.533734 0.281526,-3.026405 0,-0.492671 0.633435,-1.196486 -0.140762,-2.041066 -0.774198,-0.844577 -1.478013,-1.618775 -1.548395,-2.041063 -0.07038,-0.422291 -0.140763,-0.879772 0.140764,-1.090916 C 13.209816,10.091323 12.47081,9.4578901 12.47081,9.4578901 Z"
       id="path78867"
       sodipodi:nodetypes="cscssssssssssssssscc" /><path
       style="opacity:1;fill:url(#linearGradient80712);fill-opacity:1;fill-rule:nonzero;stroke:none;stroke-width:0.0811168;stroke-dasharray:none;stroke-opacity:1;paint-order:fill markers stroke"
       d="M 14.617446,4.4959906 C 14.476683,4.3904187 14.159967,4.2144648 13.984012,4.3552277 13.808059,4.4959906 13.913632,4.5311816 13.737677,4.4959906 13.561723,4.4607955 13.596914,4.2496548 13.280196,4.4607955 12.96348,4.6719404 12.681954,5.1998029 12.611572,5.4109468 c -0.07038,0.2111448 -0.45748,0.7390064 -0.527862,0.9149602 -0.07038,0.1759539 0,0.9501512 0,1.266868 0,0.3167167 -0.316717,0.7741974 -0.316717,0.7741974 0,0 -0.211144,0.4574802 -0.175953,0.5982431 0.03519,0.1407628 0.211145,0.5278615 0.140763,0.7038154 -0.07038,0.1759538 -0.211145,0.2111448 -0.211145,0.3870981 0,0.175953 0.0352,0.563053 0.140763,0.809389 0.105572,0.246335 0.387098,0.914959 0.45748,1.055724 0.07038,0.140762 0.387099,0.703815 0.387099,0.703815 v 0.316715 c 0,0 0.246335,-0.56305 0.175954,-0.703815 -0.07038,-0.140762 0.211145,0.246336 0.211145,0.527862 0,0.281526 0.07038,0.527862 0.281525,0.703815 0.211145,0.175956 0.45748,0.422289 0.527862,0.703815 0.07038,0.281527 0.140763,0.668627 0.140763,0.668627 l 0.105573,-1.020533 c 0,0 0.140763,0.175953 0.140763,0.527862 0,0.351907 0.45748,1.302057 0.45748,1.302057 0,0 0.598243,0.422292 0.668625,0.668627 0.07038,0.246335 0.246336,0.739006 0.246336,0.914959 0,0.175954 0,0.633433 0,0.633433 0,0 0.387097,-0.879768 0.387097,-1.126104 0,-0.246335 0.07038,-0.703815 -0.105572,-1.020533 -0.175953,-0.316718 -0.316716,-0.598241 -0.316716,-0.598241 0,0 0.351907,-0.422291 0.563052,-0.598245 0.211145,-0.175953 0.527862,-0.598241 0.739007,-0.774197 0.211143,-0.175953 0.49267,-0.527862 0.668623,-0.809389 0.175954,-0.281524 0.316718,-0.56305 0.316718,-0.56305 l 0.07038,-0.387101 c 0,0 0.211143,0.527863 0.316714,0.809389 0.105574,0.281526 0.246336,0.387098 0.246336,0.387098 0,0 -0.175954,-0.633433 -0.246336,-0.879769 -0.07038,-0.246335 -0.246335,-0.914959 0,-0.45748 0.246336,0.45748 0.351909,0.774198 0.563054,0.985342 0.211144,0.211144 0.633435,0.281527 0.633435,0.281527 0,0 -0.527862,-0.246336 -0.668626,-0.598244 -0.140763,-0.351907 -0.105571,-0.563054 -0.175954,-0.91496 -0.07038,-0.351909 -0.316718,-0.985342 -0.422289,-1.161296 -0.105572,-0.175955 -0.246334,-0.5630523 -0.246334,-0.950151 0,-0.3870987 -0.105574,-0.7390064 -0.246336,-0.9149602 C 17.397514,8.4021633 17.362323,7.7687288 17.151179,7.4520121 16.940034,7.1352954 16.799272,6.9241505 16.658509,6.6426238 16.517746,6.361098 16.623314,6.2907171 16.412173,5.6924725 16.201029,5.09423 16.623317,4.8830852 15.743548,4.6015584 14.863778,4.3200326 14.617443,4.4959865 14.617443,4.4959865 Z"
       id="path78829" /><path
       style="opacity:1;fill:#2b2b2b;fill-opacity:0.968627;fill-rule:nonzero;stroke:none;stroke-width:0.0811168;stroke-dasharray:none;stroke-opacity:1;paint-order:fill markers stroke"
       d="M 14.097486,5.5044177 12.604468,4.5588388 11.559355,4.4095372 c 0,0 -0.895811,-0.298604 -0.995346,-0.7962764 C 10.464474,3.1155874 10.016571,2.2695442 9.867268,2.020708 9.7179655,1.7718708 9.0212247,1.423501 9.0212247,1.423501 c 0,0 0.1493015,0.8460432 0.3981377,1.2939488 0.2488363,0.4479055 0.348371,1.2939498 0.3981378,1.5427859 0.049763,0.2488362 0.2986048,0.9953448 0.5972078,1.0948795 0.298604,0.099536 1.244182,0.2488372 1.64232,0.298604 0.398138,0.049773 0.945578,0.7465086 0.945578,0.7465086 0,0 0.597207,0.2488361 0.796277,0 0.199069,-0.2488362 0.298603,-0.8958101 0.298603,-0.8958101 z"
       id="path78815" /><path
       style="opacity:1;fill:url(#linearGradient80696);fill-opacity:1;fill-rule:nonzero;stroke:none;stroke-width:0.0811168;stroke-dasharray:none;stroke-opacity:1;paint-order:fill markers stroke"
       d="M 4.7640287,4.6015635 C 5.0807465,5.1646161 6.875475,23.287865 6.875475,23.287865 l 0.07038,0.91496 c 0,0 0.3870987,-0.105571 0.5630525,-0.316715 0.1759539,-0.211147 -1.231677,-20.1643158 -1.231677,-20.1643158 0,0 -0.2111448,-1.4076318 0.4574807,-1.3020589 0.6686244,0.1055719 2.1114463,1.2668669 2.1114463,1.2668669 0,0 0.1055719,-1.4780117 -0.105573,-1.7595385 C 8.5294396,1.6455379 8.7757795,1.2584392 7.7200523,1.2232483 6.6643291,1.1880634 5.3270792,1.4695841 5.1159344,1.7511098 4.9047895,2.0326356 4.6232638,2.736452 4.7640267,3.5458394 c 0.1407628,0.8093883 0,1.0557241 0,1.0557241 z"
       id="path78863" /><path
       style="opacity:1;fill:#2b2b2b;fill-opacity:0.968627;fill-rule:nonzero;stroke:none;stroke-width:0.0811168;stroke-dasharray:none;stroke-opacity:1;paint-order:fill markers stroke"
       d="M 15.092832,5.2555805 16.58585,4.3100026 17.630961,4.1607011 c 0,0 0.895812,-0.2986041 0.995347,-0.7962764 0.09954,-0.4976734 0.547439,-1.3437167 0.696742,-1.5925539 0.149301,-0.2488362 0.846042,-0.597206 0.846042,-0.597206 0,0 -0.149302,0.8460432 -0.398138,1.2939488 -0.248836,0.4479055 -0.348371,1.2939498 -0.398137,1.5427849 -0.04976,0.2488372 -0.298603,0.9953458 -0.597207,1.0948805 -0.298604,0.099536 -1.24418,0.2488362 -1.642321,0.298604 -0.398138,0.049763 -0.945577,0.7465086 -0.945577,0.7465086 0,0 -0.597207,0.2488362 -0.796276,0 -0.19907,-0.2488362 -0.298604,-0.8958111 -0.298604,-0.8958111 z"
       id="path78817" /><path
       style="opacity:1;fill:#fcdfa4;fill-opacity:1;fill-rule:nonzero;stroke:none;stroke-width:0.0811168;stroke-dasharray:none;stroke-opacity:1;paint-order:fill markers stroke"
       d="m 14.097486,5.9523232 c -0.09954,0.1990684 -1.144648,0.6967407 -1.144648,0.6967407 l 0.09954,0.8958121 c 0,0 -0.398138,0.2986031 -0.199069,0.5972071 0.199069,0.298603 0.447905,0.7465081 0.447905,0.7465081 0,0 0.09954,0.7465096 0.398139,0.7465096 0.298604,0 0.54744,-0.7962764 0.54744,-0.7962764 l 0.248836,0.3483709 0.447906,-0.1493015 0.54744,0.1493015 0.497673,0.4479055 -0.09954,-0.9953457 0.348371,-0.6469745 c 0,0 -0.149302,-0.4976724 -0.298604,-0.8460433 C 15.789573,6.7983665 15.739806,6.6988318 15.739806,6.6988318 L 14.843995,6.2509262 Z"
       id="path78819" /><path
       style="opacity:1;fill:#ffffff;fill-opacity:0.968627;fill-rule:nonzero;stroke:none;stroke-width:0.0811168;stroke-dasharray:none;stroke-opacity:1;paint-order:fill markers stroke"
       d="m 14.230348,8.006271 -0.351907,-0.079184 -0.351909,-0.00877 0.0088,0.1143697 c 0,0 0.369504,0.2023471 0.422289,0.1847516 0.05278,-0.017597 0.237538,-0.1319662 0.237538,-0.1319662 z"
       id="path78821"
       sodipodi:nodetypes="ccccscc" /><path
       style="opacity:1;fill:#ffffff;fill-opacity:0.968627;fill-rule:nonzero;stroke:none;stroke-width:0.0811168;stroke-dasharray:none;stroke-opacity:1;paint-order:fill markers stroke"
       d="m 14.9066,7.9798778 0.422288,-0.052782 0.316718,-0.017598 -0.09677,0.1495596 c 0,0 -0.316717,0.1495617 -0.369503,0.1319652 -0.05278,-0.017598 -0.237539,-0.1319652 -0.237539,-0.1319652 z"
       id="path78823"
       sodipodi:nodetypes="ccccscc" /><path
       style="opacity:1;fill:none;fill-opacity:0.968627;fill-rule:nonzero;stroke:#d38d5f;stroke-width:0.0811168;stroke-dasharray:none;stroke-opacity:0.302789;paint-order:fill markers stroke"
       d="m 14.713356,7.8185956 c 0,0.04355 0.161744,0.5536611 0.167964,0.6096498 0.0062,0.055986 0.04355,0.3110443 0.07465,0.3483695 0.0311,0.037327 0.09953,0.037327 0.13686,0.068431 0.03733,0.031104 0.105755,0.1306389 0.105755,0.1306389 l 0.0062,0.037327"
       id="path78825" /><path
       style="opacity:1;fill:none;fill-opacity:0.968627;fill-rule:nonzero;stroke:#d38d5f;stroke-width:0.0811168;stroke-dasharray:none;stroke-opacity:0.302789;paint-order:fill markers stroke"
       d="m 15.497216,6.9065591 c 0,0 -0.439885,0.2463358 -0.580648,0.2639313 -0.140763,0.017597 -0.739006,0.017597 -0.739006,0.017597 l -0.404694,-0.1231673 -0.08798,-0.052782"
       id="path78833" /><path
       style="opacity:1;fill:none;fill-opacity:0.968627;fill-rule:nonzero;stroke:#d38d5f;stroke-width:0.0811168;stroke-dasharray:none;stroke-opacity:0.302789;paint-order:fill markers stroke"
       d="m 15.796338,7.1880849 c 0,0 -0.774198,0.2111448 -0.87977,0.2287403 -0.105572,0.017597 -0.281526,0.017597 -0.510267,0.017597 -0.228739,0 -0.49267,-0.035195 -0.49267,-0.035195"
       id="path78835" /><path
       style="opacity:1;fill:#e6e6e6;fill-opacity:0.968627;fill-rule:nonzero;stroke:#cccccc;stroke-width:0.0811168;stroke-dasharray:none;stroke-opacity:1;paint-order:fill markers stroke"
       d="m 14.230348,9.0004095 c -0.07038,0 -0.527862,0.1583594 -0.633434,0.3343132 -0.105573,0.1759529 -0.316718,0.6334335 -0.334313,0.7566003 -0.0176,0.123169 -0.08798,0.598243 -0.140763,0.668625 -0.05278,0.07038 -0.140763,0.175956 -0.140763,0.175956 0,0 0.545457,-0.263932 0.633435,-0.404694 0.08798,-0.140766 0.193549,-0.527863 0.281525,-0.6334357 0.08798,-0.1055719 -0.07038,-0.2287393 0.42229,-0.2815258 0.492671,-0.052782 0.897365,0.052782 0.932556,0.1407639 0.03519,0.087977 0.475075,0.6510276 0.475075,0.6510276 l 0.49267,0.299123 0.246336,0.175953 c 0,0 -0.175954,-0.228739 -0.246336,-0.42229 -0.07038,-0.193549 -0.175952,-0.5806462 -0.175952,-0.7038136 0,-0.1231684 0.03518,-0.1759549 -0.123169,-0.2639313 -0.158358,-0.087977 -0.563052,-0.3167167 -0.739006,-0.3695032 -0.175954,-0.052782 -0.404694,0.07038 -0.563053,0.07038 -0.158358,0 -0.387098,-0.1935493 -0.387098,-0.1935484 z"
       id="path78839" /><path
       style="opacity:0.0880282;fill:#666666;fill-opacity:0.968627;fill-rule:nonzero;stroke:none;stroke-width:0.0811168;stroke-dasharray:none;stroke-opacity:1;paint-order:fill markers stroke"
       d="m 14.353515,9.8449888 c 0,0 0.334313,0.105573 0.510266,0.07038 0.175955,-0.035195 0.22874,-0.1407639 0.22874,-0.1407639 0,0 -0.07038,0.4398851 -0.08798,0.5278611 -0.0176,0.08798 -0.03519,0.316718 -0.03519,0.387098 0,0.07038 -0.26393,0.05279 -0.26393,0.05279 0,0 -0.140764,-0.351909 -0.175954,-0.475077 -0.03519,-0.123168 -0.08798,-0.3343116 -0.08798,-0.3343116 v 0 z"
       id="path78841" /><path
       style="opacity:1;fill:#fcdfa4;fill-opacity:1;fill-rule:nonzero;stroke:#deaa87;stroke-width:0.0881336;stroke-dasharray:none;stroke-opacity:1;paint-order:fill markers stroke"
       d="m 5.3950761,12.212327 c 0,0 0.5888734,-0.02483 0.7066473,0.02483 0.1177749,0.04965 -0.029441,0.124127 0.1472184,0.124127 0.1766618,0 0.7066483,0 0.7066483,0 l 0.2649923,0.546161 c 0,0 0.029441,0.124129 -0.1766618,0.124129 -0.2061053,0 -0.5888725,0.02483 -0.8538658,-0.02483 -0.2649932,-0.04965 -0.2649932,-0.04965 -0.5299855,-0.04965 -0.2649932,0 -0.4710985,0.04965 -0.4710985,0.04965 l 1.1483024,-0.04965 c 0,0 0.4416551,0 0.7360918,0.04965 0.2944358,0.04965 0.3533227,0.223431 0.3533227,0.223431 L 7.2500259,13.47843 c 0,0 -0.2355488,0.124125 -0.3533227,0.124125 -0.1177749,0 -0.3238812,-0.173776 -0.7066484,-0.148951 -0.3827671,0.02483 -0.7949787,0.148951 -0.7949787,0.148951 H 5.1300828 l -0.088335,0.02483 1.2660774,-0.223431 c 0,0 0.500542,0.148953 0.6772038,0.148953 0.1766619,0 0.3238802,0.248254 0.3238802,0.248254 l -0.500542,0.223432 c 0,0 -0.1766618,0 -0.500542,0 -0.3238802,0 -0.2355498,0 -0.55943,0.07447 -0.3238803,0.07448 -0.618317,0.124129 -0.618317,0.124129 0,0 1.3544088,-0.273082 1.619401,-0.273082 0.2649933,0 0.5005421,-0.04965 0.5005421,-0.04965 0,0 0.1177749,0.07447 0.029441,0.198601 -0.088335,0.124129 0.1177739,0.07448 -0.2649933,0.173778 -0.3827671,0.0993 -0.6477604,0.148954 -0.8244222,0.173779 -0.1766618,0.02483 -0.7066474,0.148954 -0.7066474,0.148954 l -0.2944367,0.07447"
       id="path78845" /><path
       style="opacity:0.1875;fill:#4d4d4d;fill-opacity:0.968627;fill-rule:nonzero;stroke:#4d4d4d;stroke-width:0.0811168;stroke-dasharray:none;stroke-opacity:1;paint-order:fill markers stroke"
       d="m 5.8389235,13.155036 0.074654,0.273721"
       id="path78847" /><path
       style="opacity:0.1875;fill:#4d4d4d;fill-opacity:0.968627;fill-rule:nonzero;stroke:#4d4d4d;stroke-width:0.0811168;stroke-dasharray:none;stroke-opacity:1;paint-order:fill markers stroke"
       d="M 5.8389235,12.458294 V 12.70713"
       id="path78849" /><path
       style="opacity:0.1875;fill:#4d4d4d;fill-opacity:0.968627;fill-rule:nonzero;stroke:#4d4d4d;stroke-width:0.0811168;stroke-dasharray:none;stroke-opacity:1;paint-order:fill markers stroke"
       d="m 6.0131084,13.627826 v 0.298603"
       id="path78851" /><path
       style="opacity:1;fill:none;fill-opacity:0.968627;fill-rule:nonzero;stroke:#000000;stroke-width:0.0811168;stroke-dasharray:none;stroke-opacity:1;paint-order:fill markers stroke"
       d="M 6.1126431,14.324567 Z"
       id="path78853" /><path
       style="opacity:0.1875;fill:#4d4d4d;fill-opacity:0.968627;fill-rule:nonzero;stroke:#4d4d4d;stroke-width:0.0811168;stroke-dasharray:none;stroke-opacity:1;paint-order:fill markers stroke"
       d="m 6.4112471,12.508062 0.1119754,0.373252 0.5101151,-0.01243 -0.1679641,-0.385697 z"
       id="path78855"
       sodipodi:nodetypes="ccccc" /><path
       style="opacity:0.1875;fill:#4d4d4d;fill-opacity:0.968627;fill-rule:nonzero;stroke:#4d4d4d;stroke-width:0.0811168;stroke-dasharray:none;stroke-opacity:1;paint-order:fill markers stroke"
       d="m 6.4361295,13.155036 c 0,0.08709 0.055986,0.167963 0.055986,0.167963 0,0 0.4976734,0.09331 0.559882,0.09331 0.062208,0 0.167965,-0.261279 0.167965,-0.261279 0,0 -0.7962764,0.02488 -0.7838357,0 z"
       id="path78857"
       sodipodi:nodetypes="ccscc" /><path
       style="opacity:0.1875;fill:#4d4d4d;fill-opacity:0.968627;fill-rule:nonzero;stroke:#4d4d4d;stroke-width:0.0811168;stroke-dasharray:none;stroke-opacity:1;paint-order:fill markers stroke"
       d="m 6.6974084,13.652707 c -0.3536216,-0.05848 -0.058067,0.132713 -0.08709,0.199072 0,0 0.3732553,-0.02488 0.4354648,-0.03733 0.062209,-0.01245 0.1244181,-0.149303 0.1244181,-0.149303 H 6.8218296 Z"
       id="path78859"
       sodipodi:nodetypes="ccsccc" /><path
       style="opacity:0.1875;fill:#4d4d4d;fill-opacity:0.968627;fill-rule:nonzero;stroke:#4d4d4d;stroke-width:0.0811168;stroke-dasharray:none;stroke-opacity:1;paint-order:fill markers stroke"
       d="m 6.8591526,14.162823 c 0,0 -0.074654,0.09954 0.049763,0.08709 0.1244181,-0.01244 0.3359291,-0.161745 0.3359291,-0.161745 0,0 -0.012446,-0.07465 -0.062209,-0.06221 -0.049763,0.01244 -0.2737196,0.08709 -0.2737196,0.08709 H 6.884035 Z"
       id="path78861" /><path
       style="opacity:1;fill:#2b0000;fill-opacity:0.968627;fill-rule:nonzero;stroke:none;stroke-width:0.0811168;stroke-dasharray:none;stroke-opacity:1;paint-order:fill markers stroke"
       d="m 5.8886903,12.035272 c 0,0 -0.5723236,-0.348371 -0.6967417,-0.149302 -0.1244181,0.199069 -0.6220905,0.597207 -0.6469749,0.89581 -0.024881,0.298606 -0.099536,0.59721 0,0.920695 0.099536,0.323489 0.1741859,0.522557 0.4479055,1.343718 0.2737206,0.82116 0.6220905,1.517901 0.8460443,1.84139 0.2239527,0.323485 0.3981377,0.522555 0.3981377,0.522555 0,0 -0.024881,-1.716971 -0.024881,-1.891155 0,-0.174187 0.049763,-0.398138 -0.099536,-0.47279 C 5.9633416,14.971539 5.7145054,14.772471 5.5900873,14.2748 5.4656692,13.777127 5.3412511,13.428757 5.4159024,13.030619 5.4905567,12.632478 5.5652039,12.209458 5.689622,12.134806 5.81404,12.060162 5.8886913,12.03527 5.8886913,12.03527 Z"
       id="path78843" /></g></svg>
