<?xml version="1.0" encoding="UTF-8" standalone="no"?>
<!-- Created with Inkscape (http://www.inkscape.org/) -->

<svg
   width="150"
   height="150"
   viewBox="0 0 39.6875 39.6875"
   version="1.1"
   id="svg82275"
   xml:space="preserve"
   inkscape:version="1.2.1 (9c6d41e4, 2022-07-14)"
   sodipodi:docname="oshosi.svg"
   xmlns:inkscape="http://www.inkscape.org/namespaces/inkscape"
   xmlns:sodipodi="http://sodipodi.sourceforge.net/DTD/sodipodi-0.dtd"
   xmlns:xlink="http://www.w3.org/1999/xlink"
   xmlns="http://www.w3.org/2000/svg"
   xmlns:svg="http://www.w3.org/2000/svg"><sodipodi:namedview
     id="namedview82277"
     pagecolor="#ffffff"
     bordercolor="#000000"
     borderopacity="0.25"
     inkscape:showpageshadow="2"
     inkscape:pageopacity="0.0"
     inkscape:pagecheckerboard="0"
     inkscape:deskcolor="#d1d1d1"
     inkscape:document-units="mm"
     showgrid="false"
     inkscape:zoom="2.6456983"
     inkscape:cx="81.075004"
     inkscape:cy="71.058745"
     inkscape:window-width="1792"
     inkscape:window-height="1022"
     inkscape:window-x="0"
     inkscape:window-y="25"
     inkscape:window-maximized="1"
     inkscape:current-layer="layer1" /><defs
     id="defs82272"><linearGradient
       inkscape:collect="always"
       id="linearGradient95486"><stop
         style="stop-color:#000000;stop-opacity:1;"
         offset="0"
         id="stop95482" /><stop
         style="stop-color:#000000;stop-opacity:0;"
         offset="1"
         id="stop95484" /></linearGradient><linearGradient
       inkscape:collect="always"
       id="linearGradient95478"><stop
         style="stop-color:#2b1100;stop-opacity:1;"
         offset="0"
         id="stop95474" /><stop
         style="stop-color:#2b1100;stop-opacity:0;"
         offset="1"
         id="stop95476" /></linearGradient><linearGradient
       inkscape:collect="always"
       id="linearGradient95466"><stop
         style="stop-color:#502d16;stop-opacity:1;"
         offset="0"
         id="stop95462" /><stop
         style="stop-color:#502d16;stop-opacity:0;"
         offset="1"
         id="stop95464" /></linearGradient><linearGradient
       inkscape:collect="always"
       id="linearGradient95458"><stop
         style="stop-color:#a05a2c;stop-opacity:1;"
         offset="0"
         id="stop95454" /><stop
         style="stop-color:#a05a2c;stop-opacity:0;"
         offset="1"
         id="stop95456" /></linearGradient><linearGradient
       inkscape:collect="always"
       id="linearGradient92951"><stop
         style="stop-color:#2b1100;stop-opacity:1;"
         offset="0"
         id="stop92947" /><stop
         style="stop-color:#2b1100;stop-opacity:0;"
         offset="1"
         id="stop92949" /></linearGradient><linearGradient
       inkscape:collect="always"
       xlink:href="#linearGradient92951"
       id="linearGradient92953"
       x1="13.753928"
       y1="27.790714"
       x2="14.319643"
       y2="33.271069"
       gradientUnits="userSpaceOnUse"
       gradientTransform="matrix(-1,0,0,1,42.398737,0)" /><linearGradient
       inkscape:collect="always"
       xlink:href="#linearGradient92951"
       id="linearGradient93009"
       x1="12.587143"
       y1="28.020536"
       x2="12.905357"
       y2="31.450178"
       gradientUnits="userSpaceOnUse"
       gradientTransform="matrix(-1,0,0,1,42.398737,0)" /><linearGradient
       inkscape:collect="always"
       xlink:href="#linearGradient92951"
       id="linearGradient95442"
       x1="12.463393"
       y1="28.515535"
       x2="13.082143"
       y2="30.583929"
       gradientUnits="userSpaceOnUse"
       gradientTransform="matrix(-1,0,0,1,42.398737,0)" /><linearGradient
       inkscape:collect="always"
       xlink:href="#linearGradient92951"
       id="linearGradient95444"
       x1="12.463393"
       y1="28.515535"
       x2="13.082143"
       y2="30.583929"
       gradientUnits="userSpaceOnUse"
       gradientTransform="matrix(-1,0,0,1,42.398737,0)" /><linearGradient
       inkscape:collect="always"
       xlink:href="#linearGradient95458"
       id="linearGradient95460"
       x1="14.991428"
       y1="26.022858"
       x2="15.415714"
       y2="32.422501"
       gradientUnits="userSpaceOnUse"
       gradientTransform="matrix(-1,0,0,1,42.398737,0)" /><linearGradient
       inkscape:collect="always"
       xlink:href="#linearGradient95466"
       id="linearGradient95468"
       x1="14.001427"
       y1="22.840715"
       x2="14.956072"
       y2="28.674643"
       gradientUnits="userSpaceOnUse"
       gradientTransform="matrix(-1,0,0,1,42.398737,0)" /><linearGradient
       inkscape:collect="always"
       xlink:href="#linearGradient95466"
       id="linearGradient95470"
       x1="14.001427"
       y1="22.840715"
       x2="14.956072"
       y2="28.674643"
       gradientUnits="userSpaceOnUse"
       gradientTransform="matrix(-1,0,0,1,42.398737,0)" /><linearGradient
       inkscape:collect="always"
       xlink:href="#linearGradient95466"
       id="linearGradient95472"
       x1="14.001427"
       y1="22.840715"
       x2="14.956072"
       y2="28.674643"
       gradientUnits="userSpaceOnUse"
       gradientTransform="matrix(-1,0,0,1,42.398737,0)" /><linearGradient
       inkscape:collect="always"
       xlink:href="#linearGradient95478"
       id="linearGradient95480"
       x1="12.445714"
       y1="22.840714"
       x2="12.799286"
       y2="28.285715"
       gradientUnits="userSpaceOnUse"
       gradientTransform="matrix(-1,0,0,1,42.398737,0)" /><linearGradient
       inkscape:collect="always"
       xlink:href="#linearGradient95486"
       id="linearGradient95488"
       x1="12.162857"
       y1="22.168928"
       x2="11.385"
       y2="26.376429"
       gradientUnits="userSpaceOnUse"
       gradientTransform="matrix(-1,0,0,1,42.398737,0)" /><linearGradient
       inkscape:collect="always"
       xlink:href="#linearGradient95486"
       id="linearGradient95490"
       x1="12.162857"
       y1="22.168928"
       x2="11.385"
       y2="26.376429"
       gradientUnits="userSpaceOnUse"
       gradientTransform="matrix(-1,0,0,1,42.398737,0)" /></defs><g
     inkscape:label="Capa 1"
     inkscape:groupmode="layer"
     id="layer1"><path
       style="opacity:1;fill:#28170b;fill-opacity:1;fill-rule:nonzero;stroke:#000000;stroke-width:0.0569828;stroke-dasharray:none;stroke-opacity:1;paint-order:fill markers stroke"
       d="m 21.313488,2.716398 c 0,0 -0.06992,1.3984166 -0.769127,2.3773037 -0.699208,0.9788935 -1.398415,2.0277044 -1.957782,2.6569922 -0.559368,0.6292876 -1.608178,1.6780981 -2.377307,2.5870681 -0.769128,0.908969 -1.608179,2.027705 -1.748019,2.307387 -0.139842,0.279682 -0.349604,0.839046 -0.349604,1.468333 0,0.629288 -0.279683,1.608182 -0.489446,2.097628 -0.209762,0.489447 -0.209762,1.048811 -0.349603,1.538253 -0.139843,0.489446 -0.139843,1.46834 -0.139843,2.027703 0,0.559371 0,1.3285 0.349606,1.887864 0.349603,0.559364 0.629286,1.468334 0.629286,1.817939 0,0.349606 -0.209763,1.95778 -0.209763,1.95778 0,0 2.307386,3.845645 2.587069,4.265168 0.279685,0.419524 1.188654,1.748024 1.468336,2.097628 0.279685,0.3496 1.258575,1.188653 1.678098,1.887857 0.419528,0.699211 0.279685,1.3285 0.279685,1.3285 l 0.139843,-0.209766 -0.06993,-0.489446 -0.908969,-1.328492 -1.398416,-1.398417 -0.839049,-1.328493 -0.908971,-1.188652 c 0,0 -0.629287,-1.188658 -0.978891,-1.608182 -0.349605,-0.419522 -0.699207,-0.908969 -0.908969,-1.328492 -0.209763,-0.419529 -0.209763,-0.629288 -0.559366,-1.188659 -0.349606,-0.559364 -0.69921,-1.328492 -0.76913,-1.748016 -0.06992,-0.419522 -0.209761,-1.118734 -0.419524,-1.748021 -0.209763,-0.629289 -0.139842,-1.957782 -0.209763,-2.447229 -0.06992,-0.48944 0.209763,-2.517144 0.349604,-2.86675 0.139844,-0.349605 0.489447,-1.188651 0.699209,-1.538257 0.209764,-0.349606 0.559367,-0.908971 0.699209,-1.188653 0.139842,-0.279682 0.559365,-0.90897 0.559365,-0.90897 L 17.188163,9.2889516 19.285787,6.701883 20.684203,4.6042614 Z"
       id="path87181" /><path
       style="opacity:1;fill:url(#linearGradient95460);fill-opacity:1;fill-rule:nonzero;stroke:none;stroke-width:0.0569828;stroke-dasharray:none;stroke-opacity:1;paint-order:fill markers stroke"
       d="m 12.347832,19.202709 c 0,0 0.166866,-0.160684 0.197766,-0.19777 0.03091,-0.03707 0.10506,-0.148321 0.10506,-0.185407 0,-0.03707 0,-0.08651 0.03091,-0.11742 0.0309,-0.03088 0.129784,-0.111234 0.228666,-0.111234 0.09889,0 0.247208,0.01237 0.290469,0.02476 0.04327,0.01237 0.426431,0.111234 0.451154,0.148319 0.02472,0.03707 0.185404,0.203947 0.216306,0.241026 0.0309,0.03707 0.234847,0.148326 0.234847,0.148326 l 0.222487,-0.01857 2.722831,-0.336546 c 0,0 0.174802,0.104874 0.349603,0.104874 0.174803,0 1.074468,-0.07734 1.074468,-0.07734 l 0.482052,0.160677 c 0,0 -0.01237,0.03707 0.370812,0.03707 0.383171,0 0.432612,0.02468 0.568575,-0.02476 0.135965,-0.04944 0.321369,-0.08652 0.432613,-0.111246 0.111246,-0.02476 0.148326,-0.03707 0.271929,-0.04944 0.123607,-0.01238 0.420251,-0.07416 0.506773,-0.07416 0.08652,0 0.469695,0.02476 0.580939,0.03707 0.111246,0.01237 0.309007,0.03707 0.309007,0.03707 l 0.309007,-0.469682 c 0,0 0.222487,-0.173048 0.370812,-0.27193 0.148323,-0.09889 0.593295,-0.38317 0.655096,-0.38317 0.0618,0 0.444975,-0.01237 0.667462,-0.01237 0.222487,0 0.469693,0 0.556217,0 0.08653,0 0.519134,-0.02468 0.593297,-0.02468 0.07416,0 0.247208,-0.04944 0.247208,-0.04944 l 0.07416,-0.123607 -0.379147,-0.90749 c 0,0 0.06992,-0.734166 0.06992,-0.874009 0,-0.13984 -0.06992,-0.594325 0,-0.769128 0.06992,-0.174803 0.419524,-1.293531 0.978892,-1.293531 0.559365,0 3.111474,0.06992 3.321237,0.559364 0.209761,0.489446 -0.104887,0.943933 -0.104887,1.468334 0,0.524409 -0.244722,0.90897 -0.244722,0.90897 l 0.279682,0.384553 0.978892,-0.349606 c 0,0 1.083771,-0.489447 1.258574,-0.594326 0.174802,-0.104874 0.908969,-0.489446 1.223612,-0.489446 0.314643,0 1.048811,0.209764 1.188653,0.209764 0.139842,0 0.734169,-0.314643 0.87401,-0.209764 0.139841,0.104886 0.314644,0.349604 0.314644,0.594325 0,0.244727 -0.314644,0.943931 -0.349604,1.083774 -0.03497,0.13984 -0.524407,1.328498 -0.699208,1.503295 -0.174802,0.174803 -0.629288,0.279688 -1.083772,0.69921 -0.454486,0.419524 -0.384565,0.489448 -0.559366,0.804092 -0.174801,0.314644 -0.419524,1.95778 -0.489446,2.132583 -0.06992,0.174797 -0.279682,0.629282 -0.279682,0.629282 l -0.174802,0.279689 c 0,0 -0.349605,2.936668 -0.349605,3.076515 0,0.139841 -0.06992,0.559363 -0.419524,0.769129 -0.349604,0.209758 -0.804089,0.699204 -1.048811,0.734166 -0.244723,0.03495 -1.573218,0.524403 -1.887862,0.629288 -0.314643,0.104874 -1.678098,0.349599 -1.922821,0.349599 -0.244722,0 -0.978891,-0.209758 -1.118733,-0.279681 -0.139842,-0.06992 -0.244722,-0.524403 -0.139842,-0.874009 0.104887,-0.349605 0.349604,-1.188651 0.349604,-1.363454 0,-0.174803 0,-0.90897 0,-1.188659 0,-0.279681 -0.174801,-0.839045 -0.279682,-1.04881 -0.104887,-0.209759 -0.279683,-0.978888 -0.349604,-1.363455 -0.06992,-0.384562 0,-0.699206 -0.209761,-0.978888 -0.209763,-0.279682 -0.734168,-0.524408 -0.734168,-0.524408 0,0 -0.314646,-0.279681 -0.524408,-0.279681 -0.209762,0 -0.699208,0.349605 -1.08377,0.349605 -0.384566,0 -1.013853,-0.06993 -1.538259,-0.174803 -0.524406,-0.104874 -1.782979,-0.06993 -1.782979,-0.06993 0,0 -0.874011,-0.06992 -1.083773,-0.104874 -0.209762,-0.03495 -1.118733,-0.104874 -1.328496,-0.209764 -0.209762,-0.104887 -0.908968,-0.139842 -1.293533,-0.244721 -0.384565,-0.104874 -0.489446,-0.13984 -0.76913,-0.174803 -0.279682,-0.03495 -0.594325,0.174803 -0.594325,0.174803 l -0.244723,0.104874 -0.244722,-0.48944 -0.104886,-0.41953 0.209764,-0.209758 z"
       id="path87401" /><path
       style="opacity:0.970833;fill:#502d16;fill-opacity:0.57971;fill-rule:nonzero;stroke:none;stroke-width:0.0569828;stroke-dasharray:none;stroke-opacity:1;paint-order:fill markers stroke"
       d="m 34.491425,15.772703 -1.829335,0.642743 c 0,0 -3.78227,1.334918 -3.881154,1.310196 -0.09888,-0.02468 -1.112432,0.173047 -1.112432,0.173047 L 27.19881,17.750364 27.14937,17.527877 c 0,0 0.444973,0 0.593299,0.07417 0.148326,0.07416 0.98883,-0.09889 1.112435,-0.148324 0.123607,-0.04944 0.865224,-0.444974 1.013549,-0.519139 0.148325,-0.07416 0.618018,-0.321369 1.013549,-0.494411 0.395533,-0.173048 0.64274,-0.296653 0.964109,-0.420256 0.32137,-0.123607 -0.02472,-0.173043 0.568576,-0.222487 0.593299,-0.04944 0.791063,-0.02476 1.137154,-0.04944 0.34609,-0.02468 0.939388,0.02468 0.939388,0.02468 z"
       id="path87405" /><path
       style="opacity:0.970833;fill:#502d16;fill-opacity:0.57971;fill-rule:nonzero;stroke:none;stroke-width:0.0569828;stroke-dasharray:none;stroke-opacity:1;paint-order:fill markers stroke"
       d="m 33.032902,19.456093 c 0,0 -0.815784,0.321368 -0.889946,0.642744 -0.07416,0.321368 -0.716901,1.458521 -0.815784,1.582125 -0.09889,0.123607 -0.593298,0.865223 -0.593298,0.865223 l 0.766343,0.469695 c 0,0 0.791064,-1.70573 0.791064,-1.903494 0,-0.197771 0.370809,-1.137154 0.370809,-1.137154 z"
       id="path87409" /><path
       style="opacity:0.970833;fill:#502d16;fill-opacity:0.57971;fill-rule:nonzero;stroke:none;stroke-width:0.0569828;stroke-dasharray:none;stroke-opacity:1;paint-order:fill markers stroke"
       d="m 32.044073,20.074114 c 0,0 -0.791063,0.988828 -0.865226,1.161876 -0.07416,0.173043 -0.791063,0.815779 -0.914667,0.865223 -0.123607,0.04944 0.32137,0.296646 0.32137,0.296646 0,0 0.494414,-0.494411 0.593297,-0.692175 0.09889,-0.19777 0.914668,-1.458528 0.914668,-1.458528 z"
       id="path87411" /><path
       style="opacity:0.970833;fill:#502d16;fill-opacity:0.57971;fill-rule:nonzero;stroke:none;stroke-width:0.0569828;stroke-dasharray:none;stroke-opacity:1;paint-order:fill markers stroke"
       d="m 27.544901,23.040602 c -0.09889,0 -1.236037,0.09888 -1.38436,0.02468 -0.148326,-0.07416 -1.062992,-0.642742 -1.062992,-0.642742 0,0 -0.271928,-0.519133 -0.346091,-0.642738 -0.07416,-0.123607 -0.148325,-0.27193 -0.148325,-0.27193 0,0 0.247208,0.889945 0.296648,0.988828 0.04944,0.09889 0.321371,0.395535 0.469695,0.519138 0.148325,0.123607 0.642739,0.395535 0.98883,0.395535 0.346089,0 0.766343,0.07416 0.964107,-0.02469 0.197766,-0.09888 0.494416,0 0.494416,0 l -0.197766,-0.222486 z"
       id="path87413" /><path
       style="opacity:0.970833;fill:#502d16;fill-opacity:0.57971;fill-rule:nonzero;stroke:none;stroke-width:0.0569828;stroke-dasharray:none;stroke-opacity:1;paint-order:fill markers stroke"
       d="m 27.853909,23.497932 c 0,0 -0.766341,-0.02468 -0.865226,0.02476 -0.09889,0.04944 -0.482054,0.08652 -0.815783,0.02468 -0.33373,-0.06183 -0.889946,-0.333732 -0.976468,-0.432615 -0.08653,-0.09889 -0.296651,-0.469694 -0.333732,-0.556212 -0.03708,-0.08652 -0.222485,-0.580941 -0.333728,-0.82815 -0.111247,-0.247207 -0.395534,-1.001185 -0.432613,-1.050629 -0.03708,-0.04944 -0.407892,-0.08653 -0.556217,-0.08653 -0.148323,0 -0.705875,0.206417 -0.802017,0.215157 -0.09614,0.0088 -0.681727,0.02622 -0.812828,0.03495 -0.131103,0.0088 -0.384565,0.01748 -0.533146,0.0088 -0.148583,-0.0088 -0.305904,-0.02622 -0.655508,-0.02622 -0.349604,0 -0.804089,-0.06992 -1.328494,-0.104886 -0.524407,-0.03495 -1.066292,-0.24472 -1.258575,-0.122358 -0.192283,0.122358 -2.742552,-0.524522 -3.0392,-0.524522 -0.29665,0 -1.03827,-0.148327 -1.03827,-0.148327 l 0.0046,0.410648 c 0,0 1.101251,0.192284 1.206132,0.192284 0.104887,0 0.769129,0.06992 1.066292,0.13984 0.297163,0.06992 0.874011,0.174798 0.996371,0.192279 0.122357,0.01748 1.031332,0.0874 1.101253,0.104874 0.06992,0.01748 0.926449,0.01748 1.118732,0.03495 0.192282,0.01748 0.80409,0.05244 1.118734,0.05244 0.314642,0 1.136212,0.06992 1.206132,0.06992 0.06992,0 0.646767,-0.12237 0.716687,-0.13984 0.06992,-0.01748 0.367086,-0.03495 0.454487,-0.03495 0.0874,0 0.192282,-0.05244 0.559365,0.192277 0.367084,0.244727 0.489446,0.367087 0.541887,0.506928 0.05244,0.139841 0.209761,0.314643 0.244723,0.454485 0.03495,0.13984 0.209763,1.083773 0.209763,1.083773 0,0 0.279682,0.209764 0.419523,0.2622 0.139842,0.05244 1.311014,0.594326 1.520777,0.594326 0.209762,0 0.734168,-0.0874 0.856531,-0.104874 0.122344,-0.01751 0.489433,-0.244751 0.489433,-0.244751 z"
       id="path87415" /><path
       style="opacity:0.970833;fill:#502d16;fill-opacity:0.57971;fill-rule:nonzero;stroke:none;stroke-width:0.0569828;stroke-dasharray:none;stroke-opacity:1;paint-order:fill markers stroke"
       d="m 28.183206,24.898767 c -0.192282,0 -2.080143,-0.297162 -2.202504,-0.384567 -0.122357,-0.0874 -0.804088,-0.506922 -0.89149,-0.646763 -0.0874,-0.139841 -0.297164,-0.332126 -0.297164,-0.332126 L 24.687161,23.37799 c 0,0 0.06992,0.646769 0.157323,0.751648 0.08739,0.104874 0.576845,0.419522 0.699206,0.489447 0.122357,0.06992 0.559367,0.24472 1.031332,0.314644 0.471965,0.06992 1.031332,0.122357 1.223613,0.122357 0.192283,0 0.384565,-0.157321 0.384565,-0.157321 z"
       id="path88145" /><path
       style="opacity:0.970833;fill:url(#linearGradient95470);fill-opacity:1;fill-rule:nonzero;stroke:none;stroke-width:0.0569828;stroke-dasharray:none;stroke-opacity:1;paint-order:fill markers stroke"
       d="M 27.60636,26.297183 C 27.379117,26.192297 26.78479,26.12238 26.609988,25.98254 26.435187,25.842698 25.980702,25.615453 25.87582,25.440649 25.770934,25.265846 25.543696,24.916248 25.368895,24.689003 25.194093,24.461763 24.91441,24.164594 24.91441,24.164594 c 0,0 -0.139842,-0.157316 -0.157321,0.06993 -0.01748,0.227246 0.384563,0.804091 0.471964,0.856534 0.0874,0.05244 0.279683,0.314643 0.437004,0.48944 0.157323,0.174803 0.524408,0.541889 0.716689,0.664249 0.192282,0.122357 0.471966,0.227246 0.664247,0.227246 0.192282,0 0.629288,-0.0874 0.629288,-0.0874 z"
       id="path88147" /><path
       style="opacity:0.970833;fill:url(#linearGradient95468);fill-opacity:1;fill-rule:nonzero;stroke:none;stroke-width:0.0569828;stroke-dasharray:none;stroke-opacity:1;paint-order:fill markers stroke"
       d="m 26.592508,28.220003 c -0.0874,-0.122357 -0.122357,-0.22724 -0.192283,-0.629288 -0.06992,-0.402043 0.01748,-0.559364 -0.20976,-0.908969 -0.227244,-0.349608 -0.559368,-0.804091 -0.559368,-0.804091 0,0 -0.01748,-0.104874 -0.192282,-0.384561 -0.174801,-0.279683 -0.524405,-0.576846 -0.524405,-0.576846 0,0 0.104886,0.541883 0.139841,0.629288 0.03495,0.0874 0.174802,-0.314645 0.01748,1.013849 -0.157321,1.328493 -0.174803,1.520776 -0.174803,1.608175 0,0.0874 0,0.349606 0,0.349606 0,0 0.209763,-0.06993 0.489446,-0.06993 0.279683,0 0.646768,0.01748 0.804091,0 0.157316,-0.01747 0.402039,-0.139836 0.402038,-0.227234 z"
       id="path88149" /><path
       style="opacity:0.970833;fill:#000000;fill-opacity:1;fill-rule:nonzero;stroke:#000000;stroke-width:0.0569828;stroke-dasharray:none;stroke-opacity:1;paint-order:fill markers stroke"
       d="M 26.609988,28.254964 Z"
       id="path88151" /><path
       style="opacity:0.970833;fill:#000000;fill-opacity:1;fill-rule:nonzero;stroke:#000000;stroke-width:0.0569828;stroke-dasharray:none;stroke-opacity:1;paint-order:fill markers stroke"
       d="m 28.392968,26.664264 c 0,0 -0.174802,0.209765 -0.13984,0.314644 0.03497,0.104887 0.03497,0.104887 0.03497,0.104887 v 0"
       id="path88153" /><path
       style="opacity:0.970833;fill:#502d16;fill-opacity:0.57971;fill-rule:nonzero;stroke:none;stroke-width:0.0569828;stroke-dasharray:none;stroke-opacity:1;paint-order:fill markers stroke"
       d="m 30.202379,19.468451 c -0.04944,-0.01237 -0.494414,-0.01237 -0.716902,0.111247 -0.222486,0.123606 -0.778702,0.284288 -0.865225,0.27193 -0.08652,-0.01237 -0.197766,-0.04944 -0.271929,-0.08652 -0.07416,-0.03707 -0.08652,-0.04944 -0.08652,-0.04944"
       id="path88155" /><path
       style="opacity:0.970833;fill:#000000;fill-opacity:1;fill-rule:nonzero;stroke:#000000;stroke-width:0.0569828;stroke-dasharray:none;stroke-opacity:1;paint-order:fill markers stroke"
       d="m 28.253128,19.06038 c 0,0 -0.419525,0.157323 -0.471966,0.279682 -0.05244,0.122357 -0.174802,0.262202 -0.192282,0.332125 -0.01748,0.06993 -0.01748,0.0874 -0.01748,0.0874"
       id="path88157" /><path
       style="opacity:0.970833;fill:#502d16;fill-opacity:0.57971;fill-rule:nonzero;stroke:none;stroke-width:0.0569828;stroke-dasharray:none;stroke-opacity:1;paint-order:fill markers stroke"
       d="m 25.91078,19.881945 c 0,0 -0.332123,-0.01748 -0.559366,-0.03495 -0.227241,-0.01748 -0.349603,-0.05244 -0.349603,-0.05244 l -0.244722,-0.174803"
       id="path88159" /><path
       style="opacity:0.970833;fill:#502d16;fill-opacity:0.57971;fill-rule:nonzero;stroke:none;stroke-width:0.0569828;stroke-dasharray:none;stroke-opacity:1;paint-order:fill markers stroke"
       d="m 30.288901,18.417822 c -0.420252,0.222487 -0.766342,0.642744 -0.939388,0.766347 -0.173044,0.123607 -0.618018,0.420251 -0.791063,0.420251 -0.173044,0 -0.66746,0.370812 -0.66746,0.370812 0,0 -0.543856,-0.69218 -0.667458,-0.741624 -0.123607,-0.04944 -0.29665,-0.296648 -0.29665,-0.296648 0,0 0.543856,0 0.791064,0 0.247207,0 0.69218,-0.09889 0.815783,-0.222485 0.123607,-0.123607 0.395532,-0.173048 0.815784,-0.247209 0.420253,-0.07416 1.038271,-0.148325 1.038271,-0.148325 z"
       id="path88161" /><path
       style="opacity:0.970833;fill:#0066ff;fill-opacity:1;fill-rule:nonzero;stroke:#0055d4;stroke-width:0.0569828;stroke-dasharray:none;stroke-opacity:1;paint-order:fill markers stroke"
       d="m 21.265836,21.359594 c 0,0 0.395531,0.593293 0.420252,0.692175 0.02472,0.09888 0.04943,0.321375 0.04943,0.321375 l -0.370809,-0.148327 c 0,0 0.444972,0.04944 0.444972,0.222486 0,0.173049 0.123607,0.444973 0.123607,0.444973 0,0 -0.09889,0.173048 -0.173045,0.07416 -0.07416,-0.09889 -0.39553,-0.321368 -0.39553,-0.321368 0,0 0.370808,0.321368 0.494413,0.469695 0.123607,0.148326 0.296648,0.222486 0.321369,0.395533 0.02472,0.173043 0.02472,0.444974 0.09889,0.568577 0.07416,0.123595 0.222486,0.271924 0.222486,0.271924 0,0 -0.444973,-0.173041 -0.593298,-0.271924 -0.148324,-0.09888 -0.420251,-0.395534 -0.519136,-0.618021 -0.09889,-0.222485 -0.148323,-0.494416 -0.197765,-0.593297 -0.04943,-0.09888 -0.04943,-0.618016 -0.04943,-0.618016 v 0.222487 l -0.123607,-0.271931 c 0,0 -0.148323,-0.444972 -0.148323,-0.543854 0,-0.09888 0.02472,-0.42025 0.02472,-0.42025 l 0.148327,-0.173053 z"
       id="path88165" /><path
       style="opacity:0.970833;fill:#502d16;fill-opacity:0.57971;fill-rule:nonzero;stroke:none;stroke-width:0.0569828;stroke-dasharray:none;stroke-opacity:1;paint-order:fill markers stroke"
       d="m 23.292934,20.098837 c 0,0 -0.197767,-0.09889 -0.469693,-0.148326 -0.271927,-0.04944 -0.840505,-0.17305 -1.112434,-0.222486 -0.271926,-0.04944 -0.469692,-0.173049 -0.914665,-0.02476 -0.444975,0.148327 -0.815786,0.296645 -0.815786,0.296645 l -0.173043,0.07417 c 0,0 0.420251,0.370807 0.642739,0.444973 0.222487,0.07416 0.642738,0.123607 0.865224,0.123607 0.222487,0 1.062992,-0.07416 1.236038,-0.148326 0.173045,-0.07416 0.74162,-0.395528 0.74162,-0.395528 z"
       id="path88169" /><path
       style="opacity:0.970833;fill:#502d16;fill-opacity:0.57971;fill-rule:nonzero;stroke:none;stroke-width:0.0569828;stroke-dasharray:none;stroke-opacity:1;paint-order:fill markers stroke"
       d="m 19.362339,19.851628 c -0.09888,0 -0.469694,-0.197764 -1.013549,-0.321374 -0.543857,-0.123595 -0.815785,-0.346085 -1.186595,-0.395529 -0.370811,-0.04944 -0.939389,-0.04944 -0.939389,-0.04944"
       id="path88171" /><path
       style="opacity:0.970833;fill:#502d16;fill-opacity:0.57971;fill-rule:nonzero;stroke:none;stroke-width:0.0569828;stroke-dasharray:none;stroke-opacity:1;paint-order:fill markers stroke"
       d="m 19.288176,20.222435 c -0.197766,0 -1.186595,0.07416 -1.656288,0.07416 -0.469693,0 -1.013549,-0.173048 -1.384361,-0.271931 -0.370812,-0.09889 -1.260757,-0.247208 -1.260757,-0.247208"
       id="path88173" /><path
       style="opacity:0.970833;fill:#502d16;fill-opacity:0.57971;fill-rule:nonzero;stroke:none;stroke-width:0.0569828;stroke-dasharray:none;stroke-opacity:1;paint-order:fill markers stroke"
       d="m 19.362339,19.035843 c -0.197767,0.02468 -0.716901,0.469694 -0.96411,0.444973 -0.247205,-0.02468 -0.988828,-0.247208 -1.236034,-0.321368 -0.247208,-0.07416 -0.543856,-0.148326 -0.543856,-0.148326 0,0 0.815783,-0.123607 1.236036,-0.09889 0.420252,0.02468 0.766341,0 0.988829,0.07416 0.222487,0.07417 0.346089,0.09889 0.346089,0.09889 z"
       id="path88175" /><path
       style="opacity:0.970833;fill:#502d16;fill-opacity:0.57971;fill-rule:nonzero;stroke:none;stroke-width:0.0569828;stroke-dasharray:none;stroke-opacity:1;paint-order:fill markers stroke"
       d="m 24.257044,17.849245 c -0.34609,-0.07415 -1.186594,-0.123606 -1.186594,-0.123606 0,0 -0.27193,0.296651 -0.494417,0.395534 -0.222486,0.09889 -0.420252,0.642736 -0.494414,0.741618 -0.07416,0.09889 0.519136,0.04944 0.64274,0.09889 0.123607,0.04944 0.494414,0.148319 0.593297,0.271925 0.09889,0.123607 0.321368,-0.148327 0.321368,-0.148327 0,0 0.469695,-0.865224 0.519137,-0.964104 0.04944,-0.09889 0.09888,-0.271932 0.09888,-0.271932 z"
       id="path88177" /><path
       style="opacity:0.970833;fill:#502d16;fill-opacity:0.57971;fill-rule:nonzero;stroke:none;stroke-width:0.0569828;stroke-dasharray:none;stroke-opacity:1;paint-order:fill markers stroke"
       d="m 21.908573,18.714475 c 0.123607,0.02468 0.840505,0.370806 1.013551,0.469694 0.173043,0.09889 0.98883,0.444974 1.062991,0.618015 0.07416,0.173048 0.02472,0.123607 0.173046,0.34609 0.148323,0.222487 0.395531,0.51914 0.395531,0.51914"
       id="path88179" /><path
       style="opacity:0.970833;fill:url(#linearGradient95472);fill-opacity:1;fill-rule:nonzero;stroke:none;stroke-width:0.0569828;stroke-dasharray:none;stroke-opacity:1;paint-order:fill markers stroke"
       d="m 25.913333,19.999947 c 0.04944,0.148327 0.741622,1.211321 0.889945,1.433807 0.148325,0.222486 1.33492,2.521515 1.483244,2.645118 0.148325,0.123595 0.692181,1.08771 0.889947,1.334919 0.197766,0.247209 0.791063,0.791062 0.939387,1.087709 0.148324,0.296653 0.34609,0.667465 0.34609,0.667465 0,0 -0.964108,0.420251 -1.062991,0.49441 -0.09889,0.07416 -1.186594,0.543854 -1.409082,0.593299 -0.222486,0.04944 -1.062991,0.222487 -1.062991,0.222487 0,0 0.148324,-0.148326 0.519136,-0.395529 0.370811,-0.247207 1.137154,-0.247207 1.35964,-0.519139 0.222486,-0.271924 0.321369,0.09889 0.370811,-0.395528 0.04944,-0.494417 0.247206,-0.444973 0,-0.865229 -0.247208,-0.420251 -0.469694,-1.013549 -0.889947,-1.384363 -0.420253,-0.370812 -0.741621,-1.211313 -0.865226,-1.458521 -0.123606,-0.247208 -0.173044,-0.76634 -0.395531,-1.062993 -0.222487,-0.296646 -0.889946,-1.384356 -0.889946,-1.384356 z"
       id="path88181" /><path
       style="opacity:0.970833;fill:#502d16;fill-opacity:0.57971;fill-rule:nonzero;stroke:none;stroke-width:0.0569828;stroke-dasharray:none;stroke-opacity:1;paint-order:fill markers stroke"
       d="m 24.553692,18.170613 c 0.09888,0.197772 1.137154,1.532689 1.137154,1.532689 0,0 -0.543856,-0.02468 -0.692181,-0.148326 -0.148324,-0.123607 -0.321369,-0.420251 -0.321369,-0.618016 0,-0.19777 -0.123607,-0.766347 -0.123607,-0.766347 z"
       id="path88183" /><path
       style="opacity:0.970833;fill:url(#linearGradient95480);fill-opacity:1;fill-rule:nonzero;stroke:none;stroke-width:0.0569828;stroke-dasharray:none;stroke-opacity:1;paint-order:fill markers stroke"
       d="m 25.913333,17.725642 c 0,0 1.582126,1.854056 1.582126,1.952937 0,0.09889 0.667459,0.889945 0.964108,1.112433 0.296649,0.222491 0.865226,0.618021 1.038271,0.741624 0.173046,0.123607 1.260758,1.161876 1.409082,1.236035 0.148324,0.07416 0.69218,0.148327 0.840504,0.346091 0.148325,0.197771 0.247208,0.444973 0.173046,0.543854 -0.07416,0.09889 -0.222487,0.469695 -0.346091,0.321376 -0.123606,-0.148327 -0.716901,-0.618022 -0.716901,-0.618022 l 0.815785,0.865223 c 0,0 -0.148325,0.247209 -0.148325,0.519139 0,0.271931 -0.02472,0.346091 -0.02472,0.494409 0,0.148327 0.37081,0.692188 0.02472,0.44498 -0.346091,-0.247209 -0.69218,-0.519139 -0.988829,-0.791069 -0.296649,-0.271924 -0.98883,-1.087709 -1.211316,-1.260751 -0.222487,-0.173049 -0.543857,-0.568577 -0.791064,-0.791069 -0.247207,-0.22248 -0.494414,-0.66746 -0.494414,-0.66746 0,0 1.483244,1.928217 1.804612,2.125988 0.321371,0.197764 0.64274,0.568577 0.865226,0.741619 0.222487,0.173047 0.939388,0.296652 0.865226,0.69218 -0.07416,0.395535 -0.222487,1.409083 -0.222487,1.409083 0,0 -0.07416,0.123607 -0.444972,-0.197762 -0.370811,-0.321376 -0.865227,-0.692183 -1.112433,-1.161877 -0.247208,-0.469695 -0.815784,-1.35964 -1.062992,-1.656292 -0.247208,-0.296646 1.211317,1.97766 1.211317,1.97766 0,0 0.618017,0.741619 0.889946,0.791063 0.271928,0.04944 0.593297,0.395535 0.593297,0.494417 0,0.09888 -0.04944,0.296646 -0.04944,0.296646 0,0 0.04944,0.123607 -0.07416,0.04944 -0.123607,-0.07416 -0.271929,-0.197771 -0.469694,-0.420257 -0.197766,-0.222486 -0.988829,-1.08771 -1.038271,-1.186592 -0.04944,-0.09888 -1.087712,-1.606847 -1.087712,-1.606847 l -2.768722,-4.42501 c 0,0 -0.494414,-1.112437 -0.642738,-1.334923 -0.148325,-0.222487 -0.766343,-0.889945 -0.766343,-0.889945 l -0.395531,-0.148327 c 0,0 -0.197765,-0.02468 0.197766,-0.04944 0.395532,-0.02476 0.469694,-0.07416 0.593297,-0.07416 0.123607,0 0.469694,0.148319 0.469694,0.148319 l 0.271928,-0.02468 z"
       id="path88185" /><path
       style="opacity:0.508333;fill:url(#linearGradient95490);fill-opacity:1;fill-rule:nonzero;stroke:none;stroke-width:0.0569828;stroke-dasharray:none;stroke-opacity:1;paint-order:fill markers stroke"
       d="m 31.376613,24.128311 c 0,0 0.222487,-0.02476 0.148325,0.123607 -0.07416,0.148327 0.148325,0.766348 -0.09889,0.667459 -0.247207,-0.09888 -1.062992,-1.062986 -1.211315,-1.11243 -0.148325,-0.04944 -0.123607,-0.271931 0.04944,-0.148327 0.173044,0.123607 1.112432,0.469695 1.112432,0.469695 z"
       id="path88187" /><path
       style="opacity:0.508333;fill:url(#linearGradient95488);fill-opacity:1;fill-rule:nonzero;stroke:none;stroke-width:0.0569828;stroke-dasharray:none;stroke-opacity:1;paint-order:fill markers stroke"
       d="m 31.351892,25.710437 c 0.07416,0.123606 0.07416,0.642743 0.07416,0.642743 0,0 -0.568576,-0.420251 -0.766342,-0.791063 -0.197766,-0.370812 -1.137153,-1.310202 -1.137153,-1.310202 l 0.07416,-0.09889 1.631568,1.433799 z"
       id="path88189" /><path
       style="opacity:0.970833;fill:url(#linearGradient92953);fill-opacity:1;fill-rule:nonzero;stroke:none;stroke-width:0.0569828;stroke-dasharray:none;stroke-opacity:1;paint-order:fill markers stroke"
       d="m 30.709153,27.168965 c -0.247207,0 -1.013549,0.543854 -1.161874,0.593293 -0.148324,0.04944 -0.840504,0.321374 -1.236036,0.420256 -0.395531,0.09888 -1.01355,0.271924 -1.507965,0.321368 -0.494414,0.04944 -1.211314,0.02476 -1.458522,-0.02468 -0.247207,-0.04944 -0.519135,-0.09889 -0.519135,-0.09889 l -0.02472,0.618021 c 0,0 0.618019,-0.02476 1.038271,-0.04944 0.420256,-0.0247 1.211318,-0.247212 1.458526,-0.29665 0.247207,-0.04944 0.766341,-0.247208 0.766341,-0.247208 l 0.321371,-0.173048 -2.150703,0.716903 c 0,0 -0.939388,0.02468 -1.186596,0.02468 -0.247207,0 -0.39553,0.321368 -0.39553,0.420251 0,0.09889 -0.123607,0.642742 -0.123607,0.642742 0,0 0.197766,0.09889 0.618018,0.02469 0.420255,-0.07414 1.28548,-0.321356 1.656292,-0.519121 0.370806,-0.197764 1.21131,-0.395535 1.433798,-0.494416 0.222486,-0.09889 0.815784,-0.296647 1.38436,-0.74162 0.568577,-0.444978 0.914667,-0.642742 1.013551,-0.791063 0.09889,-0.148326 -0.370813,0.39553 -0.519136,0.469695 -0.148324,0.07416 -0.66746,0.296647 -0.988829,0.519133 -0.321369,0.222485 -0.64274,0.469694 -0.964109,0.593299 -0.321369,0.123606 -0.840505,0.370805 -1.112433,0.469695 -0.271927,0.09888 -1.532686,0.444971 -1.70573,0.49441 -0.173045,0.04944 -0.766342,0.197764 -0.766342,0.197764 0,0 0.395531,-0.04944 0.04944,0.07416 -0.346091,0.123607 -0.543856,0.247207 -0.593297,0.519131 -0.04944,0.271931 -0.346091,0.469695 -0.346091,0.469695 l -0.346091,0.469694 c 0,0 -0.494414,0.148327 0.02472,0.148327 0.519135,0 0.964108,0.222487 1.433801,-0.123607 0.469692,-0.346085 1.359637,-0.88994 1.483241,-0.988821 0.123607,-0.09889 1.062991,-0.494417 1.582126,-0.840508 0.519136,-0.34609 1.409082,-0.889944 1.854056,-1.236035 0.444972,-0.346091 0.543855,-0.321368 0.618018,-0.444973 0.07416,-0.123607 0.173045,-0.197769 -0.02472,0.222488 -0.197766,0.42025 -0.716902,0.815784 -0.988829,1.137152 -0.271928,0.321368 -0.791065,0.865223 -1.186596,1.507966 -0.395531,0.642736 -0.469694,0.766341 -0.766343,1.260757 -0.296648,0.494411 -0.64274,1.01355 -0.815784,1.285474 -0.173045,0.27193 -0.197765,0.07416 0.346092,0.07416 0.543855,0 1.285477,-0.04944 1.507963,0.04944 0.222486,0.09888 0.543855,0.09888 0.543855,0.09888 0,0 0.370813,-0.568577 0.469694,-1.18659 0.09889,-0.618021 0.247209,-1.557411 0.247209,-1.35964 0,0.197763 -0.296649,1.137153 -0.09889,1.137153 0.197765,0 0.840503,-0.321374 0.988828,-0.370813 0.148325,-0.04944 0.469694,0.02476 0.469694,0.02476 0,0 0.123606,-0.370812 -0.04944,-0.766347 -0.173044,-0.395528 0.32137,-0.618016 0.32137,-1.186592 0,-0.568577 0.02472,-1.384361 0.02472,-1.384361 0,0 -0.09889,-0.543856 -0.123607,-0.667459 -0.02472,-0.123607 -0.02472,-0.444973 -0.02472,-0.444973 0,0 -0.09888,-0.07417 -0.197766,-0.19777 -0.09888,-0.123595 -0.197765,-0.247202 -0.197765,-0.247202 z"
       id="path88191" /><path
       style="opacity:0.508333;fill:url(#linearGradient95442);fill-opacity:1;fill-rule:nonzero;stroke:none;stroke-width:0.0569828;stroke-dasharray:none;stroke-opacity:1;paint-order:fill markers stroke"
       d="m 30.981081,27.86114 c 0,0.222492 -0.395531,1.55741 -0.444972,1.878778 -0.04944,0.321368 0,0.791063 0,1.186597 0,0.395529 -0.148325,0.766341 -0.148325,0.766341 l -0.271928,-0.247208 c 0,0 -0.66746,0 -0.543856,-0.02468 0.123607,-0.0247 1.409081,-3.559791 1.409081,-3.559791 z"
       id="path88193" /><path
       style="opacity:0.508333;fill:url(#linearGradient93009);fill-opacity:1;fill-rule:nonzero;stroke:none;stroke-width:0.0569828;stroke-dasharray:none;stroke-opacity:1;paint-order:fill markers stroke"
       d="m 30.783316,28.034187 c -0.07416,0.09888 -0.988829,1.755175 -1.062992,1.952939 -0.07416,0.197764 -0.543855,1.186597 -0.593297,1.359639 -0.04944,0.173042 -0.173046,0.148327 -0.173046,0.148327 l -0.519134,-0.420257 2.323749,-3.139529 z"
       id="path88195" /><path
       style="opacity:0.508333;fill:url(#linearGradient95444);fill-opacity:1;fill-rule:nonzero;stroke:none;stroke-width:0.0569828;stroke-dasharray:none;stroke-opacity:1;paint-order:fill markers stroke"
       d="m 30.622631,27.898225 -0.0618,-0.210128 -2.595677,1.804612 c 0,0 -0.135964,0.222487 0.01237,0.135969 0.148322,-0.08653 1.174232,-0.679824 1.347278,-0.815785 0.173045,-0.135963 1.05063,-0.6551 1.198955,-0.753983 0.148324,-0.09889 0.185405,-0.148326 0.185405,-0.148326 z"
       id="path88197" /><path
       style="opacity:0.970833;fill:none;fill-opacity:1;fill-rule:nonzero;stroke:#000000;stroke-width:0.126899;stroke-dasharray:none;stroke-opacity:1;paint-order:fill markers stroke"
       d="M 25.938053,17.750364 C 25.641405,17.700924 10.611202,18.73919 10.611202,18.73919"
       id="path88199" /><path
       style="opacity:0.970833;fill:none;fill-opacity:1;fill-rule:nonzero;stroke:#000000;stroke-width:0.126899;stroke-dasharray:none;stroke-opacity:1;paint-order:fill markers stroke"
       d="m 15.555347,18.170613 -0.519135,0.420258 0.543855,0.197763"
       id="path88201" /><path
       style="opacity:0.970833;fill:none;fill-opacity:1;fill-rule:nonzero;stroke:#000000;stroke-width:0.126899;stroke-dasharray:none;stroke-opacity:1;paint-order:fill markers stroke"
       d="m 14.863167,18.195336 -0.395532,0.395535 0.494414,0.296645"
       id="path88203" /><path
       style="opacity:0.970833;fill:none;fill-opacity:1;fill-rule:nonzero;stroke:#000000;stroke-width:0.126899;stroke-dasharray:none;stroke-opacity:1;paint-order:fill markers stroke"
       d="m 11.451705,18.3931 -0.469692,0.321375 0.469692,0.321368"
       id="path88205" /><path
       style="opacity:0.970833;fill:#1a1a1a;fill-opacity:1;fill-rule:nonzero;stroke:#000000;stroke-width:0.0569828;stroke-dasharray:none;stroke-opacity:1;paint-order:fill markers stroke"
       d="m 9.0290736,18.022294 0.370811,0.420251 c 0,0 0.444973,-0.173042 0.6427394,-0.04944 0.197766,0.123607 0.271928,0.321374 0.148324,0.420256 -0.123607,0.09889 -0.173044,0.173042 -0.4696924,0.09889 -0.296649,-0.07416 -0.321371,-0.09889 -0.321371,-0.09889 l -0.271929,0.247209 -1.854054,-0.494416 z"
       id="path88207" /><path
       style="opacity:0.970833;fill:#1a1a1a;fill-opacity:1;fill-rule:nonzero;stroke:#000000;stroke-width:0.0569828;stroke-dasharray:none;stroke-opacity:1;paint-order:fill markers stroke"
       d="m 10.512318,18.417822 c 0.09889,0.04944 0.222487,0.173049 0.197765,0.271931 -0.02472,0.09889 -0.04944,0.123606 -0.173045,0.123606 -0.123607,0 -0.296648,-0.123606 -0.296648,-0.123606 l 0.123607,-0.222487 z"
       id="path88209" /><path
       style="opacity:0.970833;fill:#a05a2c;fill-opacity:1;fill-rule:nonzero;stroke:none;stroke-width:0.0569828;stroke-dasharray:none;stroke-opacity:1;paint-order:fill markers stroke"
       d="M 29.596721,16.909863 29.20119,16.514329 c 0,0 0.197765,-0.642737 0.296648,-0.889945 0.09889,-0.247209 0.296649,-0.593299 0.296649,-0.791064 0,-0.19777 -0.395532,-1.582125 -0.395532,-1.582125 0,0 -0.131977,-0.326364 -0.376699,-0.466206 -0.244723,-0.13984 -0.139842,-0.13984 -0.402046,-0.192284 -0.262201,-0.05244 -0.629286,-0.122357 -0.751647,-0.122357 -0.122357,0 -0.489446,0 -0.594328,0.01748 -0.104886,0.01748 -0.349603,0.06992 -0.541886,0.104874 -0.192281,0.03497 -0.471964,0.0874 -0.524405,0.157323 -0.05244,0.06992 -0.332124,0.402047 -0.332124,0.402047 0,0 -0.262202,0.437006 -0.349603,0.646764 -0.0874,0.209764 -0.227244,0.367087 -0.279683,0.594333 -0.05244,0.227238 -0.06992,0.874007 -0.104887,0.996367 -0.03495,0.122357 -0.06992,1.083774 -0.06992,1.083774 l 0.437006,1.311011 0.06992,0.244727 c 0,0 0.06992,0.332125 0.384565,0.174803 0.314649,-0.157323 1.048816,-0.41953 1.153696,-0.559372 0.104887,-0.13984 1.835423,-0.01748 1.975263,-0.08739 0.139842,-0.06992 0.541887,-0.576845 0.504545,-0.647222 z"
       id="path88211" /><path
       style="opacity:0.970833;fill:none;fill-opacity:1;fill-rule:nonzero;stroke:#784421;stroke-width:0.0569828;stroke-dasharray:none;stroke-opacity:1;paint-order:fill markers stroke"
       d="m 29.039736,15.581823 c -0.0874,0.174803 -0.314644,0.874008 -0.454486,0.943932 -0.139841,0.06992 -0.402044,0.139841 -0.699208,0.36708 -0.297162,0.227246 -0.471964,0.402049 -0.559366,0.506928 -0.0874,0.104874 -0.209763,0.314644 -0.209763,0.314644"
       id="path88213" /><path
       style="opacity:0.970833;fill:#502d16;fill-opacity:0.57971;fill-rule:nonzero;stroke:none;stroke-width:0.0569828;stroke-dasharray:none;stroke-opacity:1;paint-order:fill markers stroke"
       d="m 29.354378,15.494419 c 0,0 -0.314642,0.506928 -0.419523,0.646768 -0.104887,0.139841 -0.699208,1.013849 -0.85653,1.066292 -0.157321,0.05244 -0.104887,0.349606 -0.03497,0.349606 0.06992,0 0.978892,-0.05244 1.066294,-0.139841 0.0874,-0.0874 0.384563,-0.471966 0.384563,-0.471966 v -0.06993 c 0,0 0.0874,0.01748 0.01748,-0.05244 -0.06992,-0.06993 -0.139841,-0.157322 -0.209762,-0.244725 -0.06992,-0.0874 -0.227243,-0.139842 -0.06992,-0.489448 0.157323,-0.349595 0.244723,-0.611804 0.244723,-0.611804 z"
       id="path88215" /><path
       style="opacity:1;fill:none;fill-opacity:1;fill-rule:nonzero;stroke:#000000;stroke-width:0.0524379;stroke-dasharray:none;stroke-opacity:1;paint-order:fill markers stroke"
       d="m 20.544361,4.6741786 5.663583,13.2150304 v 1.188652 l -6.432712,14.613441"
       id="path87237" /><path
       style="opacity:1;fill:#a05a2c;fill-opacity:1;fill-rule:nonzero;stroke:#502d16;stroke-width:0.0569828;stroke-dasharray:none;stroke-opacity:1;paint-order:fill markers stroke"
       d="m 29.423675,17.132343 -0.939388,0.444978 c 0,0 -0.766341,-0.123607 -0.939386,-0.123607 -0.173046,0 -0.939389,-0.07416 -1.038272,-0.07416 -0.09889,0 -0.568576,0.271929 -0.69218,0.321373 -0.123607,0.04944 -0.271928,0.148321 -0.271928,0.148321 l -0.07416,0.27193 0.346092,-0.09888 0.395531,-0.19777 -0.568577,0.346091 -0.04944,0.222486 0.222486,0.148326 0.346091,-0.247208 -0.444973,0.346091 c 0,0 0.09889,0.173047 0.222487,0.173047 0.123607,0 0.543855,-0.222486 0.543855,-0.222486 0,0 -0.494414,0 -0.543855,0.148321 -0.04944,0.148325 -0.07416,0.222492 0.02472,0.247207 0.09889,0.02468 0.321369,0.07416 0.321369,0.07416 0,0 0.420251,-0.148327 0.69218,-0.148327 0.271928,0 0.271928,0.04944 0.642739,0 0.370818,-0.04943 0.667467,-0.197756 0.667467,-0.197756 l 0.222487,-0.173048 0.148324,-0.173042 c 0,0 0.444973,-0.04944 0.618019,-0.04944 1.532178,-0.242285 4.344808,0.336474 5.043027,-1.409078"
       id="path87403"
       sodipodi:nodetypes="ccssscccccccccscsscssccccc" /><path
       style="opacity:0.970833;fill:#502d16;fill-opacity:0.57971;fill-rule:nonzero;stroke:none;stroke-width:0.0569828;stroke-dasharray:none;stroke-opacity:1;paint-order:fill markers stroke"
       d="m 34.590308,16.61321 c 0,0 -0.66746,0.09888 -0.815785,0.173042 -0.148324,0.07416 -1.186595,0.667466 -1.606846,0.741625 -0.420253,0.07417 -2.991208,0.494417 -2.991208,0.494417 0,0 0.37081,0.222486 0.469694,0.222486 0.09889,0 1.483243,-0.04944 1.928216,-0.123607 1.293625,0.267809 2.726614,-0.916933 2.570955,-1.062994 0.123607,-0.04944 0.346091,0.02468 0.346091,0.02468 l -0.346091,0.296645 c -0.887532,0.858901 -1.431795,0.793833 -2.42263,0.815785 -0.09888,0 -0.692181,0.02468 -0.815784,0.123607 -0.123607,0.09889 -0.32137,0.271929 -0.32137,0.271929 l -0.148324,0.09889 c 0,0 0.444972,0.09889 0.642738,0.123607 0.197766,0.02468 0.568577,0.222488 0.741622,0.444974 0.173046,0.222485 0.271929,0.370812 0.271929,0.370812 0,0 0.09889,0.271924 0.247207,0.123607 0.148324,-0.148326 1.310198,-1.087716 1.310198,-1.087716 0.239698,-0.362335 0.766595,-0.922171 0.840505,-1.334919 0.02472,-0.173048 0.148324,-0.494416 0.148324,-0.494416 z"
       id="path87407"
       sodipodi:nodetypes="csscscccccsccsscscccc" /><path
       style="opacity:0.99;fill:none;fill-opacity:0.992157;fill-rule:nonzero;stroke:#2b1100;stroke-width:0.321176;stroke-dasharray:none;stroke-opacity:1;paint-order:fill markers stroke"
       id="path5099"
       sodipodi:type="arc"
       sodipodi:cx="-27.534687"
       sodipodi:cy="13.924654"
       sodipodi:rx="2.2933381"
       sodipodi:ry="0.42837337"
       sodipodi:start="0.28424498"
       sodipodi:end="2.8139227"
       sodipodi:arc-type="arc"
       d="m -25.333372,14.044784 a 2.2933381,0.42837337 0 0 1 -2.151525,0.308142 2.2933381,0.42837337 0 0 1 -2.221111,-0.290405"
       sodipodi:open="true"
       transform="scale(-1,1)" /><path
       style="opacity:0.99;fill:#008000;fill-opacity:0.992157;fill-rule:nonzero;stroke:none;stroke-width:0.0675963;stroke-dasharray:none;stroke-opacity:1;paint-order:fill markers stroke"
       d="m 26.204623,13.960225 c -0.0054,-0.0012 0.102536,-0.960252 0.567631,-1.359327 0.386101,-0.331297 0.239002,-0.776759 0.343565,-0.776759 0.104565,0 0.08962,0.358505 0,0.97095 -0.08962,0.612438 -0.194189,1.030699 -0.403316,1.195007 -0.209128,0.164314 -0.463067,0.418259 -0.463067,0.418259 z"
       id="path12676"
       sodipodi:nodetypes="csscscc" /><path
       style="opacity:0.99;fill:#008000;fill-opacity:0.992157;fill-rule:nonzero;stroke:none;stroke-width:0.0491272;stroke-dasharray:none;stroke-opacity:1;paint-order:fill markers stroke"
       d="m 25.884385,13.805889 c 0.003,-0.0012 -0.05586,-0.931102 -0.309207,-1.318069 -0.210319,-0.32124 -0.130191,-0.753179 -0.187148,-0.753179 -0.05695,0 -0.04882,0.347621 0,0.941475 0.04881,0.593854 0.105777,0.999418 0.219696,1.158744 0.113919,0.159325 0.252247,0.405558 0.252247,0.405558 z"
       id="path12786"
       sodipodi:nodetypes="csscscc" /><path
       style="opacity:0.99;fill:#44aa00;fill-opacity:0.992157;fill-rule:nonzero;stroke:none;stroke-width:0.0434317;stroke-dasharray:none;stroke-opacity:1;paint-order:fill markers stroke"
       d="m 26.350086,13.869267 c -0.0033,-6.38e-4 0.06587,-0.616976 0.364713,-0.87339 0.248077,-0.212865 0.153563,-0.49908 0.220746,-0.49908 0.06717,0 0.05758,0.230345 0,0.623852 -0.05758,0.3935 -0.124769,0.66224 -0.259137,0.767814 -0.134367,0.10558 -0.297529,0.268735 -0.297529,0.268735 z"
       id="path12792"
       sodipodi:nodetypes="csscscc" /><path
       style="opacity:0.99;fill:#44aa00;fill-opacity:0.992157;fill-rule:nonzero;stroke:none;stroke-width:0.0434317;stroke-dasharray:none;stroke-opacity:1;paint-order:fill markers stroke"
       d="m 26.04222,13.71611 c 0.0035,-6.37e-4 -0.06588,-0.616974 -0.364714,-0.873388 -0.248075,-0.21286 -0.153562,-0.499081 -0.220746,-0.499081 -0.06717,0 -0.05758,0.230346 0,0.623852 0.05758,0.393505 0.12477,0.662241 0.259137,0.767815 0.134368,0.10558 0.297529,0.268735 0.297529,0.268735 z"
       id="path12794"
       sodipodi:nodetypes="csscscc" /><path
       style="opacity:0.99;fill:#008000;fill-opacity:1;fill-rule:nonzero;stroke:none;stroke-width:0.0675963;stroke-dasharray:none;stroke-opacity:1;paint-order:fill markers stroke"
       d="m 26.381,14.129133 c 0,0 0.04269,0.09717 0.180868,-0.35471 0.138174,-0.451863 0.207512,-0.657315 0.207512,-0.657315"
       id="path12852"
       sodipodi:nodetypes="ccc" /><path
       style="opacity:0.99;fill:#008000;fill-opacity:1;fill-rule:nonzero;stroke:none;stroke-width:0.0675963;stroke-dasharray:none;stroke-opacity:1;paint-order:fill markers stroke"
       d="m 25.875229,13.832729 c 0,0 -0.04269,0.09715 -0.180869,-0.35471 -0.138174,-0.451863 -0.207512,-0.657315 -0.207512,-0.657315"
       id="path12962"
       sodipodi:nodetypes="ccc" /><path
       style="opacity:0.99;fill:#0066ff;fill-opacity:0.992157;fill-rule:nonzero;stroke:none;stroke-width:0.0900523;stroke-dasharray:none;stroke-opacity:1;paint-order:fill markers stroke"
       d="m 26.483217,13.49379 c 0.0071,0.0019 0.437876,-1.228264 0.135615,-2.010421 -0.250931,-0.649308 -0.150697,-1.293302 -0.270547,-1.358422 -0.119846,-0.06512 -0.195021,0.51052 -0.446529,1.322171 -0.251506,0.811638 -0.411932,1.475531 -0.26727,1.808549 0.144666,0.333018 0.442278,0.928454 0.442278,0.928454 z"
       id="path12788"
       sodipodi:nodetypes="csscscc" /><path
       style="opacity:0.99;fill:#2a7fff;fill-opacity:0.992157;fill-rule:nonzero;stroke:none;stroke-width:0.0607201;stroke-dasharray:none;stroke-opacity:1;paint-order:fill markers stroke"
       d="m 26.353255,13.330266 c 0.0047,0.0012 0.295248,-0.828193 0.09144,-1.355575 -0.169196,-0.43782 -0.101608,-0.872043 -0.182424,-0.91595 -0.08081,-0.04389 -0.131497,0.344229 -0.301082,0.891503 -0.169587,0.547267 -0.277757,0.994919 -0.180214,1.219467 0.09755,0.22454 0.298217,0.626034 0.298217,0.626034 z"
       id="path12790"
       sodipodi:nodetypes="csscscc" /><ellipse
       style="opacity:0.99;fill:#ffff00;fill-opacity:0.992157;fill-rule:nonzero;stroke:none;stroke-width:0.0927038;stroke-dasharray:none;stroke-opacity:1;paint-order:fill markers stroke"
       id="path5313"
       cx="-26.037838"
       cy="14.100788"
       rx="0.27562612"
       ry="0.43965197"
       transform="scale(-1,1)" /><path
       style="opacity:0.99;fill:#5599ff;fill-opacity:1;fill-rule:nonzero;stroke:none;stroke-width:0.0203761;stroke-dasharray:none;stroke-opacity:1;paint-order:fill markers stroke"
       d="m 26.133091,13.214529 c 5.94e-4,6.38e-4 0.190441,-0.693674 0.07973,-1.17387 -0.08535,-0.370206 -0.0087,-0.750103 -0.01542,-0.789277 -0.04086,0.982824 -0.07094,1.61876 -0.115539,2.3626 z"
       id="path12796"
       sodipodi:nodetypes="csccc" /><ellipse
       style="opacity:0.99;fill:#dfdf00;fill-opacity:0.992157;fill-rule:nonzero;stroke:none;stroke-width:0.065579;stroke-dasharray:none;stroke-opacity:1;paint-order:fill markers stroke"
       id="ellipse12964"
       cx="-26.025429"
       cy="14.095911"
       rx="0.19023339"
       ry="0.31877497"
       transform="scale(-1,1)" /><path
       style="opacity:0.970833;fill:#0066ff;fill-opacity:1;fill-rule:nonzero;stroke:#0055d4;stroke-width:0.0569828;stroke-dasharray:none;stroke-opacity:1;paint-order:fill markers stroke"
       d="m 21.339996,18.73919 -0.840504,0.173049 c 0,0 0.469695,0.865222 0.469695,1.013549 0,0.148326 -0.02472,0.791062 -0.02472,0.914668 0,0.123607 0,0.444971 0,0.444971 h 0.296649 c 0,0 0.37081,-0.444971 0.37081,-0.618013 0,-0.173049 0.02472,-0.469694 0.02472,-0.766347 0,-0.296647 0,-0.543856 -0.123607,-0.741619 -0.123607,-0.197765 -0.173047,-0.420258 -0.173047,-0.420258 z"
       id="path88163" /></g></svg>
