<?xml version="1.0" encoding="UTF-8" standalone="no"?>
<!-- Created with Inkscape (http://www.inkscape.org/) -->

<svg
   width="100"
   height="100"
   viewBox="0 0 26.458333 26.458333"
   version="1.1"
   id="svg67427"
   xml:space="preserve"
   inkscape:version="1.2.2 (732a01da63, 2022-12-09)"
   sodipodi:docname="templar.svg"
   xmlns:inkscape="http://www.inkscape.org/namespaces/inkscape"
   xmlns:sodipodi="http://sodipodi.sourceforge.net/DTD/sodipodi-0.dtd"
   xmlns:xlink="http://www.w3.org/1999/xlink"
   xmlns="http://www.w3.org/2000/svg"
   xmlns:svg="http://www.w3.org/2000/svg"><sodipodi:namedview
     id="namedview67429"
     pagecolor="#ffffff"
     bordercolor="#000000"
     borderopacity="0.25"
     inkscape:showpageshadow="2"
     inkscape:pageopacity="0.0"
     inkscape:pagecheckerboard="0"
     inkscape:deskcolor="#d1d1d1"
     inkscape:document-units="mm"
     showgrid="false"
     showguides="false"
     inkscape:zoom="2.6456983"
     inkscape:cx="60.853498"
     inkscape:cy="43.088812"
     inkscape:window-width="1366"
     inkscape:window-height="705"
     inkscape:window-x="-8"
     inkscape:window-y="-8"
     inkscape:window-maximized="1"
     inkscape:current-layer="layer1" /><defs
     id="defs67424"><linearGradient
       inkscape:collect="always"
       id="linearGradient73116"><stop
         style="stop-color:#502d16;stop-opacity:1;"
         offset="0"
         id="stop73112" /><stop
         style="stop-color:#502d16;stop-opacity:0"
         offset="1"
         id="stop73114" /></linearGradient><linearGradient
       inkscape:collect="always"
       id="linearGradient73106"><stop
         style="stop-color:#502d16;stop-opacity:1;"
         offset="0"
         id="stop73102" /><stop
         style="stop-color:#502d16;stop-opacity:0"
         offset="1"
         id="stop73104" /></linearGradient><linearGradient
       inkscape:collect="always"
       id="linearGradient73098"><stop
         style="stop-color:#000000;stop-opacity:1;"
         offset="0"
         id="stop73094" /><stop
         style="stop-color:#000000;stop-opacity:0"
         offset="1"
         id="stop73096" /></linearGradient><linearGradient
       inkscape:collect="always"
       id="linearGradient72185"><stop
         style="stop-color:#4d4d4d;stop-opacity:1;"
         offset="0"
         id="stop72181" /><stop
         style="stop-color:#4d4d4d;stop-opacity:0;"
         offset="1"
         id="stop72183" /></linearGradient><linearGradient
       inkscape:collect="always"
       id="linearGradient72177"><stop
         style="stop-color:#550000;stop-opacity:1;"
         offset="0"
         id="stop72173" /><stop
         style="stop-color:#550000;stop-opacity:0;"
         offset="1"
         id="stop72175" /></linearGradient><linearGradient
       inkscape:collect="always"
       id="linearGradient72169"><stop
         style="stop-color:#2b0000;stop-opacity:1;"
         offset="0"
         id="stop72165" /><stop
         style="stop-color:#2b0000;stop-opacity:0;"
         offset="1"
         id="stop72167" /></linearGradient><linearGradient
       inkscape:collect="always"
       id="linearGradient71386"><stop
         style="stop-color:#999999;stop-opacity:1;"
         offset="0"
         id="stop71382" /><stop
         style="stop-color:#999999;stop-opacity:0;"
         offset="1"
         id="stop71384" /></linearGradient><linearGradient
       inkscape:collect="always"
       id="linearGradient70672"><stop
         style="stop-color:#808080;stop-opacity:1;"
         offset="0"
         id="stop70668" /><stop
         style="stop-color:#808080;stop-opacity:0;"
         offset="1"
         id="stop70670" /></linearGradient><linearGradient
       inkscape:collect="always"
       id="linearGradient70664"><stop
         style="stop-color:#ffffff;stop-opacity:1;"
         offset="0"
         id="stop70660" /><stop
         style="stop-color:#ffffff;stop-opacity:0;"
         offset="1"
         id="stop70662" /></linearGradient><linearGradient
       inkscape:collect="always"
       xlink:href="#linearGradient70664"
       id="linearGradient70666"
       x1="78.003983"
       y1="80.004089"
       x2="79.604057"
       y2="118.80606"
       gradientUnits="userSpaceOnUse"
       gradientTransform="matrix(0.30927234,0,0,0.30927234,-9.2938962,-12.397856)" /><linearGradient
       inkscape:collect="always"
       xlink:href="#linearGradient70672"
       id="linearGradient70674"
       x1="78.604012"
       y1="78.403999"
       x2="78.404007"
       y2="118.20603"
       gradientUnits="userSpaceOnUse"
       gradientTransform="matrix(0.30927234,0,0,0.30927234,-9.2938962,-12.397856)" /><linearGradient
       inkscape:collect="always"
       xlink:href="#linearGradient71386"
       id="linearGradient71388"
       x1="55.602837"
       y1="92.404701"
       x2="50.20256"
       y2="126.00643"
       gradientUnits="userSpaceOnUse"
       gradientTransform="matrix(0.30927234,0,0,0.30927234,-9.2938962,-12.397856)" /><linearGradient
       inkscape:collect="always"
       xlink:href="#linearGradient72169"
       id="linearGradient72171"
       x1="46.202358"
       y1="104.40533"
       x2="46.00235"
       y2="122.60625"
       gradientUnits="userSpaceOnUse"
       gradientTransform="matrix(0.30927234,0,0,0.30927234,-9.2938962,-12.397856)" /><linearGradient
       inkscape:collect="always"
       xlink:href="#linearGradient72177"
       id="linearGradient72179"
       x1="46.002346"
       y1="102.20521"
       x2="45.102299"
       y2="122.20623"
       gradientUnits="userSpaceOnUse"
       gradientTransform="matrix(0.30927234,0,0,0.30927234,-9.2938962,-12.397856)" /><linearGradient
       inkscape:collect="always"
       xlink:href="#linearGradient72185"
       id="linearGradient72187"
       x1="65.603348"
       y1="101.20516"
       x2="65.003319"
       y2="113.20577"
       gradientUnits="userSpaceOnUse"
       gradientTransform="matrix(0.30927234,0,0,0.30927234,-9.2938962,-12.397856)" /><linearGradient
       inkscape:collect="always"
       xlink:href="#linearGradient73098"
       id="linearGradient73100"
       x1="85.60437"
       y1="87.804474"
       x2="86.804428"
       y2="100.50513"
       gradientUnits="userSpaceOnUse"
       gradientTransform="matrix(0.30927234,0,0,0.30927234,-9.2938962,-12.397856)" /><linearGradient
       inkscape:collect="always"
       xlink:href="#linearGradient73106"
       id="linearGradient73108"
       x1="78.503998"
       y1="90.004593"
       x2="78.003975"
       y2="100.80515"
       gradientUnits="userSpaceOnUse"
       gradientTransform="matrix(0.30927234,0,0,0.30927234,-9.2938962,-12.397856)" /><linearGradient
       inkscape:collect="always"
       xlink:href="#linearGradient73116"
       id="linearGradient73110"
       x1="78.503998"
       y1="90.004593"
       x2="78.003975"
       y2="100.80515"
       gradientUnits="userSpaceOnUse"
       gradientTransform="matrix(0.30927234,0,0,0.30927234,-9.2938962,-12.397856)" /></defs><g
     inkscape:label="Capa 1"
     inkscape:groupmode="layer"
     id="layer1"><path
       style="opacity:1;fill:url(#linearGradient70674);fill-opacity:1;fill-rule:nonzero;stroke:none;stroke-width:0.100823;stroke-dasharray:none;stroke-opacity:1;paint-order:fill markers stroke"
       d="m 11.176398,5.5792607 c -0.2187,0.087484 -1.3121986,0.5686198 -1.6183776,0.6123596 -0.3061792,0.043742 -1.3121985,1.224718 -1.3121985,1.224718 l 0.17496,1.0934988 c 0,0 0.4373995,0.3936598 0.4373995,0.7435798 0,0.3499185 0.043742,3.0617951 0.1312193,3.2804951 0.087484,0.2187 0.6560997,1.662119 0.7873197,1.924557 0.13122,0.262439 -0.6123597,7.392051 -0.6123597,7.392051 l 1.1809773,0.874798 0.218701,1.530898 0.874798,0.874799 c 0,0 4.636435,0 5.423754,-0.349917 0.787319,-0.34992 1.968298,-1.35594 2.012037,-1.618379 0.04374,-0.262439 0.30618,-1.70586 0.30618,-1.880817 0,-0.174963 0.218699,-0.481139 0.30618,-0.699841 0.08748,-0.218698 -0.56862,-1.574639 -0.56862,-1.837077 0,-0.26244 -0.349919,-1.312199 -0.349919,-1.662118 0,-0.34992 -0.4374,-1.574638 -0.4374,-1.574638 0,0 0.08748,-1.006018 0.174961,-1.268459 0.08748,-0.262439 0.262439,-1.443418 0.306179,-1.618378 0.04374,-0.17496 0.174959,-0.349919 0.174959,-0.349919 0,0 0.174961,0.874799 0.56862,1.355938 0.393658,0.48114 0.787318,0.8748 0.874799,1.093498 0.08748,0.2187 0.13122,0.6561 0.08748,0.8748 -0.04374,0.218699 -0.393659,1.399678 -0.393659,1.618378 0,0.218699 0.17496,1.574638 0.306179,2.099517 0.13122,0.524881 0.17496,1.44342 0.17496,1.44342 l -0.2187,0.218698 1.749598,1.093498 0.61236,-1.049757 0.481138,-0.524881 0.262438,-1.224716 c 0,0 -0.174957,-1.26846 0.04374,-1.66212 0.218702,-0.393659 0.39366,-1.355938 0.39366,-1.355938 0,0 0.26244,-1.006018 0.131221,-1.268459 -0.131221,-0.26244 -0.34992,-1.355938 -0.568621,-1.705857 -0.218699,-0.34992 -0.831059,-0.918539 -0.918536,-1.137239 -0.08748,-0.2187 -0.218702,-1.530898 -0.218702,-1.924557 0,-0.3936596 0.174961,-1.4871582 -0.131218,-1.9682973 C 21.717731,7.7662584 21.236589,6.9789388 20.93041,6.8039798 20.624231,6.6290198 20.230571,6.3665803 19.836911,6.23536 19.443251,6.1041408 18.349754,5.9291808 18.087313,5.7979605 17.824873,5.6667402 16.512676,5.2293417 16.512676,5.2293417 c 0,0 -1.793338,-0.5686198 -2.361958,-0.4373995 -0.568619,0.1312192 -2.974316,0.7873185 -2.974316,0.7873185 z"
       id="path69124" /><path
       style="opacity:1;fill:url(#linearGradient70666);fill-opacity:1;fill-rule:nonzero;stroke:none;stroke-width:0.100823;stroke-dasharray:none;stroke-opacity:1;paint-order:fill markers stroke"
       d="m 11.242834,5.6336412 c -0.154644,0.030927 -1.9175852,0.6495049 -1.9175852,0.6495049 0,0 -0.742292,0.4330029 -0.494862,0.4639319 0.247431,0.030927 1.2990102,0.463932 1.6392272,0.896936 0.340217,0.4330029 1.206224,1.7320137 0.989722,2.2268734 -0.216502,0.4948606 -0.494861,1.4227256 -0.711363,1.8866576 -0.216501,0.463932 -0.649505,1.484583 -0.649505,1.484583 0,0 -0.6804336,0.216502 -0.3711456,0.463932 0.3092876,0.247431 0.7422916,1.32994 0.8660066,1.32994 0.123715,0 1.608299,0.154643 1.608299,0.525788 0,0.371146 -1.113438,1.113438 -1.05158,1.484584 0.06185,0.371146 1.144366,1.144366 1.113437,1.422726 -0.03093,0.278359 0.587648,1.979444 0.587648,2.226874 0,0.247431 -0.433004,2.350591 -0.525789,2.659879 -0.09279,0.309288 -0.123716,0.494861 -0.123716,0.711359 0,0.216503 2.195946,0.587648 2.505234,0.463933 0.309288,-0.123715 2.041301,0.402076 2.041301,0.402076 0,0 0.06185,-2.505234 0.09278,-2.721735 0.03093,-0.216502 0.340218,-2.07223 0.371146,-2.35059 0.03093,-0.278361 -0.06185,-1.237152 -0.185572,-1.391796 -0.123716,-0.154645 0.463932,-0.556719 0.463932,-0.556719 l 0.463932,-2.134089 c 0,0 0.216501,-0.773219 0.24743,-0.896934 0.03093,-0.123716 0.463932,-2.474305 0.463932,-2.474305 l 0.123721,-0.247431 c 0,0 -0.649505,-0.216502 -0.742292,-0.463932 -0.09279,-0.247431 -0.278359,-1.05158 -0.340217,-1.206224 -0.06185,-0.154644 -0.216501,-0.8041486 -0.09279,-1.2680803 0.123715,-0.463933 0.27836,-0.618578 0.402075,-0.8969359 0.123715,-0.2783599 0.309288,-0.7732198 0.494861,-1.0206508 0.185573,-0.247431 0.587647,-1.1443669 0.587647,-1.1443669 v -0.154644 c 0,0 -1.113437,-0.3402159 -1.299009,-0.4020739 C 17.614165,5.5408582 16.96466,5.3552812 16.779087,5.2934242 16.593515,5.2315702 13.84085,4.7985622 13.84085,4.7985622 Z"
       id="path69162" /><ellipse
       style="opacity:1;fill:#b3b3b3;fill-opacity:1;fill-rule:nonzero;stroke:none;stroke-width:0.100823;stroke-dasharray:none;stroke-opacity:1;paint-order:fill markers stroke"
       id="path69064"
       cx="14.019497"
       cy="1.5551856"
       rx="1.4871581"
       ry="0.78731894" /><path
       style="opacity:1;fill:#808080;fill-opacity:1;fill-rule:nonzero;stroke:#666666;stroke-width:0.100823;stroke-dasharray:none;stroke-opacity:1;paint-order:fill markers stroke"
       d="m 12.532336,1.642666 c 0,0 -0.437399,1.7495981 -0.481139,1.9682979 -0.04374,0.2186987 0.2187,0.874798 0.2187,0.874798 l -0.524881,0.4811393 c 0,0 0.96228,2.0995182 1.22472,2.2744782 0.262439,0.1749589 0.918538,0.5686187 0.918538,0.5686187 l 0.56862,0.2624395 c 0,0 1.487158,-1.0934988 1.618378,-1.3121986 0.131219,-0.2186987 0.26244,-0.8310582 0.26244,-0.8310582 0,0 0.08748,-0.9622796 -0.04374,-1.6621187 C 16.162749,3.5672231 15.81283,2.0800655 15.81283,2.0800655 L 15.594131,1.4677059 c 0,0 -0.4374,0.8310594 -0.699839,0.7873196 -0.26244,-0.043742 -1.137239,0.043742 -1.312198,0.043742 -0.174961,0 -0.787319,-0.3061792 -0.787319,-0.3061792"
       id="path69118" /><path
       style="opacity:1;fill:#666666;fill-opacity:1;fill-rule:nonzero;stroke:none;stroke-width:0.100823;stroke-dasharray:none;stroke-opacity:1;paint-order:fill markers stroke"
       d="m 11.874039,4.948785 -0.610161,0.7179552 0.26244,1.2247191 1.443418,2.0557773 1.662117,1.0060188 c 0,0 1.268459,-1.3996775 1.487159,-1.5308978 0.2187,-0.1312192 0.831059,-1.049759 0.831059,-1.224718 0,-0.1749611 0.2187,-1.1809793 0.131219,-1.3996791 C 16.99381,5.5792607 16.337712,4.2670621 16.337712,4.2670621 l -0.422391,2.4697522 -1.527789,1.1884836 c 0,0 -1.301586,-0.8566808 -1.389066,-1.0316408 C 12.910986,6.7186981 11.874039,4.948785 11.874039,4.948785 Z"
       id="path69120"
       sodipodi:nodetypes="cccccssscccsc" /><path
       style="opacity:1;fill:#800000;fill-opacity:1;fill-rule:nonzero;stroke:none;stroke-width:0.100823;stroke-dasharray:none;stroke-opacity:1;paint-order:fill markers stroke"
       d="m 13.888274,9.5595964 c 0,0.5248786 0.17496,2.1432566 0.17496,2.1432566 l 0.04374,0.34992 -1.705857,-0.52488 -0.30618,-0.4374 v 1.705858 l 0.52488,-0.34992 c 0,0 1.487157,0.08748 1.530897,0.262441 0.04374,0.174959 0.04374,3.892855 0.04374,3.892855 l 0.91854,0.08748 -0.174961,-3.411716 0.262439,-0.699839 c 0,0 0.8748,-0.04374 1.049759,-0.04374 0.17496,0 0.56862,0.393659 0.56862,0.393659 l 0.306179,-0.962279 0.04374,-0.962278 -0.48114,0.743578 -1.574637,0.131221 c 0,0 -0.52488,-0.04374 -0.48114,-0.2187 0.04374,-0.17496 0.13122,-1.006018 0.2187,-1.224719 0.08748,-0.218699 0.13122,-0.6123586 0.13122,-0.6123586 v -0.218699 z"
       id="path69122" /><path
       style="opacity:1;fill:url(#linearGradient73100);fill-opacity:1;fill-rule:nonzero;stroke:none;stroke-width:0.100823;stroke-dasharray:none;stroke-opacity:1;paint-order:fill markers stroke"
       d="m 18.30601,16.120588 c 0,0 -1.18098,0.568618 -1.443419,0.612358 -0.26244,0.04374 -0.6561,0.17496 -0.83106,0.17496 -0.174959,0 -2.230736,-0.13122 -2.493177,-0.13122 -0.262439,0 -0.743578,0.13122 -1.268457,0 -0.524881,-0.131219 -0.96228,-0.306179 -0.96228,-0.306179 0,0 -0.306179,0.962278 0,1.180979 0.30618,0.218699 1.399679,0.656099 1.662119,0.656099 0.262439,0 0.962278,0.349917 1.487158,0.349917 0.524879,0 1.049758,-0.04374 1.880818,-0.174958 0.831059,-0.131219 1.224718,-0.306179 1.618377,-0.393659 0.39366,-0.08748 0.743579,-0.2187 0.743579,-0.2187 z"
       id="path69126" /><path
       style="opacity:1;fill:url(#linearGradient73110);fill-opacity:1;fill-rule:nonzero;stroke:none;stroke-width:0.100823;stroke-dasharray:none;stroke-opacity:1;paint-order:fill markers stroke"
       d="m 13.669575,16.601727 c 0.13122,0.349919 -0.17496,1.924557 -0.17496,1.924557 0,0 2.405697,0.26244 2.449437,0.08748 0.04374,-0.174962 -0.17496,-1.968299 -0.17496,-1.968299 z"
       id="path69128" /><path
       style="opacity:1;fill:url(#linearGradient73108);fill-opacity:1;fill-rule:nonzero;stroke:none;stroke-width:0.100823;stroke-dasharray:none;stroke-opacity:1;paint-order:fill markers stroke"
       d="m 14.019495,17.082866 -0.04374,1.049758 1.443418,0.08748 -0.04374,-1.180978 z"
       id="path69130" /><path
       style="opacity:1;fill:#4d4d4d;fill-opacity:1;fill-rule:nonzero;stroke:none;stroke-width:0.100823;stroke-dasharray:none;stroke-opacity:1;paint-order:fill markers stroke"
       d="m 19.312028,6.1041408 c -0.306179,0.3061793 -0.962279,1.6621176 -1.137239,2.2307363 -0.17496,0.5686198 -0.34992,1.2684583 0.26244,1.8370769 0.612358,0.568619 1.224719,1.312199 1.837077,1.355939 0.61236,0.04374 1.880818,-0.39366 1.880818,-0.39366 0,0 0.08748,-2.2744759 0.04374,-2.5806551 -0.04374,-0.3061802 -0.831061,-1.6183778 -1.26846,-1.8370786 -0.4374,-0.2186987 -1.618378,-0.6123585 -1.618378,-0.6123585 z"
       id="path69132" /><path
       style="opacity:1;fill:#4d4d4d;fill-opacity:1;fill-rule:nonzero;stroke:none;stroke-width:0.100823;stroke-dasharray:none;stroke-opacity:1;paint-order:fill markers stroke"
       d="m 23.029922,12.708872 c -0.349917,0.481139 -0.656096,0.524879 -0.656096,0.524879 l -0.218702,0.874799 c 0,0 -0.61236,0.131219 -0.568619,0.481138 0.04374,0.34992 0.262439,0.69984 0.61236,0.69984 0.349919,0 0.393659,0.349919 0.393659,0.349919 l 0.524879,0.91854 c 0,0 0.787321,0.437399 0.874798,0.131219 0.08748,-0.306179 0.30618,-1.093498 0.04374,-1.968298 -0.262439,-0.874798 -0.6561,-1.749597 -0.6561,-1.749597 l -0.131218,-0.262439 z"
       id="path69136" /><path
       style="opacity:1;fill:url(#linearGradient71388);fill-opacity:1;fill-rule:nonzero;stroke:none;stroke-width:0.100823;stroke-dasharray:none;stroke-opacity:1;paint-order:fill markers stroke"
       d="m 4.9653264,8.8160163 c 0,0.3499201 -0.5248801,2.9743157 -0.699839,3.4554557 -0.1749611,0.48114 -0.4811404,1.137239 -0.4811404,1.137239 0,0 -0.087484,-0.656099 -0.349919,-0.34992 -0.2624395,0.30618 -1.3559383,8.048148 -0.7873196,8.87921 0.5686199,0.831058 0.5686199,0.962279 0.7435788,1.224718 0.1749611,0.262439 0.3936598,1.793337 0.3936598,1.793337 L 3.4781678,25.349717 3.084508,24.999797 c 0,0 0.17496,2.099517 0.4811403,2.230735 0.3061793,0.131221 2.1869966,0.306182 2.9305754,0.262438 0.7435788,-0.04373 2.2307374,-0.218698 2.493177,-0.524878 0.2624405,-0.306179 0.6560997,-1.312196 0.6560997,-1.312196 0,0 -2.1432584,0.612356 -1.9245575,-0.262442 0.2186987,-0.874799 0.5686187,-1.487157 0.699839,-1.749597 0.1312192,-0.262438 0.6560993,-0.787317 1.0497595,-0.962278 0.393658,-0.174959 0.7873176,-0.131219 1.0060176,-0.131219 0.218699,0 0.699839,-1.04976 0.874798,-1.618379 0.174961,-0.568618 1.04976,-3.717895 1.04976,-4.417735 0,-0.699839 -0.34992,-2.580656 -0.34992,-2.580656 0,0 -0.56862,0.699839 -0.83106,0.56862 -0.262439,-0.13122 -1.3121966,-0.52488 -1.4434166,-2.099518 -0.13122,-1.574639 0,-2.186997 0,-2.186997 l -0.08748,-1.5746376 0.04374,-0.349919 -1.8370787,-1.3996791 z"
       id="path69140" /><path
       style="opacity:1;fill:url(#linearGradient72187);fill-opacity:1;fill-rule:nonzero;stroke:none;stroke-width:0.100823;stroke-dasharray:none;stroke-opacity:1;paint-order:fill markers stroke"
       d="m 9.0331404,8.2911384 c 0,0.2624395 -0.2624395,1.705857 -0.2186987,2.0995156 0.043742,0.39366 0.5686187,3.367976 0.7873187,3.674156 0.2187,0.30618 0.7435776,1.006019 1.2247176,1.049758 0.481139,0.04374 0.612359,0.524879 0.481139,0.918539 -0.131219,0.39366 -0.481139,2.055778 -0.481139,2.318218 0,0.262441 -0.30618,2.012038 -0.393659,2.449438 -0.08748,0.437398 -0.2187,1.180979 -0.2187,1.180979 L 8.9019212,22.50662 c 0,0 -0.1312203,0.831058 0.1312192,0.743577 0.2624395,-0.08748 0.918539,-0.656097 0.918539,-0.656097 0,0 0.8747986,-0.39366 0.9185386,-0.174961 0.04374,0.218699 0.69984,-2.055776 0.743579,-2.274476 0.04374,-0.218702 0.78732,-1.837078 0.78732,-2.755618 0,-0.918538 -0.08748,-1.793337 -0.08748,-1.968297 0,-0.174959 -0.2187,-1.705858 -0.2187,-1.705858 l -0.612359,0.568619 c 0,0 -0.39366,0.34992 -0.612359,0.13122 -0.218701,-0.218698 -1.0060186,-1.399678 -1.0060186,-1.618378 0,-0.218699 0,-1.749598 0,-1.968298 0,-0.218699 -0.131219,-1.2247176 -0.131219,-1.4434168 0,-0.2186998 0,-1.0060194 0,-1.0060194 L 8.5957409,7.7225176 Z"
       id="path69144" /><path
       style="opacity:1;fill:url(#linearGradient72179);fill-opacity:1;fill-rule:nonzero;stroke:none;stroke-width:0.100823;stroke-dasharray:none;stroke-opacity:1;paint-order:fill markers stroke"
       d="M 5.7526449,11.003014 C 5.4902054,10.784314 5.0528059,10.784314 5.2715057,10.653095 5.4902054,10.521874 6.452484,9.9969954 6.452484,9.9969954 l 1.2247191,0.4811386 c 0,0 -0.5248801,0.04374 -0.5248801,0.393659 0,0.34992 -0.9185388,4.067815 -0.9185388,4.067815 0,0 1.9245571,0.262441 2.143258,0.218701 0.2186987,-0.04374 0.524879,-0.30618 0.524879,-0.30618 l -0.087484,2.668137 c 0,0 -0.4811403,-0.78732 -0.7873196,-0.78732 -0.3061792,0 -2.0120376,0.26244 -2.0120376,0.26244 l -0.6560983,7.96067 c 0,0 -0.087484,0.962279 -0.1312202,1.180978 -0.043742,0.218699 -1.0060194,0.218699 -1.0060194,-0.04374 0,-0.262438 0.043742,-5.423751 0.043742,-5.423751 l 0.349919,-3.018056 0.087484,-0.74358 -1.0060194,0.04374 -0.3061803,0.56862 c 0,0 -0.2624395,-0.962279 -0.2624395,-1.18098 0,-0.218698 0.6123596,-0.918538 0.6123596,-0.918538 l 0.17496,0.393659 c 0,0 0.9622786,-0.262439 1.0060183,-0.437399 0.043742,-0.174959 0.8310593,-4.373994 0.8310591,-4.373995 z"
       id="path69146" /><path
       style="opacity:1;fill:url(#linearGradient72171);fill-opacity:1;fill-rule:nonzero;stroke:none;stroke-width:0.100823;stroke-dasharray:none;stroke-opacity:1;paint-order:fill markers stroke"
       d="m 5.402726,16.514247 c 0,0 -0.5248801,0.568619 -0.5686199,4.680173 -0.043742,4.111556 -0.087484,4.811396 -0.087484,4.811396 l 0.4811403,0.131218 0.6560993,-9.185388 -0.524879,-0.568619 v 0.04374"
       id="path69148"
       sodipodi:nodetypes="csccccc" /><path
       style="opacity:1;fill:#2b0000;fill-opacity:1;fill-rule:nonzero;stroke:none;stroke-width:0.100823;stroke-dasharray:none;stroke-opacity:1;paint-order:fill markers stroke"
       d="m 5.4464646,15.945627 0.8748002,0.831059 1.6621176,-0.174959 0.874799,0.874798 v -2.186997 c 0,0 -0.1312203,0.524879 -0.4811392,0.524879 -0.3499201,0 -2.9305776,0.13122 -2.9305776,0.13122 z"
       id="path69150" /><path
       style="opacity:1;fill:#2b0000;fill-opacity:1;fill-rule:nonzero;stroke:none;stroke-width:0.100823;stroke-dasharray:none;stroke-opacity:1;paint-order:fill markers stroke"
       d="m 3.4781678,16.470507 c 0.2624395,0.04374 0.8310593,-0.39366 1.1809794,-0.39366 0.349919,0 -0.043742,0.656099 -0.043742,0.656099 l -0.8747991,0.26244 z"
       id="path69152" /><path
       style="opacity:1;fill:#2b0000;fill-opacity:1;fill-rule:nonzero;stroke:none;stroke-width:0.100823;stroke-dasharray:none;stroke-opacity:1;paint-order:fill markers stroke"
       d="m 5.3152454,15.508228 c 0.043742,-0.831059 1.0934988,-5.467494 1.0934988,-5.467494 l 1.1809784,0.34992 -1.3996781,4.592694 z"
       id="path69154" /><path
       style="opacity:1;fill:#666666;fill-opacity:1;fill-rule:nonzero;stroke:none;stroke-width:0.100823;stroke-dasharray:none;stroke-opacity:1;paint-order:fill markers stroke"
       d="m 13.800795,2.9548646 0.04374,1.5308973 c 0,0 -1.312199,-0.524879 -1.530899,-0.6998391 -0.218699,-0.1749589 -0.17496,0.6998391 -0.17496,0.6998391 0,0 0.96228,0.699839 1.18098,0.7873196 0.2187,0.087484 0.56862,0.2624395 0.56862,0.2624395 v 1.0934988 l 0.437398,0.524879 0.481139,-0.3936598 V 5.7542207 L 15.987794,4.8356819 15.944052,3.8296626 14.631853,4.5732424 V 2.9111238 l -0.699839,-0.174959 z"
       id="path69156" /><path
       style="opacity:1;fill:#000000;fill-opacity:1;fill-rule:nonzero;stroke:#000000;stroke-width:0.100823;stroke-dasharray:none;stroke-opacity:1;paint-order:fill markers stroke"
       d="m 15.659742,4.288932 c -0.13122,0.043742 -1.049758,0.6998401 -1.049758,0.6998401 0,0 -0.13122,0.4155297 0.04374,0.3280491 0.174959,-0.087484 1.115368,-0.7435788 1.115368,-0.7435788 z"
       id="path69158" /><path
       style="opacity:1;fill:#000000;fill-opacity:1;fill-rule:nonzero;stroke:#000000;stroke-width:0.100823;stroke-dasharray:none;stroke-opacity:1;paint-order:fill markers stroke"
       d="m 12.703622,4.3172499 c 0.133746,0.035273 1.092313,0.6313642 1.092313,0.6313642 0,0 0.157491,0.4063008 -0.0227,0.3301733 -0.180194,-0.076132 -1.160586,-0.6708249 -1.160586,-0.6708249 z"
       id="path69160" /><path
       style="opacity:1;fill:#4d4d4d;fill-opacity:1;fill-rule:nonzero;stroke:none;stroke-width:0.100823;stroke-dasharray:none;stroke-opacity:1;paint-order:fill markers stroke"
       d="m 10.738998,8.6410574 c 0,0 -2.8868359,-2.1432568 -3.0617949,-2.1869976 -0.1749611,-0.043742 -2.7118767,1.7058584 -2.843097,1.8808173 -0.1312192,0.17496 -0.4373995,0.7435787 -0.4373995,0.7435787 0,0 0.699839,-0.2186987 1.1809783,-0.5248779 0.4811404,-0.3061802 1.4871586,-1.0934987 1.7933379,-1.0934987 0.3061803,0 0.8310593,0.5686187 1.3559383,0.7435787 0.5248801,0.1749589 1.1372383,0.4811381 1.3559379,0.5686187 0.2187,0.087484 0.787319,0.1312203 0.787319,0.1312203 l 0.13122,-0.1749601"
       id="path69138" /></g></svg>
