<?xml version="1.0" encoding="UTF-8" standalone="no"?>
<!-- Created with Inkscape (http://www.inkscape.org/) -->

<svg
   width="30"
   height="30"
   viewBox="0 0 7.9374998 7.9375"
   version="1.1"
   id="svg51804"
   inkscape:version="1.2.2 (732a01da63, 2022-12-09)"
   sodipodi:docname="arbusto.svg"
   xmlns:inkscape="http://www.inkscape.org/namespaces/inkscape"
   xmlns:sodipodi="http://sodipodi.sourceforge.net/DTD/sodipodi-0.dtd"
   xmlns="http://www.w3.org/2000/svg"
   xmlns:svg="http://www.w3.org/2000/svg">
  <sodipodi:namedview
     id="namedview51806"
     pagecolor="#ffffff"
     bordercolor="#000000"
     borderopacity="0.25"
     inkscape:showpageshadow="2"
     inkscape:pageopacity="0.0"
     inkscape:pagecheckerboard="0"
     inkscape:deskcolor="#d1d1d1"
     inkscape:document-units="mm"
     showgrid="false"
     inkscape:zoom="2.6456983"
     inkscape:cx="-1.1339161"
     inkscape:cy="-51.782169"
     inkscape:window-width="1366"
     inkscape:window-height="705"
     inkscape:window-x="-8"
     inkscape:window-y="-8"
     inkscape:window-maximized="1"
     inkscape:current-layer="g67647" />
  <defs
     id="defs51801" />
  <g
     inkscape:label="Capa 1"
     inkscape:groupmode="layer"
     id="layer1">
    <g
       id="g67647"
       transform="matrix(0.95958248,0,0,0.95958248,-156.69266,-96.49975)">
      <path
         style="opacity:1;fill:#02a53f;fill-opacity:1;fill-rule:nonzero;stroke-width:0.37895;paint-order:fill markers stroke"
         d="m 166.99188,103.70817 c -0.0857,0.0561 -0.4325,-0.023 -0.54679,0.0515 -0.22075,0.14385 -0.62233,8.7e-4 -0.76759,0.32431 -0.13467,0.29979 -0.26198,0.55857 -0.31801,0.53612 -0.50736,-0.20333 -1.06743,0.27185 -0.75441,0.90733 0.0853,0.17317 -0.50083,0.0803 -0.52137,0.42092 -0.0273,0.45254 0.34422,0.50776 0.38711,0.73621 0.0294,0.15665 -0.11574,0.43156 0.0835,0.64512 0.12198,0.13078 0.61715,0.0252 0.55369,0.10678 -0.22859,0.29381 0.31111,0.71911 0.68953,0.0476 0.0865,-0.15353 0.21662,0.4505 0.49666,0.33212 0.54143,-0.22885 0.32952,-0.5427 0.38458,-0.48699 0.22659,0.22934 0.64408,0.327 0.87804,0.21584 0.30757,-0.20108 0.53793,-0.13296 0.50255,-0.32575 -0.0241,-0.13104 0.21687,0.4466 0.45477,0.28943 0.085,-0.0561 0.34588,-0.0966 0.51703,-0.14068 0.23551,-0.0607 0.74248,-0.0391 0.78561,-0.13941 0.25747,-0.59867 -0.41944,-1.42392 -0.33717,-1.47074 0.70276,-0.40021 -0.0623,-1.08712 0.0177,-1.00957 0.10192,0.0987 0.23442,-0.28807 0.12931,-0.59825 -0.0516,-0.15238 -0.28748,-0.20322 -0.36522,-0.33079 -0.236,-0.38723 0.10571,-0.63945 -0.65115,-0.57164 -0.22377,0.02 -0.46745,-0.21885 -0.60522,-0.20543 -0.32819,0.032 -0.38916,0.31469 -0.55544,0.42356 -0.23609,0.15456 -0.37897,0.19108 -0.37897,0.19108 z"
         id="path67643"
         sodipodi:nodetypes="sssssssssssscssssssssssscs"
         inkscape:export-filename="path67643.png"
         inkscape:export-xdpi="96"
         inkscape:export-ydpi="96" />
      <path
         style="opacity:1;fill:#00c22e;fill-opacity:1;fill-rule:nonzero;stroke:none;stroke-width:0.352155;paint-order:fill markers stroke"
         d="m 166.56089,103.05743 c -0.0764,0.05 -0.39594,-0.0372 -0.49789,0.0292 -0.19692,0.12825 -0.56859,-0.0213 -0.69057,0.27955 -0.11311,0.27893 -0.22082,0.51932 -0.27277,0.49607 -0.47032,-0.21054 -0.96629,0.2192 -0.65918,0.83182 0.0837,0.16694 -0.45496,0.058 -0.4624,0.37979 -0.01,0.42733 0.33138,0.49284 0.37815,0.71058 0.0321,0.1493 -0.0914,0.40432 0.0977,0.61354 0.1158,0.12813 0.56473,0.0458 0.50945,0.12082 -0.1991,0.26992 0.30815,0.69169 0.63162,0.0696 0.0739,-0.14224 0.21287,0.43408 0.46481,0.33204 0.48711,-0.19729 0.64906,-0.4876 0.70122,-0.4329 0.21465,0.22513 0.42429,0.15088 0.63438,0.054 0.27434,-0.17935 0.28797,-0.17268 0.24924,-0.35641 -0.0264,-0.12487 0.25497,0.0243 0.46711,-0.11593 0.0757,-0.0501 0.28978,0.0656 0.44469,0.03 0.21317,-0.049 0.27375,-0.2884 0.30983,-0.38178 0.21537,-0.55743 -0.0379,-0.5901 0.0357,-0.63148 0.62882,-0.35372 -0.093,-1.03112 -0.0173,-0.95488 0.0964,0.0971 0.20463,-0.26428 0.0983,-0.56159 -0.0523,-0.14606 -0.26941,-0.20258 -0.34468,-0.32609 -0.22849,-0.37492 0.0754,-0.60144 -0.61394,-0.56426 -0.2038,0.0111 -0.43438,-0.22379 -0.55981,-0.21601 -0.29881,0.0185 -0.34513,0.28396 -0.49345,0.38107 -0.21058,0.13785 -0.33992,0.16732 -0.33992,0.16732 z"
         id="path67645"
         sodipodi:nodetypes="sssssssssssscssssssssssscs" />
    </g>
  </g>
</svg>
