<?xml version="1.0" encoding="UTF-8" standalone="no"?>
<!-- Created with Inkscape (http://www.inkscape.org/) -->

<svg
   width="25"
   height="25"
   viewBox="0 0 6.6145831 6.6145832"
   version="1.1"
   id="svg5732"
   inkscape:version="1.2.2 (732a01da63, 2022-12-09)"
   sodipodi:docname="hierba4.svg"
   xmlns:inkscape="http://www.inkscape.org/namespaces/inkscape"
   xmlns:sodipodi="http://sodipodi.sourceforge.net/DTD/sodipodi-0.dtd"
   xmlns="http://www.w3.org/2000/svg"
   xmlns:svg="http://www.w3.org/2000/svg">
  <sodipodi:namedview
     id="namedview5734"
     pagecolor="#ffffff"
     bordercolor="#000000"
     borderopacity="0.25"
     inkscape:showpageshadow="2"
     inkscape:pageopacity="0.0"
     inkscape:pagecheckerboard="0"
     inkscape:deskcolor="#d1d1d1"
     inkscape:document-units="mm"
     showgrid="false"
     inkscape:zoom="20.48"
     inkscape:cx="11.865234"
     inkscape:cy="12.548828"
     inkscape:window-width="1366"
     inkscape:window-height="705"
     inkscape:window-x="-8"
     inkscape:window-y="-8"
     inkscape:window-maximized="1"
     inkscape:current-layer="layer1" />
  <defs
     id="defs5729" />
  <g
     inkscape:label="Capa 1"
     inkscape:groupmode="layer"
     id="layer1">
    <g
       id="g98195"
       transform="rotate(-4.6093924,-1199.3123,1464.2335)">
      <path
         id="path64023"
         style="opacity:1;fill:#61f300;fill-opacity:1;stroke-width:0.264583;paint-order:fill markers stroke"
         d="m 115.91009,104.97668 c -0.23568,1.58969 1.75168,-2.51934 0.56426,-2.38329 -0.11819,0.0135 1.27059,-0.77166 0.0852,3.30095 -0.0693,-1.26179 1.30977,-3.18505 1.76076,-2.65323 -0.17112,-0.48365 -0.82514,0.26585 -1.13993,1.19732 -0.17366,0.51384 -0.24408,1.08306 -0.0733,1.53119 0.40376,-0.21918 0.32097,-1.88478 1.8675,-1.59209 -1.05212,-0.0646 -1.38354,1.37454 -1.42338,2.41374 l -2.11618,-0.26855 c -0.3438,-0.50329 1.15164,-2.74158 -0.0213,-3.60324 0.7295,0.56488 0.64552,1.14673 0.49637,2.0572 z"
         sodipodi:nodetypes="csccscccccc" />
      <path
         id="path64025"
         style="opacity:1;fill:#338000;fill-opacity:1;stroke-width:0.264583;paint-order:fill markers stroke"
         d="m 115.06279,103.87712 c 0.81085,0.41892 0.42691,1.68456 0.67963,2.11343 0.49495,0.83995 0.42104,-0.82851 0.6121,-1.71408 0.16218,-0.75172 -0.26372,-1.2189 -0.22146,-1.16745 0.77648,0.94542 0.27514,1.2945 0.32336,3.25009 -0.007,-1.08533 0.87144,-1.8581 1.44965,-2.59401 -0.37138,0.78112 -1.44184,1.77035 -0.92366,2.84956 0.39249,-1.57861 1.36849,-1.21746 2.27681,-1.24859 -1.32796,-0.0238 -1.79747,0.39756 -1.61217,1.75372 l -2.3151,-0.1323 c -0.19526,-1.89192 0.65016,-1.98879 -0.2712,-3.08462 z"
         sodipodi:nodetypes="cssscccccccc" />
      <path
         id="path64027"
         style="opacity:1;fill:#225500;fill-opacity:1;stroke-width:0.264583;paint-order:fill markers stroke"
         d="m 115.58546,104.46836 c 0.89225,0.52283 0.25734,1.49756 0.42991,1.93405 0.14517,0.36726 -0.25021,0.13611 -0.18251,0.15511 0.0994,0.0279 0.44807,-0.19789 0.48167,-0.73583 0.0419,-0.67022 -0.23402,-0.90479 -0.18889,-0.85298 0.69467,0.79741 0.16949,1.11847 0.23917,1.33734 0.44356,-1.04051 0.39914,-0.59524 0.89829,-1.33394 -0.3403,1.06681 -0.5967,0.7752 -0.2699,1.76623 0.55718,-0.77094 0.43322,-1.51463 1.2413,-1.85683 -0.64946,0.48889 -0.65082,1.06186 -0.67906,2.18521 l -2.31511,-0.13229 c 0.009,-0.30272 1.37754,-1.10132 0.4226,-2.23449 z"
         sodipodi:nodetypes="csssscccccccc" />
    </g>
  </g>
</svg>
