<?xml version="1.0" encoding="UTF-8" standalone="no"?>
<!-- Created with Inkscape (http://www.inkscape.org/) -->

<svg
   width="50"
   height="70"
   viewBox="0 0 13.229166 18.520833"
   version="1.1"
   id="svg18473"
   xml:space="preserve"
   inkscape:version="1.2.2 (732a01da63, 2022-12-09)"
   sodipodi:docname="templar_move_2.svg"
   xmlns:inkscape="http://www.inkscape.org/namespaces/inkscape"
   xmlns:sodipodi="http://sodipodi.sourceforge.net/DTD/sodipodi-0.dtd"
   xmlns="http://www.w3.org/2000/svg"
   xmlns:svg="http://www.w3.org/2000/svg"><sodipodi:namedview
     id="namedview18475"
     pagecolor="#ffffff"
     bordercolor="#000000"
     borderopacity="0.25"
     inkscape:showpageshadow="2"
     inkscape:pageopacity="0.0"
     inkscape:pagecheckerboard="0"
     inkscape:deskcolor="#d1d1d1"
     inkscape:document-units="mm"
     showgrid="true"
     inkscape:zoom="3.7415825"
     inkscape:cx="51.047919"
     inkscape:cy="43.831721"
     inkscape:window-width="1366"
     inkscape:window-height="705"
     inkscape:window-x="-8"
     inkscape:window-y="-8"
     inkscape:window-maximized="1"
     inkscape:current-layer="g152"><inkscape:grid
       type="xygrid"
       id="grid36773"
       originx="0"
       originy="0" /></sodipodi:namedview><defs
     id="defs18470" /><g
     inkscape:label="Capa 1"
     inkscape:groupmode="layer"
     id="layer1"><g
       id="g689"><g
         id="g152"><path
           style="opacity:0.99;fill:#f3d89e;fill-opacity:0.984314;fill-rule:nonzero;stroke:none;stroke-width:0.1;stroke-dasharray:none;stroke-opacity:1;paint-order:fill markers stroke"
           d="m 6.9774803,9.336226 c -0.325018,0.075 -0.550027,0.125005 -0.625031,0.300015 -0.075,0.17501 -0.175009,0.525026 -0.225012,0.675034 -0.05,0.150007 -0.150008,0.525026 -0.150008,0.625031 0,0.100005 -0.150008,0.17501 -0.150008,0.17501 l -0.125006,0.275015 0.200009,0.125004 0.300017,-0.075 c 0,0 0.05,-0.275015 0.05,-0.375019 0,-0.100005 0.250015,-0.487526 0.425023,-0.612534 0.175009,-0.125004 0.487525,-0.575026 0.487525,-0.575026 l -0.0125,-0.212513 z"
           id="path38880"
           sodipodi:nodetypes="csssccccssccc" /><path
           style="opacity:0.99;fill:#999999;fill-opacity:1;fill-rule:nonzero;stroke:none;stroke-width:0.0378975;stroke-dasharray:none;stroke-opacity:1;paint-order:fill markers stroke"
           d="m 6.4943063,11.172293 2.088377,0.936799 c 0,0 0.0945,0.284327 -0.07538,0.392572 -0.169881,0.108248 -0.152254,0.241499 -0.264476,0.287638 -0.112223,0.04613 -0.347251,0.0854 -0.461695,0.07165 -0.114444,-0.01374 -0.403152,-0.0085 -0.543328,-0.06931 -0.140175,-0.06076 -0.255025,-0.111697 -0.378126,-0.197072 -0.123099,-0.08538 -0.642125,-0.340096 -0.649904,-0.549686 -0.0078,-0.209593 0.03796,-0.375639 0.01111,-0.452596 -0.02684,-0.07696 0.03059,-0.592404 0.03059,-0.592404 z"
           id="path20230-8"
           sodipodi:nodetypes="ccscsscsccc" /><path
           style="opacity:0.99;fill:#cccccc;fill-opacity:0.992157;fill-rule:nonzero;stroke:none;stroke-width:0.0379556;stroke-dasharray:none;stroke-opacity:1;paint-order:fill markers stroke"
           d="m 4.6267163,14.053112 c 0,0 0.664926,0.831792 0.672129,0.946229 0.07815,-0.02744 0.232439,0.423468 0.171731,0.503486 -0.05648,0.07445 -0.05127,-0.01139 -0.07084,0.05277 -0.01957,0.06419 -0.509698,0.05329 -0.524183,-0.01425 -0.01448,-0.06755 -0.297363,0.01544 -0.377676,-0.135319 -0.08031,-0.150749 -0.175111,-0.356547 -0.300593,-0.612255 -0.125481,-0.255712 -0.195083,-0.466839 -0.230777,-0.533838 -0.0357,-0.067 -0.116806,-0.212188 -0.05708,-0.201 0.05972,0.01119 0.371242,-0.09026 0.54931,-0.09911 0.178068,-0.0088 0.167983,0.09327 0.167983,0.09327 z"
           id="path20236-3"
           sodipodi:nodetypes="ccsssssssccc" /><path
           style="opacity:0.99;fill:#ffffff;fill-opacity:1;fill-rule:nonzero;stroke:#ffffff;stroke-width:0.0379556;stroke-dasharray:none;stroke-opacity:1;paint-order:fill markers stroke"
           d="m 3.8932263,14.089069 c -0.01393,-0.04635 -0.141208,-0.04303 -0.141208,-0.04303 0,0 -0.125074,0.08813 -0.115052,0.147307 0.01003,0.05917 0.01448,0.06755 0.114289,0.315437 0.09981,0.247883 0.198514,0.453344 0.292215,0.629218 0.0937,0.175874 0.346377,0.589612 0.399373,0.668895 0.05299,0.07929 0.389175,-0.02268 0.462833,0.03486 0.07364,0.05756 0.45932,-0.07376 0.517941,-0.104991 0.05863,-0.03122 -0.600695,-0.221156 -0.643907,-0.20156 -0.306563,0.139016 -0.934253,-1.415721 -0.88649,-1.446118 z"
           id="path20238-7"
           sodipodi:nodetypes="ccssscccscc" /><path
           style="opacity:0.99;fill:#cccccc;fill-opacity:0.984314;fill-rule:nonzero;stroke:none;stroke-width:0.0340083;stroke-dasharray:none;stroke-opacity:1;paint-order:fill markers stroke"
           d="m 6.9499523,13.714974 c 0,0 0.506363,0.888388 0.508917,0.991097 0.0025,0.102702 -0.01297,0.440958 -0.06699,0.504945 -0.05402,0.06399 -0.177581,0.218398 -0.197283,0.275198 -0.01971,0.0568 -0.158118,-0.131217 -0.168785,-0.192187 -0.01067,-0.06098 -0.118248,-0.282841 -0.185022,-0.42055 -0.06677,-0.13771 -0.144216,-0.336393 -0.247855,-0.569622 -0.10364,-0.233226 -0.166704,-0.363283 -0.196381,-0.424488 -0.02968,-0.0612 -0.142125,-0.195667 -0.08903,-0.183614 0.05309,0.01207 0.335469,-0.06817 0.495206,-0.07002 0.159737,-0.0017 0.147219,0.08925 0.147219,0.08925 z"
           id="path20240-4" /><path
           style="opacity:0.99;fill:#e3dedb;fill-opacity:1;fill-rule:nonzero;stroke:none;stroke-width:0.0340083;stroke-dasharray:none;stroke-opacity:1;paint-order:fill markers stroke"
           d="m 6.2919933,13.722184 c -0.0109,-0.04196 -0.12496,-0.04335 -0.12496,-0.04335 0,0 -0.114991,0.07465 -0.108034,0.127976 0.007,0.05332 0.01067,0.06097 0.09159,0.286319 0.08092,0.225346 0.1623,0.412667 0.240202,0.573329 0.0779,0.160662 0.290047,0.539712 0.334797,0.612506 0.04475,0.0728 0.141429,0.252702 0.20542,0.306718 0.06399,0.05401 0.112907,0.09644 0.16646,0.07048 0.05355,-0.02595 0.119164,-0.105031 0.100615,-0.143284 -0.01855,-0.03825 -0.906085,-1.790689 -0.906085,-1.790689 z"
           id="path20242-0" /><g
           id="g37675"
           transform="matrix(0.33955888,0.01887181,-0.01887181,0.33955888,4.8519993,-33.566718)"><path
             style="opacity:0.99;fill:#fde0a4;fill-opacity:1;fill-rule:nonzero;stroke:none;stroke-width:0.1;stroke-dasharray:none;stroke-opacity:1;paint-order:fill markers stroke"
             d="m 14.37971,118.27171 c 0,0 -0.699298,-4.52665 -0.876085,-4.63272 -0.176787,-0.10607 2.442447,0.81208 2.725303,0.42315 0.282858,-0.38893 0.707144,-0.81322 0.813215,-1.27286 0.106072,-0.45964 0.212143,-1.09607 0.212143,-1.44964 0,-0.35358 -0.106071,-1.30822 -0.106071,-1.30822 l 0,-0.14143 c 0,0 4.348927,0.21215 6.611783,1.41429 2.262857,1.20214 2.368929,1.27286 2.368929,1.27286 0,0 0.990002,-0.77786 1.060714,-0.91929 0.07072,-0.14143 0.459645,-0.35357 0.459645,-0.35357 l 0.459642,0.99 c 0,0 0.141428,4.31357 -0.03536,4.98536 -0.176787,0.67178 -0.106071,0.31821 -0.14143,0.495 -0.03536,0.17678 -0.141428,1.20214 -0.141428,1.52035 0,0.31822 0.07071,1.13143 0.03536,1.44965 -0.03536,0.31821 -0.565713,1.87393 -0.565713,1.87393 0,0 -1.025359,0.99 -1.272858,1.09607 -0.247499,0.10607 -1.485,0.63643 -1.661784,0.70714 -0.176787,0.0707 -0.707144,0.14143 -0.883931,0.14143 l -1.661784,0 c -0.353571,0 -1.308214,-0.14143 -1.626428,-0.21214 -0.318215,-0.0707 -1.096071,-0.2475 -1.555716,-0.31822 -0.459642,-0.0707 -1.272857,-0.38893 -1.626428,-0.56571 -0.353571,-0.17679 -1.025356,-0.45965 -1.166786,-0.53036 -0.141428,-0.0707 -0.777857,-0.67178 -0.99,-0.77786 -0.212142,-0.10607 -0.707143,-0.495 -0.813215,-0.63642 -0.106071,-0.14143 -0.494998,-0.49501 -0.494998,-0.49501 v -0.45964 c 0,0 -0.459642,0.495 -0.99,0.21215 -0.530357,-0.28286 2.50013,-2.32238 2.217274,-2.67595 -0.282858,-0.35357 -0.601072,-1.13143 -0.601072,-1.27286 0,-0.14142 -0.03536,-0.42428 0,-0.70714 0.03536,-0.28286 0.141428,-0.7425 0.141428,-0.7425 0,0 0.212143,-0.35357 0.636428,-0.60107 0.424286,-0.2475 0.565717,-0.38893 0.77786,-0.42429 0.212143,-0.0354 -2.959775,2.0042 -2.959775,2.0042 0,0 0.494999,0.17679 0.60107,0.35357 0.106072,0.17679 0.318214,0.45965 0.424286,0.60107 0.106071,0.14143 0.353571,0.45965 0.424286,0.60108 0.07071,0.14142 0.201496,0.35564 0.201496,0.35564 z"
             id="path20216-3"
             sodipodi:nodetypes="cssssccsccccsssccscsscccccccccssscsccscscc" /><path
             style="opacity:0.99;fill:#fde0a4;fill-opacity:0.992157;fill-rule:nonzero;stroke:none;stroke-width:0.108535;stroke-dasharray:none;stroke-opacity:1;paint-order:fill markers stroke"
             d="m 16.638755,122.38084 -0.14475,1.4137 c 0,0 -0.444482,1.11187 0.381313,1.24026 0.825802,0.1284 2.03186,0.68188 2.03186,0.68188 l 0.185535,-1.6228 c 0,0 -0.383365,-1.19434 -0.888022,-1.38693 -0.504657,-0.1926 -1.427277,-0.32704 -1.427277,-0.32704 z"
             id="path20220-9"
             sodipodi:nodetypes="ccsccscc" /><ellipse
             style="opacity:0.99;fill:#000000;fill-opacity:1;fill-rule:nonzero;stroke:#000000;stroke-width:0.1;stroke-dasharray:none;stroke-opacity:1;paint-order:fill markers stroke"
             id="ellipse20244-9"
             cx="21.638571"
             cy="117.68625"
             rx="0.77785712"
             ry="1.3966072" /><ellipse
             style="opacity:0.99;fill:#000000;fill-opacity:1;fill-rule:nonzero;stroke:#000000;stroke-width:0.0792771;stroke-dasharray:none;stroke-opacity:1;paint-order:fill markers stroke"
             id="ellipse20246-2"
             cx="26.548426"
             cy="117.59703"
             rx="0.56723642"
             ry="1.203665" /><ellipse
             style="opacity:0.99;fill:#ffffff;fill-opacity:1;fill-rule:nonzero;stroke:none;stroke-width:0.1;stroke-dasharray:none;stroke-opacity:1;paint-order:fill markers stroke"
             id="ellipse20248-2"
             cx="21.682768"
             cy="117.22661"
             rx="0.53919643"
             ry="0.68946427" /><ellipse
             style="opacity:0.99;fill:#ffffff;fill-opacity:1;fill-rule:nonzero;stroke:none;stroke-width:0.0775845;stroke-dasharray:none;stroke-opacity:1;paint-order:fill markers stroke"
             id="ellipse20250-2"
             cx="26.535532"
             cy="117.06749"
             rx="0.40013629"
             ry="0.55924344" /><path
             style="opacity:0.99;fill:#000000;fill-opacity:1;fill-rule:nonzero;stroke:#000000;stroke-width:0.1;stroke-dasharray:none;stroke-opacity:1;paint-order:fill markers stroke"
             d="m 19.464107,114.15053 c 0.335891,-0.28286 0.848572,-0.76018 1.11375,-0.7425 0.265179,0.0177 0.636429,0.053 0.919285,0.0884 0.282858,0.0354 0.689464,0.30054 0.830894,0.38893 0.141428,0.0884 0.371251,0.53036 0.548035,0.65411 0.176786,0.12375 0.335893,0.51268 0.37125,0.54804 0.03536,0.0354 0.159107,0.22982 0.141427,0.26517 -0.01767,0.0354 -0.318214,-0.22098 -0.459642,-0.25634 -0.141427,-0.0353 -0.609909,-0.30937 -0.715981,-0.41544 -0.106071,-0.10607 -0.07071,-0.22982 -0.291698,-0.32705 -0.220982,-0.0972 -0.822052,-0.18563 -0.892767,-0.20331 -0.07071,-0.0177 -0.353571,-0.0177 -0.574553,-0.0177 -0.220983,0 -0.742501,0.0354 -0.804376,0.053 -0.06187,0.0177 -0.247499,0.053 -0.247499,0.053 z"
             id="path20252-5" /><path
             style="opacity:0.99;fill:#000000;fill-opacity:1;fill-rule:nonzero;stroke:#000000;stroke-width:0.1;stroke-dasharray:none;stroke-opacity:1;paint-order:fill markers stroke"
             d="m 25.916787,115.51178 c 0.03536,-0.0884 0.194463,-0.53036 0.406606,-0.65411 0.212143,-0.12375 0.583393,-0.37125 0.671785,-0.4066 0.08839,-0.0354 0.282858,0 0.441965,0.0707 0.159107,0.0707 0.318215,0.12375 0.265179,0.21214 -0.05304,0.0884 -0.159107,0.0884 -0.406609,0.14143 -0.247499,0.053 -0.494999,0.14143 -0.583393,0.26518 -0.08839,0.12375 -0.335891,0.2475 -0.441963,0.40661 -0.106071,0.1591 -0.318214,0.2475 -0.318214,0.17678 0,-0.0707 -0.03536,-0.21214 -0.03536,-0.21214 z"
             id="path20254-9" /><path
             style="opacity:0.99;fill:none;fill-opacity:1;fill-rule:nonzero;stroke:#000000;stroke-width:0.1;stroke-dasharray:none;stroke-opacity:1;paint-order:fill markers stroke"
             d="m 25.055253,118.80924 c -0.01249,0.075 -0.025,0.27501 -0.01249,0.36252 0.01249,0.0875 0.08751,0.21251 0.237513,0.23751 0.150009,0.025 0.262512,0.075 0.350018,0.12501 0.08751,0.05 0.337518,0.25001 0.350017,0.36252 0.01252,0.1125 -0.075,0.38752 -0.112506,0.46252 -0.0375,0.075 0.0375,0.23751 -0.112504,0.23751 -0.150008,0 -0.387522,-0.0625 -0.462526,-0.0625 -0.075,0 -0.362516,-0.0375 -0.362516,-0.0375 l 0.137507,-0.0125 0.21251,0.0625"
             id="path20256-9" /><path
             style="opacity:0.99;fill:none;fill-opacity:1;fill-rule:nonzero;stroke:#000000;stroke-width:0.1;stroke-dasharray:none;stroke-opacity:1;paint-order:fill markers stroke"
             d="m 24.092704,122.34692 c -0.075,0.025 -1.100055,0.15001 -1.36257,0.075 -0.262514,-0.075 -0.800039,-0.33752 -0.862544,-0.42503 -0.0625,-0.0875 -0.437523,-0.28751 -0.500025,-0.41252 -0.0625,-0.125 -0.075,-0.37502 -0.075,-0.37502 0,0 -0.237512,0.31252 -0.287515,0.33752 -0.05,0.025 -0.175009,0.025 -0.175009,0.025"
             id="path20258-9" /></g><path
           style="opacity:0.99;fill:#cccccc;fill-opacity:0.992157;fill-rule:nonzero;stroke:none;stroke-width:0.034;stroke-dasharray:none;stroke-opacity:1;paint-order:fill markers stroke"
           d="m 8.0599023,8.832142 c 0,0 -1.750179,1.891606 -1.820891,2.121427 -0.07071,0.229821 0.689464,0.777858 0.954644,0.866252 0.265178,0.08839 0.477318,0.08839 0.742497,0.08839 0.265179,0 0.654108,0.194466 0.866251,0.212144 0.212142,0.01768 0.265178,0.01768 0.265178,0.01768 0,0 -0.05304,-0.742503 -0.05304,-1.166787 0,-0.424284 0,-0.601073 0,-1.007679 0,-0.406607 0.03536,-0.636428 -0.03536,-0.689464 -0.07071,-0.05304 -0.0884,0.26518 -0.265179,0.141427 C 8.5372243,9.291788 8.5195443,9.380182 8.3957963,9.256433 8.2720453,9.132683 8.0599023,8.832145 8.0599023,8.832145 Z"
           id="path37731" /><path
           style="opacity:0.99;fill:#999999;fill-opacity:1;fill-rule:nonzero;stroke:none;stroke-width:0.1;stroke-dasharray:none;stroke-opacity:1;paint-order:fill markers stroke"
           d="m 7.1582963,9.763041 c 0,0 -0.316438,-0.346249 -0.298758,-0.416963 0.01768,-0.07071 0.263401,-0.195721 0.493224,-0.248756 0.22982,-0.05304 0.371247,-0.07072 0.371247,-0.07072 h 0.168575 l -0.565713,0.668753 z"
           id="path38098"
           sodipodi:nodetypes="csscccc" /><path
           style="opacity:0.99;fill:#fadea3;fill-opacity:1;fill-rule:nonzero;stroke:none;stroke-width:0.1;stroke-dasharray:none;stroke-opacity:1;paint-order:fill markers stroke"
           d="m 6.0774323,11.311326 c 0,0 -0.262511,-0.0375 -0.312514,0.06251 -0.05,0.100005 -0.287516,0.412521 -0.18751,0.512526 0.100007,0.100008 0.375019,0.17501 0.475025,0.250015 0.100004,0.075 0.250012,0.175007 0.250012,0.05 0,-0.125007 -0.0033,-0.684988 -0.137507,-0.800042 z"
           id="path38882"
           sodipodi:nodetypes="csssssc" /><path
           style="opacity:0.99;fill:#fde0a4;fill-opacity:0.992157;fill-rule:nonzero;stroke:none;stroke-width:0.0340083;stroke-dasharray:none;stroke-opacity:1;paint-order:fill markers stroke"
           d="m 7.3205403,10.687631 0.817829,0.06877 c 0,0 -0.03377,0.396428 -0.0313,0.434371 0.0025,0.03794 0.170948,0.343249 0.207073,0.371384 0.03613,0.02812 0.263921,0.249557 0.339225,0.294193 0.0753,0.04464 0.276136,0.203035 0.276136,0.203035 0,0 -0.07901,-0.101552 0.07154,-0.130398 0.150542,-0.02884 0.15236,-0.05945 0.184198,-0.03866 0.03183,0.02078 0.303618,0.09836 0.303618,0.09836 l 0.226563,0.202454 c 0,0 0.120589,0.03788 0.08024,0.120526 -0.04035,0.08265 -0.02072,0.149956 -0.06419,0.126113 -0.04347,-0.02384 -0.157365,-0.134558 -0.157365,-0.134558 l 0.216168,0.218371 0.149372,0.0703 c 0,0 0.1169517,0.09908 0.02092,0.204406 -0.09603,0.105321 -0.236175,0.118254 -0.236175,0.118254 0,0 -0.02202,0.01286 -0.06848,0.118771 -0.04645,0.105905 -0.05678,0.239945 -0.138194,0.218571 -0.08141,-0.02139 -0.153011,-0.0091 -0.201352,0.0093 -0.04834,0.0184 -0.07706,0.104086 -0.128449,0.134105 -0.05139,0.03003 -0.121109,0.129816 -0.225196,0.05276 -0.104087,-0.07706 -0.140211,-0.105187 -0.2443,-0.182247 -0.104086,-0.07706 -0.121824,-0.05685 -0.178807,-0.171265 -0.05698,-0.114414 -0.07907,-0.219673 -0.09135,-0.291271 -0.01228,-0.0716 -0.01351,-0.09057 -0.04906,-0.16828 -0.03554,-0.07771 -0.239945,-0.05678 -0.35079,-0.179125 -0.110846,-0.122345 -0.206356,-0.184716 -0.310442,-0.261772 -0.104088,-0.07706 -0.182446,-0.110064 -0.262688,-0.230586 -0.08024,-0.120526 -0.152494,-0.176793 -0.202784,-0.364042 -0.05029,-0.18725 -0.06251,-0.14073 -0.03938,-0.370867 0.02313,-0.230131 -0.018,-0.236538 0.01806,-0.326524 0.03606,-0.08999 -0.04314,-0.264442 -0.04314,-0.264442 z"
           id="path20224-4"
           sodipodi:nodetypes="ccccscscccsscccscscccssssssssssscc" /><path
           style="opacity:0.99;fill:none;fill-opacity:0.992157;fill-rule:nonzero;stroke:#808080;stroke-width:0.034;stroke-dasharray:none;stroke-opacity:1;paint-order:fill markers stroke"
           d="m 7.7770443,9.397856 c 0,0 -0.353571,0.318212 -0.441962,0.583392 -0.08839,0.26518 -0.176786,0.406606 -0.176786,0.495001 0,0.08839 -0.08839,0.159108 0.300537,0.212143 0.388927,0.05304 0.565713,0.07071 0.636425,0.05304 0.07072,-0.01768 0.159108,-0.106072 0.212144,-0.318216 0.05304,-0.212144 0.0884,-0.388929 0.0884,-0.583392 0,-0.194466 0,-0.282857 0,-0.282857 v 0 l -0.07071,-0.106072"
           id="path38096" /><path
           style="opacity:0.99;fill:#666666;fill-opacity:0.962825;fill-rule:nonzero;stroke:none;stroke-width:0.0340083;stroke-dasharray:none;stroke-opacity:1;paint-order:fill markers stroke"
           d="m 7.6084473,12.819577 c 0,0 0.182176,0.336641 0.18126,0.386211 -9.18e-4,0.04957 -0.02071,0.359176 -0.02071,0.359176 0,0 -0.365862,-0.07095 -0.537595,-0.01139 -0.171735,0.05954 -0.260282,0.05713 -0.333984,0.09952 0.190777,0.901662 0.209031,0.653323 0.407131,0.994531 0.09673,-0.104677 0.03131,0.237735 0.182761,0.09176 0.151451,-0.145963 0.208778,-0.08364 0.360421,-0.161056 0.151647,-0.07742 0.520952,-0.211661 0.520568,-0.348759 0.224165,-0.09968 0.277765,-0.321473 0.259417,-0.410643 -0.01714,-0.08328 -0.05983,-0.694167 -0.05983,-0.694167 l -0.258903,-0.491059 c 0,0 -0.184812,0.199186 -0.216512,0.178186 -0.0317,-0.02102 -0.48402,0.0077 -0.48402,0.0077 z"
           id="path20234-4"
           sodipodi:nodetypes="cscscccscsccccc" /><path
           style="opacity:0.99;fill:#999999;fill-opacity:0.992157;fill-rule:nonzero;stroke:none;stroke-width:0.0340083;stroke-dasharray:none;stroke-opacity:1;paint-order:fill markers stroke"
           d="m 6.2541643,12.075771 c 0,0 -0.170123,0.522157 -0.213352,0.605531 -0.04323,0.08338 -0.319503,0.562705 -0.363897,0.584776 -0.04439,0.02207 -0.294431,0.144757 -0.338825,0.166828 -0.04439,0.02207 -0.615182,0.393792 -0.664738,0.392374 -0.04956,-0.0014 -0.317204,0.03765 -0.317204,0.03765 0.09146,0.31142 0.648785,0.948106 0.841255,0.973324 0.03377,0.004 0.216393,-0.06994 0.269366,-0.136989 0.05297,-0.06705 0.05697,-0.08611 0.153504,-0.09502 0.09653,-0.0089 0.150167,-0.01677 0.303088,-0.161192 0.152921,-0.144427 0.337909,-0.338988 0.393466,-0.394296 0.05555,-0.0553 0.171244,-0.173071 0.203562,-0.33407 0.03232,-0.161002 0.127936,-0.342072 0.122189,-0.39621 -0.0057,-0.05414 0.284523,-0.665818 0.277028,-0.811911 -0.0075,-0.146089 -0.186504,-0.183689 -0.186504,-0.183689 z"
           id="path20232-8"
           sodipodi:nodetypes="cssscccssssssscc" /><path
           style="opacity:0.99;fill:#ff2a2a;fill-opacity:0.962825;fill-rule:nonzero;stroke:#000000;stroke-width:0.034;stroke-dasharray:none;stroke-opacity:1;paint-order:fill markers stroke"
           d="m 9.7752733,8.046656 c 0,0 0.2828567,0.99884 0.6010737,0.910449 0.318212,-0.08839 0.38009,-0.185627 0.38009,-0.185627 l 0.106072,-0.21214 0.07072,-0.114911 C 10.963869,8.413787 9.8974713,8.177186 9.8288563,8.103892 Z"
           id="path54818"
           sodipodi:nodetypes="cscccsc" /><path
           style="opacity:0.99;fill:#ffffff;fill-opacity:0.962825;fill-rule:nonzero;stroke:none;stroke-width:0.034;stroke-dasharray:none;stroke-opacity:1;paint-order:fill markers stroke"
           d="m 9.8084213,8.112951 0.09281,0.269601 c 0,0 0.6430597,0.274015 0.8021677,0.220979 0.159108,-0.05304 0.15027,-0.05303 0.15027,-0.05303 -0.0055,0.0027 0.05399,-0.0439 0.05723,-0.102409 10e-4,-0.0184 -1.0984887,-0.336468 -1.1024817,-0.335138 z"
           id="path54820"
           sodipodi:nodetypes="ccscsc" /></g><path
         style="opacity:0.99;fill:#fde0a4;fill-opacity:1;fill-rule:nonzero;stroke:none;stroke-width:0.0354046;stroke-dasharray:none;stroke-opacity:1;paint-order:fill markers stroke"
         d="m 7.4986719,6.9507358 c 0,0 0.2541307,-1.2525387 0.19154,-1.2900923 C 7.6276213,5.6230899 8.0532354,5.5980553 8.1533793,5.4603564 8.2535239,5.3226574 8.4037404,5.1724395 8.4412944,5.009706 8.4788484,4.8469725 8.5164024,4.6216473 8.5164024,4.4964674 8.5164024,4.371284 8.4788484,4.033298 8.4788484,4.033298 V 3.983225 c 0,0 1.5397186,0.075111 2.3408726,0.500723 0.801154,0.4256123 0.838708,0.4506504 0.838708,0.4506504 0,0 0.350506,-0.2753979 0.375541,-0.3254705 0.02504,-0.050073 0.162736,-0.1251799 0.162736,-0.1251799 l 0.162734,0.3505051 c 0,0 0.05007,1.5272001 -0.01252,1.7650443 -0.06259,0.2378407 -0.03755,0.1126609 -0.05007,0.1752526 -0.01252,0.062588 -0.05007,0.4256122 -0.05007,0.5382731 0,0.1126643 0.02503,0.4005777 0.01252,0.5132421 -0.01252,0.1126608 -0.200288,0.6634565 -0.200288,0.6634565 0,0 -0.363024,0.350505 -0.45065,0.388059 -0.08763,0.03755 -0.525757,0.225325 -0.588347,0.25036 -0.06259,0.02503 -0.250361,0.05007 -0.312952,0.05007 h -0.588347 c -0.1251797,0 -0.4631672,-0.05007 -0.5758294,-0.07511 C 9.4302193,9.0780747 9.1548229,9.0154797 8.9920876,8.9904417 8.8293534,8.9654107 8.5414383,8.8527427 8.4162581,8.7901547 8.2910778,8.7275627 8.0532354,8.6274175 8.0031627,8.6023829 7.9530907,8.5773519 7.7277659,8.3645422 7.6526576,8.3269851 7.5775497,8.2894314 7.4022968,8.1517325 7.3647425,8.1016634 7.3271885,8.0515907 7.1894907,7.9264073 7.1894907,7.9264073 V 7.7636738 c 0,0 0.5152605,-0.9905662 0.3274896,-1.090708 C 7.3292098,6.5728205 7.7814166,6.5147075 7.6812727,6.3895276 7.581128,6.2643477 7.650368,6.4189134 7.650368,6.3688159 c 0,-0.050069 -0.1696154,0.064758 -0.1570964,-0.035404 0.012519,-0.1001453 0.3311919,-0.378634 0.3311919,-0.378634 0,0 -0.2886936,-0.2574725 -0.1384774,-0.3450988 0.1502165,-0.087627 -0.6265335,0.3418588 -0.5514252,0.3293397 0.075108,-0.012533 -0.2204656,0.3349944 -0.2204656,0.3349944 0,0 0.1752522,0.062592 0.2128061,0.1251798 0.037554,0.062592 0.1126623,0.1627371 0.1502166,0.2128062 0.037554,0.050073 0.1251802,0.162737 0.1502166,0.2128097 0.025035,0.050069 0.071339,0.1259127 0.071339,0.1259127 z"
         id="path20216"
         sodipodi:nodetypes="cssssccsccccsssccscsscccccccccssscsccscscc" /><path
         style="opacity:0.99;fill:#fde0a4;fill-opacity:0.992157;fill-rule:nonzero;stroke:none;stroke-width:0.0384263;stroke-dasharray:none;stroke-opacity:1;paint-order:fill markers stroke"
         d="m 8.1021301,8.62501 v 0.2500197 c 0,0 -0.032484,0.295476 0.2598853,0.340932 0.2923715,0.04546 0.4385569,0.113648 0.4385569,0.113648 l 0.032484,-0.468427 c 0,0 -0.2598846,-0.07707 -0.4385562,-0.145254 C 8.2158283,8.6477397 8.1995861,8.5568243 8.1995861,8.5568243 Z"
         id="path20220"
         sodipodi:nodetypes="ccsccscc" /><ellipse
         style="opacity:0.99;fill:#000000;fill-opacity:1;fill-rule:nonzero;stroke:#000000;stroke-width:0.0354046;stroke-dasharray:none;stroke-opacity:1;paint-order:fill markers stroke"
         id="ellipse20244"
         cx="10.06864"
         cy="6.7434554"
         rx="0.27539682"
         ry="0.49446252" /><ellipse
         style="opacity:0.99;fill:#000000;fill-opacity:1;fill-rule:nonzero;stroke:#000000;stroke-width:0.0280677;stroke-dasharray:none;stroke-opacity:1;paint-order:fill markers stroke"
         id="ellipse20246"
         cx="11.806952"
         cy="6.7118688"
         rx="0.20082751"
         ry="0.4261522" /><ellipse
         style="opacity:0.99;fill:#ffffff;fill-opacity:1;fill-rule:nonzero;stroke:none;stroke-width:0.0354046;stroke-dasharray:none;stroke-opacity:1;paint-order:fill markers stroke"
         id="ellipse20248"
         cx="10.084288"
         cy="6.5807219"
         rx="0.19090009"
         ry="0.24410173" /><ellipse
         style="opacity:0.99;fill:#ffffff;fill-opacity:1;fill-rule:nonzero;stroke:none;stroke-width:0.0274684;stroke-dasharray:none;stroke-opacity:1;paint-order:fill markers stroke"
         id="ellipse20250"
         cx="11.802386"
         cy="6.5243869"
         rx="0.14166646"
         ry="0.19799763" /><path
         style="opacity:0.99;fill:#000000;fill-opacity:1;fill-rule:nonzero;stroke:#000000;stroke-width:0.0354046;stroke-dasharray:none;stroke-opacity:1;paint-order:fill markers stroke"
         d="M 9.2987799,5.4916505 C 9.4177006,5.3915051 9.599213,5.2225121 9.6930981,5.2287717 c 0.093885,0.00627 0.2253252,0.018764 0.3254689,0.031298 0.100144,0.012533 0.244101,0.1064048 0.294174,0.1376989 0.05007,0.031298 0.13144,0.1877716 0.194029,0.2315847 0.06259,0.043813 0.118922,0.1815121 0.13144,0.1940311 0.01252,0.012533 0.05633,0.081367 0.05007,0.093882 -0.0063,0.012533 -0.112662,-0.078237 -0.162734,-0.090756 -0.05007,-0.012498 -0.215936,-0.109531 -0.25349,-0.1470846 -0.03755,-0.037554 -0.02503,-0.081367 -0.103274,-0.1157906 -0.07824,-0.034413 -0.2910437,-0.065721 -0.3160797,-0.071981 -0.025035,-0.00627 -0.1251807,-0.00627 -0.2034184,-0.00627 -0.078238,0 -0.2628791,0.012533 -0.2847857,0.018764 -0.021905,0.00627 -0.087626,0.018764 -0.087626,0.018764 z"
         id="path20252" /><path
         style="opacity:0.99;fill:#000000;fill-opacity:1;fill-rule:nonzero;stroke:#000000;stroke-width:0.0354046;stroke-dasharray:none;stroke-opacity:1;paint-order:fill markers stroke"
         d="m 11.583322,5.9735949 c 0.01252,-0.031298 0.06885,-0.1877716 0.143957,-0.2315847 0.07511,-0.043813 0.206548,-0.1314394 0.237843,-0.1439549 0.03129,-0.012533 0.100144,0 0.156475,0.025031 0.05633,0.025031 0.112663,0.043813 0.09389,0.075107 -0.01878,0.031298 -0.05633,0.031298 -0.143958,0.050073 -0.08763,0.018764 -0.175253,0.050073 -0.206548,0.093886 -0.03129,0.043813 -0.118921,0.087626 -0.156475,0.1439584 -0.03755,0.056329 -0.112662,0.087626 -0.112662,0.062588 0,-0.025031 -0.01252,-0.075107 -0.01252,-0.075107 z"
         id="path20254" /><path
         style="opacity:0.99;fill:none;fill-opacity:1;fill-rule:nonzero;stroke:#000000;stroke-width:0.0354046;stroke-dasharray:none;stroke-opacity:1;paint-order:fill markers stroke"
         d="m 11.2783,7.1410459 c -0.0044,0.026553 -0.0089,0.097366 -0.0044,0.1283485 0.0044,0.030979 0.03098,0.075238 0.08409,0.084089 0.05311,0.00885 0.09294,0.026553 0.123922,0.044259 0.03098,0.017702 0.119497,0.088515 0.123922,0.1283486 0.0044,0.03983 -0.02655,0.1371997 -0.03983,0.1637531 -0.01328,0.026554 0.01328,0.084089 -0.03983,0.084089 -0.05311,0 -0.137201,-0.022128 -0.163756,-0.022128 -0.02655,0 -0.128347,-0.013277 -0.128347,-0.013277 l 0.04868,-0.00443 0.07524,0.022128"
         id="path20256" /><path
         style="opacity:0.99;fill:none;fill-opacity:1;fill-rule:nonzero;stroke:#000000;stroke-width:0.0354046;stroke-dasharray:none;stroke-opacity:1;paint-order:fill markers stroke"
         d="m 10.937514,8.3935456 c -0.02655,0.00885 -0.38947,0.05311 -0.482412,0.026553 -0.09294,-0.026553 -0.28325,-0.1194974 -0.30538,-0.1504799 -0.02213,-0.030979 -0.1549027,-0.1017917 -0.1770317,-0.1460509 -0.02213,-0.044256 -0.02655,-0.1327742 -0.02655,-0.1327742 0,0 -0.08409,0.1106464 -0.1017935,0.1194975 -0.017702,0.00885 -0.061961,0.00885 -0.061961,0.00885"
         id="path20258" /><path
         style="opacity:0.99;fill:#fde0a4;fill-opacity:1;fill-rule:nonzero;stroke:none;stroke-width:0.0354046;stroke-dasharray:none;stroke-opacity:1;paint-order:fill markers stroke"
         d="m 7.5110047,6.685892 c 0,0 0.2541307,-1.2525387 0.1915401,-1.2900923 -0.062591,-0.037554 0.3630234,-0.062588 0.4631673,-0.2002871 0.1001446,-0.1376989 0.2503611,-0.2879169 0.2879151,-0.4506504 0.037554,-0.1627334 0.075108,-0.3880586 0.075108,-0.5132385 0,-0.1251834 -0.037554,-0.4631694 -0.037554,-0.4631694 v -0.050073 c 0,0 1.5397175,0.075111 2.3408715,0.500723 0.801155,0.4256123 0.838709,0.4506504 0.838709,0.4506504 0,0 0.350506,-0.2753978 0.375541,-0.3254705 0.02504,-0.050073 0.162735,-0.1251799 0.162735,-0.1251799 l 0.162734,0.3505054 c 0,0 0.05007,1.5272001 -0.01252,1.7650444 -0.06259,0.2378407 -0.03755,0.1126608 -0.05007,0.1752525 -0.01252,0.062588 -0.05007,0.4256123 -0.05007,0.5382731 0,0.1126644 0.02503,0.4005777 0.01252,0.5132421 -0.01252,0.1126608 -0.200288,0.6634565 -0.200288,0.6634565 0,0 -0.363024,0.3505051 -0.45065,0.3880587 -0.08763,0.037554 -0.525758,0.2253247 -0.588347,0.2503597 -0.06259,0.02503 -0.250361,0.05007 -0.312952,0.05007 h -0.588347 c -0.12518,0 -0.4631672,-0.05007 -0.5758294,-0.07511 C 9.4425521,8.8132307 9.1671557,8.7506357 9.0044204,8.7255977 8.8416862,8.7005667 8.5537711,8.5878989 8.4285909,8.5253107 8.3034106,8.462719 8.0655682,8.3625737 8.0154955,8.3375392 7.9654236,8.3125081 7.7400987,8.0996985 7.6649905,8.0621413 7.5898825,8.0245877 7.4146296,7.8868888 7.3770753,7.8368197 7.3395214,7.786747 7.2018235,7.6615636 7.2018235,7.6615636 V 7.4988301 c 0,0 -0.1627342,0.1752525 -0.3505051,0.075111 C 6.6635479,7.4737955 6.6930413,7.3081978 6.5928974,7.183018 6.4927528,7.0578381 6.8707354,6.6047873 6.8707354,6.5547146 c 0,-0.050069 -0.2069836,0.061926 -0.1944645,-0.038219 0.012519,-0.1001453 0.1207865,-0.2628788 0.1207865,-0.2628788 0,0 0.1988578,-0.3903564 0.3490744,-0.4779827 0.1502165,-0.087626 0.023505,0.092123 0.098612,0.079604 0.075108,-0.012533 -0.3183173,0.1539602 -0.3183173,0.1539602 0,0 0.1752521,0.062592 0.2128061,0.1251799 0.037554,0.062592 0.1126622,0.162737 0.1502166,0.2128061 0.037554,0.050073 0.1251802,0.1627371 0.1502165,0.2128097 0.025035,0.050069 0.071339,0.1259128 0.071339,0.1259128 z"
         id="path20216-7"
         sodipodi:nodetypes="cssssccsccccsssccscsscccccccccssscsccccscc" /><path
         style="opacity:0.99;fill:#fde0a4;fill-opacity:0.992157;fill-rule:nonzero;stroke:none;stroke-width:0.0384263;stroke-dasharray:none;stroke-opacity:1;paint-order:fill markers stroke"
         d="m 8.1144629,8.3601662 v 0.2500199 c 0,0 -0.032484,0.2954756 0.2598854,0.3409316 0.2923715,0.04546 0.4385569,0.113649 0.4385569,0.113649 l 0.032484,-0.4684274 c 0,0 -0.2598842,-0.077069 -0.4385561,-0.1452542 C 8.2281611,8.3828959 8.2119189,8.2919806 8.2119189,8.2919806 Z"
         id="path20220-9-9"
         sodipodi:nodetypes="ccsccscc" /><ellipse
         style="opacity:0.99;fill:#000000;fill-opacity:1;fill-rule:nonzero;stroke:#000000;stroke-width:0.0354046;stroke-dasharray:none;stroke-opacity:1;paint-order:fill markers stroke"
         id="ellipse20244-4"
         cx="10.080973"
         cy="6.4786129"
         rx="0.27539682"
         ry="0.49446252" /><ellipse
         style="opacity:0.99;fill:#000000;fill-opacity:1;fill-rule:nonzero;stroke:#000000;stroke-width:0.0280677;stroke-dasharray:none;stroke-opacity:1;paint-order:fill markers stroke"
         id="ellipse20246-6"
         cx="11.819283"
         cy="6.4470258"
         rx="0.20082751"
         ry="0.4261522" /><ellipse
         style="opacity:0.99;fill:#ffffff;fill-opacity:1;fill-rule:nonzero;stroke:none;stroke-width:0.0354046;stroke-dasharray:none;stroke-opacity:1;paint-order:fill markers stroke"
         id="ellipse20248-8"
         cx="10.09662"
         cy="6.3158793"
         rx="0.19090009"
         ry="0.24410173" /><ellipse
         style="opacity:0.99;fill:#ffffff;fill-opacity:1;fill-rule:nonzero;stroke:none;stroke-width:0.0274684;stroke-dasharray:none;stroke-opacity:1;paint-order:fill markers stroke"
         id="ellipse20250-0"
         cx="11.814719"
         cy="6.2595439"
         rx="0.14166647"
         ry="0.19799763" /><path
         style="opacity:0.99;fill:#000000;fill-opacity:1;fill-rule:nonzero;stroke:#000000;stroke-width:0.0354046;stroke-dasharray:none;stroke-opacity:1;paint-order:fill markers stroke"
         d="M 9.3111127,5.2268067 C 9.4300334,5.1266614 9.6115458,4.9576684 9.7054309,4.9639279 c 0.093885,0.00627 0.2253244,0.018764 0.3254681,0.031298 0.100145,0.012533 0.244102,0.1064049 0.294175,0.137699 0.05007,0.031298 0.131439,0.1877715 0.194029,0.2315847 0.06259,0.043813 0.118921,0.181512 0.131439,0.1940311 0.01252,0.012533 0.05633,0.081367 0.05007,0.093882 -0.0063,0.012533 -0.112662,-0.078237 -0.162734,-0.090756 -0.05007,-0.012498 -0.215936,-0.1095311 -0.25349,-0.1470847 -0.03755,-0.037554 -0.02503,-0.081367 -0.103274,-0.1157906 -0.07824,-0.034413 -0.2910437,-0.065721 -0.3160807,-0.071981 -0.025034,-0.00627 -0.1251798,-0.00627 -0.2034175,-0.00627 -0.078238,0 -0.2628792,0.012533 -0.2847857,0.018764 -0.021905,0.00627 -0.087626,0.018764 -0.087626,0.018764 z"
         id="path20252-6" /><path
         style="opacity:0.99;fill:#000000;fill-opacity:1;fill-rule:nonzero;stroke:#000000;stroke-width:0.0354046;stroke-dasharray:none;stroke-opacity:1;paint-order:fill markers stroke"
         d="m 11.595655,5.7087512 c 0.01252,-0.031298 0.06885,-0.1877716 0.143957,-0.2315848 0.07511,-0.043813 0.206548,-0.1314393 0.237842,-0.1439549 0.03129,-0.012533 0.100145,0 0.156476,0.025031 0.05633,0.025031 0.112663,0.043813 0.09389,0.075107 -0.01878,0.031298 -0.05633,0.031298 -0.143958,0.050073 -0.08763,0.018764 -0.175252,0.050073 -0.206548,0.093886 -0.03129,0.043813 -0.11892,0.087626 -0.156475,0.1439585 -0.03755,0.056329 -0.112662,0.087626 -0.112662,0.062588 0,-0.025031 -0.01252,-0.075107 -0.01252,-0.075107 z"
         id="path20254-2" /><path
         style="opacity:0.99;fill:none;fill-opacity:1;fill-rule:nonzero;stroke:#000000;stroke-width:0.0354046;stroke-dasharray:none;stroke-opacity:1;paint-order:fill markers stroke"
         d="m 11.290633,6.8762021 c -0.0044,0.026553 -0.0089,0.097366 -0.0044,0.1283486 0.0044,0.030979 0.03098,0.075238 0.08409,0.084089 0.05311,0.00885 0.09294,0.026553 0.123922,0.044259 0.03098,0.017702 0.119497,0.088515 0.123922,0.1283486 0.0044,0.03983 -0.02655,0.1371997 -0.03983,0.1637531 -0.01328,0.026553 0.01328,0.084089 -0.03983,0.084089 -0.05311,0 -0.1372,-0.022128 -0.163755,-0.022128 -0.02655,0 -0.128347,-0.013277 -0.128347,-0.013277 l 0.04868,-0.00443 0.07524,0.022128"
         id="path20256-9-8" /><path
         style="opacity:0.99;fill:none;fill-opacity:1;fill-rule:nonzero;stroke:#000000;stroke-width:0.0354046;stroke-dasharray:none;stroke-opacity:1;paint-order:fill markers stroke"
         d="m 10.949846,8.1287019 c -0.02655,0.00885 -0.389469,0.05311 -0.482411,0.026553 -0.09294,-0.026553 -0.283251,-0.1194975 -0.30538,-0.15048 -0.02213,-0.030979 -0.154903,-0.1017916 -0.1770317,-0.1460509 -0.02213,-0.044256 -0.02655,-0.1327741 -0.02655,-0.1327741 0,0 -0.08409,0.1106463 -0.101794,0.1194974 -0.017702,0.00885 -0.061961,0.00885 -0.061961,0.00885"
         id="path20258-6" /><path
         style="opacity:0.99;fill:#999999;fill-opacity:1;fill-rule:nonzero;stroke:none;stroke-width:0.1;stroke-dasharray:none;stroke-opacity:1;paint-order:fill markers stroke"
         d="m 7.8798217,2.0873399 c -0.3201431,0.2134293 1.1411047,2.0318779 3.1501603,1.9750996 2.014156,-0.056923 1.399115,-0.6783795 1.400071,-0.6750338 0.368866,1.46663 0.392663,5.462044 -1.12328,5.884615 C 9.5773326,10.026468 5.9725151,7.472521 6.2797399,7.0375902 6.7143209,6.4223653 6.5132103,5.2390567 7.8798217,2.0873399 Z"
         id="path157"
         sodipodi:nodetypes="csccsc" /><ellipse
         style="opacity:0.99;fill:#9a9a99;fill-opacity:1;fill-rule:nonzero;stroke:none;stroke-width:0.0942533;stroke-dasharray:none;stroke-opacity:1;paint-order:fill markers stroke"
         id="path981"
         transform="matrix(0.9425613,0.33403324,-0.54042652,0.84139121,0,0)"
         ry="1.0356855"
         rx="2.4581196"
         cy="-0.48438725"
         cx="10.462882" /><path
         style="opacity:0.99;fill:#4d4d4d;fill-opacity:1;fill-rule:nonzero;stroke:none;stroke-width:0.0993317;stroke-dasharray:none;stroke-opacity:1;paint-order:fill markers stroke"
         d="m 11.558967,4.1161163 c 0,0 0.461375,1.9938959 0.06135,3.5726663 -0.400021,1.5787671 -0.350018,1.5787671 -0.350018,1.5787671 0,0 0.40002,-0.09867 0.500025,-0.345354 0.100005,-0.2466847 0.80004,-1.8254516 0.700035,-2.5161625 -0.100005,-0.690711 -0.105551,-1.9794473 -0.105551,-1.9794473 0,0 0.194204,-0.5078145 -0.805846,-0.3104696 z"
         id="path983"
         sodipodi:nodetypes="cscsscc" /><path
         style="opacity:0.99;fill:#4d4d4d;fill-opacity:1;fill-rule:nonzero;stroke:none;stroke-width:0.1;stroke-dasharray:none;stroke-opacity:1;paint-order:fill markers stroke"
         d="M 12.576445,6.1215081 C 12.115025,6.356612 10.646884,6.4125689 9.4245517,5.7729042 9.2834115,5.2544824 8.7409982,6.1988351 9.4581577,6.5960813 c 0.5186526,0.2576495 1.5129783,0.4409672 1.8661833,0.4254175 0.35323,-0.015543 1.23159,-0.092155 1.243774,-0.2979576 0.01218,-0.2058066 0.04369,-0.7964962 0.04369,-0.7964962 z"
         id="path989"
         sodipodi:nodetypes="cccsccc" /><path
         style="opacity:0.99;fill:#808080;fill-opacity:1;fill-rule:nonzero;stroke:none;stroke-width:0.107975;stroke-dasharray:none;stroke-opacity:1;paint-order:fill markers stroke"
         d="m 10.002158,2.1748423 c 0,0 -1.6905962,-0.2000074 -1.8509115,0.024996 -0.160315,0.2250101 0.029149,0.3875205 0.1020182,0.4375224 1.1938337,0.4640793 2.5157113,0.4531641 3.7892683,0.6125306"
         id="path1412"
         sodipodi:nodetypes="cscc" /><path
         style="opacity:0.99;fill:#666666;fill-opacity:0.423792;fill-rule:nonzero;stroke:none;stroke-width:0.093;stroke-dasharray:none;stroke-opacity:1;paint-order:fill markers stroke"
         d="M 7.0985077,7.6558528 C 6.2931087,6.9719608 6.7012566,6.9047063 6.6116742,7.0061439 6.5750514,5.0968578 7.5835745,3.9306071 7.8220284,2.7422073 c 0.097078,0.091698 -0.1427101,0.077724 0.6189024,0.5663418"
         id="path3187"
         sodipodi:nodetypes="cccc" /><path
         style="opacity:0.99;fill:#666666;fill-opacity:1;fill-rule:nonzero;stroke:none;stroke-width:0.0705928;stroke-dasharray:none;stroke-opacity:1;paint-order:fill markers stroke"
         d="m 11.925149,4.5623447 c 0,0 0.209541,1.7386432 -0.07001,3.0972752 -0.27955,1.3586358 -0.250447,1.3598108 -0.250447,1.3598108 0,0 0.235752,-0.07608 0.30126,-0.287485 0.06551,-0.211404 0.519682,-1.5629727 0.481912,-2.1638517 -0.03777,-0.600879 -0.0028,-1.7177404 -0.0028,-1.7177404 0,0 0.128063,-0.4354653 -0.459856,-0.2880089 z"
         id="path5668"
         sodipodi:nodetypes="cscsscc" /><path
         style="opacity:0.99;fill:#666666;fill-opacity:1;fill-rule:nonzero;stroke:none;stroke-width:0.0713168;stroke-dasharray:none;stroke-opacity:1;paint-order:fill markers stroke"
         d="m 12.579272,6.3352772 c -0.424535,0.129963 -1.775315,0.1608995 -2.8999357,-0.192707 -0.1298575,-0.2865821 -0.6289112,0.2354545 0.030922,0.4550512 0.4771913,0.142429 1.3920323,0.2437639 1.7170033,0.2351712 0.324993,-0.0086 1.133137,-0.050944 1.144347,-0.1647126 0.01121,-0.113769 0.04019,-0.4403016 0.04019,-0.4403016 z"
         id="path5670"
         sodipodi:nodetypes="cccsccc" /></g><path
       style="opacity:0.99;fill:#fde0a4;fill-opacity:1;fill-rule:nonzero;stroke:none;stroke-width:0.1;stroke-dasharray:none;stroke-opacity:1;paint-order:fill markers stroke"
       d="m -101.026,40.768853 c 0,0 0.71779,-3.53779 0.541,-3.64386 -0.17679,-0.10607 1.025358,-0.17678 1.308214,-0.56571 0.282858,-0.38893 0.707144,-0.81322 0.813215,-1.27286 0.106072,-0.45964 0.212143,-1.09607 0.212143,-1.44964 0,-0.35358 -0.106071,-1.30822 -0.106071,-1.30822 v -0.14143 c 0,0 4.348927,0.21215 6.611783,1.41429 2.262857,1.20214 2.368929,1.27286 2.368929,1.27286 0,0 0.990002,-0.77786 1.060714,-0.91929 0.07072,-0.14143 0.459645,-0.35357 0.459645,-0.35357 l 0.459642,0.99 c 0,0 0.141428,4.31357 -0.03536,4.98536 -0.176787,0.67178 -0.106071,0.31821 -0.14143,0.495 -0.03536,0.17678 -0.141428,1.20214 -0.141428,1.52035 0,0.31822 0.07071,1.13143 0.03536,1.44965 -0.03536,0.31821 -0.565713,1.87393 -0.565713,1.87393 0,0 -1.025359,0.99 -1.272858,1.09607 -0.247499,0.10607 -1.485,0.63643 -1.661784,0.70714 -0.176787,0.0707 -0.707144,0.14143 -0.883931,0.14143 -0.176784,0 -1.308214,0 -1.661784,0 -0.353571,0 -1.308214,-0.14143 -1.626428,-0.21214 -0.318215,-0.0707 -1.096071,-0.2475 -1.555716,-0.31822 -0.459642,-0.0707 -1.272857,-0.38893 -1.626428,-0.56571 -0.353571,-0.17679 -1.025356,-0.45965 -1.166786,-0.53036 -0.141428,-0.0707 -0.777858,-0.67178 -0.989998,-0.77786 -0.21214,-0.10607 -0.70715,-0.495 -0.81322,-0.63642 -0.10607,-0.14143 -0.495,-0.49501 -0.495,-0.49501 v -0.45964 c 0,0 -0.45964,0.495 -0.99,0.21215 -0.53035,-0.28286 -1.30821,-0.35358 -1.59107,-0.70715 -0.28286,-0.35357 -0.60107,-1.13143 -0.60107,-1.27286 0,-0.14142 -0.0354,-0.42428 0,-0.70714 0.0354,-0.28286 0.14143,-0.7425 0.14143,-0.7425 0,0 0.21214,-0.35357 0.63643,-0.60107 0.42428,-0.2475 0.56571,-0.38893 0.77786,-0.42429 0.21214,-0.0354 0.84857,0.0354 0.84857,0.0354 0,0 0.495,0.17679 0.60107,0.35357 0.10607,0.17679 0.31821,0.45965 0.42428,0.60107 0.10607,0.14143 0.35357,0.45965 0.42429,0.60108 0.0707,0.14142 0.2015,0.35564 0.2015,0.35564 z"
       id="path32083" /><path
       style="opacity:0.99;fill:#ff6600;fill-opacity:1;fill-rule:nonzero;stroke:none;stroke-width:0.1;stroke-dasharray:none;stroke-opacity:1;paint-order:fill markers stroke"
       d="m -103.77615,32.368433 c 0,0 -3.65018,1.85009 -2.70013,4.85024 0.95004,3.00015 1.40007,3.15016 1.40007,3.15016 l 0.15001,-0.05 c 0,0 0.55002,-1.00005 0.80004,-1.10006 0.25001,-0.1 0.60003,-0.30001 0.90004,-0.25001 0.30002,0.05 1.20006,0.35002 1.30007,0.60003 0.1,0.25002 0.50002,0.65003 0.65003,0.85005 0.15001,0.20001 0.35002,0.30001 0.35002,0.30001 0,0 0.25001,-0.90004 0.40002,-1.35007 0.15001,-0.45002 0.20001,-0.65003 0.15001,-1.05005 -0.05,-0.40002 -0.15001,-0.90005 -0.15001,-0.90005 l -0.25001,-0.65003 c 0.955262,0.71155 3.449013,0.57575 2.703689,-2.67943 -0.311283,-1.35952 0.02071,-1.47936 0.02071,-1.47936 0,0 0.375756,-0.24143 1.175798,-0.0914 0.800039,0.15001 1.80009,0.30002 2.350119,0.50003 0.550026,0.20001 1.400071,0.45002 1.800092,0.60003 0.400019,0.15001 1.450073,0.50002 1.700086,0.70003 0.250013,0.20002 0.900046,0.40002 1.150059,0.55003 0.250013,0.15001 0.800039,0.45002 0.800039,0.45002 0,0 0.425022,-0.77504 0.675035,-0.92505 0.250012,-0.15 0.525028,-0.47501 0.525028,-0.47501 l 0.300016,0.075 0.200011,0.77504 -3e-6,0.97505 c 0,0 0.600031,-0.82504 0.850044,-1.27507 0.250013,-0.45002 0.350017,-0.80004 0.60003,-1.30006 0.250013,-0.50003 0.400021,-0.90005 0.400021,-1.35007 0,-0.45003 0.250013,-1.55008 0.150008,-2.30012 -0.100005,-0.75004 -0.100005,-0.90005 -0.250013,-1.20006 -0.150008,-0.30002 -0.150008,-0.55003 -0.250012,-0.75004 -0.100005,-0.20001 -0.20001,-0.50003 -0.20001,-0.50003 0,0 0.05,0.60003 -0.150008,1.10006 -0.200012,0.50003 -0.350017,1.05005 -0.350017,1.05005 0,0 0.150005,-0.95004 -0.35002,-2.50012 -0.500025,-1.55008 -0.350017,-1.70009 -0.350017,-1.70009 v -0.30001 c 0,0 -0.100005,0.75003 -0.700035,1.15005 -0.600032,0.40002 -1.450075,1.05006 -2.000102,1.15006 -0.550029,0.10001 -2.100109,0.45003 -2.500127,0.45003 h -1.750092 c -0.200009,0 -0.700034,-0.10001 -0.700034,-0.10001 0,0 0.750038,0.15001 1.350068,-0.70004 0.60003,-0.85004 0.550029,-0.90004 0.550029,-0.90004 0,0 -0.750038,0.20001 -1.200063,0.20001 h -1.650081 c -0.300017,0 -2.200114,0.55003 -2.550131,0.65003 -0.350018,0.10001 -2.150107,0.50003 -2.550127,1.05005 -0.40003,0.55003 -1.65009,1.55008 -1.75009,1.8001 -0.10001,0.25001 -0.15001,0.35001 -0.45003,1.10005 -0.30001,0.75004 -0.25001,1.15006 -0.35002,1.45008 -0.1,0.30001 -0.25001,0.35002 -0.25001,0.35002 z"
       id="path32085"
       sodipodi:nodetypes="csccsssscssccscssssscsccccsssssscscsccsssscscssssssscc" /><path
       style="opacity:0.99;fill:#fde0a4;fill-opacity:0.992157;fill-rule:nonzero;stroke:none;stroke-width:0.108535;stroke-dasharray:none;stroke-opacity:1;paint-order:fill markers stroke"
       d="m -99.321539,45.497833 v 0.70618 c 0,0 -0.09175,0.83457 0.734045,0.96296 0.825802,0.1284 1.238702,0.321 1.238702,0.321 l 0.09175,-1.32307 c 0,0 -0.734043,-0.21768 -1.2387,-0.41027 -0.504657,-0.1926 -0.550533,-0.44939 -0.550533,-0.44939 z"
       id="path32087"
       sodipodi:nodetypes="ccsccscc" /><path
       style="opacity:0.99;fill:#48a4df;fill-opacity:1;fill-rule:nonzero;stroke:#0055d4;stroke-width:0.1;stroke-dasharray:none;stroke-opacity:1;paint-order:fill markers stroke"
       d="m -101.77604,50.669363 c -0.20001,-0.30002 -1.50008,-1.50008 -1.55008,-1.8501 -0.05,-0.35001 -0.10001,-0.2 0.60003,-0.65003 0.70003,-0.45002 1.35007,-0.80004 1.75009,-0.85004 0.40002,-0.05 1.000048,-0.10001 1.000048,-0.10001 l -1.000048,0.05 c 0,0 0.35001,-0.80003 0.80004,-1.00005 0.45002,-0.20001 0.800038,-0.45002 0.800038,-0.45002 0,0 0.300016,0.45002 0.600032,0.80004 0.300014,0.35002 0.450022,0.70004 0.950048,0.55003 0.500025,-0.15001 0.650033,-0.45002 0.650033,-0.45002 0,0 1.20006,4.40022 0.950048,6.30032 -0.250013,1.90009 0.300016,1.80009 0,1.90009 -0.300014,0.10001 -2.050103,0.05 -2.050103,0.05 0,0 -1.100058,-0.25001 -1.300067,-0.25001 H -100.926 c -0.25001,0 -0.50003,0.25001 -0.75004,0 -0.25001,-0.25002 -0.80004,-0.90005 -0.85004,-1.9501 -0.05,-1.05006 -0.05,-1.15006 0.45002,-1.55008 0.50003,-0.40002 0.70004,-0.40002 0.70004,-0.40002 0,0 0.44144,-0.11465 0.99147,-0.41467 0.550027,-0.30001 1.408649,-1.48543 1.408649,-1.48543 -0.548972,1.05529 -1.329719,1.69338 -2.350119,1.9001 z"
       id="path32089"
       sodipodi:nodetypes="csssccscsscsscssssscsccc" /><path
       style="opacity:0.99;fill:#444960;fill-opacity:1;fill-rule:nonzero;stroke:none;stroke-width:0.1;stroke-dasharray:none;stroke-opacity:1;paint-order:fill markers stroke"
       d="m -103.30112,54.894573 c 0,0 0.50002,2.67514 0.52503,2.95016 0.025,0.27501 0.1,1.90009 0.025,2.0251 -0.075,0.12501 -0.50003,0.82504 -0.57503,0.95005 -0.075,0.125 -0.90005,1.9501 -1.02505,2.0251 -0.12501,0.075 -0.72504,1.07506 -0.72504,1.07506 0,0 0.55002,0.15 0.72504,0.15 0.175,0 1.32506,-0.125 1.65008,-0.17501 0.32501,-0.05 0.70003,-0.05 0.95005,-0.05 0.25001,0 0.55002,0.45002 0.65003,0.45002 0.10001,0 0,-0.37501 0.025,-0.62503 0.025,-0.25001 -0.025,-0.35001 0.20001,-0.52503 0.22501,-0.175 0.45002,-0.15 0.60003,-0.75003 0.15001,-0.60003 0.300016,-1.37507 0.35002,-1.60009 0.05,-0.22501 0.150008,-0.70003 -0.025,-1.15005 -0.17501,-0.45003 -0.22501,-1.05006 -0.32502,-1.17506 -0.1,-0.12501 -0.35002,-2.10011 -0.60003,-2.45013 -0.25001,-0.35002 -0.97505,-1.37507 -0.97505,-1.37507 z"
       id="path32091" /><path
       style="opacity:0.99;fill:#23283b;fill-opacity:1;fill-rule:nonzero;stroke:none;stroke-width:0.1;stroke-dasharray:none;stroke-opacity:1;paint-order:fill markers stroke"
       d="m -98.650885,57.394703 c 0,0 0.850043,1.55008 0.975051,1.62509 0.125005,0.075 0.60003,1.07505 0.60003,1.07505 0,0 0.05,0.85004 -0.05,1.37507 -0.100007,0.52503 -0.300016,1.52508 -0.300016,1.77509 0,0.25001 -0.250013,0.67504 -0.150009,0.67504 0.100005,0 1.000051,0.075 1.600081,0.075 0.600033,0 0.625033,0.15 1.475076,0.025 0.850043,-0.12501 1.100056,-0.1 1.250064,-0.15001 0.150008,-0.05 -0.05,0 -0.175009,-0.40002 -0.125005,-0.40001 -0.05,-0.075 -0.200009,-0.67503 -0.150008,-0.60003 -0.325017,-1.07506 -0.300016,-1.57508 0.025,-0.50003 -0.400021,-2.0251 -0.750038,-2.22512 -0.350018,-0.2 -0.500026,-0.62503 -0.700035,-0.77503 -0.200012,-0.15001 -1.475076,-1.42508 -1.475076,-1.42508 l -0.750038,-0.125 c 0,0 -0.650034,0.52502 -0.750038,0.57503 -0.100005,0.05 -0.300017,0.15 -0.300018,0.15 z"
       id="path32093" /><path
       style="opacity:0.99;fill:#474e61;fill-opacity:1;fill-rule:nonzero;stroke:none;stroke-width:0.1;stroke-dasharray:none;stroke-opacity:1;paint-order:fill markers stroke"
       d="m -102.32607,54.444553 6.175313,0.42502 c 0,0 0.450024,0.65004 0.100004,1.05006 -0.350017,0.40002 -0.700034,0.80004 -0.950047,1.00005 -0.250013,0.20001 -0.725038,0.55003 -1.025051,0.60003 -0.300017,0.05 -0.625034,0.125 -1.025054,0.075 -0.400019,-0.05 -0.900044,0.025 -1.275065,-0.1 -0.37502,-0.12501 -0.82504,-0.075 -1.00005,-0.60003 -0.17501,-0.52503 -0.32502,-1.35007 -0.45002,-1.52508 -0.12501,-0.17501 -0.67504,-0.95005 -0.67504,-0.95005 z"
       id="path32095" /><path
       style="opacity:0.99;fill:#47a3e3;fill-opacity:1;fill-rule:nonzero;stroke:#0055d4;stroke-width:0.1;stroke-dasharray:none;stroke-opacity:1;paint-order:fill markers stroke"
       d="m -105.05121,63.995043 c 0,0 3.00015,-0.20001 3.27517,-0.075 0.27501,0.125 1.15005,0.60003 1.25006,0.82504 0.10001,0.22501 0.35002,0.75004 0.47502,0.87504 0.125011,0.12501 -0.55002,0.25001 -0.72503,0.20001 -0.17501,-0.05 -0.90005,-0.05 -1.35007,-0.05 -0.45002,0 -1.07506,-0.05 -1.8251,-0.075 -0.75003,-0.025 -1.17506,-0.025 -1.37506,-0.025 -0.20002,0 -0.70004,0.12501 -0.60003,0 0.1,-0.12501 0.25001,-0.97505 0.45002,-1.40007 0.20001,-0.42502 0.42502,-0.27501 0.42502,-0.27501 z"
       id="path32097" /><path
       style="opacity:0.99;fill:#e3dedb;fill-opacity:1;fill-rule:nonzero;stroke:none;stroke-width:0.1;stroke-dasharray:none;stroke-opacity:1;paint-order:fill markers stroke"
       d="m -105.87625,65.745133 c -0.12501,-0.025 -0.27502,0.27501 -0.27502,0.27501 0,0 0.05,0.40002 0.20001,0.45002 0.15001,0.05 0.17501,0.05 0.87505,0.12501 0.70003,0.075 1.30006,0.10001 1.82509,0.10001 0.52503,0 1.80009,-0.075 2.0501,-0.10001 0.25002,-0.025 0.85005,-0.05 1.07506,-0.15001 0.225012,-0.1 0.40002,-0.17501 0.40002,-0.35001 0,-0.17501 -0.125005,-0.45003 -0.250012,-0.45003 -0.125008,0 -5.900298,0.10001 -5.900298,0.10001 z"
       id="path32099" /><path
       style="opacity:0.99;fill:#47a3e3;fill-opacity:1;fill-rule:nonzero;stroke:#0055d4;stroke-width:0.1;stroke-dasharray:none;stroke-opacity:1;paint-order:fill markers stroke"
       d="m -97.166568,63.712183 c 0,0 3.000153,-0.20001 3.275169,-0.075 0.275013,0.125 1.150056,0.60003 1.250063,0.82504 0.100005,0.22501 0.350018,0.75004 0.475023,0.87504 0.125007,0.12501 -0.550027,0.25001 -0.725035,0.20001 -0.175012,-0.05 -0.900047,-0.05 -1.350071,-0.05 -0.450022,0 -1.075055,-0.05 -1.825093,-0.075 -0.750039,-0.025 -1.17506,-0.025 -1.375069,-0.025 -0.200012,0 -0.700037,0.12501 -0.60003,0 0.100004,-0.12501 0.250013,-0.97505 0.450022,-1.40007 0.200009,-0.42502 0.425021,-0.27501 0.425021,-0.27501 z"
       id="path32101" /><path
       style="opacity:0.99;fill:#e3dedb;fill-opacity:1;fill-rule:nonzero;stroke:none;stroke-width:0.1;stroke-dasharray:none;stroke-opacity:1;paint-order:fill markers stroke"
       d="m -97.99161,65.462273 c -0.125005,-0.025 -0.275013,0.27501 -0.275013,0.27501 0,0 0.05,0.40002 0.200009,0.45002 0.150008,0.05 0.175008,0.05 0.875046,0.12501 0.700034,0.075 1.300064,0.10001 1.825093,0.10001 0.525026,0 1.80009,-0.075 2.050103,-0.10001 0.250012,-0.025 0.850045,-0.05 1.075055,-0.15001 0.225012,-0.1 0.40002,-0.17501 0.40002,-0.35001 0,-0.17501 -0.125005,-0.45003 -0.250012,-0.45003 -0.125005,0 -5.900301,0.10001 -5.900301,0.10001 z"
       id="path32103" /><ellipse
       style="opacity:0.99;fill:#000000;fill-opacity:1;fill-rule:nonzero;stroke:#000000;stroke-width:0.1;stroke-dasharray:none;stroke-opacity:1;paint-order:fill markers stroke"
       id="ellipse32105"
       cx="-93.767143"
       cy="40.183392"
       rx="0.77785712"
       ry="1.3966072" /><ellipse
       style="opacity:0.99;fill:#000000;fill-opacity:1;fill-rule:nonzero;stroke:#000000;stroke-width:0.0792771;stroke-dasharray:none;stroke-opacity:1;paint-order:fill markers stroke"
       id="ellipse32107"
       cx="-88.857292"
       cy="40.094173"
       rx="0.56723642"
       ry="1.203665" /><ellipse
       style="opacity:0.99;fill:#ffffff;fill-opacity:1;fill-rule:nonzero;stroke:none;stroke-width:0.1;stroke-dasharray:none;stroke-opacity:1;paint-order:fill markers stroke"
       id="ellipse32109"
       cx="-93.722946"
       cy="39.723751"
       rx="0.53919643"
       ry="0.68946427" /><ellipse
       style="opacity:0.99;fill:#ffffff;fill-opacity:1;fill-rule:nonzero;stroke:none;stroke-width:0.0775845;stroke-dasharray:none;stroke-opacity:1;paint-order:fill markers stroke"
       id="ellipse32111"
       cx="-88.870186"
       cy="39.564632"
       rx="0.40013629"
       ry="0.55924344" /><path
       style="opacity:0.99;fill:#000000;fill-opacity:1;fill-rule:nonzero;stroke:#000000;stroke-width:0.1;stroke-dasharray:none;stroke-opacity:1;paint-order:fill markers stroke"
       d="m -95.941607,36.647673 c 0.335891,-0.28286 0.848572,-0.76018 1.11375,-0.7425 0.265179,0.0177 0.636429,0.053 0.919285,0.0884 0.282858,0.0354 0.689464,0.30054 0.830894,0.38893 0.141428,0.0884 0.371251,0.53036 0.548035,0.65411 0.176786,0.12375 0.335893,0.51268 0.37125,0.54804 0.03536,0.0354 0.159107,0.22982 0.141427,0.26517 -0.01767,0.0354 -0.318214,-0.22098 -0.459642,-0.25634 -0.141427,-0.0353 -0.609909,-0.30937 -0.715981,-0.41544 -0.106071,-0.10607 -0.07071,-0.22982 -0.291698,-0.32705 -0.220982,-0.0972 -0.822052,-0.18563 -0.892767,-0.20331 -0.07071,-0.0177 -0.353571,-0.0177 -0.574553,-0.0177 -0.220983,0 -0.742501,0.0354 -0.804376,0.053 -0.06187,0.0177 -0.247499,0.053 -0.247499,0.053 z"
       id="path32113" /><path
       style="opacity:0.99;fill:#000000;fill-opacity:1;fill-rule:nonzero;stroke:#000000;stroke-width:0.1;stroke-dasharray:none;stroke-opacity:1;paint-order:fill markers stroke"
       d="m -89.488927,38.008923 c 0.03536,-0.0884 0.194463,-0.53036 0.406606,-0.65411 0.212143,-0.12375 0.583393,-0.37125 0.671785,-0.4066 0.08839,-0.0354 0.282858,0 0.441965,0.0707 0.159107,0.0707 0.318215,0.12375 0.265179,0.21214 -0.05304,0.0884 -0.159107,0.0884 -0.406609,0.14143 -0.247499,0.053 -0.494999,0.14143 -0.583393,0.26518 -0.08839,0.12375 -0.335891,0.2475 -0.441963,0.40661 -0.106071,0.1591 -0.318214,0.2475 -0.318214,0.17678 0,-0.0707 -0.03536,-0.21214 -0.03536,-0.21214 z"
       id="path32115" /><path
       style="opacity:0.99;fill:none;fill-opacity:1;fill-rule:nonzero;stroke:#000000;stroke-width:0.1;stroke-dasharray:none;stroke-opacity:1;paint-order:fill markers stroke"
       d="m -90.350461,41.306383 c -0.01249,0.075 -0.025,0.27501 -0.01249,0.36252 0.01249,0.0875 0.08751,0.21251 0.237513,0.23751 0.150009,0.025 0.262512,0.075 0.350018,0.12501 0.08751,0.05 0.337518,0.25001 0.350017,0.36252 0.01252,0.1125 -0.075,0.38752 -0.112506,0.46252 -0.0375,0.075 0.0375,0.23751 -0.112504,0.23751 -0.150008,0 -0.387522,-0.0625 -0.462526,-0.0625 -0.075,0 -0.362516,-0.0375 -0.362516,-0.0375 l 0.137507,-0.0125 0.21251,0.0625"
       id="path32117" /><path
       style="opacity:0.99;fill:none;fill-opacity:1;fill-rule:nonzero;stroke:#000000;stroke-width:0.1;stroke-dasharray:none;stroke-opacity:1;paint-order:fill markers stroke"
       d="m -91.31301,44.844063 c -0.075,0.025 -1.100055,0.15001 -1.36257,0.075 -0.262514,-0.075 -0.800039,-0.33752 -0.862544,-0.42503 -0.0625,-0.0875 -0.437523,-0.28751 -0.500025,-0.41252 -0.0625,-0.125 -0.075,-0.37502 -0.075,-0.37502 0,0 -0.237512,0.31252 -0.287515,0.33752 -0.05,0.025 -0.175009,0.025 -0.175009,0.025"
       id="path32119" /><path
       style="opacity:0.99;fill:#fde0a4;fill-opacity:0.992157;fill-rule:nonzero;stroke:none;stroke-width:0.1;stroke-dasharray:none;stroke-opacity:1;paint-order:fill markers stroke"
       d="m -103.37613,48.944273 1.9001,2.0251 c 0,0 -0.97505,0.52503 -1.02505,0.62503 -0.05,0.10001 -0.075,1.12506 -0.025,1.25007 0.05,0.12501 0.30001,1.02505 0.42502,1.25006 0.12501,0.22501 0.40002,0.92505 0.40002,0.92505 0,0 -0.05,-0.37502 0.37502,-0.22501 0.42502,0.15001 0.47502,0.075 0.52503,0.17501 0.05,0.1 0.62503,0.70003 0.62503,0.70003 l 0.275012,0.85005 c 0,0 0.250013,0.27501 0.025,0.42502 -0.225012,0.15001 -0.275012,0.35002 -0.350022,0.22501 -0.075,-0.12501 -0.2,-0.57503 -0.2,-0.57503 l 0.22501,0.87505 0.275011,0.40002 c 0,0 0.150008,0.42502 -0.250011,0.55003 -0.40002,0.125 -0.77504,-0.05 -0.77504,-0.05 0,0 -0.075,0 -0.35002,0.20001 -0.27501,0.20001 -0.50003,0.52503 -0.67503,0.35002 -0.17501,-0.17501 -0.37502,-0.25001 -0.52503,-0.27502 -0.15001,-0.025 -0.35002,0.15001 -0.52503,0.15001 -0.17501,0 -0.50002,0.15001 -0.65003,-0.20001 -0.15001,-0.35002 -0.20001,-0.47502 -0.35002,-0.82504 -0.15001,-0.35002 -0.22501,-0.32502 -0.20001,-0.70004 0.025,-0.37501 0.12501,-0.67503 0.20001,-0.87504 0.075,-0.20001 0.10001,-0.25001 0.12501,-0.50002 0.025,-0.25002 -0.52503,-0.50003 -0.62504,-0.97505 -0.1,-0.47503 -0.25001,-0.77504 -0.40001,-1.12506 -0.15001,-0.35002 -0.30002,-0.55003 -0.32502,-0.97505 -0.025,-0.42502 -0.12501,-0.67504 0.025,-1.22506 0.15001,-0.55003 0.05,-0.45003 0.45002,-1.00006 0.40002,-0.55002 0.57503,-0.72503 0.80004,-0.90004 0.22502,-0.17501 0.60003,-0.55003 0.60003,-0.55003 z"
       id="path32121" /><path
       style="opacity:0.99;fill:#fde0a4;fill-opacity:0.992157;fill-rule:nonzero;stroke:none;stroke-width:0.1;stroke-dasharray:none;stroke-opacity:1;paint-order:fill markers stroke"
       d="m -95.875741,54.294543 c 0,0.10001 -0.175012,0.15001 -0.300017,0.52503 -0.125008,0.37502 -0.100004,0.55003 -0.125008,0.72504 -0.025,0.17501 -0.350017,0.72504 -0.350017,0.72504 0,0 -0.700035,0.37501 -0.275014,0.67503 0.425024,0.30001 0.625031,0.50002 0.750039,0.50002 0.125005,0 0.350017,-0.1 0.525026,-0.32501 0.175009,-0.22501 0.375021,-0.40002 0.525029,-0.72504 0.150005,-0.32502 0.375017,-0.92505 0.375017,-0.92505 0,0 -0.05,0.45003 0.175009,0.62504 0.225012,0.17501 0,0.27501 0.450025,0.15 0.450021,-0.125 0.800039,-0.67503 0.825042,-0.80004 0.025,-0.125 0.225009,-0.47502 0.225009,-0.72503 0,-0.25002 -0.150005,-0.50003 -0.375017,-0.62504 -0.225013,-0.125 -0.750038,-0.1 -1.000051,-0.075 -0.250013,0.025 -1.225063,0.10001 -1.225063,0.10001 z"
       id="path32123"
       sodipodi:nodetypes="csscsssscsssssscc" /><path
       style="opacity:0.99;fill:#fde0a4;fill-opacity:0.992157;fill-rule:nonzero;stroke:none;stroke-width:0.1;stroke-dasharray:none;stroke-opacity:1;paint-order:fill markers stroke"
       d="m -95.725736,57.219693 c 0,0 -0.150005,0.42502 -0.150005,0.57503 0,0.15001 0.375017,0.42502 0.62503,0.52503 0.250013,0.10001 0.825042,0.20001 1.100055,0.025 0.275016,-0.17501 0.475025,-0.55003 0.55003,-0.67503 0.075,-0.12501 0.100004,-0.17501 0.225012,-0.17501 0.125005,0 0.425021,-0.27502 0.425021,-0.42503 0,-0.15 0,-0.27501 0,-0.40002 0,-0.125 0.300014,-0.35001 0.300014,-0.35001 0,0 0.150008,-0.22501 0.150008,-0.50003 0,-0.27501 0.250013,-0.45002 -0.075,-0.50002 -0.325017,-0.05 -0.625031,-0.30002 -0.625031,-0.30002 0,0 -1.800092,-0.075 -1.975101,0.10001 -0.175009,0.175 -0.550029,2.1001 -0.550029,2.1001 z"
       id="path32125" /><path
       style="opacity:0.99;fill:#fde0a4;fill-opacity:1;fill-rule:nonzero;stroke:none;stroke-width:0.1;stroke-dasharray:none;stroke-opacity:1;paint-order:fill markers stroke"
       d="m -101.026,40.768853 c 0,0 0.71779,-3.53779 0.541,-3.64386 -0.17679,-0.10607 1.025358,-0.17678 1.308214,-0.56571 0.282858,-0.38893 0.707144,-0.81322 0.813215,-1.27286 0.106072,-0.45964 0.212143,-1.09607 0.212143,-1.44964 0,-0.35358 -0.106071,-1.30822 -0.106071,-1.30822 v -0.14143 c 0,0 4.348927,0.21215 6.611783,1.41429 2.262857,1.20214 2.368929,1.27286 2.368929,1.27286 0,0 0.990002,-0.77786 1.060714,-0.91929 0.07072,-0.14143 0.459645,-0.35357 0.459645,-0.35357 l 0.459642,0.99 c 0,0 0.141428,4.31357 -0.03536,4.98536 -0.176787,0.67178 -0.106071,0.31821 -0.14143,0.495 -0.03536,0.17678 -0.141428,1.20214 -0.141428,1.52035 0,0.31822 0.07071,1.13143 0.03536,1.44965 -0.03536,0.31821 -0.565713,1.87393 -0.565713,1.87393 0,0 -1.025359,0.99 -1.272858,1.09607 -0.247499,0.10607 -1.485,0.63643 -1.661784,0.70714 -0.176787,0.0707 -0.707144,0.14143 -0.883931,0.14143 -0.176784,0 -1.308214,0 -1.661784,0 -0.353571,0 -1.308214,-0.14143 -1.626428,-0.21214 -0.318215,-0.0707 -1.096071,-0.2475 -1.555716,-0.31822 -0.459642,-0.0707 -1.272857,-0.38893 -1.626428,-0.56571 -0.353571,-0.17679 -1.025356,-0.45965 -1.166786,-0.53036 -0.141428,-0.0707 -0.777858,-0.67178 -0.989998,-0.77786 -0.21214,-0.10607 -0.70715,-0.495 -0.81322,-0.63642 -0.10607,-0.14143 -0.495,-0.49501 -0.495,-0.49501 v -0.45964 c 0,0 -0.45964,0.495 -0.99,0.21215 -0.53035,-0.28286 -1.30821,-0.35358 -1.59107,-0.70715 -0.28286,-0.35357 -0.60107,-1.13143 -0.60107,-1.27286 0,-0.14142 -0.0354,-0.42428 0,-0.70714 0.0354,-0.28286 0.14143,-0.7425 0.14143,-0.7425 0,0 0.21214,-0.35357 0.63643,-0.60107 0.42428,-0.2475 0.56571,-0.38893 0.77786,-0.42429 0.21214,-0.0354 0.84857,0.0354 0.84857,0.0354 0,0 0.495,0.17679 0.60107,0.35357 0.10607,0.17679 0.31821,0.45965 0.42428,0.60107 0.10607,0.14143 0.35357,0.45965 0.42429,0.60108 0.0707,0.14142 0.2015,0.35564 0.2015,0.35564 z"
       id="path37522" /><path
       style="opacity:0.99;fill:#ff6600;fill-opacity:1;fill-rule:nonzero;stroke:none;stroke-width:0.1;stroke-dasharray:none;stroke-opacity:1;paint-order:fill markers stroke"
       d="m -103.77615,32.368433 c 0,0 -3.65018,1.85009 -2.70013,4.85024 0.95004,3.00015 1.40007,3.15016 1.40007,3.15016 l 0.15001,-0.05 c 0,0 0.55002,-1.00005 0.80004,-1.10006 0.25001,-0.1 0.60003,-0.30001 0.90004,-0.25001 0.30002,0.05 1.20006,0.35002 1.30007,0.60003 0.1,0.25002 0.50002,0.65003 0.65003,0.85005 0.15001,0.20001 0.35002,0.30001 0.35002,0.30001 0,0 0.25001,-0.90004 0.40002,-1.35007 0.15001,-0.45002 0.20001,-0.65003 0.15001,-1.05005 -0.05,-0.40002 -0.15001,-0.90005 -0.15001,-0.90005 l -0.25001,-0.65003 c 0.955262,0.71155 3.449013,0.57575 2.703689,-2.67943 -0.311283,-1.35952 0.02071,-1.47936 0.02071,-1.47936 0,0 0.375756,-0.24143 1.175798,-0.0914 0.800039,0.15001 1.80009,0.30002 2.350119,0.50003 0.550026,0.20001 1.400071,0.45002 1.800092,0.60003 0.400019,0.15001 1.450073,0.50002 1.700086,0.70003 0.250013,0.20002 0.900046,0.40002 1.150059,0.55003 0.250013,0.15001 0.800039,0.45002 0.800039,0.45002 0,0 0.425022,-0.77504 0.675035,-0.92505 0.250012,-0.15 0.525028,-0.47501 0.525028,-0.47501 l 0.300016,0.075 0.200011,0.77504 -3e-6,0.97505 c 0,0 0.600031,-0.82504 0.850044,-1.27507 0.250013,-0.45002 0.350017,-0.80004 0.60003,-1.30006 0.250013,-0.50003 0.400021,-0.90005 0.400021,-1.35007 0,-0.45003 0.250013,-1.55008 0.150008,-2.30012 -0.100005,-0.75004 -0.100005,-0.90005 -0.250013,-1.20006 -0.150008,-0.30002 -0.150008,-0.55003 -0.250012,-0.75004 -0.100005,-0.20001 -0.20001,-0.50003 -0.20001,-0.50003 0,0 0.05,0.60003 -0.150008,1.10006 -0.200012,0.50003 -0.350017,1.05005 -0.350017,1.05005 0,0 0.150005,-0.95004 -0.35002,-2.50012 -0.500025,-1.55008 -0.350017,-1.70009 -0.350017,-1.70009 v -0.30001 c 0,0 -0.100005,0.75003 -0.700035,1.15005 -0.600032,0.40002 -1.450075,1.05006 -2.000102,1.15006 -0.550029,0.10001 -2.100109,0.45003 -2.500127,0.45003 h -1.750092 c -0.200009,0 -0.700034,-0.10001 -0.700034,-0.10001 0,0 0.750038,0.15001 1.350068,-0.70004 0.60003,-0.85004 0.550029,-0.90004 0.550029,-0.90004 0,0 -0.750038,0.20001 -1.200063,0.20001 h -1.650081 c -0.300017,0 -2.200114,0.55003 -2.550131,0.65003 -0.350018,0.10001 -2.150107,0.50003 -2.550127,1.05005 -0.40003,0.55003 -1.65009,1.55008 -1.75009,1.8001 -0.10001,0.25001 -0.15001,0.35001 -0.45003,1.10005 -0.30001,0.75004 -0.25001,1.15006 -0.35002,1.45008 -0.1,0.30001 -0.25001,0.35002 -0.25001,0.35002 z"
       id="path37524"
       sodipodi:nodetypes="csccsssscssccscssssscsccccsssssscscsccsssscscssssssscc" /><path
       style="opacity:0.99;fill:#fde0a4;fill-opacity:0.992157;fill-rule:nonzero;stroke:none;stroke-width:0.108535;stroke-dasharray:none;stroke-opacity:1;paint-order:fill markers stroke"
       d="m -99.321539,45.497833 v 0.70618 c 0,0 -0.09175,0.83457 0.734045,0.96296 0.825802,0.1284 1.238702,0.321 1.238702,0.321 l 0.09175,-1.32307 c 0,0 -0.734043,-0.21768 -1.2387,-0.41027 -0.504657,-0.1926 -0.550533,-0.44939 -0.550533,-0.44939 z"
       id="path37526"
       sodipodi:nodetypes="ccsccscc" /><path
       style="opacity:0.99;fill:#48a4df;fill-opacity:1;fill-rule:nonzero;stroke:#0055d4;stroke-width:0.1;stroke-dasharray:none;stroke-opacity:1;paint-order:fill markers stroke"
       d="m -101.77604,50.669363 c -0.20001,-0.30002 -1.50008,-1.50008 -1.55008,-1.8501 -0.05,-0.35001 -0.10001,-0.2 0.60003,-0.65003 0.70003,-0.45002 1.35007,-0.80004 1.75009,-0.85004 0.40002,-0.05 1.000048,-0.10001 1.000048,-0.10001 l -1.000048,0.05 c 0,0 0.35001,-0.80003 0.80004,-1.00005 0.45002,-0.20001 0.800038,-0.45002 0.800038,-0.45002 0,0 0.300016,0.45002 0.600032,0.80004 0.300014,0.35002 0.450022,0.70004 0.950048,0.55003 0.500025,-0.15001 0.650033,-0.45002 0.650033,-0.45002 0,0 1.20006,4.40022 0.950048,6.30032 -0.250013,1.90009 0.300016,1.80009 0,1.90009 -0.300014,0.10001 -2.050103,0.05 -2.050103,0.05 0,0 -1.100058,-0.25001 -1.300067,-0.25001 H -100.926 c -0.25001,0 -0.50003,0.25001 -0.75004,0 -0.25001,-0.25002 -0.80004,-0.90005 -0.85004,-1.9501 -0.05,-1.05006 -0.05,-1.15006 0.45002,-1.55008 0.50003,-0.40002 0.70004,-0.40002 0.70004,-0.40002 0,0 0.44144,-0.11465 0.99147,-0.41467 0.550027,-0.30001 1.408649,-1.48543 1.408649,-1.48543 -0.548972,1.05529 -1.329719,1.69338 -2.350119,1.9001 z"
       id="path37528"
       sodipodi:nodetypes="csssccscsscsscssssscsccc" /><path
       style="opacity:0.99;fill:#444960;fill-opacity:1;fill-rule:nonzero;stroke:none;stroke-width:0.1;stroke-dasharray:none;stroke-opacity:1;paint-order:fill markers stroke"
       d="m -103.30112,54.894573 c 0,0 0.50002,2.67514 0.52503,2.95016 0.025,0.27501 0.1,1.90009 0.025,2.0251 -0.075,0.12501 -0.50003,0.82504 -0.57503,0.95005 -0.075,0.125 -0.90005,1.9501 -1.02505,2.0251 -0.12501,0.075 -0.72504,1.07506 -0.72504,1.07506 0,0 0.55002,0.15 0.72504,0.15 0.175,0 1.32506,-0.125 1.65008,-0.17501 0.32501,-0.05 0.70003,-0.05 0.95005,-0.05 0.25001,0 0.55002,0.45002 0.65003,0.45002 0.10001,0 0,-0.37501 0.025,-0.62503 0.025,-0.25001 -0.025,-0.35001 0.20001,-0.52503 0.22501,-0.175 0.45002,-0.15 0.60003,-0.75003 0.15001,-0.60003 0.300016,-1.37507 0.35002,-1.60009 0.05,-0.22501 0.150008,-0.70003 -0.025,-1.15005 -0.17501,-0.45003 -0.22501,-1.05006 -0.32502,-1.17506 -0.1,-0.12501 -0.35002,-2.10011 -0.60003,-2.45013 -0.25001,-0.35002 -0.97505,-1.37507 -0.97505,-1.37507 z"
       id="path37530" /><path
       style="opacity:0.99;fill:#23283b;fill-opacity:1;fill-rule:nonzero;stroke:none;stroke-width:0.1;stroke-dasharray:none;stroke-opacity:1;paint-order:fill markers stroke"
       d="m -98.650885,57.394703 c 0,0 0.850043,1.55008 0.975051,1.62509 0.125005,0.075 0.60003,1.07505 0.60003,1.07505 0,0 0.05,0.85004 -0.05,1.37507 -0.100007,0.52503 -0.300016,1.52508 -0.300016,1.77509 0,0.25001 -0.250013,0.67504 -0.150009,0.67504 0.100005,0 1.000051,0.075 1.600081,0.075 0.600033,0 0.625033,0.15 1.475076,0.025 0.850043,-0.12501 1.100056,-0.1 1.250064,-0.15001 0.150008,-0.05 -0.05,0 -0.175009,-0.40002 -0.125005,-0.40001 -0.05,-0.075 -0.200009,-0.67503 -0.150008,-0.60003 -0.325017,-1.07506 -0.300016,-1.57508 0.025,-0.50003 -0.400021,-2.0251 -0.750038,-2.22512 -0.350018,-0.2 -0.500026,-0.62503 -0.700035,-0.77503 -0.200012,-0.15001 -1.475076,-1.42508 -1.475076,-1.42508 l -0.750038,-0.125 c 0,0 -0.650034,0.52502 -0.750038,0.57503 -0.100005,0.05 -0.300017,0.15 -0.300018,0.15 z"
       id="path37532" /><path
       style="opacity:0.99;fill:#474e61;fill-opacity:1;fill-rule:nonzero;stroke:none;stroke-width:0.1;stroke-dasharray:none;stroke-opacity:1;paint-order:fill markers stroke"
       d="m -102.32607,54.444553 6.175313,0.42502 c 0,0 0.450024,0.65004 0.100004,1.05006 -0.350017,0.40002 -0.700034,0.80004 -0.950047,1.00005 -0.250013,0.20001 -0.725038,0.55003 -1.025051,0.60003 -0.300017,0.05 -0.625034,0.125 -1.025054,0.075 -0.400019,-0.05 -0.900044,0.025 -1.275065,-0.1 -0.37502,-0.12501 -0.82504,-0.075 -1.00005,-0.60003 -0.17501,-0.52503 -0.32502,-1.35007 -0.45002,-1.52508 -0.12501,-0.17501 -0.67504,-0.95005 -0.67504,-0.95005 z"
       id="path37534" /><path
       style="opacity:0.99;fill:#47a3e3;fill-opacity:1;fill-rule:nonzero;stroke:#0055d4;stroke-width:0.1;stroke-dasharray:none;stroke-opacity:1;paint-order:fill markers stroke"
       d="m -105.05121,63.995043 c 0,0 3.00015,-0.20001 3.27517,-0.075 0.27501,0.125 1.15005,0.60003 1.25006,0.82504 0.10001,0.22501 0.35002,0.75004 0.47502,0.87504 0.125011,0.12501 -0.55002,0.25001 -0.72503,0.20001 -0.17501,-0.05 -0.90005,-0.05 -1.35007,-0.05 -0.45002,0 -1.07506,-0.05 -1.8251,-0.075 -0.75003,-0.025 -1.17506,-0.025 -1.37506,-0.025 -0.20002,0 -0.70004,0.12501 -0.60003,0 0.1,-0.12501 0.25001,-0.97505 0.45002,-1.40007 0.20001,-0.42502 0.42502,-0.27501 0.42502,-0.27501 z"
       id="path37536" /><path
       style="opacity:0.99;fill:#47a3e3;fill-opacity:1;fill-rule:nonzero;stroke:#0055d4;stroke-width:0.1;stroke-dasharray:none;stroke-opacity:1;paint-order:fill markers stroke"
       d="m -97.166568,63.712183 c 0,0 3.000153,-0.20001 3.275169,-0.075 0.275013,0.125 1.150056,0.60003 1.250063,0.82504 0.100005,0.22501 0.350018,0.75004 0.475023,0.87504 0.125007,0.12501 -0.550027,0.25001 -0.725035,0.20001 -0.175012,-0.05 -0.900047,-0.05 -1.350071,-0.05 -0.450022,0 -1.075055,-0.05 -1.825093,-0.075 -0.750039,-0.025 -1.17506,-0.025 -1.375069,-0.025 -0.200012,0 -0.700037,0.12501 -0.60003,0 0.100004,-0.12501 0.250013,-0.97505 0.450022,-1.40007 0.200009,-0.42502 0.425021,-0.27501 0.425021,-0.27501 z"
       id="path37538" /><path
       style="opacity:0.99;fill:#e3dedb;fill-opacity:1;fill-rule:nonzero;stroke:none;stroke-width:0.1;stroke-dasharray:none;stroke-opacity:1;paint-order:fill markers stroke"
       d="m -97.99161,65.462273 c -0.125005,-0.025 -0.275013,0.27501 -0.275013,0.27501 0,0 0.05,0.40002 0.200009,0.45002 0.150008,0.05 0.175008,0.05 0.875046,0.12501 0.700034,0.075 1.300064,0.10001 1.825093,0.10001 0.525026,0 1.80009,-0.075 2.050103,-0.10001 0.250012,-0.025 0.850045,-0.05 1.075055,-0.15001 0.225012,-0.1 0.40002,-0.17501 0.40002,-0.35001 0,-0.17501 -0.125005,-0.45003 -0.250012,-0.45003 -0.125005,0 -5.900301,0.10001 -5.900301,0.10001 z"
       id="path37540" /><ellipse
       style="opacity:0.99;fill:#000000;fill-opacity:1;fill-rule:nonzero;stroke:#000000;stroke-width:0.1;stroke-dasharray:none;stroke-opacity:1;paint-order:fill markers stroke"
       id="ellipse37542"
       cx="-93.767143"
       cy="40.183392"
       rx="0.77785712"
       ry="1.3966072" /><ellipse
       style="opacity:0.99;fill:#000000;fill-opacity:1;fill-rule:nonzero;stroke:#000000;stroke-width:0.0792771;stroke-dasharray:none;stroke-opacity:1;paint-order:fill markers stroke"
       id="ellipse37544"
       cx="-88.857292"
       cy="40.094173"
       rx="0.56723642"
       ry="1.203665" /><ellipse
       style="opacity:0.99;fill:#ffffff;fill-opacity:1;fill-rule:nonzero;stroke:none;stroke-width:0.1;stroke-dasharray:none;stroke-opacity:1;paint-order:fill markers stroke"
       id="ellipse37546"
       cx="-93.722946"
       cy="39.723751"
       rx="0.53919643"
       ry="0.68946427" /><ellipse
       style="opacity:0.99;fill:#ffffff;fill-opacity:1;fill-rule:nonzero;stroke:none;stroke-width:0.0775845;stroke-dasharray:none;stroke-opacity:1;paint-order:fill markers stroke"
       id="ellipse37548"
       cx="-88.870186"
       cy="39.564632"
       rx="0.40013629"
       ry="0.55924344" /><path
       style="opacity:0.99;fill:#000000;fill-opacity:1;fill-rule:nonzero;stroke:#000000;stroke-width:0.1;stroke-dasharray:none;stroke-opacity:1;paint-order:fill markers stroke"
       d="m -95.941607,36.647673 c 0.335891,-0.28286 0.848572,-0.76018 1.11375,-0.7425 0.265179,0.0177 0.636429,0.053 0.919285,0.0884 0.282858,0.0354 0.689464,0.30054 0.830894,0.38893 0.141428,0.0884 0.371251,0.53036 0.548035,0.65411 0.176786,0.12375 0.335893,0.51268 0.37125,0.54804 0.03536,0.0354 0.159107,0.22982 0.141427,0.26517 -0.01767,0.0354 -0.318214,-0.22098 -0.459642,-0.25634 -0.141427,-0.0353 -0.609909,-0.30937 -0.715981,-0.41544 -0.106071,-0.10607 -0.07071,-0.22982 -0.291698,-0.32705 -0.220982,-0.0972 -0.822052,-0.18563 -0.892767,-0.20331 -0.07071,-0.0177 -0.353571,-0.0177 -0.574553,-0.0177 -0.220983,0 -0.742501,0.0354 -0.804376,0.053 -0.06187,0.0177 -0.247499,0.053 -0.247499,0.053 z"
       id="path37550" /><path
       style="opacity:0.99;fill:#000000;fill-opacity:1;fill-rule:nonzero;stroke:#000000;stroke-width:0.1;stroke-dasharray:none;stroke-opacity:1;paint-order:fill markers stroke"
       d="m -89.488927,38.008923 c 0.03536,-0.0884 0.194463,-0.53036 0.406606,-0.65411 0.212143,-0.12375 0.583393,-0.37125 0.671785,-0.4066 0.08839,-0.0354 0.282858,0 0.441965,0.0707 0.159107,0.0707 0.318215,0.12375 0.265179,0.21214 -0.05304,0.0884 -0.159107,0.0884 -0.406609,0.14143 -0.247499,0.053 -0.494999,0.14143 -0.583393,0.26518 -0.08839,0.12375 -0.335891,0.2475 -0.441963,0.40661 -0.106071,0.1591 -0.318214,0.2475 -0.318214,0.17678 0,-0.0707 -0.03536,-0.21214 -0.03536,-0.21214 z"
       id="path37552" /><path
       style="opacity:0.99;fill:none;fill-opacity:1;fill-rule:nonzero;stroke:#000000;stroke-width:0.1;stroke-dasharray:none;stroke-opacity:1;paint-order:fill markers stroke"
       d="m -90.350461,41.306383 c -0.01249,0.075 -0.025,0.27501 -0.01249,0.36252 0.01249,0.0875 0.08751,0.21251 0.237513,0.23751 0.150009,0.025 0.262512,0.075 0.350018,0.12501 0.08751,0.05 0.337518,0.25001 0.350017,0.36252 0.01252,0.1125 -0.075,0.38752 -0.112506,0.46252 -0.0375,0.075 0.0375,0.23751 -0.112504,0.23751 -0.150008,0 -0.387522,-0.0625 -0.462526,-0.0625 -0.075,0 -0.362516,-0.0375 -0.362516,-0.0375 l 0.137507,-0.0125 0.21251,0.0625"
       id="path37554" /><path
       style="opacity:0.99;fill:none;fill-opacity:1;fill-rule:nonzero;stroke:#000000;stroke-width:0.1;stroke-dasharray:none;stroke-opacity:1;paint-order:fill markers stroke"
       d="m -91.31301,44.844063 c -0.075,0.025 -1.100055,0.15001 -1.36257,0.075 -0.262514,-0.075 -0.800039,-0.33752 -0.862544,-0.42503 -0.0625,-0.0875 -0.437523,-0.28751 -0.500025,-0.41252 -0.0625,-0.125 -0.075,-0.37502 -0.075,-0.37502 0,0 -0.237512,0.31252 -0.287515,0.33752 -0.05,0.025 -0.175009,0.025 -0.175009,0.025"
       id="path37556" /><path
       style="opacity:0.99;fill:#fde0a4;fill-opacity:0.992157;fill-rule:nonzero;stroke:none;stroke-width:0.1;stroke-dasharray:none;stroke-opacity:1;paint-order:fill markers stroke"
       d="m -103.37613,48.944273 1.9001,2.0251 c 0,0 -0.97505,0.52503 -1.02505,0.62503 -0.05,0.10001 -0.075,1.12506 -0.025,1.25007 0.05,0.12501 0.30001,1.02505 0.42502,1.25006 0.12501,0.22501 0.40002,0.92505 0.40002,0.92505 0,0 -0.05,-0.37502 0.37502,-0.22501 0.42502,0.15001 0.47502,0.075 0.52503,0.17501 0.05,0.1 0.62503,0.70003 0.62503,0.70003 l 0.275012,0.85005 c 0,0 0.250013,0.27501 0.025,0.42502 -0.225012,0.15001 -0.275012,0.35002 -0.350022,0.22501 -0.075,-0.12501 -0.2,-0.57503 -0.2,-0.57503 l 0.22501,0.87505 0.275011,0.40002 c 0,0 0.150008,0.42502 -0.250011,0.55003 -0.40002,0.125 -0.77504,-0.05 -0.77504,-0.05 0,0 -0.075,0 -0.35002,0.20001 -0.27501,0.20001 -0.50003,0.52503 -0.67503,0.35002 -0.17501,-0.17501 -0.37502,-0.25001 -0.52503,-0.27502 -0.15001,-0.025 -0.35002,0.15001 -0.52503,0.15001 -0.17501,0 -0.50002,0.15001 -0.65003,-0.20001 -0.15001,-0.35002 -0.20001,-0.47502 -0.35002,-0.82504 -0.15001,-0.35002 -0.22501,-0.32502 -0.20001,-0.70004 0.025,-0.37501 0.12501,-0.67503 0.20001,-0.87504 0.075,-0.20001 0.10001,-0.25001 0.12501,-0.50002 0.025,-0.25002 -0.52503,-0.50003 -0.62504,-0.97505 -0.1,-0.47503 -0.25001,-0.77504 -0.40001,-1.12506 -0.15001,-0.35002 -0.30002,-0.55003 -0.32502,-0.97505 -0.025,-0.42502 -0.12501,-0.67504 0.025,-1.22506 0.15001,-0.55003 0.05,-0.45003 0.45002,-1.00006 0.40002,-0.55002 0.57503,-0.72503 0.80004,-0.90004 0.22502,-0.17501 0.60003,-0.55003 0.60003,-0.55003 z"
       id="path37558" /><path
       style="opacity:0.99;fill:#fde0a4;fill-opacity:0.992157;fill-rule:nonzero;stroke:none;stroke-width:0.1;stroke-dasharray:none;stroke-opacity:1;paint-order:fill markers stroke"
       d="m -95.875741,54.294543 c 0,0.10001 -0.175012,0.15001 -0.300017,0.52503 -0.125008,0.37502 -0.100004,0.55003 -0.125008,0.72504 -0.025,0.17501 -0.350017,0.72504 -0.350017,0.72504 0,0 -0.700035,0.37501 -0.275014,0.67503 0.425024,0.30001 0.625031,0.50002 0.750039,0.50002 0.125005,0 0.350017,-0.1 0.525026,-0.32501 0.175009,-0.22501 0.375021,-0.40002 0.525029,-0.72504 0.150005,-0.32502 0.375017,-0.92505 0.375017,-0.92505 0,0 -0.05,0.45003 0.175009,0.62504 0.225012,0.17501 0,0.27501 0.450025,0.15 0.450021,-0.125 0.800039,-0.67503 0.825042,-0.80004 0.025,-0.125 0.225009,-0.47502 0.225009,-0.72503 0,-0.25002 -0.150005,-0.50003 -0.375017,-0.62504 -0.225013,-0.125 -0.750038,-0.1 -1.000051,-0.075 -0.250013,0.025 -1.225063,0.10001 -1.225063,0.10001 z"
       id="path37560"
       sodipodi:nodetypes="csscsssscsssssscc" /><path
       style="opacity:0.99;fill:#fde0a4;fill-opacity:0.992157;fill-rule:nonzero;stroke:none;stroke-width:0.1;stroke-dasharray:none;stroke-opacity:1;paint-order:fill markers stroke"
       d="m -95.725736,57.219693 c 0,0 -0.150005,0.42502 -0.150005,0.57503 0,0.15001 0.375017,0.42502 0.62503,0.52503 0.250013,0.10001 0.825042,0.20001 1.100055,0.025 0.275016,-0.17501 0.475025,-0.55003 0.55003,-0.67503 0.075,-0.12501 0.100004,-0.17501 0.225012,-0.17501 0.125005,0 0.425021,-0.27502 0.425021,-0.42503 0,-0.15 0,-0.27501 0,-0.40002 0,-0.125 0.300014,-0.35001 0.300014,-0.35001 0,0 0.150008,-0.22501 0.150008,-0.50003 0,-0.27501 0.250013,-0.45002 -0.075,-0.50002 -0.325017,-0.05 -0.625031,-0.30002 -0.625031,-0.30002 0,0 -1.800092,-0.075 -1.975101,0.10001 -0.175009,0.175 -0.550029,2.1001 -0.550029,2.1001 z"
       id="path37562" /></g></svg>
