<?xml version="1.0" encoding="UTF-8" standalone="no"?>
<!-- Created with Inkscape (http://www.inkscape.org/) -->

<svg
   width="50"
   height="70"
   viewBox="0 0 13.229166 18.520833"
   version="1.1"
   id="svg18473"
   xml:space="preserve"
   inkscape:version="1.2.2 (732a01da63, 2022-12-09)"
   sodipodi:docname="templar_move_3.svg"
   xmlns:inkscape="http://www.inkscape.org/namespaces/inkscape"
   xmlns:sodipodi="http://sodipodi.sourceforge.net/DTD/sodipodi-0.dtd"
   xmlns="http://www.w3.org/2000/svg"
   xmlns:svg="http://www.w3.org/2000/svg"><sodipodi:namedview
     id="namedview18475"
     pagecolor="#ffffff"
     bordercolor="#000000"
     borderopacity="0.25"
     inkscape:showpageshadow="2"
     inkscape:pageopacity="0.0"
     inkscape:pagecheckerboard="0"
     inkscape:deskcolor="#d1d1d1"
     inkscape:document-units="mm"
     showgrid="true"
     inkscape:zoom="7.483165"
     inkscape:cx="10.690664"
     inkscape:cy="31.136558"
     inkscape:window-width="1366"
     inkscape:window-height="705"
     inkscape:window-x="-8"
     inkscape:window-y="-8"
     inkscape:window-maximized="1"
     inkscape:current-layer="g65555"><inkscape:grid
       type="xygrid"
       id="grid36773"
       originx="0"
       originy="0" /></sodipodi:namedview><defs
     id="defs18470" /><g
     inkscape:label="Capa 1"
     inkscape:groupmode="layer"
     id="layer1"><path
       style="opacity:0.99;fill:#fde0a4;fill-opacity:1;fill-rule:nonzero;stroke:none;stroke-width:0.1;stroke-dasharray:none;stroke-opacity:1;paint-order:fill markers stroke"
       d="m -101.026,40.768853 c 0,0 0.71779,-3.53779 0.541,-3.64386 -0.17679,-0.10607 1.025358,-0.17678 1.308214,-0.56571 0.282858,-0.38893 0.707144,-0.81322 0.813215,-1.27286 0.106072,-0.45964 0.212143,-1.09607 0.212143,-1.44964 0,-0.35358 -0.106071,-1.30822 -0.106071,-1.30822 v -0.14143 c 0,0 4.348927,0.21215 6.611783,1.41429 2.262857,1.20214 2.368929,1.27286 2.368929,1.27286 0,0 0.990002,-0.77786 1.060714,-0.91929 0.07072,-0.14143 0.459645,-0.35357 0.459645,-0.35357 l 0.459642,0.99 c 0,0 0.141428,4.31357 -0.03536,4.98536 -0.176787,0.67178 -0.106071,0.31821 -0.14143,0.495 -0.03536,0.17678 -0.141428,1.20214 -0.141428,1.52035 0,0.31822 0.07071,1.13143 0.03536,1.44965 -0.03536,0.31821 -0.565713,1.87393 -0.565713,1.87393 0,0 -1.025359,0.99 -1.272858,1.09607 -0.247499,0.10607 -1.485,0.63643 -1.661784,0.70714 -0.176787,0.0707 -0.707144,0.14143 -0.883931,0.14143 -0.176784,0 -1.308214,0 -1.661784,0 -0.353571,0 -1.308214,-0.14143 -1.626428,-0.21214 -0.318215,-0.0707 -1.096071,-0.2475 -1.555716,-0.31822 -0.459642,-0.0707 -1.272857,-0.38893 -1.626428,-0.56571 -0.353571,-0.17679 -1.025356,-0.45965 -1.166786,-0.53036 -0.141428,-0.0707 -0.777858,-0.67178 -0.989998,-0.77786 -0.21214,-0.10607 -0.70715,-0.495 -0.81322,-0.63642 -0.10607,-0.14143 -0.495,-0.49501 -0.495,-0.49501 v -0.45964 c 0,0 -0.45964,0.495 -0.99,0.21215 -0.53035,-0.28286 -1.30821,-0.35358 -1.59107,-0.70715 -0.28286,-0.35357 -0.60107,-1.13143 -0.60107,-1.27286 0,-0.14142 -0.0354,-0.42428 0,-0.70714 0.0354,-0.28286 0.14143,-0.7425 0.14143,-0.7425 0,0 0.21214,-0.35357 0.63643,-0.60107 0.42428,-0.2475 0.56571,-0.38893 0.77786,-0.42429 0.21214,-0.0354 0.84857,0.0354 0.84857,0.0354 0,0 0.495,0.17679 0.60107,0.35357 0.10607,0.17679 0.31821,0.45965 0.42428,0.60107 0.10607,0.14143 0.35357,0.45965 0.42429,0.60108 0.0707,0.14142 0.2015,0.35564 0.2015,0.35564 z"
       id="path32083" /><path
       style="opacity:0.99;fill:#ff6600;fill-opacity:1;fill-rule:nonzero;stroke:none;stroke-width:0.1;stroke-dasharray:none;stroke-opacity:1;paint-order:fill markers stroke"
       d="m -103.77615,32.368433 c 0,0 -3.65018,1.85009 -2.70013,4.85024 0.95004,3.00015 1.40007,3.15016 1.40007,3.15016 l 0.15001,-0.05 c 0,0 0.55002,-1.00005 0.80004,-1.10006 0.25001,-0.1 0.60003,-0.30001 0.90004,-0.25001 0.30002,0.05 1.20006,0.35002 1.30007,0.60003 0.1,0.25002 0.50002,0.65003 0.65003,0.85005 0.15001,0.20001 0.35002,0.30001 0.35002,0.30001 0,0 0.25001,-0.90004 0.40002,-1.35007 0.15001,-0.45002 0.20001,-0.65003 0.15001,-1.05005 -0.05,-0.40002 -0.15001,-0.90005 -0.15001,-0.90005 l -0.25001,-0.65003 c 0.955262,0.71155 3.449013,0.57575 2.703689,-2.67943 -0.311283,-1.35952 0.02071,-1.47936 0.02071,-1.47936 0,0 0.375756,-0.24143 1.175798,-0.0914 0.800039,0.15001 1.80009,0.30002 2.350119,0.50003 0.550026,0.20001 1.400071,0.45002 1.800092,0.60003 0.400019,0.15001 1.450073,0.50002 1.700086,0.70003 0.250013,0.20002 0.900046,0.40002 1.150059,0.55003 0.250013,0.15001 0.800039,0.45002 0.800039,0.45002 0,0 0.425022,-0.77504 0.675035,-0.92505 0.250012,-0.15 0.525028,-0.47501 0.525028,-0.47501 l 0.300016,0.075 0.200011,0.77504 -3e-6,0.97505 c 0,0 0.600031,-0.82504 0.850044,-1.27507 0.250013,-0.45002 0.350017,-0.80004 0.60003,-1.30006 0.250013,-0.50003 0.400021,-0.90005 0.400021,-1.35007 0,-0.45003 0.250013,-1.55008 0.150008,-2.30012 -0.100005,-0.75004 -0.100005,-0.90005 -0.250013,-1.20006 -0.150008,-0.30002 -0.150008,-0.55003 -0.250012,-0.75004 -0.100005,-0.20001 -0.20001,-0.50003 -0.20001,-0.50003 0,0 0.05,0.60003 -0.150008,1.10006 -0.200012,0.50003 -0.350017,1.05005 -0.350017,1.05005 0,0 0.150005,-0.95004 -0.35002,-2.50012 -0.500025,-1.55008 -0.350017,-1.70009 -0.350017,-1.70009 v -0.30001 c 0,0 -0.100005,0.75003 -0.700035,1.15005 -0.600032,0.40002 -1.450075,1.05006 -2.000102,1.15006 -0.550029,0.10001 -2.100109,0.45003 -2.500127,0.45003 h -1.750092 c -0.200009,0 -0.700034,-0.10001 -0.700034,-0.10001 0,0 0.750038,0.15001 1.350068,-0.70004 0.60003,-0.85004 0.550029,-0.90004 0.550029,-0.90004 0,0 -0.750038,0.20001 -1.200063,0.20001 h -1.650081 c -0.300017,0 -2.200114,0.55003 -2.550131,0.65003 -0.350018,0.10001 -2.150107,0.50003 -2.550127,1.05005 -0.40003,0.55003 -1.65009,1.55008 -1.75009,1.8001 -0.10001,0.25001 -0.15001,0.35001 -0.45003,1.10005 -0.30001,0.75004 -0.25001,1.15006 -0.35002,1.45008 -0.1,0.30001 -0.25001,0.35002 -0.25001,0.35002 z"
       id="path32085"
       sodipodi:nodetypes="csccsssscssccscssssscsccccsssssscscsccsssscscssssssscc" /><path
       style="opacity:0.99;fill:#fde0a4;fill-opacity:0.992157;fill-rule:nonzero;stroke:none;stroke-width:0.108535;stroke-dasharray:none;stroke-opacity:1;paint-order:fill markers stroke"
       d="m -99.321539,45.497833 v 0.70618 c 0,0 -0.09175,0.83457 0.734045,0.96296 0.825802,0.1284 1.238702,0.321 1.238702,0.321 l 0.09175,-1.32307 c 0,0 -0.734043,-0.21768 -1.2387,-0.41027 -0.504657,-0.1926 -0.550533,-0.44939 -0.550533,-0.44939 z"
       id="path32087"
       sodipodi:nodetypes="ccsccscc" /><path
       style="opacity:0.99;fill:#48a4df;fill-opacity:1;fill-rule:nonzero;stroke:#0055d4;stroke-width:0.1;stroke-dasharray:none;stroke-opacity:1;paint-order:fill markers stroke"
       d="m -101.77604,50.669363 c -0.20001,-0.30002 -1.50008,-1.50008 -1.55008,-1.8501 -0.05,-0.35001 -0.10001,-0.2 0.60003,-0.65003 0.70003,-0.45002 1.35007,-0.80004 1.75009,-0.85004 0.40002,-0.05 1.000048,-0.10001 1.000048,-0.10001 l -1.000048,0.05 c 0,0 0.35001,-0.80003 0.80004,-1.00005 0.45002,-0.20001 0.800038,-0.45002 0.800038,-0.45002 0,0 0.300016,0.45002 0.600032,0.80004 0.300014,0.35002 0.450022,0.70004 0.950048,0.55003 0.500025,-0.15001 0.650033,-0.45002 0.650033,-0.45002 0,0 1.20006,4.40022 0.950048,6.30032 -0.250013,1.90009 0.300016,1.80009 0,1.90009 -0.300014,0.10001 -2.050103,0.05 -2.050103,0.05 0,0 -1.100058,-0.25001 -1.300067,-0.25001 H -100.926 c -0.25001,0 -0.50003,0.25001 -0.75004,0 -0.25001,-0.25002 -0.80004,-0.90005 -0.85004,-1.9501 -0.05,-1.05006 -0.05,-1.15006 0.45002,-1.55008 0.50003,-0.40002 0.70004,-0.40002 0.70004,-0.40002 0,0 0.44144,-0.11465 0.99147,-0.41467 0.550027,-0.30001 1.408649,-1.48543 1.408649,-1.48543 -0.548972,1.05529 -1.329719,1.69338 -2.350119,1.9001 z"
       id="path32089"
       sodipodi:nodetypes="csssccscsscsscssssscsccc" /><path
       style="opacity:0.99;fill:#444960;fill-opacity:1;fill-rule:nonzero;stroke:none;stroke-width:0.1;stroke-dasharray:none;stroke-opacity:1;paint-order:fill markers stroke"
       d="m -103.30112,54.894573 c 0,0 0.50002,2.67514 0.52503,2.95016 0.025,0.27501 0.1,1.90009 0.025,2.0251 -0.075,0.12501 -0.50003,0.82504 -0.57503,0.95005 -0.075,0.125 -0.90005,1.9501 -1.02505,2.0251 -0.12501,0.075 -0.72504,1.07506 -0.72504,1.07506 0,0 0.55002,0.15 0.72504,0.15 0.175,0 1.32506,-0.125 1.65008,-0.17501 0.32501,-0.05 0.70003,-0.05 0.95005,-0.05 0.25001,0 0.55002,0.45002 0.65003,0.45002 0.10001,0 0,-0.37501 0.025,-0.62503 0.025,-0.25001 -0.025,-0.35001 0.20001,-0.52503 0.22501,-0.175 0.45002,-0.15 0.60003,-0.75003 0.15001,-0.60003 0.300016,-1.37507 0.35002,-1.60009 0.05,-0.22501 0.150008,-0.70003 -0.025,-1.15005 -0.17501,-0.45003 -0.22501,-1.05006 -0.32502,-1.17506 -0.1,-0.12501 -0.35002,-2.10011 -0.60003,-2.45013 -0.25001,-0.35002 -0.97505,-1.37507 -0.97505,-1.37507 z"
       id="path32091" /><path
       style="opacity:0.99;fill:#23283b;fill-opacity:1;fill-rule:nonzero;stroke:none;stroke-width:0.1;stroke-dasharray:none;stroke-opacity:1;paint-order:fill markers stroke"
       d="m -98.650885,57.394703 c 0,0 0.850043,1.55008 0.975051,1.62509 0.125005,0.075 0.60003,1.07505 0.60003,1.07505 0,0 0.05,0.85004 -0.05,1.37507 -0.100007,0.52503 -0.300016,1.52508 -0.300016,1.77509 0,0.25001 -0.250013,0.67504 -0.150009,0.67504 0.100005,0 1.000051,0.075 1.600081,0.075 0.600033,0 0.625033,0.15 1.475076,0.025 0.850043,-0.12501 1.100056,-0.1 1.250064,-0.15001 0.150008,-0.05 -0.05,0 -0.175009,-0.40002 -0.125005,-0.40001 -0.05,-0.075 -0.200009,-0.67503 -0.150008,-0.60003 -0.325017,-1.07506 -0.300016,-1.57508 0.025,-0.50003 -0.400021,-2.0251 -0.750038,-2.22512 -0.350018,-0.2 -0.500026,-0.62503 -0.700035,-0.77503 -0.200012,-0.15001 -1.475076,-1.42508 -1.475076,-1.42508 l -0.750038,-0.125 c 0,0 -0.650034,0.52502 -0.750038,0.57503 -0.100005,0.05 -0.300017,0.15 -0.300018,0.15 z"
       id="path32093" /><path
       style="opacity:0.99;fill:#474e61;fill-opacity:1;fill-rule:nonzero;stroke:none;stroke-width:0.1;stroke-dasharray:none;stroke-opacity:1;paint-order:fill markers stroke"
       d="m -102.32607,54.444553 6.175313,0.42502 c 0,0 0.450024,0.65004 0.100004,1.05006 -0.350017,0.40002 -0.700034,0.80004 -0.950047,1.00005 -0.250013,0.20001 -0.725038,0.55003 -1.025051,0.60003 -0.300017,0.05 -0.625034,0.125 -1.025054,0.075 -0.400019,-0.05 -0.900044,0.025 -1.275065,-0.1 -0.37502,-0.12501 -0.82504,-0.075 -1.00005,-0.60003 -0.17501,-0.52503 -0.32502,-1.35007 -0.45002,-1.52508 -0.12501,-0.17501 -0.67504,-0.95005 -0.67504,-0.95005 z"
       id="path32095" /><path
       style="opacity:0.99;fill:#47a3e3;fill-opacity:1;fill-rule:nonzero;stroke:#0055d4;stroke-width:0.1;stroke-dasharray:none;stroke-opacity:1;paint-order:fill markers stroke"
       d="m -105.05121,63.995043 c 0,0 3.00015,-0.20001 3.27517,-0.075 0.27501,0.125 1.15005,0.60003 1.25006,0.82504 0.10001,0.22501 0.35002,0.75004 0.47502,0.87504 0.125011,0.12501 -0.55002,0.25001 -0.72503,0.20001 -0.17501,-0.05 -0.90005,-0.05 -1.35007,-0.05 -0.45002,0 -1.07506,-0.05 -1.8251,-0.075 -0.75003,-0.025 -1.17506,-0.025 -1.37506,-0.025 -0.20002,0 -0.70004,0.12501 -0.60003,0 0.1,-0.12501 0.25001,-0.97505 0.45002,-1.40007 0.20001,-0.42502 0.42502,-0.27501 0.42502,-0.27501 z"
       id="path32097" /><path
       style="opacity:0.99;fill:#e3dedb;fill-opacity:1;fill-rule:nonzero;stroke:none;stroke-width:0.1;stroke-dasharray:none;stroke-opacity:1;paint-order:fill markers stroke"
       d="m -105.87625,65.745133 c -0.12501,-0.025 -0.27502,0.27501 -0.27502,0.27501 0,0 0.05,0.40002 0.20001,0.45002 0.15001,0.05 0.17501,0.05 0.87505,0.12501 0.70003,0.075 1.30006,0.10001 1.82509,0.10001 0.52503,0 1.80009,-0.075 2.0501,-0.10001 0.25002,-0.025 0.85005,-0.05 1.07506,-0.15001 0.225012,-0.1 0.40002,-0.17501 0.40002,-0.35001 0,-0.17501 -0.125005,-0.45003 -0.250012,-0.45003 -0.125008,0 -5.900298,0.10001 -5.900298,0.10001 z"
       id="path32099" /><path
       style="opacity:0.99;fill:#47a3e3;fill-opacity:1;fill-rule:nonzero;stroke:#0055d4;stroke-width:0.1;stroke-dasharray:none;stroke-opacity:1;paint-order:fill markers stroke"
       d="m -97.166568,63.712183 c 0,0 3.000153,-0.20001 3.275169,-0.075 0.275013,0.125 1.150056,0.60003 1.250063,0.82504 0.100005,0.22501 0.350018,0.75004 0.475023,0.87504 0.125007,0.12501 -0.550027,0.25001 -0.725035,0.20001 -0.175012,-0.05 -0.900047,-0.05 -1.350071,-0.05 -0.450022,0 -1.075055,-0.05 -1.825093,-0.075 -0.750039,-0.025 -1.17506,-0.025 -1.375069,-0.025 -0.200012,0 -0.700037,0.12501 -0.60003,0 0.100004,-0.12501 0.250013,-0.97505 0.450022,-1.40007 0.200009,-0.42502 0.425021,-0.27501 0.425021,-0.27501 z"
       id="path32101" /><path
       style="opacity:0.99;fill:#e3dedb;fill-opacity:1;fill-rule:nonzero;stroke:none;stroke-width:0.1;stroke-dasharray:none;stroke-opacity:1;paint-order:fill markers stroke"
       d="m -97.99161,65.462273 c -0.125005,-0.025 -0.275013,0.27501 -0.275013,0.27501 0,0 0.05,0.40002 0.200009,0.45002 0.150008,0.05 0.175008,0.05 0.875046,0.12501 0.700034,0.075 1.300064,0.10001 1.825093,0.10001 0.525026,0 1.80009,-0.075 2.050103,-0.10001 0.250012,-0.025 0.850045,-0.05 1.075055,-0.15001 0.225012,-0.1 0.40002,-0.17501 0.40002,-0.35001 0,-0.17501 -0.125005,-0.45003 -0.250012,-0.45003 -0.125005,0 -5.900301,0.10001 -5.900301,0.10001 z"
       id="path32103" /><ellipse
       style="opacity:0.99;fill:#000000;fill-opacity:1;fill-rule:nonzero;stroke:#000000;stroke-width:0.1;stroke-dasharray:none;stroke-opacity:1;paint-order:fill markers stroke"
       id="ellipse32105"
       cx="-93.767143"
       cy="40.183392"
       rx="0.77785712"
       ry="1.3966072" /><ellipse
       style="opacity:0.99;fill:#000000;fill-opacity:1;fill-rule:nonzero;stroke:#000000;stroke-width:0.0792771;stroke-dasharray:none;stroke-opacity:1;paint-order:fill markers stroke"
       id="ellipse32107"
       cx="-88.857292"
       cy="40.094173"
       rx="0.56723642"
       ry="1.203665" /><ellipse
       style="opacity:0.99;fill:#ffffff;fill-opacity:1;fill-rule:nonzero;stroke:none;stroke-width:0.1;stroke-dasharray:none;stroke-opacity:1;paint-order:fill markers stroke"
       id="ellipse32109"
       cx="-93.722946"
       cy="39.723751"
       rx="0.53919643"
       ry="0.68946427" /><ellipse
       style="opacity:0.99;fill:#ffffff;fill-opacity:1;fill-rule:nonzero;stroke:none;stroke-width:0.0775845;stroke-dasharray:none;stroke-opacity:1;paint-order:fill markers stroke"
       id="ellipse32111"
       cx="-88.870186"
       cy="39.564632"
       rx="0.40013629"
       ry="0.55924344" /><path
       style="opacity:0.99;fill:#000000;fill-opacity:1;fill-rule:nonzero;stroke:#000000;stroke-width:0.1;stroke-dasharray:none;stroke-opacity:1;paint-order:fill markers stroke"
       d="m -95.941607,36.647673 c 0.335891,-0.28286 0.848572,-0.76018 1.11375,-0.7425 0.265179,0.0177 0.636429,0.053 0.919285,0.0884 0.282858,0.0354 0.689464,0.30054 0.830894,0.38893 0.141428,0.0884 0.371251,0.53036 0.548035,0.65411 0.176786,0.12375 0.335893,0.51268 0.37125,0.54804 0.03536,0.0354 0.159107,0.22982 0.141427,0.26517 -0.01767,0.0354 -0.318214,-0.22098 -0.459642,-0.25634 -0.141427,-0.0353 -0.609909,-0.30937 -0.715981,-0.41544 -0.106071,-0.10607 -0.07071,-0.22982 -0.291698,-0.32705 -0.220982,-0.0972 -0.822052,-0.18563 -0.892767,-0.20331 -0.07071,-0.0177 -0.353571,-0.0177 -0.574553,-0.0177 -0.220983,0 -0.742501,0.0354 -0.804376,0.053 -0.06187,0.0177 -0.247499,0.053 -0.247499,0.053 z"
       id="path32113" /><path
       style="opacity:0.99;fill:#000000;fill-opacity:1;fill-rule:nonzero;stroke:#000000;stroke-width:0.1;stroke-dasharray:none;stroke-opacity:1;paint-order:fill markers stroke"
       d="m -89.488927,38.008923 c 0.03536,-0.0884 0.194463,-0.53036 0.406606,-0.65411 0.212143,-0.12375 0.583393,-0.37125 0.671785,-0.4066 0.08839,-0.0354 0.282858,0 0.441965,0.0707 0.159107,0.0707 0.318215,0.12375 0.265179,0.21214 -0.05304,0.0884 -0.159107,0.0884 -0.406609,0.14143 -0.247499,0.053 -0.494999,0.14143 -0.583393,0.26518 -0.08839,0.12375 -0.335891,0.2475 -0.441963,0.40661 -0.106071,0.1591 -0.318214,0.2475 -0.318214,0.17678 0,-0.0707 -0.03536,-0.21214 -0.03536,-0.21214 z"
       id="path32115" /><path
       style="opacity:0.99;fill:none;fill-opacity:1;fill-rule:nonzero;stroke:#000000;stroke-width:0.1;stroke-dasharray:none;stroke-opacity:1;paint-order:fill markers stroke"
       d="m -90.350461,41.306383 c -0.01249,0.075 -0.025,0.27501 -0.01249,0.36252 0.01249,0.0875 0.08751,0.21251 0.237513,0.23751 0.150009,0.025 0.262512,0.075 0.350018,0.12501 0.08751,0.05 0.337518,0.25001 0.350017,0.36252 0.01252,0.1125 -0.075,0.38752 -0.112506,0.46252 -0.0375,0.075 0.0375,0.23751 -0.112504,0.23751 -0.150008,0 -0.387522,-0.0625 -0.462526,-0.0625 -0.075,0 -0.362516,-0.0375 -0.362516,-0.0375 l 0.137507,-0.0125 0.21251,0.0625"
       id="path32117" /><path
       style="opacity:0.99;fill:none;fill-opacity:1;fill-rule:nonzero;stroke:#000000;stroke-width:0.1;stroke-dasharray:none;stroke-opacity:1;paint-order:fill markers stroke"
       d="m -91.31301,44.844063 c -0.075,0.025 -1.100055,0.15001 -1.36257,0.075 -0.262514,-0.075 -0.800039,-0.33752 -0.862544,-0.42503 -0.0625,-0.0875 -0.437523,-0.28751 -0.500025,-0.41252 -0.0625,-0.125 -0.075,-0.37502 -0.075,-0.37502 0,0 -0.237512,0.31252 -0.287515,0.33752 -0.05,0.025 -0.175009,0.025 -0.175009,0.025"
       id="path32119" /><path
       style="opacity:0.99;fill:#fde0a4;fill-opacity:0.992157;fill-rule:nonzero;stroke:none;stroke-width:0.1;stroke-dasharray:none;stroke-opacity:1;paint-order:fill markers stroke"
       d="m -103.37613,48.944273 1.9001,2.0251 c 0,0 -0.97505,0.52503 -1.02505,0.62503 -0.05,0.10001 -0.075,1.12506 -0.025,1.25007 0.05,0.12501 0.30001,1.02505 0.42502,1.25006 0.12501,0.22501 0.40002,0.92505 0.40002,0.92505 0,0 -0.05,-0.37502 0.37502,-0.22501 0.42502,0.15001 0.47502,0.075 0.52503,0.17501 0.05,0.1 0.62503,0.70003 0.62503,0.70003 l 0.275012,0.85005 c 0,0 0.250013,0.27501 0.025,0.42502 -0.225012,0.15001 -0.275012,0.35002 -0.350022,0.22501 -0.075,-0.12501 -0.2,-0.57503 -0.2,-0.57503 l 0.22501,0.87505 0.275011,0.40002 c 0,0 0.150008,0.42502 -0.250011,0.55003 -0.40002,0.125 -0.77504,-0.05 -0.77504,-0.05 0,0 -0.075,0 -0.35002,0.20001 -0.27501,0.20001 -0.50003,0.52503 -0.67503,0.35002 -0.17501,-0.17501 -0.37502,-0.25001 -0.52503,-0.27502 -0.15001,-0.025 -0.35002,0.15001 -0.52503,0.15001 -0.17501,0 -0.50002,0.15001 -0.65003,-0.20001 -0.15001,-0.35002 -0.20001,-0.47502 -0.35002,-0.82504 -0.15001,-0.35002 -0.22501,-0.32502 -0.20001,-0.70004 0.025,-0.37501 0.12501,-0.67503 0.20001,-0.87504 0.075,-0.20001 0.10001,-0.25001 0.12501,-0.50002 0.025,-0.25002 -0.52503,-0.50003 -0.62504,-0.97505 -0.1,-0.47503 -0.25001,-0.77504 -0.40001,-1.12506 -0.15001,-0.35002 -0.30002,-0.55003 -0.32502,-0.97505 -0.025,-0.42502 -0.12501,-0.67504 0.025,-1.22506 0.15001,-0.55003 0.05,-0.45003 0.45002,-1.00006 0.40002,-0.55002 0.57503,-0.72503 0.80004,-0.90004 0.22502,-0.17501 0.60003,-0.55003 0.60003,-0.55003 z"
       id="path32121" /><path
       style="opacity:0.99;fill:#fde0a4;fill-opacity:0.992157;fill-rule:nonzero;stroke:none;stroke-width:0.1;stroke-dasharray:none;stroke-opacity:1;paint-order:fill markers stroke"
       d="m -95.875741,54.294543 c 0,0.10001 -0.175012,0.15001 -0.300017,0.52503 -0.125008,0.37502 -0.100004,0.55003 -0.125008,0.72504 -0.025,0.17501 -0.350017,0.72504 -0.350017,0.72504 0,0 -0.700035,0.37501 -0.275014,0.67503 0.425024,0.30001 0.625031,0.50002 0.750039,0.50002 0.125005,0 0.350017,-0.1 0.525026,-0.32501 0.175009,-0.22501 0.375021,-0.40002 0.525029,-0.72504 0.150005,-0.32502 0.375017,-0.92505 0.375017,-0.92505 0,0 -0.05,0.45003 0.175009,0.62504 0.225012,0.17501 0,0.27501 0.450025,0.15 0.450021,-0.125 0.800039,-0.67503 0.825042,-0.80004 0.025,-0.125 0.225009,-0.47502 0.225009,-0.72503 0,-0.25002 -0.150005,-0.50003 -0.375017,-0.62504 -0.225013,-0.125 -0.750038,-0.1 -1.000051,-0.075 -0.250013,0.025 -1.225063,0.10001 -1.225063,0.10001 z"
       id="path32123"
       sodipodi:nodetypes="csscsssscsssssscc" /><path
       style="opacity:0.99;fill:#fde0a4;fill-opacity:0.992157;fill-rule:nonzero;stroke:none;stroke-width:0.1;stroke-dasharray:none;stroke-opacity:1;paint-order:fill markers stroke"
       d="m -95.725736,57.219693 c 0,0 -0.150005,0.42502 -0.150005,0.57503 0,0.15001 0.375017,0.42502 0.62503,0.52503 0.250013,0.10001 0.825042,0.20001 1.100055,0.025 0.275016,-0.17501 0.475025,-0.55003 0.55003,-0.67503 0.075,-0.12501 0.100004,-0.17501 0.225012,-0.17501 0.125005,0 0.425021,-0.27502 0.425021,-0.42503 0,-0.15 0,-0.27501 0,-0.40002 0,-0.125 0.300014,-0.35001 0.300014,-0.35001 0,0 0.150008,-0.22501 0.150008,-0.50003 0,-0.27501 0.250013,-0.45002 -0.075,-0.50002 -0.325017,-0.05 -0.625031,-0.30002 -0.625031,-0.30002 0,0 -1.800092,-0.075 -1.975101,0.10001 -0.175009,0.175 -0.550029,2.1001 -0.550029,2.1001 z"
       id="path32125" /><path
       style="opacity:0.99;fill:#fde0a4;fill-opacity:1;fill-rule:nonzero;stroke:none;stroke-width:0.1;stroke-dasharray:none;stroke-opacity:1;paint-order:fill markers stroke"
       d="m -101.026,40.768853 c 0,0 0.71779,-3.53779 0.541,-3.64386 -0.17679,-0.10607 1.025358,-0.17678 1.308214,-0.56571 0.282858,-0.38893 0.707144,-0.81322 0.813215,-1.27286 0.106072,-0.45964 0.212143,-1.09607 0.212143,-1.44964 0,-0.35358 -0.106071,-1.30822 -0.106071,-1.30822 v -0.14143 c 0,0 4.348927,0.21215 6.611783,1.41429 2.262857,1.20214 2.368929,1.27286 2.368929,1.27286 0,0 0.990002,-0.77786 1.060714,-0.91929 0.07072,-0.14143 0.459645,-0.35357 0.459645,-0.35357 l 0.459642,0.99 c 0,0 0.141428,4.31357 -0.03536,4.98536 -0.176787,0.67178 -0.106071,0.31821 -0.14143,0.495 -0.03536,0.17678 -0.141428,1.20214 -0.141428,1.52035 0,0.31822 0.07071,1.13143 0.03536,1.44965 -0.03536,0.31821 -0.565713,1.87393 -0.565713,1.87393 0,0 -1.025359,0.99 -1.272858,1.09607 -0.247499,0.10607 -1.485,0.63643 -1.661784,0.70714 -0.176787,0.0707 -0.707144,0.14143 -0.883931,0.14143 -0.176784,0 -1.308214,0 -1.661784,0 -0.353571,0 -1.308214,-0.14143 -1.626428,-0.21214 -0.318215,-0.0707 -1.096071,-0.2475 -1.555716,-0.31822 -0.459642,-0.0707 -1.272857,-0.38893 -1.626428,-0.56571 -0.353571,-0.17679 -1.025356,-0.45965 -1.166786,-0.53036 -0.141428,-0.0707 -0.777858,-0.67178 -0.989998,-0.77786 -0.21214,-0.10607 -0.70715,-0.495 -0.81322,-0.63642 -0.10607,-0.14143 -0.495,-0.49501 -0.495,-0.49501 v -0.45964 c 0,0 -0.45964,0.495 -0.99,0.21215 -0.53035,-0.28286 -1.30821,-0.35358 -1.59107,-0.70715 -0.28286,-0.35357 -0.60107,-1.13143 -0.60107,-1.27286 0,-0.14142 -0.0354,-0.42428 0,-0.70714 0.0354,-0.28286 0.14143,-0.7425 0.14143,-0.7425 0,0 0.21214,-0.35357 0.63643,-0.60107 0.42428,-0.2475 0.56571,-0.38893 0.77786,-0.42429 0.21214,-0.0354 0.84857,0.0354 0.84857,0.0354 0,0 0.495,0.17679 0.60107,0.35357 0.10607,0.17679 0.31821,0.45965 0.42428,0.60107 0.10607,0.14143 0.35357,0.45965 0.42429,0.60108 0.0707,0.14142 0.2015,0.35564 0.2015,0.35564 z"
       id="path37522" /><path
       style="opacity:0.99;fill:#ff6600;fill-opacity:1;fill-rule:nonzero;stroke:none;stroke-width:0.1;stroke-dasharray:none;stroke-opacity:1;paint-order:fill markers stroke"
       d="m -103.77615,32.368433 c 0,0 -3.65018,1.85009 -2.70013,4.85024 0.95004,3.00015 1.40007,3.15016 1.40007,3.15016 l 0.15001,-0.05 c 0,0 0.55002,-1.00005 0.80004,-1.10006 0.25001,-0.1 0.60003,-0.30001 0.90004,-0.25001 0.30002,0.05 1.20006,0.35002 1.30007,0.60003 0.1,0.25002 0.50002,0.65003 0.65003,0.85005 0.15001,0.20001 0.35002,0.30001 0.35002,0.30001 0,0 0.25001,-0.90004 0.40002,-1.35007 0.15001,-0.45002 0.20001,-0.65003 0.15001,-1.05005 -0.05,-0.40002 -0.15001,-0.90005 -0.15001,-0.90005 l -0.25001,-0.65003 c 0.955262,0.71155 3.449013,0.57575 2.703689,-2.67943 -0.311283,-1.35952 0.02071,-1.47936 0.02071,-1.47936 0,0 0.375756,-0.24143 1.175798,-0.0914 0.800039,0.15001 1.80009,0.30002 2.350119,0.50003 0.550026,0.20001 1.400071,0.45002 1.800092,0.60003 0.400019,0.15001 1.450073,0.50002 1.700086,0.70003 0.250013,0.20002 0.900046,0.40002 1.150059,0.55003 0.250013,0.15001 0.800039,0.45002 0.800039,0.45002 0,0 0.425022,-0.77504 0.675035,-0.92505 0.250012,-0.15 0.525028,-0.47501 0.525028,-0.47501 l 0.300016,0.075 0.200011,0.77504 -3e-6,0.97505 c 0,0 0.600031,-0.82504 0.850044,-1.27507 0.250013,-0.45002 0.350017,-0.80004 0.60003,-1.30006 0.250013,-0.50003 0.400021,-0.90005 0.400021,-1.35007 0,-0.45003 0.250013,-1.55008 0.150008,-2.30012 -0.100005,-0.75004 -0.100005,-0.90005 -0.250013,-1.20006 -0.150008,-0.30002 -0.150008,-0.55003 -0.250012,-0.75004 -0.100005,-0.20001 -0.20001,-0.50003 -0.20001,-0.50003 0,0 0.05,0.60003 -0.150008,1.10006 -0.200012,0.50003 -0.350017,1.05005 -0.350017,1.05005 0,0 0.150005,-0.95004 -0.35002,-2.50012 -0.500025,-1.55008 -0.350017,-1.70009 -0.350017,-1.70009 v -0.30001 c 0,0 -0.100005,0.75003 -0.700035,1.15005 -0.600032,0.40002 -1.450075,1.05006 -2.000102,1.15006 -0.550029,0.10001 -2.100109,0.45003 -2.500127,0.45003 h -1.750092 c -0.200009,0 -0.700034,-0.10001 -0.700034,-0.10001 0,0 0.750038,0.15001 1.350068,-0.70004 0.60003,-0.85004 0.550029,-0.90004 0.550029,-0.90004 0,0 -0.750038,0.20001 -1.200063,0.20001 h -1.650081 c -0.300017,0 -2.200114,0.55003 -2.550131,0.65003 -0.350018,0.10001 -2.150107,0.50003 -2.550127,1.05005 -0.40003,0.55003 -1.65009,1.55008 -1.75009,1.8001 -0.10001,0.25001 -0.15001,0.35001 -0.45003,1.10005 -0.30001,0.75004 -0.25001,1.15006 -0.35002,1.45008 -0.1,0.30001 -0.25001,0.35002 -0.25001,0.35002 z"
       id="path37524"
       sodipodi:nodetypes="csccsssscssccscssssscsccccsssssscscsccsssscscssssssscc" /><path
       style="opacity:0.99;fill:#fde0a4;fill-opacity:0.992157;fill-rule:nonzero;stroke:none;stroke-width:0.108535;stroke-dasharray:none;stroke-opacity:1;paint-order:fill markers stroke"
       d="m -99.321539,45.497833 v 0.70618 c 0,0 -0.09175,0.83457 0.734045,0.96296 0.825802,0.1284 1.238702,0.321 1.238702,0.321 l 0.09175,-1.32307 c 0,0 -0.734043,-0.21768 -1.2387,-0.41027 -0.504657,-0.1926 -0.550533,-0.44939 -0.550533,-0.44939 z"
       id="path37526"
       sodipodi:nodetypes="ccsccscc" /><path
       style="opacity:0.99;fill:#48a4df;fill-opacity:1;fill-rule:nonzero;stroke:#0055d4;stroke-width:0.1;stroke-dasharray:none;stroke-opacity:1;paint-order:fill markers stroke"
       d="m -101.77604,50.669363 c -0.20001,-0.30002 -1.50008,-1.50008 -1.55008,-1.8501 -0.05,-0.35001 -0.10001,-0.2 0.60003,-0.65003 0.70003,-0.45002 1.35007,-0.80004 1.75009,-0.85004 0.40002,-0.05 1.000048,-0.10001 1.000048,-0.10001 l -1.000048,0.05 c 0,0 0.35001,-0.80003 0.80004,-1.00005 0.45002,-0.20001 0.800038,-0.45002 0.800038,-0.45002 0,0 0.300016,0.45002 0.600032,0.80004 0.300014,0.35002 0.450022,0.70004 0.950048,0.55003 0.500025,-0.15001 0.650033,-0.45002 0.650033,-0.45002 0,0 1.20006,4.40022 0.950048,6.30032 -0.250013,1.90009 0.300016,1.80009 0,1.90009 -0.300014,0.10001 -2.050103,0.05 -2.050103,0.05 0,0 -1.100058,-0.25001 -1.300067,-0.25001 H -100.926 c -0.25001,0 -0.50003,0.25001 -0.75004,0 -0.25001,-0.25002 -0.80004,-0.90005 -0.85004,-1.9501 -0.05,-1.05006 -0.05,-1.15006 0.45002,-1.55008 0.50003,-0.40002 0.70004,-0.40002 0.70004,-0.40002 0,0 0.44144,-0.11465 0.99147,-0.41467 0.550027,-0.30001 1.408649,-1.48543 1.408649,-1.48543 -0.548972,1.05529 -1.329719,1.69338 -2.350119,1.9001 z"
       id="path37528"
       sodipodi:nodetypes="csssccscsscsscssssscsccc" /><path
       style="opacity:0.99;fill:#444960;fill-opacity:1;fill-rule:nonzero;stroke:none;stroke-width:0.1;stroke-dasharray:none;stroke-opacity:1;paint-order:fill markers stroke"
       d="m -103.30112,54.894573 c 0,0 0.50002,2.67514 0.52503,2.95016 0.025,0.27501 0.1,1.90009 0.025,2.0251 -0.075,0.12501 -0.50003,0.82504 -0.57503,0.95005 -0.075,0.125 -0.90005,1.9501 -1.02505,2.0251 -0.12501,0.075 -0.72504,1.07506 -0.72504,1.07506 0,0 0.55002,0.15 0.72504,0.15 0.175,0 1.32506,-0.125 1.65008,-0.17501 0.32501,-0.05 0.70003,-0.05 0.95005,-0.05 0.25001,0 0.55002,0.45002 0.65003,0.45002 0.10001,0 0,-0.37501 0.025,-0.62503 0.025,-0.25001 -0.025,-0.35001 0.20001,-0.52503 0.22501,-0.175 0.45002,-0.15 0.60003,-0.75003 0.15001,-0.60003 0.300016,-1.37507 0.35002,-1.60009 0.05,-0.22501 0.150008,-0.70003 -0.025,-1.15005 -0.17501,-0.45003 -0.22501,-1.05006 -0.32502,-1.17506 -0.1,-0.12501 -0.35002,-2.10011 -0.60003,-2.45013 -0.25001,-0.35002 -0.97505,-1.37507 -0.97505,-1.37507 z"
       id="path37530" /><path
       style="opacity:0.99;fill:#23283b;fill-opacity:1;fill-rule:nonzero;stroke:none;stroke-width:0.1;stroke-dasharray:none;stroke-opacity:1;paint-order:fill markers stroke"
       d="m -98.650885,57.394703 c 0,0 0.850043,1.55008 0.975051,1.62509 0.125005,0.075 0.60003,1.07505 0.60003,1.07505 0,0 0.05,0.85004 -0.05,1.37507 -0.100007,0.52503 -0.300016,1.52508 -0.300016,1.77509 0,0.25001 -0.250013,0.67504 -0.150009,0.67504 0.100005,0 1.000051,0.075 1.600081,0.075 0.600033,0 0.625033,0.15 1.475076,0.025 0.850043,-0.12501 1.100056,-0.1 1.250064,-0.15001 0.150008,-0.05 -0.05,0 -0.175009,-0.40002 -0.125005,-0.40001 -0.05,-0.075 -0.200009,-0.67503 -0.150008,-0.60003 -0.325017,-1.07506 -0.300016,-1.57508 0.025,-0.50003 -0.400021,-2.0251 -0.750038,-2.22512 -0.350018,-0.2 -0.500026,-0.62503 -0.700035,-0.77503 -0.200012,-0.15001 -1.475076,-1.42508 -1.475076,-1.42508 l -0.750038,-0.125 c 0,0 -0.650034,0.52502 -0.750038,0.57503 -0.100005,0.05 -0.300017,0.15 -0.300018,0.15 z"
       id="path37532" /><path
       style="opacity:0.99;fill:#474e61;fill-opacity:1;fill-rule:nonzero;stroke:none;stroke-width:0.1;stroke-dasharray:none;stroke-opacity:1;paint-order:fill markers stroke"
       d="m -102.32607,54.444553 6.175313,0.42502 c 0,0 0.450024,0.65004 0.100004,1.05006 -0.350017,0.40002 -0.700034,0.80004 -0.950047,1.00005 -0.250013,0.20001 -0.725038,0.55003 -1.025051,0.60003 -0.300017,0.05 -0.625034,0.125 -1.025054,0.075 -0.400019,-0.05 -0.900044,0.025 -1.275065,-0.1 -0.37502,-0.12501 -0.82504,-0.075 -1.00005,-0.60003 -0.17501,-0.52503 -0.32502,-1.35007 -0.45002,-1.52508 -0.12501,-0.17501 -0.67504,-0.95005 -0.67504,-0.95005 z"
       id="path37534" /><path
       style="opacity:0.99;fill:#47a3e3;fill-opacity:1;fill-rule:nonzero;stroke:#0055d4;stroke-width:0.1;stroke-dasharray:none;stroke-opacity:1;paint-order:fill markers stroke"
       d="m -105.05121,63.995043 c 0,0 3.00015,-0.20001 3.27517,-0.075 0.27501,0.125 1.15005,0.60003 1.25006,0.82504 0.10001,0.22501 0.35002,0.75004 0.47502,0.87504 0.125011,0.12501 -0.55002,0.25001 -0.72503,0.20001 -0.17501,-0.05 -0.90005,-0.05 -1.35007,-0.05 -0.45002,0 -1.07506,-0.05 -1.8251,-0.075 -0.75003,-0.025 -1.17506,-0.025 -1.37506,-0.025 -0.20002,0 -0.70004,0.12501 -0.60003,0 0.1,-0.12501 0.25001,-0.97505 0.45002,-1.40007 0.20001,-0.42502 0.42502,-0.27501 0.42502,-0.27501 z"
       id="path37536" /><path
       style="opacity:0.99;fill:#47a3e3;fill-opacity:1;fill-rule:nonzero;stroke:#0055d4;stroke-width:0.1;stroke-dasharray:none;stroke-opacity:1;paint-order:fill markers stroke"
       d="m -97.166568,63.712183 c 0,0 3.000153,-0.20001 3.275169,-0.075 0.275013,0.125 1.150056,0.60003 1.250063,0.82504 0.100005,0.22501 0.350018,0.75004 0.475023,0.87504 0.125007,0.12501 -0.550027,0.25001 -0.725035,0.20001 -0.175012,-0.05 -0.900047,-0.05 -1.350071,-0.05 -0.450022,0 -1.075055,-0.05 -1.825093,-0.075 -0.750039,-0.025 -1.17506,-0.025 -1.375069,-0.025 -0.200012,0 -0.700037,0.12501 -0.60003,0 0.100004,-0.12501 0.250013,-0.97505 0.450022,-1.40007 0.200009,-0.42502 0.425021,-0.27501 0.425021,-0.27501 z"
       id="path37538" /><path
       style="opacity:0.99;fill:#e3dedb;fill-opacity:1;fill-rule:nonzero;stroke:none;stroke-width:0.1;stroke-dasharray:none;stroke-opacity:1;paint-order:fill markers stroke"
       d="m -97.99161,65.462273 c -0.125005,-0.025 -0.275013,0.27501 -0.275013,0.27501 0,0 0.05,0.40002 0.200009,0.45002 0.150008,0.05 0.175008,0.05 0.875046,0.12501 0.700034,0.075 1.300064,0.10001 1.825093,0.10001 0.525026,0 1.80009,-0.075 2.050103,-0.10001 0.250012,-0.025 0.850045,-0.05 1.075055,-0.15001 0.225012,-0.1 0.40002,-0.17501 0.40002,-0.35001 0,-0.17501 -0.125005,-0.45003 -0.250012,-0.45003 -0.125005,0 -5.900301,0.10001 -5.900301,0.10001 z"
       id="path37540" /><ellipse
       style="opacity:0.99;fill:#000000;fill-opacity:1;fill-rule:nonzero;stroke:#000000;stroke-width:0.1;stroke-dasharray:none;stroke-opacity:1;paint-order:fill markers stroke"
       id="ellipse37542"
       cx="-93.767143"
       cy="40.183392"
       rx="0.77785712"
       ry="1.3966072" /><ellipse
       style="opacity:0.99;fill:#000000;fill-opacity:1;fill-rule:nonzero;stroke:#000000;stroke-width:0.0792771;stroke-dasharray:none;stroke-opacity:1;paint-order:fill markers stroke"
       id="ellipse37544"
       cx="-88.857292"
       cy="40.094173"
       rx="0.56723642"
       ry="1.203665" /><ellipse
       style="opacity:0.99;fill:#ffffff;fill-opacity:1;fill-rule:nonzero;stroke:none;stroke-width:0.1;stroke-dasharray:none;stroke-opacity:1;paint-order:fill markers stroke"
       id="ellipse37546"
       cx="-93.722946"
       cy="39.723751"
       rx="0.53919643"
       ry="0.68946427" /><ellipse
       style="opacity:0.99;fill:#ffffff;fill-opacity:1;fill-rule:nonzero;stroke:none;stroke-width:0.0775845;stroke-dasharray:none;stroke-opacity:1;paint-order:fill markers stroke"
       id="ellipse37548"
       cx="-88.870186"
       cy="39.564632"
       rx="0.40013629"
       ry="0.55924344" /><path
       style="opacity:0.99;fill:#000000;fill-opacity:1;fill-rule:nonzero;stroke:#000000;stroke-width:0.1;stroke-dasharray:none;stroke-opacity:1;paint-order:fill markers stroke"
       d="m -95.941607,36.647673 c 0.335891,-0.28286 0.848572,-0.76018 1.11375,-0.7425 0.265179,0.0177 0.636429,0.053 0.919285,0.0884 0.282858,0.0354 0.689464,0.30054 0.830894,0.38893 0.141428,0.0884 0.371251,0.53036 0.548035,0.65411 0.176786,0.12375 0.335893,0.51268 0.37125,0.54804 0.03536,0.0354 0.159107,0.22982 0.141427,0.26517 -0.01767,0.0354 -0.318214,-0.22098 -0.459642,-0.25634 -0.141427,-0.0353 -0.609909,-0.30937 -0.715981,-0.41544 -0.106071,-0.10607 -0.07071,-0.22982 -0.291698,-0.32705 -0.220982,-0.0972 -0.822052,-0.18563 -0.892767,-0.20331 -0.07071,-0.0177 -0.353571,-0.0177 -0.574553,-0.0177 -0.220983,0 -0.742501,0.0354 -0.804376,0.053 -0.06187,0.0177 -0.247499,0.053 -0.247499,0.053 z"
       id="path37550" /><path
       style="opacity:0.99;fill:#000000;fill-opacity:1;fill-rule:nonzero;stroke:#000000;stroke-width:0.1;stroke-dasharray:none;stroke-opacity:1;paint-order:fill markers stroke"
       d="m -89.488927,38.008923 c 0.03536,-0.0884 0.194463,-0.53036 0.406606,-0.65411 0.212143,-0.12375 0.583393,-0.37125 0.671785,-0.4066 0.08839,-0.0354 0.282858,0 0.441965,0.0707 0.159107,0.0707 0.318215,0.12375 0.265179,0.21214 -0.05304,0.0884 -0.159107,0.0884 -0.406609,0.14143 -0.247499,0.053 -0.494999,0.14143 -0.583393,0.26518 -0.08839,0.12375 -0.335891,0.2475 -0.441963,0.40661 -0.106071,0.1591 -0.318214,0.2475 -0.318214,0.17678 0,-0.0707 -0.03536,-0.21214 -0.03536,-0.21214 z"
       id="path37552" /><path
       style="opacity:0.99;fill:none;fill-opacity:1;fill-rule:nonzero;stroke:#000000;stroke-width:0.1;stroke-dasharray:none;stroke-opacity:1;paint-order:fill markers stroke"
       d="m -90.350461,41.306383 c -0.01249,0.075 -0.025,0.27501 -0.01249,0.36252 0.01249,0.0875 0.08751,0.21251 0.237513,0.23751 0.150009,0.025 0.262512,0.075 0.350018,0.12501 0.08751,0.05 0.337518,0.25001 0.350017,0.36252 0.01252,0.1125 -0.075,0.38752 -0.112506,0.46252 -0.0375,0.075 0.0375,0.23751 -0.112504,0.23751 -0.150008,0 -0.387522,-0.0625 -0.462526,-0.0625 -0.075,0 -0.362516,-0.0375 -0.362516,-0.0375 l 0.137507,-0.0125 0.21251,0.0625"
       id="path37554" /><path
       style="opacity:0.99;fill:none;fill-opacity:1;fill-rule:nonzero;stroke:#000000;stroke-width:0.1;stroke-dasharray:none;stroke-opacity:1;paint-order:fill markers stroke"
       d="m -91.31301,44.844063 c -0.075,0.025 -1.100055,0.15001 -1.36257,0.075 -0.262514,-0.075 -0.800039,-0.33752 -0.862544,-0.42503 -0.0625,-0.0875 -0.437523,-0.28751 -0.500025,-0.41252 -0.0625,-0.125 -0.075,-0.37502 -0.075,-0.37502 0,0 -0.237512,0.31252 -0.287515,0.33752 -0.05,0.025 -0.175009,0.025 -0.175009,0.025"
       id="path37556" /><path
       style="opacity:0.99;fill:#fde0a4;fill-opacity:0.992157;fill-rule:nonzero;stroke:none;stroke-width:0.1;stroke-dasharray:none;stroke-opacity:1;paint-order:fill markers stroke"
       d="m -103.37613,48.944273 1.9001,2.0251 c 0,0 -0.97505,0.52503 -1.02505,0.62503 -0.05,0.10001 -0.075,1.12506 -0.025,1.25007 0.05,0.12501 0.30001,1.02505 0.42502,1.25006 0.12501,0.22501 0.40002,0.92505 0.40002,0.92505 0,0 -0.05,-0.37502 0.37502,-0.22501 0.42502,0.15001 0.47502,0.075 0.52503,0.17501 0.05,0.1 0.62503,0.70003 0.62503,0.70003 l 0.275012,0.85005 c 0,0 0.250013,0.27501 0.025,0.42502 -0.225012,0.15001 -0.275012,0.35002 -0.350022,0.22501 -0.075,-0.12501 -0.2,-0.57503 -0.2,-0.57503 l 0.22501,0.87505 0.275011,0.40002 c 0,0 0.150008,0.42502 -0.250011,0.55003 -0.40002,0.125 -0.77504,-0.05 -0.77504,-0.05 0,0 -0.075,0 -0.35002,0.20001 -0.27501,0.20001 -0.50003,0.52503 -0.67503,0.35002 -0.17501,-0.17501 -0.37502,-0.25001 -0.52503,-0.27502 -0.15001,-0.025 -0.35002,0.15001 -0.52503,0.15001 -0.17501,0 -0.50002,0.15001 -0.65003,-0.20001 -0.15001,-0.35002 -0.20001,-0.47502 -0.35002,-0.82504 -0.15001,-0.35002 -0.22501,-0.32502 -0.20001,-0.70004 0.025,-0.37501 0.12501,-0.67503 0.20001,-0.87504 0.075,-0.20001 0.10001,-0.25001 0.12501,-0.50002 0.025,-0.25002 -0.52503,-0.50003 -0.62504,-0.97505 -0.1,-0.47503 -0.25001,-0.77504 -0.40001,-1.12506 -0.15001,-0.35002 -0.30002,-0.55003 -0.32502,-0.97505 -0.025,-0.42502 -0.12501,-0.67504 0.025,-1.22506 0.15001,-0.55003 0.05,-0.45003 0.45002,-1.00006 0.40002,-0.55002 0.57503,-0.72503 0.80004,-0.90004 0.22502,-0.17501 0.60003,-0.55003 0.60003,-0.55003 z"
       id="path37558" /><path
       style="opacity:0.99;fill:#fde0a4;fill-opacity:0.992157;fill-rule:nonzero;stroke:none;stroke-width:0.1;stroke-dasharray:none;stroke-opacity:1;paint-order:fill markers stroke"
       d="m -95.875741,54.294543 c 0,0.10001 -0.175012,0.15001 -0.300017,0.52503 -0.125008,0.37502 -0.100004,0.55003 -0.125008,0.72504 -0.025,0.17501 -0.350017,0.72504 -0.350017,0.72504 0,0 -0.700035,0.37501 -0.275014,0.67503 0.425024,0.30001 0.625031,0.50002 0.750039,0.50002 0.125005,0 0.350017,-0.1 0.525026,-0.32501 0.175009,-0.22501 0.375021,-0.40002 0.525029,-0.72504 0.150005,-0.32502 0.375017,-0.92505 0.375017,-0.92505 0,0 -0.05,0.45003 0.175009,0.62504 0.225012,0.17501 0,0.27501 0.450025,0.15 0.450021,-0.125 0.800039,-0.67503 0.825042,-0.80004 0.025,-0.125 0.225009,-0.47502 0.225009,-0.72503 0,-0.25002 -0.150005,-0.50003 -0.375017,-0.62504 -0.225013,-0.125 -0.750038,-0.1 -1.000051,-0.075 -0.250013,0.025 -1.225063,0.10001 -1.225063,0.10001 z"
       id="path37560"
       sodipodi:nodetypes="csscsssscsssssscc" /><path
       style="opacity:0.99;fill:#fde0a4;fill-opacity:0.992157;fill-rule:nonzero;stroke:none;stroke-width:0.1;stroke-dasharray:none;stroke-opacity:1;paint-order:fill markers stroke"
       d="m -95.725736,57.219693 c 0,0 -0.150005,0.42502 -0.150005,0.57503 0,0.15001 0.375017,0.42502 0.62503,0.52503 0.250013,0.10001 0.825042,0.20001 1.100055,0.025 0.275016,-0.17501 0.475025,-0.55003 0.55003,-0.67503 0.075,-0.12501 0.100004,-0.17501 0.225012,-0.17501 0.125005,0 0.425021,-0.27502 0.425021,-0.42503 0,-0.15 0,-0.27501 0,-0.40002 0,-0.125 0.300014,-0.35001 0.300014,-0.35001 0,0 0.150008,-0.22501 0.150008,-0.50003 0,-0.27501 0.250013,-0.45002 -0.075,-0.50002 -0.325017,-0.05 -0.625031,-0.30002 -0.625031,-0.30002 0,0 -1.800092,-0.075 -1.975101,0.10001 -0.175009,0.175 -0.550029,2.1001 -0.550029,2.1001 z"
       id="path37562" /><g
       id="g136"><g
         id="g65555"
         transform="translate(-28.460023,0.5908062)"><path
           style="opacity:0.99;fill:#999999;fill-opacity:1;fill-rule:nonzero;stroke:none;stroke-width:0.0397993;stroke-dasharray:none;stroke-opacity:1;paint-order:fill markers stroke"
           d="m 34.840029,10.788942 c 0.791018,0.58075 1.412432,0.794617 2.2362,0.818638 0,0 0.332609,0.08834 0.169079,0.224697 -0.163525,0.136358 -0.293627,0.439463 -0.406556,0.504564 -0.112931,0.06509 -0.573043,0.238707 -0.699964,0.245246 -0.12692,0.0065 -0.226875,-0.03144 -0.390836,-0.06673 -0.163953,-0.03524 -0.298507,-0.06525 -0.448679,-0.12772 -0.150171,-0.06247 -0.762984,-0.222242 -0.811959,-0.427221 -0.049,-0.204978 -0.03142,-0.376475 -0.07546,-0.447533 -0.04403,-0.07106 0.118668,-0.876105 0.118668,-0.876105 z"
           id="path54826"
           sodipodi:nodetypes="ccscsscsccc" /><path
           style="opacity:0.99;fill:#cccccc;fill-opacity:0.984314;fill-rule:nonzero;stroke:none;stroke-width:0.0340083;stroke-dasharray:none;stroke-opacity:1;paint-order:fill markers stroke"
           d="m 32.763213,11.590002 c 0,0 -0.528583,0.87535 -0.617001,0.927673 -0.08839,0.05236 -0.391279,0.203749 -0.473486,0.187798 -0.08221,-0.01594 -0.277272,-0.04851 -0.336468,-0.038 -0.0592,0.0105 0.03743,-0.202035 0.08546,-0.241084 0.04803,-0.03906 0.189243,-0.241181 0.276894,-0.36664 0.08765,-0.125456 0.223329,-0.28997 0.376387,-0.494201 0.153055,-0.204229 0.235836,-0.322717 0.274793,-0.378477 0.03895,-0.05576 0.101495,-0.219507 0.11687,-0.167277 0.01536,0.05223 0.223133,0.259613 0.302657,0.39816 0.07939,0.138619 -0.0061,0.172056 -0.0061,0.172056 z"
           id="path54832" /><path
           style="opacity:0.99;fill:#e3dedb;fill-opacity:1;fill-rule:nonzero;stroke:none;stroke-width:0.0340083;stroke-dasharray:none;stroke-opacity:1;paint-order:fill markers stroke"
           d="m 32.43601,11.019127 c 0.03131,-0.02998 -0.0231,-0.130234 -0.0231,-0.130234 0,0 -0.121253,-0.06398 -0.164414,-0.03189 -0.04313,0.03212 -0.04802,0.03905 -0.205287,0.219597 -0.157257,0.180552 -0.281096,0.342957 -0.383356,0.489327 -0.102262,0.146367 -0.329697,0.516444 -0.371421,0.591015 -0.04172,0.07457 -0.151626,0.246719 -0.16757,0.328926 -0.01595,0.08221 -0.02912,0.145606 0.01966,0.179694 0.04878,0.0341 0.149813,0.0528 0.17416,0.01795 0.02434,-0.03485 1.121326,-1.664388 1.121326,-1.664388 z"
           id="path54834" /><path
           style="opacity:0.99;fill:#fde0a4;fill-opacity:0.992157;fill-rule:nonzero;stroke:none;stroke-width:0.0340083;stroke-dasharray:none;stroke-opacity:1;paint-order:fill markers stroke"
           d="m 36.787845,10.444462 0.489628,-0.6586637 c 0,0 0.319046,0.2377077 0.352589,0.2556137 0.03356,0.01788 0.381795,0.03572 0.424749,0.01985 0.04295,-0.01587 0.351202,-0.09268 0.428833,-0.1331351 0.07763,-0.04045 0.318113,-0.1275876 0.318113,-0.1275876 0,0 -0.127948,0.01359 -0.07309,-0.129532 0.05487,-0.143123 0.02981,-0.160808 0.06427,-0.176899 0.03444,-0.01609 0.243658,-0.206129 0.243658,-0.206129 l 0.291482,-0.08577 c 0,0 0.09577,-0.0825 0.144718,-0.0046 0.04895,0.07786 0.116496,0.09667 0.07332,0.121035 -0.04318,0.02437 -0.197304,0.06277 -0.197304,0.06277 l 0.299526,-0.06855 0.13849,-0.08986 c 0,0 0.145852,-0.04714 0.184723,0.08999 0.03886,0.137127 -0.02404,0.26303 -0.02404,0.26303 0,0 -6.83e-4,0.02549 0.06482,0.120809 0.0655,0.09531 0.173949,0.174757 0.112861,0.2326656 -0.0611,0.0579 -0.08841,0.1252181 -0.09826,0.1759961 -0.0099,0.05078 0.04781,0.120357 0.04623,0.17985 -0.0016,0.0595 0.04645,0.171352 -0.0739,0.219169 -0.120359,0.04782 -0.163306,0.06368 -0.283663,0.111497 -0.120358,0.04782 -0.112537,0.07354 -0.239802,0.06164 -0.127262,-0.01191 -0.228349,-0.04863 -0.295661,-0.07595 -0.06731,-0.02732 -0.08409,-0.03626 -0.168851,-0.04704 -0.08477,-0.01077 -0.174756,0.173949 -0.337157,0.203629 -0.1624,0.02968 -0.265755,0.07795 -0.38611,0.125771 -0.120358,0.04782 -0.189715,0.097 -0.334432,0.101635 -0.144717,0.0046 -0.230624,0.03637 -0.416248,-0.01963 -0.185623,-0.05599 -0.152537,-0.02108 -0.335894,-0.162074 -0.183351,-0.140989 -0.210481,-0.109418 -0.267931,-0.187503 -0.05745,-0.07809 -0.247445,-0.102767 -0.247445,-0.102767 z"
           id="path54864"
           sodipodi:nodetypes="ccccscscccsscccscscccssssssssssscc" /><path
           style="opacity:0.99;fill:none;fill-opacity:0.992157;fill-rule:nonzero;stroke:#0055d4;stroke-width:0.034;stroke-dasharray:none;stroke-opacity:1;paint-order:fill markers stroke"
           d="m 35.965969,9.3970653 c 0,0 0.09455,0.466188 0.278098,0.6770067 0.183545,0.210818 0.260482,0.358792 0.336629,0.403684 0.07614,0.04489 0.09217,0.156948 0.33538,-0.151154 0.243213,-0.3081 0.348218,-0.4514157 0.368909,-0.5213037 0.02068,-0.06989 -0.01057,-0.190931 -0.166383,-0.344358 -0.155812,-0.153431 -0.290148,-0.273666 -0.457666,-0.372426 -0.16752,-0.09876 -0.243663,-0.143653 -0.243663,-0.143653 v 0 l -0.127286,0.007"
           id="path54866" /><path
           style="opacity:0.99;fill:#666666;fill-opacity:0.962825;fill-rule:nonzero;stroke:none;stroke-width:0.0340083;stroke-dasharray:none;stroke-opacity:1;paint-order:fill markers stroke"
           d="m 36.762449,12.973865 c 0,0 0.132639,0.19721 0.175167,0.2227 0.04252,0.0255 0.169881,0.284358 0.169881,0.284358 0,0 0.04418,0.198749 0.04947,0.380439 0.0041,0.140574 0.03481,0.620985 0.03485,0.706002 0.707109,-0.33525 0.745284,-0.338906 1.12528,-0.483131 -0.05113,-0.204029 -0.101129,-0.112205 -0.09273,-0.282261 0.0084,-0.170058 0.04058,-0.508542 -0.07849,-0.576494 -0.09652,-0.306682 -0.23471,-0.49916 -0.315264,-0.526714 -0.08045,-0.02752 -0.48816,-0.342358 -0.48816,-0.342358 l -0.379759,-0.195099 c 0,0 -0.29435,0.24697 -0.328349,0.263998 -0.03401,0.01701 -0.54067,0.161029 -0.54067,0.16103 z"
           id="path54868"
           sodipodi:nodetypes="cscsccscsccccc" /><path
           style="opacity:0.99;fill:#999999;fill-opacity:0.992157;fill-rule:nonzero;stroke:none;stroke-width:0.0340083;stroke-dasharray:none;stroke-opacity:1;paint-order:fill markers stroke"
           d="m 34.511001,11.602484 c 0,0 -0.221575,0.263289 -0.305294,0.305847 -0.08372,0.04255 -0.569898,0.20918 -0.618838,0.201243 -0.436681,-0.191167 -0.315865,-0.345889 -0.767014,-0.576428 -4.84e-4,0.0014 -0.508488,0.564506 -0.425181,0.455012 -0.215475,0.517134 -0.359305,0.374908 -0.31585,0.67881 0.02511,0.02293 0.331495,0.269707 0.413622,0.246097 0.08212,-0.02361 0.335141,0.157695 0.418778,0.206715 0.08363,0.04903 0.343944,0.100407 0.55238,0.07217 0.208438,-0.02824 0.321885,10e-4 0.399264,-0.01155 0.07738,-0.01257 0.204665,-0.102715 0.324757,-0.214709 0.120096,-0.111998 0.303323,-0.23877 0.330205,-0.286113 0.02692,-0.04732 0.433621,-0.445946 0.512674,-0.569032 0.07905,-0.123086 -0.03566,-0.151892 -0.03566,-0.151892 z"
           id="path54870"
           sodipodi:nodetypes="csccccssssssscc" /><g
           id="g61535"
           transform="translate(54.827798,-28.201439)"><g
             id="g54856"
             transform="matrix(0.33955888,0.01887181,-0.01887181,0.33955888,-21.601285,-5.6957402)"><path
               style="opacity:0.99;fill:#fde0a4;fill-opacity:0.992157;fill-rule:nonzero;stroke:none;stroke-width:0.108535;stroke-dasharray:none;stroke-opacity:1;paint-order:fill markers stroke"
               d="m 16.638755,122.38084 -0.14475,1.4137 c 0.07987,0.004 -0.396768,-0.44403 -0.505386,0.27431 -0.165982,1.0977 2.359148,1.91972 2.70084,1.00914 l 0.403254,-0.98411 c 0,0 -0.383365,-1.19434 -0.888022,-1.38693 -0.504657,-0.1926 -1.427277,-0.32704 -1.427277,-0.32704 z"
               id="path54838"
               sodipodi:nodetypes="ccsccscc" /><path
               style="opacity:0.99;fill:#fde0a4;fill-opacity:1;fill-rule:nonzero;stroke:none;stroke-width:0.1;stroke-dasharray:none;stroke-opacity:1;paint-order:fill markers stroke"
               d="m 14.37971,118.27171 c 0,0 -0.699298,-4.52665 -0.876085,-4.63272 -0.176787,-0.10607 2.442447,0.81208 2.725303,0.42315 0.282858,-0.38893 0.707144,-0.81322 0.813215,-1.27286 0.106072,-0.45964 0.212143,-1.09607 0.212143,-1.44964 0,-0.35358 -0.106071,-1.30822 -0.106071,-1.30822 l 0,-0.14143 c 0,0 4.348927,0.21215 6.611783,1.41429 2.262857,1.20214 2.368929,1.27286 2.368929,1.27286 0,0 0.990002,-0.77786 1.060714,-0.91929 0.07072,-0.14143 0.459645,-0.35357 0.459645,-0.35357 l 0.459642,0.99 c 0,0 0.141428,4.31357 -0.03536,4.98536 -0.176787,0.67178 -0.106071,0.31821 -0.14143,0.495 -0.03536,0.17678 -0.141428,1.20214 -0.141428,1.52035 0,0.31822 0.07071,1.13143 0.03536,1.44965 -0.03536,0.31821 -0.565713,1.87393 -0.565713,1.87393 0,0 -1.025359,0.99 -1.272858,1.09607 -0.247499,0.10607 -1.485,0.63643 -1.661784,0.70714 -0.176787,0.0707 -0.707144,0.14143 -0.883931,0.14143 l -1.661784,0 c -0.353571,0 -1.308214,-0.14143 -1.626428,-0.21214 -0.318215,-0.0707 -1.096071,-0.2475 -1.555716,-0.31822 -0.459642,-0.0707 -1.272857,-0.38893 -1.626428,-0.56571 -0.353571,-0.17679 -1.025356,-0.45965 -1.166786,-0.53036 -0.141428,-0.0707 -0.777857,-0.67178 -0.99,-0.77786 -0.212142,-0.10607 -0.707143,-0.495 -0.813215,-0.63642 -0.106071,-0.14143 -0.494998,-0.49501 -0.494998,-0.49501 l 0,-0.45964 c 0,0 -0.459642,0.495 -0.99,0.21215 -0.530357,-0.28286 4.957586,-2.83641 4.67473,-3.18998 -0.282858,-0.35357 -0.601072,-1.13143 -0.601072,-1.27286 0,-0.14142 -0.03536,-0.42428 0,-0.70714 0.03536,-0.28286 0.141428,-0.7425 0.141428,-0.7425 0,0 0.212143,-0.35357 0.636428,-0.60107 0.424286,-0.2475 0.565717,-0.38893 0.77786,-0.42429 0.212143,-0.0354 -5.417231,2.51823 -5.417231,2.51823 0,0 0.494999,0.17679 0.60107,0.35357 0.106072,0.17679 0.318214,0.45965 0.424286,0.60107 0.106071,0.14143 0.353571,0.45965 0.424286,0.60108 0.07071,0.14142 0.201496,0.35564 0.201496,0.35564 z"
               id="path54836"
               sodipodi:nodetypes="cssssccsccccsssccscsscccccccccssscsccscscc" /><ellipse
               style="opacity:0.99;fill:#000000;fill-opacity:1;fill-rule:nonzero;stroke:#000000;stroke-width:0.1;stroke-dasharray:none;stroke-opacity:1;paint-order:fill markers stroke"
               id="ellipse54840"
               cx="21.638571"
               cy="117.68625"
               rx="0.77785712"
               ry="1.3966072" /><ellipse
               style="opacity:0.99;fill:#000000;fill-opacity:1;fill-rule:nonzero;stroke:#000000;stroke-width:0.0792771;stroke-dasharray:none;stroke-opacity:1;paint-order:fill markers stroke"
               id="ellipse54842"
               cx="26.548426"
               cy="117.59703"
               rx="0.56723642"
               ry="1.203665" /><ellipse
               style="opacity:0.99;fill:#ffffff;fill-opacity:1;fill-rule:nonzero;stroke:none;stroke-width:0.1;stroke-dasharray:none;stroke-opacity:1;paint-order:fill markers stroke"
               id="ellipse54844"
               cx="21.682768"
               cy="117.22661"
               rx="0.53919643"
               ry="0.68946427" /><ellipse
               style="opacity:0.99;fill:#ffffff;fill-opacity:1;fill-rule:nonzero;stroke:none;stroke-width:0.0775845;stroke-dasharray:none;stroke-opacity:1;paint-order:fill markers stroke"
               id="ellipse54846"
               cx="26.535532"
               cy="117.06749"
               rx="0.40013629"
               ry="0.55924344" /><path
               style="opacity:0.99;fill:#000000;fill-opacity:1;fill-rule:nonzero;stroke:#000000;stroke-width:0.1;stroke-dasharray:none;stroke-opacity:1;paint-order:fill markers stroke"
               d="m 19.464107,114.15053 c 0.335891,-0.28286 0.848572,-0.76018 1.11375,-0.7425 0.265179,0.0177 0.636429,0.053 0.919285,0.0884 0.282858,0.0354 0.689464,0.30054 0.830894,0.38893 0.141428,0.0884 0.371251,0.53036 0.548035,0.65411 0.176786,0.12375 0.335893,0.51268 0.37125,0.54804 0.03536,0.0354 0.159107,0.22982 0.141427,0.26517 -0.01767,0.0354 -0.318214,-0.22098 -0.459642,-0.25634 -0.141427,-0.0353 -0.609909,-0.30937 -0.715981,-0.41544 -0.106071,-0.10607 -0.07071,-0.22982 -0.291698,-0.32705 -0.220982,-0.0972 -0.822052,-0.18563 -0.892767,-0.20331 -0.07071,-0.0177 -0.353571,-0.0177 -0.574553,-0.0177 -0.220983,0 -0.742501,0.0354 -0.804376,0.053 -0.06187,0.0177 -0.247499,0.053 -0.247499,0.053 z"
               id="path54848" /><path
               style="opacity:0.99;fill:#000000;fill-opacity:1;fill-rule:nonzero;stroke:#000000;stroke-width:0.1;stroke-dasharray:none;stroke-opacity:1;paint-order:fill markers stroke"
               d="m 25.916787,115.51178 c 0.03536,-0.0884 0.194463,-0.53036 0.406606,-0.65411 0.212143,-0.12375 0.583393,-0.37125 0.671785,-0.4066 0.08839,-0.0354 0.282858,0 0.441965,0.0707 0.159107,0.0707 0.318215,0.12375 0.265179,0.21214 -0.05304,0.0884 -0.159107,0.0884 -0.406609,0.14143 -0.247499,0.053 -0.494999,0.14143 -0.583393,0.26518 -0.08839,0.12375 -0.335891,0.2475 -0.441963,0.40661 -0.106071,0.1591 -0.318214,0.2475 -0.318214,0.17678 0,-0.0707 -0.03536,-0.21214 -0.03536,-0.21214 z"
               id="path54850" /><path
               style="opacity:0.99;fill:none;fill-opacity:1;fill-rule:nonzero;stroke:#000000;stroke-width:0.1;stroke-dasharray:none;stroke-opacity:1;paint-order:fill markers stroke"
               d="m 25.055253,118.80924 c -0.01249,0.075 -0.025,0.27501 -0.01249,0.36252 0.01249,0.0875 0.08751,0.21251 0.237513,0.23751 0.150009,0.025 0.262512,0.075 0.350018,0.12501 0.08751,0.05 0.337518,0.25001 0.350017,0.36252 0.01252,0.1125 -0.075,0.38752 -0.112506,0.46252 -0.0375,0.075 0.0375,0.23751 -0.112504,0.23751 -0.150008,0 -0.387522,-0.0625 -0.462526,-0.0625 -0.075,0 -0.362516,-0.0375 -0.362516,-0.0375 l 0.137507,-0.0125 0.21251,0.0625"
               id="path54852" /><path
               style="opacity:0.99;fill:none;fill-opacity:1;fill-rule:nonzero;stroke:#000000;stroke-width:0.1;stroke-dasharray:none;stroke-opacity:1;paint-order:fill markers stroke"
               d="m 24.092704,122.34692 c -0.075,0.025 -1.100055,0.15001 -1.36257,0.075 -0.262514,-0.075 -0.800039,-0.33752 -0.862544,-0.42503 -0.0625,-0.0875 -0.437523,-0.28751 -0.500025,-0.41252 -0.0625,-0.125 -0.075,-0.37502 -0.075,-0.37502 0,0 -0.237512,0.31252 -0.287515,0.33752 -0.05,0.025 -0.175009,0.025 -0.175009,0.025"
               id="path54854" /></g><path
             style="opacity:0.99;fill:#ff2a2a;fill-opacity:0.962825;fill-rule:nonzero;stroke:#000000;stroke-width:0.034;stroke-dasharray:none;stroke-opacity:1;paint-order:fill markers stroke"
             d="m -16.678011,35.917633 c 0,0 0.282857,0.998841 0.601072,0.91045 0.318213,-0.08839 0.380091,-0.185627 0.380091,-0.185627 l 0.106071,-0.212141 0.07072,-0.11491 c 0.03064,-0.03064 -1.035756,-0.267241 -1.104371,-0.340536 z"
             id="path54872"
             sodipodi:nodetypes="cscccsc" /><path
             style="opacity:0.99;fill:#ffffff;fill-opacity:0.962825;fill-rule:nonzero;stroke:none;stroke-width:0.034;stroke-dasharray:none;stroke-opacity:1;paint-order:fill markers stroke"
             d="m -16.644863,35.983929 0.09281,0.269601 c 0,0 0.643059,0.274015 0.802167,0.220979 0.159107,-0.05304 0.150269,-0.05303 0.150269,-0.05303 -0.0055,0.0027 0.05399,-0.0439 0.05723,-0.102409 10e-4,-0.0184 -1.098488,-0.336467 -1.10248,-0.335138 z"
             id="path54874"
             sodipodi:nodetypes="ccscsc" /></g><path
           style="opacity:0.99;fill:#999999;fill-opacity:0.984314;fill-rule:nonzero;stroke:none;stroke-width:0.0340083;stroke-dasharray:none;stroke-opacity:1;paint-order:fill markers stroke"
           d="m 37.263058,14.497963 c 0,0 0.938656,-0.405664 1.041022,-0.396914 0.102365,0.0087 0.436863,0.06135 0.494524,0.122078 0.05767,0.06072 0.197557,0.20051 0.251852,0.22633 0.05429,0.02583 -0.147798,0.14274 -0.209576,0.146638 -0.06178,0.0039 -0.294122,0.08645 -0.438336,0.137684 -0.144211,0.05123 -0.350204,0.106373 -0.593411,0.183754 -0.243202,0.07738 -0.379403,0.125769 -0.443499,0.14854 -0.06409,0.02278 -0.2101,0.119761 -0.192286,0.06831 0.01783,-0.05144 -0.03089,-0.340929 -0.01517,-0.499902 0.01587,-0.158954 0.104883,-0.136529 0.104883,-0.136529 z"
           id="path61537" /><path
           style="opacity:0.99;fill:#e3dedb;fill-opacity:1;fill-rule:nonzero;stroke:none;stroke-width:0.0340083;stroke-dasharray:none;stroke-opacity:1;paint-order:fill markers stroke"
           d="m 37.197915,15.152728 c -0.0429,0.0062 -0.05682,0.119438 -0.05682,0.119438 0,0 0.06156,0.122501 0.11533,0.121441 0.05376,-0.0011 0.06177,-0.0039 0.29465,-0.05956 0.232874,-0.05566 0.428003,-0.115963 0.596254,-0.175738 0.16825,-0.05977 0.568317,-0.228976 0.64559,-0.265454 0.07727,-0.03648 0.266714,-0.112802 0.327433,-0.170468 0.06073,-0.05767 0.108264,-0.101627 0.08835,-0.157706 -0.01991,-0.05609 -0.0913,-0.129984 -0.13136,-0.115752 -0.04005,0.01424 -1.87942,0.703802 -1.87942,0.703802 z"
           id="path61539" /><path
           style="opacity:0.99;fill:#fde0a4;fill-opacity:0.992157;fill-rule:nonzero;stroke:none;stroke-width:0.0340083;stroke-dasharray:none;stroke-opacity:1;paint-order:fill markers stroke"
           d="m 35.869993,8.3290123 -0.261884,0.777811 c 0,0 -0.376926,-0.127367 -0.414363,-0.134019 -0.03744,-0.0066 -0.374121,0.08413 -0.41006,0.112501 -0.03594,0.02837 -0.305312,0.196767 -0.366623,0.25925 -0.06131,0.06248 -0.263048,0.219728 -0.263048,0.219728 0,0 0.11747,-0.0525 0.109572,0.100572 -0.0079,0.153076 0.02138,0.162145 -0.0064,0.188103 -0.02777,0.02595 -0.167951,0.2713867 -0.167951,0.2713867 l -0.250658,0.171723 c 0,0 -0.06555,0.108076 -0.136197,0.04914 -0.07064,-0.0589 -0.140685,-0.05589 -0.107163,-0.09242 0.03353,-0.03653 0.168213,-0.120721 0.168213,-0.120721 l -0.263635,0.157836 -0.103903,0.12829 c 0,0 -0.124119,0.08995 -0.2035,-0.02844 -0.07937,-0.118383 -0.0585,-0.257567 -0.0585,-0.257567 0,0 -0.0072,-0.02445 -0.09901,-0.09484 -0.09177,-0.07037 -0.219474,-0.1123821 -0.179293,-0.1863457 0.04019,-0.07396 0.04535,-0.146425 0.03901,-0.197759 -0.0063,-0.05135 -0.0827,-0.09967 -0.09959,-0.156731 -0.01689,-0.05708 -0.09717,-0.148581 0.0025,-0.23128 0.09966,-0.08271 0.1356,-0.111069 0.235264,-0.193769 0.09967,-0.08271 0.08428,-0.104739 0.208977,-0.13279 0.124705,-0.02804 0.232195,-0.02435 0.304657,-0.01918 0.07246,0.0052 0.09118,0.0085 0.17512,-0.0075 0.08394,-0.01598 0.112382,-0.219473 0.257639,-0.29793 0.145255,-0.07846 0.228611,-0.156329 0.328272,-0.239032 0.09966,-0.08271 0.150408,-0.150925 0.286595,-0.200095 0.136198,-0.04914 0.208065,-0.105924 0.401907,-0.110081 0.193841,-0.0041 0.151577,-0.02714 0.369553,0.05022 0.21797,0.07736 0.234004,0.03895 0.31279,0.09543 0.07879,0.05649 0.267097,0.02119 0.267097,0.02119 z"
           id="path61541"
           sodipodi:nodetypes="ccccscscccsscccscscccssssssssssscc" /><path
           style="opacity:0.99;fill:#cccccc;fill-opacity:0.984314;fill-rule:nonzero;stroke:none;stroke-width:0.034;stroke-dasharray:none;stroke-opacity:1;paint-order:fill markers stroke"
           d="m 36.334411,8.4266773 c 0,0 -1.750179,1.8916047 -1.820892,2.1214257 -0.07071,0.229822 0.689464,0.777858 0.954643,0.866253 0.265179,0.08839 0.477319,0.08839 0.742498,0.08839 0.265178,0 0.654108,0.194466 0.866251,0.212144 0.212143,0.01768 0.265179,0.01768 0.265179,0.01768 0,0 0.0083,-0.692863 -0.0093,-1.116784 L 37.28904,9.5581043 c -0.0168,-0.40626 0.03536,-0.636428 -0.03536,-0.689464 -0.07072,-0.05304 -0.0884,0.26518 -0.265179,0.141427 -0.176787,-0.12375 -0.194466,-0.03536 -0.318215,-0.159105 -0.123751,-0.123749 -0.335893,-0.424287 -0.335893,-0.424287 z"
           id="path54858"
           sodipodi:nodetypes="csssscssssscc" /><path
           style="opacity:0.99;fill:#666666;fill-opacity:1;fill-rule:nonzero;stroke:none;stroke-width:0.1;stroke-dasharray:none;stroke-opacity:1;paint-order:fill markers stroke"
           d="m 35.41638,9.2017613 c 0,0 0.03713,-0.500935 0.05481,-0.571649 0.01767,-0.07071 0.09697,-0.684667 0.298759,-0.562552 0.277524,0.181798 0.336118,0.25005 0.575179,0.402179 l -0.707141,0.717369 z"
           id="path54860"
           sodipodi:nodetypes="cscccc" /></g><path
         style="opacity:0.99;fill:#fde0a4;fill-opacity:1;fill-rule:nonzero;stroke:none;stroke-width:0.0354046;stroke-dasharray:none;stroke-opacity:1;paint-order:fill markers stroke"
         d="m 7.4221221,7.276172 c 0,0 0.2541307,-1.2525387 0.19154,-1.2900923 -0.062591,-0.037554 0.3630235,-0.062588 0.4631674,-0.2002871 0.1001446,-0.137699 0.2503611,-0.2879169 0.2879151,-0.4506504 0.037554,-0.1627335 0.075108,-0.3880587 0.075108,-0.5132386 0,-0.1251834 -0.037554,-0.4631694 -0.037554,-0.4631694 v -0.050073 c 0,0 1.5397181,0.075111 2.3408724,0.500723 0.801154,0.4256123 0.838709,0.4506504 0.838709,0.4506504 0,0 0.350505,-0.2753979 0.375541,-0.3254705 0.02504,-0.050073 0.162735,-0.1251799 0.162735,-0.1251799 l 0.162734,0.3505051 c 0,0 0.05007,1.5272001 -0.01252,1.7650443 -0.06259,0.2378407 -0.03755,0.1126609 -0.05007,0.1752526 -0.01252,0.062588 -0.05007,0.4256122 -0.05007,0.5382731 0,0.1126643 0.02504,0.4005777 0.01252,0.5132421 -0.01252,0.1126608 -0.200288,0.6634565 -0.200288,0.6634565 0,0 -0.363023,0.350505 -0.450649,0.3880587 -0.08763,0.037554 -0.525758,0.2253251 -0.588347,0.2503597 -0.06259,0.025031 -0.250362,0.050073 -0.312952,0.050073 h -0.588352 c -0.1251806,0 -0.4631677,-0.050073 -0.5758299,-0.075107 C 9.3536695,9.4035111 9.0782731,9.3409159 8.9155378,9.3158778 8.7528036,9.2908468 8.4648885,9.1781789 8.3397083,9.1155907 8.214528,9.052999 7.9766856,8.9528537 7.9266129,8.9278191 7.8765409,8.9027881 7.6512161,8.6899784 7.5761078,8.6524213 7.5009999,8.6148676 7.325747,8.4771687 7.2881927,8.4270996 7.2506387,8.3770269 7.1129409,8.2518435 7.1129409,8.2518435 V 8.08911 c 0,0 0.5152605,-0.9905662 0.3274896,-1.090708 C 7.25266,6.8982567 7.7048668,6.8401437 7.6047229,6.7149638 7.5045782,6.5897839 7.5738182,6.7443496 7.5738182,6.6942521 c 0,-0.050069 -0.1696154,0.064758 -0.1570964,-0.035405 0.012519,-0.1001453 0.3311919,-0.378634 0.3311919,-0.378634 0,0 -0.2886936,-0.2574725 -0.1384774,-0.3450988 0.1502165,-0.087626 -0.6265335,0.3418593 -0.5514252,0.3293402 0.075108,-0.012533 -0.2204656,0.3349944 -0.2204656,0.3349944 0,0 0.1752522,0.062592 0.2128061,0.1251798 0.037554,0.062592 0.1126623,0.1627371 0.1502166,0.2128062 0.037554,0.050073 0.1251802,0.162737 0.1502166,0.2128097 0.025035,0.050069 0.071339,0.1259127 0.071339,0.1259127 z"
         id="path20216"
         sodipodi:nodetypes="cssssccsccccsssccscsscccccccccssscsccscscc" /><path
         style="opacity:0.99;fill:#fde0a4;fill-opacity:0.992157;fill-rule:nonzero;stroke:none;stroke-width:0.032536;stroke-dasharray:none;stroke-opacity:1;paint-order:fill markers stroke"
         d="M 8.0255803,8.9311441 V 9.110388 c 0,0 -0.032484,0.2118321 0.2598853,0.2444203 0.2923715,0.03259 0.4385569,0.081477 0.4385569,0.081477 L 8.7565065,9.100461 c 0,0 -0.2598846,-0.055252 -0.4385562,-0.1041355 -0.1786718,-0.048886 -0.194914,-0.114065 -0.194914,-0.114065 z"
         id="path20220"
         sodipodi:nodetypes="ccsccscc" /><ellipse
         style="opacity:0.99;fill:#000000;fill-opacity:1;fill-rule:nonzero;stroke:#000000;stroke-width:0.0354046;stroke-dasharray:none;stroke-opacity:1;paint-order:fill markers stroke"
         id="ellipse20244"
         cx="9.9920893"
         cy="7.0688925"
         rx="0.27539682"
         ry="0.49446252" /><ellipse
         style="opacity:0.99;fill:#000000;fill-opacity:1;fill-rule:nonzero;stroke:#000000;stroke-width:0.0280677;stroke-dasharray:none;stroke-opacity:1;paint-order:fill markers stroke"
         id="ellipse20246"
         cx="11.730401"
         cy="7.0373049"
         rx="0.20082751"
         ry="0.4261522" /><ellipse
         style="opacity:0.99;fill:#ffffff;fill-opacity:1;fill-rule:nonzero;stroke:none;stroke-width:0.0354046;stroke-dasharray:none;stroke-opacity:1;paint-order:fill markers stroke"
         id="ellipse20248"
         cx="10.007737"
         cy="6.9061584"
         rx="0.19090009"
         ry="0.24410173" /><ellipse
         style="opacity:0.99;fill:#ffffff;fill-opacity:1;fill-rule:nonzero;stroke:none;stroke-width:0.0274684;stroke-dasharray:none;stroke-opacity:1;paint-order:fill markers stroke"
         id="ellipse20250"
         cx="11.725836"
         cy="6.8498235"
         rx="0.14166646"
         ry="0.19799763" /><path
         style="opacity:0.99;fill:#000000;fill-opacity:1;fill-rule:nonzero;stroke:#000000;stroke-width:0.0354046;stroke-dasharray:none;stroke-opacity:1;paint-order:fill markers stroke"
         d="M 9.2222301,5.8170867 C 9.3411508,5.7169413 9.5226632,5.5479483 9.6165483,5.5542079 c 0.093885,0.00627 0.2253248,0.018764 0.3254687,0.031298 0.100145,0.012533 0.244102,0.1064048 0.294175,0.1376989 0.05007,0.031298 0.131439,0.1877716 0.194029,0.2315847 0.06259,0.043813 0.118921,0.1815121 0.131439,0.1940311 0.01252,0.012533 0.05633,0.081367 0.05007,0.093882 -0.0063,0.012533 -0.112661,-0.078237 -0.162733,-0.090756 -0.05007,-0.012498 -0.215936,-0.109531 -0.25349,-0.1470846 -0.03755,-0.037554 -0.02504,-0.081367 -0.103275,-0.1157906 -0.07824,-0.034413 -0.2910436,-0.065721 -0.3160799,-0.071981 -0.025035,-0.00627 -0.1251803,-0.00627 -0.203418,-0.00627 -0.078238,0 -0.2628791,0.012533 -0.2847857,0.018764 -0.021905,0.00627 -0.087626,0.018764 -0.087626,0.018764 z"
         id="path20252" /><path
         style="opacity:0.99;fill:#000000;fill-opacity:1;fill-rule:nonzero;stroke:#000000;stroke-width:0.0354046;stroke-dasharray:none;stroke-opacity:1;paint-order:fill markers stroke"
         d="m 11.506772,6.2990311 c 0.01252,-0.031298 0.06885,-0.1877716 0.143957,-0.2315847 0.07511,-0.043813 0.206548,-0.1314394 0.237843,-0.1439549 0.03129,-0.012533 0.100144,0 0.156476,0.025031 0.05633,0.025031 0.112662,0.043813 0.09389,0.075107 -0.01878,0.031298 -0.05633,0.031298 -0.143958,0.050073 -0.08763,0.018764 -0.175252,0.050073 -0.206548,0.093886 -0.03129,0.043813 -0.11892,0.087626 -0.156475,0.1439584 -0.03755,0.056329 -0.112662,0.087626 -0.112662,0.062588 0,-0.025031 -0.01252,-0.075107 -0.01252,-0.075107 z"
         id="path20254" /><path
         style="opacity:0.99;fill:none;fill-opacity:1;fill-rule:nonzero;stroke:#000000;stroke-width:0.0354046;stroke-dasharray:none;stroke-opacity:1;paint-order:fill markers stroke"
         d="m 11.20175,7.4664821 c -0.0044,0.026553 -0.0089,0.097366 -0.0044,0.1283485 0.0044,0.030979 0.03098,0.075238 0.08409,0.084089 0.05311,0.00885 0.09294,0.026553 0.123923,0.044259 0.03098,0.017702 0.119497,0.088515 0.123922,0.1283486 0.0044,0.03983 -0.02655,0.1371997 -0.03983,0.1637531 -0.01328,0.026554 0.01328,0.084089 -0.03983,0.084089 -0.05311,0 -0.1372,-0.022128 -0.163755,-0.022128 -0.02655,0 -0.128347,-0.013277 -0.128347,-0.013277 l 0.04868,-0.00443 0.07524,0.022128"
         id="path20256" /><path
         style="opacity:0.99;fill:none;fill-opacity:1;fill-rule:nonzero;stroke:#000000;stroke-width:0.0354046;stroke-dasharray:none;stroke-opacity:1;paint-order:fill markers stroke"
         d="m 10.860964,8.7189818 c -0.02655,0.00885 -0.389469,0.05311 -0.482411,0.026553 -0.09294,-0.026553 -0.283251,-0.119497 -0.30538,-0.1504795 C 10.051045,8.5640763 9.9182694,8.4932636 9.8961409,8.4490044 9.874013,8.4047487 9.8695874,8.3162302 9.8695874,8.3162302 c 0,0 -0.08409,0.1106464 -0.1017934,0.1194975 -0.017702,0.00885 -0.061961,0.00885 -0.061961,0.00885"
         id="path20258" /><path
         style="opacity:0.99;fill:#fde0a4;fill-opacity:1;fill-rule:nonzero;stroke:none;stroke-width:0.0354046;stroke-dasharray:none;stroke-opacity:1;paint-order:fill markers stroke"
         d="m 7.4344549,7.0113282 c 0,0 0.2541307,-1.2525387 0.1915401,-1.2900923 C 7.5634043,5.6836823 7.9890184,5.6586477 8.0891623,5.5209488 8.1893069,5.3832499 8.3395234,5.2330319 8.3770774,5.0702984 8.4146317,4.907565 8.4521857,4.6822398 8.4521857,4.5570599 c 0,-0.1251834 -0.037554,-0.4631694 -0.037554,-0.4631694 v -0.050073 c 0,0 1.5397181,0.075111 2.3408723,0.500723 0.801154,0.4256123 0.838708,0.4506504 0.838708,0.4506504 0,0 0.350506,-0.2753978 0.375541,-0.3254705 0.02504,-0.050073 0.162736,-0.1251799 0.162736,-0.1251799 l 0.162733,0.3505051 c 0,0 0.05007,1.5272001 -0.01252,1.7650444 -0.06259,0.2378407 -0.03755,0.1126608 -0.05007,0.1752525 -0.01252,0.062588 -0.05007,0.4256123 -0.05007,0.5382731 0,0.1126644 0.02503,0.4005777 0.01252,0.5132421 -0.01252,0.1126608 -0.200288,0.6634565 -0.200288,0.6634565 0,0 -0.363024,0.3505051 -0.45065,0.3880587 -0.08763,0.037554 -0.525757,0.2253252 -0.588346,0.2503597 -0.06259,0.025031 -0.250362,0.050073 -0.312952,0.050073 h -0.588348 c -0.1251799,0 -0.463167,-0.050073 -0.5758292,-0.075107 C 9.3660023,9.1386674 9.0906059,9.0760721 8.9278706,9.051034 8.7651364,9.026003 8.4772213,8.9133351 8.3520411,8.8507469 8.2268608,8.7881552 7.9890184,8.6880099 7.9389457,8.6629754 7.8888738,8.6379443 7.6635489,8.4251347 7.5884407,8.3875775 7.5133327,8.3500239 7.3380798,8.212325 7.3005255,8.1622559 7.2629716,8.1121832 7.1252737,7.9869998 7.1252737,7.9869998 V 7.8242663 c 0,0 -0.1627342,0.1752525 -0.3505051,0.075111 C 6.5869981,7.7992317 6.6164915,7.633634 6.5163476,7.5084542 6.416203,7.3832743 6.7941856,6.9302235 6.7941856,6.8801508 c 0,-0.050069 -0.2069836,0.061926 -0.1944645,-0.038219 0.012519,-0.1001453 0.1207865,-0.2628788 0.1207865,-0.2628788 0,0 0.1988578,-0.3903564 0.3490744,-0.4779827 0.1502165,-0.087626 0.023505,0.092123 0.098612,0.079604 0.075108,-0.012533 -0.3183173,0.1539602 -0.3183173,0.1539602 0,0 0.1752521,0.062592 0.2128061,0.1251799 0.037554,0.062592 0.1126622,0.162737 0.1502166,0.2128061 0.037554,0.050073 0.1251802,0.1627371 0.1502165,0.2128097 0.025035,0.050069 0.071339,0.1259128 0.071339,0.1259128 z"
         id="path20216-7"
         sodipodi:nodetypes="cssssccsccccsssccscsscccccccccssscsccccscc" /><path
         style="opacity:0.99;fill:#fde0a4;fill-opacity:0.992157;fill-rule:nonzero;stroke:none;stroke-width:0.0384263;stroke-dasharray:none;stroke-opacity:1;paint-order:fill markers stroke"
         d="m 8.0379131,8.6856024 v 0.2500199 c 0,0 -0.032484,0.2954757 0.2598854,0.3409316 0.2923715,0.045459 0.4385569,0.1136487 0.4385569,0.1136487 l 0.032484,-0.4684271 c 0,0 -0.2598842,-0.077069 -0.4385561,-0.1452542 C 8.1516113,8.7083321 8.1353691,8.6174168 8.1353691,8.6174168 Z"
         id="path20220-9"
         sodipodi:nodetypes="ccsccscc" /><ellipse
         style="opacity:0.99;fill:#000000;fill-opacity:1;fill-rule:nonzero;stroke:#000000;stroke-width:0.0354046;stroke-dasharray:none;stroke-opacity:1;paint-order:fill markers stroke"
         id="ellipse20244-4"
         cx="10.004421"
         cy="6.8040495"
         rx="0.27539682"
         ry="0.49446252" /><ellipse
         style="opacity:0.99;fill:#000000;fill-opacity:1;fill-rule:nonzero;stroke:#000000;stroke-width:0.0280677;stroke-dasharray:none;stroke-opacity:1;paint-order:fill markers stroke"
         id="ellipse20246-6"
         cx="11.742733"
         cy="6.7724624"
         rx="0.20082751"
         ry="0.4261522" /><ellipse
         style="opacity:0.99;fill:#ffffff;fill-opacity:1;fill-rule:nonzero;stroke:none;stroke-width:0.0354046;stroke-dasharray:none;stroke-opacity:1;paint-order:fill markers stroke"
         id="ellipse20248-8"
         cx="10.020069"
         cy="6.6413159"
         rx="0.19090009"
         ry="0.24410173" /><ellipse
         style="opacity:0.99;fill:#ffffff;fill-opacity:1;fill-rule:nonzero;stroke:none;stroke-width:0.0274684;stroke-dasharray:none;stroke-opacity:1;paint-order:fill markers stroke"
         id="ellipse20250-0"
         cx="11.738169"
         cy="6.584981"
         rx="0.14166647"
         ry="0.19799763" /><path
         style="opacity:0.99;fill:#000000;fill-opacity:1;fill-rule:nonzero;stroke:#000000;stroke-width:0.0354046;stroke-dasharray:none;stroke-opacity:1;paint-order:fill markers stroke"
         d="M 9.2345629,5.5522429 C 9.3534836,5.4520976 9.534996,5.2831046 9.6288811,5.2893641 c 0.093885,0.00627 0.2253248,0.018764 0.3254687,0.031298 0.1001442,0.012533 0.2441022,0.1064049 0.2941742,0.137699 0.05007,0.031298 0.13144,0.1877715 0.19403,0.2315847 0.06259,0.043813 0.118921,0.181512 0.131439,0.1940311 0.01252,0.012533 0.05633,0.081367 0.05007,0.093882 -0.0063,0.012533 -0.112663,-0.078237 -0.162734,-0.090756 -0.05007,-0.012498 -0.215936,-0.1095311 -0.25349,-0.1470847 -0.03755,-0.037554 -0.02504,-0.081367 -0.103275,-0.1157906 -0.07824,-0.034413 -0.2910438,-0.065721 -0.3160801,-0.071981 -0.025035,-0.00627 -0.1251802,-0.00627 -0.2034179,-0.00627 -0.078238,0 -0.2628792,0.012533 -0.2847857,0.018764 -0.021905,0.00627 -0.087626,0.018765 -0.087626,0.018765 z"
         id="path20252-6" /><path
         style="opacity:0.99;fill:#000000;fill-opacity:1;fill-rule:nonzero;stroke:#000000;stroke-width:0.0354046;stroke-dasharray:none;stroke-opacity:1;paint-order:fill markers stroke"
         d="m 11.519105,6.0341874 c 0.01252,-0.031298 0.06885,-0.1877716 0.143957,-0.2315848 0.07511,-0.043813 0.206548,-0.1314393 0.237843,-0.1439549 0.03129,-0.012533 0.100144,0 0.156475,0.025031 0.05633,0.025031 0.112663,0.043813 0.09389,0.075107 -0.01878,0.031298 -0.05633,0.031298 -0.143958,0.050073 -0.08763,0.018764 -0.175252,0.050073 -0.206547,0.093886 -0.03129,0.043813 -0.118921,0.087626 -0.156475,0.1439585 -0.03755,0.056329 -0.112663,0.087626 -0.112663,0.062588 0,-0.025031 -0.01252,-0.075107 -0.01252,-0.075107 z"
         id="path20254-2" /><path
         style="opacity:0.99;fill:none;fill-opacity:1;fill-rule:nonzero;stroke:#000000;stroke-width:0.0354046;stroke-dasharray:none;stroke-opacity:1;paint-order:fill markers stroke"
         d="m 11.214083,7.2016383 c -0.0044,0.026553 -0.0089,0.097366 -0.0044,0.1283486 0.0044,0.030979 0.03098,0.075238 0.08409,0.084089 0.05311,0.00885 0.09294,0.026553 0.123922,0.044259 0.03098,0.017702 0.119497,0.088515 0.123922,0.1283486 0.0044,0.03983 -0.02655,0.1371997 -0.03983,0.1637531 -0.01328,0.026553 0.01328,0.084089 -0.03983,0.084089 -0.05311,0 -0.1372,-0.022128 -0.163755,-0.022128 -0.02655,0 -0.128347,-0.013277 -0.128347,-0.013277 l 0.04868,-0.00443 0.07524,0.022128"
         id="path20256-9" /><path
         style="opacity:0.99;fill:none;fill-opacity:1;fill-rule:nonzero;stroke:#000000;stroke-width:0.0354046;stroke-dasharray:none;stroke-opacity:1;paint-order:fill markers stroke"
         d="m 10.873297,8.4541381 c -0.02655,0.00885 -0.389469,0.05311 -0.482412,0.026553 C 10.297943,8.4541381 10.107635,8.361194 10.085506,8.3302115 10.063377,8.2992325 9.9306022,8.2284199 9.9084737,8.1841606 9.8863458,8.139905 9.8819203,8.0513865 9.8819203,8.0513865 c 0,0 -0.08409,0.1106463 -0.1017934,0.1194974 -0.017702,0.00885 -0.061961,0.00885 -0.061961,0.00885"
         id="path20258-6" /><path
         style="opacity:0.99;fill:#999999;fill-opacity:1;fill-rule:nonzero;stroke:none;stroke-width:0.1;stroke-dasharray:none;stroke-opacity:1;paint-order:fill markers stroke"
         d="m 7.8032719,2.4127761 c -0.3201431,0.2134293 1.1411047,2.0318779 3.1501611,1.9750996 2.014155,-0.056923 1.399114,-0.6783795 1.40007,-0.6750338 0.368866,1.46663 0.392663,5.4620443 -1.12328,5.8846154 C 9.5007828,10.351904 5.8959653,7.7979572 6.2031901,7.3630264 6.6377711,6.7478015 6.4366605,5.5644929 7.8032719,2.4127761 Z"
         id="path157"
         sodipodi:nodetypes="csccsc" /><ellipse
         style="opacity:0.99;fill:#9a9a99;fill-opacity:1;fill-rule:nonzero;stroke:none;stroke-width:0.0942533;stroke-dasharray:none;stroke-opacity:1;paint-order:fill markers stroke"
         id="path981"
         transform="matrix(0.9425613,0.33403324,-0.54042652,0.84139121,0,0)"
         ry="1.0356855"
         rx="2.4581196"
         cy="-0.14305653"
         cx="10.577373" /><path
         style="opacity:0.99;fill:#4d4d4d;fill-opacity:1;fill-rule:nonzero;stroke:none;stroke-width:0.0993317;stroke-dasharray:none;stroke-opacity:1;paint-order:fill markers stroke"
         d="m 11.482417,4.4415525 c 0,0 0.461375,1.9938959 0.06136,3.5726663 -0.40002,1.5787669 -0.350018,1.5787669 -0.350018,1.5787669 0,0 0.40002,-0.098672 0.500026,-0.3453537 0.100004,-0.2466848 0.800039,-1.8254517 0.700034,-2.5161626 -0.100004,-0.690711 -0.105551,-1.9794473 -0.105551,-1.9794473 0,0 0.194204,-0.5078145 -0.805846,-0.3104696 z"
         id="path983"
         sodipodi:nodetypes="cscsscc" /><path
         style="opacity:0.99;fill:#4d4d4d;fill-opacity:1;fill-rule:nonzero;stroke:none;stroke-width:0.1;stroke-dasharray:none;stroke-opacity:1;paint-order:fill markers stroke"
         d="M 12.499895,6.4469443 C 12.038475,6.6820482 10.570335,6.7380051 9.3480019,6.0983404 9.2068617,5.5799186 8.6644484,6.5242713 9.3816079,6.9215175 9.9002605,7.179167 10.894586,7.3624847 11.247792,7.346935 11.601021,7.331392 12.479381,7.25478 12.491565,7.0489774 c 0.01218,-0.2058066 0.04369,-0.7964962 0.04369,-0.7964962 z"
         id="path989"
         sodipodi:nodetypes="cccsccc" /><path
         style="opacity:0.99;fill:#808080;fill-opacity:1;fill-rule:nonzero;stroke:none;stroke-width:0.107975;stroke-dasharray:none;stroke-opacity:1;paint-order:fill markers stroke"
         d="m 9.9256088,2.5002785 c 0,0 -1.6905968,-0.2000074 -1.8509121,0.024996 -0.160315,0.2250101 0.029149,0.3875205 0.1020182,0.4375224 1.1938337,0.4640793 2.5157121,0.4531641 3.7892691,0.6125306"
         id="path1412"
         sodipodi:nodetypes="cscc" /><path
         style="opacity:0.99;fill:#666666;fill-opacity:0.423792;fill-rule:nonzero;stroke:none;stroke-width:0.093;stroke-dasharray:none;stroke-opacity:1;paint-order:fill markers stroke"
         d="M 7.0219579,7.981289 C 6.2165589,7.297397 6.6247068,7.2301425 6.5351244,7.3315801 6.4985016,5.422294 7.5070247,4.2560433 7.7454786,3.0676435 7.8425566,3.1593415 7.6027685,3.1453675 8.364381,3.6339853"
         id="path3187"
         sodipodi:nodetypes="cccc" /><path
         style="opacity:0.99;fill:#666666;fill-opacity:1;fill-rule:nonzero;stroke:none;stroke-width:0.0705928;stroke-dasharray:none;stroke-opacity:1;paint-order:fill markers stroke"
         d="m 11.848599,4.8877809 c 0,0 0.209541,1.7386432 -0.07001,3.0972752 -0.27955,1.3586355 -0.250446,1.3598109 -0.250446,1.3598109 0,0 0.235751,-0.076081 0.301259,-0.2874849 0.06551,-0.2114042 0.519682,-1.5629729 0.481912,-2.1638519 -0.03777,-0.600879 -0.0028,-1.7177404 -0.0028,-1.7177404 0,0 0.128063,-0.4354653 -0.459855,-0.2880089 z"
         id="path5668"
         sodipodi:nodetypes="cscsscc" /><path
         style="opacity:0.99;fill:#666666;fill-opacity:1;fill-rule:nonzero;stroke:none;stroke-width:0.0713168;stroke-dasharray:none;stroke-opacity:1;paint-order:fill markers stroke"
         d="M 12.502722,6.6607134 C 12.078187,6.7906764 10.727408,6.8216129 9.6027865,6.4680064 9.472929,6.1814243 8.9738753,6.7034609 9.6337085,6.9230576 10.1109,7.0654866 11.02574,7.1668215 11.350711,7.1582288 c 0.324993,-0.0086 1.133137,-0.050944 1.144347,-0.1647126 0.01121,-0.113769 0.04019,-0.4403016 0.04019,-0.4403016 z"
         id="path5670"
         sodipodi:nodetypes="cccsccc" /></g></g></svg>
