<?xml version="1.0" encoding="UTF-8" standalone="no"?>
<!-- Created with Inkscape (http://www.inkscape.org/) -->

<svg
   width="320"
   height="640"
   viewBox="0 0 84.666669 169.33333"
   version="1.1"
   id="svg5"
   inkscape:export-filename="bitmap.png"
   inkscape:export-xdpi="96"
   inkscape:export-ydpi="96"
   inkscape:version="1.2.1 (9c6d41e4, 2022-07-14)"
   sodipodi:docname="back_6.svg"
   xmlns:inkscape="http://www.inkscape.org/namespaces/inkscape"
   xmlns:sodipodi="http://sodipodi.sourceforge.net/DTD/sodipodi-0.dtd"
   xmlns="http://www.w3.org/2000/svg"
   xmlns:svg="http://www.w3.org/2000/svg">
  <sodipodi:namedview
     id="namedview7"
     pagecolor="#ffffff"
     bordercolor="#666666"
     borderopacity="1.0"
     inkscape:showpageshadow="2"
     inkscape:pageopacity="0.0"
     inkscape:pagecheckerboard="0"
     inkscape:deskcolor="#d1d1d1"
     inkscape:document-units="mm"
     showgrid="false"
     inkscape:zoom="3.7088614"
     inkscape:cx="185.09724"
     inkscape:cy="102.72694"
     inkscape:window-width="1792"
     inkscape:window-height="1022"
     inkscape:window-x="0"
     inkscape:window-y="25"
     inkscape:window-maximized="1"
     inkscape:current-layer="layer1" />
  <defs
     id="defs2" />
  <g
     inkscape:label="Layer 1"
     inkscape:groupmode="layer"
     id="layer1">
    <rect
       style="fill:#97ed92;fill-opacity:1;stroke:none;stroke-width:1.67641;stroke-linejoin:round"
       id="rect5154"
       width="93.597374"
       height="173.32306"
       x="-4.8185854"
       y="4.9085159" />
    <rect
       style="fill:#c9daf4;fill-opacity:1;stroke:none;stroke-width:0.526319;stroke-linejoin:round"
       id="rect5152"
       width="93.597374"
       height="17.084076"
       x="-4.8185854"
       y="0.14601609" />
    <rect
       style="fill:#afc6e9;fill-opacity:1;stroke:none;stroke-width:0.410001;stroke-linejoin:round"
       id="rect5098"
       width="93.597374"
       height="10.367259"
       x="-5.6946917"
       y="21.318588" />
    <rect
       style="fill:#916f6f;fill-opacity:1;stroke:none;stroke-width:0.710143;stroke-linejoin:round"
       id="rect3479"
       width="0.48363382"
       height="8.2217751"
       x="46.195637"
       y="1.5315064" />
    <path
       sodipodi:type="star"
       style="fill:#d35f5f;fill-opacity:1;stroke:none;stroke-width:0.410001;stroke-linejoin:round"
       id="path3481"
       inkscape:flatsided="false"
       sodipodi:sides="3"
       sodipodi:cx="12.332662"
       sodipodi:cy="28.211973"
       sodipodi:r1="3.8958464"
       sodipodi:r2="1.9479232"
       sodipodi:arg1="1.9974238"
       sodipodi:arg2="3.0446214"
       inkscape:rounded="0"
       inkscape:randomized="0"
       d="m 10.720549,31.758621 -0.326659,-3.358051 -0.326659,-3.358051 3.071487,1.39613 3.071487,1.396131 -2.744828,1.96192 z"
       inkscape:transform-center-x="-0.59736622"
       inkscape:transform-center-y="0.034161844"
       transform="matrix(0.64238668,0.04486864,-0.04486864,0.64238668,40.990034,-16.016358)" />
    <rect
       style="fill:#916f6f;fill-opacity:1;stroke:none;stroke-width:0.710143;stroke-linejoin:round"
       id="rect3483"
       width="0.48363382"
       height="8.2217751"
       x="77.945633"
       y="1.5315064" />
    <path
       sodipodi:type="star"
       style="fill:#d35f5f;fill-opacity:1;stroke:none;stroke-width:0.410001;stroke-linejoin:round"
       id="path3485"
       inkscape:flatsided="false"
       sodipodi:sides="3"
       sodipodi:cx="12.332662"
       sodipodi:cy="28.211973"
       sodipodi:r1="3.8958464"
       sodipodi:r2="1.9479232"
       sodipodi:arg1="1.9974238"
       sodipodi:arg2="3.0446214"
       inkscape:rounded="0"
       inkscape:randomized="0"
       d="m 10.720549,31.758621 -0.326659,-3.358051 -0.326659,-3.358051 3.071487,1.39613 3.071487,1.396131 -2.744828,1.96192 z"
       inkscape:transform-center-x="-0.59736622"
       inkscape:transform-center-y="0.034161844"
       transform="matrix(0.64238668,0.04486864,-0.04486864,0.64238668,72.740036,-16.016358)" />
    <rect
       style="fill:#916f6f;fill-opacity:1;stroke:none;stroke-width:0.710143;stroke-linejoin:round"
       id="rect3111"
       width="0.48363382"
       height="8.2217751"
       x="8.6248026"
       y="1.5315064" />
    <path
       sodipodi:type="star"
       style="fill:#d35f5f;fill-opacity:1;stroke:none;stroke-width:0.410001;stroke-linejoin:round"
       id="path3373"
       inkscape:flatsided="false"
       sodipodi:sides="3"
       sodipodi:cx="12.332662"
       sodipodi:cy="28.211973"
       sodipodi:r1="3.8958464"
       sodipodi:r2="1.9479232"
       sodipodi:arg1="1.9974238"
       sodipodi:arg2="3.0446214"
       inkscape:rounded="0"
       inkscape:randomized="0"
       d="m 10.720549,31.758621 -0.326659,-3.358051 -0.326659,-3.358051 3.071487,1.39613 3.071487,1.396131 -2.744828,1.96192 z"
       inkscape:transform-center-x="-0.59736622"
       inkscape:transform-center-y="0.034161844"
       transform="matrix(0.64238668,0.04486864,-0.04486864,0.64238668,3.419199,-16.016358)" />
    <rect
       style="fill:#cccccc;stroke:#999999;stroke-width:0.410001;stroke-linejoin:round"
       id="rect2291"
       width="4.6236219"
       height="3.650228"
       x="2.0317276"
       y="5.5970163" />
    <rect
       style="fill:#cccccc;stroke:#999999;stroke-width:0.410001;stroke-linejoin:round"
       id="rect2345"
       width="4.6236219"
       height="3.650228"
       x="4.6775608"
       y="9.3011847" />
    <rect
       style="fill:#cccccc;stroke:#999999;stroke-width:0.410001;stroke-linejoin:round"
       id="rect2347"
       width="4.6236219"
       height="3.650228"
       x="9.4400625"
       y="9.3011847" />
    <rect
       style="fill:#cccccc;stroke:#999999;stroke-width:0.410001;stroke-linejoin:round"
       id="rect2349"
       width="4.6236219"
       height="3.650228"
       x="11.556726"
       y="5.5970163" />
    <rect
       style="fill:#b5b5b5;stroke:#999999;stroke-width:0.410001;stroke-linejoin:round;fill-opacity:1"
       id="rect2351"
       width="4.6236219"
       height="3.650228"
       x="14.202559"
       y="9.3011847" />
    <rect
       style="fill:#cccccc;stroke:#999999;stroke-width:0.410001;stroke-linejoin:round"
       id="rect2353"
       width="4.6236219"
       height="3.650228"
       x="18.965059"
       y="9.3011847" />
    <rect
       style="fill:#b9b9b9;stroke:#999999;stroke-width:0.410001;stroke-linejoin:round;fill-opacity:1"
       id="rect2355"
       width="4.6236219"
       height="3.650228"
       x="21.081722"
       y="5.5970163" />
    <rect
       style="fill:#cccccc;stroke:#999999;stroke-width:0.410001;stroke-linejoin:round"
       id="rect2357"
       width="4.6236219"
       height="3.650228"
       x="23.727552"
       y="9.3011847" />
    <rect
       style="fill:#cccccc;stroke:#999999;stroke-width:0.410001;stroke-linejoin:round"
       id="rect2359"
       width="4.6236219"
       height="3.650228"
       x="28.490059"
       y="9.3011847" />
    <rect
       style="fill:#cccccc;stroke:#999999;stroke-width:0.410001;stroke-linejoin:round"
       id="rect2361"
       width="4.6236219"
       height="3.650228"
       x="30.077564"
       y="5.5970163" />
    <rect
       style="fill:#cccccc;stroke:#999999;stroke-width:0.410001;stroke-linejoin:round"
       id="rect2363"
       width="4.6236219"
       height="3.650228"
       x="32.723392"
       y="9.3011847" />
    <rect
       style="fill:#cccccc;stroke:#999999;stroke-width:0.410001;stroke-linejoin:round"
       id="rect2365"
       width="4.6236219"
       height="3.650228"
       x="37.485901"
       y="9.3011847" />
    <rect
       style="fill:#cccccc;stroke:#999999;stroke-width:0.410001;stroke-linejoin:round"
       id="rect2367"
       width="4.6236219"
       height="3.650228"
       x="39.602573"
       y="5.5970163" />
    <rect
       style="fill:#cccccc;stroke:#999999;stroke-width:0.410001;stroke-linejoin:round"
       id="rect2369"
       width="4.6236219"
       height="3.650228"
       x="42.248402"
       y="9.3011847" />
    <rect
       style="fill:#cccccc;stroke:#999999;stroke-width:0.410001;stroke-linejoin:round"
       id="rect2371"
       width="4.6236219"
       height="3.650228"
       x="47.01091"
       y="9.3011847" />
    <rect
       style="fill:#cccccc;stroke:#999999;stroke-width:0.410001;stroke-linejoin:round"
       id="rect2373"
       width="4.6236219"
       height="3.650228"
       x="49.127583"
       y="5.5970163" />
    <rect
       style="fill:#cccccc;stroke:#999999;stroke-width:0.410001;stroke-linejoin:round"
       id="rect2375"
       width="4.6236219"
       height="3.650228"
       x="51.773411"
       y="9.3011847" />
    <rect
       style="fill:#b5b5b5;stroke:#999999;stroke-width:0.410001;stroke-linejoin:round;fill-opacity:1"
       id="rect2377"
       width="4.6236219"
       height="3.650228"
       x="56.535919"
       y="9.3011847" />
    <rect
       style="fill:#cccccc;stroke:#999999;stroke-width:0.410001;stroke-linejoin:round"
       id="rect2379"
       width="4.6236219"
       height="3.650228"
       x="58.652592"
       y="5.5970163" />
    <rect
       style="fill:#cccccc;stroke:#999999;stroke-width:0.410001;stroke-linejoin:round"
       id="rect2381"
       width="4.6236219"
       height="3.650228"
       x="61.29842"
       y="9.3011847" />
    <rect
       style="fill:#cccccc;stroke:#999999;stroke-width:0.410001;stroke-linejoin:round"
       id="rect2383"
       width="4.6236219"
       height="3.650228"
       x="66.060928"
       y="9.3011847" />
    <rect
       style="fill:#cccccc;stroke:#999999;stroke-width:0.410001;stroke-linejoin:round"
       id="rect2385"
       width="4.6236219"
       height="3.650228"
       x="77.702583"
       y="5.5970163" />
    <rect
       style="fill:#cccccc;stroke:#999999;stroke-width:0.410001;stroke-linejoin:round"
       id="rect2387"
       width="4.6236219"
       height="3.650228"
       x="70.294258"
       y="9.3011847" />
    <rect
       style="fill:#cccccc;stroke:#999999;stroke-width:0.410001;stroke-linejoin:round"
       id="rect2389"
       width="4.6236219"
       height="3.650228"
       x="75.05677"
       y="9.3011847" />
    <rect
       style="fill:#cccccc;stroke:#999999;stroke-width:0.410001;stroke-linejoin:round"
       id="rect2391"
       width="4.6236219"
       height="3.650228"
       x="68.177589"
       y="5.5970163" />
    <rect
       style="fill:#cccccc;stroke:#999999;stroke-width:0.410001;stroke-linejoin:round"
       id="rect2393"
       width="4.6236219"
       height="3.650228"
       x="3.6192274"
       y="12.476182" />
    <rect
       style="fill:#cccccc;stroke:#999999;stroke-width:0.410001;stroke-linejoin:round"
       id="rect2395"
       width="4.6236219"
       height="3.650228"
       x="8.3817301"
       y="12.476182" />
    <rect
       style="fill:#cccccc;stroke:#999999;stroke-width:0.410001;stroke-linejoin:round"
       id="rect2397"
       width="4.6236219"
       height="3.650228"
       x="13.144227"
       y="12.476182" />
    <rect
       style="fill:#cccccc;stroke:#999999;stroke-width:0.410001;stroke-linejoin:round"
       id="rect2399"
       width="4.6236219"
       height="3.650228"
       x="17.906725"
       y="12.476182" />
    <rect
       style="fill:#b5b5b5;stroke:#999999;stroke-width:0.410001;stroke-linejoin:round;fill-opacity:1"
       id="rect2401"
       width="4.6236219"
       height="3.650228"
       x="22.669218"
       y="12.476182" />
    <rect
       style="fill:#cccccc;stroke:#999999;stroke-width:0.410001;stroke-linejoin:round"
       id="rect2403"
       width="4.6236219"
       height="3.650228"
       x="27.431725"
       y="12.476182" />
    <rect
       style="fill:#cccccc;stroke:#999999;stroke-width:0.410001;stroke-linejoin:round"
       id="rect2405"
       width="4.6236219"
       height="3.650228"
       x="31.665058"
       y="12.476182" />
    <rect
       style="fill:#cccccc;stroke:#999999;stroke-width:0.410001;stroke-linejoin:round"
       id="rect2407"
       width="4.6236219"
       height="3.650228"
       x="36.427567"
       y="12.476182" />
    <rect
       style="fill:#cccccc;stroke:#999999;stroke-width:0.410001;stroke-linejoin:round"
       id="rect2409"
       width="4.6236219"
       height="3.650228"
       x="41.190067"
       y="12.476182" />
    <rect
       style="fill:#b5b5b5;stroke:#999999;stroke-width:0.410001;stroke-linejoin:round;fill-opacity:1"
       id="rect2411"
       width="4.6236219"
       height="3.650228"
       x="45.952576"
       y="12.476182" />
    <rect
       style="fill:#cccccc;stroke:#999999;stroke-width:0.410001;stroke-linejoin:round"
       id="rect2413"
       width="4.6236219"
       height="3.650228"
       x="50.715076"
       y="12.476182" />
    <rect
       style="fill:#b5b5b5;stroke:#999999;stroke-width:0.410001;stroke-linejoin:round;fill-opacity:1"
       id="rect2415"
       width="4.6236219"
       height="3.650228"
       x="55.477585"
       y="12.476182" />
    <rect
       style="fill:#cccccc;stroke:#999999;stroke-width:0.410001;stroke-linejoin:round"
       id="rect2417"
       width="4.6236219"
       height="3.650228"
       x="60.240086"
       y="12.476182" />
    <rect
       style="fill:#cccccc;stroke:#999999;stroke-width:0.410001;stroke-linejoin:round"
       id="rect2419"
       width="4.6236219"
       height="3.650228"
       x="65.002594"
       y="12.476182" />
    <rect
       style="fill:#cccccc;stroke:#999999;stroke-width:0.410001;stroke-linejoin:round"
       id="rect2421"
       width="4.6236219"
       height="3.650228"
       x="69.235924"
       y="12.476182" />
    <rect
       style="fill:#cccccc;stroke:#999999;stroke-width:0.410001;stroke-linejoin:round"
       id="rect2423"
       width="4.6236219"
       height="3.650228"
       x="73.998436"
       y="12.476182" />
    <rect
       style="fill:#cccccc;stroke:#999999;stroke-width:0.410001;stroke-linejoin:round"
       id="rect2425"
       width="4.6236219"
       height="3.650228"
       x="4.6775608"
       y="15.651179" />
    <rect
       style="fill:#cccccc;stroke:#999999;stroke-width:0.410001;stroke-linejoin:round"
       id="rect2427"
       width="4.6236219"
       height="3.650228"
       x="9.4400625"
       y="15.651179" />
    <rect
       style="fill:#cccccc;stroke:#999999;stroke-width:0.410001;stroke-linejoin:round"
       id="rect2429"
       width="4.6236219"
       height="3.650228"
       x="14.202559"
       y="15.651179" />
    <rect
       style="fill:#cccccc;stroke:#999999;stroke-width:0.410001;stroke-linejoin:round"
       id="rect2431"
       width="4.6236219"
       height="3.650228"
       x="18.965059"
       y="15.651179" />
    <rect
       style="fill:#cccccc;stroke:#999999;stroke-width:0.410001;stroke-linejoin:round"
       id="rect2433"
       width="4.6236219"
       height="3.650228"
       x="23.727552"
       y="15.651179" />
    <rect
       style="fill:#b5b5b5;stroke:#999999;stroke-width:0.410001;stroke-linejoin:round;fill-opacity:1"
       id="rect2435"
       width="4.6236219"
       height="3.650228"
       x="28.490059"
       y="15.651179" />
    <rect
       style="fill:#cccccc;stroke:#999999;stroke-width:0.410001;stroke-linejoin:round"
       id="rect2437"
       width="4.6236219"
       height="3.650228"
       x="32.723392"
       y="15.651179" />
    <rect
       style="fill:#cccccc;stroke:#999999;stroke-width:0.410001;stroke-linejoin:round"
       id="rect2439"
       width="4.6236219"
       height="3.650228"
       x="37.485901"
       y="15.651179" />
    <rect
       style="fill:#cccccc;stroke:#999999;stroke-width:0.410001;stroke-linejoin:round"
       id="rect2441"
       width="4.6236219"
       height="3.650228"
       x="42.248402"
       y="15.651179" />
    <rect
       style="fill:#cccccc;stroke:#999999;stroke-width:0.410001;stroke-linejoin:round"
       id="rect2443"
       width="4.6236219"
       height="3.650228"
       x="47.01091"
       y="15.651179" />
    <rect
       style="fill:#cccccc;stroke:#999999;stroke-width:0.410001;stroke-linejoin:round"
       id="rect2445"
       width="4.6236219"
       height="3.650228"
       x="51.773411"
       y="15.651179" />
    <rect
       style="fill:#cccccc;stroke:#999999;stroke-width:0.410001;stroke-linejoin:round"
       id="rect2447"
       width="4.6236219"
       height="3.650228"
       x="56.535919"
       y="15.651179" />
    <rect
       style="fill:#cccccc;stroke:#999999;stroke-width:0.410001;stroke-linejoin:round"
       id="rect2449"
       width="4.6236219"
       height="3.650228"
       x="61.29842"
       y="15.651179" />
    <rect
       style="fill:#cccccc;stroke:#999999;stroke-width:0.410001;stroke-linejoin:round"
       id="rect2451"
       width="4.6236219"
       height="3.650228"
       x="66.060928"
       y="15.651179" />
    <rect
       style="fill:#b5b5b5;stroke:#999999;stroke-width:0.410001;stroke-linejoin:round;fill-opacity:1"
       id="rect2453"
       width="4.6236219"
       height="3.650228"
       x="70.294258"
       y="15.651179" />
    <rect
       style="fill:#cccccc;stroke:#999999;stroke-width:0.410001;stroke-linejoin:round"
       id="rect2455"
       width="4.6236219"
       height="3.650228"
       x="75.05677"
       y="15.651179" />
    <rect
       style="fill:#cccccc;stroke:#999999;stroke-width:0.410001;stroke-linejoin:round"
       id="rect2457"
       width="4.6236219"
       height="3.650228"
       x="4.1483941"
       y="18.297014" />
    <rect
       style="fill:#cccccc;stroke:#999999;stroke-width:0.410001;stroke-linejoin:round"
       id="rect2459"
       width="4.6236219"
       height="3.650228"
       x="8.9108963"
       y="18.297014" />
    <rect
       style="fill:#cccccc;stroke:#999999;stroke-width:0.410001;stroke-linejoin:round"
       id="rect2461"
       width="4.6236219"
       height="3.650228"
       x="13.673393"
       y="18.297014" />
    <rect
       style="fill:#cccccc;stroke:#999999;stroke-width:0.410001;stroke-linejoin:round"
       id="rect2463"
       width="4.6236219"
       height="3.650228"
       x="18.435892"
       y="18.297014" />
    <rect
       style="fill:#cccccc;stroke:#999999;stroke-width:0.410001;stroke-linejoin:round"
       id="rect2465"
       width="4.6236219"
       height="3.650228"
       x="23.198385"
       y="18.297014" />
    <rect
       style="fill:#cccccc;stroke:#999999;stroke-width:0.410001;stroke-linejoin:round"
       id="rect2467"
       width="4.6236219"
       height="3.650228"
       x="27.960892"
       y="18.297014" />
    <rect
       style="fill:#cccccc;stroke:#999999;stroke-width:0.410001;stroke-linejoin:round"
       id="rect2469"
       width="4.6236219"
       height="3.650228"
       x="32.194225"
       y="18.297014" />
    <rect
       style="fill:#cccccc;stroke:#999999;stroke-width:0.410001;stroke-linejoin:round"
       id="rect2471"
       width="4.6236219"
       height="3.650228"
       x="36.956734"
       y="18.297014" />
    <rect
       style="fill:#cccccc;stroke:#999999;stroke-width:0.410001;stroke-linejoin:round"
       id="rect2473"
       width="4.6236219"
       height="3.650228"
       x="41.719234"
       y="18.297014" />
    <rect
       style="fill:#cccccc;stroke:#999999;stroke-width:0.410001;stroke-linejoin:round"
       id="rect2475"
       width="4.6236219"
       height="3.650228"
       x="46.481743"
       y="18.297014" />
    <rect
       style="fill:#cccccc;stroke:#999999;stroke-width:0.410001;stroke-linejoin:round"
       id="rect2477"
       width="4.6236219"
       height="3.650228"
       x="51.244244"
       y="18.297014" />
    <rect
       style="fill:#cccccc;stroke:#999999;stroke-width:0.410001;stroke-linejoin:round"
       id="rect2479"
       width="4.6236219"
       height="3.650228"
       x="56.006752"
       y="18.297014" />
    <rect
       style="fill:#b5b5b5;stroke:#999999;stroke-width:0.410001;stroke-linejoin:round;fill-opacity:1"
       id="rect2481"
       width="4.6236219"
       height="3.650228"
       x="60.769253"
       y="18.297014" />
    <rect
       style="fill:#cccccc;stroke:#999999;stroke-width:0.410001;stroke-linejoin:round"
       id="rect2483"
       width="4.6236219"
       height="3.650228"
       x="65.531761"
       y="18.297014" />
    <rect
       style="fill:#cccccc;stroke:#999999;stroke-width:0.410001;stroke-linejoin:round"
       id="rect2485"
       width="4.6236219"
       height="3.650228"
       x="69.765091"
       y="18.297014" />
    <rect
       style="fill:#cccccc;stroke:#999999;stroke-width:0.410001;stroke-linejoin:round"
       id="rect2487"
       width="4.6236219"
       height="3.650228"
       x="74.527603"
       y="18.297014" />
    <rect
       style="fill:#cccccc;stroke:#999999;stroke-width:0.410001;stroke-linejoin:round"
       id="rect2489"
       width="4.6236219"
       height="3.650228"
       x="75.05677"
       y="9.3011847" />
    <rect
       style="fill:#cccccc;stroke:#999999;stroke-width:0.410001;stroke-linejoin:round"
       id="rect2491"
       width="4.6236219"
       height="3.650228"
       x="75.05677"
       y="12.476182" />
    <rect
       style="fill:#cccccc;stroke:#999999;stroke-width:0.410001;stroke-linejoin:round"
       id="rect2493"
       width="4.6236219"
       height="3.650228"
       x="75.05677"
       y="16.180346" />
    <rect
       style="fill:#cccccc;stroke:#999999;stroke-width:0.410001;stroke-linejoin:round"
       id="rect2495"
       width="4.6236219"
       height="3.650228"
       x="75.05677"
       y="18.297014" />
    <rect
       style="fill:#cccccc;stroke:#999999;stroke-width:0.410001;stroke-linejoin:round"
       id="rect2497"
       width="4.6236219"
       height="3.650228"
       x="3.6192694"
       y="9.3011847" />
    <rect
       style="fill:#cccccc;stroke:#999999;stroke-width:0.410001;stroke-linejoin:round"
       id="rect2499"
       width="4.6236219"
       height="3.650228"
       x="3.6192694"
       y="12.476182" />
    <rect
       style="fill:#cccccc;stroke:#999999;stroke-width:0.410001;stroke-linejoin:round"
       id="rect2501"
       width="4.6236219"
       height="3.650228"
       x="3.6192694"
       y="16.180346" />
    <rect
       style="fill:#cccccc;stroke:#999999;stroke-width:0.410001;stroke-linejoin:round"
       id="rect2503"
       width="4.6236219"
       height="3.650228"
       x="3.6192694"
       y="18.297014" />
    <rect
       style="fill:#918a6f;fill-opacity:1;stroke:none;stroke-width:0.410001;stroke-linejoin:round"
       id="rect5208"
       width="12.981937"
       height="12.092763"
       x="33.077267"
       y="9.6919947" />
    <rect
       style="fill:#6c6753;fill-opacity:1;stroke:none;stroke-width:0.285915;stroke-linejoin:round"
       id="rect5262"
       width="6.3131337"
       height="12.092763"
       x="33.077267"
       y="9.6919947" />
    <rect
       style="fill:#918a6f;fill-opacity:1;stroke:none;stroke-width:0.245645;stroke-linejoin:round"
       id="rect5264"
       width="5.4239597"
       height="10.389557"
       x="33.521854"
       y="10.543598" />
    <rect
       style="fill:#6c6753;fill-opacity:1;stroke:none;stroke-width:0.285915;stroke-linejoin:round"
       id="rect5266"
       width="6.3131337"
       height="12.092763"
       x="39.427265"
       y="9.6919947" />
    <rect
       style="fill:#918a6f;fill-opacity:1;stroke:none;stroke-width:0.245645;stroke-linejoin:round"
       id="rect5268"
       width="5.4239597"
       height="10.389557"
       x="39.871853"
       y="10.543598" />
    <rect
       style="fill:#484537;fill-opacity:1;stroke:none;stroke-width:0.68489;stroke-linejoin:round"
       id="rect5270"
       width="12.89302"
       height="9.6919947"
       x="32.899429"
       y="21.962593" />
    <rect
       style="fill:#6c6753;fill-opacity:1;stroke:none;stroke-width:0.254362;stroke-linejoin:round"
       id="rect5324"
       width="1.778347"
       height="9.6919947"
       x="32.899429"
       y="21.962593" />
    <rect
       style="fill:#6c6753;fill-opacity:1;stroke:none;stroke-width:0.254362;stroke-linejoin:round"
       id="rect5326"
       width="1.778347"
       height="9.6919947"
       x="32.899429"
       y="21.962593" />
    <rect
       style="fill:#6c6753;fill-opacity:1;stroke:none;stroke-width:0.263785;stroke-linejoin:round"
       id="rect5328"
       width="1.9125413"
       height="9.6919947"
       x="35.545261"
       y="21.962593" />
    <rect
       style="fill:#6c6753;fill-opacity:1;stroke:none;stroke-width:0.263785;stroke-linejoin:round"
       id="rect5330"
       width="1.9125413"
       height="9.6919947"
       x="38.390751"
       y="21.962593" />
    <rect
       style="fill:#6c6753;fill-opacity:1;stroke:none;stroke-width:0.263785;stroke-linejoin:round"
       id="rect5332"
       width="1.9125413"
       height="9.6919947"
       x="41.236244"
       y="21.962593" />
    <rect
       style="fill:#6c6753;fill-opacity:1;stroke:none;stroke-width:0.254362;stroke-linejoin:round"
       id="rect5334"
       width="1.778347"
       height="9.6919947"
       x="44.011936"
       y="21.962593" />
    <path
       style="fill:#dee3db;fill-opacity:1;stroke:none;stroke-width:0.410001;stroke-linejoin:round"
       id="path8305"
       d="m 18.912144,28.332483 c 0.311161,0.06773 0.604179,0.121716 0.910538,0.185766 0.293403,0.06752 0.595001,0.141105 0.911395,0.227878 0.267999,0.07325 0.537068,0.147415 0.809823,0.22493 0.146205,0.04631 0.279718,0.07907 0.435718,0.136152 0.121598,0.04633 0.235525,0.08206 0.347379,0.116877 0.336889,0.104394 0.67737,0.212363 1.011561,0.314042 0.168444,0.05018 0.08779,0.02519 0.240993,0.07402 0,0 -0.0282,-0.532447 -0.0282,-0.532447 v 0 c -0.170895,-0.0559 -0.08594,-0.02986 -0.254011,-0.0773 -0.326773,-0.09593 -0.662642,-0.199718 -1.011088,-0.317947 -0.0989,-0.02839 -0.205926,-0.06518 -0.307551,-0.101028 -0.175889,-0.06527 -0.324129,-0.106844 -0.481839,-0.152379 -0.27728,-0.08088 -0.542529,-0.15031 -0.814275,-0.226097 -0.329872,-0.09351 -0.626728,-0.158875 -0.943111,-0.24071 -0.302469,-0.06156 -0.586702,-0.10894 -0.915146,-0.190791 0,0 0.08782,0.559041 0.08782,0.559041 z" />
    <path
       style="fill:#dee3db;fill-opacity:1;stroke:none;stroke-width:0.410001;stroke-linejoin:round"
       id="path8307"
       d="m 25.731945,26.403871 c 0.240855,0.01103 0.539954,0.0611 0.827428,0.103817 0.115669,0.01474 0.271649,0.06431 0.422469,0.108696 0.184113,0.04988 0.399674,0.13692 0.605216,0.212096 0.232205,0.08783 0.457473,0.165883 0.685146,0.247496 0.188863,0.06552 0.386944,0.146902 0.581995,0.22243 0.154581,0.05424 0.305099,0.103884 0.462459,0.161632 0.144784,0.05713 0.269739,0.09108 0.404894,0.137342 0.05151,0.01881 0.02715,0.0097 0.07297,0.02716 0,0 0.007,-0.521034 0.007,-0.521034 v 0 c -0.05706,-0.02175 -0.02672,-0.01032 -0.09096,-0.03418 -0.136704,-0.04929 -0.249407,-0.07721 -0.389217,-0.128929 -0.158711,-0.06124 -0.314762,-0.11526 -0.460612,-0.161136 -0.196947,-0.07348 -0.401293,-0.159944 -0.593599,-0.225764 -0.229919,-0.08408 -0.451592,-0.157199 -0.686361,-0.24817 -0.216362,-0.07655 -0.447785,-0.172816 -0.652699,-0.234702 -0.153272,-0.03827 -0.344476,-0.110694 -0.475495,-0.128762 -0.278367,-0.03534 -0.578195,-0.08528 -0.839634,-0.109134 0,0 0.119002,0.571146 0.119002,0.571146 z" />
    <path
       style="fill:#dee3db;fill-opacity:1;stroke:none;stroke-width:0.410001;stroke-linejoin:round"
       id="path8309"
       d="m 60.713136,25.639615 c 0.601587,0.200073 1.215878,0.415246 1.835202,0.636778 0.287236,0.11301 0.560036,0.205835 0.840193,0.309149 0.149139,0.0509 0.305033,0.11326 0.454877,0.164923 0.193039,0.06877 0.378344,0.129741 0.562747,0.188798 0.133263,0.04216 0.261138,0.07887 0.389131,0.115909 0.117673,0.03508 0.240026,0.07565 0.351944,0.105122 0.0412,0.0083 0.01838,0.0024 0.06806,0.01749 0,0 -0.02412,-0.534205 -0.02412,-0.534205 v 0 c -0.08167,-0.02845 -0.03908,-0.01389 -0.127459,-0.0434 -0.08106,-0.008 -0.211653,-0.05482 -0.328404,-0.09397 -0.108553,-0.02408 -0.24724,-0.07471 -0.360386,-0.102122 -0.179041,-0.05651 -0.356576,-0.112939 -0.546347,-0.181438 -0.146962,-0.0511 -0.299148,-0.112299 -0.442587,-0.160123 -0.284012,-0.103341 -0.553875,-0.188358 -0.847453,-0.303728 -0.615219,-0.21582 -1.223637,-0.422879 -1.844463,-0.645919 0,0 0.01908,0.526741 0.01908,0.526741 z" />
    <path
       style="fill:#dee3db;fill-opacity:1;stroke:none;stroke-width:0.410001;stroke-linejoin:round"
       id="path8311"
       d="m 77.607154,28.194127 c 0.146058,0.07791 0.281974,0.172122 0.419759,0.263403 0.07193,0.04705 0.140536,0.09793 0.207973,0.150971 0.04448,0.03909 0.08069,0.08369 0.131503,0.115406 0.03347,0.02967 0.06761,0.06721 0.103716,0.09709 0.05532,0.04757 0.102931,0.102367 0.159351,0.14959 0.05695,0.05026 0.118367,0.09453 0.178001,0.141422 0.0092,0.0061 0.01847,0.01225 0.0277,0.01839 0,0 0.834613,-0.541436 0.834613,-0.541436 v 0 c -0.0081,-0.004 -0.01619,-0.008 -0.02426,-0.01196 -0.06314,-0.03511 -0.113972,-0.09157 -0.174487,-0.131535 -0.0571,-0.04929 -0.109302,-0.101039 -0.159599,-0.15513 -0.04584,-0.03222 -0.07965,-0.06956 -0.112663,-0.114361 -0.05564,-0.01902 -0.08594,-0.0583 -0.125621,-0.101328 -0.07472,-0.04475 -0.136544,-0.110548 -0.213654,-0.153297 -0.14143,-0.08444 -0.276095,-0.178858 -0.419018,-0.26077 0,0 -0.833297,0.533551 -0.833297,0.533551 z" />
    <path
       style="fill:#dee3db;fill-opacity:1;stroke:none;stroke-width:0.410001;stroke-linejoin:round"
       id="path8313"
       d="m 78.191947,27.909086 c 0.500198,0.178252 1.014559,0.376147 1.52242,0.565118 0.222294,0.08182 0.446909,0.167053 0.662834,0.240686 0.01814,0.0067 0.03624,0.01336 0.05435,0.02003 0,0 9.49e-4,-0.522528 9.49e-4,-0.522528 v 0 c -0.02212,-0.0083 -0.04419,-0.01654 -0.06631,-0.02482 -0.218491,-0.07898 -0.428838,-0.144071 -0.653994,-0.229857 -0.498432,-0.180139 -1.005928,-0.373332 -1.512722,-0.565743 0,0 -0.0075,0.517107 -0.0075,0.517107 z" />
  </g>
</svg>
