<?xml version="1.0" encoding="UTF-8" standalone="no"?>
<!-- Created with Inkscape (http://www.inkscape.org/) -->

<svg
   width="320"
   height="640"
   viewBox="0 0 84.666669 169.33333"
   version="1.1"
   id="svg5"
   inkscape:export-filename="bitmap.png"
   inkscape:export-xdpi="96"
   inkscape:export-ydpi="96"
   inkscape:version="1.2.1 (9c6d41e4, 2022-07-14)"
   sodipodi:docname="back_4.svg"
   xmlns:inkscape="http://www.inkscape.org/namespaces/inkscape"
   xmlns:sodipodi="http://sodipodi.sourceforge.net/DTD/sodipodi-0.dtd"
   xmlns="http://www.w3.org/2000/svg"
   xmlns:svg="http://www.w3.org/2000/svg">
  <sodipodi:namedview
     id="namedview7"
     pagecolor="#ffffff"
     bordercolor="#666666"
     borderopacity="1.0"
     inkscape:showpageshadow="2"
     inkscape:pageopacity="0.0"
     inkscape:pagecheckerboard="0"
     inkscape:deskcolor="#d1d1d1"
     inkscape:document-units="mm"
     showgrid="false"
     inkscape:zoom="3.7088614"
     inkscape:cx="194.26447"
     inkscape:cy="93.559711"
     inkscape:window-width="1792"
     inkscape:window-height="1022"
     inkscape:window-x="0"
     inkscape:window-y="25"
     inkscape:window-maximized="1"
     inkscape:current-layer="layer1" />
  <defs
     id="defs2" />
  <g
     inkscape:label="Layer 1"
     inkscape:groupmode="layer"
     id="layer1">
    <rect
       style="fill:#97ed92;fill-opacity:1;stroke:none;stroke-width:1.67641;stroke-linejoin:round"
       id="rect5154"
       width="93.597374"
       height="173.32306"
       x="-4.8185854"
       y="4.9085159" />
    <rect
       style="fill:#c9daf4;fill-opacity:1;stroke:none;stroke-width:0.526319;stroke-linejoin:round"
       id="rect5152"
       width="93.597374"
       height="17.084076"
       x="-4.8185854"
       y="0.14601609" />
    <rect
       style="fill:#afc6e9;fill-opacity:1;stroke:none;stroke-width:0.410001;stroke-linejoin:round"
       id="rect5098"
       width="93.597374"
       height="10.367259"
       x="-5.6946917"
       y="21.318588" />
    <rect
       style="fill:#916f6f;fill-opacity:1;stroke:none;stroke-width:0.710143;stroke-linejoin:round"
       id="rect3479"
       width="0.48363382"
       height="8.2217751"
       x="46.195637"
       y="1.5315064" />
    <rect
       style="fill:#916f6f;fill-opacity:1;stroke:none;stroke-width:0.710143;stroke-linejoin:round"
       id="rect3483"
       width="0.48363382"
       height="8.2217751"
       x="77.945633"
       y="1.5315064" />
    <rect
       style="fill:#916f6f;fill-opacity:1;stroke:none;stroke-width:0.710143;stroke-linejoin:round"
       id="rect3111"
       width="0.48363382"
       height="8.2217751"
       x="8.6248026"
       y="1.5315064" />
    <rect
       style="fill:#cccccc;stroke:#999999;stroke-width:0.410001;stroke-linejoin:round"
       id="rect2291"
       width="4.6236219"
       height="3.650228"
       x="2.0317276"
       y="5.5970163" />
    <rect
       style="fill:#cccccc;stroke:#999999;stroke-width:0.410001;stroke-linejoin:round"
       id="rect2345"
       width="4.6236219"
       height="3.650228"
       x="4.6775608"
       y="9.3011847" />
    <rect
       style="fill:#cccccc;stroke:#999999;stroke-width:0.410001;stroke-linejoin:round"
       id="rect2347"
       width="4.6236219"
       height="3.650228"
       x="9.4400625"
       y="9.3011847" />
    <rect
       style="fill:#cccccc;stroke:#999999;stroke-width:0.410001;stroke-linejoin:round"
       id="rect2349"
       width="4.6236219"
       height="3.650228"
       x="11.556726"
       y="5.5970163" />
    <rect
       style="fill:#b5b5b5;stroke:#999999;stroke-width:0.410001;stroke-linejoin:round;fill-opacity:1"
       id="rect2351"
       width="4.6236219"
       height="3.650228"
       x="14.202559"
       y="9.3011847" />
    <rect
       style="fill:#cccccc;stroke:#999999;stroke-width:0.410001;stroke-linejoin:round"
       id="rect2353"
       width="4.6236219"
       height="3.650228"
       x="18.965059"
       y="9.3011847" />
    <rect
       style="fill:#b9b9b9;stroke:#999999;stroke-width:0.410001;stroke-linejoin:round;fill-opacity:1"
       id="rect2355"
       width="4.6236219"
       height="3.650228"
       x="21.081722"
       y="5.5970163" />
    <rect
       style="fill:#cccccc;stroke:#999999;stroke-width:0.410001;stroke-linejoin:round"
       id="rect2357"
       width="4.6236219"
       height="3.650228"
       x="23.727552"
       y="9.3011847" />
    <rect
       style="fill:#cccccc;stroke:#999999;stroke-width:0.410001;stroke-linejoin:round"
       id="rect2359"
       width="4.6236219"
       height="3.650228"
       x="28.490059"
       y="9.3011847" />
    <rect
       style="fill:#cccccc;stroke:#999999;stroke-width:0.410001;stroke-linejoin:round"
       id="rect2361"
       width="4.6236219"
       height="3.650228"
       x="30.077564"
       y="5.5970163" />
    <rect
       style="fill:#cccccc;stroke:#999999;stroke-width:0.410001;stroke-linejoin:round"
       id="rect2363"
       width="4.6236219"
       height="3.650228"
       x="32.723392"
       y="9.3011847" />
    <rect
       style="fill:#cccccc;stroke:#999999;stroke-width:0.410001;stroke-linejoin:round"
       id="rect2365"
       width="4.6236219"
       height="3.650228"
       x="37.485901"
       y="9.3011847" />
    <rect
       style="fill:#cccccc;stroke:#999999;stroke-width:0.410001;stroke-linejoin:round"
       id="rect2367"
       width="4.6236219"
       height="3.650228"
       x="39.602573"
       y="5.5970163" />
    <rect
       style="fill:#cccccc;stroke:#999999;stroke-width:0.410001;stroke-linejoin:round"
       id="rect2369"
       width="4.6236219"
       height="3.650228"
       x="42.248402"
       y="9.3011847" />
    <rect
       style="fill:#cccccc;stroke:#999999;stroke-width:0.410001;stroke-linejoin:round"
       id="rect2371"
       width="4.6236219"
       height="3.650228"
       x="47.01091"
       y="9.3011847" />
    <rect
       style="fill:#cccccc;stroke:#999999;stroke-width:0.410001;stroke-linejoin:round"
       id="rect2373"
       width="4.6236219"
       height="3.650228"
       x="49.127583"
       y="5.5970163" />
    <rect
       style="fill:#cccccc;stroke:#999999;stroke-width:0.410001;stroke-linejoin:round"
       id="rect2375"
       width="4.6236219"
       height="3.650228"
       x="51.773411"
       y="9.3011847" />
    <rect
       style="fill:#b5b5b5;stroke:#999999;stroke-width:0.410001;stroke-linejoin:round;fill-opacity:1"
       id="rect2377"
       width="4.6236219"
       height="3.650228"
       x="56.535919"
       y="9.3011847" />
    <rect
       style="fill:#cccccc;stroke:#999999;stroke-width:0.410001;stroke-linejoin:round"
       id="rect2379"
       width="4.6236219"
       height="3.650228"
       x="58.652592"
       y="5.5970163" />
    <rect
       style="fill:#cccccc;stroke:#999999;stroke-width:0.410001;stroke-linejoin:round"
       id="rect2381"
       width="4.6236219"
       height="3.650228"
       x="61.29842"
       y="9.3011847" />
    <rect
       style="fill:#cccccc;stroke:#999999;stroke-width:0.410001;stroke-linejoin:round"
       id="rect2383"
       width="4.6236219"
       height="3.650228"
       x="66.060928"
       y="9.3011847" />
    <rect
       style="fill:#cccccc;stroke:#999999;stroke-width:0.410001;stroke-linejoin:round"
       id="rect2385"
       width="4.6236219"
       height="3.650228"
       x="77.702583"
       y="5.5970163" />
    <rect
       style="fill:#cccccc;stroke:#999999;stroke-width:0.410001;stroke-linejoin:round"
       id="rect2387"
       width="4.6236219"
       height="3.650228"
       x="70.294258"
       y="9.3011847" />
    <rect
       style="fill:#cccccc;stroke:#999999;stroke-width:0.410001;stroke-linejoin:round"
       id="rect2389"
       width="4.6236219"
       height="3.650228"
       x="75.05677"
       y="9.3011847" />
    <rect
       style="fill:#cccccc;stroke:#999999;stroke-width:0.410001;stroke-linejoin:round"
       id="rect2391"
       width="4.6236219"
       height="3.650228"
       x="68.177589"
       y="5.5970163" />
    <rect
       style="fill:#cccccc;stroke:#999999;stroke-width:0.410001;stroke-linejoin:round"
       id="rect2393"
       width="4.6236219"
       height="3.650228"
       x="3.6192274"
       y="12.476182" />
    <rect
       style="fill:#cccccc;stroke:#999999;stroke-width:0.410001;stroke-linejoin:round"
       id="rect2395"
       width="4.6236219"
       height="3.650228"
       x="8.3817301"
       y="12.476182" />
    <rect
       style="fill:#cccccc;stroke:#999999;stroke-width:0.410001;stroke-linejoin:round"
       id="rect2397"
       width="4.6236219"
       height="3.650228"
       x="13.144227"
       y="12.476182" />
    <rect
       style="fill:#cccccc;stroke:#999999;stroke-width:0.410001;stroke-linejoin:round"
       id="rect2399"
       width="4.6236219"
       height="3.650228"
       x="17.906725"
       y="12.476182" />
    <rect
       style="fill:#b5b5b5;stroke:#999999;stroke-width:0.410001;stroke-linejoin:round;fill-opacity:1"
       id="rect2401"
       width="4.6236219"
       height="3.650228"
       x="22.669218"
       y="12.476182" />
    <rect
       style="fill:#cccccc;stroke:#999999;stroke-width:0.410001;stroke-linejoin:round"
       id="rect2403"
       width="4.6236219"
       height="3.650228"
       x="27.431725"
       y="12.476182" />
    <rect
       style="fill:#cccccc;stroke:#999999;stroke-width:0.410001;stroke-linejoin:round"
       id="rect2405"
       width="4.6236219"
       height="3.650228"
       x="31.665058"
       y="12.476182" />
    <rect
       style="fill:#cccccc;stroke:#999999;stroke-width:0.410001;stroke-linejoin:round"
       id="rect2407"
       width="4.6236219"
       height="3.650228"
       x="36.427567"
       y="12.476182" />
    <rect
       style="fill:#cccccc;stroke:#999999;stroke-width:0.410001;stroke-linejoin:round"
       id="rect2409"
       width="4.6236219"
       height="3.650228"
       x="41.190067"
       y="12.476182" />
    <rect
       style="fill:#b5b5b5;stroke:#999999;stroke-width:0.410001;stroke-linejoin:round;fill-opacity:1"
       id="rect2411"
       width="4.6236219"
       height="3.650228"
       x="45.952576"
       y="12.476182" />
    <rect
       style="fill:#cccccc;stroke:#999999;stroke-width:0.410001;stroke-linejoin:round"
       id="rect2413"
       width="4.6236219"
       height="3.650228"
       x="50.715076"
       y="12.476182" />
    <rect
       style="fill:#b5b5b5;stroke:#999999;stroke-width:0.410001;stroke-linejoin:round;fill-opacity:1"
       id="rect2415"
       width="4.6236219"
       height="3.650228"
       x="55.477585"
       y="12.476182" />
    <rect
       style="fill:#cccccc;stroke:#999999;stroke-width:0.410001;stroke-linejoin:round"
       id="rect2417"
       width="4.6236219"
       height="3.650228"
       x="60.240086"
       y="12.476182" />
    <rect
       style="fill:#cccccc;stroke:#999999;stroke-width:0.410001;stroke-linejoin:round"
       id="rect2419"
       width="4.6236219"
       height="3.650228"
       x="65.002594"
       y="12.476182" />
    <rect
       style="fill:#cccccc;stroke:#999999;stroke-width:0.410001;stroke-linejoin:round"
       id="rect2421"
       width="4.6236219"
       height="3.650228"
       x="69.235924"
       y="12.476182" />
    <rect
       style="fill:#cccccc;stroke:#999999;stroke-width:0.410001;stroke-linejoin:round"
       id="rect2423"
       width="4.6236219"
       height="3.650228"
       x="73.998436"
       y="12.476182" />
    <rect
       style="fill:#cccccc;stroke:#999999;stroke-width:0.410001;stroke-linejoin:round"
       id="rect2425"
       width="4.6236219"
       height="3.650228"
       x="4.6775608"
       y="15.651179" />
    <rect
       style="fill:#cccccc;stroke:#999999;stroke-width:0.410001;stroke-linejoin:round"
       id="rect2427"
       width="4.6236219"
       height="3.650228"
       x="9.4400625"
       y="15.651179" />
    <rect
       style="fill:#cccccc;stroke:#999999;stroke-width:0.410001;stroke-linejoin:round"
       id="rect2429"
       width="4.6236219"
       height="3.650228"
       x="14.202559"
       y="15.651179" />
    <rect
       style="fill:#cccccc;stroke:#999999;stroke-width:0.410001;stroke-linejoin:round"
       id="rect2431"
       width="4.6236219"
       height="3.650228"
       x="18.965059"
       y="15.651179" />
    <rect
       style="fill:#cccccc;stroke:#999999;stroke-width:0.410001;stroke-linejoin:round"
       id="rect2433"
       width="4.6236219"
       height="3.650228"
       x="23.727552"
       y="15.651179" />
    <rect
       style="fill:#b5b5b5;stroke:#999999;stroke-width:0.410001;stroke-linejoin:round;fill-opacity:1"
       id="rect2435"
       width="4.6236219"
       height="3.650228"
       x="28.490059"
       y="15.651179" />
    <rect
       style="fill:#cccccc;stroke:#999999;stroke-width:0.410001;stroke-linejoin:round"
       id="rect2437"
       width="4.6236219"
       height="3.650228"
       x="32.723392"
       y="15.651179" />
    <rect
       style="fill:#cccccc;stroke:#999999;stroke-width:0.410001;stroke-linejoin:round"
       id="rect2439"
       width="4.6236219"
       height="3.650228"
       x="37.485901"
       y="15.651179" />
    <rect
       style="fill:#cccccc;stroke:#999999;stroke-width:0.410001;stroke-linejoin:round"
       id="rect2441"
       width="4.6236219"
       height="3.650228"
       x="42.248402"
       y="15.651179" />
    <rect
       style="fill:#cccccc;stroke:#999999;stroke-width:0.410001;stroke-linejoin:round"
       id="rect2443"
       width="4.6236219"
       height="3.650228"
       x="47.01091"
       y="15.651179" />
    <rect
       style="fill:#cccccc;stroke:#999999;stroke-width:0.410001;stroke-linejoin:round"
       id="rect2445"
       width="4.6236219"
       height="3.650228"
       x="51.773411"
       y="15.651179" />
    <rect
       style="fill:#cccccc;stroke:#999999;stroke-width:0.410001;stroke-linejoin:round"
       id="rect2447"
       width="4.6236219"
       height="3.650228"
       x="56.535919"
       y="15.651179" />
    <rect
       style="fill:#cccccc;stroke:#999999;stroke-width:0.410001;stroke-linejoin:round"
       id="rect2449"
       width="4.6236219"
       height="3.650228"
       x="61.29842"
       y="15.651179" />
    <rect
       style="fill:#cccccc;stroke:#999999;stroke-width:0.410001;stroke-linejoin:round"
       id="rect2451"
       width="4.6236219"
       height="3.650228"
       x="66.060928"
       y="15.651179" />
    <rect
       style="fill:#b5b5b5;stroke:#999999;stroke-width:0.410001;stroke-linejoin:round;fill-opacity:1"
       id="rect2453"
       width="4.6236219"
       height="3.650228"
       x="70.294258"
       y="15.651179" />
    <rect
       style="fill:#cccccc;stroke:#999999;stroke-width:0.410001;stroke-linejoin:round"
       id="rect2455"
       width="4.6236219"
       height="3.650228"
       x="75.05677"
       y="15.651179" />
    <rect
       style="fill:#cccccc;stroke:#999999;stroke-width:0.410001;stroke-linejoin:round"
       id="rect2457"
       width="4.6236219"
       height="3.650228"
       x="4.1483941"
       y="18.297014" />
    <rect
       style="fill:#cccccc;stroke:#999999;stroke-width:0.410001;stroke-linejoin:round"
       id="rect2459"
       width="4.6236219"
       height="3.650228"
       x="8.9108963"
       y="18.297014" />
    <rect
       style="fill:#cccccc;stroke:#999999;stroke-width:0.410001;stroke-linejoin:round"
       id="rect2461"
       width="4.6236219"
       height="3.650228"
       x="13.673393"
       y="18.297014" />
    <rect
       style="fill:#cccccc;stroke:#999999;stroke-width:0.410001;stroke-linejoin:round"
       id="rect2463"
       width="4.6236219"
       height="3.650228"
       x="18.435892"
       y="18.297014" />
    <rect
       style="fill:#cccccc;stroke:#999999;stroke-width:0.410001;stroke-linejoin:round"
       id="rect2465"
       width="4.6236219"
       height="3.650228"
       x="23.198385"
       y="18.297014" />
    <rect
       style="fill:#cccccc;stroke:#999999;stroke-width:0.410001;stroke-linejoin:round"
       id="rect2467"
       width="4.6236219"
       height="3.650228"
       x="27.960892"
       y="18.297014" />
    <rect
       style="fill:#cccccc;stroke:#999999;stroke-width:0.410001;stroke-linejoin:round"
       id="rect2469"
       width="4.6236219"
       height="3.650228"
       x="32.194225"
       y="18.297014" />
    <rect
       style="fill:#cccccc;stroke:#999999;stroke-width:0.410001;stroke-linejoin:round"
       id="rect2471"
       width="4.6236219"
       height="3.650228"
       x="36.956734"
       y="18.297014" />
    <rect
       style="fill:#cccccc;stroke:#999999;stroke-width:0.410001;stroke-linejoin:round"
       id="rect2473"
       width="4.6236219"
       height="3.650228"
       x="41.719234"
       y="18.297014" />
    <rect
       style="fill:#cccccc;stroke:#999999;stroke-width:0.410001;stroke-linejoin:round"
       id="rect2475"
       width="4.6236219"
       height="3.650228"
       x="46.481743"
       y="18.297014" />
    <rect
       style="fill:#cccccc;stroke:#999999;stroke-width:0.410001;stroke-linejoin:round"
       id="rect2477"
       width="4.6236219"
       height="3.650228"
       x="51.244244"
       y="18.297014" />
    <rect
       style="fill:#cccccc;stroke:#999999;stroke-width:0.410001;stroke-linejoin:round"
       id="rect2479"
       width="4.6236219"
       height="3.650228"
       x="56.006752"
       y="18.297014" />
    <rect
       style="fill:#b5b5b5;stroke:#999999;stroke-width:0.410001;stroke-linejoin:round;fill-opacity:1"
       id="rect2481"
       width="4.6236219"
       height="3.650228"
       x="60.769253"
       y="18.297014" />
    <rect
       style="fill:#cccccc;stroke:#999999;stroke-width:0.410001;stroke-linejoin:round"
       id="rect2483"
       width="4.6236219"
       height="3.650228"
       x="65.531761"
       y="18.297014" />
    <rect
       style="fill:#cccccc;stroke:#999999;stroke-width:0.410001;stroke-linejoin:round"
       id="rect2485"
       width="4.6236219"
       height="3.650228"
       x="69.765091"
       y="18.297014" />
    <rect
       style="fill:#cccccc;stroke:#999999;stroke-width:0.410001;stroke-linejoin:round"
       id="rect2487"
       width="4.6236219"
       height="3.650228"
       x="74.527603"
       y="18.297014" />
    <rect
       style="fill:#cccccc;stroke:#999999;stroke-width:0.410001;stroke-linejoin:round"
       id="rect2489"
       width="4.6236219"
       height="3.650228"
       x="75.05677"
       y="9.3011847" />
    <rect
       style="fill:#cccccc;stroke:#999999;stroke-width:0.410001;stroke-linejoin:round"
       id="rect2491"
       width="4.6236219"
       height="3.650228"
       x="75.05677"
       y="12.476182" />
    <rect
       style="fill:#cccccc;stroke:#999999;stroke-width:0.410001;stroke-linejoin:round"
       id="rect2493"
       width="4.6236219"
       height="3.650228"
       x="75.05677"
       y="16.180346" />
    <rect
       style="fill:#cccccc;stroke:#999999;stroke-width:0.410001;stroke-linejoin:round"
       id="rect2495"
       width="4.6236219"
       height="3.650228"
       x="75.05677"
       y="18.297014" />
    <rect
       style="fill:#cccccc;stroke:#999999;stroke-width:0.410001;stroke-linejoin:round"
       id="rect2497"
       width="4.6236219"
       height="3.650228"
       x="3.6192694"
       y="9.3011847" />
    <rect
       style="fill:#cccccc;stroke:#999999;stroke-width:0.410001;stroke-linejoin:round"
       id="rect2499"
       width="4.6236219"
       height="3.650228"
       x="3.6192694"
       y="12.476182" />
    <rect
       style="fill:#cccccc;stroke:#999999;stroke-width:0.410001;stroke-linejoin:round"
       id="rect2501"
       width="4.6236219"
       height="3.650228"
       x="3.6192694"
       y="16.180346" />
    <rect
       style="fill:#cccccc;stroke:#999999;stroke-width:0.410001;stroke-linejoin:round"
       id="rect2503"
       width="4.6236219"
       height="3.650228"
       x="3.6192694"
       y="18.297014" />
    <rect
       style="fill:#918a6f;fill-opacity:1;stroke:none;stroke-width:0.410001;stroke-linejoin:round"
       id="rect5208"
       width="12.981937"
       height="12.092763"
       x="33.077267"
       y="9.6919947" />
    <rect
       style="fill:#6c6753;fill-opacity:1;stroke:none;stroke-width:0.285915;stroke-linejoin:round"
       id="rect5262"
       width="6.3131337"
       height="12.092763"
       x="33.077267"
       y="9.6919947" />
    <rect
       style="fill:#918a6f;fill-opacity:1;stroke:none;stroke-width:0.245645;stroke-linejoin:round"
       id="rect5264"
       width="5.4239597"
       height="10.389557"
       x="33.521854"
       y="10.543598" />
    <rect
       style="fill:#6c6753;fill-opacity:1;stroke:none;stroke-width:0.285915;stroke-linejoin:round"
       id="rect5266"
       width="6.3131337"
       height="12.092763"
       x="39.427265"
       y="9.6919947" />
    <rect
       style="fill:#918a6f;fill-opacity:1;stroke:none;stroke-width:0.245645;stroke-linejoin:round"
       id="rect5268"
       width="5.4239597"
       height="10.389557"
       x="39.871853"
       y="10.543598" />
    <rect
       style="fill:#484537;fill-opacity:1;stroke:none;stroke-width:0.68489;stroke-linejoin:round"
       id="rect5270"
       width="12.89302"
       height="9.6919947"
       x="32.899429"
       y="21.962593" />
    <rect
       style="fill:#6c6753;fill-opacity:1;stroke:none;stroke-width:0.254362;stroke-linejoin:round"
       id="rect5324"
       width="1.778347"
       height="9.6919947"
       x="32.899429"
       y="21.962593" />
    <rect
       style="fill:#6c6753;fill-opacity:1;stroke:none;stroke-width:0.254362;stroke-linejoin:round"
       id="rect5326"
       width="1.778347"
       height="9.6919947"
       x="32.899429"
       y="21.962593" />
    <rect
       style="fill:#6c6753;fill-opacity:1;stroke:none;stroke-width:0.263785;stroke-linejoin:round"
       id="rect5328"
       width="1.9125413"
       height="9.6919947"
       x="35.545261"
       y="21.962593" />
    <rect
       style="fill:#6c6753;fill-opacity:1;stroke:none;stroke-width:0.263785;stroke-linejoin:round"
       id="rect5330"
       width="1.9125413"
       height="9.6919947"
       x="38.390751"
       y="21.962593" />
    <rect
       style="fill:#6c6753;fill-opacity:1;stroke:none;stroke-width:0.263785;stroke-linejoin:round"
       id="rect5332"
       width="1.9125413"
       height="9.6919947"
       x="41.236244"
       y="21.962593" />
    <rect
       style="fill:#6c6753;fill-opacity:1;stroke:none;stroke-width:0.254362;stroke-linejoin:round"
       id="rect5334"
       width="1.778347"
       height="9.6919947"
       x="44.011936"
       y="21.962593" />
    <path
       style="fill:#dee3db;fill-opacity:1;stroke:none;stroke-width:0.410001;stroke-linejoin:round"
       id="path5700"
       d="m 9.9993457,28.329577 c 0.1388803,0.02521 0.2844143,0.02397 0.4195583,0.067 0.06662,0.02074 0.123282,0.06207 0.181185,0.09962 0.04169,0.03738 0.10346,0.05 0.141976,0.09009 0.03004,0.03974 0.07157,0.07058 0.110581,0.101325 0.03876,0.03976 0.09413,0.04378 0.140791,0.06628 0.0592,0.03531 0.125277,0.05293 0.19241,0.06529 0.06733,0.0079 0.135227,0.0089 0.202948,0.0089 0.06195,0.01344 0.102725,-0.02246 0.155004,-0.04495 0.01005,-0.01873 0.05098,-0.0075 0.06084,-0.01304 0.29762,-0.16619 0.59044,-0.340839 0.884791,-0.512754 0.195841,-0.11438 -2.5034447,1.451141 0.06076,-0.03583 0.325037,-0.229775 -1.043571,0.618308 -0.788584,0.454041 0.285935,-0.184206 0.586875,-0.344006 0.880569,-0.51557 0.04033,-0.02355 0.0649,-0.03261 0.09301,-0.07087 0.0316,-0.03248 0.04976,-0.08718 0.08668,-0.114477 0.06509,-0.04811 -0.0083,0.03745 0.04969,-0.03842 0.04583,-0.06961 0.115671,-0.128704 0.155251,-0.200578 0.03624,-0.04208 0.04575,-0.102293 0.07645,-0.146876 0.007,-0.01013 0.01798,-0.01675 0.02696,-0.02513 0.0074,-0.01206 0.01484,-0.02413 0.02227,-0.0362 0.02563,-0.04147 0.01344,-0.02164 0.0366,-0.05948 0,0 -0.910031,0.401664 -0.910031,0.401664 v 0 c -0.02249,0.03567 -0.01048,0.01701 -0.03616,0.05586 -0.04706,0.06526 -0.0753,0.142854 -0.127476,0.205242 -0.05696,0.05981 -0.09852,0.132374 -0.162413,0.186156 -0.05392,0.04023 -0.08032,0.109355 -0.13816,0.146992 -0.01392,0.0071 -0.194824,0.117163 -0.09661,0.06129 1.683778,-0.957871 0.465478,-0.281165 -0.09438,0.05578 2.131873,-1.228614 -0.0042,0.0024 -0.06049,0.03538 -0.270961,0.15942 0.542263,-0.318389 0.81725,-0.470757 0.0074,-0.0041 -0.0028,0.01897 -0.01,0.02347 -0.01153,0.0071 -0.02914,-0.01135 -0.04065,0.0019 -0.05464,0.01492 -0.09695,0.0294 -0.136869,0.0728 -0.06536,0 -0.130721,0.0011 -0.196076,-2.65e-4 -0.0578,-0.0013 -0.115594,-0.0098 -0.169306,-0.0319 -0.04484,-0.02884 -0.08503,-0.04363 -0.134515,-0.05701 -0.03706,-0.02453 -0.06936,-0.05243 -0.09859,-0.08231 -0.0452,-0.05511 -0.10108,-0.07596 -0.157733,-0.115986 -0.06523,-0.03802 -0.126507,-0.08458 -0.195414,-0.113596 -0.138394,-0.05747 -0.287098,-0.05573 -0.433288,-0.08319 0,0 -0.808839,0.570299 -0.808839,0.570299 z" />
    <path
       style="fill:#dee3db;fill-opacity:1;stroke:none;stroke-width:0.410001;stroke-linejoin:round"
       id="path5702"
       d="m 19.415982,27.188168 c 0.183827,0.0245 0.36848,0.04201 0.553283,0.05714 0.103498,0.0072 0.207205,0.01183 0.310955,0.01254 0.07007,5.29e-4 0.14015,5.29e-4 0.210224,5.29e-4 0.06052,-0.0035 0.122192,0.0091 0.180557,-0.0074 0.09568,-0.02741 0.188131,-0.06219 0.282273,-0.09456 1.589976,-0.910477 0.793944,-0.455969 0.0788,-0.04149 -0.0108,0.0063 0.02244,-0.01098 0.03323,-0.01728 0.325274,-0.189641 0.629315,-0.358032 0.936998,-0.551075 0.0078,-0.0048 0.01782,-0.0072 0.02349,-0.01445 0.0071,-0.0091 0.0059,-0.02286 0.0129,-0.03203 0.01603,-0.02106 0.05716,-0.03948 0.07981,-0.05444 0.04548,-0.04869 0.07974,-0.09986 0.114354,-0.158038 0.02913,-0.0231 0.01516,-0.068 0.03241,-0.09552 0.01703,-0.02716 0.03567,-0.01617 0.05069,-0.05253 0.0037,-0.0082 0.0073,-0.01645 0.01095,-0.02467 0,0 -0.909141,0.406197 -0.909141,0.406197 v 0 c -0.0044,0.0062 -0.0089,0.01241 -0.01329,0.0186 -0.04237,0.04005 -0.0387,0.104875 -0.08219,0.146201 -0.03754,0.04979 -0.07566,0.09648 -0.129961,0.128473 -0.03914,0.03375 -0.06848,0.07398 -0.115947,0.09469 -0.389757,0.278178 1.101739,-0.625177 0.730113,-0.414848 -0.297231,0.168225 -0.59228,0.340288 -0.88962,0.508317 -0.271229,0.153273 0.540855,-0.309364 0.811283,-0.464047 -0.0812,0.05221 -0.180476,0.07892 -0.273329,0.101274 -0.01889,0.0082 -0.03267,0.02604 -0.05184,0.03353 -0.03102,0.01214 -0.07543,-0.0095 -0.107719,2.4e-5 -0.0706,5.29e-4 -0.1412,7.93e-4 -0.211802,0.0013 -0.103901,-1.25e-4 -0.207847,7.93e-4 -0.311663,-0.0045 -0.182917,-0.0093 -0.366219,-0.02183 -0.546977,-0.05241 0,0 -0.808839,0.570299 -0.808839,0.570299 z" />
    <path
       style="fill:#dee3db;fill-opacity:1;stroke:none;stroke-width:0.410001;stroke-linejoin:round"
       id="path5706"
       d="m 55.295347,27.26241 c 0.229624,0.0507 0.460666,0.09653 0.696359,0.09959 0.471819,-0.0054 0.654447,-0.265843 1.145469,-0.56016 0.06532,-0.0177 0.04953,-0.123606 0.105503,-0.133789 0.02439,-0.02183 0.0236,-0.05841 0.03759,-0.08386 0.01611,-0.02932 0.04152,-0.03731 0.05645,-0.07176 0.0218,-0.02479 0.04685,-0.07559 0.07183,-0.09778 0.06869,-0.06103 -0.01685,0.05006 0.04772,-0.0419 0.05182,-0.05898 0.120097,-0.102216 0.182073,-0.155313 0.04809,-0.04794 0.111554,-0.0837 0.155033,-0.136408 0.07684,-0.09316 -0.02461,0.0042 0.05768,-0.07045 0.08634,-0.04701 0.151066,-0.131536 0.219879,-0.201819 0.04067,-0.07537 0.134398,-0.09377 0.182025,-0.155937 -0.0226,0.01325 0.07793,-0.04652 0.05831,-0.03513 -2.742819,1.592073 2.007651,-1.154396 -0.722391,0.421698 0.328517,-0.182636 0.696042,-0.316153 0.970187,-0.57507 0.01082,-0.01008 0.0213,-0.0205 0.03157,-0.03112 0,0 -0.923642,0.378656 -0.923642,0.378656 v 0 c -0.01045,0.0086 -0.02088,0.0173 -0.03164,0.02554 -0.354888,0.260533 1.162484,-0.642346 0.727273,-0.421597 -2.958131,1.701193 1.920375,-1.113695 -0.976791,0.565699 -0.01405,0.0081 -0.04272,0.03562 -0.05378,0.04573 -0.07165,0.03814 -0.118361,0.106706 -0.176715,0.161599 -0.07073,0.07139 -0.14596,0.137036 -0.220138,0.203975 -0.06162,0.07498 -0.142097,0.131326 -0.215046,0.19476 -0.06543,0.05211 -0.128923,0.10496 -0.180012,0.171135 -0.04816,0.04234 -0.07951,0.101753 -0.113223,0.155313 -0.03953,0.04361 -0.05481,0.101841 -0.103029,0.13852 -0.01942,0.05797 -0.06236,0.08765 -0.106267,0.128063 0.274889,-0.159181 0.549778,-0.318362 0.824667,-0.477546 -0.03559,0.02344 -0.07582,0.05139 -0.117324,0.06285 -0.01995,0.0055 -0.125998,0.01508 -0.138756,0.01638 -0.228857,0.01252 -0.452715,-0.02159 -0.674566,-0.0789 0,0 -0.816292,0.559041 -0.816292,0.559041 z" />
    <path
       style="fill:#dee3db;fill-opacity:1;stroke:none;stroke-width:0.410001;stroke-linejoin:round"
       id="path5708"
       d="m 69.717636,28.109857 c 0.188875,-0.0354 0.373287,-0.09248 0.565102,-0.110128 0.121066,-0.0011 0.242039,0.01297 0.361585,0.03129 0.06375,0.0231 0.130294,0.04347 0.19077,0.07443 0.06738,0.03612 0.131173,0.07783 0.196707,0.117168 0.07854,0.03901 0.155951,0.07781 0.229905,0.125183 0.05621,0.04651 0.122425,0.07661 0.184232,0.113916 0.0607,0.03794 0.130082,0.05497 0.19286,0.0886 0.08331,0.05404 0.174601,0.09379 0.264729,0.134985 0.07155,0.02429 0.137377,0.05774 0.202813,0.09477 0.03358,0.01691 0.069,0.02954 0.104447,0.04184 0,0 0.813586,-0.576194 0.813586,-0.576194 v 0 c -0.02982,0.0074 -0.06005,-0.008 -0.08893,-0.015 -0.0723,-0.02371 -0.129198,-0.0849 -0.207809,-0.09542 -0.08847,-0.03376 -0.178776,-0.07425 -0.255915,-0.128418 -0.06276,-0.03526 -0.124698,-0.06452 -0.192538,-0.08679 -0.06069,-0.03254 -0.118671,-0.06605 -0.177874,-0.102881 -0.07023,-0.05935 -0.155024,-0.09814 -0.23867,-0.134821 -0.06797,-0.03641 -0.125965,-0.08608 -0.194474,-0.119314 -0.06597,-0.04004 -0.135292,-0.06371 -0.206541,-0.09354 -0.121018,-0.0444 -0.257191,-0.03336 -0.383776,-0.05189 -0.194048,-0.0028 -0.380256,0.05507 -0.567878,0.09918 0,0 -0.792329,0.593019 -0.792329,0.593019 z" />
    <path
       style="fill:#dee3db;fill-opacity:1;stroke:none;stroke-width:0.410001;stroke-linejoin:round"
       id="path6566"
       d="m 12.50935,28.041002 c 0.180134,-0.0028 0.360286,-2.65e-4 0.540433,-0.0011 0.115732,-0.0061 0.227222,0.0019 0.338102,0.03458 0.06023,0.01699 0.118225,0.02429 0.174042,0.05209 0.05123,0.02236 0.09207,0.06072 0.13937,0.08963 0.07088,0.0486 0.138685,0.101216 0.214186,0.142526 0.0846,0.04266 0.165257,0.09265 0.24676,0.140872 0.07,0.04006 0.140837,0.07791 0.210172,0.119062 0.06491,0.03398 0.133097,0.0641 0.19163,0.108635 0.05875,0.04613 0.128001,0.07486 0.19374,0.10931 0.05751,0.02196 0.107439,0.05474 0.160587,0.08488 0.05731,0.03347 0.114318,0.06621 0.175358,0.09266 0.04995,0.0094 0.0773,0.02455 0.120018,0.05119 0.04357,0.03448 0.102663,0.02676 0.150101,0.04576 0.02679,0.01847 0.05464,0.03396 0.08432,0.04723 0,0 0.826125,-0.557472 0.826125,-0.557472 v 0 c -0.02703,-0.0072 -0.05477,-0.01061 -0.07512,-0.03143 -0.04921,-0.03521 -0.09051,-0.04821 -0.151448,-0.04874 -0.04632,-0.02085 -0.073,-0.07009 -0.127717,-0.06283 -0.06128,-0.01916 -0.120443,-0.04102 -0.170196,-0.08315 -0.05754,-0.02487 -0.10065,-0.0689 -0.161775,-0.08437 -0.0625,-0.02972 -0.119709,-0.06247 -0.182178,-0.09124 -0.06093,-0.05163 -0.130023,-0.09183 -0.202577,-0.125045 -0.07106,-0.03107 -0.131281,-0.08433 -0.205514,-0.110659 -0.07845,-0.05539 -0.167594,-0.09753 -0.250287,-0.145153 -0.06949,-0.04193 -0.139423,-0.08156 -0.204142,-0.131463 -0.04423,-0.0407 -0.101141,-0.07087 -0.150142,-0.106845 -0.06255,-0.0318 -0.113923,-0.06443 -0.186421,-0.06736 -0.119799,-0.03085 -0.233846,-0.06982 -0.360504,-0.05136 -0.17912,-7.93e-4 -0.358246,0.0016 -0.537354,-0.0011 0,0 -0.799568,0.580919 -0.799568,0.580919 z" />
    <path
       style="fill:#dee3db;fill-opacity:1;stroke:none;stroke-width:0.410001;stroke-linejoin:round"
       id="path6568"
       d="m 21.462062,26.811681 c 0.26597,-0.07756 0.538961,-0.127098 0.812498,-0.168944 0.120102,-0.01849 0.2413,-0.02585 0.362637,-0.02847 0.06184,0.0013 0.120721,-0.01032 0.177212,0.01659 0.06878,0.02392 0.122695,0.07222 0.180791,0.114012 0.06713,0.05142 0.135382,0.102547 0.197496,0.160028 0.04999,0.04845 0.106618,0.08901 0.159033,0.134646 0.06735,0.05626 0.126085,0.121402 0.193664,0.177321 0.08478,0.05939 0.167973,0.120867 0.250533,0.183288 0.06675,0.05309 0.136105,0.09989 0.217319,0.126748 0.06311,0.0186 0.118826,0.05244 0.183503,0.06895 0.08805,0.01839 0.172047,0.0509 0.260074,0.07024 0.07687,0.01302 0.152157,0.01156 0.225827,0.03793 0.06468,0.02648 0.133079,0.0399 0.202103,0.04851 0.06579,0.0072 0.132038,0.0049 0.198081,0.005 0.07355,-0.0061 0.149326,0.0094 0.221975,-0.0031 0.05651,-0.03097 0.115299,-0.05068 0.178744,-0.06074 0.08149,0.0024 0.155701,-0.02643 0.232463,-0.04869 0,0 0.788017,-0.606764 0.788017,-0.606764 v 0 c -0.07468,0.02106 -0.147214,0.05391 -0.222019,0.06494 -0.06784,0.0011 -0.135456,0.003 -0.198033,0.03221 -0.0032,0.0028 -0.04148,0.0367 -0.04452,0.03771 -0.04594,0.01521 -0.106424,-0.01122 -0.153354,5.3e-4 -0.06413,2.64e-4 -0.128255,-1.27e-4 -0.192379,-1.91e-4 -0.06279,-7.94e-4 -0.125702,-0.0066 -0.186195,-0.02426 -0.07915,-0.03167 -0.149236,-0.0595 -0.236835,-0.05255 -0.08979,-0.01265 -0.177001,-0.03425 -0.260392,-0.07088 -0.06844,-0.0052 -0.124395,-0.02593 -0.18068,-0.06647 -0.07547,-0.0046 -0.134669,-0.04161 -0.194415,-0.08642 -0.07927,-0.06648 -0.166578,-0.125053 -0.250937,-0.185121 -0.07016,-0.04936 -0.124636,-0.117515 -0.188176,-0.17489 -0.05148,-0.04317 -0.103375,-0.08533 -0.156442,-0.1265 -0.06237,-0.06697 -0.142202,-0.115343 -0.208951,-0.177842 -0.066,-0.03759 -0.115704,-0.100514 -0.187597,-0.128262 -0.08164,-0.03372 -0.105342,-0.06448 -0.204207,-0.04992 -0.126279,6.5e-5 -0.252508,0.0045 -0.3777,0.02253 -0.275131,0.04111 -0.548645,0.09549 -0.819254,0.159728 0,0 -0.779882,0.598976 -0.779882,0.598976 z" />
    <path
       style="fill:#dee3db;fill-opacity:1;stroke:none;stroke-width:0.410001;stroke-linejoin:round"
       id="path6570"
       d="m 57.732826,26.04105 c 0.169823,-0.02695 0.34091,-0.04514 0.512313,-0.05832 0.147129,1.41e-4 0.2961,0.01894 0.439666,0.05142 0.111818,0.04897 0.229917,0.08344 0.338992,0.138392 0.09769,0.0469 0.199938,0.08378 0.295862,0.134253 0.07146,0.02547 0.128519,0.07032 0.190103,0.112066 0.05351,0.02379 0.100532,0.05803 0.151765,0.08617 0.06741,0.05576 0.143971,0.09804 0.220031,0.14047 0.06783,0.0446 0.14079,0.08034 0.211907,0.119306 0.04945,0.03073 0.109231,0.03653 0.156662,0.06955 0.04796,0.03411 0.103169,0.05549 0.156229,0.08045 0.0094,0.0043 0.01889,0.0085 0.02833,0.01283 0,0 0.827561,-0.552 0.827561,-0.552 v 0 c -0.0093,-0.0037 -0.01868,-0.0074 -0.02801,-0.01104 -0.04885,-0.0203 -0.08977,-0.05028 -0.1417,-0.06161 -0.05296,-0.04374 -0.103698,-0.06845 -0.170148,-0.08499 -0.07195,-0.02975 -0.137917,-0.07542 -0.206952,-0.110802 -0.0687,-0.04577 -0.147669,-0.07433 -0.210185,-0.129652 -0.04163,-0.04142 -0.107482,-0.07622 -0.159681,-0.09878 -0.06783,-0.03601 -0.117994,-0.09665 -0.196139,-0.114279 -0.0958,-0.05282 -0.196143,-0.09517 -0.297098,-0.13674 -0.114379,-0.05762 -0.234585,-0.09497 -0.351409,-0.148437 -0.145203,-0.05931 -0.307186,-0.05382 -0.460732,-0.08253 -0.172342,0.01025 -0.343548,0.03187 -0.515046,0.05124 0,0 -0.792329,0.59302 -0.792329,0.59302 z" />
    <path
       style="fill:#dee3db;fill-opacity:1;stroke:none;stroke-width:0.410001;stroke-linejoin:round"
       id="path6572"
       d="m 72.286812,28.81893 c 0.194815,-0.104934 0.399415,-0.189056 0.603062,-0.274881 0.158279,-0.0579 0.313303,-0.123764 0.461716,-0.203671 0.368742,-0.174136 0.687234,-0.382183 1.057807,-0.5974 0.08231,-0.03367 0.09933,-0.09516 0.175744,-0.137888 0.0069,-0.05667 0.05317,-0.0506 0.07718,-0.07712 0.05197,-0.05739 -0.02601,-0.0069 0.03863,-0.04347 0.0514,-0.02953 0.09536,-0.07035 0.137054,-0.112247 0.0349,-0.01879 0.03907,-0.05018 0.05854,-0.07851 0.01304,-0.019 0.04704,-0.03752 0.06553,-0.05196 0.04323,-0.03174 -0.0159,0.01728 0.02125,-0.04275 0.0079,-0.01273 0.03025,-0.01016 0.03888,-0.02236 0.01177,-0.01669 0.01474,-0.03814 0.02278,-0.05693 0.0094,-0.04485 0.03589,-0.06078 0.0652,-0.09172 -0.0056,-0.07954 0.06311,-0.04849 0.07921,-0.111194 0.06559,1.96e-4 0.05435,-0.08411 0.09918,-0.09623 0.0066,-0.0029 0.01521,-0.003 0.01982,-0.0085 0.0067,-0.008 0.0048,-0.02103 0.01156,-0.02893 0.01667,-0.01953 0.06146,-0.03634 0.08452,-0.04988 -0.272118,0.158583 -1.079984,0.648078 -0.816358,0.475744 0.282884,-0.18492 0.582025,-0.343704 0.874204,-0.513559 0.0089,-0.0052 0.03768,-0.01656 0.02877,-0.01138 -1.656699,0.965401 -1.053708,0.633865 -0.789561,0.453017 0.03355,-0.01431 0.06929,-0.01873 0.105341,-0.02072 0,0 0.804725,-0.587647 0.804725,-0.587647 v 0 c -0.04033,-1.64e-4 -0.08058,-0.003 -0.120793,0.0013 -0.353126,0.0029 -0.622525,0.333862 -0.92814,0.510794 -0.0093,0.0054 -0.03467,0.02553 -0.02532,0.02016 0.275185,-0.157528 1.093067,-0.643159 0.823097,-0.476853 -0.290073,0.178694 -0.588952,0.34268 -0.883428,0.514019 -0.0399,0.0326 -0.07228,0.07067 -0.107841,0.105188 -0.02061,0.04999 -0.07224,0.05643 -0.09436,0.108587 -0.05244,0.01551 -0.03973,0.07862 -0.08156,0.106061 -0.02437,0.03371 -0.03446,0.07182 -0.05818,0.105855 -0.02951,0.03567 -0.06155,0.06693 -0.09449,0.09516 -0.04108,0.04439 -0.07214,0.09385 -0.123034,0.128844 -0.0461,0.03718 -0.09477,0.07096 -0.138221,0.111104 -0.0315,0.03921 -0.07905,0.0818 -0.119131,0.112559 -0.05501,0.05101 -0.10712,0.09888 -0.175022,0.134385 1.440812,-0.824233 0.982056,-0.521931 0.636415,-0.388522 -0.146658,0.08851 -0.299958,0.166772 -0.462981,0.220533 -0.201692,0.08231 -0.404386,0.163319 -0.59854,0.262421 0,0 -0.773258,0.618535 -0.773258,0.618535 z" />
    <path
       style="fill:#dee3db;fill-opacity:1;stroke:none;stroke-width:0.410001;stroke-linejoin:round"
       id="path7434"
       d="m 61.34905,26.435978 c 0.167365,-0.180839 0.361154,-0.333978 0.559052,-0.4797 0.140674,-0.104808 0.290862,-0.197027 0.443047,-0.284263 -0.217395,0.116185 0.394666,-0.246808 0.183317,-0.124264 -2.629448,1.524611 1.982303,-1.147168 -0.667454,0.388871 2.36756,-1.374561 0.153387,-0.09042 0.114969,-0.06794 -0.01902,0.01114 0.03899,-0.02063 0.05882,-0.03028 0.05267,-0.02564 0.104957,-0.05157 0.157368,-0.07779 0.329489,-0.155611 0.61875,-0.347104 0.947254,-0.538225 0.0095,-0.0055 0.03484,-0.02642 0.02535,-0.02096 -0.265504,0.152593 -1.058553,0.616351 -0.793806,0.462448 0.05499,-0.02428 0.107868,-0.04525 0.162769,-0.07171 0.04466,-0.0285 0.09672,-0.03821 0.148495,-0.04388 0.06203,0.0066 0.113115,-0.01042 0.166481,-0.04172 0.04316,-0.01952 0.08892,-0.02584 0.135509,-0.03025 0.05399,-0.0025 0.108075,-0.0021 0.162113,-0.0018 0.05782,5.29e-4 0.115644,4.5e-4 0.173453,-8.73e-4 0.05866,0.0159 0.112117,0.04376 0.17168,0.05767 0.05177,0.01179 0.104865,0.01399 0.157724,0.01525 0.0036,-0.0022 0.0072,-0.0043 0.01079,-0.0065 0,0 0.827394,-0.554533 0.827394,-0.554533 v 0 c -0.01074,-0.0079 -0.02151,-0.01576 -0.03225,-0.02364 -0.04962,5.02e-4 -0.09944,0.0019 -0.148942,-0.0017 -0.06129,-0.0062 -0.116083,-0.01885 -0.169465,-0.05194 -0.05983,-0.02461 -0.120814,-0.01874 -0.184904,-0.0185 -0.05465,-4.1e-5 -0.109297,-4.76e-4 -0.163941,-0.0011 -0.05102,-0.0015 -0.102587,-0.0021 -0.152768,0.008 -0.03372,0.0042 -0.07852,0.01932 -0.105357,0.04188 -0.0068,0.0057 -0.0076,0.01776 -0.01558,0.0216 -0.0089,0.0043 -0.01974,1.7e-5 -0.0296,2.6e-5 -0.05805,-0.0012 -0.11511,3.17e-4 -0.172236,0.01215 -0.02667,0.01232 -0.06297,0.02255 -0.0866,0.03957 -0.0079,0.0057 -0.01032,0.01806 -0.01916,0.02226 -0.01749,0.0083 -0.04133,-0.0067 -0.05711,0.01066 -0.348826,0.126926 -0.02021,0.0054 -0.910145,0.520916 -0.009,0.0052 -0.036,0.02063 -0.02699,0.01548 1.402175,-0.801853 1.064638,-0.579552 0.754306,-0.438838 -0.584417,0.278381 -2.067023,1.190679 -0.336852,0.172059 -2.987018,1.729521 1.9778,-1.155038 -1.021193,0.591957 -0.06338,0.03692 -0.118753,0.08783 -0.185037,0.120359 -0.148936,0.09013 -0.295431,0.185071 -0.432384,0.29277 -0.196562,0.155732 -0.393436,0.312399 -0.558004,0.503098 0,0 0.909878,-0.386586 0.909878,-0.386586 z" />
    <path
       style="fill:#dee3db;fill-opacity:1;stroke:none;stroke-width:0.410001;stroke-linejoin:round"
       id="path7436"
       d="m 74.969168,27.106634 c 0.265306,-0.02657 0.531527,-0.0432 0.797864,-0.05499 0.105566,-0.0099 0.210471,0.0011 0.307229,0.04494 0.08431,0.04771 0.171617,0.09069 0.254714,0.140428 0.07899,0.05608 0.165103,0.100179 0.247725,0.150188 0.05831,0.03196 0.108484,0.07612 0.16252,0.114591 0.07483,0.06188 0.157821,0.112459 0.235752,0.170183 0.06203,0.03696 0.115958,0.08415 0.178265,0.120666 0.04783,0.04038 0.107209,0.06197 0.158049,0.09679 0.02127,0.01408 0.04285,0.02763 0.06444,0.0412 0,0 0.836091,-0.542366 0.836091,-0.542366 v 0 c -0.02138,-0.01156 -0.04269,-0.02326 -0.06343,-0.03593 -0.03606,-0.02225 -0.01765,-0.0088 -0.05412,-0.0418 -0.03222,-0.02029 -0.07957,-0.01931 -0.104757,-0.0547 -0.05741,-0.04077 -0.118409,-0.07728 -0.176329,-0.116085 -0.07813,-0.05513 -0.16044,-0.10558 -0.232669,-0.167815 -0.05387,-0.04543 -0.114366,-0.08532 -0.17108,-0.125434 -0.08339,-0.0458 -0.165785,-0.09246 -0.247012,-0.143243 -0.08184,-0.05929 -0.175448,-0.09857 -0.26026,-0.153143 -0.106542,-0.05406 -0.219033,-0.09537 -0.341363,-0.08208 -0.267205,0.01839 -0.534339,0.03786 -0.801656,0.05457 0,0 -0.789966,0.584042 -0.789966,0.584042 z" />
    <path
       style="fill:#dee3db;fill-opacity:1;stroke:none;stroke-width:0.410001;stroke-linejoin:round"
       id="path7438"
       d="m 25.424887,27.817506 c 0.17117,-0.09257 0.353092,-0.161526 0.529447,-0.24284 0.381336,-0.183719 0.290298,-0.136803 0.999659,-0.611389 0.05123,-0.03428 0.08487,-0.08955 0.130109,-0.131418 0.123772,-0.114533 0.256534,-0.198158 0.402315,-0.28053 -0.248341,0.144706 -0.497438,0.288123 -0.745027,0.434115 -0.02519,0.01484 0.05242,-0.02598 0.07772,-0.04064 0.30262,-0.175233 0.605745,-0.349644 0.905957,-0.528973 0.04315,-0.02578 0.068,-0.06626 0.112705,-0.09024 0.0476,-0.02892 0.03808,-0.089 0.06288,-0.128289 0.0085,-0.01347 0.02646,-0.01775 0.03962,-0.02672 0.0056,-0.0035 0.01339,-0.0048 0.01685,-0.01036 0.04076,-0.06605 -0.01326,-0.03777 0.07229,-0.07015 0.0092,-0.01102 0.0055,-0.06495 0.01971,-0.07285 0.0347,-0.01927 0.02917,0.03438 0.04852,-0.02543 0.01185,-0.04445 0.04095,-0.06928 0.07038,-0.102003 0.03379,-0.0086 0.0042,-0.07574 0.02535,-0.08985 0.04972,-0.03314 -0.0088,0.05937 0.03246,-0.01829 0.01916,-0.04233 0.05191,-0.07135 0.08304,-0.104415 0,0 -0.917541,0.387491 -0.917541,0.387491 v 0 c -0.02913,0.03615 -0.0511,0.07634 -0.0791,0.11332 -0.02734,0.02841 -0.0168,0.08309 -0.06082,0.101869 -0.02479,0.0329 -0.03885,0.07284 -0.07213,0.09829 -0.04817,0.0095 -0.02281,0.07684 -0.07795,0.07573 -0.0315,0.03322 -0.03953,0.07843 -0.07865,0.103295 -0.0309,0.05414 -0.0459,0.105418 -0.108826,0.133569 -0.02836,0.02633 -0.0296,0.02904 -0.06171,0.05228 -0.01527,0.01106 -0.06304,0.04126 -0.04663,0.03199 0.261279,-0.147535 0.521515,-0.296916 0.781399,-0.446893 0.02614,-0.01508 -0.05339,0.02811 -0.08008,0.04217 -0.310521,0.177563 -0.621043,0.355125 -0.931564,0.532687 -0.139684,0.08969 -0.262952,0.185441 -0.385624,0.297828 -0.04768,0.04368 -0.200356,0.159623 -0.141597,0.13262 0.104788,-0.04816 1.05235,-0.58338 0.678613,-0.372407 -0.175651,0.08034 -0.357142,0.149104 -0.525923,0.243277 0,0 -0.775839,0.613156 -0.775839,0.613156 z" />
    <path
       style="fill:#dee3db;fill-opacity:1;stroke:none;stroke-width:0.410001;stroke-linejoin:round"
       id="path7440"
       d="m 15.576178,29.248018 c 0.180163,-0.04175 0.345576,-0.121825 0.512326,-0.198705 0.01978,-0.0094 0.0403,-0.01746 0.05935,-0.02829 0.299337,-0.170397 0.594363,-0.348387 0.895643,-0.515323 0.270499,-0.149881 -1.06564,0.62788 -0.80329,0.46415 0.290606,-0.181364 0.592058,-0.344744 0.888105,-0.517083 0.04458,-0.02595 0.03409,-0.01984 0.0768,-0.04413 0.07343,-0.04238 0.121686,-0.123087 0.200514,-0.154093 0.0086,-0.0097 0.01574,-0.02098 0.02585,-0.02911 0.01921,-0.01548 0.04298,-0.02421 0.06459,-0.03612 0.0088,-0.0049 0.03533,-0.01942 0.02661,-0.01437 -0.866464,0.502542 -1.102847,0.648129 -0.816617,0.472054 0.238337,-0.264694 0.201901,-0.227293 0.907844,-0.518324 0.291086,-0.120004 -1.055264,0.679262 -0.818006,0.472281 0.25537,-0.222779 0.584698,-0.342897 0.873306,-0.520525 0.02242,-0.0356 0.0076,-0.02291 0.04267,-0.03995 0.06285,-0.02874 0.09859,-0.07227 0.12378,-0.133781 0.0029,-0.008 0.0024,-0.01828 0.0088,-0.02392 0.0054,-0.0048 0.0143,-0.0013 0.02135,-0.0028 0.03143,-0.0061 0.03652,-0.04711 0.04875,-0.07453 0.0021,-0.0051 9.26e-4,-0.01434 0.0064,-0.01543 0.0078,-0.0016 0.0144,0.01286 0.02176,0.0098 0.02873,-0.01183 0.0027,-0.06169 0.059,-0.05986 0,0 -0.926524,0.366101 -0.926524,0.366101 v 0 c -0.02078,0.04375 -0.06279,0.05766 -0.0717,0.103735 -0.02826,0.03502 -0.06828,0.0491 -0.07828,0.0992 -0.03912,0.04069 -0.09735,0.06132 -0.135958,0.103817 -0.01199,0.01527 -0.05829,0.05055 -0.04148,0.04087 0.274378,-0.158048 1.103449,-0.621149 0.821793,-0.476467 -0.512735,0.263385 -1.771207,1.044004 -0.06151,0.04676 0.0075,-0.0044 -0.01723,-0.0019 -0.02584,-0.0029 -0.350322,0.172776 -0.689528,0.365371 -1.00251,0.594207 -0.06087,0.05785 -0.127442,0.109664 -0.200918,0.150709 -0.0249,0.0158 -0.09962,0.06306 -0.07398,0.04849 0.270365,-0.153644 1.082986,-0.61172 0.8093,-0.464074 -0.06776,0.03655 -2.172439,1.241869 -0.09566,0.05091 0.01892,-0.01085 -0.03755,0.0222 -0.05632,0.03329 -0.165105,0.0756 -0.322773,0.170651 -0.501992,0.209749 0,0 -0.783927,0.603586 -0.783927,0.603586 z" />
    <path
       style="fill:#dee3db;fill-opacity:1;stroke:none;stroke-width:0.410001;stroke-linejoin:round"
       id="path7442"
       d="m 15.41732,29.045863 c 0.158718,0.04315 0.317768,0.08515 0.479675,0.11454 0.100944,0.02609 0.196452,0.0149 0.2957,-0.0087 0.374299,-0.113792 0.837042,-0.445632 1.082301,-0.586671 0.29199,-0.242118 0.693174,-0.421381 -0.688442,0.375708 0.290692,-0.171283 0.581385,-0.342564 0.872078,-0.513844 0.01703,-0.0073 0.01195,-0.03505 0.02646,-0.04429 0.0063,-0.004 0.01642,0.0031 0.02244,-0.0013 0.01792,-0.01331 0.02376,-0.03787 0.03747,-0.05546 0.04393,-0.06391 0.11252,-0.09166 0.16012,-0.151776 0.05178,-0.04561 0.09437,-0.09678 0.134759,-0.15472 0.04798,-0.04451 0.06518,-0.06703 0.07765,-0.129921 0.0013,-0.007 -0.002,-0.01691 0.0038,-0.0209 0.0369,-0.02529 0.03429,0.05942 0.06437,-0.0517 0.01722,-0.0186 -0.0065,-0.05436 0.0067,-0.07265 0.01556,-0.02159 0.02323,0.02344 0.04462,-0.03706 0.01259,-0.03015 0.0065,-0.01566 0.01814,-0.04347 0,0 -0.907509,0.411737 -0.907509,0.411737 v 0 c -0.01293,0.02259 -0.0058,0.01119 -0.02158,0.0341 -0.03621,0.03227 -0.0156,0.08047 -0.05129,0.112516 -0.04719,0.034 0.03046,-0.01788 -0.03002,0.0065 -0.02938,0.01185 -0.01558,0.06149 -0.03055,0.08146 -0.02418,0.03607 -0.07015,0.06047 -0.08942,0.103092 -0.04222,0.05075 -0.09267,0.09201 -0.137276,0.140433 -0.06054,0.04565 -0.110467,0.0995 -0.158219,0.158268 -0.255112,0.255035 -0.59522,0.425863 0.734775,-0.392014 -0.385355,0.2204 -0.687185,0.375367 -1.016205,0.601644 1.449932,-0.832877 0.964232,-0.540968 0.633193,-0.373111 -0.09224,0.02514 -0.177946,0.06547 -0.275193,0.04322 -0.160215,-0.02024 -0.318441,-0.05538 -0.472301,-0.104577 0,0 -0.816291,0.559041 -0.816291,0.559041 z" />
    <path
       sodipodi:type="star"
       style="fill:#d35f5f;fill-opacity:1;stroke:none;stroke-width:0.410001;stroke-linejoin:round"
       id="path3481-9"
       inkscape:flatsided="false"
       sodipodi:sides="3"
       sodipodi:cx="12.332662"
       sodipodi:cy="28.211973"
       sodipodi:r1="3.8958464"
       sodipodi:r2="1.9479232"
       sodipodi:arg1="1.9974238"
       sodipodi:arg2="3.0446214"
       inkscape:rounded="0"
       inkscape:randomized="0"
       d="m 10.720549,31.758621 -0.326659,-3.358051 -0.326659,-3.358051 3.071487,1.39613 3.071487,1.396131 -2.744828,1.96192 z"
       inkscape:transform-center-x="-0.58621308"
       inkscape:transform-center-y="0.026867776"
       transform="matrix(0.63039293,0.03528891,-0.04403091,0.50523311,41.198716,-12.611222)" />
    <path
       sodipodi:type="star"
       style="fill:#d35f5f;fill-opacity:1;stroke:none;stroke-width:0.410001;stroke-linejoin:round"
       id="path3485-3"
       inkscape:flatsided="false"
       sodipodi:sides="3"
       sodipodi:cx="12.332662"
       sodipodi:cy="28.211973"
       sodipodi:r1="3.8958464"
       sodipodi:r2="1.9479232"
       sodipodi:arg1="1.9974238"
       sodipodi:arg2="3.0446214"
       inkscape:rounded="0"
       inkscape:randomized="0"
       d="m 10.720549,31.758621 -0.326659,-3.358051 -0.326659,-3.358051 3.071487,1.39613 3.071487,1.396131 -2.744828,1.96192 z"
       inkscape:transform-center-x="-0.60851941"
       inkscape:transform-center-y="0.030234144"
       transform="matrix(0.65438043,0.03971031,-0.04570637,0.56853476,72.749188,-13.741599)" />
    <path
       sodipodi:type="star"
       style="fill:#d35f5f;fill-opacity:1;stroke:none;stroke-width:0.410001;stroke-linejoin:round"
       id="path3373-8"
       inkscape:flatsided="false"
       sodipodi:sides="3"
       sodipodi:cx="12.332662"
       sodipodi:cy="28.211973"
       sodipodi:r1="3.8958464"
       sodipodi:r2="1.9479232"
       sodipodi:arg1="1.9974238"
       sodipodi:arg2="3.0446214"
       inkscape:rounded="0"
       inkscape:randomized="0"
       d="m 10.720549,31.758621 -0.326659,-3.358051 -0.326659,-3.358051 3.071487,1.39613 3.071487,1.396131 -2.744828,1.96192 z"
       inkscape:transform-center-x="-0.39660879"
       inkscape:transform-center-y="0.034161844"
       transform="matrix(0.42649917,0.04486864,-0.02978959,0.64238668,5.3238877,-16.142334)" />
  </g>
</svg>
