<?xml version="1.0" encoding="UTF-8" standalone="no"?>
<!-- Created with Inkscape (http://www.inkscape.org/) -->

<svg
   width="320"
   height="640"
   viewBox="0 0 84.666669 169.33333"
   version="1.1"
   id="svg5"
   inkscape:export-filename="bitmap.png"
   inkscape:export-xdpi="96"
   inkscape:export-ydpi="96"
   inkscape:version="1.2.1 (9c6d41e4, 2022-07-14)"
   sodipodi:docname="back_2.svg"
   xmlns:inkscape="http://www.inkscape.org/namespaces/inkscape"
   xmlns:sodipodi="http://sodipodi.sourceforge.net/DTD/sodipodi-0.dtd"
   xmlns="http://www.w3.org/2000/svg"
   xmlns:svg="http://www.w3.org/2000/svg">
  <sodipodi:namedview
     id="namedview7"
     pagecolor="#ffffff"
     bordercolor="#666666"
     borderopacity="1.0"
     inkscape:showpageshadow="2"
     inkscape:pageopacity="0.0"
     inkscape:pagecheckerboard="0"
     inkscape:deskcolor="#d1d1d1"
     inkscape:document-units="mm"
     showgrid="false"
     inkscape:zoom="3.7088614"
     inkscape:cx="170.26789"
     inkscape:cy="93.559711"
     inkscape:window-width="1792"
     inkscape:window-height="1022"
     inkscape:window-x="0"
     inkscape:window-y="25"
     inkscape:window-maximized="1"
     inkscape:current-layer="layer1" />
  <defs
     id="defs2" />
  <g
     inkscape:label="Layer 1"
     inkscape:groupmode="layer"
     id="layer1">
    <rect
       style="fill:#97ed92;fill-opacity:1;stroke:none;stroke-width:1.67641;stroke-linejoin:round"
       id="rect5154"
       width="93.597374"
       height="173.32306"
       x="-4.8185854"
       y="4.9085159" />
    <rect
       style="fill:#c9daf4;fill-opacity:1;stroke:none;stroke-width:0.526319;stroke-linejoin:round"
       id="rect5152"
       width="93.597374"
       height="17.084076"
       x="-4.8185854"
       y="0.14601609" />
    <rect
       style="fill:#afc6e9;fill-opacity:1;stroke:none;stroke-width:0.410001;stroke-linejoin:round"
       id="rect5098"
       width="93.597374"
       height="10.367259"
       x="-5.6946917"
       y="21.318588" />
    <rect
       style="fill:#916f6f;fill-opacity:1;stroke:none;stroke-width:0.710143;stroke-linejoin:round"
       id="rect3479"
       width="0.48363382"
       height="8.2217751"
       x="46.195637"
       y="1.5315064" />
    <path
       sodipodi:type="star"
       style="fill:#d35f5f;fill-opacity:1;stroke:none;stroke-width:0.410001;stroke-linejoin:round"
       id="path3481"
       inkscape:flatsided="false"
       sodipodi:sides="3"
       sodipodi:cx="12.332662"
       sodipodi:cy="28.211973"
       sodipodi:r1="3.8958464"
       sodipodi:r2="1.9479232"
       sodipodi:arg1="1.9974238"
       sodipodi:arg2="3.0446214"
       inkscape:rounded="0"
       inkscape:randomized="0"
       d="m 10.720549,31.758621 -0.326659,-3.358051 -0.326659,-3.358051 3.071487,1.39613 3.071487,1.396131 -2.744828,1.96192 z"
       inkscape:transform-center-x="-0.59736622"
       inkscape:transform-center-y="0.026306853"
       transform="matrix(0.64238668,0.034552,-0.04486864,0.49468284,40.990034,-12.213622)" />
    <rect
       style="fill:#916f6f;fill-opacity:1;stroke:none;stroke-width:0.710143;stroke-linejoin:round"
       id="rect3483"
       width="0.48363382"
       height="8.2217751"
       x="77.945633"
       y="1.5315064" />
    <path
       sodipodi:type="star"
       style="fill:#d35f5f;fill-opacity:1;stroke:none;stroke-width:0.410001;stroke-linejoin:round"
       id="path3485"
       inkscape:flatsided="false"
       sodipodi:sides="3"
       sodipodi:cx="12.332662"
       sodipodi:cy="28.211973"
       sodipodi:r1="3.8958464"
       sodipodi:r2="1.9479232"
       sodipodi:arg1="1.9974238"
       sodipodi:arg2="3.0446214"
       inkscape:rounded="0"
       inkscape:randomized="0"
       d="m 10.720549,31.758621 -0.326659,-3.358051 -0.326659,-3.358051 3.071487,1.39613 3.071487,1.396131 -2.744828,1.96192 z"
       inkscape:transform-center-x="-0.59736622"
       inkscape:transform-center-y="0.028551642"
       transform="matrix(0.64238668,0.03749961,-0.04486864,0.53688394,72.740036,-12.586736)" />
    <rect
       style="fill:#916f6f;fill-opacity:1;stroke:none;stroke-width:0.710143;stroke-linejoin:round"
       id="rect3111"
       width="0.48363382"
       height="8.2217751"
       x="8.6248026"
       y="1.5315064" />
    <path
       sodipodi:type="star"
       style="fill:#d35f5f;fill-opacity:1;stroke:none;stroke-width:0.410001;stroke-linejoin:round"
       id="path3373"
       inkscape:flatsided="false"
       sodipodi:sides="3"
       sodipodi:cx="12.332662"
       sodipodi:cy="28.211973"
       sodipodi:r1="3.8958464"
       sodipodi:r2="1.9479232"
       sodipodi:arg1="1.9974238"
       sodipodi:arg2="3.0446214"
       inkscape:rounded="0"
       inkscape:randomized="0"
       d="m 10.720549,31.758621 -0.326659,-3.358051 -0.326659,-3.358051 3.071487,1.39613 3.071487,1.396131 -2.744828,1.96192 z"
       inkscape:transform-center-x="-0.44122157"
       inkscape:transform-center-y="0.034161844"
       transform="matrix(0.47447417,0.04486864,-0.03314049,0.64238668,4.8159106,-16.016358)" />
    <rect
       style="fill:#cccccc;stroke:#999999;stroke-width:0.410001;stroke-linejoin:round"
       id="rect2291"
       width="4.6236219"
       height="3.650228"
       x="2.0317276"
       y="5.5970163" />
    <rect
       style="fill:#cccccc;stroke:#999999;stroke-width:0.410001;stroke-linejoin:round"
       id="rect2345"
       width="4.6236219"
       height="3.650228"
       x="4.6775608"
       y="9.3011847" />
    <rect
       style="fill:#cccccc;stroke:#999999;stroke-width:0.410001;stroke-linejoin:round"
       id="rect2347"
       width="4.6236219"
       height="3.650228"
       x="9.4400625"
       y="9.3011847" />
    <rect
       style="fill:#cccccc;stroke:#999999;stroke-width:0.410001;stroke-linejoin:round"
       id="rect2349"
       width="4.6236219"
       height="3.650228"
       x="11.556726"
       y="5.5970163" />
    <rect
       style="fill:#b5b5b5;stroke:#999999;stroke-width:0.410001;stroke-linejoin:round;fill-opacity:1"
       id="rect2351"
       width="4.6236219"
       height="3.650228"
       x="14.202559"
       y="9.3011847" />
    <rect
       style="fill:#cccccc;stroke:#999999;stroke-width:0.410001;stroke-linejoin:round"
       id="rect2353"
       width="4.6236219"
       height="3.650228"
       x="18.965059"
       y="9.3011847" />
    <rect
       style="fill:#b9b9b9;stroke:#999999;stroke-width:0.410001;stroke-linejoin:round;fill-opacity:1"
       id="rect2355"
       width="4.6236219"
       height="3.650228"
       x="21.081722"
       y="5.5970163" />
    <rect
       style="fill:#cccccc;stroke:#999999;stroke-width:0.410001;stroke-linejoin:round"
       id="rect2357"
       width="4.6236219"
       height="3.650228"
       x="23.727552"
       y="9.3011847" />
    <rect
       style="fill:#cccccc;stroke:#999999;stroke-width:0.410001;stroke-linejoin:round"
       id="rect2359"
       width="4.6236219"
       height="3.650228"
       x="28.490059"
       y="9.3011847" />
    <rect
       style="fill:#cccccc;stroke:#999999;stroke-width:0.410001;stroke-linejoin:round"
       id="rect2361"
       width="4.6236219"
       height="3.650228"
       x="30.077564"
       y="5.5970163" />
    <rect
       style="fill:#cccccc;stroke:#999999;stroke-width:0.410001;stroke-linejoin:round"
       id="rect2363"
       width="4.6236219"
       height="3.650228"
       x="32.723392"
       y="9.3011847" />
    <rect
       style="fill:#cccccc;stroke:#999999;stroke-width:0.410001;stroke-linejoin:round"
       id="rect2365"
       width="4.6236219"
       height="3.650228"
       x="37.485901"
       y="9.3011847" />
    <rect
       style="fill:#cccccc;stroke:#999999;stroke-width:0.410001;stroke-linejoin:round"
       id="rect2367"
       width="4.6236219"
       height="3.650228"
       x="39.602573"
       y="5.5970163" />
    <rect
       style="fill:#cccccc;stroke:#999999;stroke-width:0.410001;stroke-linejoin:round"
       id="rect2369"
       width="4.6236219"
       height="3.650228"
       x="42.248402"
       y="9.3011847" />
    <rect
       style="fill:#cccccc;stroke:#999999;stroke-width:0.410001;stroke-linejoin:round"
       id="rect2371"
       width="4.6236219"
       height="3.650228"
       x="47.01091"
       y="9.3011847" />
    <rect
       style="fill:#cccccc;stroke:#999999;stroke-width:0.410001;stroke-linejoin:round"
       id="rect2373"
       width="4.6236219"
       height="3.650228"
       x="49.127583"
       y="5.5970163" />
    <rect
       style="fill:#cccccc;stroke:#999999;stroke-width:0.410001;stroke-linejoin:round"
       id="rect2375"
       width="4.6236219"
       height="3.650228"
       x="51.773411"
       y="9.3011847" />
    <rect
       style="fill:#b5b5b5;stroke:#999999;stroke-width:0.410001;stroke-linejoin:round;fill-opacity:1"
       id="rect2377"
       width="4.6236219"
       height="3.650228"
       x="56.535919"
       y="9.3011847" />
    <rect
       style="fill:#cccccc;stroke:#999999;stroke-width:0.410001;stroke-linejoin:round"
       id="rect2379"
       width="4.6236219"
       height="3.650228"
       x="58.652592"
       y="5.5970163" />
    <rect
       style="fill:#cccccc;stroke:#999999;stroke-width:0.410001;stroke-linejoin:round"
       id="rect2381"
       width="4.6236219"
       height="3.650228"
       x="61.29842"
       y="9.3011847" />
    <rect
       style="fill:#cccccc;stroke:#999999;stroke-width:0.410001;stroke-linejoin:round"
       id="rect2383"
       width="4.6236219"
       height="3.650228"
       x="66.060928"
       y="9.3011847" />
    <rect
       style="fill:#cccccc;stroke:#999999;stroke-width:0.410001;stroke-linejoin:round"
       id="rect2385"
       width="4.6236219"
       height="3.650228"
       x="77.702583"
       y="5.5970163" />
    <rect
       style="fill:#cccccc;stroke:#999999;stroke-width:0.410001;stroke-linejoin:round"
       id="rect2387"
       width="4.6236219"
       height="3.650228"
       x="70.294258"
       y="9.3011847" />
    <rect
       style="fill:#cccccc;stroke:#999999;stroke-width:0.410001;stroke-linejoin:round"
       id="rect2389"
       width="4.6236219"
       height="3.650228"
       x="75.05677"
       y="9.3011847" />
    <rect
       style="fill:#cccccc;stroke:#999999;stroke-width:0.410001;stroke-linejoin:round"
       id="rect2391"
       width="4.6236219"
       height="3.650228"
       x="68.177589"
       y="5.5970163" />
    <rect
       style="fill:#cccccc;stroke:#999999;stroke-width:0.410001;stroke-linejoin:round"
       id="rect2393"
       width="4.6236219"
       height="3.650228"
       x="3.6192274"
       y="12.476182" />
    <rect
       style="fill:#cccccc;stroke:#999999;stroke-width:0.410001;stroke-linejoin:round"
       id="rect2395"
       width="4.6236219"
       height="3.650228"
       x="8.3817301"
       y="12.476182" />
    <rect
       style="fill:#cccccc;stroke:#999999;stroke-width:0.410001;stroke-linejoin:round"
       id="rect2397"
       width="4.6236219"
       height="3.650228"
       x="13.144227"
       y="12.476182" />
    <rect
       style="fill:#cccccc;stroke:#999999;stroke-width:0.410001;stroke-linejoin:round"
       id="rect2399"
       width="4.6236219"
       height="3.650228"
       x="17.906725"
       y="12.476182" />
    <rect
       style="fill:#b5b5b5;stroke:#999999;stroke-width:0.410001;stroke-linejoin:round;fill-opacity:1"
       id="rect2401"
       width="4.6236219"
       height="3.650228"
       x="22.669218"
       y="12.476182" />
    <rect
       style="fill:#cccccc;stroke:#999999;stroke-width:0.410001;stroke-linejoin:round"
       id="rect2403"
       width="4.6236219"
       height="3.650228"
       x="27.431725"
       y="12.476182" />
    <rect
       style="fill:#cccccc;stroke:#999999;stroke-width:0.410001;stroke-linejoin:round"
       id="rect2405"
       width="4.6236219"
       height="3.650228"
       x="31.665058"
       y="12.476182" />
    <rect
       style="fill:#cccccc;stroke:#999999;stroke-width:0.410001;stroke-linejoin:round"
       id="rect2407"
       width="4.6236219"
       height="3.650228"
       x="36.427567"
       y="12.476182" />
    <rect
       style="fill:#cccccc;stroke:#999999;stroke-width:0.410001;stroke-linejoin:round"
       id="rect2409"
       width="4.6236219"
       height="3.650228"
       x="41.190067"
       y="12.476182" />
    <rect
       style="fill:#b5b5b5;stroke:#999999;stroke-width:0.410001;stroke-linejoin:round;fill-opacity:1"
       id="rect2411"
       width="4.6236219"
       height="3.650228"
       x="45.952576"
       y="12.476182" />
    <rect
       style="fill:#cccccc;stroke:#999999;stroke-width:0.410001;stroke-linejoin:round"
       id="rect2413"
       width="4.6236219"
       height="3.650228"
       x="50.715076"
       y="12.476182" />
    <rect
       style="fill:#b5b5b5;stroke:#999999;stroke-width:0.410001;stroke-linejoin:round;fill-opacity:1"
       id="rect2415"
       width="4.6236219"
       height="3.650228"
       x="55.477585"
       y="12.476182" />
    <rect
       style="fill:#cccccc;stroke:#999999;stroke-width:0.410001;stroke-linejoin:round"
       id="rect2417"
       width="4.6236219"
       height="3.650228"
       x="60.240086"
       y="12.476182" />
    <rect
       style="fill:#cccccc;stroke:#999999;stroke-width:0.410001;stroke-linejoin:round"
       id="rect2419"
       width="4.6236219"
       height="3.650228"
       x="65.002594"
       y="12.476182" />
    <rect
       style="fill:#cccccc;stroke:#999999;stroke-width:0.410001;stroke-linejoin:round"
       id="rect2421"
       width="4.6236219"
       height="3.650228"
       x="69.235924"
       y="12.476182" />
    <rect
       style="fill:#cccccc;stroke:#999999;stroke-width:0.410001;stroke-linejoin:round"
       id="rect2423"
       width="4.6236219"
       height="3.650228"
       x="73.998436"
       y="12.476182" />
    <rect
       style="fill:#cccccc;stroke:#999999;stroke-width:0.410001;stroke-linejoin:round"
       id="rect2425"
       width="4.6236219"
       height="3.650228"
       x="4.6775608"
       y="15.651179" />
    <rect
       style="fill:#cccccc;stroke:#999999;stroke-width:0.410001;stroke-linejoin:round"
       id="rect2427"
       width="4.6236219"
       height="3.650228"
       x="9.4400625"
       y="15.651179" />
    <rect
       style="fill:#cccccc;stroke:#999999;stroke-width:0.410001;stroke-linejoin:round"
       id="rect2429"
       width="4.6236219"
       height="3.650228"
       x="14.202559"
       y="15.651179" />
    <rect
       style="fill:#cccccc;stroke:#999999;stroke-width:0.410001;stroke-linejoin:round"
       id="rect2431"
       width="4.6236219"
       height="3.650228"
       x="18.965059"
       y="15.651179" />
    <rect
       style="fill:#cccccc;stroke:#999999;stroke-width:0.410001;stroke-linejoin:round"
       id="rect2433"
       width="4.6236219"
       height="3.650228"
       x="23.727552"
       y="15.651179" />
    <rect
       style="fill:#b5b5b5;stroke:#999999;stroke-width:0.410001;stroke-linejoin:round;fill-opacity:1"
       id="rect2435"
       width="4.6236219"
       height="3.650228"
       x="28.490059"
       y="15.651179" />
    <rect
       style="fill:#cccccc;stroke:#999999;stroke-width:0.410001;stroke-linejoin:round"
       id="rect2437"
       width="4.6236219"
       height="3.650228"
       x="32.723392"
       y="15.651179" />
    <rect
       style="fill:#cccccc;stroke:#999999;stroke-width:0.410001;stroke-linejoin:round"
       id="rect2439"
       width="4.6236219"
       height="3.650228"
       x="37.485901"
       y="15.651179" />
    <rect
       style="fill:#cccccc;stroke:#999999;stroke-width:0.410001;stroke-linejoin:round"
       id="rect2441"
       width="4.6236219"
       height="3.650228"
       x="42.248402"
       y="15.651179" />
    <rect
       style="fill:#cccccc;stroke:#999999;stroke-width:0.410001;stroke-linejoin:round"
       id="rect2443"
       width="4.6236219"
       height="3.650228"
       x="47.01091"
       y="15.651179" />
    <rect
       style="fill:#cccccc;stroke:#999999;stroke-width:0.410001;stroke-linejoin:round"
       id="rect2445"
       width="4.6236219"
       height="3.650228"
       x="51.773411"
       y="15.651179" />
    <rect
       style="fill:#cccccc;stroke:#999999;stroke-width:0.410001;stroke-linejoin:round"
       id="rect2447"
       width="4.6236219"
       height="3.650228"
       x="56.535919"
       y="15.651179" />
    <rect
       style="fill:#cccccc;stroke:#999999;stroke-width:0.410001;stroke-linejoin:round"
       id="rect2449"
       width="4.6236219"
       height="3.650228"
       x="61.29842"
       y="15.651179" />
    <rect
       style="fill:#cccccc;stroke:#999999;stroke-width:0.410001;stroke-linejoin:round"
       id="rect2451"
       width="4.6236219"
       height="3.650228"
       x="66.060928"
       y="15.651179" />
    <rect
       style="fill:#b5b5b5;stroke:#999999;stroke-width:0.410001;stroke-linejoin:round;fill-opacity:1"
       id="rect2453"
       width="4.6236219"
       height="3.650228"
       x="70.294258"
       y="15.651179" />
    <rect
       style="fill:#cccccc;stroke:#999999;stroke-width:0.410001;stroke-linejoin:round"
       id="rect2455"
       width="4.6236219"
       height="3.650228"
       x="75.05677"
       y="15.651179" />
    <rect
       style="fill:#cccccc;stroke:#999999;stroke-width:0.410001;stroke-linejoin:round"
       id="rect2457"
       width="4.6236219"
       height="3.650228"
       x="4.1483941"
       y="18.297014" />
    <rect
       style="fill:#cccccc;stroke:#999999;stroke-width:0.410001;stroke-linejoin:round"
       id="rect2459"
       width="4.6236219"
       height="3.650228"
       x="8.9108963"
       y="18.297014" />
    <rect
       style="fill:#cccccc;stroke:#999999;stroke-width:0.410001;stroke-linejoin:round"
       id="rect2461"
       width="4.6236219"
       height="3.650228"
       x="13.673393"
       y="18.297014" />
    <rect
       style="fill:#cccccc;stroke:#999999;stroke-width:0.410001;stroke-linejoin:round"
       id="rect2463"
       width="4.6236219"
       height="3.650228"
       x="18.435892"
       y="18.297014" />
    <rect
       style="fill:#cccccc;stroke:#999999;stroke-width:0.410001;stroke-linejoin:round"
       id="rect2465"
       width="4.6236219"
       height="3.650228"
       x="23.198385"
       y="18.297014" />
    <rect
       style="fill:#cccccc;stroke:#999999;stroke-width:0.410001;stroke-linejoin:round"
       id="rect2467"
       width="4.6236219"
       height="3.650228"
       x="27.960892"
       y="18.297014" />
    <rect
       style="fill:#cccccc;stroke:#999999;stroke-width:0.410001;stroke-linejoin:round"
       id="rect2469"
       width="4.6236219"
       height="3.650228"
       x="32.194225"
       y="18.297014" />
    <rect
       style="fill:#cccccc;stroke:#999999;stroke-width:0.410001;stroke-linejoin:round"
       id="rect2471"
       width="4.6236219"
       height="3.650228"
       x="36.956734"
       y="18.297014" />
    <rect
       style="fill:#cccccc;stroke:#999999;stroke-width:0.410001;stroke-linejoin:round"
       id="rect2473"
       width="4.6236219"
       height="3.650228"
       x="41.719234"
       y="18.297014" />
    <rect
       style="fill:#cccccc;stroke:#999999;stroke-width:0.410001;stroke-linejoin:round"
       id="rect2475"
       width="4.6236219"
       height="3.650228"
       x="46.481743"
       y="18.297014" />
    <rect
       style="fill:#cccccc;stroke:#999999;stroke-width:0.410001;stroke-linejoin:round"
       id="rect2477"
       width="4.6236219"
       height="3.650228"
       x="51.244244"
       y="18.297014" />
    <rect
       style="fill:#cccccc;stroke:#999999;stroke-width:0.410001;stroke-linejoin:round"
       id="rect2479"
       width="4.6236219"
       height="3.650228"
       x="56.006752"
       y="18.297014" />
    <rect
       style="fill:#b5b5b5;stroke:#999999;stroke-width:0.410001;stroke-linejoin:round;fill-opacity:1"
       id="rect2481"
       width="4.6236219"
       height="3.650228"
       x="60.769253"
       y="18.297014" />
    <rect
       style="fill:#cccccc;stroke:#999999;stroke-width:0.410001;stroke-linejoin:round"
       id="rect2483"
       width="4.6236219"
       height="3.650228"
       x="65.531761"
       y="18.297014" />
    <rect
       style="fill:#cccccc;stroke:#999999;stroke-width:0.410001;stroke-linejoin:round"
       id="rect2485"
       width="4.6236219"
       height="3.650228"
       x="69.765091"
       y="18.297014" />
    <rect
       style="fill:#cccccc;stroke:#999999;stroke-width:0.410001;stroke-linejoin:round"
       id="rect2487"
       width="4.6236219"
       height="3.650228"
       x="74.527603"
       y="18.297014" />
    <rect
       style="fill:#cccccc;stroke:#999999;stroke-width:0.410001;stroke-linejoin:round"
       id="rect2489"
       width="4.6236219"
       height="3.650228"
       x="75.05677"
       y="9.3011847" />
    <rect
       style="fill:#cccccc;stroke:#999999;stroke-width:0.410001;stroke-linejoin:round"
       id="rect2491"
       width="4.6236219"
       height="3.650228"
       x="75.05677"
       y="12.476182" />
    <rect
       style="fill:#cccccc;stroke:#999999;stroke-width:0.410001;stroke-linejoin:round"
       id="rect2493"
       width="4.6236219"
       height="3.650228"
       x="75.05677"
       y="16.180346" />
    <rect
       style="fill:#cccccc;stroke:#999999;stroke-width:0.410001;stroke-linejoin:round"
       id="rect2495"
       width="4.6236219"
       height="3.650228"
       x="75.05677"
       y="18.297014" />
    <rect
       style="fill:#cccccc;stroke:#999999;stroke-width:0.410001;stroke-linejoin:round"
       id="rect2497"
       width="4.6236219"
       height="3.650228"
       x="3.6192694"
       y="9.3011847" />
    <rect
       style="fill:#cccccc;stroke:#999999;stroke-width:0.410001;stroke-linejoin:round"
       id="rect2499"
       width="4.6236219"
       height="3.650228"
       x="3.6192694"
       y="12.476182" />
    <rect
       style="fill:#cccccc;stroke:#999999;stroke-width:0.410001;stroke-linejoin:round"
       id="rect2501"
       width="4.6236219"
       height="3.650228"
       x="3.6192694"
       y="16.180346" />
    <rect
       style="fill:#cccccc;stroke:#999999;stroke-width:0.410001;stroke-linejoin:round"
       id="rect2503"
       width="4.6236219"
       height="3.650228"
       x="3.6192694"
       y="18.297014" />
    <rect
       style="fill:#918a6f;fill-opacity:1;stroke:none;stroke-width:0.410001;stroke-linejoin:round"
       id="rect5208"
       width="12.981937"
       height="12.092763"
       x="33.077267"
       y="9.6919947" />
    <rect
       style="fill:#6c6753;fill-opacity:1;stroke:none;stroke-width:0.285915;stroke-linejoin:round"
       id="rect5262"
       width="6.3131337"
       height="12.092763"
       x="33.077267"
       y="9.6919947" />
    <rect
       style="fill:#918a6f;fill-opacity:1;stroke:none;stroke-width:0.245645;stroke-linejoin:round"
       id="rect5264"
       width="5.4239597"
       height="10.389557"
       x="33.521854"
       y="10.543598" />
    <rect
       style="fill:#6c6753;fill-opacity:1;stroke:none;stroke-width:0.285915;stroke-linejoin:round"
       id="rect5266"
       width="6.3131337"
       height="12.092763"
       x="39.427265"
       y="9.6919947" />
    <rect
       style="fill:#918a6f;fill-opacity:1;stroke:none;stroke-width:0.245645;stroke-linejoin:round"
       id="rect5268"
       width="5.4239597"
       height="10.389557"
       x="39.871853"
       y="10.543598" />
    <rect
       style="fill:#484537;fill-opacity:1;stroke:none;stroke-width:0.68489;stroke-linejoin:round"
       id="rect5270"
       width="12.89302"
       height="9.6919947"
       x="32.899429"
       y="21.962593" />
    <rect
       style="fill:#6c6753;fill-opacity:1;stroke:none;stroke-width:0.254362;stroke-linejoin:round"
       id="rect5324"
       width="1.778347"
       height="9.6919947"
       x="32.899429"
       y="21.962593" />
    <rect
       style="fill:#6c6753;fill-opacity:1;stroke:none;stroke-width:0.254362;stroke-linejoin:round"
       id="rect5326"
       width="1.778347"
       height="9.6919947"
       x="32.899429"
       y="21.962593" />
    <rect
       style="fill:#6c6753;fill-opacity:1;stroke:none;stroke-width:0.263785;stroke-linejoin:round"
       id="rect5328"
       width="1.9125413"
       height="9.6919947"
       x="35.545261"
       y="21.962593" />
    <rect
       style="fill:#6c6753;fill-opacity:1;stroke:none;stroke-width:0.263785;stroke-linejoin:round"
       id="rect5330"
       width="1.9125413"
       height="9.6919947"
       x="38.390751"
       y="21.962593" />
    <rect
       style="fill:#6c6753;fill-opacity:1;stroke:none;stroke-width:0.263785;stroke-linejoin:round"
       id="rect5332"
       width="1.9125413"
       height="9.6919947"
       x="41.236244"
       y="21.962593" />
    <rect
       style="fill:#6c6753;fill-opacity:1;stroke:none;stroke-width:0.254362;stroke-linejoin:round"
       id="rect5334"
       width="1.778347"
       height="9.6919947"
       x="44.011936"
       y="21.962593" />
    <path
       style="fill:#dee3db;fill-opacity:1;stroke:none;stroke-width:0.410001;stroke-linejoin:round"
       id="path5582"
       d="m 8.5088028,28.596568 c 0.2103588,-0.174185 0.4254791,-0.341696 0.6437746,-0.505769 0.2911303,-0.190439 0.7722341,-0.465844 -0.613973,0.34802 -0.021304,0.01251 0.043184,-0.02408 0.065539,-0.0346 0.060719,-0.02856 0.072892,-0.02904 0.1387496,-0.04785 0.1531972,-0.02254 0.3049209,-0.0534 0.4577768,-0.07801 0.071144,-0.01103 0.1427546,-0.01696 0.2145699,-0.0209 0.1113825,-0.0092 0.2205816,0.01579 0.329809,0.0339 0.08334,0.01111 0.1669076,0.03171 0.2513774,0.03163 0,0 0.8224469,-0.559062 0.8224469,-0.559062 v 0 c -0.07966,-0.04176 -0.178714,-0.0172 -0.265424,-0.04084 -0.112,-0.0167 -0.222018,-0.04755 -0.334331,-0.05218 -0.07575,-0.0011 -0.151488,0.0038 -0.2265016,0.01455 -0.1556591,0.01992 -0.3075001,0.06228 -0.4637164,0.07467 -0.4883288,0.06783 -0.8857202,0.421177 -1.2871498,0.69356 -0.2179055,0.167603 -0.4300968,0.342482 -0.6513401,0.505619 0,0 0.9183931,-0.362759 0.9183931,-0.362759 z" />
    <path
       style="fill:#dee3db;fill-opacity:1;stroke:none;stroke-width:0.410001;stroke-linejoin:round"
       id="path5584"
       d="m 16.718301,26.756915 c 0.31632,-0.0081 0.632802,-0.0069 0.949174,-0.0029 0.122112,0.0069 0.247451,-0.01275 0.365793,0.02381 0.08725,0.0259 0.169609,0.06386 0.254346,0.0969 0.139545,0.05193 0.278647,0.1022 0.413488,0.165369 0.1254,0.06099 0.267125,0.0751 0.40328,0.09719 0.114188,0.01908 0.229008,0.03351 0.34415,0.04529 0.02571,0.0024 0.05151,0.0036 0.07729,0.0048 0,0 0.806928,-0.584592 0.806928,-0.584592 v 0 c -0.02514,5.3e-4 -0.05029,7.94e-4 -0.07544,5.3e-4 -0.116593,-0.004 -0.232767,-0.01514 -0.348225,-0.03192 -0.128806,-0.01916 -0.26026,-0.03819 -0.383404,-0.07934 -0.13933,-0.05824 -0.276968,-0.117432 -0.418933,-0.169359 -0.08737,-0.03016 -0.16431,-0.07719 -0.251689,-0.103023 -0.04539,-0.01571 -0.09209,-0.03856 -0.140308,-0.04372 -0.08421,-0.009 -0.171373,0.01145 -0.255642,0.0029 -0.313726,0.0038 -0.627574,0.0055 -0.941243,-0.0029 0,0 -0.799568,0.58092 -0.799568,0.58092 z" />
    <path
       style="fill:#dee3db;fill-opacity:1;stroke:none;stroke-width:0.410001;stroke-linejoin:round"
       id="path5586"
       d="m 52.811134,26.635352 c 0.241557,0.136589 0.4889,0.262158 0.732372,0.395169 0.123592,0.06977 0.255278,0.126127 0.389374,0.1724 0.108347,0.03433 0.220986,0.04685 0.333942,0.05222 0.134723,0.0029 0.269504,0.0016 0.404256,0.0024 0.106625,-5.29e-4 0.213257,-5.29e-4 0.319882,1.16e-4 0.0775,0.01027 0.142232,-0.01183 0.212082,-0.04087 0.401195,-0.09628 0.349234,-0.152832 0.993052,-0.532495 0.274297,-0.161753 -0.552177,0.317351 -0.828265,0.476027 0.325695,-0.160671 0.0096,-0.0041 0.899748,-0.516204 0.01701,-0.0098 0.06824,-0.0388 0.05124,-0.02899 -0.832337,0.480197 -1.109816,0.613261 -0.797764,0.462719 0.0077,-0.003 0.0154,-0.006 0.0231,-0.009 0,0 0.787993,-0.608472 0.787993,-0.608472 v 0 c -0.0088,0.0019 -0.01762,0.004 -0.02643,0.006 -0.101639,0.02416 -2.264098,1.305525 -0.130323,0.06973 0.0081,-0.0047 -0.0181,0.0046 -0.02716,0.0069 -0.293719,0.166331 -0.571124,0.365514 -0.881158,0.498994 -0.292981,0.126135 0.552588,-0.318815 0.829678,-0.476829 0.01722,-0.0098 -0.02852,0.02858 -0.04635,0.03724 -0.01778,0.0086 -0.04123,-0.0011 -0.05862,0.0091 -0.07293,0.0105 -0.126408,0.06035 -0.197747,0.06264 -0.107374,7.93e-4 -0.214752,0.0013 -0.322128,0.0013 -0.133961,0.0016 -0.26793,0.0021 -0.401891,2.09e-4 -0.107448,-0.0019 -0.215525,-0.0051 -0.320485,-0.03069 -0.133622,-0.03242 -0.260403,-0.09624 -0.385786,-0.151323 -0.245639,-0.125861 -0.494925,-0.246593 -0.727425,-0.396009 0,0 -0.825179,0.537815 -0.825179,0.537815 z" />
    <path
       style="fill:#dee3db;fill-opacity:1;stroke:none;stroke-width:0.410001;stroke-linejoin:round"
       id="path5588"
       d="m 67.364847,28.900572 c 0.190064,0.01823 0.379807,0.03955 0.56995,0.05693 0.120483,0.0223 0.228735,-0.02032 0.338333,-0.06517 0.127995,-0.05554 0.25967,-0.102396 0.391512,-0.147875 0.10663,-0.03146 0.216437,-0.04683 0.322972,-0.07872 0.03284,-0.01098 0.05569,-0.01664 0.08552,-0.03383 0.293669,-0.16927 0.586713,-0.339632 0.879192,-0.510953 0.0083,-0.0048 0.03115,-0.0222 0.02283,-0.01741 -0.516861,0.297169 -1.740791,1.013952 0.04735,-0.03136 0.0059,-0.0076 0.01,-0.01712 0.01778,-0.02273 0.0076,-0.0054 0.01923,-0.0031 0.02643,-0.009 0.08241,-0.06786 -0.03788,0.0074 0.03863,-0.05472 0.06349,-0.05157 -0.0085,0.0389 0.04894,-0.04208 0.05995,-0.04122 0.09888,-0.110027 0.146759,-0.165672 0.0066,-0.0076 0.0114,-0.01738 0.0199,-0.02283 0.0082,-0.0053 0.02024,-0.0024 0.02819,-0.008 0.01781,-0.01262 0.02318,-0.03835 0.04079,-0.05124 0.06154,-0.04501 -0.0048,0.03385 0.04964,-0.03995 0.05047,-0.04858 0.08056,-0.09055 0.14565,-0.122197 0.03824,-0.03127 0.07684,-0.06398 0.120923,-0.09233 0,0 -0.927471,0.366342 -0.927471,0.366342 v 0 c -0.03953,0.03136 -0.07546,0.06544 -0.119533,0.08958 -0.04826,0.04407 -0.08973,0.09435 -0.138737,0.137589 -0.05203,0.03415 -0.09468,0.08411 -0.134355,0.131341 -0.0466,0.05684 -0.09368,0.111226 -0.149863,0.158668 -0.04903,0.03463 -0.08569,0.08457 -0.138332,0.114798 2.765237,-1.591255 -1.994128,1.13847 0.747135,-0.43207 0.02566,-0.01471 -0.102952,0.06725 -0.07375,0.04941 -0.106104,0.03876 -0.212141,0.06847 -0.324644,0.08304 -0.136287,0.03652 -0.26619,0.09223 -0.399087,0.139305 -0.09637,0.04499 -0.200808,0.106188 -0.308655,0.102902 -0.18964,-0.01074 -0.379127,-0.02687 -0.567349,-0.05263 0,0 -0.806656,0.570878 -0.806656,0.570878 z" />
    <path
       style="fill:#dee3db;fill-opacity:1;stroke:none;stroke-width:0.410001;stroke-linejoin:round"
       id="path5700"
       d="m 9.9993457,28.329577 c 0.1388803,0.02521 0.2844143,0.02397 0.4195583,0.067 0.06662,0.02074 0.123282,0.06207 0.181185,0.09962 0.04169,0.03738 0.10346,0.05 0.141976,0.09009 0.03004,0.03974 0.07157,0.07058 0.110581,0.101325 0.03876,0.03976 0.09413,0.04378 0.140791,0.06628 0.0592,0.03531 0.125277,0.05293 0.19241,0.06529 0.06733,0.0079 0.135227,0.0089 0.202948,0.0089 0.06195,0.01344 0.102725,-0.02246 0.155004,-0.04495 0.01005,-0.01873 0.05098,-0.0075 0.06084,-0.01304 0.29762,-0.16619 0.59044,-0.340839 0.884791,-0.512754 0.195841,-0.11438 -2.5034447,1.451141 0.06076,-0.03583 0.325037,-0.229775 -1.043571,0.618308 -0.788584,0.454041 0.285935,-0.184206 0.586875,-0.344006 0.880569,-0.51557 0.04033,-0.02355 0.0649,-0.03261 0.09301,-0.07087 0.0316,-0.03248 0.04976,-0.08718 0.08668,-0.114477 0.06509,-0.04811 -0.0083,0.03745 0.04969,-0.03842 0.04583,-0.06961 0.115671,-0.128704 0.155251,-0.200578 0.03624,-0.04208 0.04575,-0.102293 0.07645,-0.146876 0.007,-0.01013 0.01798,-0.01675 0.02696,-0.02513 0.0074,-0.01206 0.01484,-0.02413 0.02227,-0.0362 0.02563,-0.04147 0.01344,-0.02164 0.0366,-0.05948 0,0 -0.910031,0.401664 -0.910031,0.401664 v 0 c -0.02249,0.03567 -0.01048,0.01701 -0.03616,0.05586 -0.04706,0.06526 -0.0753,0.142854 -0.127476,0.205242 -0.05696,0.05981 -0.09852,0.132374 -0.162413,0.186156 -0.05392,0.04023 -0.08032,0.109355 -0.13816,0.146992 -0.01392,0.0071 -0.194824,0.117163 -0.09661,0.06129 1.683778,-0.957871 0.465478,-0.281165 -0.09438,0.05578 2.131873,-1.228614 -0.0042,0.0024 -0.06049,0.03538 -0.270961,0.15942 0.542263,-0.318389 0.81725,-0.470757 0.0074,-0.0041 -0.0028,0.01897 -0.01,0.02347 -0.01153,0.0071 -0.02914,-0.01135 -0.04065,0.0019 -0.05464,0.01492 -0.09695,0.0294 -0.136869,0.0728 -0.06536,0 -0.130721,0.0011 -0.196076,-2.65e-4 -0.0578,-0.0013 -0.115594,-0.0098 -0.169306,-0.0319 -0.04484,-0.02884 -0.08503,-0.04363 -0.134515,-0.05701 -0.03706,-0.02453 -0.06936,-0.05243 -0.09859,-0.08231 -0.0452,-0.05511 -0.10108,-0.07596 -0.157733,-0.115986 -0.06523,-0.03802 -0.126507,-0.08458 -0.195414,-0.113596 -0.138394,-0.05747 -0.287098,-0.05573 -0.433288,-0.08319 0,0 -0.808839,0.570299 -0.808839,0.570299 z" />
    <path
       style="fill:#dee3db;fill-opacity:1;stroke:none;stroke-width:0.410001;stroke-linejoin:round"
       id="path5702"
       d="m 19.415982,27.188168 c 0.183827,0.0245 0.36848,0.04201 0.553283,0.05714 0.103498,0.0072 0.207205,0.01183 0.310955,0.01254 0.07007,5.29e-4 0.14015,5.29e-4 0.210224,5.29e-4 0.06052,-0.0035 0.122192,0.0091 0.180557,-0.0074 0.09568,-0.02741 0.188131,-0.06219 0.282273,-0.09456 1.589976,-0.910477 0.793944,-0.455969 0.0788,-0.04149 -0.0108,0.0063 0.02244,-0.01098 0.03323,-0.01728 0.325274,-0.189641 0.629315,-0.358032 0.936998,-0.551075 0.0078,-0.0048 0.01782,-0.0072 0.02349,-0.01445 0.0071,-0.0091 0.0059,-0.02286 0.0129,-0.03203 0.01603,-0.02106 0.05716,-0.03948 0.07981,-0.05444 0.04548,-0.04869 0.07974,-0.09986 0.114354,-0.158038 0.02913,-0.0231 0.01516,-0.068 0.03241,-0.09552 0.01703,-0.02716 0.03567,-0.01617 0.05069,-0.05253 0.0037,-0.0082 0.0073,-0.01645 0.01095,-0.02467 0,0 -0.909141,0.406197 -0.909141,0.406197 v 0 c -0.0044,0.0062 -0.0089,0.01241 -0.01329,0.0186 -0.04237,0.04005 -0.0387,0.104875 -0.08219,0.146201 -0.03754,0.04979 -0.07566,0.09648 -0.129961,0.128473 -0.03914,0.03375 -0.06848,0.07398 -0.115947,0.09469 -0.389757,0.278178 1.101739,-0.625177 0.730113,-0.414848 -0.297231,0.168225 -0.59228,0.340288 -0.88962,0.508317 -0.271229,0.153273 0.540855,-0.309364 0.811283,-0.464047 -0.0812,0.05221 -0.180476,0.07892 -0.273329,0.101274 -0.01889,0.0082 -0.03267,0.02604 -0.05184,0.03353 -0.03102,0.01214 -0.07543,-0.0095 -0.107719,2.4e-5 -0.0706,5.29e-4 -0.1412,7.93e-4 -0.211802,0.0013 -0.103901,-1.25e-4 -0.207847,7.93e-4 -0.311663,-0.0045 -0.182917,-0.0093 -0.366219,-0.02183 -0.546977,-0.05241 0,0 -0.808839,0.570299 -0.808839,0.570299 z" />
    <path
       style="fill:#dee3db;fill-opacity:1;stroke:none;stroke-width:0.410001;stroke-linejoin:round"
       id="path5706"
       d="m 55.295347,27.26241 c 0.229624,0.0507 0.460666,0.09653 0.696359,0.09959 0.471819,-0.0054 0.654447,-0.265843 1.145469,-0.56016 0.06532,-0.0177 0.04953,-0.123606 0.105503,-0.133789 0.02439,-0.02183 0.0236,-0.05841 0.03759,-0.08386 0.01611,-0.02932 0.04152,-0.03731 0.05645,-0.07176 0.0218,-0.02479 0.04685,-0.07559 0.07183,-0.09778 0.06869,-0.06103 -0.01685,0.05006 0.04772,-0.0419 0.05182,-0.05898 0.120097,-0.102216 0.182073,-0.155313 0.04809,-0.04794 0.111554,-0.0837 0.155033,-0.136408 0.07684,-0.09316 -0.02461,0.0042 0.05768,-0.07045 0.08634,-0.04701 0.151066,-0.131536 0.219879,-0.201819 0.04067,-0.07537 0.134398,-0.09377 0.182025,-0.155937 -0.0226,0.01325 0.07793,-0.04652 0.05831,-0.03513 -2.742819,1.592073 2.007651,-1.154396 -0.722391,0.421698 0.328517,-0.182636 0.696042,-0.316153 0.970187,-0.57507 0.01082,-0.01008 0.0213,-0.0205 0.03157,-0.03112 0,0 -0.923642,0.378656 -0.923642,0.378656 v 0 c -0.01045,0.0086 -0.02088,0.0173 -0.03164,0.02554 -0.354888,0.260533 1.162484,-0.642346 0.727273,-0.421597 -2.958131,1.701193 1.920375,-1.113695 -0.976791,0.565699 -0.01405,0.0081 -0.04272,0.03562 -0.05378,0.04573 -0.07165,0.03814 -0.118361,0.106706 -0.176715,0.161599 -0.07073,0.07139 -0.14596,0.137036 -0.220138,0.203975 -0.06162,0.07498 -0.142097,0.131326 -0.215046,0.19476 -0.06543,0.05211 -0.128923,0.10496 -0.180012,0.171135 -0.04816,0.04234 -0.07951,0.101753 -0.113223,0.155313 -0.03953,0.04361 -0.05481,0.101841 -0.103029,0.13852 -0.01942,0.05797 -0.06236,0.08765 -0.106267,0.128063 0.274889,-0.159181 0.549778,-0.318362 0.824667,-0.477546 -0.03559,0.02344 -0.07582,0.05139 -0.117324,0.06285 -0.01995,0.0055 -0.125998,0.01508 -0.138756,0.01638 -0.228857,0.01252 -0.452715,-0.02159 -0.674566,-0.0789 0,0 -0.816292,0.559041 -0.816292,0.559041 z" />
    <path
       style="fill:#dee3db;fill-opacity:1;stroke:none;stroke-width:0.410001;stroke-linejoin:round"
       id="path5708"
       d="m 69.717636,28.109857 c 0.188875,-0.0354 0.373287,-0.09248 0.565102,-0.110128 0.121066,-0.0011 0.242039,0.01297 0.361585,0.03129 0.06375,0.0231 0.130294,0.04347 0.19077,0.07443 0.06738,0.03612 0.131173,0.07783 0.196707,0.117168 0.07854,0.03901 0.155951,0.07781 0.229905,0.125183 0.05621,0.04651 0.122425,0.07661 0.184232,0.113916 0.0607,0.03794 0.130082,0.05497 0.19286,0.0886 0.08331,0.05404 0.174601,0.09379 0.264729,0.134985 0.07155,0.02429 0.137377,0.05774 0.202813,0.09477 0.03358,0.01691 0.069,0.02954 0.104447,0.04184 0,0 0.813586,-0.576194 0.813586,-0.576194 v 0 c -0.02982,0.0074 -0.06005,-0.008 -0.08893,-0.015 -0.0723,-0.02371 -0.129198,-0.0849 -0.207809,-0.09542 -0.08847,-0.03376 -0.178776,-0.07425 -0.255915,-0.128418 -0.06276,-0.03526 -0.124698,-0.06452 -0.192538,-0.08679 -0.06069,-0.03254 -0.118671,-0.06605 -0.177874,-0.102881 -0.07023,-0.05935 -0.155024,-0.09814 -0.23867,-0.134821 -0.06797,-0.03641 -0.125965,-0.08608 -0.194474,-0.119314 -0.06597,-0.04004 -0.135292,-0.06371 -0.206541,-0.09354 -0.121018,-0.0444 -0.257191,-0.03336 -0.383776,-0.05189 -0.194048,-0.0028 -0.380256,0.05507 -0.567878,0.09918 0,0 -0.792329,0.593019 -0.792329,0.593019 z" />
  </g>
</svg>
