<?xml version="1.0" encoding="UTF-8" standalone="no"?>
<!-- Created with Inkscape (http://www.inkscape.org/) -->

<svg
   width="50"
   height="70"
   viewBox="0 0 13.229166 18.520833"
   version="1.1"
   id="svg18473"
   xml:space="preserve"
   inkscape:version="1.2.2 (732a01da63, 2022-12-09)"
   sodipodi:docname="veles_ataque4.svg"
   xmlns:inkscape="http://www.inkscape.org/namespaces/inkscape"
   xmlns:sodipodi="http://sodipodi.sourceforge.net/DTD/sodipodi-0.dtd"
   xmlns="http://www.w3.org/2000/svg"
   xmlns:svg="http://www.w3.org/2000/svg"><sodipodi:namedview
     id="namedview18475"
     pagecolor="#ffffff"
     bordercolor="#000000"
     borderopacity="0.25"
     inkscape:showpageshadow="2"
     inkscape:pageopacity="0.0"
     inkscape:pagecheckerboard="0"
     inkscape:deskcolor="#d1d1d1"
     inkscape:document-units="mm"
     showgrid="true"
     inkscape:zoom="1.4142136"
     inkscape:cx="139.30004"
     inkscape:cy="4.2426407"
     inkscape:window-width="1366"
     inkscape:window-height="705"
     inkscape:window-x="-8"
     inkscape:window-y="-8"
     inkscape:window-maximized="1"
     inkscape:current-layer="layer1"
     showguides="true"><inkscape:grid
       type="xygrid"
       id="grid36773"
       originx="0"
       originy="0" /><sodipodi:guide
       position="0.91928567,17.177262"
       orientation="0,-1"
       id="guide2266"
       inkscape:locked="false" /></sodipodi:namedview><defs
     id="defs18470" /><g
     inkscape:label="Capa 1"
     inkscape:groupmode="layer"
     id="layer1"><path
       style="opacity:0.99;fill:#fde0a4;fill-opacity:1;fill-rule:nonzero;stroke:none;stroke-width:0.0354046;stroke-dasharray:none;stroke-opacity:1;paint-order:fill markers stroke"
       d="m 4.968639,7.1274043 c 0,0 0.026731,-1.2777799 -0.041553,-1.3035718 C 4.8588024,5.7980406 5.2731327,5.69752 5.3471202,5.5441719 5.4211083,5.3908236 5.5421339,5.2162291 5.5500707,5.0494073 5.5580078,4.8825855 5.5547845,4.654175 5.5324649,4.531001 5.5101446,4.4078235 5.4129293,4.0819492 5.4129293,4.0819492 l -0.00893,-0.049271 c 0,0 1.5284382,-0.2006249 2.3926414,0.075321 0.8642036,0.2759462 0.9056205,0.2938871 0.9056205,0.2938871 0,0 0.2957858,-0.3334803 0.3114919,-0.3872143 0.015709,-0.053735 0.137808,-0.1521898 0.137808,-0.1521898 l 0.2226214,0.3158732 c 0,0 0.321568,1.493801 0.302389,1.7389938 -0.01918,0.2451894 -0.01686,0.1175507 -0.01802,0.1813718 -0.0012,0.063817 0.02662,0.4277198 0.04671,0.5385754 0.02009,0.110859 0.096049,0.3896961 0.1038305,0.5027857 0.0078,0.1130878 -0.078779,0.6885368 -0.078779,0.6885368 0,0 -0.294711,0.4096159 -0.3742371,0.4621915 C 9.2765494,8.3433864 8.878918,8.6062678 8.821795,8.6420609 8.76467,8.6778509 8.5843736,8.7359709 8.522786,8.7471309 8.461199,8.7582909 8.0670403,8.8297139 7.9438664,8.8520335 7.8206919,8.8743535 7.4791927,8.8853455 7.3638722,8.8808005 7.2485409,8.8762596 6.9663967,8.8637706 6.8018047,8.8681495 6.6372151,8.8725351 6.3338248,8.813008 6.1994909,8.7737424 6.0651564,8.7344733 5.8132691,8.6783401 5.7595352,8.6626347 5.7058025,8.6469326 5.4461443,8.4777084 5.365543,8.454145 5.2849428,8.4305849 5.0879464,8.32634 5.0420665,8.2837692 4.9961863,8.2411948 4.8383746,8.1425689 4.8383746,8.1425689 L 4.8093592,7.9824431 c 0,0 -0.128879,0.2014598 -0.3314962,0.1364026 C 4.2752452,8.0537844 3.9997963,8.0782509 3.8789375,7.9729326 3.758078,7.8676144 3.5981175,7.6167173 3.5891896,7.5674469 3.5802622,7.5181802 3.5500879,7.4218717 3.5445503,7.321099 c -0.00554,-0.1007729 0.0024,-0.2675944 0.0024,-0.2675944 0,0 0.051585,-0.1365658 0.1837705,-0.2495716 0.1321858,-0.1130056 0.1725284,-0.1712042 0.244201,-0.1969145 0.07167,-0.025724 0.2978533,-0.041235 0.2978533,-0.041235 0,0 0.1836041,0.030341 0.2317158,0.085231 0.048112,0.054893 0.139873,0.1400417 0.1857529,0.1826126 0.04588,0.042575 0.1521905,0.1378096 0.1857536,0.182616 0.033561,0.044803 0.092646,0.1111753 0.092646,0.1111753 z"
       id="path20216" /><path
       style="opacity:0.99;fill:#cccccc;fill-opacity:1;fill-rule:nonzero;stroke:none;stroke-width:0.0354046;stroke-dasharray:none;stroke-opacity:1;paint-order:fill markers stroke"
       d="m 3.4802765,4.374537 c 0,0 -1.1548332,0.8749433 -0.6344743,1.8601395 0.520359,0.9851962 0.6866049,1.009047 0.6866049,1.009047 l 0.049103,-0.026888 c 0,0 0.1284843,-0.3831111 0.2092686,-0.4337341 0.080785,-0.05062 0.1900953,-0.142393 0.2977688,-0.1439134 0.107674,-0.00152 0.4401644,0.046182 0.4907853,0.1269653 0.050621,0.080787 0.2152292,0.1948876 0.2801145,0.2550996 0.064884,0.060209 0.1408747,0.08242 0.1408747,0.08242 0,0 0.030281,-0.3293316 0.054131,-0.495579 C 5.0783022,6.4418499 5.083096,6.3690154 5.0404244,6.232816 4.997754,6.0966164 4.9313496,5.9287328 4.9313496,5.9287328 L 4.8032182,5.7180627 C 5.180923,5.9056447 6.0411043,5.7009137 5.5759661,4.6139491 5.3817021,4.1599801 5.4897921,4.097274 5.4897921,4.097274 c 0,0 0.1156624,-0.1078274 0.4038457,-0.1060654 0.288181,0.00176 0.6460407,-0.00911 0.8502815,0.025842 0.2042399,0.034957 0.5161542,0.068393 0.6649801,0.095401 0.1488251,0.027007 0.5367298,0.082655 0.6364533,0.1365507 0.099724,0.053899 0.338803,0.082539 0.4353703,0.119016 0.096567,0.036477 0.3071196,0.106271 0.3071196,0.106271 0,0 0.09914,-0.2968326 0.1767683,-0.3648744 0.077629,-0.068039 0.1529196,-0.1986235 0.1529196,-0.1986235 l 0.1092519,0.00719 0.1186009,0.2573771 0.06155,0.3396806 c 0,0 0.156952,-0.3252989 0.215641,-0.4978594 0.05869,-0.1725576 0.07143,-0.300807 0.126966,-0.4907827 C 9.805076,3.3364152 9.832079,3.1875904 9.803671,3.030816 9.7752625,2.8740379 9.792922,2.4750278 9.7107325,2.2200483 9.6285425,1.9650686 9.6190725,1.9128093 9.5478755,1.8177637 9.4766765,1.7227145 9.4608945,1.6356179 9.4134265,1.5722536 9.3659575,1.508889 9.3121858,1.4106824 9.3121858,1.4106824 c 0,0 0.055294,0.205878 0.017184,0.3927 -0.03811,0.1868221 -0.05565,0.3879037 -0.05565,0.3879037 0,0 -0.00771,-0.3404371 -0.279761,-0.8488771 C 8.721923,0.83396762 8.7647124,0.77223873 8.7647124,0.77223873 L 8.7457738,0.66772354 c 0,0 0.012504,0.26760335 -0.1712746,0.44483646 C 8.3907165,1.2897937 8.1356197,1.5699099 7.9503182,1.6394684 7.7650166,1.7090305 7.2471071,1.9288188 7.1077519,1.9540705 L 6.4980682,2.0645476 c -0.069677,0.012626 -0.2501857,0.00935 -0.2501857,0.00935 0,0 0.270762,0.00491 0.4261353,-0.3290995 0.1553739,-0.3340082 0.1347986,-0.3482705 0.1347986,-0.3482705 0,0 -0.2486666,0.1170256 -0.4054428,0.145434 L 5.828531,1.6461254 C 5.7240134,1.6650644 5.0967936,1.976626 4.98117,2.0335586 4.8655466,2.0904943 4.2636962,2.3434836 4.1590607,2.5603472 4.0544259,2.7772144 3.6820678,3.2045163 3.6630121,3.2979292 c -0.019057,0.09341 -0.030164,0.1314033 -0.087333,0.4116353 -0.05717,0.2802322 -0.014498,0.4164316 -0.030399,0.5272633 -0.0159,0.1108281 -0.065002,0.1377197 -0.065002,0.1377197 z"
       id="path20218"
       sodipodi:nodetypes="csccsssscssccscssssscsccccsssssscscsccsssscscssssssscc" /><path
       style="opacity:0.99;fill:#fde0a4;fill-opacity:0.992157;fill-rule:nonzero;stroke:none;stroke-width:0.0384263;stroke-dasharray:none;stroke-opacity:1;paint-order:fill markers stroke"
       d="m 5.8609512,8.6672533 0.044579,0.2460136 c 0,0 0.02072,0.2965329 0.3165092,0.2891309 0.2957919,-0.0074 0.4517931,0.033633 0.4517931,0.033633 l -0.051557,-0.466713 c 0,0 -0.2694617,-0.029497 -0.4574277,-0.064732 C 5.9768802,8.6693463 5.9446881,8.5827838 5.9446881,8.5827838 Z"
       id="path20220"
       sodipodi:nodetypes="ccsccscc" /><path
       style="opacity:0.99;fill:#444960;fill-opacity:1;fill-rule:nonzero;stroke:none;stroke-width:0.0354046;stroke-dasharray:none;stroke-opacity:1;paint-order:fill markers stroke"
       d="m 4.6259835,11.949822 c 0,0 0.027024,0.997124 0.035876,1.094493 0.00885,0.09737 -0.052098,0.660217 -0.078653,0.704476 -0.026553,0.04426 -0.089527,0.304604 -0.1160823,0.348863 -0.026553,0.04425 -0.3186572,0.690424 -0.3629147,0.716977 -0.044258,0.02655 -0.2566965,0.380621 -0.2566965,0.380621 0,0 0.1947346,0.05311 0.2566965,0.05311 0.061961,0 0.4691344,-0.04425 0.5842041,-0.06196 0.1150709,-0.0177 0.247845,-0.0177 0.336361,-0.0177 0.088516,0 0.1947343,0.159327 0.2301413,0.159327 0.035406,0 0,-0.13277 0.00885,-0.221289 0.00885,-0.08852 -0.00885,-0.123919 0.070812,-0.185884 0.079664,-0.06196 0.1093264,-0.07811 0.1624361,-0.290548 0.053109,-0.212438 0.081217,-0.436835 0.098921,-0.516503 0.017702,-0.07966 0.05311,-0.266592 -0.00885,-0.42592 C 5.525123,13.528554 5.526171,13.297366 5.490766,13.25311 5.455359,13.20885 5.423096,12.522077 5.3345799,12.398154 5.2460639,12.274231 4.9893685,11.911316 4.9893685,11.911316 Z"
       id="path20232"
       sodipodi:nodetypes="csssscscssscssssscc" /><path
       style="opacity:0.99;fill:#23283b;fill-opacity:1;fill-rule:nonzero;stroke:none;stroke-width:0.0354046;stroke-dasharray:none;stroke-opacity:1;paint-order:fill markers stroke"
       d="m 6.1223714,12.884984 c 0,0 0.300954,0.548799 0.3452125,0.575356 0.044257,0.02655 0.2124379,0.380617 0.2124379,0.380617 0,0 0.017702,0.300952 -0.017702,0.486837 -0.035407,0.185885 -0.1062193,0.539948 -0.1062193,0.628463 0,0.08851 -0.088516,0.238995 -0.05311,0.238995 0.035406,0 0.3540636,0.02655 0.5665015,0.02655 0.212439,0 0.2212902,0.05311 0.5222441,0.0089 0.3009539,-0.04426 0.3894699,-0.0354 0.4425796,-0.05311 0.05311,-0.0177 -0.017702,0 -0.061961,-0.141626 -0.044258,-0.141667 -0.048954,-0.0266 -0.1020644,-0.239037 C 7.8171807,14.584491 7.7489692,14.441312 7.7578207,14.264282 7.7666718,14.087248 7.6036944,13.553553 7.4797724,13.482737 7.3558501,13.411928 7.352743,13.230196 7.2819307,13.177089 7.2111174,13.123979 6.7596867,12.672546 6.7596867,12.672546 L 6.4941391,12.62829 c 0,0 -0.2301417,0.185881 -0.2655476,0.203587 l -0.1062197,0.05311 z"
       id="path20234"
       sodipodi:nodetypes="cscsssscsssscsccccc" /><path
       style="opacity:0.99;fill:#474e61;fill-opacity:1;fill-rule:nonzero;stroke:none;stroke-width:0.0354046;stroke-dasharray:none;stroke-opacity:1;paint-order:fill markers stroke"
       d="m 4.8211883,11.840497 2.1863423,0.150476 c 0,0 0.159329,0.230144 0.035406,0.371769 -0.1239219,0.141625 -0.2478439,0.283251 -0.3363598,0.354063 -0.088516,0.07081 -0.2566965,0.194736 -0.3629148,0.212438 -0.1062197,0.0177 -0.2212905,0.04426 -0.3629158,0.02655 -0.1416249,-0.0177 -0.3186565,0.0089 -0.451431,-0.03541 C 5.396542,12.876133 5.2372126,12.893839 5.1752515,12.707954 5.1132907,12.52207 5.060181,12.229968 5.0159236,12.168007 4.971665,12.106045 4.7769297,11.831646 4.7769297,11.831646 Z"
       id="path20230" /><path
       style="opacity:0.99;fill:#ff0000;fill-opacity:1;fill-rule:nonzero;stroke:#800000;stroke-width:0.0354046;stroke-dasharray:none;stroke-opacity:1;paint-order:fill markers stroke"
       d="m 3.8563646,15.221805 c 0,0 1.0621908,-0.07081 1.159559,-0.02655 0.097367,0.04425 0.4071722,0.212438 0.4425792,0.292101 0.035406,0.07966 0.1239223,0.265549 0.1681798,0.309804 0.044258,0.04426 -0.1947346,0.08851 -0.2566954,0.07081 -0.061962,-0.0177 -0.3186577,-0.0177 -0.4779866,-0.0177 -0.1593283,0 -0.3806185,-0.0177 -0.6461661,-0.02655 -0.2655479,-0.0089 -0.4160247,-0.0089 -0.486837,-0.0089 -0.070813,0 -0.247845,0.04426 -0.212438,0 0.035406,-0.04426 0.088516,-0.345212 0.1593283,-0.495688 0.070812,-0.150477 0.1504768,-0.09737 0.1504768,-0.09737 z"
       id="path20236" /><path
       style="opacity:0.99;fill:#e3dedb;fill-opacity:1;fill-rule:nonzero;stroke:none;stroke-width:0.0354046;stroke-dasharray:none;stroke-opacity:1;paint-order:fill markers stroke"
       d="m 3.5642621,15.841417 c -0.044257,-0.0089 -0.097367,0.09737 -0.097367,0.09737 0,0 0.017702,0.141625 0.070812,0.159327 0.05311,0.0177 0.061961,0.0177 0.3098062,0.04426 0.2478439,0.02655 0.4602818,0.03541 0.646166,0.03541 0.1858831,0 0.6373138,-0.02655 0.7258298,-0.03541 0.088516,-0.0089 0.3009546,-0.0177 0.3806184,-0.05311 0.079664,-0.0354 0.1416253,-0.06196 0.1416253,-0.123919 0,-0.06196 -0.044257,-0.159332 -0.088516,-0.159332 -0.044258,0 -2.0889753,0.03541 -2.0889753,0.03541 z"
       id="path20238" /><path
       style="opacity:0.99;fill:#aa0000;fill-opacity:1;fill-rule:nonzero;stroke:#800000;stroke-width:0.0354046;stroke-dasharray:none;stroke-opacity:1;paint-order:fill markers stroke"
       d="m 6.6478872,15.12166 c 0,0 1.0621908,-0.07081 1.159559,-0.02655 0.097367,0.04426 0.4071722,0.212438 0.4425792,0.292102 0.035406,0.07966 0.1239223,0.265548 0.1681798,0.309804 0.044258,0.04426 -0.1947346,0.08851 -0.2566954,0.07081 -0.061962,-0.0177 -0.3186577,-0.0177 -0.4779866,-0.0177 -0.1593283,0 -0.3806185,-0.0177 -0.6461661,-0.02655 -0.2655479,-0.0089 -0.4160247,-0.0089 -0.486837,-0.0089 -0.070813,0 -0.247845,0.04426 -0.2124379,0 0.035406,-0.04426 0.088516,-0.345212 0.1593282,-0.495689 0.070812,-0.150476 0.1504768,-0.09737 0.1504768,-0.09737 z"
       id="path20240" /><path
       style="opacity:0.99;fill:#e3dedb;fill-opacity:1;fill-rule:nonzero;stroke:none;stroke-width:0.0354046;stroke-dasharray:none;stroke-opacity:1;paint-order:fill markers stroke"
       d="m 6.3557848,15.741271 c -0.044258,-0.0089 -0.097367,0.09737 -0.097367,0.09737 0,0 0.017702,0.141626 0.070812,0.159328 0.05311,0.0177 0.061961,0.0177 0.3098061,0.04426 0.2478439,0.02655 0.4602818,0.03541 0.646166,0.03541 0.1858831,0 0.6373138,-0.02655 0.7258298,-0.03541 0.088516,-0.0089 0.3009546,-0.0177 0.3806184,-0.05311 0.079664,-0.03541 0.1416253,-0.06196 0.1416253,-0.12392 0,-0.06196 -0.044257,-0.159331 -0.088516,-0.159331 -0.044258,0 -2.0889752,0.03541 -2.0889752,0.03541 z"
       id="path20242" /><path
       style="opacity:0.99;fill:none;fill-opacity:1;fill-rule:nonzero;stroke:#000000;stroke-width:0.0354046;stroke-dasharray:none;stroke-opacity:1;paint-order:fill markers stroke"
       d="m 8.7216352,6.6407557 c 3.854e-4,0.026917 0.00865,0.097384 0.018536,0.12708 0.00987,0.029694 0.043901,0.068508 0.097736,0.067748 0.053837,-7.613e-4 0.096186,0.00956 0.129828,0.021454 0.033643,0.011894 0.1333642,0.06579 0.1448209,0.1041966 0.011461,0.038402 -0.00166,0.1397357 -0.01,0.1682312 -0.00833,0.028495 0.028057,0.080374 -0.024201,0.089844 -0.052259,0.00947 -0.1389473,0.00269 -0.1650766,0.00742 -0.026128,0.00473 -0.1286579,0.00982 -0.1286579,0.00982 l 0.047114,-0.013039 0.077978,0.00836"
       id="path20256" /><path
       style="opacity:0.99;fill:#f1cd83;fill-opacity:0.976471;fill-rule:nonzero;stroke:none;stroke-width:0.0354046;stroke-dasharray:none;stroke-opacity:1;paint-order:fill markers stroke"
       d="m 7.1299,10.887339 c 0,0.03541 -0.061962,0.05311 -0.1062196,0.185884 -0.044259,0.132775 -0.035406,0.194736 -0.044259,0.256698 -0.00885,0.06196 -0.1239219,0.256697 -0.1239219,0.256697 0,0 -0.2478443,0.13277 -0.097367,0.238991 0.1504779,0.106217 0.2212894,0.17703 0.265548,0.17703 0.044257,0 0.1239219,-0.03541 0.1858831,-0.115068 0.061961,-0.07966 0.1327745,-0.141626 0.1858841,-0.256698 0.053109,-0.115071 0.1327731,-0.327509 0.1327731,-0.327509 0,0 -0.017702,0.159331 0.061961,0.221292 0.079664,0.06196 0,0.09737 0.1593293,0.05311 0.159328,-0.04426 0.2832503,-0.238991 0.2921025,-0.283251 0.00885,-0.04425 0.079663,-0.168178 0.079663,-0.256693 0,-0.08852 -0.053109,-0.177034 -0.1327731,-0.221293 -0.079665,-0.04425 -0.2655476,-0.0354 -0.3540636,-0.02655 -0.088516,0.0089 -0.4337281,0.03541 -0.4337281,0.03541 z"
       id="path20226"
       sodipodi:nodetypes="csscsssscsssssscc" /><path
       style="opacity:0.99;fill:#f1cd83;fill-opacity:0.976471;fill-rule:nonzero;stroke:none;stroke-width:0.0354046;stroke-dasharray:none;stroke-opacity:1;paint-order:fill markers stroke"
       d="m 7.1830086,11.922975 c 0,0 -0.053109,0.150477 -0.053109,0.203587 0,0.05311 0.1327731,0.150476 0.2212891,0.185884 0.088516,0.03541 0.2921025,0.07081 0.3894696,0.0089 0.097368,-0.06196 0.1681805,-0.194736 0.1947356,-0.238992 0.026554,-0.04426 0.035406,-0.06196 0.079665,-0.06196 0.044258,0 0.1504768,-0.09737 0.1504768,-0.15048 0,-0.05311 0,-0.09737 0,-0.141626 0,-0.04425 0.1062186,-0.123919 0.1062186,-0.123919 0,0 0.05311,-0.07966 0.05311,-0.177033 0,-0.09737 0.088516,-0.159328 -0.026553,-0.17703 -0.1150708,-0.0177 -0.2212895,-0.106221 -0.2212895,-0.106221 0,0 -0.6373145,-0.02655 -0.6992756,0.03541 -0.061961,0.06196 -0.1947353,0.743531 -0.1947353,0.743531 z"
       id="path20228" /><path
       style="opacity:0.99;fill:#ff0000;fill-opacity:1;fill-rule:nonzero;stroke:#800000;stroke-width:0.0360925;stroke-dasharray:none;stroke-opacity:1;paint-order:fill markers stroke"
       d="M 4.9767722,10.537754 C 4.904583,10.429469 5.3184364,10.347766 5.3003899,10.221436 5.2823442,10.095109 4.6966028,9.9600228 4.9492618,9.7975974 c 0.3060111,-0.4935147 0.09077,-0.42956 0.6050167,-0.8479851 0.1624233,-0.07219 0.2887528,-0.1624255 0.2887528,-0.1624255 0,0 0.1082827,0.1624255 0.2165657,0.288756 0.108282,0.126327 0.1624234,0.2526575 0.3428945,0.1985169 0.1804705,-0.054141 0.2346119,-0.162422 0.2346119,-0.162422 0.085049,-0.028359 0.723446,1.4913713 0.3428945,2.2739323 -0.3024948,0.622047 0.1082827,0.649694 0,0.685786 -0.108282,0.03609 -0.73993,0.01806 -0.73993,0.01806 0,0 -0.3970366,-0.09023 -0.4692244,-0.09023 H 5.2835721 c -0.090235,0 -0.5539174,0.29953 -0.6441526,0.209294 -0.090236,-0.09024 -0.1043347,-0.305014 0.01361,-0.665634 0.1086831,-0.3323 0.3398048,-0.550282 0.215459,-0.806958 -0.1007617,-0.207995 0.252659,-0.144376 0.252659,-0.144376 0,0 0.1593279,-0.04138 0.3578462,-0.149666 C 5.6775107,10.333962 5.9874075,9.9061158 5.9874075,9.9061158 5.7892709,10.286994 5.5074793,10.517294 5.1391944,10.591906 Z"
       id="path20222"
       sodipodi:nodetypes="cscccsscsscssssscsccc" /><path
       style="opacity:0.99;fill:#fde0a4;fill-opacity:0.992157;fill-rule:nonzero;stroke:none;stroke-width:0.0354046;stroke-dasharray:none;stroke-opacity:1;paint-order:fill markers stroke"
       d="m 5.0303181,10.476993 0.8790856,0.131058 c 0.1091841,0.282129 0.06978,0.702198 0.108943,0.697267 0.039295,-0.005 0.225092,-0.481383 0.2525023,-0.520379 0.027323,-0.03907 0.2459685,-0.287213 0.2885201,-0.367795 0.042606,-0.08057 0.1970363,-0.297488 0.1970363,-0.297488 0,0 -0.1015564,0.08734 -0.1392519,-0.0677 -0.037718,-0.1550541 -0.06963,-0.1553805 -0.049642,-0.1895492 0.01985,-0.034265 0.086727,-0.3207395 0.086727,-0.3207395 L 6.8531348,9.2957074 c 0,0 0.033214,-0.1273161 0.1212104,-0.089609 0.087998,0.037722 0.1569808,0.013861 0.1344173,0.06029 -0.022466,0.04647 -0.1318471,0.1705252 -0.1318471,0.1705252 L 7.1929045,9.2009594 7.258339,9.0420303 c 0,0 0.097043,-0.1266768 0.2114711,-0.032233 0.1144432,0.094447 0.1350572,0.2395117 0.1350572,0.2395117 0,0 0.01443,0.022348 0.1269992,0.065135 0.1125021,0.042874 0.2524079,0.04675 0.234348,0.13249 -0.018059,0.085749 -0.0016,0.1595684 0.019976,0.2088926 0.021624,0.049319 0.1121815,0.074793 0.1460342,0.1266845 0.033846,0.051898 0.1412031,0.1192651 0.066394,0.2314529 -0.074796,0.112176 -0.1020981,0.151243 -0.176881,0.263421 -0.074797,0.112179 -0.052862,0.129592 -0.1689337,0.19469 -0.1160467,0.06512 -0.2243608,0.09348 -0.2981819,0.109913 -0.073815,0.01642 -0.093479,0.01869 -0.1724565,0.05963 -0.1720395,0.486828 -0.4081264,0.980357 -0.865123,1.499205 -0.1921335,0.06189 -0.406072,0.08487 -0.6465492,0.07261 C 5.630017,12.201203 5.5051768,11.916342 5.4097242,11.883525 5.1188036,11.637453 4.7311374,10.864106 5.0302981,10.477037 Z"
       id="path20224"
       sodipodi:nodetypes="ccscccccccccccccccscccccsccsccc" /><path
       style="opacity:0.99;fill:#fde0a4;fill-opacity:1;fill-rule:nonzero;stroke:none;stroke-width:0.1;stroke-dasharray:none;stroke-opacity:1;paint-order:fill markers stroke"
       d="m -101.026,40.768853 c 0,0 0.71779,-3.53779 0.541,-3.64386 -0.17679,-0.10607 1.025358,-0.17678 1.308214,-0.56571 0.282858,-0.38893 0.707144,-0.81322 0.813215,-1.27286 0.106072,-0.45964 0.212143,-1.09607 0.212143,-1.44964 0,-0.35358 -0.106071,-1.30822 -0.106071,-1.30822 v -0.14143 c 0,0 4.348927,0.21215 6.611783,1.41429 2.262857,1.20214 2.368929,1.27286 2.368929,1.27286 0,0 0.990002,-0.77786 1.060714,-0.91929 0.07072,-0.14143 0.459645,-0.35357 0.459645,-0.35357 l 0.459642,0.99 c 0,0 0.141428,4.31357 -0.03536,4.98536 -0.176787,0.67178 -0.106071,0.31821 -0.14143,0.495 -0.03536,0.17678 -0.141428,1.20214 -0.141428,1.52035 0,0.31822 0.07071,1.13143 0.03536,1.44965 -0.03536,0.31821 -0.565713,1.87393 -0.565713,1.87393 0,0 -1.025359,0.99 -1.272858,1.09607 -0.247499,0.10607 -1.485,0.63643 -1.661784,0.70714 -0.176787,0.0707 -0.707144,0.14143 -0.883931,0.14143 -0.176784,0 -1.308214,0 -1.661784,0 -0.353571,0 -1.308214,-0.14143 -1.626428,-0.21214 -0.318215,-0.0707 -1.096071,-0.2475 -1.555716,-0.31822 -0.459642,-0.0707 -1.272857,-0.38893 -1.626428,-0.56571 -0.353571,-0.17679 -1.025356,-0.45965 -1.166786,-0.53036 -0.141428,-0.0707 -0.777858,-0.67178 -0.989998,-0.77786 -0.21214,-0.10607 -0.70715,-0.495 -0.81322,-0.63642 -0.10607,-0.14143 -0.495,-0.49501 -0.495,-0.49501 v -0.45964 c 0,0 -0.45964,0.495 -0.99,0.21215 -0.53035,-0.28286 -1.30821,-0.35358 -1.59107,-0.70715 -0.28286,-0.35357 -0.60107,-1.13143 -0.60107,-1.27286 0,-0.14142 -0.0354,-0.42428 0,-0.70714 0.0354,-0.28286 0.14143,-0.7425 0.14143,-0.7425 0,0 0.21214,-0.35357 0.63643,-0.60107 0.42428,-0.2475 0.56571,-0.38893 0.77786,-0.42429 0.21214,-0.0354 0.84857,0.0354 0.84857,0.0354 0,0 0.495,0.17679 0.60107,0.35357 0.10607,0.17679 0.31821,0.45965 0.42428,0.60107 0.10607,0.14143 0.35357,0.45965 0.42429,0.60108 0.0707,0.14142 0.2015,0.35564 0.2015,0.35564 z"
       id="path32083" /><path
       style="opacity:0.99;fill:#ff6600;fill-opacity:1;fill-rule:nonzero;stroke:none;stroke-width:0.1;stroke-dasharray:none;stroke-opacity:1;paint-order:fill markers stroke"
       d="m -103.77615,32.368433 c 0,0 -3.65018,1.85009 -2.70013,4.85024 0.95004,3.00015 1.40007,3.15016 1.40007,3.15016 l 0.15001,-0.05 c 0,0 0.55002,-1.00005 0.80004,-1.10006 0.25001,-0.1 0.60003,-0.30001 0.90004,-0.25001 0.30002,0.05 1.20006,0.35002 1.30007,0.60003 0.1,0.25002 0.50002,0.65003 0.65003,0.85005 0.15001,0.20001 0.35002,0.30001 0.35002,0.30001 0,0 0.25001,-0.90004 0.40002,-1.35007 0.15001,-0.45002 0.20001,-0.65003 0.15001,-1.05005 -0.05,-0.40002 -0.15001,-0.90005 -0.15001,-0.90005 l -0.25001,-0.65003 c 0.955262,0.71155 3.449013,0.57575 2.703689,-2.67943 -0.311283,-1.35952 0.02071,-1.47936 0.02071,-1.47936 0,0 0.375756,-0.24143 1.175798,-0.0914 0.800039,0.15001 1.80009,0.30002 2.350119,0.50003 0.550026,0.20001 1.400071,0.45002 1.800092,0.60003 0.400019,0.15001 1.450073,0.50002 1.700086,0.70003 0.250013,0.20002 0.900046,0.40002 1.150059,0.55003 0.250013,0.15001 0.800039,0.45002 0.800039,0.45002 0,0 0.425022,-0.77504 0.675035,-0.92505 0.250012,-0.15 0.525028,-0.47501 0.525028,-0.47501 l 0.300016,0.075 0.200011,0.77504 -3e-6,0.97505 c 0,0 0.600031,-0.82504 0.850044,-1.27507 0.250013,-0.45002 0.350017,-0.80004 0.60003,-1.30006 0.250013,-0.50003 0.400021,-0.90005 0.400021,-1.35007 0,-0.45003 0.250013,-1.55008 0.150008,-2.30012 -0.100005,-0.75004 -0.100005,-0.90005 -0.250013,-1.20006 -0.150008,-0.30002 -0.150008,-0.55003 -0.250012,-0.75004 -0.100005,-0.20001 -0.20001,-0.50003 -0.20001,-0.50003 0,0 0.05,0.60003 -0.150008,1.10006 -0.200012,0.50003 -0.350017,1.05005 -0.350017,1.05005 0,0 0.150005,-0.95004 -0.35002,-2.50012 -0.500025,-1.55008 -0.350017,-1.70009 -0.350017,-1.70009 v -0.30001 c 0,0 -0.100005,0.75003 -0.700035,1.15005 -0.600032,0.40002 -1.450075,1.05006 -2.000102,1.15006 -0.550029,0.10001 -2.100109,0.45003 -2.500127,0.45003 h -1.750092 c -0.200009,0 -0.700034,-0.10001 -0.700034,-0.10001 0,0 0.750038,0.15001 1.350068,-0.70004 0.60003,-0.85004 0.550029,-0.90004 0.550029,-0.90004 0,0 -0.750038,0.20001 -1.200063,0.20001 h -1.650081 c -0.300017,0 -2.200114,0.55003 -2.550131,0.65003 -0.350018,0.10001 -2.150107,0.50003 -2.550127,1.05005 -0.40003,0.55003 -1.65009,1.55008 -1.75009,1.8001 -0.10001,0.25001 -0.15001,0.35001 -0.45003,1.10005 -0.30001,0.75004 -0.25001,1.15006 -0.35002,1.45008 -0.1,0.30001 -0.25001,0.35002 -0.25001,0.35002 z"
       id="path32085"
       sodipodi:nodetypes="csccsssscssccscssssscsccccsssssscscsccsssscscssssssscc" /><path
       style="opacity:0.99;fill:#fde0a4;fill-opacity:0.992157;fill-rule:nonzero;stroke:none;stroke-width:0.108535;stroke-dasharray:none;stroke-opacity:1;paint-order:fill markers stroke"
       d="m -99.321539,45.497833 v 0.70618 c 0,0 -0.09175,0.83457 0.734045,0.96296 0.825802,0.1284 1.238702,0.321 1.238702,0.321 l 0.09175,-1.32307 c 0,0 -0.734043,-0.21768 -1.2387,-0.41027 -0.504657,-0.1926 -0.550533,-0.44939 -0.550533,-0.44939 z"
       id="path32087"
       sodipodi:nodetypes="ccsccscc" /><path
       style="opacity:0.99;fill:#48a4df;fill-opacity:1;fill-rule:nonzero;stroke:#0055d4;stroke-width:0.1;stroke-dasharray:none;stroke-opacity:1;paint-order:fill markers stroke"
       d="m -101.77604,50.669363 c -0.20001,-0.30002 -1.50008,-1.50008 -1.55008,-1.8501 -0.05,-0.35001 -0.10001,-0.2 0.60003,-0.65003 0.70003,-0.45002 1.35007,-0.80004 1.75009,-0.85004 0.40002,-0.05 1.000048,-0.10001 1.000048,-0.10001 l -1.000048,0.05 c 0,0 0.35001,-0.80003 0.80004,-1.00005 0.45002,-0.20001 0.800038,-0.45002 0.800038,-0.45002 0,0 0.300016,0.45002 0.600032,0.80004 0.300014,0.35002 0.450022,0.70004 0.950048,0.55003 0.500025,-0.15001 0.650033,-0.45002 0.650033,-0.45002 0,0 1.20006,4.40022 0.950048,6.30032 -0.250013,1.90009 0.300016,1.80009 0,1.90009 -0.300014,0.10001 -2.050103,0.05 -2.050103,0.05 0,0 -1.100058,-0.25001 -1.300067,-0.25001 H -100.926 c -0.25001,0 -0.50003,0.25001 -0.75004,0 -0.25001,-0.25002 -0.80004,-0.90005 -0.85004,-1.9501 -0.05,-1.05006 -0.05,-1.15006 0.45002,-1.55008 0.50003,-0.40002 0.70004,-0.40002 0.70004,-0.40002 0,0 0.44144,-0.11465 0.99147,-0.41467 0.550027,-0.30001 1.408649,-1.48543 1.408649,-1.48543 -0.548972,1.05529 -1.329719,1.69338 -2.350119,1.9001 z"
       id="path32089"
       sodipodi:nodetypes="csssccscsscsscssssscsccc" /><path
       style="opacity:0.99;fill:#444960;fill-opacity:1;fill-rule:nonzero;stroke:none;stroke-width:0.1;stroke-dasharray:none;stroke-opacity:1;paint-order:fill markers stroke"
       d="m -103.30112,54.894573 c 0,0 0.50002,2.67514 0.52503,2.95016 0.025,0.27501 0.1,1.90009 0.025,2.0251 -0.075,0.12501 -0.50003,0.82504 -0.57503,0.95005 -0.075,0.125 -0.90005,1.9501 -1.02505,2.0251 -0.12501,0.075 -0.72504,1.07506 -0.72504,1.07506 0,0 0.55002,0.15 0.72504,0.15 0.175,0 1.32506,-0.125 1.65008,-0.17501 0.32501,-0.05 0.70003,-0.05 0.95005,-0.05 0.25001,0 0.55002,0.45002 0.65003,0.45002 0.10001,0 0,-0.37501 0.025,-0.62503 0.025,-0.25001 -0.025,-0.35001 0.20001,-0.52503 0.22501,-0.175 0.45002,-0.15 0.60003,-0.75003 0.15001,-0.60003 0.300016,-1.37507 0.35002,-1.60009 0.05,-0.22501 0.150008,-0.70003 -0.025,-1.15005 -0.17501,-0.45003 -0.22501,-1.05006 -0.32502,-1.17506 -0.1,-0.12501 -0.35002,-2.10011 -0.60003,-2.45013 -0.25001,-0.35002 -0.97505,-1.37507 -0.97505,-1.37507 z"
       id="path32091" /><path
       style="opacity:0.99;fill:#23283b;fill-opacity:1;fill-rule:nonzero;stroke:none;stroke-width:0.1;stroke-dasharray:none;stroke-opacity:1;paint-order:fill markers stroke"
       d="m -98.650885,57.394703 c 0,0 0.850043,1.55008 0.975051,1.62509 0.125005,0.075 0.60003,1.07505 0.60003,1.07505 0,0 0.05,0.85004 -0.05,1.37507 -0.100007,0.52503 -0.300016,1.52508 -0.300016,1.77509 0,0.25001 -0.250013,0.67504 -0.150009,0.67504 0.100005,0 1.000051,0.075 1.600081,0.075 0.600033,0 0.625033,0.15 1.475076,0.025 0.850043,-0.12501 1.100056,-0.1 1.250064,-0.15001 0.150008,-0.05 -0.05,0 -0.175009,-0.40002 -0.125005,-0.40001 -0.05,-0.075 -0.200009,-0.67503 -0.150008,-0.60003 -0.325017,-1.07506 -0.300016,-1.57508 0.025,-0.50003 -0.400021,-2.0251 -0.750038,-2.22512 -0.350018,-0.2 -0.500026,-0.62503 -0.700035,-0.77503 -0.200012,-0.15001 -1.475076,-1.42508 -1.475076,-1.42508 l -0.750038,-0.125 c 0,0 -0.650034,0.52502 -0.750038,0.57503 -0.100005,0.05 -0.300017,0.15 -0.300018,0.15 z"
       id="path32093" /><path
       style="opacity:0.99;fill:#474e61;fill-opacity:1;fill-rule:nonzero;stroke:none;stroke-width:0.1;stroke-dasharray:none;stroke-opacity:1;paint-order:fill markers stroke"
       d="m -102.32607,54.444553 6.175313,0.42502 c 0,0 0.450024,0.65004 0.100004,1.05006 -0.350017,0.40002 -0.700034,0.80004 -0.950047,1.00005 -0.250013,0.20001 -0.725038,0.55003 -1.025051,0.60003 -0.300017,0.05 -0.625034,0.125 -1.025054,0.075 -0.400019,-0.05 -0.900044,0.025 -1.275065,-0.1 -0.37502,-0.12501 -0.82504,-0.075 -1.00005,-0.60003 -0.17501,-0.52503 -0.32502,-1.35007 -0.45002,-1.52508 -0.12501,-0.17501 -0.67504,-0.95005 -0.67504,-0.95005 z"
       id="path32095" /><path
       style="opacity:0.99;fill:#47a3e3;fill-opacity:1;fill-rule:nonzero;stroke:#0055d4;stroke-width:0.1;stroke-dasharray:none;stroke-opacity:1;paint-order:fill markers stroke"
       d="m -105.05121,63.995043 c 0,0 3.00015,-0.20001 3.27517,-0.075 0.27501,0.125 1.15005,0.60003 1.25006,0.82504 0.10001,0.22501 0.35002,0.75004 0.47502,0.87504 0.125011,0.12501 -0.55002,0.25001 -0.72503,0.20001 -0.17501,-0.05 -0.90005,-0.05 -1.35007,-0.05 -0.45002,0 -1.07506,-0.05 -1.8251,-0.075 -0.75003,-0.025 -1.17506,-0.025 -1.37506,-0.025 -0.20002,0 -0.70004,0.12501 -0.60003,0 0.1,-0.12501 0.25001,-0.97505 0.45002,-1.40007 0.20001,-0.42502 0.42502,-0.27501 0.42502,-0.27501 z"
       id="path32097" /><path
       style="opacity:0.99;fill:#e3dedb;fill-opacity:1;fill-rule:nonzero;stroke:none;stroke-width:0.1;stroke-dasharray:none;stroke-opacity:1;paint-order:fill markers stroke"
       d="m -105.87625,65.745133 c -0.12501,-0.025 -0.27502,0.27501 -0.27502,0.27501 0,0 0.05,0.40002 0.20001,0.45002 0.15001,0.05 0.17501,0.05 0.87505,0.12501 0.70003,0.075 1.30006,0.10001 1.82509,0.10001 0.52503,0 1.80009,-0.075 2.0501,-0.10001 0.25002,-0.025 0.85005,-0.05 1.07506,-0.15001 0.225012,-0.1 0.40002,-0.17501 0.40002,-0.35001 0,-0.17501 -0.125005,-0.45003 -0.250012,-0.45003 -0.125008,0 -5.900298,0.10001 -5.900298,0.10001 z"
       id="path32099" /><path
       style="opacity:0.99;fill:#47a3e3;fill-opacity:1;fill-rule:nonzero;stroke:#0055d4;stroke-width:0.1;stroke-dasharray:none;stroke-opacity:1;paint-order:fill markers stroke"
       d="m -97.166568,63.712183 c 0,0 3.000153,-0.20001 3.275169,-0.075 0.275013,0.125 1.150056,0.60003 1.250063,0.82504 0.100005,0.22501 0.350018,0.75004 0.475023,0.87504 0.125007,0.12501 -0.550027,0.25001 -0.725035,0.20001 -0.175012,-0.05 -0.900047,-0.05 -1.350071,-0.05 -0.450022,0 -1.075055,-0.05 -1.825093,-0.075 -0.750039,-0.025 -1.17506,-0.025 -1.375069,-0.025 -0.200012,0 -0.700037,0.12501 -0.60003,0 0.100004,-0.12501 0.250013,-0.97505 0.450022,-1.40007 0.200009,-0.42502 0.425021,-0.27501 0.425021,-0.27501 z"
       id="path32101" /><path
       style="opacity:0.99;fill:#e3dedb;fill-opacity:1;fill-rule:nonzero;stroke:none;stroke-width:0.1;stroke-dasharray:none;stroke-opacity:1;paint-order:fill markers stroke"
       d="m -97.99161,65.462273 c -0.125005,-0.025 -0.275013,0.27501 -0.275013,0.27501 0,0 0.05,0.40002 0.200009,0.45002 0.150008,0.05 0.175008,0.05 0.875046,0.12501 0.700034,0.075 1.300064,0.10001 1.825093,0.10001 0.525026,0 1.80009,-0.075 2.050103,-0.10001 0.250012,-0.025 0.850045,-0.05 1.075055,-0.15001 0.225012,-0.1 0.40002,-0.17501 0.40002,-0.35001 0,-0.17501 -0.125005,-0.45003 -0.250012,-0.45003 -0.125005,0 -5.900301,0.10001 -5.900301,0.10001 z"
       id="path32103" /><ellipse
       style="opacity:0.99;fill:#000000;fill-opacity:1;fill-rule:nonzero;stroke:#000000;stroke-width:0.1;stroke-dasharray:none;stroke-opacity:1;paint-order:fill markers stroke"
       id="ellipse32105"
       cx="-93.767143"
       cy="40.183392"
       rx="0.77785712"
       ry="1.3966072" /><ellipse
       style="opacity:0.99;fill:#000000;fill-opacity:1;fill-rule:nonzero;stroke:#000000;stroke-width:0.0792771;stroke-dasharray:none;stroke-opacity:1;paint-order:fill markers stroke"
       id="ellipse32107"
       cx="-88.857292"
       cy="40.094173"
       rx="0.56723642"
       ry="1.203665" /><ellipse
       style="opacity:0.99;fill:#ffffff;fill-opacity:1;fill-rule:nonzero;stroke:none;stroke-width:0.1;stroke-dasharray:none;stroke-opacity:1;paint-order:fill markers stroke"
       id="ellipse32109"
       cx="-93.722946"
       cy="39.723751"
       rx="0.53919643"
       ry="0.68946427" /><ellipse
       style="opacity:0.99;fill:#ffffff;fill-opacity:1;fill-rule:nonzero;stroke:none;stroke-width:0.0775845;stroke-dasharray:none;stroke-opacity:1;paint-order:fill markers stroke"
       id="ellipse32111"
       cx="-88.870186"
       cy="39.564632"
       rx="0.40013629"
       ry="0.55924344" /><path
       style="opacity:0.99;fill:#000000;fill-opacity:1;fill-rule:nonzero;stroke:#000000;stroke-width:0.1;stroke-dasharray:none;stroke-opacity:1;paint-order:fill markers stroke"
       d="m -95.941607,36.647673 c 0.335891,-0.28286 0.848572,-0.76018 1.11375,-0.7425 0.265179,0.0177 0.636429,0.053 0.919285,0.0884 0.282858,0.0354 0.689464,0.30054 0.830894,0.38893 0.141428,0.0884 0.371251,0.53036 0.548035,0.65411 0.176786,0.12375 0.335893,0.51268 0.37125,0.54804 0.03536,0.0354 0.159107,0.22982 0.141427,0.26517 -0.01767,0.0354 -0.318214,-0.22098 -0.459642,-0.25634 -0.141427,-0.0353 -0.609909,-0.30937 -0.715981,-0.41544 -0.106071,-0.10607 -0.07071,-0.22982 -0.291698,-0.32705 -0.220982,-0.0972 -0.822052,-0.18563 -0.892767,-0.20331 -0.07071,-0.0177 -0.353571,-0.0177 -0.574553,-0.0177 -0.220983,0 -0.742501,0.0354 -0.804376,0.053 -0.06187,0.0177 -0.247499,0.053 -0.247499,0.053 z"
       id="path32113" /><path
       style="opacity:0.99;fill:#000000;fill-opacity:1;fill-rule:nonzero;stroke:#000000;stroke-width:0.1;stroke-dasharray:none;stroke-opacity:1;paint-order:fill markers stroke"
       d="m -89.488927,38.008923 c 0.03536,-0.0884 0.194463,-0.53036 0.406606,-0.65411 0.212143,-0.12375 0.583393,-0.37125 0.671785,-0.4066 0.08839,-0.0354 0.282858,0 0.441965,0.0707 0.159107,0.0707 0.318215,0.12375 0.265179,0.21214 -0.05304,0.0884 -0.159107,0.0884 -0.406609,0.14143 -0.247499,0.053 -0.494999,0.14143 -0.583393,0.26518 -0.08839,0.12375 -0.335891,0.2475 -0.441963,0.40661 -0.106071,0.1591 -0.318214,0.2475 -0.318214,0.17678 0,-0.0707 -0.03536,-0.21214 -0.03536,-0.21214 z"
       id="path32115" /><path
       style="opacity:0.99;fill:none;fill-opacity:1;fill-rule:nonzero;stroke:#000000;stroke-width:0.1;stroke-dasharray:none;stroke-opacity:1;paint-order:fill markers stroke"
       d="m -90.350461,41.306383 c -0.01249,0.075 -0.025,0.27501 -0.01249,0.36252 0.01249,0.0875 0.08751,0.21251 0.237513,0.23751 0.150009,0.025 0.262512,0.075 0.350018,0.12501 0.08751,0.05 0.337518,0.25001 0.350017,0.36252 0.01252,0.1125 -0.075,0.38752 -0.112506,0.46252 -0.0375,0.075 0.0375,0.23751 -0.112504,0.23751 -0.150008,0 -0.387522,-0.0625 -0.462526,-0.0625 -0.075,0 -0.362516,-0.0375 -0.362516,-0.0375 l 0.137507,-0.0125 0.21251,0.0625"
       id="path32117" /><path
       style="opacity:0.99;fill:none;fill-opacity:1;fill-rule:nonzero;stroke:#000000;stroke-width:0.1;stroke-dasharray:none;stroke-opacity:1;paint-order:fill markers stroke"
       d="m -91.31301,44.844063 c -0.075,0.025 -1.100055,0.15001 -1.36257,0.075 -0.262514,-0.075 -0.800039,-0.33752 -0.862544,-0.42503 -0.0625,-0.0875 -0.437523,-0.28751 -0.500025,-0.41252 -0.0625,-0.125 -0.075,-0.37502 -0.075,-0.37502 0,0 -0.237512,0.31252 -0.287515,0.33752 -0.05,0.025 -0.175009,0.025 -0.175009,0.025"
       id="path32119" /><path
       style="opacity:0.99;fill:#fde0a4;fill-opacity:0.992157;fill-rule:nonzero;stroke:none;stroke-width:0.1;stroke-dasharray:none;stroke-opacity:1;paint-order:fill markers stroke"
       d="m -103.37613,48.944273 1.9001,2.0251 c 0,0 -0.97505,0.52503 -1.02505,0.62503 -0.05,0.10001 -0.075,1.12506 -0.025,1.25007 0.05,0.12501 0.30001,1.02505 0.42502,1.25006 0.12501,0.22501 0.40002,0.92505 0.40002,0.92505 0,0 -0.05,-0.37502 0.37502,-0.22501 0.42502,0.15001 0.47502,0.075 0.52503,0.17501 0.05,0.1 0.62503,0.70003 0.62503,0.70003 l 0.275012,0.85005 c 0,0 0.250013,0.27501 0.025,0.42502 -0.225012,0.15001 -0.275012,0.35002 -0.350022,0.22501 -0.075,-0.12501 -0.2,-0.57503 -0.2,-0.57503 l 0.22501,0.87505 0.275011,0.40002 c 0,0 0.150008,0.42502 -0.250011,0.55003 -0.40002,0.125 -0.77504,-0.05 -0.77504,-0.05 0,0 -0.075,0 -0.35002,0.20001 -0.27501,0.20001 -0.50003,0.52503 -0.67503,0.35002 -0.17501,-0.17501 -0.37502,-0.25001 -0.52503,-0.27502 -0.15001,-0.025 -0.35002,0.15001 -0.52503,0.15001 -0.17501,0 -0.50002,0.15001 -0.65003,-0.20001 -0.15001,-0.35002 -0.20001,-0.47502 -0.35002,-0.82504 -0.15001,-0.35002 -0.22501,-0.32502 -0.20001,-0.70004 0.025,-0.37501 0.12501,-0.67503 0.20001,-0.87504 0.075,-0.20001 0.10001,-0.25001 0.12501,-0.50002 0.025,-0.25002 -0.52503,-0.50003 -0.62504,-0.97505 -0.1,-0.47503 -0.25001,-0.77504 -0.40001,-1.12506 -0.15001,-0.35002 -0.30002,-0.55003 -0.32502,-0.97505 -0.025,-0.42502 -0.12501,-0.67504 0.025,-1.22506 0.15001,-0.55003 0.05,-0.45003 0.45002,-1.00006 0.40002,-0.55002 0.57503,-0.72503 0.80004,-0.90004 0.22502,-0.17501 0.60003,-0.55003 0.60003,-0.55003 z"
       id="path32121" /><path
       style="opacity:0.99;fill:#fde0a4;fill-opacity:0.992157;fill-rule:nonzero;stroke:none;stroke-width:0.1;stroke-dasharray:none;stroke-opacity:1;paint-order:fill markers stroke"
       d="m -95.875741,54.294543 c 0,0.10001 -0.175012,0.15001 -0.300017,0.52503 -0.125008,0.37502 -0.100004,0.55003 -0.125008,0.72504 -0.025,0.17501 -0.350017,0.72504 -0.350017,0.72504 0,0 -0.700035,0.37501 -0.275014,0.67503 0.425024,0.30001 0.625031,0.50002 0.750039,0.50002 0.125005,0 0.350017,-0.1 0.525026,-0.32501 0.175009,-0.22501 0.375021,-0.40002 0.525029,-0.72504 0.150005,-0.32502 0.375017,-0.92505 0.375017,-0.92505 0,0 -0.05,0.45003 0.175009,0.62504 0.225012,0.17501 0,0.27501 0.450025,0.15 0.450021,-0.125 0.800039,-0.67503 0.825042,-0.80004 0.025,-0.125 0.225009,-0.47502 0.225009,-0.72503 0,-0.25002 -0.150005,-0.50003 -0.375017,-0.62504 -0.225013,-0.125 -0.750038,-0.1 -1.000051,-0.075 -0.250013,0.025 -1.225063,0.10001 -1.225063,0.10001 z"
       id="path32123"
       sodipodi:nodetypes="csscsssscsssssscc" /><path
       style="opacity:0.99;fill:#fde0a4;fill-opacity:0.992157;fill-rule:nonzero;stroke:none;stroke-width:0.1;stroke-dasharray:none;stroke-opacity:1;paint-order:fill markers stroke"
       d="m -95.725736,57.219693 c 0,0 -0.150005,0.42502 -0.150005,0.57503 0,0.15001 0.375017,0.42502 0.62503,0.52503 0.250013,0.10001 0.825042,0.20001 1.100055,0.025 0.275016,-0.17501 0.475025,-0.55003 0.55003,-0.67503 0.075,-0.12501 0.100004,-0.17501 0.225012,-0.17501 0.125005,0 0.425021,-0.27502 0.425021,-0.42503 0,-0.15 0,-0.27501 0,-0.40002 0,-0.125 0.300014,-0.35001 0.300014,-0.35001 0,0 0.150008,-0.22501 0.150008,-0.50003 0,-0.27501 0.250013,-0.45002 -0.075,-0.50002 -0.325017,-0.05 -0.625031,-0.30002 -0.625031,-0.30002 0,0 -1.800092,-0.075 -1.975101,0.10001 -0.175009,0.175 -0.550029,2.1001 -0.550029,2.1001 z"
       id="path32125" /><path
       style="opacity:0.99;fill:#fde0a4;fill-opacity:1;fill-rule:nonzero;stroke:none;stroke-width:0.1;stroke-dasharray:none;stroke-opacity:1;paint-order:fill markers stroke"
       d="m -101.026,40.768853 c 0,0 0.71779,-3.53779 0.541,-3.64386 -0.17679,-0.10607 1.025358,-0.17678 1.308214,-0.56571 0.282858,-0.38893 0.707144,-0.81322 0.813215,-1.27286 0.106072,-0.45964 0.212143,-1.09607 0.212143,-1.44964 0,-0.35358 -0.106071,-1.30822 -0.106071,-1.30822 v -0.14143 c 0,0 4.348927,0.21215 6.611783,1.41429 2.262857,1.20214 2.368929,1.27286 2.368929,1.27286 0,0 0.990002,-0.77786 1.060714,-0.91929 0.07072,-0.14143 0.459645,-0.35357 0.459645,-0.35357 l 0.459642,0.99 c 0,0 0.141428,4.31357 -0.03536,4.98536 -0.176787,0.67178 -0.106071,0.31821 -0.14143,0.495 -0.03536,0.17678 -0.141428,1.20214 -0.141428,1.52035 0,0.31822 0.07071,1.13143 0.03536,1.44965 -0.03536,0.31821 -0.565713,1.87393 -0.565713,1.87393 0,0 -1.025359,0.99 -1.272858,1.09607 -0.247499,0.10607 -1.485,0.63643 -1.661784,0.70714 -0.176787,0.0707 -0.707144,0.14143 -0.883931,0.14143 -0.176784,0 -1.308214,0 -1.661784,0 -0.353571,0 -1.308214,-0.14143 -1.626428,-0.21214 -0.318215,-0.0707 -1.096071,-0.2475 -1.555716,-0.31822 -0.459642,-0.0707 -1.272857,-0.38893 -1.626428,-0.56571 -0.353571,-0.17679 -1.025356,-0.45965 -1.166786,-0.53036 -0.141428,-0.0707 -0.777858,-0.67178 -0.989998,-0.77786 -0.21214,-0.10607 -0.70715,-0.495 -0.81322,-0.63642 -0.10607,-0.14143 -0.495,-0.49501 -0.495,-0.49501 v -0.45964 c 0,0 -0.45964,0.495 -0.99,0.21215 -0.53035,-0.28286 -1.30821,-0.35358 -1.59107,-0.70715 -0.28286,-0.35357 -0.60107,-1.13143 -0.60107,-1.27286 0,-0.14142 -0.0354,-0.42428 0,-0.70714 0.0354,-0.28286 0.14143,-0.7425 0.14143,-0.7425 0,0 0.21214,-0.35357 0.63643,-0.60107 0.42428,-0.2475 0.56571,-0.38893 0.77786,-0.42429 0.21214,-0.0354 0.84857,0.0354 0.84857,0.0354 0,0 0.495,0.17679 0.60107,0.35357 0.10607,0.17679 0.31821,0.45965 0.42428,0.60107 0.10607,0.14143 0.35357,0.45965 0.42429,0.60108 0.0707,0.14142 0.2015,0.35564 0.2015,0.35564 z"
       id="path37522" /><path
       style="opacity:0.99;fill:#ff6600;fill-opacity:1;fill-rule:nonzero;stroke:none;stroke-width:0.1;stroke-dasharray:none;stroke-opacity:1;paint-order:fill markers stroke"
       d="m -103.77615,32.368433 c 0,0 -3.65018,1.85009 -2.70013,4.85024 0.95004,3.00015 1.40007,3.15016 1.40007,3.15016 l 0.15001,-0.05 c 0,0 0.55002,-1.00005 0.80004,-1.10006 0.25001,-0.1 0.60003,-0.30001 0.90004,-0.25001 0.30002,0.05 1.20006,0.35002 1.30007,0.60003 0.1,0.25002 0.50002,0.65003 0.65003,0.85005 0.15001,0.20001 0.35002,0.30001 0.35002,0.30001 0,0 0.25001,-0.90004 0.40002,-1.35007 0.15001,-0.45002 0.20001,-0.65003 0.15001,-1.05005 -0.05,-0.40002 -0.15001,-0.90005 -0.15001,-0.90005 l -0.25001,-0.65003 c 0.955262,0.71155 3.449013,0.57575 2.703689,-2.67943 -0.311283,-1.35952 0.02071,-1.47936 0.02071,-1.47936 0,0 0.375756,-0.24143 1.175798,-0.0914 0.800039,0.15001 1.80009,0.30002 2.350119,0.50003 0.550026,0.20001 1.400071,0.45002 1.800092,0.60003 0.400019,0.15001 1.450073,0.50002 1.700086,0.70003 0.250013,0.20002 0.900046,0.40002 1.150059,0.55003 0.250013,0.15001 0.800039,0.45002 0.800039,0.45002 0,0 0.425022,-0.77504 0.675035,-0.92505 0.250012,-0.15 0.525028,-0.47501 0.525028,-0.47501 l 0.300016,0.075 0.200011,0.77504 -3e-6,0.97505 c 0,0 0.600031,-0.82504 0.850044,-1.27507 0.250013,-0.45002 0.350017,-0.80004 0.60003,-1.30006 0.250013,-0.50003 0.400021,-0.90005 0.400021,-1.35007 0,-0.45003 0.250013,-1.55008 0.150008,-2.30012 -0.100005,-0.75004 -0.100005,-0.90005 -0.250013,-1.20006 -0.150008,-0.30002 -0.150008,-0.55003 -0.250012,-0.75004 -0.100005,-0.20001 -0.20001,-0.50003 -0.20001,-0.50003 0,0 0.05,0.60003 -0.150008,1.10006 -0.200012,0.50003 -0.350017,1.05005 -0.350017,1.05005 0,0 0.150005,-0.95004 -0.35002,-2.50012 -0.500025,-1.55008 -0.350017,-1.70009 -0.350017,-1.70009 v -0.30001 c 0,0 -0.100005,0.75003 -0.700035,1.15005 -0.600032,0.40002 -1.450075,1.05006 -2.000102,1.15006 -0.550029,0.10001 -2.100109,0.45003 -2.500127,0.45003 h -1.750092 c -0.200009,0 -0.700034,-0.10001 -0.700034,-0.10001 0,0 0.750038,0.15001 1.350068,-0.70004 0.60003,-0.85004 0.550029,-0.90004 0.550029,-0.90004 0,0 -0.750038,0.20001 -1.200063,0.20001 h -1.650081 c -0.300017,0 -2.200114,0.55003 -2.550131,0.65003 -0.350018,0.10001 -2.150107,0.50003 -2.550127,1.05005 -0.40003,0.55003 -1.65009,1.55008 -1.75009,1.8001 -0.10001,0.25001 -0.15001,0.35001 -0.45003,1.10005 -0.30001,0.75004 -0.25001,1.15006 -0.35002,1.45008 -0.1,0.30001 -0.25001,0.35002 -0.25001,0.35002 z"
       id="path37524"
       sodipodi:nodetypes="csccsssscssccscssssscsccccsssssscscsccsssscscssssssscc" /><path
       style="opacity:0.99;fill:#fde0a4;fill-opacity:0.992157;fill-rule:nonzero;stroke:none;stroke-width:0.108535;stroke-dasharray:none;stroke-opacity:1;paint-order:fill markers stroke"
       d="m -99.321539,45.497833 v 0.70618 c 0,0 -0.09175,0.83457 0.734045,0.96296 0.825802,0.1284 1.238702,0.321 1.238702,0.321 l 0.09175,-1.32307 c 0,0 -0.734043,-0.21768 -1.2387,-0.41027 -0.504657,-0.1926 -0.550533,-0.44939 -0.550533,-0.44939 z"
       id="path37526"
       sodipodi:nodetypes="ccsccscc" /><path
       style="opacity:0.99;fill:#48a4df;fill-opacity:1;fill-rule:nonzero;stroke:#0055d4;stroke-width:0.1;stroke-dasharray:none;stroke-opacity:1;paint-order:fill markers stroke"
       d="m -101.77604,50.669363 c -0.20001,-0.30002 -1.50008,-1.50008 -1.55008,-1.8501 -0.05,-0.35001 -0.10001,-0.2 0.60003,-0.65003 0.70003,-0.45002 1.35007,-0.80004 1.75009,-0.85004 0.40002,-0.05 1.000048,-0.10001 1.000048,-0.10001 l -1.000048,0.05 c 0,0 0.35001,-0.80003 0.80004,-1.00005 0.45002,-0.20001 0.800038,-0.45002 0.800038,-0.45002 0,0 0.300016,0.45002 0.600032,0.80004 0.300014,0.35002 0.450022,0.70004 0.950048,0.55003 0.500025,-0.15001 0.650033,-0.45002 0.650033,-0.45002 0,0 1.20006,4.40022 0.950048,6.30032 -0.250013,1.90009 0.300016,1.80009 0,1.90009 -0.300014,0.10001 -2.050103,0.05 -2.050103,0.05 0,0 -1.100058,-0.25001 -1.300067,-0.25001 H -100.926 c -0.25001,0 -0.50003,0.25001 -0.75004,0 -0.25001,-0.25002 -0.80004,-0.90005 -0.85004,-1.9501 -0.05,-1.05006 -0.05,-1.15006 0.45002,-1.55008 0.50003,-0.40002 0.70004,-0.40002 0.70004,-0.40002 0,0 0.44144,-0.11465 0.99147,-0.41467 0.550027,-0.30001 1.408649,-1.48543 1.408649,-1.48543 -0.548972,1.05529 -1.329719,1.69338 -2.350119,1.9001 z"
       id="path37528"
       sodipodi:nodetypes="csssccscsscsscssssscsccc" /><path
       style="opacity:0.99;fill:#444960;fill-opacity:1;fill-rule:nonzero;stroke:none;stroke-width:0.1;stroke-dasharray:none;stroke-opacity:1;paint-order:fill markers stroke"
       d="m -103.30112,54.894573 c 0,0 0.50002,2.67514 0.52503,2.95016 0.025,0.27501 0.1,1.90009 0.025,2.0251 -0.075,0.12501 -0.50003,0.82504 -0.57503,0.95005 -0.075,0.125 -0.90005,1.9501 -1.02505,2.0251 -0.12501,0.075 -0.72504,1.07506 -0.72504,1.07506 0,0 0.55002,0.15 0.72504,0.15 0.175,0 1.32506,-0.125 1.65008,-0.17501 0.32501,-0.05 0.70003,-0.05 0.95005,-0.05 0.25001,0 0.55002,0.45002 0.65003,0.45002 0.10001,0 0,-0.37501 0.025,-0.62503 0.025,-0.25001 -0.025,-0.35001 0.20001,-0.52503 0.22501,-0.175 0.45002,-0.15 0.60003,-0.75003 0.15001,-0.60003 0.300016,-1.37507 0.35002,-1.60009 0.05,-0.22501 0.150008,-0.70003 -0.025,-1.15005 -0.17501,-0.45003 -0.22501,-1.05006 -0.32502,-1.17506 -0.1,-0.12501 -0.35002,-2.10011 -0.60003,-2.45013 -0.25001,-0.35002 -0.97505,-1.37507 -0.97505,-1.37507 z"
       id="path37530" /><path
       style="opacity:0.99;fill:#23283b;fill-opacity:1;fill-rule:nonzero;stroke:none;stroke-width:0.1;stroke-dasharray:none;stroke-opacity:1;paint-order:fill markers stroke"
       d="m -98.650885,57.394703 c 0,0 0.850043,1.55008 0.975051,1.62509 0.125005,0.075 0.60003,1.07505 0.60003,1.07505 0,0 0.05,0.85004 -0.05,1.37507 -0.100007,0.52503 -0.300016,1.52508 -0.300016,1.77509 0,0.25001 -0.250013,0.67504 -0.150009,0.67504 0.100005,0 1.000051,0.075 1.600081,0.075 0.600033,0 0.625033,0.15 1.475076,0.025 0.850043,-0.12501 1.100056,-0.1 1.250064,-0.15001 0.150008,-0.05 -0.05,0 -0.175009,-0.40002 -0.125005,-0.40001 -0.05,-0.075 -0.200009,-0.67503 -0.150008,-0.60003 -0.325017,-1.07506 -0.300016,-1.57508 0.025,-0.50003 -0.400021,-2.0251 -0.750038,-2.22512 -0.350018,-0.2 -0.500026,-0.62503 -0.700035,-0.77503 -0.200012,-0.15001 -1.475076,-1.42508 -1.475076,-1.42508 l -0.750038,-0.125 c 0,0 -0.650034,0.52502 -0.750038,0.57503 -0.100005,0.05 -0.300017,0.15 -0.300018,0.15 z"
       id="path37532" /><path
       style="opacity:0.99;fill:#474e61;fill-opacity:1;fill-rule:nonzero;stroke:none;stroke-width:0.1;stroke-dasharray:none;stroke-opacity:1;paint-order:fill markers stroke"
       d="m -102.32607,54.444553 6.175313,0.42502 c 0,0 0.450024,0.65004 0.100004,1.05006 -0.350017,0.40002 -0.700034,0.80004 -0.950047,1.00005 -0.250013,0.20001 -0.725038,0.55003 -1.025051,0.60003 -0.300017,0.05 -0.625034,0.125 -1.025054,0.075 -0.400019,-0.05 -0.900044,0.025 -1.275065,-0.1 -0.37502,-0.12501 -0.82504,-0.075 -1.00005,-0.60003 -0.17501,-0.52503 -0.32502,-1.35007 -0.45002,-1.52508 -0.12501,-0.17501 -0.67504,-0.95005 -0.67504,-0.95005 z"
       id="path37534" /><path
       style="opacity:0.99;fill:#47a3e3;fill-opacity:1;fill-rule:nonzero;stroke:#0055d4;stroke-width:0.1;stroke-dasharray:none;stroke-opacity:1;paint-order:fill markers stroke"
       d="m -105.05121,63.995043 c 0,0 3.00015,-0.20001 3.27517,-0.075 0.27501,0.125 1.15005,0.60003 1.25006,0.82504 0.10001,0.22501 0.35002,0.75004 0.47502,0.87504 0.125011,0.12501 -0.55002,0.25001 -0.72503,0.20001 -0.17501,-0.05 -0.90005,-0.05 -1.35007,-0.05 -0.45002,0 -1.07506,-0.05 -1.8251,-0.075 -0.75003,-0.025 -1.17506,-0.025 -1.37506,-0.025 -0.20002,0 -0.70004,0.12501 -0.60003,0 0.1,-0.12501 0.25001,-0.97505 0.45002,-1.40007 0.20001,-0.42502 0.42502,-0.27501 0.42502,-0.27501 z"
       id="path37536" /><path
       style="opacity:0.99;fill:#47a3e3;fill-opacity:1;fill-rule:nonzero;stroke:#0055d4;stroke-width:0.1;stroke-dasharray:none;stroke-opacity:1;paint-order:fill markers stroke"
       d="m -97.166568,63.712183 c 0,0 3.000153,-0.20001 3.275169,-0.075 0.275013,0.125 1.150056,0.60003 1.250063,0.82504 0.100005,0.22501 0.350018,0.75004 0.475023,0.87504 0.125007,0.12501 -0.550027,0.25001 -0.725035,0.20001 -0.175012,-0.05 -0.900047,-0.05 -1.350071,-0.05 -0.450022,0 -1.075055,-0.05 -1.825093,-0.075 -0.750039,-0.025 -1.17506,-0.025 -1.375069,-0.025 -0.200012,0 -0.700037,0.12501 -0.60003,0 0.100004,-0.12501 0.250013,-0.97505 0.450022,-1.40007 0.200009,-0.42502 0.425021,-0.27501 0.425021,-0.27501 z"
       id="path37538" /><path
       style="opacity:0.99;fill:#e3dedb;fill-opacity:1;fill-rule:nonzero;stroke:none;stroke-width:0.1;stroke-dasharray:none;stroke-opacity:1;paint-order:fill markers stroke"
       d="m -97.99161,65.462273 c -0.125005,-0.025 -0.275013,0.27501 -0.275013,0.27501 0,0 0.05,0.40002 0.200009,0.45002 0.150008,0.05 0.175008,0.05 0.875046,0.12501 0.700034,0.075 1.300064,0.10001 1.825093,0.10001 0.525026,0 1.80009,-0.075 2.050103,-0.10001 0.250012,-0.025 0.850045,-0.05 1.075055,-0.15001 0.225012,-0.1 0.40002,-0.17501 0.40002,-0.35001 0,-0.17501 -0.125005,-0.45003 -0.250012,-0.45003 -0.125005,0 -5.900301,0.10001 -5.900301,0.10001 z"
       id="path37540" /><ellipse
       style="opacity:0.99;fill:#000000;fill-opacity:1;fill-rule:nonzero;stroke:#000000;stroke-width:0.1;stroke-dasharray:none;stroke-opacity:1;paint-order:fill markers stroke"
       id="ellipse37542"
       cx="-93.767143"
       cy="40.183392"
       rx="0.77785712"
       ry="1.3966072" /><ellipse
       style="opacity:0.99;fill:#000000;fill-opacity:1;fill-rule:nonzero;stroke:#000000;stroke-width:0.0792771;stroke-dasharray:none;stroke-opacity:1;paint-order:fill markers stroke"
       id="ellipse37544"
       cx="-88.857292"
       cy="40.094173"
       rx="0.56723642"
       ry="1.203665" /><ellipse
       style="opacity:0.99;fill:#ffffff;fill-opacity:1;fill-rule:nonzero;stroke:none;stroke-width:0.1;stroke-dasharray:none;stroke-opacity:1;paint-order:fill markers stroke"
       id="ellipse37546"
       cx="-93.722946"
       cy="39.723751"
       rx="0.53919643"
       ry="0.68946427" /><ellipse
       style="opacity:0.99;fill:#ffffff;fill-opacity:1;fill-rule:nonzero;stroke:none;stroke-width:0.0775845;stroke-dasharray:none;stroke-opacity:1;paint-order:fill markers stroke"
       id="ellipse37548"
       cx="-88.870186"
       cy="39.564632"
       rx="0.40013629"
       ry="0.55924344" /><path
       style="opacity:0.99;fill:#000000;fill-opacity:1;fill-rule:nonzero;stroke:#000000;stroke-width:0.1;stroke-dasharray:none;stroke-opacity:1;paint-order:fill markers stroke"
       d="m -95.941607,36.647673 c 0.335891,-0.28286 0.848572,-0.76018 1.11375,-0.7425 0.265179,0.0177 0.636429,0.053 0.919285,0.0884 0.282858,0.0354 0.689464,0.30054 0.830894,0.38893 0.141428,0.0884 0.371251,0.53036 0.548035,0.65411 0.176786,0.12375 0.335893,0.51268 0.37125,0.54804 0.03536,0.0354 0.159107,0.22982 0.141427,0.26517 -0.01767,0.0354 -0.318214,-0.22098 -0.459642,-0.25634 -0.141427,-0.0353 -0.609909,-0.30937 -0.715981,-0.41544 -0.106071,-0.10607 -0.07071,-0.22982 -0.291698,-0.32705 -0.220982,-0.0972 -0.822052,-0.18563 -0.892767,-0.20331 -0.07071,-0.0177 -0.353571,-0.0177 -0.574553,-0.0177 -0.220983,0 -0.742501,0.0354 -0.804376,0.053 -0.06187,0.0177 -0.247499,0.053 -0.247499,0.053 z"
       id="path37550" /><path
       style="opacity:0.99;fill:#000000;fill-opacity:1;fill-rule:nonzero;stroke:#000000;stroke-width:0.1;stroke-dasharray:none;stroke-opacity:1;paint-order:fill markers stroke"
       d="m -89.488927,38.008923 c 0.03536,-0.0884 0.194463,-0.53036 0.406606,-0.65411 0.212143,-0.12375 0.583393,-0.37125 0.671785,-0.4066 0.08839,-0.0354 0.282858,0 0.441965,0.0707 0.159107,0.0707 0.318215,0.12375 0.265179,0.21214 -0.05304,0.0884 -0.159107,0.0884 -0.406609,0.14143 -0.247499,0.053 -0.494999,0.14143 -0.583393,0.26518 -0.08839,0.12375 -0.335891,0.2475 -0.441963,0.40661 -0.106071,0.1591 -0.318214,0.2475 -0.318214,0.17678 0,-0.0707 -0.03536,-0.21214 -0.03536,-0.21214 z"
       id="path37552" /><path
       style="opacity:0.99;fill:none;fill-opacity:1;fill-rule:nonzero;stroke:#000000;stroke-width:0.1;stroke-dasharray:none;stroke-opacity:1;paint-order:fill markers stroke"
       d="m -90.350461,41.306383 c -0.01249,0.075 -0.025,0.27501 -0.01249,0.36252 0.01249,0.0875 0.08751,0.21251 0.237513,0.23751 0.150009,0.025 0.262512,0.075 0.350018,0.12501 0.08751,0.05 0.337518,0.25001 0.350017,0.36252 0.01252,0.1125 -0.075,0.38752 -0.112506,0.46252 -0.0375,0.075 0.0375,0.23751 -0.112504,0.23751 -0.150008,0 -0.387522,-0.0625 -0.462526,-0.0625 -0.075,0 -0.362516,-0.0375 -0.362516,-0.0375 l 0.137507,-0.0125 0.21251,0.0625"
       id="path37554" /><path
       style="opacity:0.99;fill:none;fill-opacity:1;fill-rule:nonzero;stroke:#000000;stroke-width:0.1;stroke-dasharray:none;stroke-opacity:1;paint-order:fill markers stroke"
       d="m -91.31301,44.844063 c -0.075,0.025 -1.100055,0.15001 -1.36257,0.075 -0.262514,-0.075 -0.800039,-0.33752 -0.862544,-0.42503 -0.0625,-0.0875 -0.437523,-0.28751 -0.500025,-0.41252 -0.0625,-0.125 -0.075,-0.37502 -0.075,-0.37502 0,0 -0.237512,0.31252 -0.287515,0.33752 -0.05,0.025 -0.175009,0.025 -0.175009,0.025"
       id="path37556" /><path
       style="opacity:0.99;fill:#fde0a4;fill-opacity:0.992157;fill-rule:nonzero;stroke:none;stroke-width:0.1;stroke-dasharray:none;stroke-opacity:1;paint-order:fill markers stroke"
       d="m -103.37613,48.944273 1.9001,2.0251 c 0,0 -0.97505,0.52503 -1.02505,0.62503 -0.05,0.10001 -0.075,1.12506 -0.025,1.25007 0.05,0.12501 0.30001,1.02505 0.42502,1.25006 0.12501,0.22501 0.40002,0.92505 0.40002,0.92505 0,0 -0.05,-0.37502 0.37502,-0.22501 0.42502,0.15001 0.47502,0.075 0.52503,0.17501 0.05,0.1 0.62503,0.70003 0.62503,0.70003 l 0.275012,0.85005 c 0,0 0.250013,0.27501 0.025,0.42502 -0.225012,0.15001 -0.275012,0.35002 -0.350022,0.22501 -0.075,-0.12501 -0.2,-0.57503 -0.2,-0.57503 l 0.22501,0.87505 0.275011,0.40002 c 0,0 0.150008,0.42502 -0.250011,0.55003 -0.40002,0.125 -0.77504,-0.05 -0.77504,-0.05 0,0 -0.075,0 -0.35002,0.20001 -0.27501,0.20001 -0.50003,0.52503 -0.67503,0.35002 -0.17501,-0.17501 -0.37502,-0.25001 -0.52503,-0.27502 -0.15001,-0.025 -0.35002,0.15001 -0.52503,0.15001 -0.17501,0 -0.50002,0.15001 -0.65003,-0.20001 -0.15001,-0.35002 -0.20001,-0.47502 -0.35002,-0.82504 -0.15001,-0.35002 -0.22501,-0.32502 -0.20001,-0.70004 0.025,-0.37501 0.12501,-0.67503 0.20001,-0.87504 0.075,-0.20001 0.10001,-0.25001 0.12501,-0.50002 0.025,-0.25002 -0.52503,-0.50003 -0.62504,-0.97505 -0.1,-0.47503 -0.25001,-0.77504 -0.40001,-1.12506 -0.15001,-0.35002 -0.30002,-0.55003 -0.32502,-0.97505 -0.025,-0.42502 -0.12501,-0.67504 0.025,-1.22506 0.15001,-0.55003 0.05,-0.45003 0.45002,-1.00006 0.40002,-0.55002 0.57503,-0.72503 0.80004,-0.90004 0.22502,-0.17501 0.60003,-0.55003 0.60003,-0.55003 z"
       id="path37558" /><path
       style="opacity:0.99;fill:#fde0a4;fill-opacity:0.992157;fill-rule:nonzero;stroke:none;stroke-width:0.1;stroke-dasharray:none;stroke-opacity:1;paint-order:fill markers stroke"
       d="m -95.875741,54.294543 c 0,0.10001 -0.175012,0.15001 -0.300017,0.52503 -0.125008,0.37502 -0.100004,0.55003 -0.125008,0.72504 -0.025,0.17501 -0.350017,0.72504 -0.350017,0.72504 0,0 -0.700035,0.37501 -0.275014,0.67503 0.425024,0.30001 0.625031,0.50002 0.750039,0.50002 0.125005,0 0.350017,-0.1 0.525026,-0.32501 0.175009,-0.22501 0.375021,-0.40002 0.525029,-0.72504 0.150005,-0.32502 0.375017,-0.92505 0.375017,-0.92505 0,0 -0.05,0.45003 0.175009,0.62504 0.225012,0.17501 0,0.27501 0.450025,0.15 0.450021,-0.125 0.800039,-0.67503 0.825042,-0.80004 0.025,-0.125 0.225009,-0.47502 0.225009,-0.72503 0,-0.25002 -0.150005,-0.50003 -0.375017,-0.62504 -0.225013,-0.125 -0.750038,-0.1 -1.000051,-0.075 -0.250013,0.025 -1.225063,0.10001 -1.225063,0.10001 z"
       id="path37560"
       sodipodi:nodetypes="csscsssscsssssscc" /><path
       style="opacity:0.99;fill:#fde0a4;fill-opacity:0.992157;fill-rule:nonzero;stroke:none;stroke-width:0.1;stroke-dasharray:none;stroke-opacity:1;paint-order:fill markers stroke"
       d="m -95.725736,57.219693 c 0,0 -0.150005,0.42502 -0.150005,0.57503 0,0.15001 0.375017,0.42502 0.62503,0.52503 0.250013,0.10001 0.825042,0.20001 1.100055,0.025 0.275016,-0.17501 0.475025,-0.55003 0.55003,-0.67503 0.075,-0.12501 0.100004,-0.17501 0.225012,-0.17501 0.125005,0 0.425021,-0.27502 0.425021,-0.42503 0,-0.15 0,-0.27501 0,-0.40002 0,-0.125 0.300014,-0.35001 0.300014,-0.35001 0,0 0.150008,-0.22501 0.150008,-0.50003 0,-0.27501 0.250013,-0.45002 -0.075,-0.50002 -0.325017,-0.05 -0.625031,-0.30002 -0.625031,-0.30002 0,0 -1.800092,-0.075 -1.975101,0.10001 -0.175009,0.175 -0.550029,2.1001 -0.550029,2.1001 z"
       id="path37562" /><g
       id="g5642"
       transform="matrix(0.814918,-0.08431958,0.08431958,0.814918,0.91037334,1.6794184)"><path
         style="opacity:0.99;fill:#550000;fill-opacity:0.992157;fill-rule:nonzero;stroke:#2b1100;stroke-width:0.0199435;stroke-dasharray:none;stroke-opacity:1;paint-order:fill markers stroke"
         d="m 7.7096886,8.0230299 c 0,0 -0.5894613,0.1424741 -0.5272694,0.5705024 0.062195,0.428028 0.1029554,0.4778843 0.1568286,0.5080281 0.053873,0.030144 0.8223668,0.2853669 1.0348057,0.017244 C 8.4648944,9.0041525 8.5079854,8.9190873 8.5258023,8.8545486 8.5496518,8.7681574 8.5282141,8.7185464 8.5153979,8.6839844 8.4930072,8.6236024 8.4509053,8.5501105 8.4509053,8.5501105 l 0.1113885,-0.210232 0.051101,-0.1024846 0.1981791,-0.101333 c 0,0 -0.5723333,0.1936692 -0.8955753,0.012807 C 7.5927559,7.9680057 7.7096898,8.0230303 7.7096898,8.0230303 Z"
         id="path2322"
         sodipodi:nodetypes="ccssssccccscc" /><path
         style="opacity:0.99;fill:#ffffff;fill-opacity:0.992157;fill-rule:nonzero;stroke:none;stroke-width:0.0199435;stroke-dasharray:none;stroke-opacity:1;paint-order:fill markers stroke"
         d="m 7.6924971,8.0289731 -0.1943335,0.086288 c 0,0 0.176589,0.3792404 0.5363891,0.3683376 L 8.3943523,8.472696 8.5067704,8.4381045 C 8.5951393,8.1971332 8.6388355,8.2078531 8.7041133,8.1772591 8.1793594,8.3050229 7.9643359,8.2202461 7.6924971,8.0289731 Z"
         id="path3106"
         sodipodi:nodetypes="ccscccc" /><path
         style="opacity:0.99;fill:#ff2a2a;fill-opacity:0.992157;fill-rule:nonzero;stroke:#2b1100;stroke-width:0.0199435;stroke-dasharray:none;stroke-opacity:1;paint-order:fill markers stroke"
         d="m 7.2242396,8.4109538 c 0,0 0.5804629,0.033502 0.7949009,0.3865117 0.2144383,0.353009 0.1776921,0.3740607 0.1776921,0.3740607 l 0.040764,0.049855 -0.2271712,0.00813 c -0.2456567,0.013533 -0.471448,-0.089484 -0.7053383,-0.144985 0,0 -0.1895576,-0.4160691 -0.080847,-0.6735735 z"
         id="path3108"
         sodipodi:nodetypes="csccccsc" /></g><path
       style="opacity:0.99;fill:#ff0000;fill-opacity:0.992157;fill-rule:nonzero;stroke:#800000;stroke-width:0.0235479;stroke-dasharray:none;stroke-opacity:1;paint-order:fill markers stroke"
       d="m 5.2260514,9.2374761 c -0.1211845,-0.074576 -0.7255332,0.524784 -0.5490538,0.6817855 -0.00608,0.044663 0.069829,0.3712524 0.069829,0.3712524 l 0.1614221,0.594778 c 0,0 -0.0122,0.238138 0.037931,0.255481 0.050123,0.01735 0.279311,-0.108266 0.3490293,-0.09348 0.069721,0.01476 0.5817847,-0.121699 0.6585446,-0.235437 0.076771,-0.113741 0.025485,-0.453966 0.00396,-0.526882 C 5.9361722,10.212054 5.8618839,9.8589924 5.7596982,9.7488205 5.6575111,9.6386486 5.5109805,9.4944246 5.5109805,9.4944246"
       id="path3136"
       sodipodi:nodetypes="ccccccccsc" /><path
       style="opacity:0.99;fill:#000000;fill-opacity:1;fill-rule:nonzero;stroke:#000000;stroke-width:0.0354046;stroke-dasharray:none;stroke-opacity:1;paint-order:fill markers stroke"
       d="M 6.4660519,5.3021769 C 7.1168841,4.7799837 7.9795598,5.797043 7.9569491,5.6887626 7.9279821,6.2694991 7.1226471,5.3257141 6.530428,5.3203696 6.50808,5.3247896 6.441501,5.3314226 6.441501,5.3314226 Z"
       id="path20252-5"
       sodipodi:nodetypes="ccccc" /><path
       style="opacity:0.99;fill:#000000;fill-opacity:1;fill-rule:nonzero;stroke:#000000;stroke-width:0.0354046;stroke-dasharray:none;stroke-opacity:1;paint-order:fill markers stroke"
       d="M 8.5830852,5.6230309 C 8.5495265,5.3437697 8.9409714,5.0522034 9.1621511,4.9482871 9.2236741,4.9444484 9.2823074,4.9350626 9.2801213,4.9714914 9.0945742,5.1126211 8.9183228,5.5749353 8.8249684,5.7475658 8.8133802,5.7246924 8.5982903,5.643212 8.5830852,5.6230309 Z"
       id="path20254-5"
       sodipodi:nodetypes="ccccc" /><g
       id="g15668"
       transform="rotate(10.796633,5.6156812,9.8632769)"><path
         style="opacity:0.99;fill:#000000;fill-opacity:0.992157;fill-rule:nonzero;stroke:none;stroke-width:0.0152703;stroke-dasharray:none;stroke-opacity:1;paint-order:fill markers stroke"
         d="m 6.0468578,6.0830891 c 0,0 0.2559863,-0.1715442 0.5078802,-0.0391 0.2518945,0.1324446 0.2624206,0.1935469 0.2624206,0.1935469 0.059204,0.063809 0.2579108,0.045233 0.1903167,0.00915 0,0 -0.1016538,-0.1405825 -0.1564236,-0.2150344 C 6.7962861,5.9572052 6.7384422,5.8461792 6.6381256,5.8069992 6.5378087,5.7678188 6.43771,5.7205347 6.2896751,5.7976609 6.1416403,5.8747868 6.0317345,6.0421373 6.0317345,6.0421373 Z"
         id="path3110-3"
         sodipodi:nodetypes="csccssscc" /><path
         style="opacity:0.99;fill:#000000;fill-opacity:0.992157;fill-rule:nonzero;stroke:none;stroke-width:0.0152703;stroke-dasharray:none;stroke-opacity:1;paint-order:fill markers stroke"
         d="M 8.2315561,5.8725043 C 8.261951,5.6821735 8.3229078,4.966309 8.7047029,5.3020631 l -0.012373,0.060754 C 8.4486154,5.1806671 8.3588388,6.0994541 8.2315602,5.872502 Z"
         id="path3112-5"
         sodipodi:nodetypes="ccccc" /></g></g></svg>
