<?xml version="1.0" encoding="UTF-8" standalone="no"?>
<!-- Created with Inkscape (http://www.inkscape.org/) -->

<svg
   width="50"
   height="70"
   viewBox="0 0 13.229166 18.520833"
   version="1.1"
   id="svg18473"
   xml:space="preserve"
   inkscape:version="1.2.2 (732a01da63, 2022-12-09)"
   sodipodi:docname="veles_ataque3.svg"
   xmlns:inkscape="http://www.inkscape.org/namespaces/inkscape"
   xmlns:sodipodi="http://sodipodi.sourceforge.net/DTD/sodipodi-0.dtd"
   xmlns="http://www.w3.org/2000/svg"
   xmlns:svg="http://www.w3.org/2000/svg"><sodipodi:namedview
     id="namedview18475"
     pagecolor="#ffffff"
     bordercolor="#000000"
     borderopacity="0.25"
     inkscape:showpageshadow="2"
     inkscape:pageopacity="0.0"
     inkscape:pagecheckerboard="0"
     inkscape:deskcolor="#d1d1d1"
     inkscape:document-units="mm"
     showgrid="true"
     inkscape:zoom="0.70710678"
     inkscape:cx="-144.24978"
     inkscape:cy="160.51324"
     inkscape:window-width="1350"
     inkscape:window-height="728"
     inkscape:window-x="0"
     inkscape:window-y="0"
     inkscape:window-maximized="0"
     inkscape:current-layer="layer1"
     showguides="true"><inkscape:grid
       type="xygrid"
       id="grid36773"
       originx="0"
       originy="0" /><sodipodi:guide
       position="0.91928567,17.177262"
       orientation="0,-1"
       id="guide2266"
       inkscape:locked="false" /></sodipodi:namedview><defs
     id="defs18470" /><g
     inkscape:label="Capa 1"
     inkscape:groupmode="layer"
     id="layer1"><path
       style="opacity:0.99;fill:#fde0a4;fill-opacity:1;fill-rule:nonzero;stroke:none;stroke-width:0.0354046;stroke-dasharray:none;stroke-opacity:1;paint-order:fill markers stroke"
       d="m 4.5098215,7.3476404 c 0,0 -0.237434,-1.2558109 -0.3095698,-1.266962 C 4.1281162,6.0695274 4.5127987,5.8856976 4.5535611,5.7203851 4.5943239,5.5550723 4.6767298,5.359267 4.6500826,5.1943961 4.6234358,5.029525 4.5731636,4.8066923 4.5259148,4.6907718 4.4786646,4.5748481 4.3163164,4.2760372 4.3163164,4.2760372 l -0.018902,-0.046369 c 0,0 1.4541773,-0.5116075 2.3567169,-0.4198711 0.90254,0.091737 0.9467671,0.1007478 0.9467671,0.1007478 0,0 0.2206311,-0.3873245 0.2249147,-0.4431427 0.00429,-0.05582 0.1034491,-0.1773445 0.1034491,-0.1773445 L 8.212256,3.5532129 c 0,0 0.622804,1.395336 0.6546177,1.6392114 0.031812,0.2438724 0.00775,0.1185004 0.019782,0.1811881 0.01199,0.062692 0.1142807,0.4130288 0.1568067,0.5173557 0.042527,0.1043303 0.1743728,0.3615006 0.2053158,0.4705526 0.03096,0.1090464 0.06495,0.6899784 0.06495,0.6899784 0,0 -0.203874,0.4616009 -0.2708437,0.5294509 C 8.9759145,7.6488 8.6410645,7.9880541 8.5925538,8.0348611 8.544043,8.0816654 8.379614,8.1757282 8.3216532,8.1993529 8.263693,8.2229775 7.8927458,8.3741743 7.7768255,8.4214231 7.6609046,8.4686723 7.3290181,8.5498749 7.2152404,8.5692169 7.101453,8.5885651 6.822801,8.6345475 6.6626524,8.6727855 6.5025076,8.7110295 6.1933631,8.7153684 6.0538185,8.7046588 5.9142726,8.6939458 5.6562235,8.6909812 5.6004055,8.6866982 5.5445894,8.6824182 5.2556072,8.570398 5.1718787,8.5639685 5.0881519,8.5575419 4.8738882,8.4961771 4.8202133,8.4639864 4.7665374,8.4317922 4.5917747,8.3678422 4.5917747,8.3678422 L 4.5303514,8.217146 c 0,0 -0.084548,0.2237128 -0.296228,0.2018523 C 4.0224423,8.3971339 3.757965,8.4778958 3.6179799,8.3997744 3.477994,8.3216533 3.2697171,8.1091504 3.2508174,8.0627815 3.2319189,8.0164161 3.1825264,7.9284036 3.1563197,7.8309407 3.1301107,7.7334781 3.1034667,7.5686068 3.1034667,7.5686068 c 0,0 0.022304,-0.1442698 0.1283344,-0.2821132 0.106031,-0.1378433 0.1335003,-0.2031123 0.1983276,-0.2430548 0.064822,-0.039955 0.2829406,-0.1017915 0.2829406,-0.1017915 0,0 0.185914,-0.00819 0.244314,0.035598 0.058401,0.043787 0.1657534,0.1081756 0.2194283,0.1403664 0.053676,0.032195 0.1773455,0.1034505 0.2194297,0.1403695 0.042082,0.036916 0.1135874,0.089672 0.1135874,0.089672 z"
       id="path20216" /><path
       style="opacity:0.99;fill:#cccccc;fill-opacity:1;fill-rule:nonzero;stroke:none;stroke-width:0.0354046;stroke-dasharray:none;stroke-opacity:1;paint-order:fill markers stroke"
       d="m 2.4855894,4.961014 c 0,0 -0.9495045,1.0943521 -0.2371041,1.9510146 0.7124005,0.8566625 0.8799908,0.8457058 0.8799908,0.8457058 l 0.0425,-0.036439 c 0,0 0.04669,-0.4013756 0.1152936,-0.4675746 0.068605,-0.066196 0.1566327,-0.1785446 0.2616767,-0.202244 0.1050445,-0.023699 0.4402239,-0.045612 0.5064206,0.022992 0.066198,0.068607 0.2508028,0.1462968 0.3267135,0.1918287 0.075909,0.045529 0.1548469,0.051586 0.1548469,0.051586 0,0 -0.038307,-0.3284947 -0.049265,-0.4960863 C 4.4757047,6.6542092 4.4653706,6.5819523 4.3955205,6.457485 4.3256716,6.3330172 4.2260632,6.182443 4.2260632,6.182443 L 4.0572291,6.002736 C 4.4655058,6.1083676 5.2649524,5.7305954 4.5855915,4.7629621 4.3018577,4.3588315 4.3946873,4.2751765 4.3946873,4.2751765 c 0,0 0.090931,-0.1293679 0.3732796,-0.1870924 0.2823457,-0.057726 0.630266,-0.1421842 0.8373241,-0.1501162 0.2070581,-0.00793 0.519161,-0.039554 0.6703573,-0.043828 0.1511953,-0.00427 0.5422362,-0.029843 0.6509328,0.00232 0.1086978,0.032168 0.3485426,0.010873 0.4505576,0.026645 0.1020148,0.015772 0.3224363,0.04063 0.3224363,0.04063 0,0 0.035775,-0.3108995 0.097697,-0.3934916 0.061924,-0.08259 0.108657,-0.2258968 0.108657,-0.2258968 l 0.1083853,-0.015502 0.1691436,0.2273754 0.130298,0.3196775 c 0,0 0.086471,-0.3506794 0.1083007,-0.5316352 C 8.443888,3.1633105 8.4298977,3.0351914 8.4450496,2.8378455 8.4602,2.6404936 8.4559215,2.4892994 8.3957839,2.3417572 8.335645,2.1942115 8.2706139,1.8001406 8.1375931,1.5676 8.0045718,1.3350593 7.984525,1.2858776 7.8952526,1.2075634 7.8059776,1.129246 7.7725681,1.0472783 7.7130498,0.99506898 7.6535305,0.94285952 7.5806565,0.85785764 7.5806565,0.85785764 c 0,0 0.096575,0.19004336 0.097824,0.38070876 0.00125,0.1906654 0.025567,0.3910403 0.025567,0.3910403 0,0 -0.077772,-0.3315243 -0.4488565,-0.77290775 C 6.8841204,0.41531101 6.9132555,0.3460829 6.9132555,0.3460829 L 6.8731645,0.2477225 c 0,0 0.067438,0.25926817 -0.075826,0.47060047 C 6.6540689,0.92965668 6.4622433,1.2563713 6.2952764,1.362659 6.1283102,1.4689504 5.6668798,1.7908496 5.535731,1.8443054 l -0.5737802,0.233871 c -0.065574,0.026728 -0.2428758,0.060759 -0.2428758,0.060759 0,0 0.2659512,-0.05105 0.3490806,-0.4099274 0.08313,-0.3588759 0.060055,-0.368587 0.060055,-0.368587 0,0 -0.2191772,0.1658054 -0.3667211,0.2259437 L 4.2204991,1.806871 C 4.1221364,1.8469634 3.5726785,2.2812113 3.4712863,2.3607711 3.3698949,2.4403338 2.833178,2.8120359 2.7755293,3.0458201 2.717882,3.2796076 2.4416799,3.7745317 2.4423039,3.8698664 c 6.222e-4,0.095332 -0.00241,0.1347994 -5.393e-4,0.4207973 0.00187,0.2859983 0.071718,0.4104655 0.079023,0.5221936 0.0073,0.1117243 -0.035194,0.1481666 -0.035194,0.1481666 z"
       id="path20218"
       sodipodi:nodetypes="csccsssscssccscssssscsccccsssssscscsccsssscscssssssscc" /><path
       style="opacity:0.99;fill:#fde0a4;fill-opacity:0.992157;fill-rule:nonzero;stroke:none;stroke-width:0.0384263;stroke-dasharray:none;stroke-opacity:1;paint-order:fill markers stroke"
       d="m 5.700593,8.6702966 0.09437,0.2315261 c 0,0 0.081445,0.2858806 0.3693456,0.2176202 0.2879033,-0.068259 0.4490137,-0.06029 0.4490137,-0.06029 L 6.4665969,8.6131141 c 0,0 -0.2697508,0.026724 -0.4609425,0.031022 C 5.8144602,8.6484299 5.7651038,8.57037 5.7651038,8.57037 Z"
       id="path20220"
       sodipodi:nodetypes="ccsccscc" /><path
       style="opacity:0.99;fill:#444960;fill-opacity:1;fill-rule:nonzero;stroke:none;stroke-width:0.0354046;stroke-dasharray:none;stroke-opacity:1;paint-order:fill markers stroke"
       d="m 4.7252022,12.206137 c 0.2231328,0.382747 0.052206,0.957165 0.091862,1.542654 -0.026553,0.04426 -0.089527,0.304604 -0.1160823,0.348863 -0.026553,0.04425 -0.552518,0.690424 -0.5967755,0.716977 -0.044258,0.02655 -0.2566965,0.380621 -0.2566965,0.380621 0,0 0.1947346,0.05311 0.2566965,0.05311 0.061961,0 0.4691344,-0.04425 0.5842041,-0.06196 0.1150709,-0.0177 0.247845,-0.0177 0.336361,-0.0177 0.088516,0 0.1947343,0.159327 0.2301413,0.159327 -0.030123,-0.316459 0.1603094,-0.504819 0.2420981,-0.697721 0.053109,-0.212438 0.081217,-0.436835 0.098921,-0.516503 0.017702,-0.07966 0.05311,-0.266592 -0.00885,-0.42592 C 5.525123,13.528554 5.526171,13.297366 5.490766,13.25311 5.455359,13.20885 5.8695804,12.571686 5.7810643,12.447763 5.6925483,12.32384 4.9893685,11.911316 4.9893685,11.911316 Z"
       id="path20232"
       sodipodi:nodetypes="ccsscscsccsssscc" /><path
       style="opacity:0.99;fill:#23283b;fill-opacity:1;fill-rule:nonzero;stroke:none;stroke-width:0.0354046;stroke-dasharray:none;stroke-opacity:1;paint-order:fill markers stroke"
       d="m 6.1223714,12.884984 c 0,0 0.300954,0.548799 0.3452125,0.575356 0.3922845,0.661321 0.2987939,0.957964 0.088517,1.495917 0,0.08851 -0.088516,0.238995 -0.05311,0.238995 0.035406,0 0.3540636,0.02655 0.5665015,0.02655 0.212439,0 0.2212902,0.05311 0.5222441,0.0089 0.3009539,-0.04426 0.3894699,-0.0354 0.4425796,-0.05311 0.05311,-0.0177 -0.017702,0 -0.061961,-0.141626 -0.044258,-0.141667 -0.048954,-0.0266 -0.1020644,-0.239037 C 7.8171807,14.584491 7.7489692,14.441312 7.7578207,14.264282 7.7666718,14.087248 7.6036944,13.553553 7.4797724,13.482737 7.3558501,13.411928 7.352743,13.230196 7.2819307,13.177089 7.2111174,13.123979 6.7596867,12.672546 6.7596867,12.672546 L 6.4941391,12.62829 c 0,0 -0.2301417,0.185881 -0.2655476,0.203587 l -0.1062197,0.05311 z"
       id="path20234"
       sodipodi:nodetypes="cccsscsssscsccccc" /><path
       style="opacity:0.99;fill:#474e61;fill-opacity:1;fill-rule:nonzero;stroke:none;stroke-width:0.0354046;stroke-dasharray:none;stroke-opacity:1;paint-order:fill markers stroke"
       d="m 4.8211883,11.840497 2.1863423,0.150476 c 0,0 0.159329,0.230144 0.035406,0.371769 -0.1239219,0.141625 -0.2478439,0.283251 -0.3363598,0.354063 -0.088516,0.07081 -0.2566965,0.194736 -0.3629148,0.212438 -0.1062197,0.0177 -0.2212905,0.04426 -0.3629158,0.02655 -0.1416249,-0.0177 -0.3186565,0.0089 -0.451431,-0.03541 C 5.396542,12.876133 5.2372126,12.893839 5.1752515,12.707954 5.1132907,12.52207 5.060181,12.229968 5.0159236,12.168007 4.971665,12.106045 4.7769297,11.831646 4.7769297,11.831646 Z"
       id="path20230" /><path
       style="opacity:0.99;fill:#ff0000;fill-opacity:1;fill-rule:nonzero;stroke:#800000;stroke-width:0.0354046;stroke-dasharray:none;stroke-opacity:1;paint-order:fill markers stroke"
       d="m 3.8563646,15.221805 c 0,0 1.0621908,-0.07081 1.159559,-0.02655 0.097367,0.04425 0.4071722,0.212438 0.4425792,0.292101 0.035406,0.07966 0.1239223,0.265549 0.1681798,0.309804 0.044258,0.04426 -0.1947346,0.08851 -0.2566954,0.07081 -0.061962,-0.0177 -0.3186577,-0.0177 -0.4779866,-0.0177 -0.1593283,0 -0.3806185,-0.0177 -0.6461661,-0.02655 -0.2655479,-0.0089 -0.4160247,-0.0089 -0.486837,-0.0089 -0.070813,0 -0.247845,0.04426 -0.212438,0 0.035406,-0.04426 0.088516,-0.345212 0.1593283,-0.495688 0.070812,-0.150477 0.1504768,-0.09737 0.1504768,-0.09737 z"
       id="path20236" /><path
       style="opacity:0.99;fill:#e3dedb;fill-opacity:1;fill-rule:nonzero;stroke:none;stroke-width:0.0354046;stroke-dasharray:none;stroke-opacity:1;paint-order:fill markers stroke"
       d="m 3.5642621,15.841417 c -0.044257,-0.0089 -0.097367,0.09737 -0.097367,0.09737 0,0 0.017702,0.141625 0.070812,0.159327 0.05311,0.0177 0.061961,0.0177 0.3098062,0.04426 0.2478439,0.02655 0.4602818,0.03541 0.646166,0.03541 0.1858831,0 0.6373138,-0.02655 0.7258298,-0.03541 0.088516,-0.0089 0.3009546,-0.0177 0.3806184,-0.05311 0.079664,-0.0354 0.1416253,-0.06196 0.1416253,-0.123919 0,-0.06196 -0.044257,-0.159332 -0.088516,-0.159332 -0.044258,0 -2.0889753,0.03541 -2.0889753,0.03541 z"
       id="path20238" /><path
       style="opacity:0.99;fill:#aa0000;fill-opacity:1;fill-rule:nonzero;stroke:#800000;stroke-width:0.0354046;stroke-dasharray:none;stroke-opacity:1;paint-order:fill markers stroke"
       d="m 6.6478872,15.12166 c 0,0 1.0621908,-0.07081 1.159559,-0.02655 0.097367,0.04426 0.4071722,0.212438 0.4425792,0.292102 0.035406,0.07966 0.1239223,0.265548 0.1681798,0.309804 0.044258,0.04426 -0.1947346,0.08851 -0.2566954,0.07081 -0.061962,-0.0177 -0.3186577,-0.0177 -0.4779866,-0.0177 -0.1593283,0 -0.3806185,-0.0177 -0.6461661,-0.02655 -0.2655479,-0.0089 -0.4160247,-0.0089 -0.486837,-0.0089 -0.070813,0 -0.247845,0.04426 -0.2124379,0 0.035406,-0.04426 0.088516,-0.345212 0.1593282,-0.495689 0.070812,-0.150476 0.1504768,-0.09737 0.1504768,-0.09737 z"
       id="path20240" /><path
       style="opacity:0.99;fill:#e3dedb;fill-opacity:1;fill-rule:nonzero;stroke:none;stroke-width:0.0354046;stroke-dasharray:none;stroke-opacity:1;paint-order:fill markers stroke"
       d="m 6.3557848,15.741271 c -0.044258,-0.0089 -0.097367,0.09737 -0.097367,0.09737 0,0 0.017702,0.141626 0.070812,0.159328 0.05311,0.0177 0.061961,0.0177 0.3098061,0.04426 0.2478439,0.02655 0.4602818,0.03541 0.646166,0.03541 0.1858831,0 0.6373138,-0.02655 0.7258298,-0.03541 0.088516,-0.0089 0.3009546,-0.0177 0.3806184,-0.05311 0.079664,-0.03541 0.1416253,-0.06196 0.1416253,-0.12392 0,-0.06196 -0.044257,-0.159331 -0.088516,-0.159331 -0.044258,0 -2.0889752,0.03541 -2.0889752,0.03541 z"
       id="path20242" /><path
       style="opacity:0.99;fill:#f1cd83;fill-opacity:0.976471;fill-rule:nonzero;stroke:none;stroke-width:0.0354046;stroke-dasharray:none;stroke-opacity:1;paint-order:fill markers stroke"
       d="m 7.1299,10.887339 c 0,0.03541 -0.061962,0.05311 -0.1062196,0.185884 -0.044259,0.132775 -0.035406,0.194736 -0.044259,0.256698 -0.00885,0.06196 -0.1239219,0.256697 -0.1239219,0.256697 0,0 -0.2478443,0.13277 -0.097367,0.238991 0.1504779,0.106217 0.2212894,0.17703 0.265548,0.17703 0.044257,0 0.1239219,-0.03541 0.1858831,-0.115068 0.061961,-0.07966 0.1327745,-0.141626 0.1858841,-0.256698 0.053109,-0.115071 0.1327731,-0.327509 0.1327731,-0.327509 0,0 -0.017702,0.159331 0.061961,0.221292 0.079664,0.06196 0,0.09737 0.1593293,0.05311 0.159328,-0.04426 0.2832503,-0.238991 0.2921025,-0.283251 0.00885,-0.04425 0.079663,-0.168178 0.079663,-0.256693 0,-0.08852 -0.053109,-0.177034 -0.1327731,-0.221293 -0.079665,-0.04425 -0.2655476,-0.0354 -0.3540636,-0.02655 -0.088516,0.0089 -0.4337281,0.03541 -0.4337281,0.03541 z"
       id="path20226"
       sodipodi:nodetypes="csscsssscsssssscc" /><path
       style="opacity:0.99;fill:#f1cd83;fill-opacity:0.976471;fill-rule:nonzero;stroke:none;stroke-width:0.0354046;stroke-dasharray:none;stroke-opacity:1;paint-order:fill markers stroke"
       d="m 7.1830086,11.922975 c 0,0 -0.053109,0.150477 -0.053109,0.203587 0,0.05311 0.1327731,0.150476 0.2212891,0.185884 0.088516,0.03541 0.2921025,0.07081 0.3894696,0.0089 0.097368,-0.06196 0.1681805,-0.194736 0.1947356,-0.238992 0.026554,-0.04426 0.035406,-0.06196 0.079665,-0.06196 0.044258,0 0.1504768,-0.09737 0.1504768,-0.15048 0,-0.05311 0,-0.09737 0,-0.141626 0,-0.04425 0.1062186,-0.123919 0.1062186,-0.123919 0,0 0.05311,-0.07966 0.05311,-0.177033 0,-0.09737 0.088516,-0.159328 -0.026553,-0.17703 -0.1150708,-0.0177 -0.2212895,-0.106221 -0.2212895,-0.106221 0,0 -0.6373145,-0.02655 -0.6992756,0.03541 -0.061961,0.06196 -0.1947353,0.743531 -0.1947353,0.743531 z"
       id="path20228" /><path
       style="opacity:0.99;fill:#ff0000;fill-opacity:1;fill-rule:nonzero;stroke:#800000;stroke-width:0.0360925;stroke-dasharray:none;stroke-opacity:1;paint-order:fill markers stroke"
       d="M 4.9767722,10.537754 C 4.904583,10.429469 5.3184364,10.347766 5.3003899,10.221436 5.2823442,10.095109 4.6966028,9.9600228 4.9492618,9.7975974 c 0.3060111,-0.4935147 0.09077,-0.42956 0.6050167,-0.8479851 0.1624233,-0.07219 0.2887528,-0.1624255 0.2887528,-0.1624255 0,0 0.1082827,0.1624255 0.2165657,0.288756 0.108282,0.126327 0.1624234,0.2526575 0.3428945,0.1985169 0.1804705,-0.054141 0.2346119,-0.162422 0.2346119,-0.162422 0.252524,-0.106514 0.886689,1.4151913 0.3428945,2.2739323 -0.3700579,0.584382 0.1082827,0.649694 0,0.685786 -0.108282,0.03609 -0.73993,0.01806 -0.73993,0.01806 0,0 -0.3970366,-0.09023 -0.4692244,-0.09023 H 5.2835721 c -0.090235,0 -0.5700335,0.402803 -0.5780068,0.27544 -0.014634,-0.233757 0.1589902,-0.658415 0.2864616,-0.921949 0.1522381,-0.314737 8.074e-4,-0.360113 -0.1235384,-0.616789 -0.1007617,-0.207995 0.252659,-0.144376 0.252659,-0.144376 0,0 0.1593279,-0.04138 0.3578462,-0.149666 C 5.6775107,10.333962 5.9874075,9.9061158 5.9874075,9.9061158 5.7892709,10.286994 5.5074793,10.517294 5.1391944,10.591906 Z"
       id="path20222"
       sodipodi:nodetypes="cscccsscsscssssscsccc" /><path
       style="opacity:0.99;fill:#fde0a4;fill-opacity:1;fill-rule:nonzero;stroke:none;stroke-width:0.1;stroke-dasharray:none;stroke-opacity:1;paint-order:fill markers stroke"
       d="m -101.026,40.768853 c 0,0 0.71779,-3.53779 0.541,-3.64386 -0.17679,-0.10607 1.025358,-0.17678 1.308214,-0.56571 0.282858,-0.38893 0.707144,-0.81322 0.813215,-1.27286 0.106072,-0.45964 0.212143,-1.09607 0.212143,-1.44964 0,-0.35358 -0.106071,-1.30822 -0.106071,-1.30822 v -0.14143 c 0,0 4.348927,0.21215 6.611783,1.41429 2.262857,1.20214 2.368929,1.27286 2.368929,1.27286 0,0 0.990002,-0.77786 1.060714,-0.91929 0.07072,-0.14143 0.459645,-0.35357 0.459645,-0.35357 l 0.459642,0.99 c 0,0 0.141428,4.31357 -0.03536,4.98536 -0.176787,0.67178 -0.106071,0.31821 -0.14143,0.495 -0.03536,0.17678 -0.141428,1.20214 -0.141428,1.52035 0,0.31822 0.07071,1.13143 0.03536,1.44965 -0.03536,0.31821 -0.565713,1.87393 -0.565713,1.87393 0,0 -1.025359,0.99 -1.272858,1.09607 -0.247499,0.10607 -1.485,0.63643 -1.661784,0.70714 -0.176787,0.0707 -0.707144,0.14143 -0.883931,0.14143 -0.176784,0 -1.308214,0 -1.661784,0 -0.353571,0 -1.308214,-0.14143 -1.626428,-0.21214 -0.318215,-0.0707 -1.096071,-0.2475 -1.555716,-0.31822 -0.459642,-0.0707 -1.272857,-0.38893 -1.626428,-0.56571 -0.353571,-0.17679 -1.025356,-0.45965 -1.166786,-0.53036 -0.141428,-0.0707 -0.777858,-0.67178 -0.989998,-0.77786 -0.21214,-0.10607 -0.70715,-0.495 -0.81322,-0.63642 -0.10607,-0.14143 -0.495,-0.49501 -0.495,-0.49501 v -0.45964 c 0,0 -0.45964,0.495 -0.99,0.21215 -0.53035,-0.28286 -1.30821,-0.35358 -1.59107,-0.70715 -0.28286,-0.35357 -0.60107,-1.13143 -0.60107,-1.27286 0,-0.14142 -0.0354,-0.42428 0,-0.70714 0.0354,-0.28286 0.14143,-0.7425 0.14143,-0.7425 0,0 0.21214,-0.35357 0.63643,-0.60107 0.42428,-0.2475 0.56571,-0.38893 0.77786,-0.42429 0.21214,-0.0354 0.84857,0.0354 0.84857,0.0354 0,0 0.495,0.17679 0.60107,0.35357 0.10607,0.17679 0.31821,0.45965 0.42428,0.60107 0.10607,0.14143 0.35357,0.45965 0.42429,0.60108 0.0707,0.14142 0.2015,0.35564 0.2015,0.35564 z"
       id="path32083" /><path
       style="opacity:0.99;fill:#ff6600;fill-opacity:1;fill-rule:nonzero;stroke:none;stroke-width:0.1;stroke-dasharray:none;stroke-opacity:1;paint-order:fill markers stroke"
       d="m -103.77615,32.368433 c 0,0 -3.65018,1.85009 -2.70013,4.85024 0.95004,3.00015 1.40007,3.15016 1.40007,3.15016 l 0.15001,-0.05 c 0,0 0.55002,-1.00005 0.80004,-1.10006 0.25001,-0.1 0.60003,-0.30001 0.90004,-0.25001 0.30002,0.05 1.20006,0.35002 1.30007,0.60003 0.1,0.25002 0.50002,0.65003 0.65003,0.85005 0.15001,0.20001 0.35002,0.30001 0.35002,0.30001 0,0 0.25001,-0.90004 0.40002,-1.35007 0.15001,-0.45002 0.20001,-0.65003 0.15001,-1.05005 -0.05,-0.40002 -0.15001,-0.90005 -0.15001,-0.90005 l -0.25001,-0.65003 c 0.955262,0.71155 3.449013,0.57575 2.703689,-2.67943 -0.311283,-1.35952 0.02071,-1.47936 0.02071,-1.47936 0,0 0.375756,-0.24143 1.175798,-0.0914 0.800039,0.15001 1.80009,0.30002 2.350119,0.50003 0.550026,0.20001 1.400071,0.45002 1.800092,0.60003 0.400019,0.15001 1.450073,0.50002 1.700086,0.70003 0.250013,0.20002 0.900046,0.40002 1.150059,0.55003 0.250013,0.15001 0.800039,0.45002 0.800039,0.45002 0,0 0.425022,-0.77504 0.675035,-0.92505 0.250012,-0.15 0.525028,-0.47501 0.525028,-0.47501 l 0.300016,0.075 0.200011,0.77504 -3e-6,0.97505 c 0,0 0.600031,-0.82504 0.850044,-1.27507 0.250013,-0.45002 0.350017,-0.80004 0.60003,-1.30006 0.250013,-0.50003 0.400021,-0.90005 0.400021,-1.35007 0,-0.45003 0.250013,-1.55008 0.150008,-2.30012 -0.100005,-0.75004 -0.100005,-0.90005 -0.250013,-1.20006 -0.150008,-0.30002 -0.150008,-0.55003 -0.250012,-0.75004 -0.100005,-0.20001 -0.20001,-0.50003 -0.20001,-0.50003 0,0 0.05,0.60003 -0.150008,1.10006 -0.200012,0.50003 -0.350017,1.05005 -0.350017,1.05005 0,0 0.150005,-0.95004 -0.35002,-2.50012 -0.500025,-1.55008 -0.350017,-1.70009 -0.350017,-1.70009 v -0.30001 c 0,0 -0.100005,0.75003 -0.700035,1.15005 -0.600032,0.40002 -1.450075,1.05006 -2.000102,1.15006 -0.550029,0.10001 -2.100109,0.45003 -2.500127,0.45003 h -1.750092 c -0.200009,0 -0.700034,-0.10001 -0.700034,-0.10001 0,0 0.750038,0.15001 1.350068,-0.70004 0.60003,-0.85004 0.550029,-0.90004 0.550029,-0.90004 0,0 -0.750038,0.20001 -1.200063,0.20001 h -1.650081 c -0.300017,0 -2.200114,0.55003 -2.550131,0.65003 -0.350018,0.10001 -2.150107,0.50003 -2.550127,1.05005 -0.40003,0.55003 -1.65009,1.55008 -1.75009,1.8001 -0.10001,0.25001 -0.15001,0.35001 -0.45003,1.10005 -0.30001,0.75004 -0.25001,1.15006 -0.35002,1.45008 -0.1,0.30001 -0.25001,0.35002 -0.25001,0.35002 z"
       id="path32085"
       sodipodi:nodetypes="csccsssscssccscssssscsccccsssssscscsccsssscscssssssscc" /><path
       style="opacity:0.99;fill:#fde0a4;fill-opacity:0.992157;fill-rule:nonzero;stroke:none;stroke-width:0.108535;stroke-dasharray:none;stroke-opacity:1;paint-order:fill markers stroke"
       d="m -99.321539,45.497833 v 0.70618 c 0,0 -0.09175,0.83457 0.734045,0.96296 0.825802,0.1284 1.238702,0.321 1.238702,0.321 l 0.09175,-1.32307 c 0,0 -0.734043,-0.21768 -1.2387,-0.41027 -0.504657,-0.1926 -0.550533,-0.44939 -0.550533,-0.44939 z"
       id="path32087"
       sodipodi:nodetypes="ccsccscc" /><path
       style="opacity:0.99;fill:#48a4df;fill-opacity:1;fill-rule:nonzero;stroke:#0055d4;stroke-width:0.1;stroke-dasharray:none;stroke-opacity:1;paint-order:fill markers stroke"
       d="m -101.77604,50.669363 c -0.20001,-0.30002 -1.50008,-1.50008 -1.55008,-1.8501 -0.05,-0.35001 -0.10001,-0.2 0.60003,-0.65003 0.70003,-0.45002 1.35007,-0.80004 1.75009,-0.85004 0.40002,-0.05 1.000048,-0.10001 1.000048,-0.10001 l -1.000048,0.05 c 0,0 0.35001,-0.80003 0.80004,-1.00005 0.45002,-0.20001 0.800038,-0.45002 0.800038,-0.45002 0,0 0.300016,0.45002 0.600032,0.80004 0.300014,0.35002 0.450022,0.70004 0.950048,0.55003 0.500025,-0.15001 0.650033,-0.45002 0.650033,-0.45002 0,0 1.20006,4.40022 0.950048,6.30032 -0.250013,1.90009 0.300016,1.80009 0,1.90009 -0.300014,0.10001 -2.050103,0.05 -2.050103,0.05 0,0 -1.100058,-0.25001 -1.300067,-0.25001 H -100.926 c -0.25001,0 -0.50003,0.25001 -0.75004,0 -0.25001,-0.25002 -0.80004,-0.90005 -0.85004,-1.9501 -0.05,-1.05006 -0.05,-1.15006 0.45002,-1.55008 0.50003,-0.40002 0.70004,-0.40002 0.70004,-0.40002 0,0 0.44144,-0.11465 0.99147,-0.41467 0.550027,-0.30001 1.408649,-1.48543 1.408649,-1.48543 -0.548972,1.05529 -1.329719,1.69338 -2.350119,1.9001 z"
       id="path32089"
       sodipodi:nodetypes="csssccscsscsscssssscsccc" /><path
       style="opacity:0.99;fill:#444960;fill-opacity:1;fill-rule:nonzero;stroke:none;stroke-width:0.1;stroke-dasharray:none;stroke-opacity:1;paint-order:fill markers stroke"
       d="m -103.30112,54.894573 c 0,0 0.50002,2.67514 0.52503,2.95016 0.025,0.27501 0.1,1.90009 0.025,2.0251 -0.075,0.12501 -0.50003,0.82504 -0.57503,0.95005 -0.075,0.125 -0.90005,1.9501 -1.02505,2.0251 -0.12501,0.075 -0.72504,1.07506 -0.72504,1.07506 0,0 0.55002,0.15 0.72504,0.15 0.175,0 1.32506,-0.125 1.65008,-0.17501 0.32501,-0.05 0.70003,-0.05 0.95005,-0.05 0.25001,0 0.55002,0.45002 0.65003,0.45002 0.10001,0 0,-0.37501 0.025,-0.62503 0.025,-0.25001 -0.025,-0.35001 0.20001,-0.52503 0.22501,-0.175 0.45002,-0.15 0.60003,-0.75003 0.15001,-0.60003 0.300016,-1.37507 0.35002,-1.60009 0.05,-0.22501 0.150008,-0.70003 -0.025,-1.15005 -0.17501,-0.45003 -0.22501,-1.05006 -0.32502,-1.17506 -0.1,-0.12501 -0.35002,-2.10011 -0.60003,-2.45013 -0.25001,-0.35002 -0.97505,-1.37507 -0.97505,-1.37507 z"
       id="path32091" /><path
       style="opacity:0.99;fill:#23283b;fill-opacity:1;fill-rule:nonzero;stroke:none;stroke-width:0.1;stroke-dasharray:none;stroke-opacity:1;paint-order:fill markers stroke"
       d="m -98.650885,57.394703 c 0,0 0.850043,1.55008 0.975051,1.62509 0.125005,0.075 0.60003,1.07505 0.60003,1.07505 0,0 0.05,0.85004 -0.05,1.37507 -0.100007,0.52503 -0.300016,1.52508 -0.300016,1.77509 0,0.25001 -0.250013,0.67504 -0.150009,0.67504 0.100005,0 1.000051,0.075 1.600081,0.075 0.600033,0 0.625033,0.15 1.475076,0.025 0.850043,-0.12501 1.100056,-0.1 1.250064,-0.15001 0.150008,-0.05 -0.05,0 -0.175009,-0.40002 -0.125005,-0.40001 -0.05,-0.075 -0.200009,-0.67503 -0.150008,-0.60003 -0.325017,-1.07506 -0.300016,-1.57508 0.025,-0.50003 -0.400021,-2.0251 -0.750038,-2.22512 -0.350018,-0.2 -0.500026,-0.62503 -0.700035,-0.77503 -0.200012,-0.15001 -1.475076,-1.42508 -1.475076,-1.42508 l -0.750038,-0.125 c 0,0 -0.650034,0.52502 -0.750038,0.57503 -0.100005,0.05 -0.300017,0.15 -0.300018,0.15 z"
       id="path32093" /><path
       style="opacity:0.99;fill:#474e61;fill-opacity:1;fill-rule:nonzero;stroke:none;stroke-width:0.1;stroke-dasharray:none;stroke-opacity:1;paint-order:fill markers stroke"
       d="m -102.32607,54.444553 6.175313,0.42502 c 0,0 0.450024,0.65004 0.100004,1.05006 -0.350017,0.40002 -0.700034,0.80004 -0.950047,1.00005 -0.250013,0.20001 -0.725038,0.55003 -1.025051,0.60003 -0.300017,0.05 -0.625034,0.125 -1.025054,0.075 -0.400019,-0.05 -0.900044,0.025 -1.275065,-0.1 -0.37502,-0.12501 -0.82504,-0.075 -1.00005,-0.60003 -0.17501,-0.52503 -0.32502,-1.35007 -0.45002,-1.52508 -0.12501,-0.17501 -0.67504,-0.95005 -0.67504,-0.95005 z"
       id="path32095" /><path
       style="opacity:0.99;fill:#47a3e3;fill-opacity:1;fill-rule:nonzero;stroke:#0055d4;stroke-width:0.1;stroke-dasharray:none;stroke-opacity:1;paint-order:fill markers stroke"
       d="m -105.05121,63.995043 c 0,0 3.00015,-0.20001 3.27517,-0.075 0.27501,0.125 1.15005,0.60003 1.25006,0.82504 0.10001,0.22501 0.35002,0.75004 0.47502,0.87504 0.125011,0.12501 -0.55002,0.25001 -0.72503,0.20001 -0.17501,-0.05 -0.90005,-0.05 -1.35007,-0.05 -0.45002,0 -1.07506,-0.05 -1.8251,-0.075 -0.75003,-0.025 -1.17506,-0.025 -1.37506,-0.025 -0.20002,0 -0.70004,0.12501 -0.60003,0 0.1,-0.12501 0.25001,-0.97505 0.45002,-1.40007 0.20001,-0.42502 0.42502,-0.27501 0.42502,-0.27501 z"
       id="path32097" /><path
       style="opacity:0.99;fill:#e3dedb;fill-opacity:1;fill-rule:nonzero;stroke:none;stroke-width:0.1;stroke-dasharray:none;stroke-opacity:1;paint-order:fill markers stroke"
       d="m -105.87625,65.745133 c -0.12501,-0.025 -0.27502,0.27501 -0.27502,0.27501 0,0 0.05,0.40002 0.20001,0.45002 0.15001,0.05 0.17501,0.05 0.87505,0.12501 0.70003,0.075 1.30006,0.10001 1.82509,0.10001 0.52503,0 1.80009,-0.075 2.0501,-0.10001 0.25002,-0.025 0.85005,-0.05 1.07506,-0.15001 0.225012,-0.1 0.40002,-0.17501 0.40002,-0.35001 0,-0.17501 -0.125005,-0.45003 -0.250012,-0.45003 -0.125008,0 -5.900298,0.10001 -5.900298,0.10001 z"
       id="path32099" /><path
       style="opacity:0.99;fill:#47a3e3;fill-opacity:1;fill-rule:nonzero;stroke:#0055d4;stroke-width:0.1;stroke-dasharray:none;stroke-opacity:1;paint-order:fill markers stroke"
       d="m -97.166568,63.712183 c 0,0 3.000153,-0.20001 3.275169,-0.075 0.275013,0.125 1.150056,0.60003 1.250063,0.82504 0.100005,0.22501 0.350018,0.75004 0.475023,0.87504 0.125007,0.12501 -0.550027,0.25001 -0.725035,0.20001 -0.175012,-0.05 -0.900047,-0.05 -1.350071,-0.05 -0.450022,0 -1.075055,-0.05 -1.825093,-0.075 -0.750039,-0.025 -1.17506,-0.025 -1.375069,-0.025 -0.200012,0 -0.700037,0.12501 -0.60003,0 0.100004,-0.12501 0.250013,-0.97505 0.450022,-1.40007 0.200009,-0.42502 0.425021,-0.27501 0.425021,-0.27501 z"
       id="path32101" /><path
       style="opacity:0.99;fill:#e3dedb;fill-opacity:1;fill-rule:nonzero;stroke:none;stroke-width:0.1;stroke-dasharray:none;stroke-opacity:1;paint-order:fill markers stroke"
       d="m -97.99161,65.462273 c -0.125005,-0.025 -0.275013,0.27501 -0.275013,0.27501 0,0 0.05,0.40002 0.200009,0.45002 0.150008,0.05 0.175008,0.05 0.875046,0.12501 0.700034,0.075 1.300064,0.10001 1.825093,0.10001 0.525026,0 1.80009,-0.075 2.050103,-0.10001 0.250012,-0.025 0.850045,-0.05 1.075055,-0.15001 0.225012,-0.1 0.40002,-0.17501 0.40002,-0.35001 0,-0.17501 -0.125005,-0.45003 -0.250012,-0.45003 -0.125005,0 -5.900301,0.10001 -5.900301,0.10001 z"
       id="path32103" /><ellipse
       style="opacity:0.99;fill:#000000;fill-opacity:1;fill-rule:nonzero;stroke:#000000;stroke-width:0.1;stroke-dasharray:none;stroke-opacity:1;paint-order:fill markers stroke"
       id="ellipse32105"
       cx="-93.767143"
       cy="40.183392"
       rx="0.77785712"
       ry="1.3966072" /><ellipse
       style="opacity:0.99;fill:#000000;fill-opacity:1;fill-rule:nonzero;stroke:#000000;stroke-width:0.0792771;stroke-dasharray:none;stroke-opacity:1;paint-order:fill markers stroke"
       id="ellipse32107"
       cx="-88.857292"
       cy="40.094173"
       rx="0.56723642"
       ry="1.203665" /><ellipse
       style="opacity:0.99;fill:#ffffff;fill-opacity:1;fill-rule:nonzero;stroke:none;stroke-width:0.1;stroke-dasharray:none;stroke-opacity:1;paint-order:fill markers stroke"
       id="ellipse32109"
       cx="-93.722946"
       cy="39.723751"
       rx="0.53919643"
       ry="0.68946427" /><ellipse
       style="opacity:0.99;fill:#ffffff;fill-opacity:1;fill-rule:nonzero;stroke:none;stroke-width:0.0775845;stroke-dasharray:none;stroke-opacity:1;paint-order:fill markers stroke"
       id="ellipse32111"
       cx="-88.870186"
       cy="39.564632"
       rx="0.40013629"
       ry="0.55924344" /><path
       style="opacity:0.99;fill:#000000;fill-opacity:1;fill-rule:nonzero;stroke:#000000;stroke-width:0.1;stroke-dasharray:none;stroke-opacity:1;paint-order:fill markers stroke"
       d="m -95.941607,36.647673 c 0.335891,-0.28286 0.848572,-0.76018 1.11375,-0.7425 0.265179,0.0177 0.636429,0.053 0.919285,0.0884 0.282858,0.0354 0.689464,0.30054 0.830894,0.38893 0.141428,0.0884 0.371251,0.53036 0.548035,0.65411 0.176786,0.12375 0.335893,0.51268 0.37125,0.54804 0.03536,0.0354 0.159107,0.22982 0.141427,0.26517 -0.01767,0.0354 -0.318214,-0.22098 -0.459642,-0.25634 -0.141427,-0.0353 -0.609909,-0.30937 -0.715981,-0.41544 -0.106071,-0.10607 -0.07071,-0.22982 -0.291698,-0.32705 -0.220982,-0.0972 -0.822052,-0.18563 -0.892767,-0.20331 -0.07071,-0.0177 -0.353571,-0.0177 -0.574553,-0.0177 -0.220983,0 -0.742501,0.0354 -0.804376,0.053 -0.06187,0.0177 -0.247499,0.053 -0.247499,0.053 z"
       id="path32113" /><path
       style="opacity:0.99;fill:#000000;fill-opacity:1;fill-rule:nonzero;stroke:#000000;stroke-width:0.1;stroke-dasharray:none;stroke-opacity:1;paint-order:fill markers stroke"
       d="m -89.488927,38.008923 c 0.03536,-0.0884 0.194463,-0.53036 0.406606,-0.65411 0.212143,-0.12375 0.583393,-0.37125 0.671785,-0.4066 0.08839,-0.0354 0.282858,0 0.441965,0.0707 0.159107,0.0707 0.318215,0.12375 0.265179,0.21214 -0.05304,0.0884 -0.159107,0.0884 -0.406609,0.14143 -0.247499,0.053 -0.494999,0.14143 -0.583393,0.26518 -0.08839,0.12375 -0.335891,0.2475 -0.441963,0.40661 -0.106071,0.1591 -0.318214,0.2475 -0.318214,0.17678 0,-0.0707 -0.03536,-0.21214 -0.03536,-0.21214 z"
       id="path32115" /><path
       style="opacity:0.99;fill:none;fill-opacity:1;fill-rule:nonzero;stroke:#000000;stroke-width:0.1;stroke-dasharray:none;stroke-opacity:1;paint-order:fill markers stroke"
       d="m -90.350461,41.306383 c -0.01249,0.075 -0.025,0.27501 -0.01249,0.36252 0.01249,0.0875 0.08751,0.21251 0.237513,0.23751 0.150009,0.025 0.262512,0.075 0.350018,0.12501 0.08751,0.05 0.337518,0.25001 0.350017,0.36252 0.01252,0.1125 -0.075,0.38752 -0.112506,0.46252 -0.0375,0.075 0.0375,0.23751 -0.112504,0.23751 -0.150008,0 -0.387522,-0.0625 -0.462526,-0.0625 -0.075,0 -0.362516,-0.0375 -0.362516,-0.0375 l 0.137507,-0.0125 0.21251,0.0625"
       id="path32117" /><path
       style="opacity:0.99;fill:none;fill-opacity:1;fill-rule:nonzero;stroke:#000000;stroke-width:0.1;stroke-dasharray:none;stroke-opacity:1;paint-order:fill markers stroke"
       d="m -91.31301,44.844063 c -0.075,0.025 -1.100055,0.15001 -1.36257,0.075 -0.262514,-0.075 -0.800039,-0.33752 -0.862544,-0.42503 -0.0625,-0.0875 -0.437523,-0.28751 -0.500025,-0.41252 -0.0625,-0.125 -0.075,-0.37502 -0.075,-0.37502 0,0 -0.237512,0.31252 -0.287515,0.33752 -0.05,0.025 -0.175009,0.025 -0.175009,0.025"
       id="path32119" /><path
       style="opacity:0.99;fill:#fde0a4;fill-opacity:0.992157;fill-rule:nonzero;stroke:none;stroke-width:0.1;stroke-dasharray:none;stroke-opacity:1;paint-order:fill markers stroke"
       d="m -103.37613,48.944273 1.9001,2.0251 c 0,0 -0.97505,0.52503 -1.02505,0.62503 -0.05,0.10001 -0.075,1.12506 -0.025,1.25007 0.05,0.12501 0.30001,1.02505 0.42502,1.25006 0.12501,0.22501 0.40002,0.92505 0.40002,0.92505 0,0 -0.05,-0.37502 0.37502,-0.22501 0.42502,0.15001 0.47502,0.075 0.52503,0.17501 0.05,0.1 0.62503,0.70003 0.62503,0.70003 l 0.275012,0.85005 c 0,0 0.250013,0.27501 0.025,0.42502 -0.225012,0.15001 -0.275012,0.35002 -0.350022,0.22501 -0.075,-0.12501 -0.2,-0.57503 -0.2,-0.57503 l 0.22501,0.87505 0.275011,0.40002 c 0,0 0.150008,0.42502 -0.250011,0.55003 -0.40002,0.125 -0.77504,-0.05 -0.77504,-0.05 0,0 -0.075,0 -0.35002,0.20001 -0.27501,0.20001 -0.50003,0.52503 -0.67503,0.35002 -0.17501,-0.17501 -0.37502,-0.25001 -0.52503,-0.27502 -0.15001,-0.025 -0.35002,0.15001 -0.52503,0.15001 -0.17501,0 -0.50002,0.15001 -0.65003,-0.20001 -0.15001,-0.35002 -0.20001,-0.47502 -0.35002,-0.82504 -0.15001,-0.35002 -0.22501,-0.32502 -0.20001,-0.70004 0.025,-0.37501 0.12501,-0.67503 0.20001,-0.87504 0.075,-0.20001 0.10001,-0.25001 0.12501,-0.50002 0.025,-0.25002 -0.52503,-0.50003 -0.62504,-0.97505 -0.1,-0.47503 -0.25001,-0.77504 -0.40001,-1.12506 -0.15001,-0.35002 -0.30002,-0.55003 -0.32502,-0.97505 -0.025,-0.42502 -0.12501,-0.67504 0.025,-1.22506 0.15001,-0.55003 0.05,-0.45003 0.45002,-1.00006 0.40002,-0.55002 0.57503,-0.72503 0.80004,-0.90004 0.22502,-0.17501 0.60003,-0.55003 0.60003,-0.55003 z"
       id="path32121" /><path
       style="opacity:0.99;fill:#fde0a4;fill-opacity:0.992157;fill-rule:nonzero;stroke:none;stroke-width:0.1;stroke-dasharray:none;stroke-opacity:1;paint-order:fill markers stroke"
       d="m -95.875741,54.294543 c 0,0.10001 -0.175012,0.15001 -0.300017,0.52503 -0.125008,0.37502 -0.100004,0.55003 -0.125008,0.72504 -0.025,0.17501 -0.350017,0.72504 -0.350017,0.72504 0,0 -0.700035,0.37501 -0.275014,0.67503 0.425024,0.30001 0.625031,0.50002 0.750039,0.50002 0.125005,0 0.350017,-0.1 0.525026,-0.32501 0.175009,-0.22501 0.375021,-0.40002 0.525029,-0.72504 0.150005,-0.32502 0.375017,-0.92505 0.375017,-0.92505 0,0 -0.05,0.45003 0.175009,0.62504 0.225012,0.17501 0,0.27501 0.450025,0.15 0.450021,-0.125 0.800039,-0.67503 0.825042,-0.80004 0.025,-0.125 0.225009,-0.47502 0.225009,-0.72503 0,-0.25002 -0.150005,-0.50003 -0.375017,-0.62504 -0.225013,-0.125 -0.750038,-0.1 -1.000051,-0.075 -0.250013,0.025 -1.225063,0.10001 -1.225063,0.10001 z"
       id="path32123"
       sodipodi:nodetypes="csscsssscsssssscc" /><path
       style="opacity:0.99;fill:#fde0a4;fill-opacity:0.992157;fill-rule:nonzero;stroke:none;stroke-width:0.1;stroke-dasharray:none;stroke-opacity:1;paint-order:fill markers stroke"
       d="m -95.725736,57.219693 c 0,0 -0.150005,0.42502 -0.150005,0.57503 0,0.15001 0.375017,0.42502 0.62503,0.52503 0.250013,0.10001 0.825042,0.20001 1.100055,0.025 0.275016,-0.17501 0.475025,-0.55003 0.55003,-0.67503 0.075,-0.12501 0.100004,-0.17501 0.225012,-0.17501 0.125005,0 0.425021,-0.27502 0.425021,-0.42503 0,-0.15 0,-0.27501 0,-0.40002 0,-0.125 0.300014,-0.35001 0.300014,-0.35001 0,0 0.150008,-0.22501 0.150008,-0.50003 0,-0.27501 0.250013,-0.45002 -0.075,-0.50002 -0.325017,-0.05 -0.625031,-0.30002 -0.625031,-0.30002 0,0 -1.800092,-0.075 -1.975101,0.10001 -0.175009,0.175 -0.550029,2.1001 -0.550029,2.1001 z"
       id="path32125" /><path
       style="opacity:0.99;fill:#fde0a4;fill-opacity:1;fill-rule:nonzero;stroke:none;stroke-width:0.1;stroke-dasharray:none;stroke-opacity:1;paint-order:fill markers stroke"
       d="m -101.026,40.768853 c 0,0 0.71779,-3.53779 0.541,-3.64386 -0.17679,-0.10607 1.025358,-0.17678 1.308214,-0.56571 0.282858,-0.38893 0.707144,-0.81322 0.813215,-1.27286 0.106072,-0.45964 0.212143,-1.09607 0.212143,-1.44964 0,-0.35358 -0.106071,-1.30822 -0.106071,-1.30822 v -0.14143 c 0,0 4.348927,0.21215 6.611783,1.41429 2.262857,1.20214 2.368929,1.27286 2.368929,1.27286 0,0 0.990002,-0.77786 1.060714,-0.91929 0.07072,-0.14143 0.459645,-0.35357 0.459645,-0.35357 l 0.459642,0.99 c 0,0 0.141428,4.31357 -0.03536,4.98536 -0.176787,0.67178 -0.106071,0.31821 -0.14143,0.495 -0.03536,0.17678 -0.141428,1.20214 -0.141428,1.52035 0,0.31822 0.07071,1.13143 0.03536,1.44965 -0.03536,0.31821 -0.565713,1.87393 -0.565713,1.87393 0,0 -1.025359,0.99 -1.272858,1.09607 -0.247499,0.10607 -1.485,0.63643 -1.661784,0.70714 -0.176787,0.0707 -0.707144,0.14143 -0.883931,0.14143 -0.176784,0 -1.308214,0 -1.661784,0 -0.353571,0 -1.308214,-0.14143 -1.626428,-0.21214 -0.318215,-0.0707 -1.096071,-0.2475 -1.555716,-0.31822 -0.459642,-0.0707 -1.272857,-0.38893 -1.626428,-0.56571 -0.353571,-0.17679 -1.025356,-0.45965 -1.166786,-0.53036 -0.141428,-0.0707 -0.777858,-0.67178 -0.989998,-0.77786 -0.21214,-0.10607 -0.70715,-0.495 -0.81322,-0.63642 -0.10607,-0.14143 -0.495,-0.49501 -0.495,-0.49501 v -0.45964 c 0,0 -0.45964,0.495 -0.99,0.21215 -0.53035,-0.28286 -1.30821,-0.35358 -1.59107,-0.70715 -0.28286,-0.35357 -0.60107,-1.13143 -0.60107,-1.27286 0,-0.14142 -0.0354,-0.42428 0,-0.70714 0.0354,-0.28286 0.14143,-0.7425 0.14143,-0.7425 0,0 0.21214,-0.35357 0.63643,-0.60107 0.42428,-0.2475 0.56571,-0.38893 0.77786,-0.42429 0.21214,-0.0354 0.84857,0.0354 0.84857,0.0354 0,0 0.495,0.17679 0.60107,0.35357 0.10607,0.17679 0.31821,0.45965 0.42428,0.60107 0.10607,0.14143 0.35357,0.45965 0.42429,0.60108 0.0707,0.14142 0.2015,0.35564 0.2015,0.35564 z"
       id="path37522" /><path
       style="opacity:0.99;fill:#ff6600;fill-opacity:1;fill-rule:nonzero;stroke:none;stroke-width:0.1;stroke-dasharray:none;stroke-opacity:1;paint-order:fill markers stroke"
       d="m -103.77615,32.368433 c 0,0 -3.65018,1.85009 -2.70013,4.85024 0.95004,3.00015 1.40007,3.15016 1.40007,3.15016 l 0.15001,-0.05 c 0,0 0.55002,-1.00005 0.80004,-1.10006 0.25001,-0.1 0.60003,-0.30001 0.90004,-0.25001 0.30002,0.05 1.20006,0.35002 1.30007,0.60003 0.1,0.25002 0.50002,0.65003 0.65003,0.85005 0.15001,0.20001 0.35002,0.30001 0.35002,0.30001 0,0 0.25001,-0.90004 0.40002,-1.35007 0.15001,-0.45002 0.20001,-0.65003 0.15001,-1.05005 -0.05,-0.40002 -0.15001,-0.90005 -0.15001,-0.90005 l -0.25001,-0.65003 c 0.955262,0.71155 3.449013,0.57575 2.703689,-2.67943 -0.311283,-1.35952 0.02071,-1.47936 0.02071,-1.47936 0,0 0.375756,-0.24143 1.175798,-0.0914 0.800039,0.15001 1.80009,0.30002 2.350119,0.50003 0.550026,0.20001 1.400071,0.45002 1.800092,0.60003 0.400019,0.15001 1.450073,0.50002 1.700086,0.70003 0.250013,0.20002 0.900046,0.40002 1.150059,0.55003 0.250013,0.15001 0.800039,0.45002 0.800039,0.45002 0,0 0.425022,-0.77504 0.675035,-0.92505 0.250012,-0.15 0.525028,-0.47501 0.525028,-0.47501 l 0.300016,0.075 0.200011,0.77504 -3e-6,0.97505 c 0,0 0.600031,-0.82504 0.850044,-1.27507 0.250013,-0.45002 0.350017,-0.80004 0.60003,-1.30006 0.250013,-0.50003 0.400021,-0.90005 0.400021,-1.35007 0,-0.45003 0.250013,-1.55008 0.150008,-2.30012 -0.100005,-0.75004 -0.100005,-0.90005 -0.250013,-1.20006 -0.150008,-0.30002 -0.150008,-0.55003 -0.250012,-0.75004 -0.100005,-0.20001 -0.20001,-0.50003 -0.20001,-0.50003 0,0 0.05,0.60003 -0.150008,1.10006 -0.200012,0.50003 -0.350017,1.05005 -0.350017,1.05005 0,0 0.150005,-0.95004 -0.35002,-2.50012 -0.500025,-1.55008 -0.350017,-1.70009 -0.350017,-1.70009 v -0.30001 c 0,0 -0.100005,0.75003 -0.700035,1.15005 -0.600032,0.40002 -1.450075,1.05006 -2.000102,1.15006 -0.550029,0.10001 -2.100109,0.45003 -2.500127,0.45003 h -1.750092 c -0.200009,0 -0.700034,-0.10001 -0.700034,-0.10001 0,0 0.750038,0.15001 1.350068,-0.70004 0.60003,-0.85004 0.550029,-0.90004 0.550029,-0.90004 0,0 -0.750038,0.20001 -1.200063,0.20001 h -1.650081 c -0.300017,0 -2.200114,0.55003 -2.550131,0.65003 -0.350018,0.10001 -2.150107,0.50003 -2.550127,1.05005 -0.40003,0.55003 -1.65009,1.55008 -1.75009,1.8001 -0.10001,0.25001 -0.15001,0.35001 -0.45003,1.10005 -0.30001,0.75004 -0.25001,1.15006 -0.35002,1.45008 -0.1,0.30001 -0.25001,0.35002 -0.25001,0.35002 z"
       id="path37524"
       sodipodi:nodetypes="csccsssscssccscssssscsccccsssssscscsccsssscscssssssscc" /><path
       style="opacity:0.99;fill:#fde0a4;fill-opacity:0.992157;fill-rule:nonzero;stroke:none;stroke-width:0.108535;stroke-dasharray:none;stroke-opacity:1;paint-order:fill markers stroke"
       d="m -99.321539,45.497833 v 0.70618 c 0,0 -0.09175,0.83457 0.734045,0.96296 0.825802,0.1284 1.238702,0.321 1.238702,0.321 l 0.09175,-1.32307 c 0,0 -0.734043,-0.21768 -1.2387,-0.41027 -0.504657,-0.1926 -0.550533,-0.44939 -0.550533,-0.44939 z"
       id="path37526"
       sodipodi:nodetypes="ccsccscc" /><path
       style="opacity:0.99;fill:#48a4df;fill-opacity:1;fill-rule:nonzero;stroke:#0055d4;stroke-width:0.1;stroke-dasharray:none;stroke-opacity:1;paint-order:fill markers stroke"
       d="m -101.77604,50.669363 c -0.20001,-0.30002 -1.50008,-1.50008 -1.55008,-1.8501 -0.05,-0.35001 -0.10001,-0.2 0.60003,-0.65003 0.70003,-0.45002 1.35007,-0.80004 1.75009,-0.85004 0.40002,-0.05 1.000048,-0.10001 1.000048,-0.10001 l -1.000048,0.05 c 0,0 0.35001,-0.80003 0.80004,-1.00005 0.45002,-0.20001 0.800038,-0.45002 0.800038,-0.45002 0,0 0.300016,0.45002 0.600032,0.80004 0.300014,0.35002 0.450022,0.70004 0.950048,0.55003 0.500025,-0.15001 0.650033,-0.45002 0.650033,-0.45002 0,0 1.20006,4.40022 0.950048,6.30032 -0.250013,1.90009 0.300016,1.80009 0,1.90009 -0.300014,0.10001 -2.050103,0.05 -2.050103,0.05 0,0 -1.100058,-0.25001 -1.300067,-0.25001 H -100.926 c -0.25001,0 -0.50003,0.25001 -0.75004,0 -0.25001,-0.25002 -0.80004,-0.90005 -0.85004,-1.9501 -0.05,-1.05006 -0.05,-1.15006 0.45002,-1.55008 0.50003,-0.40002 0.70004,-0.40002 0.70004,-0.40002 0,0 0.44144,-0.11465 0.99147,-0.41467 0.550027,-0.30001 1.408649,-1.48543 1.408649,-1.48543 -0.548972,1.05529 -1.329719,1.69338 -2.350119,1.9001 z"
       id="path37528"
       sodipodi:nodetypes="csssccscsscsscssssscsccc" /><path
       style="opacity:0.99;fill:#444960;fill-opacity:1;fill-rule:nonzero;stroke:none;stroke-width:0.1;stroke-dasharray:none;stroke-opacity:1;paint-order:fill markers stroke"
       d="m -103.30112,54.894573 c 0,0 0.50002,2.67514 0.52503,2.95016 0.025,0.27501 0.1,1.90009 0.025,2.0251 -0.075,0.12501 -0.50003,0.82504 -0.57503,0.95005 -0.075,0.125 -0.90005,1.9501 -1.02505,2.0251 -0.12501,0.075 -0.72504,1.07506 -0.72504,1.07506 0,0 0.55002,0.15 0.72504,0.15 0.175,0 1.32506,-0.125 1.65008,-0.17501 0.32501,-0.05 0.70003,-0.05 0.95005,-0.05 0.25001,0 0.55002,0.45002 0.65003,0.45002 0.10001,0 0,-0.37501 0.025,-0.62503 0.025,-0.25001 -0.025,-0.35001 0.20001,-0.52503 0.22501,-0.175 0.45002,-0.15 0.60003,-0.75003 0.15001,-0.60003 0.300016,-1.37507 0.35002,-1.60009 0.05,-0.22501 0.150008,-0.70003 -0.025,-1.15005 -0.17501,-0.45003 -0.22501,-1.05006 -0.32502,-1.17506 -0.1,-0.12501 -0.35002,-2.10011 -0.60003,-2.45013 -0.25001,-0.35002 -0.97505,-1.37507 -0.97505,-1.37507 z"
       id="path37530" /><path
       style="opacity:0.99;fill:#23283b;fill-opacity:1;fill-rule:nonzero;stroke:none;stroke-width:0.1;stroke-dasharray:none;stroke-opacity:1;paint-order:fill markers stroke"
       d="m -98.650885,57.394703 c 0,0 0.850043,1.55008 0.975051,1.62509 0.125005,0.075 0.60003,1.07505 0.60003,1.07505 0,0 0.05,0.85004 -0.05,1.37507 -0.100007,0.52503 -0.300016,1.52508 -0.300016,1.77509 0,0.25001 -0.250013,0.67504 -0.150009,0.67504 0.100005,0 1.000051,0.075 1.600081,0.075 0.600033,0 0.625033,0.15 1.475076,0.025 0.850043,-0.12501 1.100056,-0.1 1.250064,-0.15001 0.150008,-0.05 -0.05,0 -0.175009,-0.40002 -0.125005,-0.40001 -0.05,-0.075 -0.200009,-0.67503 -0.150008,-0.60003 -0.325017,-1.07506 -0.300016,-1.57508 0.025,-0.50003 -0.400021,-2.0251 -0.750038,-2.22512 -0.350018,-0.2 -0.500026,-0.62503 -0.700035,-0.77503 -0.200012,-0.15001 -1.475076,-1.42508 -1.475076,-1.42508 l -0.750038,-0.125 c 0,0 -0.650034,0.52502 -0.750038,0.57503 -0.100005,0.05 -0.300017,0.15 -0.300018,0.15 z"
       id="path37532" /><path
       style="opacity:0.99;fill:#474e61;fill-opacity:1;fill-rule:nonzero;stroke:none;stroke-width:0.1;stroke-dasharray:none;stroke-opacity:1;paint-order:fill markers stroke"
       d="m -102.32607,54.444553 6.175313,0.42502 c 0,0 0.450024,0.65004 0.100004,1.05006 -0.350017,0.40002 -0.700034,0.80004 -0.950047,1.00005 -0.250013,0.20001 -0.725038,0.55003 -1.025051,0.60003 -0.300017,0.05 -0.625034,0.125 -1.025054,0.075 -0.400019,-0.05 -0.900044,0.025 -1.275065,-0.1 -0.37502,-0.12501 -0.82504,-0.075 -1.00005,-0.60003 -0.17501,-0.52503 -0.32502,-1.35007 -0.45002,-1.52508 -0.12501,-0.17501 -0.67504,-0.95005 -0.67504,-0.95005 z"
       id="path37534" /><path
       style="opacity:0.99;fill:#47a3e3;fill-opacity:1;fill-rule:nonzero;stroke:#0055d4;stroke-width:0.1;stroke-dasharray:none;stroke-opacity:1;paint-order:fill markers stroke"
       d="m -105.05121,63.995043 c 0,0 3.00015,-0.20001 3.27517,-0.075 0.27501,0.125 1.15005,0.60003 1.25006,0.82504 0.10001,0.22501 0.35002,0.75004 0.47502,0.87504 0.125011,0.12501 -0.55002,0.25001 -0.72503,0.20001 -0.17501,-0.05 -0.90005,-0.05 -1.35007,-0.05 -0.45002,0 -1.07506,-0.05 -1.8251,-0.075 -0.75003,-0.025 -1.17506,-0.025 -1.37506,-0.025 -0.20002,0 -0.70004,0.12501 -0.60003,0 0.1,-0.12501 0.25001,-0.97505 0.45002,-1.40007 0.20001,-0.42502 0.42502,-0.27501 0.42502,-0.27501 z"
       id="path37536" /><path
       style="opacity:0.99;fill:#47a3e3;fill-opacity:1;fill-rule:nonzero;stroke:#0055d4;stroke-width:0.1;stroke-dasharray:none;stroke-opacity:1;paint-order:fill markers stroke"
       d="m -97.166568,63.712183 c 0,0 3.000153,-0.20001 3.275169,-0.075 0.275013,0.125 1.150056,0.60003 1.250063,0.82504 0.100005,0.22501 0.350018,0.75004 0.475023,0.87504 0.125007,0.12501 -0.550027,0.25001 -0.725035,0.20001 -0.175012,-0.05 -0.900047,-0.05 -1.350071,-0.05 -0.450022,0 -1.075055,-0.05 -1.825093,-0.075 -0.750039,-0.025 -1.17506,-0.025 -1.375069,-0.025 -0.200012,0 -0.700037,0.12501 -0.60003,0 0.100004,-0.12501 0.250013,-0.97505 0.450022,-1.40007 0.200009,-0.42502 0.425021,-0.27501 0.425021,-0.27501 z"
       id="path37538" /><path
       style="opacity:0.99;fill:#e3dedb;fill-opacity:1;fill-rule:nonzero;stroke:none;stroke-width:0.1;stroke-dasharray:none;stroke-opacity:1;paint-order:fill markers stroke"
       d="m -97.99161,65.462273 c -0.125005,-0.025 -0.275013,0.27501 -0.275013,0.27501 0,0 0.05,0.40002 0.200009,0.45002 0.150008,0.05 0.175008,0.05 0.875046,0.12501 0.700034,0.075 1.300064,0.10001 1.825093,0.10001 0.525026,0 1.80009,-0.075 2.050103,-0.10001 0.250012,-0.025 0.850045,-0.05 1.075055,-0.15001 0.225012,-0.1 0.40002,-0.17501 0.40002,-0.35001 0,-0.17501 -0.125005,-0.45003 -0.250012,-0.45003 -0.125005,0 -5.900301,0.10001 -5.900301,0.10001 z"
       id="path37540" /><ellipse
       style="opacity:0.99;fill:#000000;fill-opacity:1;fill-rule:nonzero;stroke:#000000;stroke-width:0.1;stroke-dasharray:none;stroke-opacity:1;paint-order:fill markers stroke"
       id="ellipse37542"
       cx="-93.767143"
       cy="40.183392"
       rx="0.77785712"
       ry="1.3966072" /><ellipse
       style="opacity:0.99;fill:#000000;fill-opacity:1;fill-rule:nonzero;stroke:#000000;stroke-width:0.0792771;stroke-dasharray:none;stroke-opacity:1;paint-order:fill markers stroke"
       id="ellipse37544"
       cx="-88.857292"
       cy="40.094173"
       rx="0.56723642"
       ry="1.203665" /><ellipse
       style="opacity:0.99;fill:#ffffff;fill-opacity:1;fill-rule:nonzero;stroke:none;stroke-width:0.1;stroke-dasharray:none;stroke-opacity:1;paint-order:fill markers stroke"
       id="ellipse37546"
       cx="-93.722946"
       cy="39.723751"
       rx="0.53919643"
       ry="0.68946427" /><ellipse
       style="opacity:0.99;fill:#ffffff;fill-opacity:1;fill-rule:nonzero;stroke:none;stroke-width:0.0775845;stroke-dasharray:none;stroke-opacity:1;paint-order:fill markers stroke"
       id="ellipse37548"
       cx="-88.870186"
       cy="39.564632"
       rx="0.40013629"
       ry="0.55924344" /><path
       style="opacity:0.99;fill:#000000;fill-opacity:1;fill-rule:nonzero;stroke:#000000;stroke-width:0.1;stroke-dasharray:none;stroke-opacity:1;paint-order:fill markers stroke"
       d="m -95.941607,36.647673 c 0.335891,-0.28286 0.848572,-0.76018 1.11375,-0.7425 0.265179,0.0177 0.636429,0.053 0.919285,0.0884 0.282858,0.0354 0.689464,0.30054 0.830894,0.38893 0.141428,0.0884 0.371251,0.53036 0.548035,0.65411 0.176786,0.12375 0.335893,0.51268 0.37125,0.54804 0.03536,0.0354 0.159107,0.22982 0.141427,0.26517 -0.01767,0.0354 -0.318214,-0.22098 -0.459642,-0.25634 -0.141427,-0.0353 -0.609909,-0.30937 -0.715981,-0.41544 -0.106071,-0.10607 -0.07071,-0.22982 -0.291698,-0.32705 -0.220982,-0.0972 -0.822052,-0.18563 -0.892767,-0.20331 -0.07071,-0.0177 -0.353571,-0.0177 -0.574553,-0.0177 -0.220983,0 -0.742501,0.0354 -0.804376,0.053 -0.06187,0.0177 -0.247499,0.053 -0.247499,0.053 z"
       id="path37550" /><path
       style="opacity:0.99;fill:#000000;fill-opacity:1;fill-rule:nonzero;stroke:#000000;stroke-width:0.1;stroke-dasharray:none;stroke-opacity:1;paint-order:fill markers stroke"
       d="m -89.488927,38.008923 c 0.03536,-0.0884 0.194463,-0.53036 0.406606,-0.65411 0.212143,-0.12375 0.583393,-0.37125 0.671785,-0.4066 0.08839,-0.0354 0.282858,0 0.441965,0.0707 0.159107,0.0707 0.318215,0.12375 0.265179,0.21214 -0.05304,0.0884 -0.159107,0.0884 -0.406609,0.14143 -0.247499,0.053 -0.494999,0.14143 -0.583393,0.26518 -0.08839,0.12375 -0.335891,0.2475 -0.441963,0.40661 -0.106071,0.1591 -0.318214,0.2475 -0.318214,0.17678 0,-0.0707 -0.03536,-0.21214 -0.03536,-0.21214 z"
       id="path37552" /><path
       style="opacity:0.99;fill:none;fill-opacity:1;fill-rule:nonzero;stroke:#000000;stroke-width:0.1;stroke-dasharray:none;stroke-opacity:1;paint-order:fill markers stroke"
       d="m -90.350461,41.306383 c -0.01249,0.075 -0.025,0.27501 -0.01249,0.36252 0.01249,0.0875 0.08751,0.21251 0.237513,0.23751 0.150009,0.025 0.262512,0.075 0.350018,0.12501 0.08751,0.05 0.337518,0.25001 0.350017,0.36252 0.01252,0.1125 -0.075,0.38752 -0.112506,0.46252 -0.0375,0.075 0.0375,0.23751 -0.112504,0.23751 -0.150008,0 -0.387522,-0.0625 -0.462526,-0.0625 -0.075,0 -0.362516,-0.0375 -0.362516,-0.0375 l 0.137507,-0.0125 0.21251,0.0625"
       id="path37554" /><path
       style="opacity:0.99;fill:none;fill-opacity:1;fill-rule:nonzero;stroke:#000000;stroke-width:0.1;stroke-dasharray:none;stroke-opacity:1;paint-order:fill markers stroke"
       d="m -91.31301,44.844063 c -0.075,0.025 -1.100055,0.15001 -1.36257,0.075 -0.262514,-0.075 -0.800039,-0.33752 -0.862544,-0.42503 -0.0625,-0.0875 -0.437523,-0.28751 -0.500025,-0.41252 -0.0625,-0.125 -0.075,-0.37502 -0.075,-0.37502 0,0 -0.237512,0.31252 -0.287515,0.33752 -0.05,0.025 -0.175009,0.025 -0.175009,0.025"
       id="path37556" /><path
       style="opacity:0.99;fill:#fde0a4;fill-opacity:0.992157;fill-rule:nonzero;stroke:none;stroke-width:0.1;stroke-dasharray:none;stroke-opacity:1;paint-order:fill markers stroke"
       d="m -103.37613,48.944273 1.9001,2.0251 c 0,0 -0.97505,0.52503 -1.02505,0.62503 -0.05,0.10001 -0.075,1.12506 -0.025,1.25007 0.05,0.12501 0.30001,1.02505 0.42502,1.25006 0.12501,0.22501 0.40002,0.92505 0.40002,0.92505 0,0 -0.05,-0.37502 0.37502,-0.22501 0.42502,0.15001 0.47502,0.075 0.52503,0.17501 0.05,0.1 0.62503,0.70003 0.62503,0.70003 l 0.275012,0.85005 c 0,0 0.250013,0.27501 0.025,0.42502 -0.225012,0.15001 -0.275012,0.35002 -0.350022,0.22501 -0.075,-0.12501 -0.2,-0.57503 -0.2,-0.57503 l 0.22501,0.87505 0.275011,0.40002 c 0,0 0.150008,0.42502 -0.250011,0.55003 -0.40002,0.125 -0.77504,-0.05 -0.77504,-0.05 0,0 -0.075,0 -0.35002,0.20001 -0.27501,0.20001 -0.50003,0.52503 -0.67503,0.35002 -0.17501,-0.17501 -0.37502,-0.25001 -0.52503,-0.27502 -0.15001,-0.025 -0.35002,0.15001 -0.52503,0.15001 -0.17501,0 -0.50002,0.15001 -0.65003,-0.20001 -0.15001,-0.35002 -0.20001,-0.47502 -0.35002,-0.82504 -0.15001,-0.35002 -0.22501,-0.32502 -0.20001,-0.70004 0.025,-0.37501 0.12501,-0.67503 0.20001,-0.87504 0.075,-0.20001 0.10001,-0.25001 0.12501,-0.50002 0.025,-0.25002 -0.52503,-0.50003 -0.62504,-0.97505 -0.1,-0.47503 -0.25001,-0.77504 -0.40001,-1.12506 -0.15001,-0.35002 -0.30002,-0.55003 -0.32502,-0.97505 -0.025,-0.42502 -0.12501,-0.67504 0.025,-1.22506 0.15001,-0.55003 0.05,-0.45003 0.45002,-1.00006 0.40002,-0.55002 0.57503,-0.72503 0.80004,-0.90004 0.22502,-0.17501 0.60003,-0.55003 0.60003,-0.55003 z"
       id="path37558" /><path
       style="opacity:0.99;fill:#fde0a4;fill-opacity:0.992157;fill-rule:nonzero;stroke:none;stroke-width:0.1;stroke-dasharray:none;stroke-opacity:1;paint-order:fill markers stroke"
       d="m -95.875741,54.294543 c 0,0.10001 -0.175012,0.15001 -0.300017,0.52503 -0.125008,0.37502 -0.100004,0.55003 -0.125008,0.72504 -0.025,0.17501 -0.350017,0.72504 -0.350017,0.72504 0,0 -0.700035,0.37501 -0.275014,0.67503 0.425024,0.30001 0.625031,0.50002 0.750039,0.50002 0.125005,0 0.350017,-0.1 0.525026,-0.32501 0.175009,-0.22501 0.375021,-0.40002 0.525029,-0.72504 0.150005,-0.32502 0.375017,-0.92505 0.375017,-0.92505 0,0 -0.05,0.45003 0.175009,0.62504 0.225012,0.17501 0,0.27501 0.450025,0.15 0.450021,-0.125 0.800039,-0.67503 0.825042,-0.80004 0.025,-0.125 0.225009,-0.47502 0.225009,-0.72503 0,-0.25002 -0.150005,-0.50003 -0.375017,-0.62504 -0.225013,-0.125 -0.750038,-0.1 -1.000051,-0.075 -0.250013,0.025 -1.225063,0.10001 -1.225063,0.10001 z"
       id="path37560"
       sodipodi:nodetypes="csscsssscsssssscc" /><path
       style="opacity:0.99;fill:#fde0a4;fill-opacity:0.992157;fill-rule:nonzero;stroke:none;stroke-width:0.1;stroke-dasharray:none;stroke-opacity:1;paint-order:fill markers stroke"
       d="m -95.725736,57.219693 c 0,0 -0.150005,0.42502 -0.150005,0.57503 0,0.15001 0.375017,0.42502 0.62503,0.52503 0.250013,0.10001 0.825042,0.20001 1.100055,0.025 0.275016,-0.17501 0.475025,-0.55003 0.55003,-0.67503 0.075,-0.12501 0.100004,-0.17501 0.225012,-0.17501 0.125005,0 0.425021,-0.27502 0.425021,-0.42503 0,-0.15 0,-0.27501 0,-0.40002 0,-0.125 0.300014,-0.35001 0.300014,-0.35001 0,0 0.150008,-0.22501 0.150008,-0.50003 0,-0.27501 0.250013,-0.45002 -0.075,-0.50002 -0.325017,-0.05 -0.625031,-0.30002 -0.625031,-0.30002 0,0 -1.800092,-0.075 -1.975101,0.10001 -0.175009,0.175 -0.550029,2.1001 -0.550029,2.1001 z"
       id="path37562" /><g
       id="g5642"
       transform="matrix(0.7799962,-0.25061339,0.25061339,0.7799962,-0.58500808,2.8540024)"><g
         id="g14148"><path
           style="opacity:0.99;fill:#550000;fill-opacity:0.992157;fill-rule:nonzero;stroke:#2b1100;stroke-width:0.0199435;stroke-dasharray:none;stroke-opacity:1;paint-order:fill markers stroke"
           d="m 7.7096886,8.0230299 c 0,0 -0.5894613,0.1424741 -0.5272694,0.5705024 0.062195,0.428028 0.1029554,0.4778843 0.1568286,0.5080281 0.053873,0.030144 0.8223668,0.2853669 1.0348057,0.017244 C 8.4648944,9.0041525 8.5079854,8.9190873 8.5258023,8.8545486 8.5496518,8.7681574 8.5282141,8.7185464 8.5153979,8.6839844 8.4930072,8.6236024 8.4509053,8.5501105 8.4509053,8.5501105 l 0.1113885,-0.210232 0.051101,-0.1024846 0.1981791,-0.101333 c 0,0 -0.5723333,0.1936692 -0.8955753,0.012807 C 7.5927559,7.9680057 7.7096898,8.0230303 7.7096898,8.0230303 Z"
           id="path2322"
           sodipodi:nodetypes="ccssssccccscc" /><path
           style="opacity:0.99;fill:#ffffff;fill-opacity:0.992157;fill-rule:nonzero;stroke:none;stroke-width:0.0199435;stroke-dasharray:none;stroke-opacity:1;paint-order:fill markers stroke"
           d="m 7.6924971,8.0289731 -0.1943335,0.086288 c 0,0 0.176589,0.3792404 0.5363891,0.3683376 L 8.3943523,8.472696 8.5067704,8.4381045 C 8.5951393,8.1971332 8.6388355,8.2078531 8.7041133,8.1772591 8.1793594,8.3050229 7.9643359,8.2202461 7.6924971,8.0289731 Z"
           id="path3106"
           sodipodi:nodetypes="ccscccc" /><path
           style="opacity:0.99;fill:#ff2a2a;fill-opacity:0.992157;fill-rule:nonzero;stroke:#2b1100;stroke-width:0.0199435;stroke-dasharray:none;stroke-opacity:1;paint-order:fill markers stroke"
           d="m 7.2242396,8.4109538 c 0,0 0.5804629,0.033502 0.7949009,0.3865117 0.2144383,0.353009 0.1776921,0.3740607 0.1776921,0.3740607 l 0.040764,0.049855 -0.2271712,0.00813 c -0.2456567,0.013533 -0.471448,-0.089484 -0.7053383,-0.144985 0,0 -0.1895576,-0.4160691 -0.080847,-0.6735735 z"
           id="path3108"
           sodipodi:nodetypes="csccccsc" /></g></g><path
       style="opacity:0.99;fill:none;fill-opacity:1;fill-rule:nonzero;stroke:#000000;stroke-width:0.0354046;stroke-dasharray:none;stroke-opacity:1;paint-order:fill markers stroke"
       d="m 8.0817066,6.0972627 c 0.00593,0.026259 0.028553,0.093505 0.044352,0.120523 0.015783,0.027019 0.057089,0.057978 0.1096094,0.046129 0.052522,-0.011851 0.096089,-0.010488 0.1314613,-0.00579 0.035373,0.0047 0.1440674,0.036864 0.1632005,0.072081 0.019136,0.035212 0.027201,0.1370726 0.024919,0.1666756 -0.00227,0.0296 0.044034,0.072858 -0.00515,0.092904 -0.049181,0.020047 -0.1354039,0.031295 -0.1599954,0.041314 -0.02459,0.010018 -0.1238649,0.036149 -0.1238649,0.036149 l 0.043411,-0.022477 0.078025,-0.00791"
       id="path20256" /><path
       style="opacity:0.99;fill:#fde0a3;fill-opacity:0.992157;fill-rule:nonzero;stroke:#ffb380;stroke-width:0.0354046;stroke-dasharray:none;stroke-opacity:1;paint-order:fill markers stroke"
       d="M 5.5943601,10.717637 5.3669555,10.1106 c 0.071328,-0.3338316 1.229608,-0.6049905 1.2121472,-0.5883743 -0.055163,0.052494 -1.0455232,0.038004 -1.0991322,-0.00649 -0.046691,-0.00964 -0.4312464,-0.00704 -0.522089,-0.014244 -0.090849,-0.00725 -0.3745536,0.024423 -0.3745536,0.024423 0,0 0.120393,0.058719 -0.00709,0.1546744 -0.1274627,0.096012 -0.1151601,0.1254173 -0.1544485,0.1205778 -0.03932,-0.00467 -0.3288831,0.047235 -0.3288831,0.047235 L 3.7883268,9.7630273 c 0,0 -0.1300696,0.019862 -0.13025,-0.075872 -1.67e-4,-0.095742 -0.049372,-0.1496577 0.0022,-0.1473028 0.051566,0.00225 0.2087731,0.05363 0.2087731,0.05363 L 3.566898,9.4884587 l -0.17185,0.00278 c 0,0 -0.1547332,-0.039012 -0.1132624,-0.181468 0.041467,-0.142471 0.1665433,-0.2187912 0.1665433,-0.2187912 0,0 0.014818,-0.022091 0.00958,-0.1424061 -0.00513,-0.1202854 -0.056917,-0.2503114 0.028972,-0.2676438 0.085898,-0.017337 0.1471857,-0.061653 0.1839489,-0.100985 0.036741,-0.03937 0.024312,-0.1326184 0.058578,-0.1842378 0.034275,-0.051616 0.053675,-0.1768657 0.1863055,-0.1525409 0.1326138,0.024317 0.179295,0.033937 0.3119063,0.058241 0.1326174,0.024317 0.1399318,-0.00272 0.2456385,0.078132 0.1057146,0.080818 0.1746117,0.1690768 0.2189083,0.2303746 0.044288,0.061294 0.05415,0.078458 0.1229932,0.1347963 0.4822001,-0.018108 1.007723,0.014049 1.7191425,0.2014508 C 6.782465,9.0626095 6.9490245,8.9162297 7.221395,9.4250345 7.181244,10.054261 6.1479377,10.849458 5.5613344,10.73831 Z"
       id="path20224"
       sodipodi:nodetypes="ccscccccccccccccccscccccsccccc" /><path
       style="opacity:0.99;fill:#ff0000;fill-opacity:0.992157;fill-rule:nonzero;stroke:#800000;stroke-width:0.0235479;stroke-dasharray:none;stroke-opacity:1;paint-order:fill markers stroke"
       d="m 4.3531542,10.321889 c 0.1215921,0.4874 0.5219426,0.458017 0.6541649,0.460506 0,0 0.7556132,0.04533 0.8070209,0.03225 C 5.768389,10.451482 5.8825783,10.122777 5.8889483,9.7113084 5.5486319,9.5918068 5.1335315,9.7692228 4.7646939,9.8699161 4.6187602,9.8340911 4.4057154,10.038345 4.4057154,10.038345"
       id="path3136"
       sodipodi:nodetypes="cccccc" /><path
       style="opacity:0.99;fill:#000000;fill-opacity:1;fill-rule:nonzero;stroke:#000000;stroke-width:0.0354046;stroke-dasharray:none;stroke-opacity:1;paint-order:fill markers stroke"
       d="m 5.5949208,5.2414459 c 0.5379422,-0.6378767 1.580522,0.1937761 1.537459,0.091887 0.083545,0.5754253 -0.8886449,-0.1953829 -1.4707832,-0.086447 -0.021078,0.00864 -0.085128,0.027991 -0.085128,0.027991 z"
       id="path20252-6"
       sodipodi:nodetypes="ccccc" /><path
       style="opacity:0.99;fill:#000000;fill-opacity:1;fill-rule:nonzero;stroke:#000000;stroke-width:0.0354046;stroke-dasharray:none;stroke-opacity:1;paint-order:fill markers stroke"
       d="M 7.7340952,5.1481146 C 7.6473242,4.8805633 7.9752108,4.5189963 8.1722057,4.3743861 8.2318341,4.3587579 8.2875577,4.3382432 8.2924363,4.3744106 8.1375802,4.5486659 8.0537701,5.0362874 7.9954505,5.2236778 7.9796698,5.2034677 7.7529059,5.1649855 7.7340952,5.1481146 Z"
       id="path20254-5"
       sodipodi:nodetypes="ccccc" /><g
       id="g15668"
       transform="rotate(-0.31963695,8.7907539,5.5329978)"><path
         style="opacity:0.99;fill:#000000;fill-opacity:0.992157;fill-rule:nonzero;stroke:none;stroke-width:0.0152703;stroke-dasharray:none;stroke-opacity:1;paint-order:fill markers stroke"
         d="m 6.0468578,6.0830891 c 0,0 0.2559863,-0.1715442 0.5078802,-0.0391 0.2518945,0.1324446 0.2624206,0.1935469 0.2624206,0.1935469 0.059204,0.063809 0.2579108,0.045233 0.1903167,0.00915 0,0 -0.1016538,-0.1405825 -0.1564236,-0.2150344 C 6.7962861,5.9572052 6.7384422,5.8461792 6.6381256,5.8069992 6.5378087,5.7678188 6.43771,5.7205347 6.2896751,5.7976609 6.1416403,5.8747868 6.0317345,6.0421373 6.0317345,6.0421373 Z"
         id="path3110-3"
         sodipodi:nodetypes="csccssscc" /><path
         style="opacity:0.99;fill:#000000;fill-opacity:0.992157;fill-rule:nonzero;stroke:none;stroke-width:0.0152703;stroke-dasharray:none;stroke-opacity:1;paint-order:fill markers stroke"
         d="M 8.2315561,5.8725043 C 8.261951,5.6821735 8.3229078,4.966309 8.7047029,5.3020631 l -0.012373,0.060754 C 8.4486154,5.1806671 8.3588388,6.0994541 8.2315602,5.872502 Z"
         id="path3112-5"
         sodipodi:nodetypes="ccccc" /></g></g></svg>
