<?xml version="1.0" encoding="UTF-8" standalone="no"?>
<!-- Created with Inkscape (http://www.inkscape.org/) -->

<svg
   width="30"
   height="30"
   viewBox="0 0 7.9374998 7.9375"
   version="1.1"
   id="svg4681"
   xml:space="preserve"
   inkscape:version="1.2.1 (9c6d41e4, 2022-07-14)"
   sodipodi:docname="bow.svg"
   xmlns:inkscape="http://www.inkscape.org/namespaces/inkscape"
   xmlns:sodipodi="http://sodipodi.sourceforge.net/DTD/sodipodi-0.dtd"
   xmlns="http://www.w3.org/2000/svg"
   xmlns:svg="http://www.w3.org/2000/svg"><sodipodi:namedview
     id="namedview4683"
     pagecolor="#ffffff"
     bordercolor="#666666"
     borderopacity="1.0"
     inkscape:showpageshadow="2"
     inkscape:pageopacity="0.0"
     inkscape:pagecheckerboard="0"
     inkscape:deskcolor="#d1d1d1"
     inkscape:document-units="mm"
     showgrid="false"
     inkscape:zoom="7.3266525"
     inkscape:cx="26.956376"
     inkscape:cy="26.888132"
     inkscape:window-width="1792"
     inkscape:window-height="1022"
     inkscape:window-x="0"
     inkscape:window-y="25"
     inkscape:window-maximized="1"
     inkscape:current-layer="g15468" /><defs
     id="defs4678">
	
	
	
	
	
	
</defs><g
     inkscape:label="Layer 1"
     inkscape:groupmode="layer"
     id="layer1"><g
       id="g15468"
       transform="matrix(-0.15615006,0,0,-0.15615006,6.6599249,6.6362571)"><path
         fill="#c1694f"
         d="m 6.4334471,11.802488 c -0.3275328,8.994038 1.1168848,10.547633 3.5242474,13.136958 2.4073625,2.589326 3.8517805,4.142921 12.8458185,4.470454 11.173593,0.406905 13.917941,2.50817 13.954333,1.508833 0.03639,-0.999338 -1.889497,-3.070798 -3.888172,-3.143583 -1.998676,-0.07278 -13.064174,1.525572 -19.804789,-5.724539 l -3.7e-5,0.001 C 6.3252324,14.801536 8.7232261,3.8815716 8.7960112,1.8828964 8.8687962,-0.11577873 6.9429061,-2.1872389 5.9435686,-2.2236315 4.944231,-2.260024 6.840352,0.62889434 6.4334471,11.802488 Z"
         id="path15429" /><path
         fill="#99aab5"
         d="M -3.916164,37.694066 4.6998365,35.21298 1.2149689,32.947657 -0.74754363,29.353855 Z"
         id="path15433" /><path
         fill="#dd2e44"
         d="m 20.3452,16.111995 c 1.90899,-0.294722 3.561639,0.129703 3.686985,0.946806 0.126274,0.819138 -1.319582,1.723119 -3.229536,2.016805 -1.909989,0.294686 -3.561675,-0.128703 -3.688984,-0.946878 -0.127272,-0.819175 1.320546,-1.722083 3.231535,-2.016733 z"
         id="path15435" /><path
         fill="#f4900c"
         d="m 21.433994,15.670327 c 1.911026,-0.295649 3.562639,0.129739 3.688985,0.946879 0.126309,0.818138 -1.321545,1.722046 -3.2295,2.015805 -1.912024,0.295613 -3.563674,-0.128776 -3.689021,-0.945879 -0.127272,-0.819175 1.318584,-1.723155 3.229536,-2.016805 z"
         id="path15437" /><path
         fill="#a0041e"
         d="m 22.87266,14.331797 c 1.910989,-0.29465 3.561639,0.129703 3.688984,0.946879 0.12631,0.818138 -1.319582,1.723118 -3.229536,2.016805 -1.909989,0.294685 -3.561639,-0.129703 -3.688984,-0.946879 -0.127273,-0.819175 1.318583,-1.723155 3.229536,-2.016805 z"
         id="path15439" /><path
         fill="#dd2e44"
         d="m 24.337182,12.970193 c 1.910026,-0.295686 3.563638,0.129775 3.688985,0.946878 0.126273,0.819138 -1.319583,1.723119 -3.229536,2.016805 -1.910989,0.29465 -3.561639,-0.129703 -3.688985,-0.946878 -0.127272,-0.819175 1.320582,-1.723083 3.229536,-2.016805 z m -5.249589,1.789139 c 0.432796,-1.882497 0.129703,-3.561639 -0.676118,-3.746087 -0.807783,-0.18552 -1.814536,1.190753 -2.246369,3.074285 -0.432832,1.883496 -0.130702,3.561603 0.676046,3.748086 0.807747,0.186519 1.813573,-1.191789 2.246441,-3.076284 z"
         id="path15441" /><path
         fill="#f4900c"
         d="m 19.607288,13.705547 c 0.433867,-1.884459 0.129739,-3.562639 -0.676046,-3.7480861 -0.806784,-0.1854837 -1.81361,1.1927881 -2.24537,3.0743221 -0.433904,1.885458 -0.130775,3.563601 0.675047,3.748049 0.807747,0.18652 1.8145,-1.189754 2.246369,-3.074285 z"
         id="path15443" /><path
         fill="#a0041e"
         d="m 21.046916,12.368053 c 0.432868,-1.884496 0.129703,-3.5616396 -0.676045,-3.7480863 -0.806785,-0.1854838 -1.814537,1.1907532 -2.246369,3.0742853 -0.432832,1.883496 -0.129703,3.561639 0.676045,3.748086 0.807747,0.186519 1.8145,-1.189754 2.246369,-3.074285 z"
         id="path15445" /><path
         fill="#dd2e44"
         d="M 22.511438,11.006448 C 22.94527,9.1229888 22.641214,7.4428104 21.835393,7.2583624 21.027609,7.0728422 20.020856,8.4491156 19.589024,10.332648 c -0.432868,1.884495 -0.129703,3.561639 0.676045,3.748086 0.807748,0.186519 1.814573,-1.191753 2.246369,-3.074286 z"
         id="path15447" /><path
         fill="#ccd6dd"
         d="m 22.378184,11.843748 a 0.81977046,0.82520196 2.085599 0 1 1.115343,1.20762 L 1.945787,33.217102 A 0.81893395,0.82435992 2.085599 0 1 0.8312486,32.010355 Z"
         id="path15449"
         style="stroke-width:0.839267" /><rect
         style="fill:#d99e82;fill-opacity:1;stroke:none;stroke-width:2.83045;stroke-linejoin:round"
         id="rect15524"
         width="42.876873"
         height="0.53865856"
         x="3.2861512"
         y="-6.4370289"
         transform="matrix(0.68150337,0.73181498,-0.77730765,0.62912066,0,0)" /></g></g></svg>
