<?xml version="1.0" encoding="UTF-8" standalone="no"?>
<!-- Created with Inkscape (http://www.inkscape.org/) -->

<svg
   width="30"
   height="30"
   viewBox="0 0 7.9374998 7.9375"
   version="1.1"
   id="svg4681"
   xml:space="preserve"
   inkscape:version="1.2.1 (9c6d41e4, 2022-07-14)"
   sodipodi:docname="bow.svg"
   xmlns:inkscape="http://www.inkscape.org/namespaces/inkscape"
   xmlns:sodipodi="http://sodipodi.sourceforge.net/DTD/sodipodi-0.dtd"
   xmlns="http://www.w3.org/2000/svg"
   xmlns:svg="http://www.w3.org/2000/svg"><sodipodi:namedview
     id="namedview4683"
     pagecolor="#ffffff"
     bordercolor="#666666"
     borderopacity="1.0"
     inkscape:showpageshadow="2"
     inkscape:pageopacity="0.0"
     inkscape:pagecheckerboard="0"
     inkscape:deskcolor="#d1d1d1"
     inkscape:document-units="mm"
     showgrid="false"
     inkscape:zoom="7.3266525"
     inkscape:cx="26.819888"
     inkscape:cy="26.888132"
     inkscape:window-width="1792"
     inkscape:window-height="1022"
     inkscape:window-x="0"
     inkscape:window-y="25"
     inkscape:window-maximized="1"
     inkscape:current-layer="g15468" /><defs
     id="defs4678">
	
	
	
	
	
	
</defs><g
     inkscape:label="Layer 1"
     inkscape:groupmode="layer"
     id="layer1"><g
       id="g15468"
       transform="matrix(-0.15615006,0,0,-0.15615006,6.6599249,6.6362571)"><path
         fill="#c1694f"
         d="m 23.129141,7.517746 c -9,0 -10.5,1.5 -13,4 -2.5000004,2.5 -4.0000004,4 -4.0000004,13 0,11.181 -2,14 -1,14 1,0 3,-2 3,-4 0,-2 -2,-13 5.0000004,-20 h -0.001 c 7,-6.999 18,-5 20,-5 2,0 4,-2 4,-3 0,-1 -2.818,1 -13.999,1 z"
         id="path15429" /><path
         fill="#99aab5"
         d="m -3.1219344,-1.8827491 2.79299995,8.52 2.13700005,-3.565 3.52,-2.09200003 z"
         id="path15433" /><path
         fill="#dd2e44"
         d="m 19.328772,21.577117 c 0.364,1.897 0,3.564 -0.812,3.719 -0.814,0.156 -1.77,-1.256 -2.133,-3.154 -0.364,-1.898 -0.001,-3.564 0.812,-3.721 0.814,-0.157 1.769,1.257 2.133,3.156 z"
         id="path15435" /><path
         fill="#f4900c"
         d="m 19.809772,22.649117 c 0.365,1.899 0,3.565 -0.812,3.721 -0.813,0.156 -1.769,-1.258 -2.132,-3.154 -0.365,-1.9 -0.001,-3.566 0.811,-3.721 0.814,-0.157 1.77,1.255 2.133,3.154 z"
         id="path15437" /><path
         fill="#a0041e"
         d="m 21.199772,24.038117 c 0.364,1.899 0,3.564 -0.812,3.721 -0.813,0.156 -1.77,-1.256 -2.133,-3.154 -0.364,-1.898 0,-3.564 0.812,-3.721 0.814,-0.157 1.77,1.255 2.133,3.154 z"
         id="path15439" /><path
         fill="#dd2e44"
         d="m 22.613772,25.452117 c 0.365,1.898 0,3.566 -0.812,3.721 -0.814,0.156 -1.77,-1.256 -2.133,-3.154 -0.364,-1.899 0,-3.564 0.812,-3.721 0.814,-0.157 1.77,1.257 2.133,3.154 z m -1.979,-5.181 c 1.897,0.364 3.564,0 3.719,-0.812 0.156,-0.814 -1.256,-1.77 -3.154,-2.133 -1.898,-0.364 -3.564,-0.001 -3.721,0.812 -0.157,0.814 1.257,1.769 3.156,2.133 z"
         id="path15441" /><path
         fill="#f4900c"
         d="m 21.706772,20.752117 c 1.899,0.365 3.565,0 3.721,-0.812 0.156,-0.813 -1.258,-1.769 -3.154,-2.132 -1.9,-0.365 -3.566,-10e-4 -3.721,0.811 -0.157,0.814 1.255,1.77 3.154,2.133 z"
         id="path15443" /><path
         fill="#a0041e"
         d="m 23.095772,22.142117 c 1.899,0.364 3.564,0 3.721,-0.812 0.156,-0.813 -1.256,-1.77 -3.154,-2.133 -1.898,-0.364 -3.564,0 -3.721,0.812 -0.157,0.814 1.255,1.77 3.154,2.133 z"
         id="path15445" /><path
         fill="#dd2e44"
         d="m 24.509772,23.556117 c 1.898,0.365 3.566,0 3.721,-0.812 0.156,-0.814 -1.256,-1.77 -3.154,-2.133 -1.899,-0.364 -3.564,0 -3.721,0.812 -0.157,0.814 1.257,1.77 3.154,2.133 z"
         id="path15447" /><path
         fill="#ccd6dd"
         d="m 23.668177,23.453422 a 0.82520196,0.81977046 0 0 1 -1.166229,1.158553 L 1.5653949,3.8123907 A 0.82435992,0.81893395 0 0 1 2.7307821,2.654674 Z"
         id="path15449"
         style="stroke-width:0.839267" /><rect
         style="fill:#d99e82;fill-opacity:1;stroke:none;stroke-width:2.83045;stroke-linejoin:round"
         id="rect15524"
         width="42.876873"
         height="0.53865856"
         x="-22.495378"
         y="-31.51236"
         transform="matrix(-0.70652857,0.70768452,-0.65699211,-0.75389745,0,0)" /></g></g></svg>
