<?xml version="1.0" encoding="UTF-8" standalone="no"?>
<!-- Created with Inkscape (http://www.inkscape.org/) -->

<svg
   width="30"
   height="30"
   viewBox="0 0 7.9374998 7.9375"
   version="1.1"
   id="svg4681"
   xml:space="preserve"
   inkscape:version="1.2.1 (9c6d41e4, 2022-07-14)"
   sodipodi:docname="katana.svg"
   xmlns:inkscape="http://www.inkscape.org/namespaces/inkscape"
   xmlns:sodipodi="http://sodipodi.sourceforge.net/DTD/sodipodi-0.dtd"
   xmlns="http://www.w3.org/2000/svg"
   xmlns:svg="http://www.w3.org/2000/svg"><sodipodi:namedview
     id="namedview4683"
     pagecolor="#ffffff"
     bordercolor="#666666"
     borderopacity="1.0"
     inkscape:showpageshadow="2"
     inkscape:pageopacity="0.0"
     inkscape:pagecheckerboard="0"
     inkscape:deskcolor="#d1d1d1"
     inkscape:document-units="mm"
     showgrid="false"
     inkscape:zoom="15.675426"
     inkscape:cx="26.506457"
     inkscape:cy="19.138236"
     inkscape:window-width="1792"
     inkscape:window-height="1022"
     inkscape:window-x="0"
     inkscape:window-y="25"
     inkscape:window-maximized="1"
     inkscape:current-layer="layer1" /><defs
     id="defs4678">
	
	
	
	
	
	
</defs><g
     inkscape:label="Layer 1"
     inkscape:groupmode="layer"
     id="layer1"><g
       id="g7922"
       transform="matrix(0.41341227,0,0,0.41341227,163.48751,-121.93731)"><g
         id="g10243"
         transform="matrix(0.02713206,0,0,0.02713206,-392.57465,297.32287)"><path
           style="fill:#d6d6d6"
           d="m 497.448,0 -2.34,26.592 -0.312,3.546 -0.334,3.826 c -0.15,1.649 -0.345,3.287 -0.592,4.926 -2.576,17.408 -10.692,33.598 -23.207,46.102 L 170.576,385.078 141.472,355.974 Z"
           id="path7876" /><polygon
           style="fill:#b3b3b3"
           points="155.216,369.718 141.474,355.976 497.448,0 495.11,26.592 494.796,30.138 "
           id="polygon7878" /><path
           style="fill:#f75534"
           d="m 161.867,393.789 -5.217,5.217 -106.971,106.969 c -5.712,5.712 -13.948,7.351 -21.127,4.926 -1.089,-0.367 -2.156,-0.83 -3.19,-1.379 -0.345,-0.183 -0.69,-0.377 -1.024,-0.582 -0.334,-0.205 -0.657,-0.42 -0.992,-0.647 -0.302,-0.216 -0.614,-0.442 -0.916,-0.679 l -0.075,-0.054 c -0.205,-0.172 -0.42,-0.345 -0.625,-0.528 l -1.154,-1.056 c -8.03,-8.042 -8.03,-21.072 0,-29.104 l 9.475,-9.474 11.631,-11.631 18.422,-18.422 11.619,-11.619 18.422,-18.422 11.631,-11.631 25.772,-25.772 5.217,-5.217 z"
           id="path7880" /><path
           style="fill:#bd391e"
           d="m 146.507,378.429 -5.217,5.217 -22.076,22.076 -11.836,11.836 -18.217,18.217 -11.836,11.836 -18.205,18.205 -11.835,11.834 -13.409,13.409 c -5.379,5.379 -7.146,12.989 -5.325,19.844 -1.089,-0.367 -2.156,-0.83 -3.19,-1.379 -0.345,-0.183 -0.69,-0.377 -1.024,-0.582 -0.334,-0.205 -0.657,-0.42 -0.992,-0.647 -0.302,-0.216 -0.614,-0.442 -0.916,-0.679 l -0.075,-0.054 c -0.205,-0.172 -0.42,-0.345 -0.625,-0.528 l -1.154,-1.056 c -8.03,-8.042 -8.03,-21.072 0,-29.104 l 9.475,-9.474 11.631,-11.631 18.422,-18.422 11.619,-11.619 18.422,-18.422 11.631,-11.631 25.772,-25.772 5.217,-5.217 z"
           id="path7882" /><path
           style="fill:#362928"
           d="m 101.648,343.998 80.905,80.905 c 1.683,1.683 4.414,1.683 6.097,0 l 13.672,-13.672 c 1.683,-1.683 1.683,-4.414 0,-6.098 l -80.905,-80.905 c -1.683,-1.683 -4.414,-1.683 -6.098,0 L 101.647,337.9 c -1.682,1.685 -1.682,4.414 10e-4,6.098 z"
           id="path7884" /><path
           style="fill:#752313"
           d="m 138.498,417.157 -11.631,11.631 -19.488,-11.232 -15.554,-8.957 c -0.625,-0.367 -1.186,-0.797 -1.681,-1.294 l 11.631,-11.631 17.44,10.046 17.602,10.154 c 0.636,0.366 1.196,0.798 1.681,1.283 z"
           id="path7892" /><path
           style="fill:#752313"
           d="M 108.446,447.209 96.816,458.84 77.328,447.608 61.774,438.64 c -0.625,-0.367 -1.186,-0.797 -1.671,-1.294 l 11.619,-11.619 17.44,10.046 17.613,10.143 c 0.626,0.366 1.187,0.797 1.671,1.293 z"
           id="path7894" /><path
           style="fill:#752313"
           d="M 78.406,477.25 66.775,488.881 47.287,477.649 31.733,468.692 c -0.625,-0.367 -1.186,-0.797 -1.681,-1.294 l 11.631,-11.631 17.44,10.046 17.602,10.154 c 0.624,0.356 1.184,0.798 1.681,1.283 z"
           id="path7896" /></g></g></g></svg>
