<?xml version="1.0" encoding="UTF-8" standalone="no"?>
<!-- Created with Inkscape (http://www.inkscape.org/) -->

<svg
   width="30"
   height="30"
   viewBox="0 0 7.9374998 7.9375"
   version="1.1"
   id="svg4681"
   xml:space="preserve"
   inkscape:version="1.2.1 (9c6d41e4, 2022-07-14)"
   sodipodi:docname="stick.svg"
   xmlns:inkscape="http://www.inkscape.org/namespaces/inkscape"
   xmlns:sodipodi="http://sodipodi.sourceforge.net/DTD/sodipodi-0.dtd"
   xmlns="http://www.w3.org/2000/svg"
   xmlns:svg="http://www.w3.org/2000/svg"><sodipodi:namedview
     id="namedview4683"
     pagecolor="#ffffff"
     bordercolor="#666666"
     borderopacity="1.0"
     inkscape:showpageshadow="2"
     inkscape:pageopacity="0.0"
     inkscape:pagecheckerboard="0"
     inkscape:deskcolor="#d1d1d1"
     inkscape:document-units="mm"
     showgrid="false"
     inkscape:zoom="16.474184"
     inkscape:cx="4.8864332"
     inkscape:cy="4.6739795"
     inkscape:window-width="1792"
     inkscape:window-height="1022"
     inkscape:window-x="0"
     inkscape:window-y="25"
     inkscape:window-maximized="1"
     inkscape:current-layer="g18040" /><defs
     id="defs4678">
	
	
	
	
	
	
</defs><g
     inkscape:label="Layer 1"
     inkscape:groupmode="layer"
     id="layer1"><g
       id="g15468"
       transform="matrix(-0.15615006,0,0,-0.15615006,6.6599249,6.6362571)"><g
         id="g18040"
         transform="matrix(-0.04445405,-0.04374466,0.04374466,-0.04445405,17.117709,69.038852)"><path
           d="m 628.39879,305.49849 0.77341,0.77341 c 31.70997,-26.29607 71.15408,-58.77945 73.47433,-103.63746 -9.28097,34.03021 -35.57704,53.36556 -64.19336,70.38067 10.8278,-37.12387 19.33535,-74.24774 17.78852,-112.14502 -3.09365,68.06042 -53.36556,140.76133 -84.68882,230.86405 -31.32326,90.10272 -35.96375,207.66163 -45.49849,246.70044 -9.53474,39.03881 -25.26888,61.505 -28.36254,59.18475 -37.12386,-27.06948 -86.62235,-46.40483 -95.90332,-95.1299 -0.77341,51.04531 48.72508,83.5287 78.88822,115.23867 13.14803,11.6012 24.74924,24.74924 34.03021,37.12386 0.77341,6.18731 1.54683,13.14804 2.32024,19.33535 10.8278,78.1148 19.57167,140.44315 16.47801,207.73016 l 63.95704,-3.54889 c 1.54682,-48.72508 -4.64049,-106.73112 -16.2417,-166.28399 -3.86707,-55.6858 -11.6012,-170.15106 -10.05438,-259.86707 37.12387,-30.16314 78.88822,-64.96676 87.39577,-114.46525 -14.69486,40.21752 -50.2719,63.41994 -85.84894,83.5287 0.77341,-7.73414 0.77341,-15.46828 1.54683,-22.42901 5.4139,-67.28701 32.48338,-130.70695 54.13897,-193.35347 z"
           fill="#65320b"
           id="path18030"
           sodipodi:nodetypes="cccccccccccccccccccc" /></g></g></g></svg>
