<?xml version="1.0" encoding="UTF-8" standalone="no"?>
<!-- Created with Inkscape (http://www.inkscape.org/) -->

<svg
   width="30"
   height="30"
   viewBox="0 0 7.9374998 7.9375"
   version="1.1"
   id="svg4681"
   xml:space="preserve"
   inkscape:version="1.2.1 (9c6d41e4, 2022-07-14)"
   sodipodi:docname="sword.svg"
   xmlns:inkscape="http://www.inkscape.org/namespaces/inkscape"
   xmlns:sodipodi="http://sodipodi.sourceforge.net/DTD/sodipodi-0.dtd"
   xmlns="http://www.w3.org/2000/svg"
   xmlns:svg="http://www.w3.org/2000/svg"><sodipodi:namedview
     id="namedview4683"
     pagecolor="#ffffff"
     bordercolor="#666666"
     borderopacity="1.0"
     inkscape:showpageshadow="2"
     inkscape:pageopacity="0.0"
     inkscape:pagecheckerboard="0"
     inkscape:deskcolor="#d1d1d1"
     inkscape:document-units="mm"
     showgrid="false"
     inkscape:zoom="10.340408"
     inkscape:cx="16.198586"
     inkscape:cy="15.376569"
     inkscape:window-width="1792"
     inkscape:window-height="1022"
     inkscape:window-x="0"
     inkscape:window-y="25"
     inkscape:window-maximized="1"
     inkscape:current-layer="layer1" /><defs
     id="defs4678">
	
	
	
	
	
	
</defs><g
     inkscape:label="Layer 1"
     inkscape:groupmode="layer"
     id="layer1"><g
       id="g12854"
       transform="matrix(0.01244953,0,0,0.01244953,0.77816158,0.93981774)"><path
         style="fill:#ed5564"
         d="m 181.552,371.275 c 0,-2.828 -1.125,-5.546 -3.125,-7.546 l -30.171,-30.172 c -4.164,-4.171 -10.922,-4.171 -15.086,0 l -95.959,95.968 c -4.164,4.156 -4.164,10.906 0,15.078 l 30.171,30.171 c 4.164,4.155 10.921,4.155 15.085,0 l 95.959,-95.968 c 2.001,-1.999 3.126,-4.703 3.126,-7.531 z"
         id="path12816" /><path
         style="fill:#ccd1d9"
         d="m 490.804,96.617 c 1.406,-1.414 2.391,-3.203 2.844,-5.148 l 18.078,-78.405 c 0.812,-3.586 -0.266,-7.336 -2.859,-9.938 -2.593,-2.602 -6.359,-3.68 -9.938,-2.852 l -78.404,18.062 c -1.953,0.453 -3.734,1.438 -5.141,2.852 L 140.717,295.84 c -4.164,4.172 -4.164,10.922 0,15.094 l 60.335,60.342 c 2,2 4.719,3.125 7.546,3.125 2.828,0 5.539,-1.125 7.539,-3.125 z"
         id="path12818" /><path
         style="opacity:0.2;fill:#ffffff;enable-background:new"
         d="m 508.866,3.126 c -2.594,-2.602 -6.359,-3.68 -9.938,-2.852 l -78.404,18.062 c -1.953,0.453 -3.734,1.438 -5.141,2.852 L 140.717,295.84 c -4.164,4.172 -4.164,10.922 0,15.094 l 60.335,60.342 c 2,2 4.719,3.125 7.546,3.125 2.828,0 5.539,-1.125 7.539,-3.125 L 490.804,96.617 c 1.406,-1.414 2.391,-3.203 2.844,-5.148 l 18.078,-78.405 c 0.812,-3.587 -0.266,-7.337 -2.86,-9.938 z M 501.319,10.665 483.257,89.07 208.598,363.729 148.256,303.386 422.915,28.735 Z"
         id="path12820" /><path
         style="fill:#aab2bc"
         d="m 170.88,341.104 c -4.164,-4.172 -4.164,-10.921 0,-15.093 L 364.118,132.787 c 4.172,-4.164 10.922,-4.164 15.078,0 4.172,4.164 4.172,10.922 0,15.086 l -193.23,193.23 c -4.164,4.158 -10.914,4.158 -15.086,10e-4 z"
         id="path12822" /><g
         id="g12828">
	<path
   style="fill:#da4453"
   d="m 77.249,389.478 h 90.506 l 10.672,-10.672 c 2,-2 3.125,-4.703 3.125,-7.531 0,-1.078 -0.164,-2.125 -0.469,-3.125 H 98.584 Z"
   id="path12824" />
	<path
   style="fill:#da4453"
   d="M 143.842,413.4 H 53.328 l -16.117,16.125 c -1.484,1.484 -2.43,3.297 -2.859,5.203 h 88.155 z"
   id="path12826" />
</g><g
         id="g12834">
	<path
   style="fill:#ffce54"
   d="M 253.848,393.9 118.084,258.138 c -4.164,-4.164 -10.914,-4.164 -15.078,0 l -22.632,22.624 c -4.164,4.172 -4.164,10.922 0,15.078 l 135.763,135.764 c 2,2 4.711,3.125 7.539,3.125 2.836,0 5.547,-1.125 7.547,-3.125 l 22.625,-22.625 c 4.163,-4.157 4.163,-10.922 0,-15.079 z"
   id="path12830" />
	<path
   style="fill:#ffce54"
   d="m 85.327,469.321 c 0,-11.391 -4.438,-22.108 -12.492,-30.171 -16.64,-16.641 -43.702,-16.641 -60.342,0 -8.055,8.062 -12.492,18.78 -12.492,30.171 0,11.39 4.438,22.108 12.492,30.171 v 0 0 c 8.062,8.062 18.773,12.5 30.171,12.5 11.398,0 22.109,-4.438 30.171,-12.5 8.055,-8.062 12.492,-18.781 12.492,-30.171 z"
   id="path12832" />
</g><ellipse
         style="fill:#f6bb42"
         cx="42.664001"
         cy="469.31601"
         rx="10.664"
         ry="10.671"
         id="ellipse12836" /></g></g></svg>
