<?xml version="1.0" encoding="UTF-8" standalone="no"?>
<!-- Created with Inkscape (http://www.inkscape.org/) -->

<svg
   width="50"
   height="70"
   viewBox="0 0 13.229166 18.520833"
   version="1.1"
   id="svg18473"
   xml:space="preserve"
   inkscape:version="1.2.2 (732a01da63, 2022-12-09)"
   sodipodi:docname="oshosi_move_5.svg"
   xmlns:inkscape="http://www.inkscape.org/namespaces/inkscape"
   xmlns:sodipodi="http://sodipodi.sourceforge.net/DTD/sodipodi-0.dtd"
   xmlns="http://www.w3.org/2000/svg"
   xmlns:svg="http://www.w3.org/2000/svg"><sodipodi:namedview
     id="namedview18475"
     pagecolor="#ffffff"
     bordercolor="#000000"
     borderopacity="0.25"
     inkscape:showpageshadow="2"
     inkscape:pageopacity="0.0"
     inkscape:pagecheckerboard="0"
     inkscape:deskcolor="#d1d1d1"
     inkscape:document-units="mm"
     showgrid="true"
     inkscape:zoom="7.483165"
     inkscape:cx="25.523959"
     inkscape:cy="36.348256"
     inkscape:window-width="1366"
     inkscape:window-height="705"
     inkscape:window-x="-8"
     inkscape:window-y="-8"
     inkscape:window-maximized="1"
     inkscape:current-layer="g132"><inkscape:grid
       type="xygrid"
       id="grid36773"
       originx="0"
       originy="0" /></sodipodi:namedview><defs
     id="defs18470" /><g
     inkscape:label="Capa 1"
     inkscape:groupmode="layer"
     id="layer1"><path
       style="opacity:0.99;fill:#fde0a4;fill-opacity:1;fill-rule:nonzero;stroke:none;stroke-width:0.1;stroke-dasharray:none;stroke-opacity:1;paint-order:fill markers stroke"
       d="m -101.026,40.768853 c 0,0 0.71779,-3.53779 0.541,-3.64386 -0.17679,-0.10607 1.025358,-0.17678 1.308214,-0.56571 0.282858,-0.38893 0.707144,-0.81322 0.813215,-1.27286 0.106072,-0.45964 0.212143,-1.09607 0.212143,-1.44964 0,-0.35358 -0.106071,-1.30822 -0.106071,-1.30822 v -0.14143 c 0,0 4.348927,0.21215 6.611783,1.41429 2.262857,1.20214 2.368929,1.27286 2.368929,1.27286 0,0 0.990002,-0.77786 1.060714,-0.91929 0.07072,-0.14143 0.459645,-0.35357 0.459645,-0.35357 l 0.459642,0.99 c 0,0 0.141428,4.31357 -0.03536,4.98536 -0.176787,0.67178 -0.106071,0.31821 -0.14143,0.495 -0.03536,0.17678 -0.141428,1.20214 -0.141428,1.52035 0,0.31822 0.07071,1.13143 0.03536,1.44965 -0.03536,0.31821 -0.565713,1.87393 -0.565713,1.87393 0,0 -1.025359,0.99 -1.272858,1.09607 -0.247499,0.10607 -1.485,0.63643 -1.661784,0.70714 -0.176787,0.0707 -0.707144,0.14143 -0.883931,0.14143 -0.176784,0 -1.308214,0 -1.661784,0 -0.353571,0 -1.308214,-0.14143 -1.626428,-0.21214 -0.318215,-0.0707 -1.096071,-0.2475 -1.555716,-0.31822 -0.459642,-0.0707 -1.272857,-0.38893 -1.626428,-0.56571 -0.353571,-0.17679 -1.025356,-0.45965 -1.166786,-0.53036 -0.141428,-0.0707 -0.777858,-0.67178 -0.989998,-0.77786 -0.21214,-0.10607 -0.70715,-0.495 -0.81322,-0.63642 -0.10607,-0.14143 -0.495,-0.49501 -0.495,-0.49501 v -0.45964 c 0,0 -0.45964,0.495 -0.99,0.21215 -0.53035,-0.28286 -1.30821,-0.35358 -1.59107,-0.70715 -0.28286,-0.35357 -0.60107,-1.13143 -0.60107,-1.27286 0,-0.14142 -0.0354,-0.42428 0,-0.70714 0.0354,-0.28286 0.14143,-0.7425 0.14143,-0.7425 0,0 0.21214,-0.35357 0.63643,-0.60107 0.42428,-0.2475 0.56571,-0.38893 0.77786,-0.42429 0.21214,-0.0354 0.84857,0.0354 0.84857,0.0354 0,0 0.495,0.17679 0.60107,0.35357 0.10607,0.17679 0.31821,0.45965 0.42428,0.60107 0.10607,0.14143 0.35357,0.45965 0.42429,0.60108 0.0707,0.14142 0.2015,0.35564 0.2015,0.35564 z"
       id="path32083" /><path
       style="opacity:0.99;fill:#ff6600;fill-opacity:1;fill-rule:nonzero;stroke:none;stroke-width:0.1;stroke-dasharray:none;stroke-opacity:1;paint-order:fill markers stroke"
       d="m -103.77615,32.368433 c 0,0 -3.65018,1.85009 -2.70013,4.85024 0.95004,3.00015 1.40007,3.15016 1.40007,3.15016 l 0.15001,-0.05 c 0,0 0.55002,-1.00005 0.80004,-1.10006 0.25001,-0.1 0.60003,-0.30001 0.90004,-0.25001 0.30002,0.05 1.20006,0.35002 1.30007,0.60003 0.1,0.25002 0.50002,0.65003 0.65003,0.85005 0.15001,0.20001 0.35002,0.30001 0.35002,0.30001 0,0 0.25001,-0.90004 0.40002,-1.35007 0.15001,-0.45002 0.20001,-0.65003 0.15001,-1.05005 -0.05,-0.40002 -0.15001,-0.90005 -0.15001,-0.90005 l -0.25001,-0.65003 c 0.955262,0.71155 3.449013,0.57575 2.703689,-2.67943 -0.311283,-1.35952 0.02071,-1.47936 0.02071,-1.47936 0,0 0.375756,-0.24143 1.175798,-0.0914 0.800039,0.15001 1.80009,0.30002 2.350119,0.50003 0.550026,0.20001 1.400071,0.45002 1.800092,0.60003 0.400019,0.15001 1.450073,0.50002 1.700086,0.70003 0.250013,0.20002 0.900046,0.40002 1.150059,0.55003 0.250013,0.15001 0.800039,0.45002 0.800039,0.45002 0,0 0.425022,-0.77504 0.675035,-0.92505 0.250012,-0.15 0.525028,-0.47501 0.525028,-0.47501 l 0.300016,0.075 0.200011,0.77504 -3e-6,0.97505 c 0,0 0.600031,-0.82504 0.850044,-1.27507 0.250013,-0.45002 0.350017,-0.80004 0.60003,-1.30006 0.250013,-0.50003 0.400021,-0.90005 0.400021,-1.35007 0,-0.45003 0.250013,-1.55008 0.150008,-2.30012 -0.100005,-0.75004 -0.100005,-0.90005 -0.250013,-1.20006 -0.150008,-0.30002 -0.150008,-0.55003 -0.250012,-0.75004 -0.100005,-0.20001 -0.20001,-0.50003 -0.20001,-0.50003 0,0 0.05,0.60003 -0.150008,1.10006 -0.200012,0.50003 -0.350017,1.05005 -0.350017,1.05005 0,0 0.150005,-0.95004 -0.35002,-2.50012 -0.500025,-1.55008 -0.350017,-1.70009 -0.350017,-1.70009 v -0.30001 c 0,0 -0.100005,0.75003 -0.700035,1.15005 -0.600032,0.40002 -1.450075,1.05006 -2.000102,1.15006 -0.550029,0.10001 -2.100109,0.45003 -2.500127,0.45003 h -1.750092 c -0.200009,0 -0.700034,-0.10001 -0.700034,-0.10001 0,0 0.750038,0.15001 1.350068,-0.70004 0.60003,-0.85004 0.550029,-0.90004 0.550029,-0.90004 0,0 -0.750038,0.20001 -1.200063,0.20001 h -1.650081 c -0.300017,0 -2.200114,0.55003 -2.550131,0.65003 -0.350018,0.10001 -2.150107,0.50003 -2.550127,1.05005 -0.40003,0.55003 -1.65009,1.55008 -1.75009,1.8001 -0.10001,0.25001 -0.15001,0.35001 -0.45003,1.10005 -0.30001,0.75004 -0.25001,1.15006 -0.35002,1.45008 -0.1,0.30001 -0.25001,0.35002 -0.25001,0.35002 z"
       id="path32085"
       sodipodi:nodetypes="csccsssscssccscssssscsccccsssssscscsccsssscscssssssscc" /><path
       style="opacity:0.99;fill:#fde0a4;fill-opacity:0.992157;fill-rule:nonzero;stroke:none;stroke-width:0.108535;stroke-dasharray:none;stroke-opacity:1;paint-order:fill markers stroke"
       d="m -99.321539,45.497833 v 0.70618 c 0,0 -0.09175,0.83457 0.734045,0.96296 0.825802,0.1284 1.238702,0.321 1.238702,0.321 l 0.09175,-1.32307 c 0,0 -0.734043,-0.21768 -1.2387,-0.41027 -0.504657,-0.1926 -0.550533,-0.44939 -0.550533,-0.44939 z"
       id="path32087"
       sodipodi:nodetypes="ccsccscc" /><path
       style="opacity:0.99;fill:#48a4df;fill-opacity:1;fill-rule:nonzero;stroke:#0055d4;stroke-width:0.1;stroke-dasharray:none;stroke-opacity:1;paint-order:fill markers stroke"
       d="m -101.77604,50.669363 c -0.20001,-0.30002 -1.50008,-1.50008 -1.55008,-1.8501 -0.05,-0.35001 -0.10001,-0.2 0.60003,-0.65003 0.70003,-0.45002 1.35007,-0.80004 1.75009,-0.85004 0.40002,-0.05 1.000048,-0.10001 1.000048,-0.10001 l -1.000048,0.05 c 0,0 0.35001,-0.80003 0.80004,-1.00005 0.45002,-0.20001 0.800038,-0.45002 0.800038,-0.45002 0,0 0.300016,0.45002 0.600032,0.80004 0.300014,0.35002 0.450022,0.70004 0.950048,0.55003 0.500025,-0.15001 0.650033,-0.45002 0.650033,-0.45002 0,0 1.20006,4.40022 0.950048,6.30032 -0.250013,1.90009 0.300016,1.80009 0,1.90009 -0.300014,0.10001 -2.050103,0.05 -2.050103,0.05 0,0 -1.100058,-0.25001 -1.300067,-0.25001 H -100.926 c -0.25001,0 -0.50003,0.25001 -0.75004,0 -0.25001,-0.25002 -0.80004,-0.90005 -0.85004,-1.9501 -0.05,-1.05006 -0.05,-1.15006 0.45002,-1.55008 0.50003,-0.40002 0.70004,-0.40002 0.70004,-0.40002 0,0 0.44144,-0.11465 0.99147,-0.41467 0.550027,-0.30001 1.408649,-1.48543 1.408649,-1.48543 -0.548972,1.05529 -1.329719,1.69338 -2.350119,1.9001 z"
       id="path32089"
       sodipodi:nodetypes="csssccscsscsscssssscsccc" /><path
       style="opacity:0.99;fill:#444960;fill-opacity:1;fill-rule:nonzero;stroke:none;stroke-width:0.1;stroke-dasharray:none;stroke-opacity:1;paint-order:fill markers stroke"
       d="m -103.30112,54.894573 c 0,0 0.50002,2.67514 0.52503,2.95016 0.025,0.27501 0.1,1.90009 0.025,2.0251 -0.075,0.12501 -0.50003,0.82504 -0.57503,0.95005 -0.075,0.125 -0.90005,1.9501 -1.02505,2.0251 -0.12501,0.075 -0.72504,1.07506 -0.72504,1.07506 0,0 0.55002,0.15 0.72504,0.15 0.175,0 1.32506,-0.125 1.65008,-0.17501 0.32501,-0.05 0.70003,-0.05 0.95005,-0.05 0.25001,0 0.55002,0.45002 0.65003,0.45002 0.10001,0 0,-0.37501 0.025,-0.62503 0.025,-0.25001 -0.025,-0.35001 0.20001,-0.52503 0.22501,-0.175 0.45002,-0.15 0.60003,-0.75003 0.15001,-0.60003 0.300016,-1.37507 0.35002,-1.60009 0.05,-0.22501 0.150008,-0.70003 -0.025,-1.15005 -0.17501,-0.45003 -0.22501,-1.05006 -0.32502,-1.17506 -0.1,-0.12501 -0.35002,-2.10011 -0.60003,-2.45013 -0.25001,-0.35002 -0.97505,-1.37507 -0.97505,-1.37507 z"
       id="path32091" /><path
       style="opacity:0.99;fill:#23283b;fill-opacity:1;fill-rule:nonzero;stroke:none;stroke-width:0.1;stroke-dasharray:none;stroke-opacity:1;paint-order:fill markers stroke"
       d="m -98.650885,57.394703 c 0,0 0.850043,1.55008 0.975051,1.62509 0.125005,0.075 0.60003,1.07505 0.60003,1.07505 0,0 0.05,0.85004 -0.05,1.37507 -0.100007,0.52503 -0.300016,1.52508 -0.300016,1.77509 0,0.25001 -0.250013,0.67504 -0.150009,0.67504 0.100005,0 1.000051,0.075 1.600081,0.075 0.600033,0 0.625033,0.15 1.475076,0.025 0.850043,-0.12501 1.100056,-0.1 1.250064,-0.15001 0.150008,-0.05 -0.05,0 -0.175009,-0.40002 -0.125005,-0.40001 -0.05,-0.075 -0.200009,-0.67503 -0.150008,-0.60003 -0.325017,-1.07506 -0.300016,-1.57508 0.025,-0.50003 -0.400021,-2.0251 -0.750038,-2.22512 -0.350018,-0.2 -0.500026,-0.62503 -0.700035,-0.77503 -0.200012,-0.15001 -1.475076,-1.42508 -1.475076,-1.42508 l -0.750038,-0.125 c 0,0 -0.650034,0.52502 -0.750038,0.57503 -0.100005,0.05 -0.300017,0.15 -0.300018,0.15 z"
       id="path32093" /><path
       style="opacity:0.99;fill:#474e61;fill-opacity:1;fill-rule:nonzero;stroke:none;stroke-width:0.1;stroke-dasharray:none;stroke-opacity:1;paint-order:fill markers stroke"
       d="m -102.32607,54.444553 6.175313,0.42502 c 0,0 0.450024,0.65004 0.100004,1.05006 -0.350017,0.40002 -0.700034,0.80004 -0.950047,1.00005 -0.250013,0.20001 -0.725038,0.55003 -1.025051,0.60003 -0.300017,0.05 -0.625034,0.125 -1.025054,0.075 -0.400019,-0.05 -0.900044,0.025 -1.275065,-0.1 -0.37502,-0.12501 -0.82504,-0.075 -1.00005,-0.60003 -0.17501,-0.52503 -0.32502,-1.35007 -0.45002,-1.52508 -0.12501,-0.17501 -0.67504,-0.95005 -0.67504,-0.95005 z"
       id="path32095" /><path
       style="opacity:0.99;fill:#47a3e3;fill-opacity:1;fill-rule:nonzero;stroke:#0055d4;stroke-width:0.1;stroke-dasharray:none;stroke-opacity:1;paint-order:fill markers stroke"
       d="m -105.05121,63.995043 c 0,0 3.00015,-0.20001 3.27517,-0.075 0.27501,0.125 1.15005,0.60003 1.25006,0.82504 0.10001,0.22501 0.35002,0.75004 0.47502,0.87504 0.125011,0.12501 -0.55002,0.25001 -0.72503,0.20001 -0.17501,-0.05 -0.90005,-0.05 -1.35007,-0.05 -0.45002,0 -1.07506,-0.05 -1.8251,-0.075 -0.75003,-0.025 -1.17506,-0.025 -1.37506,-0.025 -0.20002,0 -0.70004,0.12501 -0.60003,0 0.1,-0.12501 0.25001,-0.97505 0.45002,-1.40007 0.20001,-0.42502 0.42502,-0.27501 0.42502,-0.27501 z"
       id="path32097" /><path
       style="opacity:0.99;fill:#e3dedb;fill-opacity:1;fill-rule:nonzero;stroke:none;stroke-width:0.1;stroke-dasharray:none;stroke-opacity:1;paint-order:fill markers stroke"
       d="m -105.87625,65.745133 c -0.12501,-0.025 -0.27502,0.27501 -0.27502,0.27501 0,0 0.05,0.40002 0.20001,0.45002 0.15001,0.05 0.17501,0.05 0.87505,0.12501 0.70003,0.075 1.30006,0.10001 1.82509,0.10001 0.52503,0 1.80009,-0.075 2.0501,-0.10001 0.25002,-0.025 0.85005,-0.05 1.07506,-0.15001 0.225012,-0.1 0.40002,-0.17501 0.40002,-0.35001 0,-0.17501 -0.125005,-0.45003 -0.250012,-0.45003 -0.125008,0 -5.900298,0.10001 -5.900298,0.10001 z"
       id="path32099" /><path
       style="opacity:0.99;fill:#47a3e3;fill-opacity:1;fill-rule:nonzero;stroke:#0055d4;stroke-width:0.1;stroke-dasharray:none;stroke-opacity:1;paint-order:fill markers stroke"
       d="m -97.166568,63.712183 c 0,0 3.000153,-0.20001 3.275169,-0.075 0.275013,0.125 1.150056,0.60003 1.250063,0.82504 0.100005,0.22501 0.350018,0.75004 0.475023,0.87504 0.125007,0.12501 -0.550027,0.25001 -0.725035,0.20001 -0.175012,-0.05 -0.900047,-0.05 -1.350071,-0.05 -0.450022,0 -1.075055,-0.05 -1.825093,-0.075 -0.750039,-0.025 -1.17506,-0.025 -1.375069,-0.025 -0.200012,0 -0.700037,0.12501 -0.60003,0 0.100004,-0.12501 0.250013,-0.97505 0.450022,-1.40007 0.200009,-0.42502 0.425021,-0.27501 0.425021,-0.27501 z"
       id="path32101" /><path
       style="opacity:0.99;fill:#e3dedb;fill-opacity:1;fill-rule:nonzero;stroke:none;stroke-width:0.1;stroke-dasharray:none;stroke-opacity:1;paint-order:fill markers stroke"
       d="m -97.99161,65.462273 c -0.125005,-0.025 -0.275013,0.27501 -0.275013,0.27501 0,0 0.05,0.40002 0.200009,0.45002 0.150008,0.05 0.175008,0.05 0.875046,0.12501 0.700034,0.075 1.300064,0.10001 1.825093,0.10001 0.525026,0 1.80009,-0.075 2.050103,-0.10001 0.250012,-0.025 0.850045,-0.05 1.075055,-0.15001 0.225012,-0.1 0.40002,-0.17501 0.40002,-0.35001 0,-0.17501 -0.125005,-0.45003 -0.250012,-0.45003 -0.125005,0 -5.900301,0.10001 -5.900301,0.10001 z"
       id="path32103" /><ellipse
       style="opacity:0.99;fill:#000000;fill-opacity:1;fill-rule:nonzero;stroke:#000000;stroke-width:0.1;stroke-dasharray:none;stroke-opacity:1;paint-order:fill markers stroke"
       id="ellipse32105"
       cx="-93.767143"
       cy="40.183392"
       rx="0.77785712"
       ry="1.3966072" /><ellipse
       style="opacity:0.99;fill:#000000;fill-opacity:1;fill-rule:nonzero;stroke:#000000;stroke-width:0.0792771;stroke-dasharray:none;stroke-opacity:1;paint-order:fill markers stroke"
       id="ellipse32107"
       cx="-88.857292"
       cy="40.094173"
       rx="0.56723642"
       ry="1.203665" /><ellipse
       style="opacity:0.99;fill:#ffffff;fill-opacity:1;fill-rule:nonzero;stroke:none;stroke-width:0.1;stroke-dasharray:none;stroke-opacity:1;paint-order:fill markers stroke"
       id="ellipse32109"
       cx="-93.722946"
       cy="39.723751"
       rx="0.53919643"
       ry="0.68946427" /><ellipse
       style="opacity:0.99;fill:#ffffff;fill-opacity:1;fill-rule:nonzero;stroke:none;stroke-width:0.0775845;stroke-dasharray:none;stroke-opacity:1;paint-order:fill markers stroke"
       id="ellipse32111"
       cx="-88.870186"
       cy="39.564632"
       rx="0.40013629"
       ry="0.55924344" /><path
       style="opacity:0.99;fill:#000000;fill-opacity:1;fill-rule:nonzero;stroke:#000000;stroke-width:0.1;stroke-dasharray:none;stroke-opacity:1;paint-order:fill markers stroke"
       d="m -95.941607,36.647673 c 0.335891,-0.28286 0.848572,-0.76018 1.11375,-0.7425 0.265179,0.0177 0.636429,0.053 0.919285,0.0884 0.282858,0.0354 0.689464,0.30054 0.830894,0.38893 0.141428,0.0884 0.371251,0.53036 0.548035,0.65411 0.176786,0.12375 0.335893,0.51268 0.37125,0.54804 0.03536,0.0354 0.159107,0.22982 0.141427,0.26517 -0.01767,0.0354 -0.318214,-0.22098 -0.459642,-0.25634 -0.141427,-0.0353 -0.609909,-0.30937 -0.715981,-0.41544 -0.106071,-0.10607 -0.07071,-0.22982 -0.291698,-0.32705 -0.220982,-0.0972 -0.822052,-0.18563 -0.892767,-0.20331 -0.07071,-0.0177 -0.353571,-0.0177 -0.574553,-0.0177 -0.220983,0 -0.742501,0.0354 -0.804376,0.053 -0.06187,0.0177 -0.247499,0.053 -0.247499,0.053 z"
       id="path32113" /><path
       style="opacity:0.99;fill:#000000;fill-opacity:1;fill-rule:nonzero;stroke:#000000;stroke-width:0.1;stroke-dasharray:none;stroke-opacity:1;paint-order:fill markers stroke"
       d="m -89.488927,38.008923 c 0.03536,-0.0884 0.194463,-0.53036 0.406606,-0.65411 0.212143,-0.12375 0.583393,-0.37125 0.671785,-0.4066 0.08839,-0.0354 0.282858,0 0.441965,0.0707 0.159107,0.0707 0.318215,0.12375 0.265179,0.21214 -0.05304,0.0884 -0.159107,0.0884 -0.406609,0.14143 -0.247499,0.053 -0.494999,0.14143 -0.583393,0.26518 -0.08839,0.12375 -0.335891,0.2475 -0.441963,0.40661 -0.106071,0.1591 -0.318214,0.2475 -0.318214,0.17678 0,-0.0707 -0.03536,-0.21214 -0.03536,-0.21214 z"
       id="path32115" /><path
       style="opacity:0.99;fill:none;fill-opacity:1;fill-rule:nonzero;stroke:#000000;stroke-width:0.1;stroke-dasharray:none;stroke-opacity:1;paint-order:fill markers stroke"
       d="m -90.350461,41.306383 c -0.01249,0.075 -0.025,0.27501 -0.01249,0.36252 0.01249,0.0875 0.08751,0.21251 0.237513,0.23751 0.150009,0.025 0.262512,0.075 0.350018,0.12501 0.08751,0.05 0.337518,0.25001 0.350017,0.36252 0.01252,0.1125 -0.075,0.38752 -0.112506,0.46252 -0.0375,0.075 0.0375,0.23751 -0.112504,0.23751 -0.150008,0 -0.387522,-0.0625 -0.462526,-0.0625 -0.075,0 -0.362516,-0.0375 -0.362516,-0.0375 l 0.137507,-0.0125 0.21251,0.0625"
       id="path32117" /><path
       style="opacity:0.99;fill:none;fill-opacity:1;fill-rule:nonzero;stroke:#000000;stroke-width:0.1;stroke-dasharray:none;stroke-opacity:1;paint-order:fill markers stroke"
       d="m -91.31301,44.844063 c -0.075,0.025 -1.100055,0.15001 -1.36257,0.075 -0.262514,-0.075 -0.800039,-0.33752 -0.862544,-0.42503 -0.0625,-0.0875 -0.437523,-0.28751 -0.500025,-0.41252 -0.0625,-0.125 -0.075,-0.37502 -0.075,-0.37502 0,0 -0.237512,0.31252 -0.287515,0.33752 -0.05,0.025 -0.175009,0.025 -0.175009,0.025"
       id="path32119" /><path
       style="opacity:0.99;fill:#fde0a4;fill-opacity:0.992157;fill-rule:nonzero;stroke:none;stroke-width:0.1;stroke-dasharray:none;stroke-opacity:1;paint-order:fill markers stroke"
       d="m -103.37613,48.944273 1.9001,2.0251 c 0,0 -0.97505,0.52503 -1.02505,0.62503 -0.05,0.10001 -0.075,1.12506 -0.025,1.25007 0.05,0.12501 0.30001,1.02505 0.42502,1.25006 0.12501,0.22501 0.40002,0.92505 0.40002,0.92505 0,0 -0.05,-0.37502 0.37502,-0.22501 0.42502,0.15001 0.47502,0.075 0.52503,0.17501 0.05,0.1 0.62503,0.70003 0.62503,0.70003 l 0.275012,0.85005 c 0,0 0.250013,0.27501 0.025,0.42502 -0.225012,0.15001 -0.275012,0.35002 -0.350022,0.22501 -0.075,-0.12501 -0.2,-0.57503 -0.2,-0.57503 l 0.22501,0.87505 0.275011,0.40002 c 0,0 0.150008,0.42502 -0.250011,0.55003 -0.40002,0.125 -0.77504,-0.05 -0.77504,-0.05 0,0 -0.075,0 -0.35002,0.20001 -0.27501,0.20001 -0.50003,0.52503 -0.67503,0.35002 -0.17501,-0.17501 -0.37502,-0.25001 -0.52503,-0.27502 -0.15001,-0.025 -0.35002,0.15001 -0.52503,0.15001 -0.17501,0 -0.50002,0.15001 -0.65003,-0.20001 -0.15001,-0.35002 -0.20001,-0.47502 -0.35002,-0.82504 -0.15001,-0.35002 -0.22501,-0.32502 -0.20001,-0.70004 0.025,-0.37501 0.12501,-0.67503 0.20001,-0.87504 0.075,-0.20001 0.10001,-0.25001 0.12501,-0.50002 0.025,-0.25002 -0.52503,-0.50003 -0.62504,-0.97505 -0.1,-0.47503 -0.25001,-0.77504 -0.40001,-1.12506 -0.15001,-0.35002 -0.30002,-0.55003 -0.32502,-0.97505 -0.025,-0.42502 -0.12501,-0.67504 0.025,-1.22506 0.15001,-0.55003 0.05,-0.45003 0.45002,-1.00006 0.40002,-0.55002 0.57503,-0.72503 0.80004,-0.90004 0.22502,-0.17501 0.60003,-0.55003 0.60003,-0.55003 z"
       id="path32121" /><path
       style="opacity:0.99;fill:#fde0a4;fill-opacity:0.992157;fill-rule:nonzero;stroke:none;stroke-width:0.1;stroke-dasharray:none;stroke-opacity:1;paint-order:fill markers stroke"
       d="m -95.875741,54.294543 c 0,0.10001 -0.175012,0.15001 -0.300017,0.52503 -0.125008,0.37502 -0.100004,0.55003 -0.125008,0.72504 -0.025,0.17501 -0.350017,0.72504 -0.350017,0.72504 0,0 -0.700035,0.37501 -0.275014,0.67503 0.425024,0.30001 0.625031,0.50002 0.750039,0.50002 0.125005,0 0.350017,-0.1 0.525026,-0.32501 0.175009,-0.22501 0.375021,-0.40002 0.525029,-0.72504 0.150005,-0.32502 0.375017,-0.92505 0.375017,-0.92505 0,0 -0.05,0.45003 0.175009,0.62504 0.225012,0.17501 0,0.27501 0.450025,0.15 0.450021,-0.125 0.800039,-0.67503 0.825042,-0.80004 0.025,-0.125 0.225009,-0.47502 0.225009,-0.72503 0,-0.25002 -0.150005,-0.50003 -0.375017,-0.62504 -0.225013,-0.125 -0.750038,-0.1 -1.000051,-0.075 -0.250013,0.025 -1.225063,0.10001 -1.225063,0.10001 z"
       id="path32123"
       sodipodi:nodetypes="csscsssscsssssscc" /><path
       style="opacity:0.99;fill:#fde0a4;fill-opacity:0.992157;fill-rule:nonzero;stroke:none;stroke-width:0.1;stroke-dasharray:none;stroke-opacity:1;paint-order:fill markers stroke"
       d="m -95.725736,57.219693 c 0,0 -0.150005,0.42502 -0.150005,0.57503 0,0.15001 0.375017,0.42502 0.62503,0.52503 0.250013,0.10001 0.825042,0.20001 1.100055,0.025 0.275016,-0.17501 0.475025,-0.55003 0.55003,-0.67503 0.075,-0.12501 0.100004,-0.17501 0.225012,-0.17501 0.125005,0 0.425021,-0.27502 0.425021,-0.42503 0,-0.15 0,-0.27501 0,-0.40002 0,-0.125 0.300014,-0.35001 0.300014,-0.35001 0,0 0.150008,-0.22501 0.150008,-0.50003 0,-0.27501 0.250013,-0.45002 -0.075,-0.50002 -0.325017,-0.05 -0.625031,-0.30002 -0.625031,-0.30002 0,0 -1.800092,-0.075 -1.975101,0.10001 -0.175009,0.175 -0.550029,2.1001 -0.550029,2.1001 z"
       id="path32125" /><path
       style="opacity:0.99;fill:#fde0a4;fill-opacity:1;fill-rule:nonzero;stroke:none;stroke-width:0.1;stroke-dasharray:none;stroke-opacity:1;paint-order:fill markers stroke"
       d="m -101.026,40.768853 c 0,0 0.71779,-3.53779 0.541,-3.64386 -0.17679,-0.10607 1.025358,-0.17678 1.308214,-0.56571 0.282858,-0.38893 0.707144,-0.81322 0.813215,-1.27286 0.106072,-0.45964 0.212143,-1.09607 0.212143,-1.44964 0,-0.35358 -0.106071,-1.30822 -0.106071,-1.30822 v -0.14143 c 0,0 4.348927,0.21215 6.611783,1.41429 2.262857,1.20214 2.368929,1.27286 2.368929,1.27286 0,0 0.990002,-0.77786 1.060714,-0.91929 0.07072,-0.14143 0.459645,-0.35357 0.459645,-0.35357 l 0.459642,0.99 c 0,0 0.141428,4.31357 -0.03536,4.98536 -0.176787,0.67178 -0.106071,0.31821 -0.14143,0.495 -0.03536,0.17678 -0.141428,1.20214 -0.141428,1.52035 0,0.31822 0.07071,1.13143 0.03536,1.44965 -0.03536,0.31821 -0.565713,1.87393 -0.565713,1.87393 0,0 -1.025359,0.99 -1.272858,1.09607 -0.247499,0.10607 -1.485,0.63643 -1.661784,0.70714 -0.176787,0.0707 -0.707144,0.14143 -0.883931,0.14143 -0.176784,0 -1.308214,0 -1.661784,0 -0.353571,0 -1.308214,-0.14143 -1.626428,-0.21214 -0.318215,-0.0707 -1.096071,-0.2475 -1.555716,-0.31822 -0.459642,-0.0707 -1.272857,-0.38893 -1.626428,-0.56571 -0.353571,-0.17679 -1.025356,-0.45965 -1.166786,-0.53036 -0.141428,-0.0707 -0.777858,-0.67178 -0.989998,-0.77786 -0.21214,-0.10607 -0.70715,-0.495 -0.81322,-0.63642 -0.10607,-0.14143 -0.495,-0.49501 -0.495,-0.49501 v -0.45964 c 0,0 -0.45964,0.495 -0.99,0.21215 -0.53035,-0.28286 -1.30821,-0.35358 -1.59107,-0.70715 -0.28286,-0.35357 -0.60107,-1.13143 -0.60107,-1.27286 0,-0.14142 -0.0354,-0.42428 0,-0.70714 0.0354,-0.28286 0.14143,-0.7425 0.14143,-0.7425 0,0 0.21214,-0.35357 0.63643,-0.60107 0.42428,-0.2475 0.56571,-0.38893 0.77786,-0.42429 0.21214,-0.0354 0.84857,0.0354 0.84857,0.0354 0,0 0.495,0.17679 0.60107,0.35357 0.10607,0.17679 0.31821,0.45965 0.42428,0.60107 0.10607,0.14143 0.35357,0.45965 0.42429,0.60108 0.0707,0.14142 0.2015,0.35564 0.2015,0.35564 z"
       id="path37522" /><path
       style="opacity:0.99;fill:#ff6600;fill-opacity:1;fill-rule:nonzero;stroke:none;stroke-width:0.1;stroke-dasharray:none;stroke-opacity:1;paint-order:fill markers stroke"
       d="m -103.77615,32.368433 c 0,0 -3.65018,1.85009 -2.70013,4.85024 0.95004,3.00015 1.40007,3.15016 1.40007,3.15016 l 0.15001,-0.05 c 0,0 0.55002,-1.00005 0.80004,-1.10006 0.25001,-0.1 0.60003,-0.30001 0.90004,-0.25001 0.30002,0.05 1.20006,0.35002 1.30007,0.60003 0.1,0.25002 0.50002,0.65003 0.65003,0.85005 0.15001,0.20001 0.35002,0.30001 0.35002,0.30001 0,0 0.25001,-0.90004 0.40002,-1.35007 0.15001,-0.45002 0.20001,-0.65003 0.15001,-1.05005 -0.05,-0.40002 -0.15001,-0.90005 -0.15001,-0.90005 l -0.25001,-0.65003 c 0.955262,0.71155 3.449013,0.57575 2.703689,-2.67943 -0.311283,-1.35952 0.02071,-1.47936 0.02071,-1.47936 0,0 0.375756,-0.24143 1.175798,-0.0914 0.800039,0.15001 1.80009,0.30002 2.350119,0.50003 0.550026,0.20001 1.400071,0.45002 1.800092,0.60003 0.400019,0.15001 1.450073,0.50002 1.700086,0.70003 0.250013,0.20002 0.900046,0.40002 1.150059,0.55003 0.250013,0.15001 0.800039,0.45002 0.800039,0.45002 0,0 0.425022,-0.77504 0.675035,-0.92505 0.250012,-0.15 0.525028,-0.47501 0.525028,-0.47501 l 0.300016,0.075 0.200011,0.77504 -3e-6,0.97505 c 0,0 0.600031,-0.82504 0.850044,-1.27507 0.250013,-0.45002 0.350017,-0.80004 0.60003,-1.30006 0.250013,-0.50003 0.400021,-0.90005 0.400021,-1.35007 0,-0.45003 0.250013,-1.55008 0.150008,-2.30012 -0.100005,-0.75004 -0.100005,-0.90005 -0.250013,-1.20006 -0.150008,-0.30002 -0.150008,-0.55003 -0.250012,-0.75004 -0.100005,-0.20001 -0.20001,-0.50003 -0.20001,-0.50003 0,0 0.05,0.60003 -0.150008,1.10006 -0.200012,0.50003 -0.350017,1.05005 -0.350017,1.05005 0,0 0.150005,-0.95004 -0.35002,-2.50012 -0.500025,-1.55008 -0.350017,-1.70009 -0.350017,-1.70009 v -0.30001 c 0,0 -0.100005,0.75003 -0.700035,1.15005 -0.600032,0.40002 -1.450075,1.05006 -2.000102,1.15006 -0.550029,0.10001 -2.100109,0.45003 -2.500127,0.45003 h -1.750092 c -0.200009,0 -0.700034,-0.10001 -0.700034,-0.10001 0,0 0.750038,0.15001 1.350068,-0.70004 0.60003,-0.85004 0.550029,-0.90004 0.550029,-0.90004 0,0 -0.750038,0.20001 -1.200063,0.20001 h -1.650081 c -0.300017,0 -2.200114,0.55003 -2.550131,0.65003 -0.350018,0.10001 -2.150107,0.50003 -2.550127,1.05005 -0.40003,0.55003 -1.65009,1.55008 -1.75009,1.8001 -0.10001,0.25001 -0.15001,0.35001 -0.45003,1.10005 -0.30001,0.75004 -0.25001,1.15006 -0.35002,1.45008 -0.1,0.30001 -0.25001,0.35002 -0.25001,0.35002 z"
       id="path37524"
       sodipodi:nodetypes="csccsssscssccscssssscsccccsssssscscsccsssscscssssssscc" /><path
       style="opacity:0.99;fill:#fde0a4;fill-opacity:0.992157;fill-rule:nonzero;stroke:none;stroke-width:0.108535;stroke-dasharray:none;stroke-opacity:1;paint-order:fill markers stroke"
       d="m -99.321539,45.497833 v 0.70618 c 0,0 -0.09175,0.83457 0.734045,0.96296 0.825802,0.1284 1.238702,0.321 1.238702,0.321 l 0.09175,-1.32307 c 0,0 -0.734043,-0.21768 -1.2387,-0.41027 -0.504657,-0.1926 -0.550533,-0.44939 -0.550533,-0.44939 z"
       id="path37526"
       sodipodi:nodetypes="ccsccscc" /><path
       style="opacity:0.99;fill:#48a4df;fill-opacity:1;fill-rule:nonzero;stroke:#0055d4;stroke-width:0.1;stroke-dasharray:none;stroke-opacity:1;paint-order:fill markers stroke"
       d="m -101.77604,50.669363 c -0.20001,-0.30002 -1.50008,-1.50008 -1.55008,-1.8501 -0.05,-0.35001 -0.10001,-0.2 0.60003,-0.65003 0.70003,-0.45002 1.35007,-0.80004 1.75009,-0.85004 0.40002,-0.05 1.000048,-0.10001 1.000048,-0.10001 l -1.000048,0.05 c 0,0 0.35001,-0.80003 0.80004,-1.00005 0.45002,-0.20001 0.800038,-0.45002 0.800038,-0.45002 0,0 0.300016,0.45002 0.600032,0.80004 0.300014,0.35002 0.450022,0.70004 0.950048,0.55003 0.500025,-0.15001 0.650033,-0.45002 0.650033,-0.45002 0,0 1.20006,4.40022 0.950048,6.30032 -0.250013,1.90009 0.300016,1.80009 0,1.90009 -0.300014,0.10001 -2.050103,0.05 -2.050103,0.05 0,0 -1.100058,-0.25001 -1.300067,-0.25001 H -100.926 c -0.25001,0 -0.50003,0.25001 -0.75004,0 -0.25001,-0.25002 -0.80004,-0.90005 -0.85004,-1.9501 -0.05,-1.05006 -0.05,-1.15006 0.45002,-1.55008 0.50003,-0.40002 0.70004,-0.40002 0.70004,-0.40002 0,0 0.44144,-0.11465 0.99147,-0.41467 0.550027,-0.30001 1.408649,-1.48543 1.408649,-1.48543 -0.548972,1.05529 -1.329719,1.69338 -2.350119,1.9001 z"
       id="path37528"
       sodipodi:nodetypes="csssccscsscsscssssscsccc" /><path
       style="opacity:0.99;fill:#444960;fill-opacity:1;fill-rule:nonzero;stroke:none;stroke-width:0.1;stroke-dasharray:none;stroke-opacity:1;paint-order:fill markers stroke"
       d="m -103.30112,54.894573 c 0,0 0.50002,2.67514 0.52503,2.95016 0.025,0.27501 0.1,1.90009 0.025,2.0251 -0.075,0.12501 -0.50003,0.82504 -0.57503,0.95005 -0.075,0.125 -0.90005,1.9501 -1.02505,2.0251 -0.12501,0.075 -0.72504,1.07506 -0.72504,1.07506 0,0 0.55002,0.15 0.72504,0.15 0.175,0 1.32506,-0.125 1.65008,-0.17501 0.32501,-0.05 0.70003,-0.05 0.95005,-0.05 0.25001,0 0.55002,0.45002 0.65003,0.45002 0.10001,0 0,-0.37501 0.025,-0.62503 0.025,-0.25001 -0.025,-0.35001 0.20001,-0.52503 0.22501,-0.175 0.45002,-0.15 0.60003,-0.75003 0.15001,-0.60003 0.300016,-1.37507 0.35002,-1.60009 0.05,-0.22501 0.150008,-0.70003 -0.025,-1.15005 -0.17501,-0.45003 -0.22501,-1.05006 -0.32502,-1.17506 -0.1,-0.12501 -0.35002,-2.10011 -0.60003,-2.45013 -0.25001,-0.35002 -0.97505,-1.37507 -0.97505,-1.37507 z"
       id="path37530" /><path
       style="opacity:0.99;fill:#23283b;fill-opacity:1;fill-rule:nonzero;stroke:none;stroke-width:0.1;stroke-dasharray:none;stroke-opacity:1;paint-order:fill markers stroke"
       d="m -98.650885,57.394703 c 0,0 0.850043,1.55008 0.975051,1.62509 0.125005,0.075 0.60003,1.07505 0.60003,1.07505 0,0 0.05,0.85004 -0.05,1.37507 -0.100007,0.52503 -0.300016,1.52508 -0.300016,1.77509 0,0.25001 -0.250013,0.67504 -0.150009,0.67504 0.100005,0 1.000051,0.075 1.600081,0.075 0.600033,0 0.625033,0.15 1.475076,0.025 0.850043,-0.12501 1.100056,-0.1 1.250064,-0.15001 0.150008,-0.05 -0.05,0 -0.175009,-0.40002 -0.125005,-0.40001 -0.05,-0.075 -0.200009,-0.67503 -0.150008,-0.60003 -0.325017,-1.07506 -0.300016,-1.57508 0.025,-0.50003 -0.400021,-2.0251 -0.750038,-2.22512 -0.350018,-0.2 -0.500026,-0.62503 -0.700035,-0.77503 -0.200012,-0.15001 -1.475076,-1.42508 -1.475076,-1.42508 l -0.750038,-0.125 c 0,0 -0.650034,0.52502 -0.750038,0.57503 -0.100005,0.05 -0.300017,0.15 -0.300018,0.15 z"
       id="path37532" /><path
       style="opacity:0.99;fill:#474e61;fill-opacity:1;fill-rule:nonzero;stroke:none;stroke-width:0.1;stroke-dasharray:none;stroke-opacity:1;paint-order:fill markers stroke"
       d="m -102.32607,54.444553 6.175313,0.42502 c 0,0 0.450024,0.65004 0.100004,1.05006 -0.350017,0.40002 -0.700034,0.80004 -0.950047,1.00005 -0.250013,0.20001 -0.725038,0.55003 -1.025051,0.60003 -0.300017,0.05 -0.625034,0.125 -1.025054,0.075 -0.400019,-0.05 -0.900044,0.025 -1.275065,-0.1 -0.37502,-0.12501 -0.82504,-0.075 -1.00005,-0.60003 -0.17501,-0.52503 -0.32502,-1.35007 -0.45002,-1.52508 -0.12501,-0.17501 -0.67504,-0.95005 -0.67504,-0.95005 z"
       id="path37534" /><path
       style="opacity:0.99;fill:#47a3e3;fill-opacity:1;fill-rule:nonzero;stroke:#0055d4;stroke-width:0.1;stroke-dasharray:none;stroke-opacity:1;paint-order:fill markers stroke"
       d="m -105.05121,63.995043 c 0,0 3.00015,-0.20001 3.27517,-0.075 0.27501,0.125 1.15005,0.60003 1.25006,0.82504 0.10001,0.22501 0.35002,0.75004 0.47502,0.87504 0.125011,0.12501 -0.55002,0.25001 -0.72503,0.20001 -0.17501,-0.05 -0.90005,-0.05 -1.35007,-0.05 -0.45002,0 -1.07506,-0.05 -1.8251,-0.075 -0.75003,-0.025 -1.17506,-0.025 -1.37506,-0.025 -0.20002,0 -0.70004,0.12501 -0.60003,0 0.1,-0.12501 0.25001,-0.97505 0.45002,-1.40007 0.20001,-0.42502 0.42502,-0.27501 0.42502,-0.27501 z"
       id="path37536" /><path
       style="opacity:0.99;fill:#47a3e3;fill-opacity:1;fill-rule:nonzero;stroke:#0055d4;stroke-width:0.1;stroke-dasharray:none;stroke-opacity:1;paint-order:fill markers stroke"
       d="m -97.166568,63.712183 c 0,0 3.000153,-0.20001 3.275169,-0.075 0.275013,0.125 1.150056,0.60003 1.250063,0.82504 0.100005,0.22501 0.350018,0.75004 0.475023,0.87504 0.125007,0.12501 -0.550027,0.25001 -0.725035,0.20001 -0.175012,-0.05 -0.900047,-0.05 -1.350071,-0.05 -0.450022,0 -1.075055,-0.05 -1.825093,-0.075 -0.750039,-0.025 -1.17506,-0.025 -1.375069,-0.025 -0.200012,0 -0.700037,0.12501 -0.60003,0 0.100004,-0.12501 0.250013,-0.97505 0.450022,-1.40007 0.200009,-0.42502 0.425021,-0.27501 0.425021,-0.27501 z"
       id="path37538" /><path
       style="opacity:0.99;fill:#e3dedb;fill-opacity:1;fill-rule:nonzero;stroke:none;stroke-width:0.1;stroke-dasharray:none;stroke-opacity:1;paint-order:fill markers stroke"
       d="m -97.99161,65.462273 c -0.125005,-0.025 -0.275013,0.27501 -0.275013,0.27501 0,0 0.05,0.40002 0.200009,0.45002 0.150008,0.05 0.175008,0.05 0.875046,0.12501 0.700034,0.075 1.300064,0.10001 1.825093,0.10001 0.525026,0 1.80009,-0.075 2.050103,-0.10001 0.250012,-0.025 0.850045,-0.05 1.075055,-0.15001 0.225012,-0.1 0.40002,-0.17501 0.40002,-0.35001 0,-0.17501 -0.125005,-0.45003 -0.250012,-0.45003 -0.125005,0 -5.900301,0.10001 -5.900301,0.10001 z"
       id="path37540" /><ellipse
       style="opacity:0.99;fill:#000000;fill-opacity:1;fill-rule:nonzero;stroke:#000000;stroke-width:0.1;stroke-dasharray:none;stroke-opacity:1;paint-order:fill markers stroke"
       id="ellipse37542"
       cx="-93.767143"
       cy="40.183392"
       rx="0.77785712"
       ry="1.3966072" /><ellipse
       style="opacity:0.99;fill:#000000;fill-opacity:1;fill-rule:nonzero;stroke:#000000;stroke-width:0.0792771;stroke-dasharray:none;stroke-opacity:1;paint-order:fill markers stroke"
       id="ellipse37544"
       cx="-88.857292"
       cy="40.094173"
       rx="0.56723642"
       ry="1.203665" /><ellipse
       style="opacity:0.99;fill:#ffffff;fill-opacity:1;fill-rule:nonzero;stroke:none;stroke-width:0.1;stroke-dasharray:none;stroke-opacity:1;paint-order:fill markers stroke"
       id="ellipse37546"
       cx="-93.722946"
       cy="39.723751"
       rx="0.53919643"
       ry="0.68946427" /><ellipse
       style="opacity:0.99;fill:#ffffff;fill-opacity:1;fill-rule:nonzero;stroke:none;stroke-width:0.0775845;stroke-dasharray:none;stroke-opacity:1;paint-order:fill markers stroke"
       id="ellipse37548"
       cx="-88.870186"
       cy="39.564632"
       rx="0.40013629"
       ry="0.55924344" /><path
       style="opacity:0.99;fill:#000000;fill-opacity:1;fill-rule:nonzero;stroke:#000000;stroke-width:0.1;stroke-dasharray:none;stroke-opacity:1;paint-order:fill markers stroke"
       d="m -95.941607,36.647673 c 0.335891,-0.28286 0.848572,-0.76018 1.11375,-0.7425 0.265179,0.0177 0.636429,0.053 0.919285,0.0884 0.282858,0.0354 0.689464,0.30054 0.830894,0.38893 0.141428,0.0884 0.371251,0.53036 0.548035,0.65411 0.176786,0.12375 0.335893,0.51268 0.37125,0.54804 0.03536,0.0354 0.159107,0.22982 0.141427,0.26517 -0.01767,0.0354 -0.318214,-0.22098 -0.459642,-0.25634 -0.141427,-0.0353 -0.609909,-0.30937 -0.715981,-0.41544 -0.106071,-0.10607 -0.07071,-0.22982 -0.291698,-0.32705 -0.220982,-0.0972 -0.822052,-0.18563 -0.892767,-0.20331 -0.07071,-0.0177 -0.353571,-0.0177 -0.574553,-0.0177 -0.220983,0 -0.742501,0.0354 -0.804376,0.053 -0.06187,0.0177 -0.247499,0.053 -0.247499,0.053 z"
       id="path37550" /><path
       style="opacity:0.99;fill:#000000;fill-opacity:1;fill-rule:nonzero;stroke:#000000;stroke-width:0.1;stroke-dasharray:none;stroke-opacity:1;paint-order:fill markers stroke"
       d="m -89.488927,38.008923 c 0.03536,-0.0884 0.194463,-0.53036 0.406606,-0.65411 0.212143,-0.12375 0.583393,-0.37125 0.671785,-0.4066 0.08839,-0.0354 0.282858,0 0.441965,0.0707 0.159107,0.0707 0.318215,0.12375 0.265179,0.21214 -0.05304,0.0884 -0.159107,0.0884 -0.406609,0.14143 -0.247499,0.053 -0.494999,0.14143 -0.583393,0.26518 -0.08839,0.12375 -0.335891,0.2475 -0.441963,0.40661 -0.106071,0.1591 -0.318214,0.2475 -0.318214,0.17678 0,-0.0707 -0.03536,-0.21214 -0.03536,-0.21214 z"
       id="path37552" /><path
       style="opacity:0.99;fill:none;fill-opacity:1;fill-rule:nonzero;stroke:#000000;stroke-width:0.1;stroke-dasharray:none;stroke-opacity:1;paint-order:fill markers stroke"
       d="m -90.350461,41.306383 c -0.01249,0.075 -0.025,0.27501 -0.01249,0.36252 0.01249,0.0875 0.08751,0.21251 0.237513,0.23751 0.150009,0.025 0.262512,0.075 0.350018,0.12501 0.08751,0.05 0.337518,0.25001 0.350017,0.36252 0.01252,0.1125 -0.075,0.38752 -0.112506,0.46252 -0.0375,0.075 0.0375,0.23751 -0.112504,0.23751 -0.150008,0 -0.387522,-0.0625 -0.462526,-0.0625 -0.075,0 -0.362516,-0.0375 -0.362516,-0.0375 l 0.137507,-0.0125 0.21251,0.0625"
       id="path37554" /><path
       style="opacity:0.99;fill:none;fill-opacity:1;fill-rule:nonzero;stroke:#000000;stroke-width:0.1;stroke-dasharray:none;stroke-opacity:1;paint-order:fill markers stroke"
       d="m -91.31301,44.844063 c -0.075,0.025 -1.100055,0.15001 -1.36257,0.075 -0.262514,-0.075 -0.800039,-0.33752 -0.862544,-0.42503 -0.0625,-0.0875 -0.437523,-0.28751 -0.500025,-0.41252 -0.0625,-0.125 -0.075,-0.37502 -0.075,-0.37502 0,0 -0.237512,0.31252 -0.287515,0.33752 -0.05,0.025 -0.175009,0.025 -0.175009,0.025"
       id="path37556" /><path
       style="opacity:0.99;fill:#fde0a4;fill-opacity:0.992157;fill-rule:nonzero;stroke:none;stroke-width:0.1;stroke-dasharray:none;stroke-opacity:1;paint-order:fill markers stroke"
       d="m -103.37613,48.944273 1.9001,2.0251 c 0,0 -0.97505,0.52503 -1.02505,0.62503 -0.05,0.10001 -0.075,1.12506 -0.025,1.25007 0.05,0.12501 0.30001,1.02505 0.42502,1.25006 0.12501,0.22501 0.40002,0.92505 0.40002,0.92505 0,0 -0.05,-0.37502 0.37502,-0.22501 0.42502,0.15001 0.47502,0.075 0.52503,0.17501 0.05,0.1 0.62503,0.70003 0.62503,0.70003 l 0.275012,0.85005 c 0,0 0.250013,0.27501 0.025,0.42502 -0.225012,0.15001 -0.275012,0.35002 -0.350022,0.22501 -0.075,-0.12501 -0.2,-0.57503 -0.2,-0.57503 l 0.22501,0.87505 0.275011,0.40002 c 0,0 0.150008,0.42502 -0.250011,0.55003 -0.40002,0.125 -0.77504,-0.05 -0.77504,-0.05 0,0 -0.075,0 -0.35002,0.20001 -0.27501,0.20001 -0.50003,0.52503 -0.67503,0.35002 -0.17501,-0.17501 -0.37502,-0.25001 -0.52503,-0.27502 -0.15001,-0.025 -0.35002,0.15001 -0.52503,0.15001 -0.17501,0 -0.50002,0.15001 -0.65003,-0.20001 -0.15001,-0.35002 -0.20001,-0.47502 -0.35002,-0.82504 -0.15001,-0.35002 -0.22501,-0.32502 -0.20001,-0.70004 0.025,-0.37501 0.12501,-0.67503 0.20001,-0.87504 0.075,-0.20001 0.10001,-0.25001 0.12501,-0.50002 0.025,-0.25002 -0.52503,-0.50003 -0.62504,-0.97505 -0.1,-0.47503 -0.25001,-0.77504 -0.40001,-1.12506 -0.15001,-0.35002 -0.30002,-0.55003 -0.32502,-0.97505 -0.025,-0.42502 -0.12501,-0.67504 0.025,-1.22506 0.15001,-0.55003 0.05,-0.45003 0.45002,-1.00006 0.40002,-0.55002 0.57503,-0.72503 0.80004,-0.90004 0.22502,-0.17501 0.60003,-0.55003 0.60003,-0.55003 z"
       id="path37558" /><path
       style="opacity:0.99;fill:#fde0a4;fill-opacity:0.992157;fill-rule:nonzero;stroke:none;stroke-width:0.1;stroke-dasharray:none;stroke-opacity:1;paint-order:fill markers stroke"
       d="m -95.875741,54.294543 c 0,0.10001 -0.175012,0.15001 -0.300017,0.52503 -0.125008,0.37502 -0.100004,0.55003 -0.125008,0.72504 -0.025,0.17501 -0.350017,0.72504 -0.350017,0.72504 0,0 -0.700035,0.37501 -0.275014,0.67503 0.425024,0.30001 0.625031,0.50002 0.750039,0.50002 0.125005,0 0.350017,-0.1 0.525026,-0.32501 0.175009,-0.22501 0.375021,-0.40002 0.525029,-0.72504 0.150005,-0.32502 0.375017,-0.92505 0.375017,-0.92505 0,0 -0.05,0.45003 0.175009,0.62504 0.225012,0.17501 0,0.27501 0.450025,0.15 0.450021,-0.125 0.800039,-0.67503 0.825042,-0.80004 0.025,-0.125 0.225009,-0.47502 0.225009,-0.72503 0,-0.25002 -0.150005,-0.50003 -0.375017,-0.62504 -0.225013,-0.125 -0.750038,-0.1 -1.000051,-0.075 -0.250013,0.025 -1.225063,0.10001 -1.225063,0.10001 z"
       id="path37560"
       sodipodi:nodetypes="csscsssscsssssscc" /><path
       style="opacity:0.99;fill:#fde0a4;fill-opacity:0.992157;fill-rule:nonzero;stroke:none;stroke-width:0.1;stroke-dasharray:none;stroke-opacity:1;paint-order:fill markers stroke"
       d="m -95.725736,57.219693 c 0,0 -0.150005,0.42502 -0.150005,0.57503 0,0.15001 0.375017,0.42502 0.62503,0.52503 0.250013,0.10001 0.825042,0.20001 1.100055,0.025 0.275016,-0.17501 0.475025,-0.55003 0.55003,-0.67503 0.075,-0.12501 0.100004,-0.17501 0.225012,-0.17501 0.125005,0 0.425021,-0.27502 0.425021,-0.42503 0,-0.15 0,-0.27501 0,-0.40002 0,-0.125 0.300014,-0.35001 0.300014,-0.35001 0,0 0.150008,-0.22501 0.150008,-0.50003 0,-0.27501 0.250013,-0.45002 -0.075,-0.50002 -0.325017,-0.05 -0.625031,-0.30002 -0.625031,-0.30002 0,0 -1.800092,-0.075 -1.975101,0.10001 -0.175009,0.175 -0.550029,2.1001 -0.550029,2.1001 z"
       id="path37562" /><g
       id="g132"><path
         style="opacity:0.99;fill:#c87137;fill-opacity:1;fill-rule:nonzero;stroke:none;stroke-width:0.0340083;stroke-dasharray:none;stroke-opacity:1;paint-order:fill markers stroke"
         d="m 7.402418,7.3599765 c 0,0 -0.1520268,-1.5502612 -0.2100546,-1.5896145 C 7.1343355,5.7310087 8.0063925,6.0922044 8.1097786,5.9654778 8.2131653,5.8387512 8.3652425,5.7026868 8.4099341,5.5486137 8.4546261,5.3945406 8.502654,5.1804369 8.5093265,5.0603791 8.5159992,4.9403178 8.4979976,4.6141596 8.4979976,4.6141596 l 0.00267,-0.048024 c 0,0 1.4727131,0.1541095 2.2183994,0.605011 0.745687,0.4509015 0.78037,0.4769169 0.78037,0.4769169 0,0 0.350843,-0.2454461 0.377523,-0.2921355 0.02668,-0.046689 0.162749,-0.1113835 0.162749,-0.1113835 l 0.137393,0.3448376 c 0,0 -0.03338,1.46738 -0.10609,1.6921559 -0.07271,0.2247726 -0.04202,0.1060493 -0.05737,0.1654127 -0.01534,0.05936 -0.07071,0.4055283 -0.07672,0.5135793 -0.006,0.1080544 0.0027,0.3855215 -0.01535,0.4929088 -0.01801,0.1073838 -0.227457,0.6256336 -0.227457,0.6256336 0,0 -0.366853,0.3168129 -0.452895,0.3481591 -0.08604,0.031346 -0.516256,0.1880809 -0.577619,0.2087548 -0.06136,0.020671 -0.242786,0.034679 -0.302815,0.031343 L 9.7965202,9.6359681 C 9.676462,9.6292956 9.3549735,9.5632559 9.2482556,9.5332404 9.1415371,9.5032283 8.8807457,9.4285148 8.7260038,9.3958268 8.5712625,9.3631457 8.3011337,9.2397411 8.1844117,9.1730413 8.0676899,9.1063382 7.8449174,8.9976128 7.798228,8.9709335 7.7515391,8.9442577 7.5467774,8.7281451 7.4767443,8.6881212 7.4067114,8.6481007 7.2459692,8.5066945 7.2126203,8.4566723 7.179272,8.4066467 7.0538811,8.2792457 7.0538811,8.2792457 l 0.00867,-0.1560748 c 0,0 -0.165417,0.1594073 -0.3401669,0.053354 C 6.5476391,8.0704688 6.2848447,8.0317756 6.195471,7.9063797 6.1060965,7.7809839 6.0127238,7.5108493 6.0153928,7.4628255 c 0.00267,-0.04802 -0.004,-0.1447354 0.013345,-0.2401157 0.017345,-0.09538 0.062036,-0.2494534 0.062036,-0.2494534 0,0 0.078707,-0.1160543 0.227448,-0.1920881 0.1487409,-0.076034 0.1994341,-0.1213886 0.2721364,-0.1293919 0.072703,-0.00802 0.2874718,0.028034 0.2874718,0.028034 0,0 0.1647449,0.069372 0.1974261,0.1314011 0.032681,0.062032 0.099378,0.1620835 0.1327268,0.2121057 0.033348,0.050026 0.1113838,0.1627508 0.1327266,0.2121091 0.021341,0.049355 0.061708,0.1245633 0.061708,0.1245633 z"
         id="path54836"
         sodipodi:nodetypes="cssssccsccccsssccscsscccccccccssscsccscscc" /><g
         id="g29143"
         transform="rotate(6.911645,13.033258,9.6225333)"><ellipse
           style="opacity:0.99;fill:#c87137;fill-opacity:0.992157;fill-rule:nonzero;stroke:none;stroke-width:0.171524;stroke-dasharray:none;stroke-opacity:1;paint-order:fill markers stroke"
           id="path4347"
           cx="9.0160713"
           cy="6.6354756"
           rx="2.8518746"
           ry="2.8358848" /><path
           style="opacity:0.99;fill:none;fill-opacity:0.992157;fill-rule:nonzero;stroke:#2b1100;stroke-width:0.38011;stroke-dasharray:none;stroke-opacity:1;paint-order:fill markers stroke"
           id="path5099"
           sodipodi:type="arc"
           sodipodi:cx="8.9980841"
           sodipodi:cy="5.2850561"
           sodipodi:rx="2.7141452"
           sodipodi:ry="0.50697601"
           sodipodi:start="0.28424498"
           sodipodi:end="2.8139227"
           sodipodi:arc-type="arc"
           d="M 11.603321,5.4272288 A 2.7141452,0.50697601 0 0 1 9.0570103,5.7919126 2.7141452,0.50697601 0 0 1 6.4283455,5.4482202"
           sodipodi:open="true" /><path
           style="opacity:0.99;fill:#008000;fill-opacity:0.992157;fill-rule:nonzero;stroke:none;stroke-width:0.0799998;stroke-dasharray:none;stroke-opacity:1;paint-order:fill markers stroke"
           d="M 10.572208,5.3271579 C 10.578584,5.3253877 10.450852,4.1907143 9.9004223,3.7184105 9.4434742,3.3263227 9.6175651,2.7991242 9.4938152,2.7991242 c -0.1237502,0 -0.1060717,0.4242846 0,1.1491078 0.1060713,0.7248197 0.2298212,1.2198214 0.4773214,1.4142844 0.2475004,0.1944631 0.5480354,0.4950017 0.5480354,0.4950017 z"
           id="path12676"
           sodipodi:nodetypes="csscscc" /><path
           style="opacity:0.99;fill:#008000;fill-opacity:0.992157;fill-rule:nonzero;stroke:none;stroke-width:0.0581417;stroke-dasharray:none;stroke-opacity:1;paint-order:fill markers stroke"
           d="m 10.951209,5.1445058 c -0.0035,-0.00177 0.06611,-1.1019525 0.365941,-1.559921 0.248912,-0.3801882 0.15408,-0.891384 0.221491,-0.891384 0.06741,0 0.05778,0.411408 0,1.1142309 -0.05778,0.7028193 -0.125191,1.1827988 -0.260011,1.3713599 -0.134821,0.1885575 -0.298532,0.479976 -0.298532,0.479976 z"
           id="path12786"
           sodipodi:nodetypes="csscscc" /><path
           style="opacity:0.99;fill:#44aa00;fill-opacity:0.992157;fill-rule:nonzero;stroke:none;stroke-width:0.051401;stroke-dasharray:none;stroke-opacity:1;paint-order:fill markers stroke"
           d="M 10.400052,5.2195104 C 10.404148,5.2184482 10.322079,4.4893269 9.9684189,4.1858638 9.6748228,3.9339428 9.7866785,3.5952062 9.7071673,3.5952062 c -0.079511,0 -0.068153,0.2726115 0,0.7383229 0.068153,0.465708 0.1476639,0.7837542 0.3066867,0.9087004 0.159023,0.1249462 0.352122,0.3180461 0.352122,0.3180461 z"
           id="path12792"
           sodipodi:nodetypes="csscscc" /><path
           style="opacity:0.99;fill:#44aa00;fill-opacity:0.992157;fill-rule:nonzero;stroke:none;stroke-width:0.051401;stroke-dasharray:none;stroke-opacity:1;paint-order:fill markers stroke"
           d="m 10.764412,5.0382532 c -0.0041,-0.00106 0.07797,-0.7301835 0.431633,-1.0336465 0.293596,-0.2519211 0.181741,-0.5906577 0.261252,-0.5906577 0.07951,0 0.06815,0.2726115 0,0.738323 -0.06815,0.4657079 -0.147664,0.7837541 -0.306687,0.9087003 -0.159023,0.1249462 -0.352122,0.3180462 -0.352122,0.3180462 z"
           id="path12794"
           sodipodi:nodetypes="csscscc" /><path
           style="opacity:0.99;fill:#008000;fill-opacity:1;fill-rule:nonzero;stroke:none;stroke-width:0.0799998;stroke-dasharray:none;stroke-opacity:1;paint-order:fill markers stroke"
           d="m 10.363466,5.5270626 c 0,0 -0.05053,0.1149834 -0.214056,-0.4197953 C 9.9858833,4.5724922 9.9038233,4.3293408 9.9038233,4.3293408"
           id="path12852"
           sodipodi:nodetypes="ccc" /><path
           style="opacity:0.99;fill:#008000;fill-opacity:1;fill-rule:nonzero;stroke:none;stroke-width:0.0799998;stroke-dasharray:none;stroke-opacity:1;paint-order:fill markers stroke"
           d="m 10.962043,5.1762708 c 0,0 0.05053,0.1149833 0.214057,-0.4197953 0.163526,-0.5347752 0.245586,-0.7779266 0.245586,-0.7779266"
           id="path12962"
           sodipodi:nodetypes="ccc" /><path
           style="opacity:0.99;fill:#0066ff;fill-opacity:0.992157;fill-rule:nonzero;stroke:none;stroke-width:0.106576;stroke-dasharray:none;stroke-opacity:1;paint-order:fill markers stroke"
           d="m 10.242493,4.7751372 c -0.0083,0.00212 -0.5182218,-1.4536401 -0.160497,-2.3793098 0.296973,-0.7684558 0.178347,-1.53060995 0.32019,-1.60767823 0.141843,-0.0770679 0.230804,0.60418933 0.528462,1.56477143 0.297657,0.9605645 0.487518,1.7462764 0.31631,2.1404035 -0.171209,0.3941234 -0.523429,1.0988192 -0.523429,1.0988192 z"
           id="path12788"
           sodipodi:nodetypes="csscscc" /><path
           style="opacity:0.99;fill:#2a7fff;fill-opacity:0.992157;fill-rule:nonzero;stroke:none;stroke-width:0.0718617;stroke-dasharray:none;stroke-opacity:1;paint-order:fill markers stroke"
           d="m 10.396303,4.5816124 c -0.0056,0.00142 -0.349424,-0.9801573 -0.108219,-1.6043148 0.200242,-0.5181527 0.120255,-1.0320533 0.215896,-1.0840166 0.09564,-0.051967 0.155626,0.4073896 0.356331,1.0550875 0.200703,0.6476838 0.328721,1.177474 0.213279,1.4432241 -0.115441,0.2657466 -0.352936,0.7409075 -0.352936,0.7409075 z"
           id="path12790"
           sodipodi:nodetypes="csscscc" /><ellipse
           style="opacity:0.99;fill:#ffff00;fill-opacity:0.992157;fill-rule:nonzero;stroke:none;stroke-width:0.109714;stroke-dasharray:none;stroke-opacity:1;paint-order:fill markers stroke"
           id="path5313"
           cx="10.769589"
           cy="5.4935174"
           rx="0.32620108"
           ry="0.52032417" /><path
           style="opacity:0.99;fill:#5599ff;fill-opacity:1;fill-rule:nonzero;stroke:none;stroke-width:0.0241149;stroke-dasharray:none;stroke-opacity:1;paint-order:fill markers stroke"
           d="m 10.656865,4.4446357 c -7.08e-4,0.00106 -0.225384,-0.8209537 -0.09436,-1.3892604 0.101011,-0.4381385 0.01023,-0.8877444 0.01825,-0.9341031 0.04835,1.1631634 0.08395,1.9157828 0.136747,2.7961099 z"
           id="path12796"
           sodipodi:nodetypes="csccc" /><ellipse
           style="opacity:0.99;fill:#dfdf00;fill-opacity:0.992157;fill-rule:nonzero;stroke:none;stroke-width:0.0776124;stroke-dasharray:none;stroke-opacity:1;paint-order:fill markers stroke"
           id="ellipse12964"
           cx="10.784284"
           cy="5.4877505"
           rx="0.22513951"
           ry="0.37726733" /></g><path
         style="opacity:0.99;fill:#e3dedb;fill-opacity:1;fill-rule:nonzero;stroke:none;stroke-width:0.0340083;stroke-dasharray:none;stroke-opacity:1;paint-order:fill markers stroke"
         d="m 4.9615748,13.794151 c -0.0072,-0.04274 -0.120718,-0.05405 -0.120718,-0.05405 0,0 -0.121047,0.06437 -0.118746,0.118102 0.0023,0.05373 0.0053,0.06166 0.06634,0.293196 0.06102,0.231529 0.12581,0.425215 0.189452,0.592041 0.06364,0.166826 0.242031,0.56288 0.280283,0.639291 0.03825,0.07641 0.118927,0.264039 0.177979,0.323413 0.05905,0.05938 0.104099,0.105889 0.159703,0.08468 0.05561,-0.0212 0.127842,-0.09428 0.112689,-0.133997 -0.01516,-0.03971 -0.746989,-1.862677 -0.746989,-1.862677 z"
         id="path54834" /><path
         style="opacity:0.99;fill:#a05a2c;fill-opacity:0.992157;fill-rule:nonzero;stroke:none;stroke-width:0.0340083;stroke-dasharray:none;stroke-opacity:1;paint-order:fill markers stroke"
         d="m 7.4852108,11.106705 0.78106,-0.252031 c 0,0 0.121765,0.378773 0.138681,0.412826 0.01694,0.03404 0.290124,0.250741 0.334312,0.262757 0.04418,0.01201 0.33976,0.128436 0.426455,0.140566 0.08669,0.01213 0.333085,0.0808 0.333085,0.0808 0,0 -0.112067,-0.06322 0.01569,-0.1479 0.127768,-0.08468 0.117631,-0.113626 0.15503,-0.106721 0.03738,0.0069 0.318061,-0.02637 0.318061,-0.02637 l 0.2871232,0.09939 c 0,0 0.125874,-0.01157 0.120502,0.08027 -0.0053,0.09181 0.03873,0.146342 -0.01057,0.141114 -0.04931,-0.0052 -0.197089,-0.06344 -0.197089,-0.06344 l 0.283676,0.118081 0.16493,0.0072 c 0,0 0.146122,0.04629 0.09816,0.180515 -0.04797,0.134213 -0.17228,0.200207 -0.17228,0.200207 0,0 -0.01535,0.02036 -0.01736,0.135997 -0.002,0.115629 0.04017,0.243278 -0.04318,0.254962 -0.08336,0.01167 -0.144683,0.05063 -0.182183,0.08625 -0.03754,0.0356 -0.03095,0.125753 -0.06677,0.173276 -0.03585,0.04752 -0.06166,0.166483 -0.187412,0.135545 -0.1257612,-0.03094 -0.1699372,-0.04296 -0.2956942,-0.0739 -0.125759,-0.03094 -0.134323,-0.0055 -0.231035,-0.08903 -0.0967,-0.08358 -0.157692,-0.172164 -0.196637,-0.233489 -0.03894,-0.06132 -0.04742,-0.07834 -0.11017,-0.136329 -0.06277,-0.05798 -0.243278,0.04017 -0.392738,-0.02994 -0.149471,-0.07009 -0.261648,-0.09079 -0.387406,-0.121727 -0.12576,-0.03094 -0.210783,-0.03116 -0.331305,-0.111407 -0.120501,-0.08027 -0.208892,-0.10428 -0.327518,-0.257643 -0.11863,-0.153355 -0.111959,-0.105723 -0.179394,-0.326972 -0.06743,-0.221243 -0.107852,-0.211289 -0.109295,-0.308219 -0.0014,-0.09694 -0.141809,-0.227334 -0.141809,-0.227334 z"
         id="path54864"
         sodipodi:nodetypes="ccccscscccsscccscscccssssssssssscc" /><path
         style="opacity:0.99;fill:#c87137;fill-opacity:0.992157;fill-rule:nonzero;stroke:none;stroke-width:0.0369109;stroke-dasharray:none;stroke-opacity:1;paint-order:fill markers stroke"
         d="m 8.0919501,8.7979004 -0.07583,0.4773027 C 8.0431651,9.2780731 7.8897737,9.116941 7.8393351,9.3588101 7.7622591,9.7284115 8.6041762,10.055189 8.737385,9.7524423 L 8.8928851,9.425889 c 0,0 -0.1076356,-0.4127836 -0.2753619,-0.487703 C 8.4497972,8.8632631 8.1390505,8.8002013 8.1390505,8.8002013 Z"
         id="path54838"
         sodipodi:nodetypes="ccsccscc" /><ellipse
         style="opacity:0.99;fill:#000000;fill-opacity:1;fill-rule:nonzero;stroke:#000000;stroke-width:0.0340083;stroke-dasharray:none;stroke-opacity:1;paint-order:fill markers stroke"
         id="ellipse54840"
         cx="10.268044"
         cy="6.7387571"
         rx="0.2645359"
         ry="0.4749622"
         transform="rotate(3.1810796)" /><ellipse
         style="opacity:0.99;fill:#000000;fill-opacity:1;fill-rule:nonzero;stroke:#000000;stroke-width:0.0269608;stroke-dasharray:none;stroke-opacity:1;paint-order:fill markers stroke"
         id="ellipse54842"
         cx="11.937802"
         cy="6.7084155"
         rx="0.19290741"
         ry="0.4093459"
         transform="rotate(3.1810796)" /><ellipse
         style="opacity:0.99;fill:#ffffff;fill-opacity:1;fill-rule:nonzero;stroke:none;stroke-width:0.0340083;stroke-dasharray:none;stroke-opacity:1;paint-order:fill markers stroke"
         id="ellipse54844"
         cx="10.283075"
         cy="6.5824413"
         rx="0.18337148"
         ry="0.234475"
         transform="rotate(3.1810796)" /><ellipse
         style="opacity:0.99;fill:#ffffff;fill-opacity:1;fill-rule:nonzero;stroke:none;stroke-width:0.0263852;stroke-dasharray:none;stroke-opacity:1;paint-order:fill markers stroke"
         id="ellipse54846"
         cx="11.933417"
         cy="6.5283275"
         rx="0.13607951"
         ry="0.19018912"
         transform="rotate(3.1810796)" /><path
         style="opacity:0.99;fill:#000000;fill-opacity:1;fill-rule:nonzero;stroke:#000000;stroke-width:0.0340083;stroke-dasharray:none;stroke-opacity:1;paint-order:fill markers stroke"
         d="m 9.2066443,6.056545 c 0.5228311,-0.4289167 0.9774747,-0.129824 1.2669417,0.389556 0.01134,0.012688 0.04969,0.08104 0.04302,0.09271 C 10.096327,6.2103467 9.8236083,6.0613956 9.2690082,6.0720379 c -0.021343,0.00484 -0.085041,0.013326 -0.085041,0.013326 z"
         id="path54848"
         sodipodi:nodetypes="cccccc" /><path
         style="opacity:0.99;fill:#000000;fill-opacity:1;fill-rule:nonzero;stroke:#000000;stroke-width:0.0340083;stroke-dasharray:none;stroke-opacity:1;paint-order:fill markers stroke"
         d="m 11.37202,6.6405433 c 0.150369,-0.3279725 0.402009,-0.3626735 0.620974,-0.2304364 -0.222467,0.025522 -0.45119,0.2063704 -0.612972,0.3031343 0.0013,-0.024007 -0.008,-0.072701 -0.008,-0.072701 z"
         id="path54850"
         sodipodi:nodetypes="ccccc" /><path
         style="opacity:0.99;fill:none;fill-opacity:1;fill-rule:nonzero;stroke:#000000;stroke-width:0.0340083;stroke-dasharray:none;stroke-opacity:1;paint-order:fill markers stroke"
         d="m 11.017249,7.7439664 c -0.0057,0.025231 -0.01368,0.09291 -0.01108,0.1228612 0.0026,0.029947 0.0257,0.073811 0.07617,0.085131 0.05047,0.01132 0.08772,0.030421 0.116493,0.049054 0.02877,0.018629 0.109889,0.091263 0.11201,0.1297023 0.0021,0.038437 -0.03278,0.1301705 -0.04693,0.1549296 -0.01415,0.024759 0.0083,0.081356 -0.04268,0.078525 -0.05094,-0.00283 -0.130407,-0.028536 -0.155876,-0.029951 -0.02547,-0.00142 -0.122387,-0.019575 -0.122387,-0.019575 l 0.04693,-0.00165 0.07098,0.025233"
         id="path54852" /><path
         style="opacity:0.99;fill:none;fill-opacity:1;fill-rule:nonzero;stroke:#000000;stroke-width:0.0340083;stroke-dasharray:none;stroke-opacity:1;paint-order:fill markers stroke"
         d="m 10.623645,8.9270521 c -0.02594,0.00707 -0.376365,0.030177 -0.464088,-2.473e-4 C 10.071833,8.8963838 9.8942659,8.7970987 9.8746932,8.7662043 9.8551221,8.7353134 9.7315543,8.6603209 9.7126903,8.6166931 c -0.018863,-0.043624 -0.01839,-0.1287567 -0.01839,-0.1287567 0,0 -0.086547,0.1016366 -0.1039979,0.109182 -0.01745,0.00755 -0.059898,0.00519 -0.059898,0.00519"
         id="path54854" /><path
         style="opacity:0.99;fill:#ff2a2a;fill-opacity:0.962825;fill-rule:nonzero;stroke:#000000;stroke-width:0.034;stroke-dasharray:none;stroke-opacity:1;paint-order:fill markers stroke"
         d="m 9.674935,8.541769 c 0,0 0.282857,0.998841 0.601072,0.91045 0.318213,-0.08839 0.380091,-0.185627 0.380091,-0.185627 l 0.106071,-0.212141 0.07072,-0.11491 C 10.863529,8.908901 9.797133,8.6723 9.728518,8.599005 Z"
         id="path54872"
         sodipodi:nodetypes="cscccsc" /><path
         style="opacity:0.99;fill:#ffffff;fill-opacity:0.962825;fill-rule:nonzero;stroke:none;stroke-width:0.034;stroke-dasharray:none;stroke-opacity:1;paint-order:fill markers stroke"
         d="m 9.708083,8.608065 0.09281,0.269601 c 0,0 0.643059,0.274015 0.802167,0.220979 0.159107,-0.05304 0.150269,-0.05303 0.150269,-0.05303 -0.0055,0.0027 0.05399,-0.0439 0.05723,-0.102409 0.001,-0.0184 -1.098488,-0.336467 -1.10248,-0.335138 z"
         id="path54874"
         sodipodi:nodetypes="ccscsc" /><path
         style="opacity:0.99;fill:#24283c;fill-opacity:0.956863;fill-rule:nonzero;stroke:none;stroke-width:0.034;stroke-dasharray:none;stroke-opacity:1;paint-order:fill markers stroke"
         d="m 8.1615098,12.989857 c -0.03536,0.0442 -0.07071,0.530357 -0.106072,0.609911 -0.03536,0.07955 -0.318214,0.61875 -0.353571,0.654107 -0.03536,0.03536 -0.37125,0.256339 -0.486161,0.327054 -0.11491,0.07071 -0.36241,0.265178 -0.441964,0.309375 -0.07955,0.0442 -0.327054,0.106071 -0.388929,0.05303 -0.06188,-0.05303 -0.167946,-0.11491 -0.150268,-0.220982 0.01768,-0.106071 0.477322,-0.503838 0.671786,-0.760178 0.194465,-0.25634 0.530358,-0.883929 0.530358,-0.883929 z"
         id="path78694" /><path
         style="opacity:0.99;fill:#2b1100;fill-opacity:1;fill-rule:nonzero;stroke:none;stroke-width:0.034;stroke-dasharray:none;stroke-opacity:1;paint-order:fill markers stroke"
         d="m 6.0192738,14.88432 -0.120621,0.713126 c 0,0 0.450803,0.114911 0.503839,0.09723 0.05304,-0.01768 0.441964,-0.0088 0.441964,-0.0088 0,0 0.114911,-0.327054 -0.12375,-0.486161 -0.23866,-0.159144 -0.483876,-0.400363 -0.483876,-0.400363 z"
         id="path82553"
         sodipodi:nodetypes="ccscccc" /><path
         style="opacity:0.99;fill:#e2ddda;fill-opacity:1;fill-rule:nonzero;stroke:none;stroke-width:0.034;stroke-dasharray:none;stroke-opacity:1;paint-order:fill markers stroke"
         d="m 5.8898128,15.535571 -0.03536,0.212143 c 0,0 0.08839,0.07955 0.159107,0.106072 0.07071,0.02652 0.362411,0.03536 0.441965,0.03536 0.07955,0 0.353571,-0.0088 0.353571,-0.0088 h 0.06188 l -0.02652,-0.203303 c 0,0 -0.291696,0.01768 -0.335893,0.01768 -0.0442,0 -0.132589,0.02652 -0.229821,0 -0.09723,-0.02652 -0.229821,-0.07071 -0.282857,-0.08839 -0.05304,-0.01768 -0.106072,-0.07071 -0.106072,-0.07071 z"
         id="path83148" /><path
         style="opacity:0.99;fill:#434860;fill-opacity:1;fill-rule:nonzero;stroke:none;stroke-width:0.0397993;stroke-dasharray:none;stroke-opacity:1;paint-order:fill markers stroke"
         d="m 6.3651768,11.402372 c 0.791018,0.580751 1.412432,0.794618 2.2362,0.818639 0,0 0.332609,0.08834 0.169079,0.224697 -0.163525,0.136358 -0.293627,0.439463 -0.406556,0.504564 -0.112931,0.06509 -0.573043,0.238707 -0.699964,0.245246 -0.12692,0.0065 -0.226875,-0.03144 -0.390836,-0.06673 -0.163953,-0.03524 -0.298507,-0.06525 -0.448679,-0.12772 -0.150171,-0.06247 -0.762984,-0.222241 -0.811959,-0.427221 -0.049,-0.204978 -0.03142,-0.376474 -0.07546,-0.447533 -0.04403,-0.07106 0.118668,-0.876106 0.118668,-0.876106 z"
         id="path54826"
         sodipodi:nodetypes="ccscsscsccc" /><path
         style="opacity:0.99;fill:#552200;fill-opacity:1;fill-rule:nonzero;stroke:#2b1100;stroke-width:0.034;stroke-dasharray:none;stroke-opacity:1;paint-order:fill markers stroke"
         d="m 8.0356798,9.0699294 c 0,0 -1.840767,1.8035696 -1.922656,2.0296496 -0.08189,0.226081 0.65052,0.810708 0.911049,0.911991 0.260529,0.101279 0.472414,0.111674 0.737275,0.124668 0.264859,0.01299 0.643793,0.226284 0.854815,0.254337 0.211022,0.02805 0.263994,0.03065 0.263994,0.03065 0,0 0.04224,-0.691625 0.04543,-1.115899 l 0.0081,-1.058551 c 0.0031,-0.4065946 -0.0066,-0.6368536 -0.07458,-0.6932906 -0.06804,-0.05644 -0.02821,0.263453 -0.198708,0.131186 -0.170512,-0.132265 -0.192501,-0.044847 -0.310038,-0.174507 -0.117538,-0.129665 -0.314699,-0.440237 -0.314699,-0.440237 z"
         id="path54858"
         sodipodi:nodetypes="csssscssssscc" /><path
         style="opacity:0.99;fill:#552200;fill-opacity:0.984314;fill-rule:nonzero;stroke:#2b1100;stroke-width:0.0340083;stroke-dasharray:none;stroke-opacity:1;paint-order:fill markers stroke"
         d="m 5.6176688,13.844167 c 0,0 0.427219,0.929043 0.420833,1.031583 -0.0063,0.102539 -0.05125,0.438163 -0.110631,0.49721 -0.05937,0.05906 -0.195898,0.202133 -0.220458,0.257009 -0.02457,0.05487 -0.146114,-0.144464 -0.151436,-0.206136 -0.0053,-0.06168 -0.09321,-0.292048 -0.147763,-0.435042 -0.05455,-0.142989 -0.114427,-0.347656 -0.1974,-0.589011 -0.08297,-0.241352 -0.134492,-0.376401 -0.158736,-0.439954 -0.02425,-0.06355 -0.124578,-0.207279 -0.07273,-0.190658 0.05184,0.01663 0.340126,-0.03875 0.499419,-0.02671 0.159277,0.01219 0.138913,0.101703 0.138913,0.101703 z"
         id="path54832" /><path
         style="opacity:0.99;fill:#43485f;fill-opacity:0.976471;fill-rule:nonzero;stroke:none;stroke-width:0.034;stroke-dasharray:none;stroke-opacity:1;paint-order:fill markers stroke"
         d="m 6.4287798,13.169742 c 0,0.100005 0,0.337518 0,0.337518 0,0 -0.362518,0.225011 -0.612531,0.225011 -0.250013,0 -0.337517,0 -0.337517,0 0,0 0.0875,0.262513 0.150008,0.350018 0.0625,0.0875 0.287514,0.762539 0.325016,0.812541 0.0375,0.05 0,0.162509 0.20001,0.025 0.200011,-0.137507 0.487525,-0.262513 0.625032,-0.375019 0.137507,-0.112506 0.250013,-0.262514 0.350018,-0.437523 0.100005,-0.175008 0.150008,-0.175008 0.162508,-0.387519 0.0125,-0.212511 0.05,-0.325017 -0.0375,-0.462524 -0.0875,-0.137507 -0.112505,-0.262513 -0.187509,-0.287515 -0.075,-0.025 -0.637533,0.20001 -0.637533,0.20001 z"
         id="path77725" /><path
         style="opacity:0.99;fill:#c87137;fill-opacity:0.992157;fill-rule:nonzero;stroke:none;stroke-width:0.0340083;stroke-dasharray:none;stroke-opacity:1;paint-order:fill markers stroke"
         d="m 6.6883128,10.004132 0.551118,0.608146 c 0,0 -0.295107,0.266848 -0.319183,0.296278 -0.02403,0.02945 -0.109133,0.367606 -0.101906,0.412822 0.0072,0.04522 0.02276,0.362509 0.04738,0.446516 0.02461,0.084 0.06343,0.336829 0.06343,0.336829 0,0 0.0115,-0.128157 0.141255,-0.04656 0.129757,0.0816 0.151962,0.06047 0.161062,0.09738 0.0091,0.03691 0.154923,0.279028 0.154923,0.279028 l 0.02757,0.302586 c 0,0 0.06235,0.109955 -0.02357,0.142859 -0.08587,0.03296 -0.117436,0.09553 -0.132954,0.04846 -0.01553,-0.0471 -0.02328,-0.205734 -0.02328,-0.205734 l 0.0091,0.307134 0.06128,0.153294 c 0,0 0.01794,0.152233 -0.124129,0.163747 -0.142067,0.01145 -0.253365,-0.07463 -0.253365,-0.07463 0,0 -0.02486,-0.0057 -0.131097,0.04014 -0.106191,0.0458 -0.205193,0.136726 -0.250147,0.06555 -0.04494,-0.07117 -0.105677,-0.111037 -0.153578,-0.130552 -0.0479,-0.01956 -0.127353,0.02355 -0.185399,0.01045 -0.05806,-0.01311 -0.177105,0.01233 -0.200654,-0.115044 -0.02355,-0.12735 -0.03077,-0.172559 -0.05433,-0.299906 -0.02356,-0.127359 -0.05029,-0.124677 -0.01393,-0.247206 0.03638,-0.122533 0.09205,-0.214555 0.131928,-0.27528 0.0399,-0.06071 0.05191,-0.07544 0.07891,-0.156514 0.02702,-0.08106 -0.136727,-0.205194 -0.134322,-0.370267 0.0024,-0.165075 -0.02489,-0.27583 -0.04844,-0.403179 -0.02357,-0.12734 -0.05834,-0.204923 -0.0348,-0.347789 0.02356,-0.14286 0.0091,-0.233298 0.100031,-0.404523 0.091,-0.171216 0.05026,-0.145571 0.224155,-0.298079 0.17389,-0.152506 0.148188,-0.185245 0.235933,-0.226452 0.08776,-0.04121 0.148836,-0.2227956 0.148836,-0.2227956 z"
         id="path61541"
         sodipodi:nodetypes="ccccscscccsscccscscccssssssssssscc" /><path
         style="opacity:0.99;fill:#552200;fill-opacity:1;fill-rule:nonzero;stroke:#2b1100;stroke-width:0.034;stroke-dasharray:none;stroke-opacity:1;paint-order:fill markers stroke"
         d="m 7.5538378,9.5945594 c -0.175009,-0.025 -0.800041,0.100005 -0.950049,0.275014 -0.150007,0.1750086 0.05,0.4750236 0.05,0.4750236 0,0 0.275014,0.57503 0.475024,0.57503 0.200011,0 0.550029,-0.450024 0.550029,-0.450024 l 0.275016,-0.312514 C 7.8557148,9.9285914 7.7361238,9.7541434 7.5538378,9.5945594 Z"
         id="path75116"
         sodipodi:nodetypes="cscsccc" /></g></g></svg>
