<?xml version="1.0" encoding="UTF-8" standalone="no"?>
<!-- Created with Inkscape (http://www.inkscape.org/) -->

<svg
   width="50"
   height="70"
   viewBox="0 0 13.229166 18.520833"
   version="1.1"
   id="svg18473"
   xml:space="preserve"
   inkscape:version="1.2.2 (732a01da63, 2022-12-09)"
   sodipodi:docname="oshosi_move_6.svg"
   xmlns:inkscape="http://www.inkscape.org/namespaces/inkscape"
   xmlns:sodipodi="http://sodipodi.sourceforge.net/DTD/sodipodi-0.dtd"
   xmlns="http://www.w3.org/2000/svg"
   xmlns:svg="http://www.w3.org/2000/svg"><sodipodi:namedview
     id="namedview18475"
     pagecolor="#ffffff"
     bordercolor="#000000"
     borderopacity="0.25"
     inkscape:showpageshadow="2"
     inkscape:pageopacity="0.0"
     inkscape:pagecheckerboard="0"
     inkscape:deskcolor="#d1d1d1"
     inkscape:document-units="mm"
     showgrid="true"
     inkscape:zoom="14.96633"
     inkscape:cx="23.987177"
     inkscape:cy="20.779977"
     inkscape:window-width="1366"
     inkscape:window-height="705"
     inkscape:window-x="-8"
     inkscape:window-y="-8"
     inkscape:window-maximized="1"
     inkscape:current-layer="g1509"><inkscape:grid
       type="xygrid"
       id="grid36773"
       originx="0"
       originy="0" /></sodipodi:namedview><defs
     id="defs18470" /><g
     inkscape:label="Capa 1"
     inkscape:groupmode="layer"
     id="layer1"><path
       style="opacity:0.99;fill:#fde0a4;fill-opacity:1;fill-rule:nonzero;stroke:none;stroke-width:0.1;stroke-dasharray:none;stroke-opacity:1;paint-order:fill markers stroke"
       d="m -101.026,40.768853 c 0,0 0.71779,-3.53779 0.541,-3.64386 -0.17679,-0.10607 1.025358,-0.17678 1.308214,-0.56571 0.282858,-0.38893 0.707144,-0.81322 0.813215,-1.27286 0.106072,-0.45964 0.212143,-1.09607 0.212143,-1.44964 0,-0.35358 -0.106071,-1.30822 -0.106071,-1.30822 v -0.14143 c 0,0 4.348927,0.21215 6.611783,1.41429 2.262857,1.20214 2.368929,1.27286 2.368929,1.27286 0,0 0.990002,-0.77786 1.060714,-0.91929 0.07072,-0.14143 0.459645,-0.35357 0.459645,-0.35357 l 0.459642,0.99 c 0,0 0.141428,4.31357 -0.03536,4.98536 -0.176787,0.67178 -0.106071,0.31821 -0.14143,0.495 -0.03536,0.17678 -0.141428,1.20214 -0.141428,1.52035 0,0.31822 0.07071,1.13143 0.03536,1.44965 -0.03536,0.31821 -0.565713,1.87393 -0.565713,1.87393 0,0 -1.025359,0.99 -1.272858,1.09607 -0.247499,0.10607 -1.485,0.63643 -1.661784,0.70714 -0.176787,0.0707 -0.707144,0.14143 -0.883931,0.14143 -0.176784,0 -1.308214,0 -1.661784,0 -0.353571,0 -1.308214,-0.14143 -1.626428,-0.21214 -0.318215,-0.0707 -1.096071,-0.2475 -1.555716,-0.31822 -0.459642,-0.0707 -1.272857,-0.38893 -1.626428,-0.56571 -0.353571,-0.17679 -1.025356,-0.45965 -1.166786,-0.53036 -0.141428,-0.0707 -0.777858,-0.67178 -0.989998,-0.77786 -0.21214,-0.10607 -0.70715,-0.495 -0.81322,-0.63642 -0.10607,-0.14143 -0.495,-0.49501 -0.495,-0.49501 v -0.45964 c 0,0 -0.45964,0.495 -0.99,0.21215 -0.53035,-0.28286 -1.30821,-0.35358 -1.59107,-0.70715 -0.28286,-0.35357 -0.60107,-1.13143 -0.60107,-1.27286 0,-0.14142 -0.0354,-0.42428 0,-0.70714 0.0354,-0.28286 0.14143,-0.7425 0.14143,-0.7425 0,0 0.21214,-0.35357 0.63643,-0.60107 0.42428,-0.2475 0.56571,-0.38893 0.77786,-0.42429 0.21214,-0.0354 0.84857,0.0354 0.84857,0.0354 0,0 0.495,0.17679 0.60107,0.35357 0.10607,0.17679 0.31821,0.45965 0.42428,0.60107 0.10607,0.14143 0.35357,0.45965 0.42429,0.60108 0.0707,0.14142 0.2015,0.35564 0.2015,0.35564 z"
       id="path32083" /><path
       style="opacity:0.99;fill:#ff6600;fill-opacity:1;fill-rule:nonzero;stroke:none;stroke-width:0.1;stroke-dasharray:none;stroke-opacity:1;paint-order:fill markers stroke"
       d="m -103.77615,32.368433 c 0,0 -3.65018,1.85009 -2.70013,4.85024 0.95004,3.00015 1.40007,3.15016 1.40007,3.15016 l 0.15001,-0.05 c 0,0 0.55002,-1.00005 0.80004,-1.10006 0.25001,-0.1 0.60003,-0.30001 0.90004,-0.25001 0.30002,0.05 1.20006,0.35002 1.30007,0.60003 0.1,0.25002 0.50002,0.65003 0.65003,0.85005 0.15001,0.20001 0.35002,0.30001 0.35002,0.30001 0,0 0.25001,-0.90004 0.40002,-1.35007 0.15001,-0.45002 0.20001,-0.65003 0.15001,-1.05005 -0.05,-0.40002 -0.15001,-0.90005 -0.15001,-0.90005 l -0.25001,-0.65003 c 0.955262,0.71155 3.449013,0.57575 2.703689,-2.67943 -0.311283,-1.35952 0.02071,-1.47936 0.02071,-1.47936 0,0 0.375756,-0.24143 1.175798,-0.0914 0.800039,0.15001 1.80009,0.30002 2.350119,0.50003 0.550026,0.20001 1.400071,0.45002 1.800092,0.60003 0.400019,0.15001 1.450073,0.50002 1.700086,0.70003 0.250013,0.20002 0.900046,0.40002 1.150059,0.55003 0.250013,0.15001 0.800039,0.45002 0.800039,0.45002 0,0 0.425022,-0.77504 0.675035,-0.92505 0.250012,-0.15 0.525028,-0.47501 0.525028,-0.47501 l 0.300016,0.075 0.200011,0.77504 -3e-6,0.97505 c 0,0 0.600031,-0.82504 0.850044,-1.27507 0.250013,-0.45002 0.350017,-0.80004 0.60003,-1.30006 0.250013,-0.50003 0.400021,-0.90005 0.400021,-1.35007 0,-0.45003 0.250013,-1.55008 0.150008,-2.30012 -0.100005,-0.75004 -0.100005,-0.90005 -0.250013,-1.20006 -0.150008,-0.30002 -0.150008,-0.55003 -0.250012,-0.75004 -0.100005,-0.20001 -0.20001,-0.50003 -0.20001,-0.50003 0,0 0.05,0.60003 -0.150008,1.10006 -0.200012,0.50003 -0.350017,1.05005 -0.350017,1.05005 0,0 0.150005,-0.95004 -0.35002,-2.50012 -0.500025,-1.55008 -0.350017,-1.70009 -0.350017,-1.70009 v -0.30001 c 0,0 -0.100005,0.75003 -0.700035,1.15005 -0.600032,0.40002 -1.450075,1.05006 -2.000102,1.15006 -0.550029,0.10001 -2.100109,0.45003 -2.500127,0.45003 h -1.750092 c -0.200009,0 -0.700034,-0.10001 -0.700034,-0.10001 0,0 0.750038,0.15001 1.350068,-0.70004 0.60003,-0.85004 0.550029,-0.90004 0.550029,-0.90004 0,0 -0.750038,0.20001 -1.200063,0.20001 h -1.650081 c -0.300017,0 -2.200114,0.55003 -2.550131,0.65003 -0.350018,0.10001 -2.150107,0.50003 -2.550127,1.05005 -0.40003,0.55003 -1.65009,1.55008 -1.75009,1.8001 -0.10001,0.25001 -0.15001,0.35001 -0.45003,1.10005 -0.30001,0.75004 -0.25001,1.15006 -0.35002,1.45008 -0.1,0.30001 -0.25001,0.35002 -0.25001,0.35002 z"
       id="path32085"
       sodipodi:nodetypes="csccsssscssccscssssscsccccsssssscscsccsssscscssssssscc" /><path
       style="opacity:0.99;fill:#fde0a4;fill-opacity:0.992157;fill-rule:nonzero;stroke:none;stroke-width:0.108535;stroke-dasharray:none;stroke-opacity:1;paint-order:fill markers stroke"
       d="m -99.321539,45.497833 v 0.70618 c 0,0 -0.09175,0.83457 0.734045,0.96296 0.825802,0.1284 1.238702,0.321 1.238702,0.321 l 0.09175,-1.32307 c 0,0 -0.734043,-0.21768 -1.2387,-0.41027 -0.504657,-0.1926 -0.550533,-0.44939 -0.550533,-0.44939 z"
       id="path32087"
       sodipodi:nodetypes="ccsccscc" /><path
       style="opacity:0.99;fill:#48a4df;fill-opacity:1;fill-rule:nonzero;stroke:#0055d4;stroke-width:0.1;stroke-dasharray:none;stroke-opacity:1;paint-order:fill markers stroke"
       d="m -101.77604,50.669363 c -0.20001,-0.30002 -1.50008,-1.50008 -1.55008,-1.8501 -0.05,-0.35001 -0.10001,-0.2 0.60003,-0.65003 0.70003,-0.45002 1.35007,-0.80004 1.75009,-0.85004 0.40002,-0.05 1.000048,-0.10001 1.000048,-0.10001 l -1.000048,0.05 c 0,0 0.35001,-0.80003 0.80004,-1.00005 0.45002,-0.20001 0.800038,-0.45002 0.800038,-0.45002 0,0 0.300016,0.45002 0.600032,0.80004 0.300014,0.35002 0.450022,0.70004 0.950048,0.55003 0.500025,-0.15001 0.650033,-0.45002 0.650033,-0.45002 0,0 1.20006,4.40022 0.950048,6.30032 -0.250013,1.90009 0.300016,1.80009 0,1.90009 -0.300014,0.10001 -2.050103,0.05 -2.050103,0.05 0,0 -1.100058,-0.25001 -1.300067,-0.25001 H -100.926 c -0.25001,0 -0.50003,0.25001 -0.75004,0 -0.25001,-0.25002 -0.80004,-0.90005 -0.85004,-1.9501 -0.05,-1.05006 -0.05,-1.15006 0.45002,-1.55008 0.50003,-0.40002 0.70004,-0.40002 0.70004,-0.40002 0,0 0.44144,-0.11465 0.99147,-0.41467 0.550027,-0.30001 1.408649,-1.48543 1.408649,-1.48543 -0.548972,1.05529 -1.329719,1.69338 -2.350119,1.9001 z"
       id="path32089"
       sodipodi:nodetypes="csssccscsscsscssssscsccc" /><path
       style="opacity:0.99;fill:#444960;fill-opacity:1;fill-rule:nonzero;stroke:none;stroke-width:0.1;stroke-dasharray:none;stroke-opacity:1;paint-order:fill markers stroke"
       d="m -103.30112,54.894573 c 0,0 0.50002,2.67514 0.52503,2.95016 0.025,0.27501 0.1,1.90009 0.025,2.0251 -0.075,0.12501 -0.50003,0.82504 -0.57503,0.95005 -0.075,0.125 -0.90005,1.9501 -1.02505,2.0251 -0.12501,0.075 -0.72504,1.07506 -0.72504,1.07506 0,0 0.55002,0.15 0.72504,0.15 0.175,0 1.32506,-0.125 1.65008,-0.17501 0.32501,-0.05 0.70003,-0.05 0.95005,-0.05 0.25001,0 0.55002,0.45002 0.65003,0.45002 0.10001,0 0,-0.37501 0.025,-0.62503 0.025,-0.25001 -0.025,-0.35001 0.20001,-0.52503 0.22501,-0.175 0.45002,-0.15 0.60003,-0.75003 0.15001,-0.60003 0.300016,-1.37507 0.35002,-1.60009 0.05,-0.22501 0.150008,-0.70003 -0.025,-1.15005 -0.17501,-0.45003 -0.22501,-1.05006 -0.32502,-1.17506 -0.1,-0.12501 -0.35002,-2.10011 -0.60003,-2.45013 -0.25001,-0.35002 -0.97505,-1.37507 -0.97505,-1.37507 z"
       id="path32091" /><path
       style="opacity:0.99;fill:#23283b;fill-opacity:1;fill-rule:nonzero;stroke:none;stroke-width:0.1;stroke-dasharray:none;stroke-opacity:1;paint-order:fill markers stroke"
       d="m -98.650885,57.394703 c 0,0 0.850043,1.55008 0.975051,1.62509 0.125005,0.075 0.60003,1.07505 0.60003,1.07505 0,0 0.05,0.85004 -0.05,1.37507 -0.100007,0.52503 -0.300016,1.52508 -0.300016,1.77509 0,0.25001 -0.250013,0.67504 -0.150009,0.67504 0.100005,0 1.000051,0.075 1.600081,0.075 0.600033,0 0.625033,0.15 1.475076,0.025 0.850043,-0.12501 1.100056,-0.1 1.250064,-0.15001 0.150008,-0.05 -0.05,0 -0.175009,-0.40002 -0.125005,-0.40001 -0.05,-0.075 -0.200009,-0.67503 -0.150008,-0.60003 -0.325017,-1.07506 -0.300016,-1.57508 0.025,-0.50003 -0.400021,-2.0251 -0.750038,-2.22512 -0.350018,-0.2 -0.500026,-0.62503 -0.700035,-0.77503 -0.200012,-0.15001 -1.475076,-1.42508 -1.475076,-1.42508 l -0.750038,-0.125 c 0,0 -0.650034,0.52502 -0.750038,0.57503 -0.100005,0.05 -0.300017,0.15 -0.300018,0.15 z"
       id="path32093" /><path
       style="opacity:0.99;fill:#474e61;fill-opacity:1;fill-rule:nonzero;stroke:none;stroke-width:0.1;stroke-dasharray:none;stroke-opacity:1;paint-order:fill markers stroke"
       d="m -102.32607,54.444553 6.175313,0.42502 c 0,0 0.450024,0.65004 0.100004,1.05006 -0.350017,0.40002 -0.700034,0.80004 -0.950047,1.00005 -0.250013,0.20001 -0.725038,0.55003 -1.025051,0.60003 -0.300017,0.05 -0.625034,0.125 -1.025054,0.075 -0.400019,-0.05 -0.900044,0.025 -1.275065,-0.1 -0.37502,-0.12501 -0.82504,-0.075 -1.00005,-0.60003 -0.17501,-0.52503 -0.32502,-1.35007 -0.45002,-1.52508 -0.12501,-0.17501 -0.67504,-0.95005 -0.67504,-0.95005 z"
       id="path32095" /><path
       style="opacity:0.99;fill:#47a3e3;fill-opacity:1;fill-rule:nonzero;stroke:#0055d4;stroke-width:0.1;stroke-dasharray:none;stroke-opacity:1;paint-order:fill markers stroke"
       d="m -105.05121,63.995043 c 0,0 3.00015,-0.20001 3.27517,-0.075 0.27501,0.125 1.15005,0.60003 1.25006,0.82504 0.10001,0.22501 0.35002,0.75004 0.47502,0.87504 0.125011,0.12501 -0.55002,0.25001 -0.72503,0.20001 -0.17501,-0.05 -0.90005,-0.05 -1.35007,-0.05 -0.45002,0 -1.07506,-0.05 -1.8251,-0.075 -0.75003,-0.025 -1.17506,-0.025 -1.37506,-0.025 -0.20002,0 -0.70004,0.12501 -0.60003,0 0.1,-0.12501 0.25001,-0.97505 0.45002,-1.40007 0.20001,-0.42502 0.42502,-0.27501 0.42502,-0.27501 z"
       id="path32097" /><path
       style="opacity:0.99;fill:#e3dedb;fill-opacity:1;fill-rule:nonzero;stroke:none;stroke-width:0.1;stroke-dasharray:none;stroke-opacity:1;paint-order:fill markers stroke"
       d="m -105.87625,65.745133 c -0.12501,-0.025 -0.27502,0.27501 -0.27502,0.27501 0,0 0.05,0.40002 0.20001,0.45002 0.15001,0.05 0.17501,0.05 0.87505,0.12501 0.70003,0.075 1.30006,0.10001 1.82509,0.10001 0.52503,0 1.80009,-0.075 2.0501,-0.10001 0.25002,-0.025 0.85005,-0.05 1.07506,-0.15001 0.225012,-0.1 0.40002,-0.17501 0.40002,-0.35001 0,-0.17501 -0.125005,-0.45003 -0.250012,-0.45003 -0.125008,0 -5.900298,0.10001 -5.900298,0.10001 z"
       id="path32099" /><path
       style="opacity:0.99;fill:#47a3e3;fill-opacity:1;fill-rule:nonzero;stroke:#0055d4;stroke-width:0.1;stroke-dasharray:none;stroke-opacity:1;paint-order:fill markers stroke"
       d="m -97.166568,63.712183 c 0,0 3.000153,-0.20001 3.275169,-0.075 0.275013,0.125 1.150056,0.60003 1.250063,0.82504 0.100005,0.22501 0.350018,0.75004 0.475023,0.87504 0.125007,0.12501 -0.550027,0.25001 -0.725035,0.20001 -0.175012,-0.05 -0.900047,-0.05 -1.350071,-0.05 -0.450022,0 -1.075055,-0.05 -1.825093,-0.075 -0.750039,-0.025 -1.17506,-0.025 -1.375069,-0.025 -0.200012,0 -0.700037,0.12501 -0.60003,0 0.100004,-0.12501 0.250013,-0.97505 0.450022,-1.40007 0.200009,-0.42502 0.425021,-0.27501 0.425021,-0.27501 z"
       id="path32101" /><path
       style="opacity:0.99;fill:#e3dedb;fill-opacity:1;fill-rule:nonzero;stroke:none;stroke-width:0.1;stroke-dasharray:none;stroke-opacity:1;paint-order:fill markers stroke"
       d="m -97.99161,65.462273 c -0.125005,-0.025 -0.275013,0.27501 -0.275013,0.27501 0,0 0.05,0.40002 0.200009,0.45002 0.150008,0.05 0.175008,0.05 0.875046,0.12501 0.700034,0.075 1.300064,0.10001 1.825093,0.10001 0.525026,0 1.80009,-0.075 2.050103,-0.10001 0.250012,-0.025 0.850045,-0.05 1.075055,-0.15001 0.225012,-0.1 0.40002,-0.17501 0.40002,-0.35001 0,-0.17501 -0.125005,-0.45003 -0.250012,-0.45003 -0.125005,0 -5.900301,0.10001 -5.900301,0.10001 z"
       id="path32103" /><ellipse
       style="opacity:0.99;fill:#000000;fill-opacity:1;fill-rule:nonzero;stroke:#000000;stroke-width:0.1;stroke-dasharray:none;stroke-opacity:1;paint-order:fill markers stroke"
       id="ellipse32105"
       cx="-93.767143"
       cy="40.183392"
       rx="0.77785712"
       ry="1.3966072" /><ellipse
       style="opacity:0.99;fill:#000000;fill-opacity:1;fill-rule:nonzero;stroke:#000000;stroke-width:0.0792771;stroke-dasharray:none;stroke-opacity:1;paint-order:fill markers stroke"
       id="ellipse32107"
       cx="-88.857292"
       cy="40.094173"
       rx="0.56723642"
       ry="1.203665" /><ellipse
       style="opacity:0.99;fill:#ffffff;fill-opacity:1;fill-rule:nonzero;stroke:none;stroke-width:0.1;stroke-dasharray:none;stroke-opacity:1;paint-order:fill markers stroke"
       id="ellipse32109"
       cx="-93.722946"
       cy="39.723751"
       rx="0.53919643"
       ry="0.68946427" /><ellipse
       style="opacity:0.99;fill:#ffffff;fill-opacity:1;fill-rule:nonzero;stroke:none;stroke-width:0.0775845;stroke-dasharray:none;stroke-opacity:1;paint-order:fill markers stroke"
       id="ellipse32111"
       cx="-88.870186"
       cy="39.564632"
       rx="0.40013629"
       ry="0.55924344" /><path
       style="opacity:0.99;fill:#000000;fill-opacity:1;fill-rule:nonzero;stroke:#000000;stroke-width:0.1;stroke-dasharray:none;stroke-opacity:1;paint-order:fill markers stroke"
       d="m -95.941607,36.647673 c 0.335891,-0.28286 0.848572,-0.76018 1.11375,-0.7425 0.265179,0.0177 0.636429,0.053 0.919285,0.0884 0.282858,0.0354 0.689464,0.30054 0.830894,0.38893 0.141428,0.0884 0.371251,0.53036 0.548035,0.65411 0.176786,0.12375 0.335893,0.51268 0.37125,0.54804 0.03536,0.0354 0.159107,0.22982 0.141427,0.26517 -0.01767,0.0354 -0.318214,-0.22098 -0.459642,-0.25634 -0.141427,-0.0353 -0.609909,-0.30937 -0.715981,-0.41544 -0.106071,-0.10607 -0.07071,-0.22982 -0.291698,-0.32705 -0.220982,-0.0972 -0.822052,-0.18563 -0.892767,-0.20331 -0.07071,-0.0177 -0.353571,-0.0177 -0.574553,-0.0177 -0.220983,0 -0.742501,0.0354 -0.804376,0.053 -0.06187,0.0177 -0.247499,0.053 -0.247499,0.053 z"
       id="path32113" /><path
       style="opacity:0.99;fill:#000000;fill-opacity:1;fill-rule:nonzero;stroke:#000000;stroke-width:0.1;stroke-dasharray:none;stroke-opacity:1;paint-order:fill markers stroke"
       d="m -89.488927,38.008923 c 0.03536,-0.0884 0.194463,-0.53036 0.406606,-0.65411 0.212143,-0.12375 0.583393,-0.37125 0.671785,-0.4066 0.08839,-0.0354 0.282858,0 0.441965,0.0707 0.159107,0.0707 0.318215,0.12375 0.265179,0.21214 -0.05304,0.0884 -0.159107,0.0884 -0.406609,0.14143 -0.247499,0.053 -0.494999,0.14143 -0.583393,0.26518 -0.08839,0.12375 -0.335891,0.2475 -0.441963,0.40661 -0.106071,0.1591 -0.318214,0.2475 -0.318214,0.17678 0,-0.0707 -0.03536,-0.21214 -0.03536,-0.21214 z"
       id="path32115" /><path
       style="opacity:0.99;fill:none;fill-opacity:1;fill-rule:nonzero;stroke:#000000;stroke-width:0.1;stroke-dasharray:none;stroke-opacity:1;paint-order:fill markers stroke"
       d="m -90.350461,41.306383 c -0.01249,0.075 -0.025,0.27501 -0.01249,0.36252 0.01249,0.0875 0.08751,0.21251 0.237513,0.23751 0.150009,0.025 0.262512,0.075 0.350018,0.12501 0.08751,0.05 0.337518,0.25001 0.350017,0.36252 0.01252,0.1125 -0.075,0.38752 -0.112506,0.46252 -0.0375,0.075 0.0375,0.23751 -0.112504,0.23751 -0.150008,0 -0.387522,-0.0625 -0.462526,-0.0625 -0.075,0 -0.362516,-0.0375 -0.362516,-0.0375 l 0.137507,-0.0125 0.21251,0.0625"
       id="path32117" /><path
       style="opacity:0.99;fill:none;fill-opacity:1;fill-rule:nonzero;stroke:#000000;stroke-width:0.1;stroke-dasharray:none;stroke-opacity:1;paint-order:fill markers stroke"
       d="m -91.31301,44.844063 c -0.075,0.025 -1.100055,0.15001 -1.36257,0.075 -0.262514,-0.075 -0.800039,-0.33752 -0.862544,-0.42503 -0.0625,-0.0875 -0.437523,-0.28751 -0.500025,-0.41252 -0.0625,-0.125 -0.075,-0.37502 -0.075,-0.37502 0,0 -0.237512,0.31252 -0.287515,0.33752 -0.05,0.025 -0.175009,0.025 -0.175009,0.025"
       id="path32119" /><path
       style="opacity:0.99;fill:#fde0a4;fill-opacity:0.992157;fill-rule:nonzero;stroke:none;stroke-width:0.1;stroke-dasharray:none;stroke-opacity:1;paint-order:fill markers stroke"
       d="m -103.37613,48.944273 1.9001,2.0251 c 0,0 -0.97505,0.52503 -1.02505,0.62503 -0.05,0.10001 -0.075,1.12506 -0.025,1.25007 0.05,0.12501 0.30001,1.02505 0.42502,1.25006 0.12501,0.22501 0.40002,0.92505 0.40002,0.92505 0,0 -0.05,-0.37502 0.37502,-0.22501 0.42502,0.15001 0.47502,0.075 0.52503,0.17501 0.05,0.1 0.62503,0.70003 0.62503,0.70003 l 0.275012,0.85005 c 0,0 0.250013,0.27501 0.025,0.42502 -0.225012,0.15001 -0.275012,0.35002 -0.350022,0.22501 -0.075,-0.12501 -0.2,-0.57503 -0.2,-0.57503 l 0.22501,0.87505 0.275011,0.40002 c 0,0 0.150008,0.42502 -0.250011,0.55003 -0.40002,0.125 -0.77504,-0.05 -0.77504,-0.05 0,0 -0.075,0 -0.35002,0.20001 -0.27501,0.20001 -0.50003,0.52503 -0.67503,0.35002 -0.17501,-0.17501 -0.37502,-0.25001 -0.52503,-0.27502 -0.15001,-0.025 -0.35002,0.15001 -0.52503,0.15001 -0.17501,0 -0.50002,0.15001 -0.65003,-0.20001 -0.15001,-0.35002 -0.20001,-0.47502 -0.35002,-0.82504 -0.15001,-0.35002 -0.22501,-0.32502 -0.20001,-0.70004 0.025,-0.37501 0.12501,-0.67503 0.20001,-0.87504 0.075,-0.20001 0.10001,-0.25001 0.12501,-0.50002 0.025,-0.25002 -0.52503,-0.50003 -0.62504,-0.97505 -0.1,-0.47503 -0.25001,-0.77504 -0.40001,-1.12506 -0.15001,-0.35002 -0.30002,-0.55003 -0.32502,-0.97505 -0.025,-0.42502 -0.12501,-0.67504 0.025,-1.22506 0.15001,-0.55003 0.05,-0.45003 0.45002,-1.00006 0.40002,-0.55002 0.57503,-0.72503 0.80004,-0.90004 0.22502,-0.17501 0.60003,-0.55003 0.60003,-0.55003 z"
       id="path32121" /><path
       style="opacity:0.99;fill:#fde0a4;fill-opacity:0.992157;fill-rule:nonzero;stroke:none;stroke-width:0.1;stroke-dasharray:none;stroke-opacity:1;paint-order:fill markers stroke"
       d="m -95.875741,54.294543 c 0,0.10001 -0.175012,0.15001 -0.300017,0.52503 -0.125008,0.37502 -0.100004,0.55003 -0.125008,0.72504 -0.025,0.17501 -0.350017,0.72504 -0.350017,0.72504 0,0 -0.700035,0.37501 -0.275014,0.67503 0.425024,0.30001 0.625031,0.50002 0.750039,0.50002 0.125005,0 0.350017,-0.1 0.525026,-0.32501 0.175009,-0.22501 0.375021,-0.40002 0.525029,-0.72504 0.150005,-0.32502 0.375017,-0.92505 0.375017,-0.92505 0,0 -0.05,0.45003 0.175009,0.62504 0.225012,0.17501 0,0.27501 0.450025,0.15 0.450021,-0.125 0.800039,-0.67503 0.825042,-0.80004 0.025,-0.125 0.225009,-0.47502 0.225009,-0.72503 0,-0.25002 -0.150005,-0.50003 -0.375017,-0.62504 -0.225013,-0.125 -0.750038,-0.1 -1.000051,-0.075 -0.250013,0.025 -1.225063,0.10001 -1.225063,0.10001 z"
       id="path32123"
       sodipodi:nodetypes="csscsssscsssssscc" /><path
       style="opacity:0.99;fill:#fde0a4;fill-opacity:0.992157;fill-rule:nonzero;stroke:none;stroke-width:0.1;stroke-dasharray:none;stroke-opacity:1;paint-order:fill markers stroke"
       d="m -95.725736,57.219693 c 0,0 -0.150005,0.42502 -0.150005,0.57503 0,0.15001 0.375017,0.42502 0.62503,0.52503 0.250013,0.10001 0.825042,0.20001 1.100055,0.025 0.275016,-0.17501 0.475025,-0.55003 0.55003,-0.67503 0.075,-0.12501 0.100004,-0.17501 0.225012,-0.17501 0.125005,0 0.425021,-0.27502 0.425021,-0.42503 0,-0.15 0,-0.27501 0,-0.40002 0,-0.125 0.300014,-0.35001 0.300014,-0.35001 0,0 0.150008,-0.22501 0.150008,-0.50003 0,-0.27501 0.250013,-0.45002 -0.075,-0.50002 -0.325017,-0.05 -0.625031,-0.30002 -0.625031,-0.30002 0,0 -1.800092,-0.075 -1.975101,0.10001 -0.175009,0.175 -0.550029,2.1001 -0.550029,2.1001 z"
       id="path32125" /><path
       style="opacity:0.99;fill:#fde0a4;fill-opacity:1;fill-rule:nonzero;stroke:none;stroke-width:0.1;stroke-dasharray:none;stroke-opacity:1;paint-order:fill markers stroke"
       d="m -101.026,40.768853 c 0,0 0.71779,-3.53779 0.541,-3.64386 -0.17679,-0.10607 1.025358,-0.17678 1.308214,-0.56571 0.282858,-0.38893 0.707144,-0.81322 0.813215,-1.27286 0.106072,-0.45964 0.212143,-1.09607 0.212143,-1.44964 0,-0.35358 -0.106071,-1.30822 -0.106071,-1.30822 v -0.14143 c 0,0 4.348927,0.21215 6.611783,1.41429 2.262857,1.20214 2.368929,1.27286 2.368929,1.27286 0,0 0.990002,-0.77786 1.060714,-0.91929 0.07072,-0.14143 0.459645,-0.35357 0.459645,-0.35357 l 0.459642,0.99 c 0,0 0.141428,4.31357 -0.03536,4.98536 -0.176787,0.67178 -0.106071,0.31821 -0.14143,0.495 -0.03536,0.17678 -0.141428,1.20214 -0.141428,1.52035 0,0.31822 0.07071,1.13143 0.03536,1.44965 -0.03536,0.31821 -0.565713,1.87393 -0.565713,1.87393 0,0 -1.025359,0.99 -1.272858,1.09607 -0.247499,0.10607 -1.485,0.63643 -1.661784,0.70714 -0.176787,0.0707 -0.707144,0.14143 -0.883931,0.14143 -0.176784,0 -1.308214,0 -1.661784,0 -0.353571,0 -1.308214,-0.14143 -1.626428,-0.21214 -0.318215,-0.0707 -1.096071,-0.2475 -1.555716,-0.31822 -0.459642,-0.0707 -1.272857,-0.38893 -1.626428,-0.56571 -0.353571,-0.17679 -1.025356,-0.45965 -1.166786,-0.53036 -0.141428,-0.0707 -0.777858,-0.67178 -0.989998,-0.77786 -0.21214,-0.10607 -0.70715,-0.495 -0.81322,-0.63642 -0.10607,-0.14143 -0.495,-0.49501 -0.495,-0.49501 v -0.45964 c 0,0 -0.45964,0.495 -0.99,0.21215 -0.53035,-0.28286 -1.30821,-0.35358 -1.59107,-0.70715 -0.28286,-0.35357 -0.60107,-1.13143 -0.60107,-1.27286 0,-0.14142 -0.0354,-0.42428 0,-0.70714 0.0354,-0.28286 0.14143,-0.7425 0.14143,-0.7425 0,0 0.21214,-0.35357 0.63643,-0.60107 0.42428,-0.2475 0.56571,-0.38893 0.77786,-0.42429 0.21214,-0.0354 0.84857,0.0354 0.84857,0.0354 0,0 0.495,0.17679 0.60107,0.35357 0.10607,0.17679 0.31821,0.45965 0.42428,0.60107 0.10607,0.14143 0.35357,0.45965 0.42429,0.60108 0.0707,0.14142 0.2015,0.35564 0.2015,0.35564 z"
       id="path37522" /><path
       style="opacity:0.99;fill:#ff6600;fill-opacity:1;fill-rule:nonzero;stroke:none;stroke-width:0.1;stroke-dasharray:none;stroke-opacity:1;paint-order:fill markers stroke"
       d="m -103.77615,32.368433 c 0,0 -3.65018,1.85009 -2.70013,4.85024 0.95004,3.00015 1.40007,3.15016 1.40007,3.15016 l 0.15001,-0.05 c 0,0 0.55002,-1.00005 0.80004,-1.10006 0.25001,-0.1 0.60003,-0.30001 0.90004,-0.25001 0.30002,0.05 1.20006,0.35002 1.30007,0.60003 0.1,0.25002 0.50002,0.65003 0.65003,0.85005 0.15001,0.20001 0.35002,0.30001 0.35002,0.30001 0,0 0.25001,-0.90004 0.40002,-1.35007 0.15001,-0.45002 0.20001,-0.65003 0.15001,-1.05005 -0.05,-0.40002 -0.15001,-0.90005 -0.15001,-0.90005 l -0.25001,-0.65003 c 0.955262,0.71155 3.449013,0.57575 2.703689,-2.67943 -0.311283,-1.35952 0.02071,-1.47936 0.02071,-1.47936 0,0 0.375756,-0.24143 1.175798,-0.0914 0.800039,0.15001 1.80009,0.30002 2.350119,0.50003 0.550026,0.20001 1.400071,0.45002 1.800092,0.60003 0.400019,0.15001 1.450073,0.50002 1.700086,0.70003 0.250013,0.20002 0.900046,0.40002 1.150059,0.55003 0.250013,0.15001 0.800039,0.45002 0.800039,0.45002 0,0 0.425022,-0.77504 0.675035,-0.92505 0.250012,-0.15 0.525028,-0.47501 0.525028,-0.47501 l 0.300016,0.075 0.200011,0.77504 -3e-6,0.97505 c 0,0 0.600031,-0.82504 0.850044,-1.27507 0.250013,-0.45002 0.350017,-0.80004 0.60003,-1.30006 0.250013,-0.50003 0.400021,-0.90005 0.400021,-1.35007 0,-0.45003 0.250013,-1.55008 0.150008,-2.30012 -0.100005,-0.75004 -0.100005,-0.90005 -0.250013,-1.20006 -0.150008,-0.30002 -0.150008,-0.55003 -0.250012,-0.75004 -0.100005,-0.20001 -0.20001,-0.50003 -0.20001,-0.50003 0,0 0.05,0.60003 -0.150008,1.10006 -0.200012,0.50003 -0.350017,1.05005 -0.350017,1.05005 0,0 0.150005,-0.95004 -0.35002,-2.50012 -0.500025,-1.55008 -0.350017,-1.70009 -0.350017,-1.70009 v -0.30001 c 0,0 -0.100005,0.75003 -0.700035,1.15005 -0.600032,0.40002 -1.450075,1.05006 -2.000102,1.15006 -0.550029,0.10001 -2.100109,0.45003 -2.500127,0.45003 h -1.750092 c -0.200009,0 -0.700034,-0.10001 -0.700034,-0.10001 0,0 0.750038,0.15001 1.350068,-0.70004 0.60003,-0.85004 0.550029,-0.90004 0.550029,-0.90004 0,0 -0.750038,0.20001 -1.200063,0.20001 h -1.650081 c -0.300017,0 -2.200114,0.55003 -2.550131,0.65003 -0.350018,0.10001 -2.150107,0.50003 -2.550127,1.05005 -0.40003,0.55003 -1.65009,1.55008 -1.75009,1.8001 -0.10001,0.25001 -0.15001,0.35001 -0.45003,1.10005 -0.30001,0.75004 -0.25001,1.15006 -0.35002,1.45008 -0.1,0.30001 -0.25001,0.35002 -0.25001,0.35002 z"
       id="path37524"
       sodipodi:nodetypes="csccsssscssccscssssscsccccsssssscscsccsssscscssssssscc" /><path
       style="opacity:0.99;fill:#fde0a4;fill-opacity:0.992157;fill-rule:nonzero;stroke:none;stroke-width:0.108535;stroke-dasharray:none;stroke-opacity:1;paint-order:fill markers stroke"
       d="m -99.321539,45.497833 v 0.70618 c 0,0 -0.09175,0.83457 0.734045,0.96296 0.825802,0.1284 1.238702,0.321 1.238702,0.321 l 0.09175,-1.32307 c 0,0 -0.734043,-0.21768 -1.2387,-0.41027 -0.504657,-0.1926 -0.550533,-0.44939 -0.550533,-0.44939 z"
       id="path37526"
       sodipodi:nodetypes="ccsccscc" /><path
       style="opacity:0.99;fill:#48a4df;fill-opacity:1;fill-rule:nonzero;stroke:#0055d4;stroke-width:0.1;stroke-dasharray:none;stroke-opacity:1;paint-order:fill markers stroke"
       d="m -101.77604,50.669363 c -0.20001,-0.30002 -1.50008,-1.50008 -1.55008,-1.8501 -0.05,-0.35001 -0.10001,-0.2 0.60003,-0.65003 0.70003,-0.45002 1.35007,-0.80004 1.75009,-0.85004 0.40002,-0.05 1.000048,-0.10001 1.000048,-0.10001 l -1.000048,0.05 c 0,0 0.35001,-0.80003 0.80004,-1.00005 0.45002,-0.20001 0.800038,-0.45002 0.800038,-0.45002 0,0 0.300016,0.45002 0.600032,0.80004 0.300014,0.35002 0.450022,0.70004 0.950048,0.55003 0.500025,-0.15001 0.650033,-0.45002 0.650033,-0.45002 0,0 1.20006,4.40022 0.950048,6.30032 -0.250013,1.90009 0.300016,1.80009 0,1.90009 -0.300014,0.10001 -2.050103,0.05 -2.050103,0.05 0,0 -1.100058,-0.25001 -1.300067,-0.25001 H -100.926 c -0.25001,0 -0.50003,0.25001 -0.75004,0 -0.25001,-0.25002 -0.80004,-0.90005 -0.85004,-1.9501 -0.05,-1.05006 -0.05,-1.15006 0.45002,-1.55008 0.50003,-0.40002 0.70004,-0.40002 0.70004,-0.40002 0,0 0.44144,-0.11465 0.99147,-0.41467 0.550027,-0.30001 1.408649,-1.48543 1.408649,-1.48543 -0.548972,1.05529 -1.329719,1.69338 -2.350119,1.9001 z"
       id="path37528"
       sodipodi:nodetypes="csssccscsscsscssssscsccc" /><path
       style="opacity:0.99;fill:#444960;fill-opacity:1;fill-rule:nonzero;stroke:none;stroke-width:0.1;stroke-dasharray:none;stroke-opacity:1;paint-order:fill markers stroke"
       d="m -103.30112,54.894573 c 0,0 0.50002,2.67514 0.52503,2.95016 0.025,0.27501 0.1,1.90009 0.025,2.0251 -0.075,0.12501 -0.50003,0.82504 -0.57503,0.95005 -0.075,0.125 -0.90005,1.9501 -1.02505,2.0251 -0.12501,0.075 -0.72504,1.07506 -0.72504,1.07506 0,0 0.55002,0.15 0.72504,0.15 0.175,0 1.32506,-0.125 1.65008,-0.17501 0.32501,-0.05 0.70003,-0.05 0.95005,-0.05 0.25001,0 0.55002,0.45002 0.65003,0.45002 0.10001,0 0,-0.37501 0.025,-0.62503 0.025,-0.25001 -0.025,-0.35001 0.20001,-0.52503 0.22501,-0.175 0.45002,-0.15 0.60003,-0.75003 0.15001,-0.60003 0.300016,-1.37507 0.35002,-1.60009 0.05,-0.22501 0.150008,-0.70003 -0.025,-1.15005 -0.17501,-0.45003 -0.22501,-1.05006 -0.32502,-1.17506 -0.1,-0.12501 -0.35002,-2.10011 -0.60003,-2.45013 -0.25001,-0.35002 -0.97505,-1.37507 -0.97505,-1.37507 z"
       id="path37530" /><path
       style="opacity:0.99;fill:#23283b;fill-opacity:1;fill-rule:nonzero;stroke:none;stroke-width:0.1;stroke-dasharray:none;stroke-opacity:1;paint-order:fill markers stroke"
       d="m -98.650885,57.394703 c 0,0 0.850043,1.55008 0.975051,1.62509 0.125005,0.075 0.60003,1.07505 0.60003,1.07505 0,0 0.05,0.85004 -0.05,1.37507 -0.100007,0.52503 -0.300016,1.52508 -0.300016,1.77509 0,0.25001 -0.250013,0.67504 -0.150009,0.67504 0.100005,0 1.000051,0.075 1.600081,0.075 0.600033,0 0.625033,0.15 1.475076,0.025 0.850043,-0.12501 1.100056,-0.1 1.250064,-0.15001 0.150008,-0.05 -0.05,0 -0.175009,-0.40002 -0.125005,-0.40001 -0.05,-0.075 -0.200009,-0.67503 -0.150008,-0.60003 -0.325017,-1.07506 -0.300016,-1.57508 0.025,-0.50003 -0.400021,-2.0251 -0.750038,-2.22512 -0.350018,-0.2 -0.500026,-0.62503 -0.700035,-0.77503 -0.200012,-0.15001 -1.475076,-1.42508 -1.475076,-1.42508 l -0.750038,-0.125 c 0,0 -0.650034,0.52502 -0.750038,0.57503 -0.100005,0.05 -0.300017,0.15 -0.300018,0.15 z"
       id="path37532" /><path
       style="opacity:0.99;fill:#474e61;fill-opacity:1;fill-rule:nonzero;stroke:none;stroke-width:0.1;stroke-dasharray:none;stroke-opacity:1;paint-order:fill markers stroke"
       d="m -102.32607,54.444553 6.175313,0.42502 c 0,0 0.450024,0.65004 0.100004,1.05006 -0.350017,0.40002 -0.700034,0.80004 -0.950047,1.00005 -0.250013,0.20001 -0.725038,0.55003 -1.025051,0.60003 -0.300017,0.05 -0.625034,0.125 -1.025054,0.075 -0.400019,-0.05 -0.900044,0.025 -1.275065,-0.1 -0.37502,-0.12501 -0.82504,-0.075 -1.00005,-0.60003 -0.17501,-0.52503 -0.32502,-1.35007 -0.45002,-1.52508 -0.12501,-0.17501 -0.67504,-0.95005 -0.67504,-0.95005 z"
       id="path37534" /><path
       style="opacity:0.99;fill:#47a3e3;fill-opacity:1;fill-rule:nonzero;stroke:#0055d4;stroke-width:0.1;stroke-dasharray:none;stroke-opacity:1;paint-order:fill markers stroke"
       d="m -105.05121,63.995043 c 0,0 3.00015,-0.20001 3.27517,-0.075 0.27501,0.125 1.15005,0.60003 1.25006,0.82504 0.10001,0.22501 0.35002,0.75004 0.47502,0.87504 0.125011,0.12501 -0.55002,0.25001 -0.72503,0.20001 -0.17501,-0.05 -0.90005,-0.05 -1.35007,-0.05 -0.45002,0 -1.07506,-0.05 -1.8251,-0.075 -0.75003,-0.025 -1.17506,-0.025 -1.37506,-0.025 -0.20002,0 -0.70004,0.12501 -0.60003,0 0.1,-0.12501 0.25001,-0.97505 0.45002,-1.40007 0.20001,-0.42502 0.42502,-0.27501 0.42502,-0.27501 z"
       id="path37536" /><path
       style="opacity:0.99;fill:#47a3e3;fill-opacity:1;fill-rule:nonzero;stroke:#0055d4;stroke-width:0.1;stroke-dasharray:none;stroke-opacity:1;paint-order:fill markers stroke"
       d="m -97.166568,63.712183 c 0,0 3.000153,-0.20001 3.275169,-0.075 0.275013,0.125 1.150056,0.60003 1.250063,0.82504 0.100005,0.22501 0.350018,0.75004 0.475023,0.87504 0.125007,0.12501 -0.550027,0.25001 -0.725035,0.20001 -0.175012,-0.05 -0.900047,-0.05 -1.350071,-0.05 -0.450022,0 -1.075055,-0.05 -1.825093,-0.075 -0.750039,-0.025 -1.17506,-0.025 -1.375069,-0.025 -0.200012,0 -0.700037,0.12501 -0.60003,0 0.100004,-0.12501 0.250013,-0.97505 0.450022,-1.40007 0.200009,-0.42502 0.425021,-0.27501 0.425021,-0.27501 z"
       id="path37538" /><path
       style="opacity:0.99;fill:#e3dedb;fill-opacity:1;fill-rule:nonzero;stroke:none;stroke-width:0.1;stroke-dasharray:none;stroke-opacity:1;paint-order:fill markers stroke"
       d="m -97.99161,65.462273 c -0.125005,-0.025 -0.275013,0.27501 -0.275013,0.27501 0,0 0.05,0.40002 0.200009,0.45002 0.150008,0.05 0.175008,0.05 0.875046,0.12501 0.700034,0.075 1.300064,0.10001 1.825093,0.10001 0.525026,0 1.80009,-0.075 2.050103,-0.10001 0.250012,-0.025 0.850045,-0.05 1.075055,-0.15001 0.225012,-0.1 0.40002,-0.17501 0.40002,-0.35001 0,-0.17501 -0.125005,-0.45003 -0.250012,-0.45003 -0.125005,0 -5.900301,0.10001 -5.900301,0.10001 z"
       id="path37540" /><ellipse
       style="opacity:0.99;fill:#000000;fill-opacity:1;fill-rule:nonzero;stroke:#000000;stroke-width:0.1;stroke-dasharray:none;stroke-opacity:1;paint-order:fill markers stroke"
       id="ellipse37542"
       cx="-93.767143"
       cy="40.183392"
       rx="0.77785712"
       ry="1.3966072" /><ellipse
       style="opacity:0.99;fill:#000000;fill-opacity:1;fill-rule:nonzero;stroke:#000000;stroke-width:0.0792771;stroke-dasharray:none;stroke-opacity:1;paint-order:fill markers stroke"
       id="ellipse37544"
       cx="-88.857292"
       cy="40.094173"
       rx="0.56723642"
       ry="1.203665" /><ellipse
       style="opacity:0.99;fill:#ffffff;fill-opacity:1;fill-rule:nonzero;stroke:none;stroke-width:0.1;stroke-dasharray:none;stroke-opacity:1;paint-order:fill markers stroke"
       id="ellipse37546"
       cx="-93.722946"
       cy="39.723751"
       rx="0.53919643"
       ry="0.68946427" /><ellipse
       style="opacity:0.99;fill:#ffffff;fill-opacity:1;fill-rule:nonzero;stroke:none;stroke-width:0.0775845;stroke-dasharray:none;stroke-opacity:1;paint-order:fill markers stroke"
       id="ellipse37548"
       cx="-88.870186"
       cy="39.564632"
       rx="0.40013629"
       ry="0.55924344" /><path
       style="opacity:0.99;fill:#000000;fill-opacity:1;fill-rule:nonzero;stroke:#000000;stroke-width:0.1;stroke-dasharray:none;stroke-opacity:1;paint-order:fill markers stroke"
       d="m -95.941607,36.647673 c 0.335891,-0.28286 0.848572,-0.76018 1.11375,-0.7425 0.265179,0.0177 0.636429,0.053 0.919285,0.0884 0.282858,0.0354 0.689464,0.30054 0.830894,0.38893 0.141428,0.0884 0.371251,0.53036 0.548035,0.65411 0.176786,0.12375 0.335893,0.51268 0.37125,0.54804 0.03536,0.0354 0.159107,0.22982 0.141427,0.26517 -0.01767,0.0354 -0.318214,-0.22098 -0.459642,-0.25634 -0.141427,-0.0353 -0.609909,-0.30937 -0.715981,-0.41544 -0.106071,-0.10607 -0.07071,-0.22982 -0.291698,-0.32705 -0.220982,-0.0972 -0.822052,-0.18563 -0.892767,-0.20331 -0.07071,-0.0177 -0.353571,-0.0177 -0.574553,-0.0177 -0.220983,0 -0.742501,0.0354 -0.804376,0.053 -0.06187,0.0177 -0.247499,0.053 -0.247499,0.053 z"
       id="path37550" /><path
       style="opacity:0.99;fill:#000000;fill-opacity:1;fill-rule:nonzero;stroke:#000000;stroke-width:0.1;stroke-dasharray:none;stroke-opacity:1;paint-order:fill markers stroke"
       d="m -89.488927,38.008923 c 0.03536,-0.0884 0.194463,-0.53036 0.406606,-0.65411 0.212143,-0.12375 0.583393,-0.37125 0.671785,-0.4066 0.08839,-0.0354 0.282858,0 0.441965,0.0707 0.159107,0.0707 0.318215,0.12375 0.265179,0.21214 -0.05304,0.0884 -0.159107,0.0884 -0.406609,0.14143 -0.247499,0.053 -0.494999,0.14143 -0.583393,0.26518 -0.08839,0.12375 -0.335891,0.2475 -0.441963,0.40661 -0.106071,0.1591 -0.318214,0.2475 -0.318214,0.17678 0,-0.0707 -0.03536,-0.21214 -0.03536,-0.21214 z"
       id="path37552" /><path
       style="opacity:0.99;fill:none;fill-opacity:1;fill-rule:nonzero;stroke:#000000;stroke-width:0.1;stroke-dasharray:none;stroke-opacity:1;paint-order:fill markers stroke"
       d="m -90.350461,41.306383 c -0.01249,0.075 -0.025,0.27501 -0.01249,0.36252 0.01249,0.0875 0.08751,0.21251 0.237513,0.23751 0.150009,0.025 0.262512,0.075 0.350018,0.12501 0.08751,0.05 0.337518,0.25001 0.350017,0.36252 0.01252,0.1125 -0.075,0.38752 -0.112506,0.46252 -0.0375,0.075 0.0375,0.23751 -0.112504,0.23751 -0.150008,0 -0.387522,-0.0625 -0.462526,-0.0625 -0.075,0 -0.362516,-0.0375 -0.362516,-0.0375 l 0.137507,-0.0125 0.21251,0.0625"
       id="path37554" /><path
       style="opacity:0.99;fill:none;fill-opacity:1;fill-rule:nonzero;stroke:#000000;stroke-width:0.1;stroke-dasharray:none;stroke-opacity:1;paint-order:fill markers stroke"
       d="m -91.31301,44.844063 c -0.075,0.025 -1.100055,0.15001 -1.36257,0.075 -0.262514,-0.075 -0.800039,-0.33752 -0.862544,-0.42503 -0.0625,-0.0875 -0.437523,-0.28751 -0.500025,-0.41252 -0.0625,-0.125 -0.075,-0.37502 -0.075,-0.37502 0,0 -0.237512,0.31252 -0.287515,0.33752 -0.05,0.025 -0.175009,0.025 -0.175009,0.025"
       id="path37556" /><path
       style="opacity:0.99;fill:#fde0a4;fill-opacity:0.992157;fill-rule:nonzero;stroke:none;stroke-width:0.1;stroke-dasharray:none;stroke-opacity:1;paint-order:fill markers stroke"
       d="m -103.37613,48.944273 1.9001,2.0251 c 0,0 -0.97505,0.52503 -1.02505,0.62503 -0.05,0.10001 -0.075,1.12506 -0.025,1.25007 0.05,0.12501 0.30001,1.02505 0.42502,1.25006 0.12501,0.22501 0.40002,0.92505 0.40002,0.92505 0,0 -0.05,-0.37502 0.37502,-0.22501 0.42502,0.15001 0.47502,0.075 0.52503,0.17501 0.05,0.1 0.62503,0.70003 0.62503,0.70003 l 0.275012,0.85005 c 0,0 0.250013,0.27501 0.025,0.42502 -0.225012,0.15001 -0.275012,0.35002 -0.350022,0.22501 -0.075,-0.12501 -0.2,-0.57503 -0.2,-0.57503 l 0.22501,0.87505 0.275011,0.40002 c 0,0 0.150008,0.42502 -0.250011,0.55003 -0.40002,0.125 -0.77504,-0.05 -0.77504,-0.05 0,0 -0.075,0 -0.35002,0.20001 -0.27501,0.20001 -0.50003,0.52503 -0.67503,0.35002 -0.17501,-0.17501 -0.37502,-0.25001 -0.52503,-0.27502 -0.15001,-0.025 -0.35002,0.15001 -0.52503,0.15001 -0.17501,0 -0.50002,0.15001 -0.65003,-0.20001 -0.15001,-0.35002 -0.20001,-0.47502 -0.35002,-0.82504 -0.15001,-0.35002 -0.22501,-0.32502 -0.20001,-0.70004 0.025,-0.37501 0.12501,-0.67503 0.20001,-0.87504 0.075,-0.20001 0.10001,-0.25001 0.12501,-0.50002 0.025,-0.25002 -0.52503,-0.50003 -0.62504,-0.97505 -0.1,-0.47503 -0.25001,-0.77504 -0.40001,-1.12506 -0.15001,-0.35002 -0.30002,-0.55003 -0.32502,-0.97505 -0.025,-0.42502 -0.12501,-0.67504 0.025,-1.22506 0.15001,-0.55003 0.05,-0.45003 0.45002,-1.00006 0.40002,-0.55002 0.57503,-0.72503 0.80004,-0.90004 0.22502,-0.17501 0.60003,-0.55003 0.60003,-0.55003 z"
       id="path37558" /><path
       style="opacity:0.99;fill:#fde0a4;fill-opacity:0.992157;fill-rule:nonzero;stroke:none;stroke-width:0.1;stroke-dasharray:none;stroke-opacity:1;paint-order:fill markers stroke"
       d="m -95.875741,54.294543 c 0,0.10001 -0.175012,0.15001 -0.300017,0.52503 -0.125008,0.37502 -0.100004,0.55003 -0.125008,0.72504 -0.025,0.17501 -0.350017,0.72504 -0.350017,0.72504 0,0 -0.700035,0.37501 -0.275014,0.67503 0.425024,0.30001 0.625031,0.50002 0.750039,0.50002 0.125005,0 0.350017,-0.1 0.525026,-0.32501 0.175009,-0.22501 0.375021,-0.40002 0.525029,-0.72504 0.150005,-0.32502 0.375017,-0.92505 0.375017,-0.92505 0,0 -0.05,0.45003 0.175009,0.62504 0.225012,0.17501 0,0.27501 0.450025,0.15 0.450021,-0.125 0.800039,-0.67503 0.825042,-0.80004 0.025,-0.125 0.225009,-0.47502 0.225009,-0.72503 0,-0.25002 -0.150005,-0.50003 -0.375017,-0.62504 -0.225013,-0.125 -0.750038,-0.1 -1.000051,-0.075 -0.250013,0.025 -1.225063,0.10001 -1.225063,0.10001 z"
       id="path37560"
       sodipodi:nodetypes="csscsssscsssssscc" /><path
       style="opacity:0.99;fill:#fde0a4;fill-opacity:0.992157;fill-rule:nonzero;stroke:none;stroke-width:0.1;stroke-dasharray:none;stroke-opacity:1;paint-order:fill markers stroke"
       d="m -95.725736,57.219693 c 0,0 -0.150005,0.42502 -0.150005,0.57503 0,0.15001 0.375017,0.42502 0.62503,0.52503 0.250013,0.10001 0.825042,0.20001 1.100055,0.025 0.275016,-0.17501 0.475025,-0.55003 0.55003,-0.67503 0.075,-0.12501 0.100004,-0.17501 0.225012,-0.17501 0.125005,0 0.425021,-0.27502 0.425021,-0.42503 0,-0.15 0,-0.27501 0,-0.40002 0,-0.125 0.300014,-0.35001 0.300014,-0.35001 0,0 0.150008,-0.22501 0.150008,-0.50003 0,-0.27501 0.250013,-0.45002 -0.075,-0.50002 -0.325017,-0.05 -0.625031,-0.30002 -0.625031,-0.30002 0,0 -1.800092,-0.075 -1.975101,0.10001 -0.175009,0.175 -0.550029,2.1001 -0.550029,2.1001 z"
       id="path37562" /><g
       id="g1509"
       transform="translate(11.031429,1.3082143)"><path
         style="opacity:0.99;fill:#c87137;fill-opacity:1;fill-rule:nonzero;stroke:none;stroke-width:0.0340083;stroke-dasharray:none;stroke-opacity:1;paint-order:fill markers stroke"
         d="m -3.603058,5.9937795 c 0,0 -0.1520268,-1.5502612 -0.2100546,-1.5896145 -0.058028,-0.039353 0.8140291,0.3218424 0.9174152,0.1951158 0.1033867,-0.1267266 0.2554639,-0.262791 0.3001555,-0.4168641 0.044692,-0.1540731 0.09272,-0.3681768 0.099392,-0.4882346 0.00667,-0.1200613 -0.011329,-0.4462195 -0.011329,-0.4462195 l 0.00267,-0.048024 c 0,0 1.4727131,0.1541095 2.21839939,0.605011 0.74568663,0.4509015 0.7803697,0.4769169 0.7803697,0.4769169 0,0 0.3508436,-0.2454461 0.37752353,-0.2921355 C 0.89816596,3.943042 1.0342324,3.8783477 1.0342324,3.8783477 l 0.1373924,0.3448376 c 0,0 -0.033382,1.46738 -0.1060896,1.6921559 -0.0727073,0.2247726 -0.042023,0.1060493 -0.057365,0.1654127 -0.015343,0.05936 -0.0707097,0.4055283 -0.0767149,0.5135793 -0.006005,0.1080544 0.002658,0.3855215 -0.0153507,0.4929088 -0.018012,0.1073838 -0.22745732,0.6256336 -0.22745732,0.6256336 0,0 -0.36685285,0.3168129 -0.45289507,0.3481591 -0.0860422,0.031346 -0.51625552,0.1880809 -0.57761852,0.2087548 -0.0613638,0.020671 -0.24278607,0.034679 -0.30281566,0.031343 L -1.2089558,8.2697711 C -1.329014,8.2630986 -1.6505025,8.1970589 -1.7572204,8.1670434 -1.8639389,8.1370313 -2.1247303,8.0623178 -2.2794722,8.0296298 -2.4342135,7.9969487 -2.7043423,7.8735441 -2.8210643,7.8068443 -2.9377861,7.7401412 -3.1605586,7.6314158 -3.207248,7.6047365 -3.2539369,7.5780607 -3.4586986,7.3619481 -3.5287317,7.3219242 -3.5987646,7.2819037 -3.7595068,7.1404975 -3.7928557,7.0904753 -3.826204,7.0404497 -3.9515949,6.9130487 -3.9515949,6.9130487 l 0.00867,-0.1560748 c 0,0 -0.165417,0.1594073 -0.3401669,0.053354 C -4.4578369,6.7042718 -4.7206313,6.6655786 -4.810005,6.5401827 -4.8993795,6.4147869 -4.9927522,6.1446523 -4.9900832,6.0966285 c 0.00267,-0.04802 -0.004,-0.1447354 0.013345,-0.2401157 0.017345,-0.09538 0.062035,-0.2494534 0.062035,-0.2494534 0,0 0.078708,-0.1160543 0.227448,-0.1920881 0.1487409,-0.076034 0.1994341,-0.1213886 0.2721364,-0.1293919 0.072703,-0.00802 0.2874718,0.028035 0.2874718,0.028035 0,0 0.1647449,0.069372 0.1974261,0.1314011 0.032681,0.062032 0.099378,0.1620835 0.1327268,0.2121057 0.033348,0.050026 0.1113838,0.1627508 0.1327266,0.2121091 0.021341,0.049355 0.061708,0.1245633 0.061708,0.1245633 z"
         id="path65490"
         sodipodi:nodetypes="cssssccsccccsssccscsscccccccccssscsccscscc" /><g
         id="g29143"
         transform="rotate(10.259504,13.696244,-53.324936)"><ellipse
           style="opacity:0.99;fill:#c87137;fill-opacity:0.992157;fill-rule:nonzero;stroke:none;stroke-width:0.171524;stroke-dasharray:none;stroke-opacity:1;paint-order:fill markers stroke"
           id="path4347"
           cx="9.0160713"
           cy="6.6354756"
           rx="2.8518746"
           ry="2.8358848" /><path
           style="opacity:0.99;fill:none;fill-opacity:0.992157;fill-rule:nonzero;stroke:#2b1100;stroke-width:0.38011;stroke-dasharray:none;stroke-opacity:1;paint-order:fill markers stroke"
           id="path5099"
           sodipodi:type="arc"
           sodipodi:cx="8.9980841"
           sodipodi:cy="5.2850561"
           sodipodi:rx="2.7141452"
           sodipodi:ry="0.50697601"
           sodipodi:start="0.28424498"
           sodipodi:end="2.8139227"
           sodipodi:arc-type="arc"
           d="M 11.603321,5.4272288 A 2.7141452,0.50697601 0 0 1 9.0570103,5.7919126 2.7141452,0.50697601 0 0 1 6.4283455,5.4482202"
           sodipodi:open="true" /><path
           style="opacity:0.99;fill:#008000;fill-opacity:0.992157;fill-rule:nonzero;stroke:none;stroke-width:0.0799998;stroke-dasharray:none;stroke-opacity:1;paint-order:fill markers stroke"
           d="M 10.572208,5.3271579 C 10.578584,5.3253877 10.450852,4.1907143 9.9004223,3.7184105 9.4434742,3.3263227 9.6175651,2.7991242 9.4938152,2.7991242 c -0.1237502,0 -0.1060717,0.4242846 0,1.1491078 0.1060713,0.7248197 0.2298212,1.2198214 0.4773214,1.4142844 0.2475004,0.1944631 0.5480354,0.4950017 0.5480354,0.4950017 z"
           id="path12676"
           sodipodi:nodetypes="csscscc" /><path
           style="opacity:0.99;fill:#008000;fill-opacity:0.992157;fill-rule:nonzero;stroke:none;stroke-width:0.0581417;stroke-dasharray:none;stroke-opacity:1;paint-order:fill markers stroke"
           d="m 10.951209,5.1445058 c -0.0035,-0.00177 0.06611,-1.1019525 0.365941,-1.559921 0.248912,-0.3801882 0.15408,-0.891384 0.221491,-0.891384 0.06741,0 0.05778,0.411408 0,1.1142309 -0.05778,0.7028193 -0.125191,1.1827988 -0.260011,1.3713599 -0.134821,0.1885575 -0.298532,0.479976 -0.298532,0.479976 z"
           id="path12786"
           sodipodi:nodetypes="csscscc" /><path
           style="opacity:0.99;fill:#44aa00;fill-opacity:0.992157;fill-rule:nonzero;stroke:none;stroke-width:0.051401;stroke-dasharray:none;stroke-opacity:1;paint-order:fill markers stroke"
           d="M 10.400052,5.2195104 C 10.404148,5.2184482 10.322079,4.4893269 9.9684189,4.1858638 9.6748228,3.9339428 9.7866785,3.5952062 9.7071673,3.5952062 c -0.079511,0 -0.068153,0.2726115 0,0.7383229 0.068153,0.465708 0.1476639,0.7837542 0.3066867,0.9087004 0.159023,0.1249462 0.352122,0.3180461 0.352122,0.3180461 z"
           id="path12792"
           sodipodi:nodetypes="csscscc" /><path
           style="opacity:0.99;fill:#44aa00;fill-opacity:0.992157;fill-rule:nonzero;stroke:none;stroke-width:0.051401;stroke-dasharray:none;stroke-opacity:1;paint-order:fill markers stroke"
           d="m 10.764412,5.0382532 c -0.0041,-0.00106 0.07797,-0.7301835 0.431633,-1.0336465 0.293596,-0.2519211 0.181741,-0.5906577 0.261252,-0.5906577 0.07951,0 0.06815,0.2726115 0,0.738323 -0.06815,0.4657079 -0.147664,0.7837541 -0.306687,0.9087003 -0.159023,0.1249462 -0.352122,0.3180462 -0.352122,0.3180462 z"
           id="path12794"
           sodipodi:nodetypes="csscscc" /><path
           style="opacity:0.99;fill:#008000;fill-opacity:1;fill-rule:nonzero;stroke:none;stroke-width:0.0799998;stroke-dasharray:none;stroke-opacity:1;paint-order:fill markers stroke"
           d="m 10.363466,5.5270626 c 0,0 -0.05053,0.1149834 -0.214056,-0.4197953 C 9.9858833,4.5724922 9.9038233,4.3293408 9.9038233,4.3293408"
           id="path12852"
           sodipodi:nodetypes="ccc" /><path
           style="opacity:0.99;fill:#008000;fill-opacity:1;fill-rule:nonzero;stroke:none;stroke-width:0.0799998;stroke-dasharray:none;stroke-opacity:1;paint-order:fill markers stroke"
           d="m 10.962043,5.1762708 c 0,0 0.05053,0.1149833 0.214057,-0.4197953 0.163526,-0.5347752 0.245586,-0.7779266 0.245586,-0.7779266"
           id="path12962"
           sodipodi:nodetypes="ccc" /><path
           style="opacity:0.99;fill:#0066ff;fill-opacity:0.992157;fill-rule:nonzero;stroke:none;stroke-width:0.106576;stroke-dasharray:none;stroke-opacity:1;paint-order:fill markers stroke"
           d="m 10.242493,4.7751372 c -0.0083,0.00212 -0.5182218,-1.4536401 -0.160497,-2.3793098 0.296973,-0.7684558 0.178347,-1.53060995 0.32019,-1.60767823 0.141843,-0.0770679 0.230804,0.60418933 0.528462,1.56477143 0.297657,0.9605645 0.487518,1.7462764 0.31631,2.1404035 -0.171209,0.3941234 -0.523429,1.0988192 -0.523429,1.0988192 z"
           id="path12788"
           sodipodi:nodetypes="csscscc" /><path
           style="opacity:0.99;fill:#2a7fff;fill-opacity:0.992157;fill-rule:nonzero;stroke:none;stroke-width:0.0718617;stroke-dasharray:none;stroke-opacity:1;paint-order:fill markers stroke"
           d="m 10.396303,4.5816124 c -0.0056,0.00142 -0.349424,-0.9801573 -0.108219,-1.6043148 0.200242,-0.5181527 0.120255,-1.0320533 0.215896,-1.0840166 0.09564,-0.051967 0.155626,0.4073896 0.356331,1.0550875 0.200703,0.6476838 0.328721,1.177474 0.213279,1.4432241 -0.115441,0.2657466 -0.352936,0.7409075 -0.352936,0.7409075 z"
           id="path12790"
           sodipodi:nodetypes="csscscc" /><ellipse
           style="opacity:0.99;fill:#ffff00;fill-opacity:0.992157;fill-rule:nonzero;stroke:none;stroke-width:0.109714;stroke-dasharray:none;stroke-opacity:1;paint-order:fill markers stroke"
           id="path5313"
           cx="10.769589"
           cy="5.4935174"
           rx="0.32620108"
           ry="0.52032417" /><path
           style="opacity:0.99;fill:#5599ff;fill-opacity:1;fill-rule:nonzero;stroke:none;stroke-width:0.0241149;stroke-dasharray:none;stroke-opacity:1;paint-order:fill markers stroke"
           d="m 10.656865,4.4446357 c -7.08e-4,0.00106 -0.225384,-0.8209537 -0.09436,-1.3892604 0.101011,-0.4381385 0.01023,-0.8877444 0.01825,-0.9341031 0.04835,1.1631634 0.08395,1.9157828 0.136747,2.7961099 z"
           id="path12796"
           sodipodi:nodetypes="csccc" /><ellipse
           style="opacity:0.99;fill:#dfdf00;fill-opacity:0.992157;fill-rule:nonzero;stroke:none;stroke-width:0.0776124;stroke-dasharray:none;stroke-opacity:1;paint-order:fill markers stroke"
           id="ellipse12964"
           cx="10.784284"
           cy="5.4877505"
           rx="0.22513951"
           ry="0.37726733" /></g><path
         style="opacity:0.99;fill:#2b1100;fill-opacity:0.984314;fill-rule:nonzero;stroke:none;stroke-width:0.0340083;stroke-dasharray:none;stroke-opacity:1;paint-order:fill markers stroke"
         d="m -6.7171149,11.049379 c 0,0 -0.528583,0.87535 -0.617001,0.927674 -0.08839,0.05236 -0.391279,0.203749 -0.473486,0.187798 -0.08221,-0.01594 -0.277272,-0.04851 -0.336468,-0.038 -0.0592,0.0105 0.03743,-0.202035 0.08546,-0.241085 0.04803,-0.03906 0.189243,-0.24118 0.276894,-0.36664 0.08765,-0.125456 0.223329,-0.28997 0.376387,-0.494201 0.153055,-0.204229 0.235836,-0.322717 0.274793,-0.378477 0.03895,-0.05576 0.101495,-0.219507 0.11687,-0.167277 0.01536,0.05223 0.223133,0.259613 0.302657,0.39816 0.07939,0.138619 -0.0061,0.172056 -0.0061,0.172056 z"
         id="path65476" /><path
         style="opacity:0.99;fill:#e3dedb;fill-opacity:1;fill-rule:nonzero;stroke:none;stroke-width:0.0340083;stroke-dasharray:none;stroke-opacity:1;paint-order:fill markers stroke"
         d="m -7.0443179,10.478505 c 0.03131,-0.02998 -0.0231,-0.130234 -0.0231,-0.130234 0,0 -0.121253,-0.06398 -0.164414,-0.03189 -0.04313,0.03212 -0.04802,0.03905 -0.205287,0.219597 -0.157257,0.180552 -0.281096,0.342957 -0.383356,0.489326 -0.102262,0.146367 -0.329697,0.516444 -0.371421,0.591016 -0.04172,0.07457 -0.151626,0.246719 -0.16757,0.328925 -0.01595,0.08221 -0.02912,0.145607 0.01966,0.179694 0.04878,0.0341 0.149813,0.0528 0.17416,0.01795 0.02434,-0.03485 1.121326,-1.664388 1.121326,-1.664388 z"
         id="path65478" /><path
         style="opacity:0.99;fill:#a05a2c;fill-opacity:0.992157;fill-rule:nonzero;stroke:none;stroke-width:0.0340083;stroke-dasharray:none;stroke-opacity:1;paint-order:fill markers stroke"
         d="m -2.2272312,9.338868 0.543502,-0.614962 c 0,0 0.297832,0.263802 0.329743,0.284477 0.03193,0.02065 0.37741484,0.06783 0.42155494,0.05564 0.04413,-0.01219 0.357775,-0.06269 0.438545,-0.09644 0.08076,-0.03375 0.327751,-0.100267 0.327751,-0.100267 0,0 -0.128638,0.0027 -0.06189,-0.135242 0.06676,-0.137978 0.04328,-0.157716 0.07898,-0.17084 0.03567,-0.01313 0.260194,-0.184817 0.260194,-0.184817 l 0.297685,-0.06085 c 0,0 0.102395,-0.07411 0.14459,0.0076 0.0422,0.08171 0.107918,0.106163 0.06284,0.126795 -0.04508,0.02063 -0.201901,0.04588 -0.201901,0.04588 l 0.304245,-0.04301 0.145584,-0.07784 c 0,0 0.14931096,-0.03466 0.17646296,0.105268 0.02715,0.139919 -0.04617,0.260061 -0.04617,0.260061 0,0 -0.0028,0.02534 0.05439,0.125851 0.05722,0.100501 0.158569,0.188823 0.09281,0.241366 -0.06577,0.05253 -0.09867,0.117305 -0.112771,0.16707 -0.01415,0.04976 0.03747,0.123964 0.03088,0.183112 -0.0066,0.05915 0.03181,0.174662 -0.09214,0.212144 -0.123968,0.03748 -0.168101,0.04967 -0.292066,0.08715 -0.123966,0.03748 -0.118344,0.06377 -0.244151,0.04117 -0.125801,-0.02262 -0.223426,-0.06774 -0.28819,-0.100645 -0.06477,-0.03291 -0.08073,-0.04323 -0.164276,-0.06113 -0.08356,-0.01789 -0.188821,0.15857 -0.353148,0.17443 -0.164329,0.01584 -0.271389,0.05523 -0.395353,0.09271 -0.123966,0.03748 -0.1972281,0.08064 -0.3418199,0.07303 -0.144589,-0.0076 -0.232871,0.01677 -0.413104,-0.05472 -0.180232,-0.07147 -0.150213,-0.03389 -0.321007,-0.189861 -0.17079,-0.155969 -0.20049,-0.126802 -0.251141,-0.20946 -0.05065,-0.08266 -0.2378817,-0.123296 -0.2378817,-0.123296 z"
         id="path65480"
         sodipodi:nodetypes="ccccscscccsscccscscccssssssssssscc" /><path
         style="opacity:0.99;fill:none;fill-opacity:0.992157;fill-rule:nonzero;stroke:#0055d4;stroke-width:0.034;stroke-dasharray:none;stroke-opacity:1;paint-order:fill markers stroke"
         d="m -3.5143589,8.856443 c 0,0 0.09455,0.466188 0.278098,0.677007 0.183545,0.210818 0.260482,0.358791 0.336629,0.403684 0.07614,0.04489 0.09217,0.156948 0.33538,-0.151154 0.243213,-0.3081 0.3482177,-0.451416 0.3689087,-0.521304 0.02068,-0.06989 -0.01057,-0.190931 -0.1663827,-0.344358 -0.155812,-0.153431 -0.290148,-0.273666 -0.457666,-0.372426 -0.16752,-0.09876 -0.243663,-0.143653 -0.243663,-0.143653 v 0 l -0.127286,0.007"
         id="path65482" /><path
         style="opacity:0.99;fill:#24283c;fill-opacity:0.962825;fill-rule:nonzero;stroke:none;stroke-width:0.0340083;stroke-dasharray:none;stroke-opacity:1;paint-order:fill markers stroke"
         d="m -5.0580649,11.932791 c 0,0 -0.309751,-0.149623 -0.357377,-0.135833 -0.04763,0.01378 -0.573947,-0.444198 -0.573947,-0.444198 -0.24815,-0.168714 -0.464579,-0.334427 -0.728146,-0.502924 -0.235882,0.746159 -0.384203,0.601599 -0.537286,0.978115 0.546931,0.28265 1.2619,0.764147 1.908496,0.974512 0.07493,-0.04019 1.033136,-0.07445 1.033136,-0.07445 l 1.755876,-0.780062 c 0,0 -1.553742,-0.250867 -1.543062,-0.287363 0.0107,-0.0365 0.223383,-0.513486 0.223383,-0.513486 z"
         id="path65484"
         sodipodi:nodetypes="csccccccccc" /><path
         style="opacity:0.99;fill:#444960;fill-opacity:0.992157;fill-rule:nonzero;stroke:none;stroke-width:0.0340083;stroke-dasharray:none;stroke-opacity:1;paint-order:fill markers stroke"
         d="m -3.7178519,11.874943 c 0,0 0.320472,0.125356 0.387647,0.190989 0.06717,0.06564 0.78762,0.561012 0.79581,0.60991 -0.04091,0.474933 0.279871,0.77838 0.206315,1.279652 0.4824877,0.19795 0.9573157,-0.213626 1.2409517,-0.351512 -0.198218,-0.452603 -0.450442,-0.926263 -0.594727,-1.353228 -0.07755,-0.306798 -0.410852,-0.356878 -0.6411157,-0.507037 -0.144616,-0.0778 -0.323486,-0.210649 -0.376952,-0.220915 -0.05346,-0.01031 -0.561519,-0.267565 -0.703465,-0.302934 -0.141944,-0.03537 -0.132413,0.08252 -0.132413,0.08252 z"
         id="path65486"
         sodipodi:nodetypes="cscccccsscc" /><path
         style="opacity:0.99;fill:#c87137;fill-opacity:0.992157;fill-rule:nonzero;stroke:none;stroke-width:0.0369109;stroke-dasharray:none;stroke-opacity:1;paint-order:fill markers stroke"
         d="m -2.9135259,7.4317034 -0.07583,0.4773027 c 0.027045,0.00287 -0.1263464,-0.1582621 -0.176785,0.083607 -0.077076,0.3696014 0.7648411,0.6963794 0.8980499,0.3936322 L -2.1125909,8.059692 c 0,0 -0.1076356,-0.4127836 -0.2753619,-0.487703 -0.167726,-0.074923 -0.4784727,-0.1379847 -0.4784727,-0.1379847 z"
         id="path65488"
         sodipodi:nodetypes="ccsccscc" /><ellipse
         style="opacity:0.99;fill:#000000;fill-opacity:1;fill-rule:nonzero;stroke:#000000;stroke-width:0.0340083;stroke-dasharray:none;stroke-opacity:1;paint-order:fill markers stroke"
         id="ellipse65492"
         cx="-0.79628623"
         cy="5.9853787"
         rx="0.2645359"
         ry="0.4749622"
         transform="rotate(3.1810796)" /><ellipse
         style="opacity:0.99;fill:#000000;fill-opacity:1;fill-rule:nonzero;stroke:#000000;stroke-width:0.0269608;stroke-dasharray:none;stroke-opacity:1;paint-order:fill markers stroke"
         id="ellipse65494"
         cx="0.87347144"
         cy="5.9550371"
         rx="0.19290741"
         ry="0.4093459"
         transform="rotate(3.1810796)" /><ellipse
         style="opacity:0.99;fill:#ffffff;fill-opacity:1;fill-rule:nonzero;stroke:none;stroke-width:0.0340083;stroke-dasharray:none;stroke-opacity:1;paint-order:fill markers stroke"
         id="ellipse65496"
         cx="-0.78125554"
         cy="5.8290629"
         rx="0.18337148"
         ry="0.234475"
         transform="rotate(3.1810796)" /><ellipse
         style="opacity:0.99;fill:#ffffff;fill-opacity:1;fill-rule:nonzero;stroke:none;stroke-width:0.0263852;stroke-dasharray:none;stroke-opacity:1;paint-order:fill markers stroke"
         id="ellipse65498"
         cx="0.86908656"
         cy="5.7749496"
         rx="0.13607951"
         ry="0.19018912"
         transform="rotate(3.1810796)" /><path
         style="opacity:0.99;fill:#000000;fill-opacity:1;fill-rule:nonzero;stroke:#000000;stroke-width:0.0340083;stroke-dasharray:none;stroke-opacity:1;paint-order:fill markers stroke"
         d="m -1.7988317,4.690348 c 0.2500542,-0.224981 0.4061657,-0.2307737 0.7026791,-0.1837384 0.095379,0.017359 0.22844189,0.1150625 0.27479762,0.1477451 0.13513493,0.1594794 0.24682807,0.3336578 0.3324832,0.5182591 -0.006668,0.011687 -0.1038821,-0.081041 -0.15123793,-0.095717 -0.25445831,-0.1760636 -0.3278502,-0.2815517 -0.62746439,-0.3570196 -0.023676,-0.00734 -0.1197241,-0.012683 -0.1947605,-0.016853 -0.075037,-0.00417 -0.2527909,-0.00199 -0.2741332,0.00282 -0.021343,0.00484 -0.085041,0.013326 -0.085041,0.013326 z"
         id="path65500"
         sodipodi:nodetypes="ccccccsccc" /><path
         style="opacity:0.99;fill:#000000;fill-opacity:1;fill-rule:nonzero;stroke:#000000;stroke-width:0.0340083;stroke-dasharray:none;stroke-opacity:1;paint-order:fill markers stroke"
         d="m 0.3665438,5.2743463 c 0.10675879,-0.2570805 0.30466813,-0.317929 0.53493366,-0.3074748 0.052692,0.02701 0.10571734,0.048026 0.0860404,0.077038 -0.0196785,0.029016 -0.0556945,0.027014 -0.14073674,0.04035 -0.0850407,0.013326 -0.17075034,0.038682 -0.2031007,0.079034 -0.032349,0.040352 -0.11872554,0.077702 -0.15774592,0.1297274 -0.0390199,0.052022 -0.11272317,0.078036 -0.11138855,0.054022 0.001334,-0.024007 -0.008003,-0.072701 -0.008003,-0.072701 z"
         id="path65502"
         sodipodi:nodetypes="ccscssscc" /><path
         style="opacity:0.99;fill:none;fill-opacity:1;fill-rule:nonzero;stroke:#000000;stroke-width:0.0340083;stroke-dasharray:none;stroke-opacity:1;paint-order:fill markers stroke"
         d="m 0.01177324,6.3777694 c -0.00565647,0.025231 -0.01367891,0.09291 -0.0110824957,0.1228612 0.002589806,0.029947 0.0257043457,0.073811 0.0761674057,0.085131 0.05046509,0.01132 0.08772289,0.030421 0.11649255,0.049054 0.0287712,0.018629 0.1098891,0.091263 0.11200998,0.1297023 0.002128,0.038437 -0.0327801,0.1301705 -0.046931,0.1549296 -0.0141488,0.024759 0.008251,0.081356 -0.042684,0.078526 -0.0509366,-0.00283 -0.13040705,-0.028536 -0.15587532,-0.029951 -0.02546692,-0.00142 -0.12238784,-0.019575 -0.12238784,-0.019575 l 0.04692762,-0.00165 0.07098017,0.025233"
         id="path65504" /><path
         style="opacity:0.99;fill:none;fill-opacity:1;fill-rule:nonzero;stroke:#000000;stroke-width:0.0340083;stroke-dasharray:none;stroke-opacity:1;paint-order:fill markers stroke"
         d="m -0.38183124,7.5608551 c -0.0259387,0.00707 -0.37636441,0.030177 -0.46408813,-2.473e-4 -0.0877236,-0.030421 -0.26529073,-0.1297061 -0.28486343,-0.1606005 -0.019571,-0.030891 -0.1431389,-0.1058834 -0.1620029,-0.1495112 -0.018863,-0.043624 -0.01839,-0.1287567 -0.01839,-0.1287567 0,0 -0.086547,0.1016366 -0.1039979,0.109182 -0.01745,0.00755 -0.059898,0.00519 -0.059898,0.00519"
         id="path65506" /><path
         style="opacity:0.99;fill:#ff2a2a;fill-opacity:0.962825;fill-rule:nonzero;stroke:#000000;stroke-width:0.034;stroke-dasharray:none;stroke-opacity:1;paint-order:fill markers stroke"
         d="m -1.330541,7.175572 c 0,0 0.282857,0.998841 0.601072,0.91045 0.318213,-0.08839 0.380091,-0.185627 0.380091,-0.185627 l 0.106071,-0.212141 0.07072,-0.11491 c 0.03064,-0.03064 -1.035756,-0.267241 -1.104371,-0.340536 z"
         id="path65510"
         sodipodi:nodetypes="cscccsc" /><path
         style="opacity:0.99;fill:#ffffff;fill-opacity:0.962825;fill-rule:nonzero;stroke:none;stroke-width:0.034;stroke-dasharray:none;stroke-opacity:1;paint-order:fill markers stroke"
         d="m -1.297393,7.241868 0.09281,0.269601 c 0,0 0.643059,0.274015 0.802167,0.220979 0.159107,-0.05304 0.150269,-0.05303 0.150269,-0.05303 -0.0055,0.0027 0.05399,-0.0439 0.05723,-0.102409 0.001,-0.0184 -1.098488,-0.336467 -1.10248,-0.335138 z"
         id="path65512"
         sodipodi:nodetypes="ccscsc" /><path
         style="opacity:0.99;fill:#552200;fill-opacity:0.984314;fill-rule:nonzero;stroke:#2b1100;stroke-width:0.0340083;stroke-dasharray:none;stroke-opacity:1;paint-order:fill markers stroke"
         d="m -2.2172702,13.95734 c 0,0 0.938656,-0.405663 1.041022,-0.396914 0.102365,0.0087 0.43686294,0.06135 0.49452394,0.122078 0.05767,0.06072 0.197557,0.20051 0.251852,0.22633 0.05429,0.02583 -0.147798,0.14274 -0.209576,0.146638 -0.06178,0.0039 -0.294122,0.08645 -0.43833594,0.137684 -0.144211,0.05123 -0.350204,0.106373 -0.593411,0.183754 -0.243202,0.07738 -0.379403,0.12577 -0.443499,0.14854 -0.06409,0.02278 -0.2100997,0.119761 -0.1922857,0.06831 0.01783,-0.05144 -0.03089,-0.340928 -0.01517,-0.499901 0.01587,-0.158955 0.1048827,-0.136529 0.1048827,-0.136529 z"
         id="path65516" /><path
         style="opacity:0.99;fill:#e3dedb;fill-opacity:1;fill-rule:nonzero;stroke:none;stroke-width:0.0340083;stroke-dasharray:none;stroke-opacity:1;paint-order:fill markers stroke"
         d="m -2.2824129,14.612105 c -0.0429,0.0062 -0.05682,0.119438 -0.05682,0.119438 0,0 0.06156,0.122501 0.1153297,0.121441 0.05376,-0.0011 0.06177,-0.0039 0.29465,-0.05956 0.232874,-0.05566 0.428003,-0.115963 0.596254,-0.175739 0.16825,-0.05977 0.56831694,-0.228976 0.64558994,-0.265453 0.07727,-0.03648 0.266714,-0.112803 0.327433,-0.170468 0.06073,-0.05767 0.108264,-0.101627 0.08835,-0.157707 -0.01991,-0.05609 -0.0913,-0.129984 -0.13136,-0.115752 -0.04005,0.01424 -1.87941964,0.703802 -1.87941964,0.703802 z"
         id="path65518" /><path
         style="opacity:0.99;fill:#c87137;fill-opacity:0.992157;fill-rule:nonzero;stroke:none;stroke-width:0.0340083;stroke-dasharray:none;stroke-opacity:1;paint-order:fill markers stroke"
         d="m -3.6103349,7.78839 -0.261884,0.777811 c 0,0 -0.376926,-0.127367 -0.414363,-0.134019 -0.03744,-0.0066 -0.374121,0.08413 -0.41006,0.112501 -0.03594,0.02837 -0.305312,0.196767 -0.366623,0.25925 -0.06131,0.06248 -0.263048,0.219728 -0.263048,0.219728 0,0 0.11747,-0.0525 0.109572,0.100572 -0.0079,0.153075 0.02138,0.162144 -0.0064,0.188102 -0.02777,0.02595 -0.167951,0.271387 -0.167951,0.271387 l -0.250658,0.171723 c 0,0 -0.06555,0.108077 -0.136197,0.04914 -0.07064,-0.0589 -0.140685,-0.05589 -0.107163,-0.09242 0.03353,-0.03653 0.168213,-0.120721 0.168213,-0.120721 l -0.263635,0.157836 -0.103903,0.12829 c 0,0 -0.124119,0.08995 -0.2035,-0.02844 -0.07937,-0.118383 -0.0585,-0.257567 -0.0585,-0.257567 0,0 -0.0072,-0.02445 -0.09901,-0.09484 -0.09177,-0.07037 -0.219474,-0.112382 -0.179293,-0.186346 0.04019,-0.07396 0.04535,-0.146425 0.03901,-0.197758 -0.0063,-0.05135 -0.0827,-0.09967 -0.09959,-0.156731 -0.01689,-0.05708 -0.09717,-0.148581 0.0025,-0.23128 0.09966,-0.08271 0.1356,-0.111069 0.235264,-0.193769 0.09967,-0.08271 0.08428,-0.104739 0.208977,-0.13279 0.124705,-0.02804 0.232195,-0.02435 0.304657,-0.01918 0.07246,0.0052 0.09118,0.0085 0.17512,-0.0075 0.08394,-0.01598 0.112382,-0.219473 0.257639,-0.29793 0.145255,-0.07846 0.228611,-0.156329 0.328272,-0.239032 0.09966,-0.08271 0.150408,-0.150925 0.286595,-0.200095 0.136198,-0.04914 0.208065,-0.105924 0.401907,-0.110081 0.193841,-0.0041 0.151577,-0.02714 0.369553,0.05022 0.21797,0.07736 0.234004,0.03895 0.31279,0.09543 0.07879,0.05649 0.267097,0.02119 0.267097,0.02119 z"
         id="path65520"
         sodipodi:nodetypes="ccccscscccsscccscscccssssssssssscc" /><path
         style="opacity:0.99;fill:#2b1100;fill-opacity:1;fill-rule:nonzero;stroke:#2b1100;stroke-width:0.034;stroke-dasharray:none;stroke-opacity:1;paint-order:fill markers stroke"
         d="m -2.2106152,8.478607 c 0.05,0 0.700035,0.225012 0.700035,0.225012 0,0 -0.0875,0.212511 -0.20001,0.362518 -0.112505,0.150007 -0.40002,0.450022 -0.462523,0.450022 -0.0625,0 -0.2500127,-0.687534 -0.2250117,-0.81254 0.025,-0.125007 0.1875097,-0.225012 0.1875097,-0.225012 z"
         id="path92213" /><path
         style="opacity:0.99;fill:#434860;fill-opacity:1;fill-rule:nonzero;stroke:none;stroke-width:0.0397993;stroke-dasharray:none;stroke-opacity:1;paint-order:fill markers stroke"
         d="m -4.6402989,10.24832 c 0.791018,0.58075 1.412432,0.794617 2.2362,0.818637 0,0 0.3326087,0.08834 0.169079,0.224698 -0.163525,0.136358 -0.293627,0.439463 -0.406556,0.504564 -0.112931,0.06509 -0.573043,0.238707 -0.699964,0.245246 -0.12692,0.0065 -0.226875,-0.03144 -0.390836,-0.06673 -0.163953,-0.03524 -0.298507,-0.06525 -0.448679,-0.12772 -0.150171,-0.06247 -0.762984,-0.222242 -0.811959,-0.427221 -0.049,-0.204978 -0.03142,-0.376475 -0.07546,-0.447533 -0.04403,-0.07106 0.118668,-0.876105 0.118668,-0.876105 z"
         id="path65474"
         sodipodi:nodetypes="ccscsscsccc" /><path
         style="opacity:0.99;fill:#552200;fill-opacity:0.984314;fill-rule:nonzero;stroke:#2b1100;stroke-width:0.034;stroke-dasharray:none;stroke-opacity:1;paint-order:fill markers stroke"
         d="m -3.1459169,7.886055 c 0,0 -1.750179,1.891604 -1.820892,2.121426 -0.07071,0.229822 0.689464,0.777858 0.954643,0.866253 0.265179,0.08839 0.477319,0.08839 0.742498,0.08839 0.265178,0 0.654108,0.194466 0.866251,0.212144 0.2121427,0.01768 0.2651787,0.01768 0.2651787,0.01768 0,0 0.0083,-0.692863 -0.0093,-1.116784 l -0.04375,-1.057682 c -0.0168,-0.40626 0.03536,-0.636428 -0.03536,-0.689464 -0.07072,-0.05304 -0.0884,0.26518 -0.2651787,0.141427 -0.176787,-0.12375 -0.194466,-0.03536 -0.318215,-0.159105 -0.123751,-0.123749 -0.335893,-0.424287 -0.335893,-0.424287 z"
         id="path65522"
         sodipodi:nodetypes="csssscssssscc" /><path
         style="opacity:0.99;fill:#552200;fill-opacity:1;fill-rule:nonzero;stroke:#2b1100;stroke-width:0.034;stroke-dasharray:none;stroke-opacity:1;paint-order:fill markers stroke"
         d="m -2.6312239,8.440097 c 0,0 -0.255942,-0.400955 -0.503042,-0.531624 -0.2471,-0.130672 -0.372122,-0.241056 -0.45932,-0.255548 -0.08719,-0.0145 -0.142465,-0.113281 -0.258545,0.261692 -0.116054,0.37498 -0.162498,0.546467 -0.156656,0.619121 0.0058,0.07264 0.07855,0.174344 0.279131,0.261442 0.200579,0.0871 0.369176,0.150958 0.561017,0.182807 0.191837,0.03188 0.27903,0.04637 0.27903,0.04637 v 0 l 0.116224,-0.05236"
         id="path54866" /></g></g></svg>
