<?xml version="1.0" encoding="UTF-8" standalone="no"?>
<!-- Created with Inkscape (http://www.inkscape.org/) -->

<svg
   width="50"
   height="70"
   viewBox="0 0 13.229166 18.520833"
   version="1.1"
   id="svg18473"
   xml:space="preserve"
   inkscape:version="1.2.2 (732a01da63, 2022-12-09)"
   sodipodi:docname="oshosi_move_4.svg"
   xmlns:inkscape="http://www.inkscape.org/namespaces/inkscape"
   xmlns:sodipodi="http://sodipodi.sourceforge.net/DTD/sodipodi-0.dtd"
   xmlns="http://www.w3.org/2000/svg"
   xmlns:svg="http://www.w3.org/2000/svg"><sodipodi:namedview
     id="namedview18475"
     pagecolor="#ffffff"
     bordercolor="#000000"
     borderopacity="0.25"
     inkscape:showpageshadow="2"
     inkscape:pageopacity="0.0"
     inkscape:pagecheckerboard="0"
     inkscape:deskcolor="#d1d1d1"
     inkscape:document-units="mm"
     showgrid="true"
     inkscape:zoom="5.2913967"
     inkscape:cx="9.2603149"
     inkscape:cy="49.325351"
     inkscape:window-width="1366"
     inkscape:window-height="705"
     inkscape:window-x="-8"
     inkscape:window-y="-8"
     inkscape:window-maximized="1"
     inkscape:current-layer="layer1"><inkscape:grid
       type="xygrid"
       id="grid36773"
       originx="0"
       originy="0" /></sodipodi:namedview><defs
     id="defs18470" /><g
     inkscape:label="Capa 1"
     inkscape:groupmode="layer"
     id="layer1"><path
       style="opacity:0.99;fill:#c87137;fill-opacity:1;fill-rule:nonzero;stroke:none;stroke-width:0.0340083;stroke-dasharray:none;stroke-opacity:1;paint-order:fill markers stroke"
       d="m 7.3491441,6.3409856 c 0,0 0.1392796,-1.3850655 0.081243,-1.4244193 C 7.3723595,4.877213 7.906899,5.2884122 8.0102851,5.1616856 8.1136719,5.034959 8.3782549,5.3864193 8.4229464,5.2323462 8.4676384,5.0782731 8.5156663,4.8641694 8.5223388,4.7441116 8.5290115,4.6240504 8.5110099,4.2978921 8.5110099,4.2978921 L 8.6261848,3.8123467 c 0,0 1.5727182,0.2791153 2.3184042,0.7300168 0.745687,0.4509015 0.667864,0.5769235 0.667864,0.5769235 0,0 0.200836,-0.2329482 0.227516,-0.2796376 0.02668,-0.046689 0.337758,-0.3363936 0.337758,-0.3363936 l 0.124892,0.7323573 c 0,0 -0.145888,1.5048817 -0.218595,1.7296577 -0.07271,0.2247725 -0.04202,0.1060493 -0.05737,0.1654126 -0.01534,0.05936 -0.07071,0.4055283 -0.07672,0.5135793 -0.006,0.1080544 0.0027,0.3855216 -0.01535,0.4929089 -0.01801,0.1073837 -0.227458,0.6256335 -0.227458,0.6256335 0,0 -0.366853,0.3168129 -0.452895,0.3481592 -0.08604,0.031346 -0.516255,0.1880808 -0.577618,0.2087548 -0.06136,0.02067 -0.242786,0.034679 -0.302816,0.031342 L 9.809541,9.3197011 C 9.6894828,9.3130286 9.3679943,9.2469889 9.2612764,9.2169734 9.1545579,9.1869613 8.8937665,9.1122478 8.7390246,9.0795598 8.5842833,9.0468787 8.3141545,8.9234741 8.1974325,8.8567743 8.0807107,8.7900712 7.8579382,8.6813458 7.8112488,8.6546665 7.7645599,8.6279907 7.5597982,8.4118781 7.4897651,8.3718542 7.4197322,8.3318337 7.25899,8.1904275 7.2256411,8.1404053 7.1922928,8.0903797 6.9293949,7.9379791 6.9293949,7.9379791 L 6.7880615,7.5943939 c 0,0 -0.202919,0.1344036 -0.3776689,0.028351 C 6.2356433,7.516688 6.2228615,7.5530017 6.1334877,7.4276059 6.0441133,7.30221 6.0257446,7.1945823 6.0284136,7.1465585 c 0.00267,-0.04802 -0.004,-0.1447354 0.013345,-0.2401157 0.017345,-0.09538 0.062036,-0.2494534 0.062036,-0.2494534 0,0 0.028705,-0.7160856 0.1774454,-0.7921194 0.1487409,-0.076034 0.2744379,-0.021383 0.3471403,-0.029387 0.072703,-0.00802 0.487482,-0.021968 0.487482,-0.021968 0,0 0.1897462,0.1568775 0.2224274,0.2189064 0.032681,0.062032 -0.073291,0.2246278 -0.039941,0.27465 0.033348,0.050026 2.672e-4,0.030125 0.021609,0.079479 0.021341,0.049355 -0.017009,-0.067865 -0.017009,-0.067865 z"
       id="path54836-6"
       sodipodi:nodetypes="cssssccsccccsssccscsscccccccccssscsccscscc" /><g
       id="g29143"
       transform="rotate(8.0484936,16.635546,9.9022103)"><ellipse
         style="opacity:0.99;fill:#c87137;fill-opacity:0.992157;fill-rule:nonzero;stroke:none;stroke-width:0.171524;stroke-dasharray:none;stroke-opacity:1;paint-order:fill markers stroke"
         id="path4347"
         cx="9.0160713"
         cy="6.6354756"
         rx="2.8518746"
         ry="2.8358848" /><path
         style="opacity:0.99;fill:none;fill-opacity:0.992157;fill-rule:nonzero;stroke:#2b1100;stroke-width:0.38011;stroke-dasharray:none;stroke-opacity:1;paint-order:fill markers stroke"
         id="path5099"
         sodipodi:type="arc"
         sodipodi:cx="8.9980841"
         sodipodi:cy="5.2850561"
         sodipodi:rx="2.7141452"
         sodipodi:ry="0.50697601"
         sodipodi:start="0.28424498"
         sodipodi:end="2.8139227"
         sodipodi:arc-type="arc"
         d="M 11.603321,5.4272288 A 2.7141452,0.50697601 0 0 1 9.0570103,5.7919126 2.7141452,0.50697601 0 0 1 6.4283455,5.4482202"
         sodipodi:open="true" /><path
         style="opacity:0.99;fill:#008000;fill-opacity:0.992157;fill-rule:nonzero;stroke:none;stroke-width:0.0799998;stroke-dasharray:none;stroke-opacity:1;paint-order:fill markers stroke"
         d="M 10.572208,5.3271579 C 10.578584,5.3253877 10.450852,4.1907143 9.9004223,3.7184105 9.4434742,3.3263227 9.6175651,2.7991242 9.4938152,2.7991242 c -0.1237502,0 -0.1060717,0.4242846 0,1.1491078 0.1060713,0.7248197 0.2298212,1.2198214 0.4773214,1.4142844 0.2475004,0.1944631 0.5480354,0.4950017 0.5480354,0.4950017 z"
         id="path12676"
         sodipodi:nodetypes="csscscc" /><path
         style="opacity:0.99;fill:#008000;fill-opacity:0.992157;fill-rule:nonzero;stroke:none;stroke-width:0.0581417;stroke-dasharray:none;stroke-opacity:1;paint-order:fill markers stroke"
         d="m 10.951209,5.1445058 c -0.0035,-0.00177 0.06611,-1.1019525 0.365941,-1.559921 0.248912,-0.3801882 0.15408,-0.891384 0.221491,-0.891384 0.06741,0 0.05778,0.411408 0,1.1142309 -0.05778,0.7028193 -0.125191,1.1827988 -0.260011,1.3713599 -0.134821,0.1885575 -0.298532,0.479976 -0.298532,0.479976 z"
         id="path12786"
         sodipodi:nodetypes="csscscc" /><path
         style="opacity:0.99;fill:#44aa00;fill-opacity:0.992157;fill-rule:nonzero;stroke:none;stroke-width:0.051401;stroke-dasharray:none;stroke-opacity:1;paint-order:fill markers stroke"
         d="M 10.400052,5.2195104 C 10.404148,5.2184482 10.322079,4.4893269 9.9684189,4.1858638 9.6748228,3.9339428 9.7866785,3.5952062 9.7071673,3.5952062 c -0.079511,0 -0.068153,0.2726115 0,0.7383229 0.068153,0.465708 0.1476639,0.7837542 0.3066867,0.9087004 0.159023,0.1249462 0.352122,0.3180461 0.352122,0.3180461 z"
         id="path12792"
         sodipodi:nodetypes="csscscc" /><path
         style="opacity:0.99;fill:#44aa00;fill-opacity:0.992157;fill-rule:nonzero;stroke:none;stroke-width:0.051401;stroke-dasharray:none;stroke-opacity:1;paint-order:fill markers stroke"
         d="m 10.764412,5.0382532 c -0.0041,-0.00106 0.07797,-0.7301835 0.431633,-1.0336465 0.293596,-0.2519211 0.181741,-0.5906577 0.261252,-0.5906577 0.07951,0 0.06815,0.2726115 0,0.738323 -0.06815,0.4657079 -0.147664,0.7837541 -0.306687,0.9087003 -0.159023,0.1249462 -0.352122,0.3180462 -0.352122,0.3180462 z"
         id="path12794"
         sodipodi:nodetypes="csscscc" /><path
         style="opacity:0.99;fill:#008000;fill-opacity:1;fill-rule:nonzero;stroke:none;stroke-width:0.0799998;stroke-dasharray:none;stroke-opacity:1;paint-order:fill markers stroke"
         d="m 10.363466,5.5270626 c 0,0 -0.05053,0.1149834 -0.214056,-0.4197953 C 9.9858833,4.5724922 9.9038233,4.3293408 9.9038233,4.3293408"
         id="path12852"
         sodipodi:nodetypes="ccc" /><path
         style="opacity:0.99;fill:#008000;fill-opacity:1;fill-rule:nonzero;stroke:none;stroke-width:0.0799998;stroke-dasharray:none;stroke-opacity:1;paint-order:fill markers stroke"
         d="m 10.962043,5.1762708 c 0,0 0.05053,0.1149833 0.214057,-0.4197953 0.163526,-0.5347752 0.245586,-0.7779266 0.245586,-0.7779266"
         id="path12962"
         sodipodi:nodetypes="ccc" /><path
         style="opacity:0.99;fill:#0066ff;fill-opacity:0.992157;fill-rule:nonzero;stroke:none;stroke-width:0.106576;stroke-dasharray:none;stroke-opacity:1;paint-order:fill markers stroke"
         d="m 10.242493,4.7751372 c -0.0083,0.00212 -0.5182218,-1.4536401 -0.160497,-2.3793098 0.296973,-0.7684558 0.178347,-1.53060995 0.32019,-1.60767823 0.141843,-0.0770679 0.230804,0.60418933 0.528462,1.56477143 0.297657,0.9605645 0.487518,1.7462764 0.31631,2.1404035 -0.171209,0.3941234 -0.523429,1.0988192 -0.523429,1.0988192 z"
         id="path12788"
         sodipodi:nodetypes="csscscc" /><path
         style="opacity:0.99;fill:#2a7fff;fill-opacity:0.992157;fill-rule:nonzero;stroke:none;stroke-width:0.0718617;stroke-dasharray:none;stroke-opacity:1;paint-order:fill markers stroke"
         d="m 10.396303,4.5816124 c -0.0056,0.00142 -0.349424,-0.9801573 -0.108219,-1.6043148 0.200242,-0.5181527 0.120255,-1.0320533 0.215896,-1.0840166 0.09564,-0.051967 0.155626,0.4073896 0.356331,1.0550875 0.200703,0.6476838 0.328721,1.177474 0.213279,1.4432241 -0.115441,0.2657466 -0.352936,0.7409075 -0.352936,0.7409075 z"
         id="path12790"
         sodipodi:nodetypes="csscscc" /><ellipse
         style="opacity:0.99;fill:#ffff00;fill-opacity:0.992157;fill-rule:nonzero;stroke:none;stroke-width:0.109714;stroke-dasharray:none;stroke-opacity:1;paint-order:fill markers stroke"
         id="path5313"
         cx="10.769589"
         cy="5.4935174"
         rx="0.32620108"
         ry="0.52032417" /><path
         style="opacity:0.99;fill:#5599ff;fill-opacity:1;fill-rule:nonzero;stroke:none;stroke-width:0.0241149;stroke-dasharray:none;stroke-opacity:1;paint-order:fill markers stroke"
         d="m 10.656865,4.4446357 c -7.08e-4,0.00106 -0.225384,-0.8209537 -0.09436,-1.3892604 0.101011,-0.4381385 0.01023,-0.8877444 0.01825,-0.9341031 0.04835,1.1631634 0.08395,1.9157828 0.136747,2.7961099 z"
         id="path12796"
         sodipodi:nodetypes="csccc" /><ellipse
         style="opacity:0.99;fill:#dfdf00;fill-opacity:0.992157;fill-rule:nonzero;stroke:none;stroke-width:0.0776124;stroke-dasharray:none;stroke-opacity:1;paint-order:fill markers stroke"
         id="ellipse12964"
         cx="10.784284"
         cy="5.4877505"
         rx="0.22513951"
         ry="0.37726733" /></g><path
       style="opacity:0.99;fill:#fde0a4;fill-opacity:1;fill-rule:nonzero;stroke:none;stroke-width:0.1;stroke-dasharray:none;stroke-opacity:1;paint-order:fill markers stroke"
       d="m -101.026,40.768853 c 0,0 0.71779,-3.53779 0.541,-3.64386 -0.17679,-0.10607 1.025358,-0.17678 1.308214,-0.56571 0.282858,-0.38893 0.707144,-0.81322 0.813215,-1.27286 0.106072,-0.45964 0.212143,-1.09607 0.212143,-1.44964 0,-0.35358 -0.106071,-1.30822 -0.106071,-1.30822 v -0.14143 c 0,0 4.348927,0.21215 6.611783,1.41429 2.262857,1.20214 2.368929,1.27286 2.368929,1.27286 0,0 0.990002,-0.77786 1.060714,-0.91929 0.07072,-0.14143 0.459645,-0.35357 0.459645,-0.35357 l 0.459642,0.99 c 0,0 0.141428,4.31357 -0.03536,4.98536 -0.176787,0.67178 -0.106071,0.31821 -0.14143,0.495 -0.03536,0.17678 -0.141428,1.20214 -0.141428,1.52035 0,0.31822 0.07071,1.13143 0.03536,1.44965 -0.03536,0.31821 -0.565713,1.87393 -0.565713,1.87393 0,0 -1.025359,0.99 -1.272858,1.09607 -0.247499,0.10607 -1.485,0.63643 -1.661784,0.70714 -0.176787,0.0707 -0.707144,0.14143 -0.883931,0.14143 -0.176784,0 -1.308214,0 -1.661784,0 -0.353571,0 -1.308214,-0.14143 -1.626428,-0.21214 -0.318215,-0.0707 -1.096071,-0.2475 -1.555716,-0.31822 -0.459642,-0.0707 -1.272857,-0.38893 -1.626428,-0.56571 -0.353571,-0.17679 -1.025356,-0.45965 -1.166786,-0.53036 -0.141428,-0.0707 -0.777858,-0.67178 -0.989998,-0.77786 -0.21214,-0.10607 -0.70715,-0.495 -0.81322,-0.63642 -0.10607,-0.14143 -0.495,-0.49501 -0.495,-0.49501 v -0.45964 c 0,0 -0.45964,0.495 -0.99,0.21215 -0.53035,-0.28286 -1.30821,-0.35358 -1.59107,-0.70715 -0.28286,-0.35357 -0.60107,-1.13143 -0.60107,-1.27286 0,-0.14142 -0.0354,-0.42428 0,-0.70714 0.0354,-0.28286 0.14143,-0.7425 0.14143,-0.7425 0,0 0.21214,-0.35357 0.63643,-0.60107 0.42428,-0.2475 0.56571,-0.38893 0.77786,-0.42429 0.21214,-0.0354 0.84857,0.0354 0.84857,0.0354 0,0 0.495,0.17679 0.60107,0.35357 0.10607,0.17679 0.31821,0.45965 0.42428,0.60107 0.10607,0.14143 0.35357,0.45965 0.42429,0.60108 0.0707,0.14142 0.2015,0.35564 0.2015,0.35564 z"
       id="path32083" /><path
       style="opacity:0.99;fill:#ff6600;fill-opacity:1;fill-rule:nonzero;stroke:none;stroke-width:0.1;stroke-dasharray:none;stroke-opacity:1;paint-order:fill markers stroke"
       d="m -103.77615,32.368433 c 0,0 -3.65018,1.85009 -2.70013,4.85024 0.95004,3.00015 1.40007,3.15016 1.40007,3.15016 l 0.15001,-0.05 c 0,0 0.55002,-1.00005 0.80004,-1.10006 0.25001,-0.1 0.60003,-0.30001 0.90004,-0.25001 0.30002,0.05 1.20006,0.35002 1.30007,0.60003 0.1,0.25002 0.50002,0.65003 0.65003,0.85005 0.15001,0.20001 0.35002,0.30001 0.35002,0.30001 0,0 0.25001,-0.90004 0.40002,-1.35007 0.15001,-0.45002 0.20001,-0.65003 0.15001,-1.05005 -0.05,-0.40002 -0.15001,-0.90005 -0.15001,-0.90005 l -0.25001,-0.65003 c 0.955262,0.71155 3.449013,0.57575 2.703689,-2.67943 -0.311283,-1.35952 0.02071,-1.47936 0.02071,-1.47936 0,0 0.375756,-0.24143 1.175798,-0.0914 0.800039,0.15001 1.80009,0.30002 2.350119,0.50003 0.550026,0.20001 1.400071,0.45002 1.800092,0.60003 0.400019,0.15001 1.450073,0.50002 1.700086,0.70003 0.250013,0.20002 0.900046,0.40002 1.150059,0.55003 0.250013,0.15001 0.800039,0.45002 0.800039,0.45002 0,0 0.425022,-0.77504 0.675035,-0.92505 0.250012,-0.15 0.525028,-0.47501 0.525028,-0.47501 l 0.300016,0.075 0.200011,0.77504 -3e-6,0.97505 c 0,0 0.600031,-0.82504 0.850044,-1.27507 0.250013,-0.45002 0.350017,-0.80004 0.60003,-1.30006 0.250013,-0.50003 0.400021,-0.90005 0.400021,-1.35007 0,-0.45003 0.250013,-1.55008 0.150008,-2.30012 -0.100005,-0.75004 -0.100005,-0.90005 -0.250013,-1.20006 -0.150008,-0.30002 -0.150008,-0.55003 -0.250012,-0.75004 -0.100005,-0.20001 -0.20001,-0.50003 -0.20001,-0.50003 0,0 0.05,0.60003 -0.150008,1.10006 -0.200012,0.50003 -0.350017,1.05005 -0.350017,1.05005 0,0 0.150005,-0.95004 -0.35002,-2.50012 -0.500025,-1.55008 -0.350017,-1.70009 -0.350017,-1.70009 v -0.30001 c 0,0 -0.100005,0.75003 -0.700035,1.15005 -0.600032,0.40002 -1.450075,1.05006 -2.000102,1.15006 -0.550029,0.10001 -2.100109,0.45003 -2.500127,0.45003 h -1.750092 c -0.200009,0 -0.700034,-0.10001 -0.700034,-0.10001 0,0 0.750038,0.15001 1.350068,-0.70004 0.60003,-0.85004 0.550029,-0.90004 0.550029,-0.90004 0,0 -0.750038,0.20001 -1.200063,0.20001 h -1.650081 c -0.300017,0 -2.200114,0.55003 -2.550131,0.65003 -0.350018,0.10001 -2.150107,0.50003 -2.550127,1.05005 -0.40003,0.55003 -1.65009,1.55008 -1.75009,1.8001 -0.10001,0.25001 -0.15001,0.35001 -0.45003,1.10005 -0.30001,0.75004 -0.25001,1.15006 -0.35002,1.45008 -0.1,0.30001 -0.25001,0.35002 -0.25001,0.35002 z"
       id="path32085"
       sodipodi:nodetypes="csccsssscssccscssssscsccccsssssscscsccsssscscssssssscc" /><path
       style="opacity:0.99;fill:#fde0a4;fill-opacity:0.992157;fill-rule:nonzero;stroke:none;stroke-width:0.108535;stroke-dasharray:none;stroke-opacity:1;paint-order:fill markers stroke"
       d="m -99.321539,45.497833 v 0.70618 c 0,0 -0.09175,0.83457 0.734045,0.96296 0.825802,0.1284 1.238702,0.321 1.238702,0.321 l 0.09175,-1.32307 c 0,0 -0.734043,-0.21768 -1.2387,-0.41027 -0.504657,-0.1926 -0.550533,-0.44939 -0.550533,-0.44939 z"
       id="path32087"
       sodipodi:nodetypes="ccsccscc" /><path
       style="opacity:0.99;fill:#48a4df;fill-opacity:1;fill-rule:nonzero;stroke:#0055d4;stroke-width:0.1;stroke-dasharray:none;stroke-opacity:1;paint-order:fill markers stroke"
       d="m -101.77604,50.669363 c -0.20001,-0.30002 -1.50008,-1.50008 -1.55008,-1.8501 -0.05,-0.35001 -0.10001,-0.2 0.60003,-0.65003 0.70003,-0.45002 1.35007,-0.80004 1.75009,-0.85004 0.40002,-0.05 1.000048,-0.10001 1.000048,-0.10001 l -1.000048,0.05 c 0,0 0.35001,-0.80003 0.80004,-1.00005 0.45002,-0.20001 0.800038,-0.45002 0.800038,-0.45002 0,0 0.300016,0.45002 0.600032,0.80004 0.300014,0.35002 0.450022,0.70004 0.950048,0.55003 0.500025,-0.15001 0.650033,-0.45002 0.650033,-0.45002 0,0 1.20006,4.40022 0.950048,6.30032 -0.250013,1.90009 0.300016,1.80009 0,1.90009 -0.300014,0.10001 -2.050103,0.05 -2.050103,0.05 0,0 -1.100058,-0.25001 -1.300067,-0.25001 H -100.926 c -0.25001,0 -0.50003,0.25001 -0.75004,0 -0.25001,-0.25002 -0.80004,-0.90005 -0.85004,-1.9501 -0.05,-1.05006 -0.05,-1.15006 0.45002,-1.55008 0.50003,-0.40002 0.70004,-0.40002 0.70004,-0.40002 0,0 0.44144,-0.11465 0.99147,-0.41467 0.550027,-0.30001 1.408649,-1.48543 1.408649,-1.48543 -0.548972,1.05529 -1.329719,1.69338 -2.350119,1.9001 z"
       id="path32089"
       sodipodi:nodetypes="csssccscsscsscssssscsccc" /><path
       style="opacity:0.99;fill:#444960;fill-opacity:1;fill-rule:nonzero;stroke:none;stroke-width:0.1;stroke-dasharray:none;stroke-opacity:1;paint-order:fill markers stroke"
       d="m -103.30112,54.894573 c 0,0 0.50002,2.67514 0.52503,2.95016 0.025,0.27501 0.1,1.90009 0.025,2.0251 -0.075,0.12501 -0.50003,0.82504 -0.57503,0.95005 -0.075,0.125 -0.90005,1.9501 -1.02505,2.0251 -0.12501,0.075 -0.72504,1.07506 -0.72504,1.07506 0,0 0.55002,0.15 0.72504,0.15 0.175,0 1.32506,-0.125 1.65008,-0.17501 0.32501,-0.05 0.70003,-0.05 0.95005,-0.05 0.25001,0 0.55002,0.45002 0.65003,0.45002 0.10001,0 0,-0.37501 0.025,-0.62503 0.025,-0.25001 -0.025,-0.35001 0.20001,-0.52503 0.22501,-0.175 0.45002,-0.15 0.60003,-0.75003 0.15001,-0.60003 0.300016,-1.37507 0.35002,-1.60009 0.05,-0.22501 0.150008,-0.70003 -0.025,-1.15005 -0.17501,-0.45003 -0.22501,-1.05006 -0.32502,-1.17506 -0.1,-0.12501 -0.35002,-2.10011 -0.60003,-2.45013 -0.25001,-0.35002 -0.97505,-1.37507 -0.97505,-1.37507 z"
       id="path32091" /><path
       style="opacity:0.99;fill:#23283b;fill-opacity:1;fill-rule:nonzero;stroke:none;stroke-width:0.1;stroke-dasharray:none;stroke-opacity:1;paint-order:fill markers stroke"
       d="m -98.650885,57.394703 c 0,0 0.850043,1.55008 0.975051,1.62509 0.125005,0.075 0.60003,1.07505 0.60003,1.07505 0,0 0.05,0.85004 -0.05,1.37507 -0.100007,0.52503 -0.300016,1.52508 -0.300016,1.77509 0,0.25001 -0.250013,0.67504 -0.150009,0.67504 0.100005,0 1.000051,0.075 1.600081,0.075 0.600033,0 0.625033,0.15 1.475076,0.025 0.850043,-0.12501 1.100056,-0.1 1.250064,-0.15001 0.150008,-0.05 -0.05,0 -0.175009,-0.40002 -0.125005,-0.40001 -0.05,-0.075 -0.200009,-0.67503 -0.150008,-0.60003 -0.325017,-1.07506 -0.300016,-1.57508 0.025,-0.50003 -0.400021,-2.0251 -0.750038,-2.22512 -0.350018,-0.2 -0.500026,-0.62503 -0.700035,-0.77503 -0.200012,-0.15001 -1.475076,-1.42508 -1.475076,-1.42508 l -0.750038,-0.125 c 0,0 -0.650034,0.52502 -0.750038,0.57503 -0.100005,0.05 -0.300017,0.15 -0.300018,0.15 z"
       id="path32093" /><path
       style="opacity:0.99;fill:#474e61;fill-opacity:1;fill-rule:nonzero;stroke:none;stroke-width:0.1;stroke-dasharray:none;stroke-opacity:1;paint-order:fill markers stroke"
       d="m -102.32607,54.444553 6.175313,0.42502 c 0,0 0.450024,0.65004 0.100004,1.05006 -0.350017,0.40002 -0.700034,0.80004 -0.950047,1.00005 -0.250013,0.20001 -0.725038,0.55003 -1.025051,0.60003 -0.300017,0.05 -0.625034,0.125 -1.025054,0.075 -0.400019,-0.05 -0.900044,0.025 -1.275065,-0.1 -0.37502,-0.12501 -0.82504,-0.075 -1.00005,-0.60003 -0.17501,-0.52503 -0.32502,-1.35007 -0.45002,-1.52508 -0.12501,-0.17501 -0.67504,-0.95005 -0.67504,-0.95005 z"
       id="path32095" /><path
       style="opacity:0.99;fill:#47a3e3;fill-opacity:1;fill-rule:nonzero;stroke:#0055d4;stroke-width:0.1;stroke-dasharray:none;stroke-opacity:1;paint-order:fill markers stroke"
       d="m -105.05121,63.995043 c 0,0 3.00015,-0.20001 3.27517,-0.075 0.27501,0.125 1.15005,0.60003 1.25006,0.82504 0.10001,0.22501 0.35002,0.75004 0.47502,0.87504 0.125011,0.12501 -0.55002,0.25001 -0.72503,0.20001 -0.17501,-0.05 -0.90005,-0.05 -1.35007,-0.05 -0.45002,0 -1.07506,-0.05 -1.8251,-0.075 -0.75003,-0.025 -1.17506,-0.025 -1.37506,-0.025 -0.20002,0 -0.70004,0.12501 -0.60003,0 0.1,-0.12501 0.25001,-0.97505 0.45002,-1.40007 0.20001,-0.42502 0.42502,-0.27501 0.42502,-0.27501 z"
       id="path32097" /><path
       style="opacity:0.99;fill:#e3dedb;fill-opacity:1;fill-rule:nonzero;stroke:none;stroke-width:0.1;stroke-dasharray:none;stroke-opacity:1;paint-order:fill markers stroke"
       d="m -105.87625,65.745133 c -0.12501,-0.025 -0.27502,0.27501 -0.27502,0.27501 0,0 0.05,0.40002 0.20001,0.45002 0.15001,0.05 0.17501,0.05 0.87505,0.12501 0.70003,0.075 1.30006,0.10001 1.82509,0.10001 0.52503,0 1.80009,-0.075 2.0501,-0.10001 0.25002,-0.025 0.85005,-0.05 1.07506,-0.15001 0.225012,-0.1 0.40002,-0.17501 0.40002,-0.35001 0,-0.17501 -0.125005,-0.45003 -0.250012,-0.45003 -0.125008,0 -5.900298,0.10001 -5.900298,0.10001 z"
       id="path32099" /><path
       style="opacity:0.99;fill:#47a3e3;fill-opacity:1;fill-rule:nonzero;stroke:#0055d4;stroke-width:0.1;stroke-dasharray:none;stroke-opacity:1;paint-order:fill markers stroke"
       d="m -97.166568,63.712183 c 0,0 3.000153,-0.20001 3.275169,-0.075 0.275013,0.125 1.150056,0.60003 1.250063,0.82504 0.100005,0.22501 0.350018,0.75004 0.475023,0.87504 0.125007,0.12501 -0.550027,0.25001 -0.725035,0.20001 -0.175012,-0.05 -0.900047,-0.05 -1.350071,-0.05 -0.450022,0 -1.075055,-0.05 -1.825093,-0.075 -0.750039,-0.025 -1.17506,-0.025 -1.375069,-0.025 -0.200012,0 -0.700037,0.12501 -0.60003,0 0.100004,-0.12501 0.250013,-0.97505 0.450022,-1.40007 0.200009,-0.42502 0.425021,-0.27501 0.425021,-0.27501 z"
       id="path32101" /><path
       style="opacity:0.99;fill:#e3dedb;fill-opacity:1;fill-rule:nonzero;stroke:none;stroke-width:0.1;stroke-dasharray:none;stroke-opacity:1;paint-order:fill markers stroke"
       d="m -97.99161,65.462273 c -0.125005,-0.025 -0.275013,0.27501 -0.275013,0.27501 0,0 0.05,0.40002 0.200009,0.45002 0.150008,0.05 0.175008,0.05 0.875046,0.12501 0.700034,0.075 1.300064,0.10001 1.825093,0.10001 0.525026,0 1.80009,-0.075 2.050103,-0.10001 0.250012,-0.025 0.850045,-0.05 1.075055,-0.15001 0.225012,-0.1 0.40002,-0.17501 0.40002,-0.35001 0,-0.17501 -0.125005,-0.45003 -0.250012,-0.45003 -0.125005,0 -5.900301,0.10001 -5.900301,0.10001 z"
       id="path32103" /><ellipse
       style="opacity:0.99;fill:#000000;fill-opacity:1;fill-rule:nonzero;stroke:#000000;stroke-width:0.1;stroke-dasharray:none;stroke-opacity:1;paint-order:fill markers stroke"
       id="ellipse32105"
       cx="-93.767143"
       cy="40.183392"
       rx="0.77785712"
       ry="1.3966072" /><ellipse
       style="opacity:0.99;fill:#000000;fill-opacity:1;fill-rule:nonzero;stroke:#000000;stroke-width:0.0792771;stroke-dasharray:none;stroke-opacity:1;paint-order:fill markers stroke"
       id="ellipse32107"
       cx="-88.857292"
       cy="40.094173"
       rx="0.56723642"
       ry="1.203665" /><ellipse
       style="opacity:0.99;fill:#ffffff;fill-opacity:1;fill-rule:nonzero;stroke:none;stroke-width:0.1;stroke-dasharray:none;stroke-opacity:1;paint-order:fill markers stroke"
       id="ellipse32109"
       cx="-93.722946"
       cy="39.723751"
       rx="0.53919643"
       ry="0.68946427" /><ellipse
       style="opacity:0.99;fill:#ffffff;fill-opacity:1;fill-rule:nonzero;stroke:none;stroke-width:0.0775845;stroke-dasharray:none;stroke-opacity:1;paint-order:fill markers stroke"
       id="ellipse32111"
       cx="-88.870186"
       cy="39.564632"
       rx="0.40013629"
       ry="0.55924344" /><path
       style="opacity:0.99;fill:#000000;fill-opacity:1;fill-rule:nonzero;stroke:#000000;stroke-width:0.1;stroke-dasharray:none;stroke-opacity:1;paint-order:fill markers stroke"
       d="m -95.941607,36.647673 c 0.335891,-0.28286 0.848572,-0.76018 1.11375,-0.7425 0.265179,0.0177 0.636429,0.053 0.919285,0.0884 0.282858,0.0354 0.689464,0.30054 0.830894,0.38893 0.141428,0.0884 0.371251,0.53036 0.548035,0.65411 0.176786,0.12375 0.335893,0.51268 0.37125,0.54804 0.03536,0.0354 0.159107,0.22982 0.141427,0.26517 -0.01767,0.0354 -0.318214,-0.22098 -0.459642,-0.25634 -0.141427,-0.0353 -0.609909,-0.30937 -0.715981,-0.41544 -0.106071,-0.10607 -0.07071,-0.22982 -0.291698,-0.32705 -0.220982,-0.0972 -0.822052,-0.18563 -0.892767,-0.20331 -0.07071,-0.0177 -0.353571,-0.0177 -0.574553,-0.0177 -0.220983,0 -0.742501,0.0354 -0.804376,0.053 -0.06187,0.0177 -0.247499,0.053 -0.247499,0.053 z"
       id="path32113" /><path
       style="opacity:0.99;fill:#000000;fill-opacity:1;fill-rule:nonzero;stroke:#000000;stroke-width:0.1;stroke-dasharray:none;stroke-opacity:1;paint-order:fill markers stroke"
       d="m -89.488927,38.008923 c 0.03536,-0.0884 0.194463,-0.53036 0.406606,-0.65411 0.212143,-0.12375 0.583393,-0.37125 0.671785,-0.4066 0.08839,-0.0354 0.282858,0 0.441965,0.0707 0.159107,0.0707 0.318215,0.12375 0.265179,0.21214 -0.05304,0.0884 -0.159107,0.0884 -0.406609,0.14143 -0.247499,0.053 -0.494999,0.14143 -0.583393,0.26518 -0.08839,0.12375 -0.335891,0.2475 -0.441963,0.40661 -0.106071,0.1591 -0.318214,0.2475 -0.318214,0.17678 0,-0.0707 -0.03536,-0.21214 -0.03536,-0.21214 z"
       id="path32115" /><path
       style="opacity:0.99;fill:none;fill-opacity:1;fill-rule:nonzero;stroke:#000000;stroke-width:0.1;stroke-dasharray:none;stroke-opacity:1;paint-order:fill markers stroke"
       d="m -90.350461,41.306383 c -0.01249,0.075 -0.025,0.27501 -0.01249,0.36252 0.01249,0.0875 0.08751,0.21251 0.237513,0.23751 0.150009,0.025 0.262512,0.075 0.350018,0.12501 0.08751,0.05 0.337518,0.25001 0.350017,0.36252 0.01252,0.1125 -0.075,0.38752 -0.112506,0.46252 -0.0375,0.075 0.0375,0.23751 -0.112504,0.23751 -0.150008,0 -0.387522,-0.0625 -0.462526,-0.0625 -0.075,0 -0.362516,-0.0375 -0.362516,-0.0375 l 0.137507,-0.0125 0.21251,0.0625"
       id="path32117" /><path
       style="opacity:0.99;fill:none;fill-opacity:1;fill-rule:nonzero;stroke:#000000;stroke-width:0.1;stroke-dasharray:none;stroke-opacity:1;paint-order:fill markers stroke"
       d="m -91.31301,44.844063 c -0.075,0.025 -1.100055,0.15001 -1.36257,0.075 -0.262514,-0.075 -0.800039,-0.33752 -0.862544,-0.42503 -0.0625,-0.0875 -0.437523,-0.28751 -0.500025,-0.41252 -0.0625,-0.125 -0.075,-0.37502 -0.075,-0.37502 0,0 -0.237512,0.31252 -0.287515,0.33752 -0.05,0.025 -0.175009,0.025 -0.175009,0.025"
       id="path32119" /><path
       style="opacity:0.99;fill:#fde0a4;fill-opacity:0.992157;fill-rule:nonzero;stroke:none;stroke-width:0.1;stroke-dasharray:none;stroke-opacity:1;paint-order:fill markers stroke"
       d="m -103.37613,48.944273 1.9001,2.0251 c 0,0 -0.97505,0.52503 -1.02505,0.62503 -0.05,0.10001 -0.075,1.12506 -0.025,1.25007 0.05,0.12501 0.30001,1.02505 0.42502,1.25006 0.12501,0.22501 0.40002,0.92505 0.40002,0.92505 0,0 -0.05,-0.37502 0.37502,-0.22501 0.42502,0.15001 0.47502,0.075 0.52503,0.17501 0.05,0.1 0.62503,0.70003 0.62503,0.70003 l 0.275012,0.85005 c 0,0 0.250013,0.27501 0.025,0.42502 -0.225012,0.15001 -0.275012,0.35002 -0.350022,0.22501 -0.075,-0.12501 -0.2,-0.57503 -0.2,-0.57503 l 0.22501,0.87505 0.275011,0.40002 c 0,0 0.150008,0.42502 -0.250011,0.55003 -0.40002,0.125 -0.77504,-0.05 -0.77504,-0.05 0,0 -0.075,0 -0.35002,0.20001 -0.27501,0.20001 -0.50003,0.52503 -0.67503,0.35002 -0.17501,-0.17501 -0.37502,-0.25001 -0.52503,-0.27502 -0.15001,-0.025 -0.35002,0.15001 -0.52503,0.15001 -0.17501,0 -0.50002,0.15001 -0.65003,-0.20001 -0.15001,-0.35002 -0.20001,-0.47502 -0.35002,-0.82504 -0.15001,-0.35002 -0.22501,-0.32502 -0.20001,-0.70004 0.025,-0.37501 0.12501,-0.67503 0.20001,-0.87504 0.075,-0.20001 0.10001,-0.25001 0.12501,-0.50002 0.025,-0.25002 -0.52503,-0.50003 -0.62504,-0.97505 -0.1,-0.47503 -0.25001,-0.77504 -0.40001,-1.12506 -0.15001,-0.35002 -0.30002,-0.55003 -0.32502,-0.97505 -0.025,-0.42502 -0.12501,-0.67504 0.025,-1.22506 0.15001,-0.55003 0.05,-0.45003 0.45002,-1.00006 0.40002,-0.55002 0.57503,-0.72503 0.80004,-0.90004 0.22502,-0.17501 0.60003,-0.55003 0.60003,-0.55003 z"
       id="path32121" /><path
       style="opacity:0.99;fill:#fde0a4;fill-opacity:0.992157;fill-rule:nonzero;stroke:none;stroke-width:0.1;stroke-dasharray:none;stroke-opacity:1;paint-order:fill markers stroke"
       d="m -95.875741,54.294543 c 0,0.10001 -0.175012,0.15001 -0.300017,0.52503 -0.125008,0.37502 -0.100004,0.55003 -0.125008,0.72504 -0.025,0.17501 -0.350017,0.72504 -0.350017,0.72504 0,0 -0.700035,0.37501 -0.275014,0.67503 0.425024,0.30001 0.625031,0.50002 0.750039,0.50002 0.125005,0 0.350017,-0.1 0.525026,-0.32501 0.175009,-0.22501 0.375021,-0.40002 0.525029,-0.72504 0.150005,-0.32502 0.375017,-0.92505 0.375017,-0.92505 0,0 -0.05,0.45003 0.175009,0.62504 0.225012,0.17501 0,0.27501 0.450025,0.15 0.450021,-0.125 0.800039,-0.67503 0.825042,-0.80004 0.025,-0.125 0.225009,-0.47502 0.225009,-0.72503 0,-0.25002 -0.150005,-0.50003 -0.375017,-0.62504 -0.225013,-0.125 -0.750038,-0.1 -1.000051,-0.075 -0.250013,0.025 -1.225063,0.10001 -1.225063,0.10001 z"
       id="path32123"
       sodipodi:nodetypes="csscsssscsssssscc" /><path
       style="opacity:0.99;fill:#fde0a4;fill-opacity:0.992157;fill-rule:nonzero;stroke:none;stroke-width:0.1;stroke-dasharray:none;stroke-opacity:1;paint-order:fill markers stroke"
       d="m -95.725736,57.219693 c 0,0 -0.150005,0.42502 -0.150005,0.57503 0,0.15001 0.375017,0.42502 0.62503,0.52503 0.250013,0.10001 0.825042,0.20001 1.100055,0.025 0.275016,-0.17501 0.475025,-0.55003 0.55003,-0.67503 0.075,-0.12501 0.100004,-0.17501 0.225012,-0.17501 0.125005,0 0.425021,-0.27502 0.425021,-0.42503 0,-0.15 0,-0.27501 0,-0.40002 0,-0.125 0.300014,-0.35001 0.300014,-0.35001 0,0 0.150008,-0.22501 0.150008,-0.50003 0,-0.27501 0.250013,-0.45002 -0.075,-0.50002 -0.325017,-0.05 -0.625031,-0.30002 -0.625031,-0.30002 0,0 -1.800092,-0.075 -1.975101,0.10001 -0.175009,0.175 -0.550029,2.1001 -0.550029,2.1001 z"
       id="path32125" /><path
       style="opacity:0.99;fill:#fde0a4;fill-opacity:1;fill-rule:nonzero;stroke:none;stroke-width:0.1;stroke-dasharray:none;stroke-opacity:1;paint-order:fill markers stroke"
       d="m -101.026,40.768853 c 0,0 0.71779,-3.53779 0.541,-3.64386 -0.17679,-0.10607 1.025358,-0.17678 1.308214,-0.56571 0.282858,-0.38893 0.707144,-0.81322 0.813215,-1.27286 0.106072,-0.45964 0.212143,-1.09607 0.212143,-1.44964 0,-0.35358 -0.106071,-1.30822 -0.106071,-1.30822 v -0.14143 c 0,0 4.348927,0.21215 6.611783,1.41429 2.262857,1.20214 2.368929,1.27286 2.368929,1.27286 0,0 0.990002,-0.77786 1.060714,-0.91929 0.07072,-0.14143 0.459645,-0.35357 0.459645,-0.35357 l 0.459642,0.99 c 0,0 0.141428,4.31357 -0.03536,4.98536 -0.176787,0.67178 -0.106071,0.31821 -0.14143,0.495 -0.03536,0.17678 -0.141428,1.20214 -0.141428,1.52035 0,0.31822 0.07071,1.13143 0.03536,1.44965 -0.03536,0.31821 -0.565713,1.87393 -0.565713,1.87393 0,0 -1.025359,0.99 -1.272858,1.09607 -0.247499,0.10607 -1.485,0.63643 -1.661784,0.70714 -0.176787,0.0707 -0.707144,0.14143 -0.883931,0.14143 -0.176784,0 -1.308214,0 -1.661784,0 -0.353571,0 -1.308214,-0.14143 -1.626428,-0.21214 -0.318215,-0.0707 -1.096071,-0.2475 -1.555716,-0.31822 -0.459642,-0.0707 -1.272857,-0.38893 -1.626428,-0.56571 -0.353571,-0.17679 -1.025356,-0.45965 -1.166786,-0.53036 -0.141428,-0.0707 -0.777858,-0.67178 -0.989998,-0.77786 -0.21214,-0.10607 -0.70715,-0.495 -0.81322,-0.63642 -0.10607,-0.14143 -0.495,-0.49501 -0.495,-0.49501 v -0.45964 c 0,0 -0.45964,0.495 -0.99,0.21215 -0.53035,-0.28286 -1.30821,-0.35358 -1.59107,-0.70715 -0.28286,-0.35357 -0.60107,-1.13143 -0.60107,-1.27286 0,-0.14142 -0.0354,-0.42428 0,-0.70714 0.0354,-0.28286 0.14143,-0.7425 0.14143,-0.7425 0,0 0.21214,-0.35357 0.63643,-0.60107 0.42428,-0.2475 0.56571,-0.38893 0.77786,-0.42429 0.21214,-0.0354 0.84857,0.0354 0.84857,0.0354 0,0 0.495,0.17679 0.60107,0.35357 0.10607,0.17679 0.31821,0.45965 0.42428,0.60107 0.10607,0.14143 0.35357,0.45965 0.42429,0.60108 0.0707,0.14142 0.2015,0.35564 0.2015,0.35564 z"
       id="path37522" /><path
       style="opacity:0.99;fill:#ff6600;fill-opacity:1;fill-rule:nonzero;stroke:none;stroke-width:0.1;stroke-dasharray:none;stroke-opacity:1;paint-order:fill markers stroke"
       d="m -103.77615,32.368433 c 0,0 -3.65018,1.85009 -2.70013,4.85024 0.95004,3.00015 1.40007,3.15016 1.40007,3.15016 l 0.15001,-0.05 c 0,0 0.55002,-1.00005 0.80004,-1.10006 0.25001,-0.1 0.60003,-0.30001 0.90004,-0.25001 0.30002,0.05 1.20006,0.35002 1.30007,0.60003 0.1,0.25002 0.50002,0.65003 0.65003,0.85005 0.15001,0.20001 0.35002,0.30001 0.35002,0.30001 0,0 0.25001,-0.90004 0.40002,-1.35007 0.15001,-0.45002 0.20001,-0.65003 0.15001,-1.05005 -0.05,-0.40002 -0.15001,-0.90005 -0.15001,-0.90005 l -0.25001,-0.65003 c 0.955262,0.71155 3.449013,0.57575 2.703689,-2.67943 -0.311283,-1.35952 0.02071,-1.47936 0.02071,-1.47936 0,0 0.375756,-0.24143 1.175798,-0.0914 0.800039,0.15001 1.80009,0.30002 2.350119,0.50003 0.550026,0.20001 1.400071,0.45002 1.800092,0.60003 0.400019,0.15001 1.450073,0.50002 1.700086,0.70003 0.250013,0.20002 0.900046,0.40002 1.150059,0.55003 0.250013,0.15001 0.800039,0.45002 0.800039,0.45002 0,0 0.425022,-0.77504 0.675035,-0.92505 0.250012,-0.15 0.525028,-0.47501 0.525028,-0.47501 l 0.300016,0.075 0.200011,0.77504 -3e-6,0.97505 c 0,0 0.600031,-0.82504 0.850044,-1.27507 0.250013,-0.45002 0.350017,-0.80004 0.60003,-1.30006 0.250013,-0.50003 0.400021,-0.90005 0.400021,-1.35007 0,-0.45003 0.250013,-1.55008 0.150008,-2.30012 -0.100005,-0.75004 -0.100005,-0.90005 -0.250013,-1.20006 -0.150008,-0.30002 -0.150008,-0.55003 -0.250012,-0.75004 -0.100005,-0.20001 -0.20001,-0.50003 -0.20001,-0.50003 0,0 0.05,0.60003 -0.150008,1.10006 -0.200012,0.50003 -0.350017,1.05005 -0.350017,1.05005 0,0 0.150005,-0.95004 -0.35002,-2.50012 -0.500025,-1.55008 -0.350017,-1.70009 -0.350017,-1.70009 v -0.30001 c 0,0 -0.100005,0.75003 -0.700035,1.15005 -0.600032,0.40002 -1.450075,1.05006 -2.000102,1.15006 -0.550029,0.10001 -2.100109,0.45003 -2.500127,0.45003 h -1.750092 c -0.200009,0 -0.700034,-0.10001 -0.700034,-0.10001 0,0 0.750038,0.15001 1.350068,-0.70004 0.60003,-0.85004 0.550029,-0.90004 0.550029,-0.90004 0,0 -0.750038,0.20001 -1.200063,0.20001 h -1.650081 c -0.300017,0 -2.200114,0.55003 -2.550131,0.65003 -0.350018,0.10001 -2.150107,0.50003 -2.550127,1.05005 -0.40003,0.55003 -1.65009,1.55008 -1.75009,1.8001 -0.10001,0.25001 -0.15001,0.35001 -0.45003,1.10005 -0.30001,0.75004 -0.25001,1.15006 -0.35002,1.45008 -0.1,0.30001 -0.25001,0.35002 -0.25001,0.35002 z"
       id="path37524"
       sodipodi:nodetypes="csccsssscssccscssssscsccccsssssscscsccsssscscssssssscc" /><path
       style="opacity:0.99;fill:#fde0a4;fill-opacity:0.992157;fill-rule:nonzero;stroke:none;stroke-width:0.108535;stroke-dasharray:none;stroke-opacity:1;paint-order:fill markers stroke"
       d="m -99.321539,45.497833 v 0.70618 c 0,0 -0.09175,0.83457 0.734045,0.96296 0.825802,0.1284 1.238702,0.321 1.238702,0.321 l 0.09175,-1.32307 c 0,0 -0.734043,-0.21768 -1.2387,-0.41027 -0.504657,-0.1926 -0.550533,-0.44939 -0.550533,-0.44939 z"
       id="path37526"
       sodipodi:nodetypes="ccsccscc" /><path
       style="opacity:0.99;fill:#48a4df;fill-opacity:1;fill-rule:nonzero;stroke:#0055d4;stroke-width:0.1;stroke-dasharray:none;stroke-opacity:1;paint-order:fill markers stroke"
       d="m -101.77604,50.669363 c -0.20001,-0.30002 -1.50008,-1.50008 -1.55008,-1.8501 -0.05,-0.35001 -0.10001,-0.2 0.60003,-0.65003 0.70003,-0.45002 1.35007,-0.80004 1.75009,-0.85004 0.40002,-0.05 1.000048,-0.10001 1.000048,-0.10001 l -1.000048,0.05 c 0,0 0.35001,-0.80003 0.80004,-1.00005 0.45002,-0.20001 0.800038,-0.45002 0.800038,-0.45002 0,0 0.300016,0.45002 0.600032,0.80004 0.300014,0.35002 0.450022,0.70004 0.950048,0.55003 0.500025,-0.15001 0.650033,-0.45002 0.650033,-0.45002 0,0 1.20006,4.40022 0.950048,6.30032 -0.250013,1.90009 0.300016,1.80009 0,1.90009 -0.300014,0.10001 -2.050103,0.05 -2.050103,0.05 0,0 -1.100058,-0.25001 -1.300067,-0.25001 H -100.926 c -0.25001,0 -0.50003,0.25001 -0.75004,0 -0.25001,-0.25002 -0.80004,-0.90005 -0.85004,-1.9501 -0.05,-1.05006 -0.05,-1.15006 0.45002,-1.55008 0.50003,-0.40002 0.70004,-0.40002 0.70004,-0.40002 0,0 0.44144,-0.11465 0.99147,-0.41467 0.550027,-0.30001 1.408649,-1.48543 1.408649,-1.48543 -0.548972,1.05529 -1.329719,1.69338 -2.350119,1.9001 z"
       id="path37528"
       sodipodi:nodetypes="csssccscsscsscssssscsccc" /><path
       style="opacity:0.99;fill:#444960;fill-opacity:1;fill-rule:nonzero;stroke:none;stroke-width:0.1;stroke-dasharray:none;stroke-opacity:1;paint-order:fill markers stroke"
       d="m -103.30112,54.894573 c 0,0 0.50002,2.67514 0.52503,2.95016 0.025,0.27501 0.1,1.90009 0.025,2.0251 -0.075,0.12501 -0.50003,0.82504 -0.57503,0.95005 -0.075,0.125 -0.90005,1.9501 -1.02505,2.0251 -0.12501,0.075 -0.72504,1.07506 -0.72504,1.07506 0,0 0.55002,0.15 0.72504,0.15 0.175,0 1.32506,-0.125 1.65008,-0.17501 0.32501,-0.05 0.70003,-0.05 0.95005,-0.05 0.25001,0 0.55002,0.45002 0.65003,0.45002 0.10001,0 0,-0.37501 0.025,-0.62503 0.025,-0.25001 -0.025,-0.35001 0.20001,-0.52503 0.22501,-0.175 0.45002,-0.15 0.60003,-0.75003 0.15001,-0.60003 0.300016,-1.37507 0.35002,-1.60009 0.05,-0.22501 0.150008,-0.70003 -0.025,-1.15005 -0.17501,-0.45003 -0.22501,-1.05006 -0.32502,-1.17506 -0.1,-0.12501 -0.35002,-2.10011 -0.60003,-2.45013 -0.25001,-0.35002 -0.97505,-1.37507 -0.97505,-1.37507 z"
       id="path37530" /><path
       style="opacity:0.99;fill:#23283b;fill-opacity:1;fill-rule:nonzero;stroke:none;stroke-width:0.1;stroke-dasharray:none;stroke-opacity:1;paint-order:fill markers stroke"
       d="m -98.650885,57.394703 c 0,0 0.850043,1.55008 0.975051,1.62509 0.125005,0.075 0.60003,1.07505 0.60003,1.07505 0,0 0.05,0.85004 -0.05,1.37507 -0.100007,0.52503 -0.300016,1.52508 -0.300016,1.77509 0,0.25001 -0.250013,0.67504 -0.150009,0.67504 0.100005,0 1.000051,0.075 1.600081,0.075 0.600033,0 0.625033,0.15 1.475076,0.025 0.850043,-0.12501 1.100056,-0.1 1.250064,-0.15001 0.150008,-0.05 -0.05,0 -0.175009,-0.40002 -0.125005,-0.40001 -0.05,-0.075 -0.200009,-0.67503 -0.150008,-0.60003 -0.325017,-1.07506 -0.300016,-1.57508 0.025,-0.50003 -0.400021,-2.0251 -0.750038,-2.22512 -0.350018,-0.2 -0.500026,-0.62503 -0.700035,-0.77503 -0.200012,-0.15001 -1.475076,-1.42508 -1.475076,-1.42508 l -0.750038,-0.125 c 0,0 -0.650034,0.52502 -0.750038,0.57503 -0.100005,0.05 -0.300017,0.15 -0.300018,0.15 z"
       id="path37532" /><path
       style="opacity:0.99;fill:#474e61;fill-opacity:1;fill-rule:nonzero;stroke:none;stroke-width:0.1;stroke-dasharray:none;stroke-opacity:1;paint-order:fill markers stroke"
       d="m -102.32607,54.444553 6.175313,0.42502 c 0,0 0.450024,0.65004 0.100004,1.05006 -0.350017,0.40002 -0.700034,0.80004 -0.950047,1.00005 -0.250013,0.20001 -0.725038,0.55003 -1.025051,0.60003 -0.300017,0.05 -0.625034,0.125 -1.025054,0.075 -0.400019,-0.05 -0.900044,0.025 -1.275065,-0.1 -0.37502,-0.12501 -0.82504,-0.075 -1.00005,-0.60003 -0.17501,-0.52503 -0.32502,-1.35007 -0.45002,-1.52508 -0.12501,-0.17501 -0.67504,-0.95005 -0.67504,-0.95005 z"
       id="path37534" /><path
       style="opacity:0.99;fill:#47a3e3;fill-opacity:1;fill-rule:nonzero;stroke:#0055d4;stroke-width:0.1;stroke-dasharray:none;stroke-opacity:1;paint-order:fill markers stroke"
       d="m -105.05121,63.995043 c 0,0 3.00015,-0.20001 3.27517,-0.075 0.27501,0.125 1.15005,0.60003 1.25006,0.82504 0.10001,0.22501 0.35002,0.75004 0.47502,0.87504 0.125011,0.12501 -0.55002,0.25001 -0.72503,0.20001 -0.17501,-0.05 -0.90005,-0.05 -1.35007,-0.05 -0.45002,0 -1.07506,-0.05 -1.8251,-0.075 -0.75003,-0.025 -1.17506,-0.025 -1.37506,-0.025 -0.20002,0 -0.70004,0.12501 -0.60003,0 0.1,-0.12501 0.25001,-0.97505 0.45002,-1.40007 0.20001,-0.42502 0.42502,-0.27501 0.42502,-0.27501 z"
       id="path37536" /><path
       style="opacity:0.99;fill:#47a3e3;fill-opacity:1;fill-rule:nonzero;stroke:#0055d4;stroke-width:0.1;stroke-dasharray:none;stroke-opacity:1;paint-order:fill markers stroke"
       d="m -97.166568,63.712183 c 0,0 3.000153,-0.20001 3.275169,-0.075 0.275013,0.125 1.150056,0.60003 1.250063,0.82504 0.100005,0.22501 0.350018,0.75004 0.475023,0.87504 0.125007,0.12501 -0.550027,0.25001 -0.725035,0.20001 -0.175012,-0.05 -0.900047,-0.05 -1.350071,-0.05 -0.450022,0 -1.075055,-0.05 -1.825093,-0.075 -0.750039,-0.025 -1.17506,-0.025 -1.375069,-0.025 -0.200012,0 -0.700037,0.12501 -0.60003,0 0.100004,-0.12501 0.250013,-0.97505 0.450022,-1.40007 0.200009,-0.42502 0.425021,-0.27501 0.425021,-0.27501 z"
       id="path37538" /><path
       style="opacity:0.99;fill:#e3dedb;fill-opacity:1;fill-rule:nonzero;stroke:none;stroke-width:0.1;stroke-dasharray:none;stroke-opacity:1;paint-order:fill markers stroke"
       d="m -97.99161,65.462273 c -0.125005,-0.025 -0.275013,0.27501 -0.275013,0.27501 0,0 0.05,0.40002 0.200009,0.45002 0.150008,0.05 0.175008,0.05 0.875046,0.12501 0.700034,0.075 1.300064,0.10001 1.825093,0.10001 0.525026,0 1.80009,-0.075 2.050103,-0.10001 0.250012,-0.025 0.850045,-0.05 1.075055,-0.15001 0.225012,-0.1 0.40002,-0.17501 0.40002,-0.35001 0,-0.17501 -0.125005,-0.45003 -0.250012,-0.45003 -0.125005,0 -5.900301,0.10001 -5.900301,0.10001 z"
       id="path37540" /><ellipse
       style="opacity:0.99;fill:#000000;fill-opacity:1;fill-rule:nonzero;stroke:#000000;stroke-width:0.1;stroke-dasharray:none;stroke-opacity:1;paint-order:fill markers stroke"
       id="ellipse37542"
       cx="-93.767143"
       cy="40.183392"
       rx="0.77785712"
       ry="1.3966072" /><ellipse
       style="opacity:0.99;fill:#000000;fill-opacity:1;fill-rule:nonzero;stroke:#000000;stroke-width:0.0792771;stroke-dasharray:none;stroke-opacity:1;paint-order:fill markers stroke"
       id="ellipse37544"
       cx="-88.857292"
       cy="40.094173"
       rx="0.56723642"
       ry="1.203665" /><ellipse
       style="opacity:0.99;fill:#ffffff;fill-opacity:1;fill-rule:nonzero;stroke:none;stroke-width:0.1;stroke-dasharray:none;stroke-opacity:1;paint-order:fill markers stroke"
       id="ellipse37546"
       cx="-93.722946"
       cy="39.723751"
       rx="0.53919643"
       ry="0.68946427" /><ellipse
       style="opacity:0.99;fill:#ffffff;fill-opacity:1;fill-rule:nonzero;stroke:none;stroke-width:0.0775845;stroke-dasharray:none;stroke-opacity:1;paint-order:fill markers stroke"
       id="ellipse37548"
       cx="-88.870186"
       cy="39.564632"
       rx="0.40013629"
       ry="0.55924344" /><path
       style="opacity:0.99;fill:#000000;fill-opacity:1;fill-rule:nonzero;stroke:#000000;stroke-width:0.1;stroke-dasharray:none;stroke-opacity:1;paint-order:fill markers stroke"
       d="m -95.941607,36.647673 c 0.335891,-0.28286 0.848572,-0.76018 1.11375,-0.7425 0.265179,0.0177 0.636429,0.053 0.919285,0.0884 0.282858,0.0354 0.689464,0.30054 0.830894,0.38893 0.141428,0.0884 0.371251,0.53036 0.548035,0.65411 0.176786,0.12375 0.335893,0.51268 0.37125,0.54804 0.03536,0.0354 0.159107,0.22982 0.141427,0.26517 -0.01767,0.0354 -0.318214,-0.22098 -0.459642,-0.25634 -0.141427,-0.0353 -0.609909,-0.30937 -0.715981,-0.41544 -0.106071,-0.10607 -0.07071,-0.22982 -0.291698,-0.32705 -0.220982,-0.0972 -0.822052,-0.18563 -0.892767,-0.20331 -0.07071,-0.0177 -0.353571,-0.0177 -0.574553,-0.0177 -0.220983,0 -0.742501,0.0354 -0.804376,0.053 -0.06187,0.0177 -0.247499,0.053 -0.247499,0.053 z"
       id="path37550" /><path
       style="opacity:0.99;fill:#000000;fill-opacity:1;fill-rule:nonzero;stroke:#000000;stroke-width:0.1;stroke-dasharray:none;stroke-opacity:1;paint-order:fill markers stroke"
       d="m -89.488927,38.008923 c 0.03536,-0.0884 0.194463,-0.53036 0.406606,-0.65411 0.212143,-0.12375 0.583393,-0.37125 0.671785,-0.4066 0.08839,-0.0354 0.282858,0 0.441965,0.0707 0.159107,0.0707 0.318215,0.12375 0.265179,0.21214 -0.05304,0.0884 -0.159107,0.0884 -0.406609,0.14143 -0.247499,0.053 -0.494999,0.14143 -0.583393,0.26518 -0.08839,0.12375 -0.335891,0.2475 -0.441963,0.40661 -0.106071,0.1591 -0.318214,0.2475 -0.318214,0.17678 0,-0.0707 -0.03536,-0.21214 -0.03536,-0.21214 z"
       id="path37552" /><path
       style="opacity:0.99;fill:none;fill-opacity:1;fill-rule:nonzero;stroke:#000000;stroke-width:0.1;stroke-dasharray:none;stroke-opacity:1;paint-order:fill markers stroke"
       d="m -90.350461,41.306383 c -0.01249,0.075 -0.025,0.27501 -0.01249,0.36252 0.01249,0.0875 0.08751,0.21251 0.237513,0.23751 0.150009,0.025 0.262512,0.075 0.350018,0.12501 0.08751,0.05 0.337518,0.25001 0.350017,0.36252 0.01252,0.1125 -0.075,0.38752 -0.112506,0.46252 -0.0375,0.075 0.0375,0.23751 -0.112504,0.23751 -0.150008,0 -0.387522,-0.0625 -0.462526,-0.0625 -0.075,0 -0.362516,-0.0375 -0.362516,-0.0375 l 0.137507,-0.0125 0.21251,0.0625"
       id="path37554" /><path
       style="opacity:0.99;fill:none;fill-opacity:1;fill-rule:nonzero;stroke:#000000;stroke-width:0.1;stroke-dasharray:none;stroke-opacity:1;paint-order:fill markers stroke"
       d="m -91.31301,44.844063 c -0.075,0.025 -1.100055,0.15001 -1.36257,0.075 -0.262514,-0.075 -0.800039,-0.33752 -0.862544,-0.42503 -0.0625,-0.0875 -0.437523,-0.28751 -0.500025,-0.41252 -0.0625,-0.125 -0.075,-0.37502 -0.075,-0.37502 0,0 -0.237512,0.31252 -0.287515,0.33752 -0.05,0.025 -0.175009,0.025 -0.175009,0.025"
       id="path37556" /><path
       style="opacity:0.99;fill:#fde0a4;fill-opacity:0.992157;fill-rule:nonzero;stroke:none;stroke-width:0.1;stroke-dasharray:none;stroke-opacity:1;paint-order:fill markers stroke"
       d="m -103.37613,48.944273 1.9001,2.0251 c 0,0 -0.97505,0.52503 -1.02505,0.62503 -0.05,0.10001 -0.075,1.12506 -0.025,1.25007 0.05,0.12501 0.30001,1.02505 0.42502,1.25006 0.12501,0.22501 0.40002,0.92505 0.40002,0.92505 0,0 -0.05,-0.37502 0.37502,-0.22501 0.42502,0.15001 0.47502,0.075 0.52503,0.17501 0.05,0.1 0.62503,0.70003 0.62503,0.70003 l 0.275012,0.85005 c 0,0 0.250013,0.27501 0.025,0.42502 -0.225012,0.15001 -0.275012,0.35002 -0.350022,0.22501 -0.075,-0.12501 -0.2,-0.57503 -0.2,-0.57503 l 0.22501,0.87505 0.275011,0.40002 c 0,0 0.150008,0.42502 -0.250011,0.55003 -0.40002,0.125 -0.77504,-0.05 -0.77504,-0.05 0,0 -0.075,0 -0.35002,0.20001 -0.27501,0.20001 -0.50003,0.52503 -0.67503,0.35002 -0.17501,-0.17501 -0.37502,-0.25001 -0.52503,-0.27502 -0.15001,-0.025 -0.35002,0.15001 -0.52503,0.15001 -0.17501,0 -0.50002,0.15001 -0.65003,-0.20001 -0.15001,-0.35002 -0.20001,-0.47502 -0.35002,-0.82504 -0.15001,-0.35002 -0.22501,-0.32502 -0.20001,-0.70004 0.025,-0.37501 0.12501,-0.67503 0.20001,-0.87504 0.075,-0.20001 0.10001,-0.25001 0.12501,-0.50002 0.025,-0.25002 -0.52503,-0.50003 -0.62504,-0.97505 -0.1,-0.47503 -0.25001,-0.77504 -0.40001,-1.12506 -0.15001,-0.35002 -0.30002,-0.55003 -0.32502,-0.97505 -0.025,-0.42502 -0.12501,-0.67504 0.025,-1.22506 0.15001,-0.55003 0.05,-0.45003 0.45002,-1.00006 0.40002,-0.55002 0.57503,-0.72503 0.80004,-0.90004 0.22502,-0.17501 0.60003,-0.55003 0.60003,-0.55003 z"
       id="path37558" /><path
       style="opacity:0.99;fill:#fde0a4;fill-opacity:0.992157;fill-rule:nonzero;stroke:none;stroke-width:0.1;stroke-dasharray:none;stroke-opacity:1;paint-order:fill markers stroke"
       d="m -95.875741,54.294543 c 0,0.10001 -0.175012,0.15001 -0.300017,0.52503 -0.125008,0.37502 -0.100004,0.55003 -0.125008,0.72504 -0.025,0.17501 -0.350017,0.72504 -0.350017,0.72504 0,0 -0.700035,0.37501 -0.275014,0.67503 0.425024,0.30001 0.625031,0.50002 0.750039,0.50002 0.125005,0 0.350017,-0.1 0.525026,-0.32501 0.175009,-0.22501 0.375021,-0.40002 0.525029,-0.72504 0.150005,-0.32502 0.375017,-0.92505 0.375017,-0.92505 0,0 -0.05,0.45003 0.175009,0.62504 0.225012,0.17501 0,0.27501 0.450025,0.15 0.450021,-0.125 0.800039,-0.67503 0.825042,-0.80004 0.025,-0.125 0.225009,-0.47502 0.225009,-0.72503 0,-0.25002 -0.150005,-0.50003 -0.375017,-0.62504 -0.225013,-0.125 -0.750038,-0.1 -1.000051,-0.075 -0.250013,0.025 -1.225063,0.10001 -1.225063,0.10001 z"
       id="path37560"
       sodipodi:nodetypes="csscsssscsssssscc" /><path
       style="opacity:0.99;fill:#fde0a4;fill-opacity:0.992157;fill-rule:nonzero;stroke:none;stroke-width:0.1;stroke-dasharray:none;stroke-opacity:1;paint-order:fill markers stroke"
       d="m -95.725736,57.219693 c 0,0 -0.150005,0.42502 -0.150005,0.57503 0,0.15001 0.375017,0.42502 0.62503,0.52503 0.250013,0.10001 0.825042,0.20001 1.100055,0.025 0.275016,-0.17501 0.475025,-0.55003 0.55003,-0.67503 0.075,-0.12501 0.100004,-0.17501 0.225012,-0.17501 0.125005,0 0.425021,-0.27502 0.425021,-0.42503 0,-0.15 0,-0.27501 0,-0.40002 0,-0.125 0.300014,-0.35001 0.300014,-0.35001 0,0 0.150008,-0.22501 0.150008,-0.50003 0,-0.27501 0.250013,-0.45002 -0.075,-0.50002 -0.325017,-0.05 -0.625031,-0.30002 -0.625031,-0.30002 0,0 -1.800092,-0.075 -1.975101,0.10001 -0.175009,0.175 -0.550029,2.1001 -0.550029,2.1001 z"
       id="path37562" /><path
       style="opacity:0.99;fill:#a05a2c;fill-opacity:0.984314;fill-rule:nonzero;stroke:none;stroke-width:0.1;stroke-dasharray:none;stroke-opacity:1;paint-order:fill markers stroke"
       d="m 6.7151518,9.2650612 c -0.325017,0.075 -0.532348,0.284112 -0.607351,0.459122 -0.075,0.17501 -0.192688,0.3659178 -0.242692,0.5159258 -0.05,0.150007 -0.150008,0.525026 -0.150008,0.625031 0,0.100006 -0.150008,0.175011 -0.150008,0.175011 l -0.125005,0.275015 0.200009,0.125004 0.300016,-0.075 c 0,0 0.05,-0.275014 0.05,-0.375019 0,-0.100006 0.409122,-0.487527 0.584131,-0.612535 0.175008,-0.125004 0.469847,-0.6987748 0.469847,-0.6987748 l -0.153929,-0.08876 z"
       id="path54822"
       sodipodi:nodetypes="csssccccssccc" /><path
       style="opacity:0.99;fill:#434860;fill-opacity:1;fill-rule:nonzero;stroke:none;stroke-width:0.0378975;stroke-dasharray:none;stroke-opacity:1;paint-order:fill markers stroke"
       d="m 6.2337578,11.496357 2.233303,0.556707 c 0,0 0.140714,0.26452 -0.0087,0.399649 -0.149387,0.135132 -0.109726,0.263559 -0.212652,0.327815 -0.102929,0.06425 -0.328083,0.142255 -0.443213,0.147846 -0.11513,0.0056 -0.398896,0.05904 -0.547266,0.02252 -0.148363,-0.03646 -0.270113,-0.06748 -0.405758,-0.131065 -0.135643,-0.06359 -0.689955,-0.22793 -0.732671,-0.433268 -0.04274,-0.205337 -0.02539,-0.376697 -0.06473,-0.448081 -0.03933,-0.07139 -0.03354,-1.04882 -0.03354,-1.04882 z"
       id="path54826-7"
       sodipodi:nodetypes="ccscsscsccc" /><path
       style="opacity:0.99;fill:#552200;fill-opacity:0.984314;fill-rule:nonzero;stroke:#2b1100;stroke-width:0.0340083;stroke-dasharray:none;stroke-opacity:1;paint-order:fill markers stroke"
       d="m 6.7875658,14.946825 c 0,0 1.021978,-0.03464 1.11407,0.01091 0.09211,0.0455 0.384237,0.216735 0.415723,0.29433 0.03149,0.07759 0.110636,0.258829 0.151737,0.302707 0.0411,0.04388 -0.189736,0.07886 -0.248663,0.05992 -0.05894,-0.01894 -0.305373,-0.027 -0.458336,-0.032 -0.152961,-0.005 -0.364857,-0.02894 -0.61952,-0.04578 -0.25466,-0.01684 -0.399124,-0.02156 -0.467108,-0.02378 -0.06798,-0.0022 -0.239333,0.03471 -0.203951,-0.0067 0.0354,-0.04138 0.09582,-0.328643 0.168535,-0.470881 0.07285,-0.142167 0.147519,-0.08875 0.147519,-0.08875 z"
       id="path54832-6" /><path
       style="opacity:0.99;fill:#e3dedb;fill-opacity:1;fill-rule:nonzero;stroke:none;stroke-width:0.0340083;stroke-dasharray:none;stroke-opacity:1;paint-order:fill markers stroke"
       d="m 6.4876828,15.532513 c -0.04221,-0.0099 -0.09653,0.09042 -0.09653,0.09042 0,0 0.01255,0.136525 0.06298,0.155185 0.05045,0.01862 0.05893,0.01894 0.296043,0.05221 0.237111,0.03327 0.440781,0.04844 0.619239,0.05428 0.178456,0.0058 0.612686,-0.0055 0.697944,-0.01121 0.08525,-0.0057 0.289489,-0.0075 0.367081,-0.03904 0.0776,-0.03149 0.137912,-0.05504 0.139862,-0.114521 0.002,-0.05948 -0.03749,-0.154357 -0.07998,-0.155746 -0.04249,-0.0014 -2.006629,-0.03159 -2.006629,-0.03159 z"
       id="path54834-9" /><path
       style="opacity:0.99;fill:#c87137;fill-opacity:0.992157;fill-rule:nonzero;stroke:none;stroke-width:0.0369109;stroke-dasharray:none;stroke-opacity:1;paint-order:fill markers stroke"
       d="m 8.1049709,8.4816334 -0.07583,0.4773027 c 0,0 -0.1719108,0.3691571 0.1060723,0.4283373 0.2779853,0.059184 0.6770678,0.2698833 0.6770678,0.2698833 L 8.9059059,9.109622 c 0,0 -0.1076356,-0.4127836 -0.2753619,-0.487703 C 8.462818,8.5469961 8.1520713,8.4839343 8.1520713,8.4839343 Z"
       id="path54838-8"
       sodipodi:nodetypes="ccsccscc" /><path
       style="opacity:0.99;fill:#552200;fill-opacity:0.992157;fill-rule:nonzero;stroke:#2b1100;stroke-width:0.034;stroke-dasharray:none;stroke-opacity:1;paint-order:fill markers stroke"
       d="m 7.9079368,8.7359752 c 0,0 -1.707582,1.9093438 -1.820892,2.1214268 -0.164581,0.308048 0.36534,1.036176 0.813214,0.972324 0.276725,-0.03945 0.618748,-0.01768 0.883927,-0.01768 0.265178,0 0.654108,0.194467 0.866251,0.212145 0.212143,0.01768 0.265179,0.01768 0.265179,0.01768 0,0 -0.05304,-0.742503 -0.05304,-1.166787 V 9.8674032 c 0,-0.406607 0.04786,-0.698931 -0.02286,-0.751967 -0.07072,-0.05304 -0.100891,0.327683 -0.27768,0.20393 -0.176786,-0.12375 -0.269469,-0.08535 -0.393218,-0.209107 -0.123751,-0.12375 -0.095217,-0.293086 -0.095217,-0.293086 z"
       id="path54858-3"
       sodipodi:nodetypes="csssscssssscc" /><path
       style="opacity:0.99;fill:#2b1100;fill-opacity:1;fill-rule:nonzero;stroke:none;stroke-width:0.1;stroke-dasharray:none;stroke-opacity:1;paint-order:fill markers stroke"
       d="m 6.9459708,9.6918752 c 0,0 -0.316437,-0.346248 -0.298757,-0.416962 0.01767,-0.07071 0.263401,-0.195722 0.493223,-0.248758 0.22982,-0.05304 0.371248,-0.07072 0.371248,-0.07072 h 0.168574 l -0.565713,0.668753 z"
       id="path54860-0"
       sodipodi:nodetypes="csscccc" /><path
       style="opacity:0.99;fill:#a05a2c;fill-opacity:1;fill-rule:nonzero;stroke:none;stroke-width:0.1;stroke-dasharray:none;stroke-opacity:1;paint-order:fill markers stroke"
       d="m 5.8918868,11.284097 c 0,0 -0.262512,-0.0375 -0.312516,0.06251 -0.05,0.100005 -0.287514,0.41252 -0.18751,0.512525 0.100008,0.100008 0.375021,0.175011 0.475025,0.250017 0.100005,0.075 0.250013,0.175006 0.250013,0.05 0,-0.125008 -0.0033,-0.684989 -0.137508,-0.800043 z"
       id="path54862"
       sodipodi:nodetypes="csssssc" /><path
       style="opacity:0.99;fill:#c87137;fill-opacity:0.992157;fill-rule:nonzero;stroke:none;stroke-width:0.0340083;stroke-dasharray:none;stroke-opacity:1;paint-order:fill markers stroke"
       d="m 7.3236378,10.963919 0.798553,-0.02693 c 0,0 0.09141,0.312217 0.105584,0.347501 0.01419,0.03527 0.269377,0.27291 0.312469,0.28839 0.04309,0.01548 0.328534,0.154914 0.413996,0.173868 0.08546,0.01896 0.325647,0.106907 0.325647,0.106907 0,0 -0.106715,-0.07188 0.02734,-0.146194 0.134066,-0.0743 0.126257,-0.103958 0.162987,-0.09412 0.03673,0.0098 0.319151,-0.0011 0.319151,-0.0011 l 0.2783612,0.121797 c 0,0 0.126391,-0.0016 0.113796,0.08953 -0.01259,0.0911 0.02702,0.148949 -0.0217,0.139834 -0.04874,-0.0091 -0.1914532,-0.07884 -0.1914532,-0.07884 l 0.2734412,0.140159 0.163839,0.02026 c 0,0 0.142,0.05771 0.08358,0.187715 -0.05844,0.129995 -0.187582,0.185947 -0.187582,0.185947 0,0 -0.01692,0.01907 -0.02807,0.134193 -0.01116,0.115108 0.02076,0.245695 -0.06323,0.250747 -0.08402,0.005 -0.14823,0.03902 -0.188433,0.07157 -0.0402,0.03255 -0.0408,0.122913 -0.08028,0.167448 -0.03948,0.04455 -0.07463,0.161085 -0.197552,0.120291 -0.122915,-0.0408 -0.166004,-0.05627 -0.288919,-0.09707 -0.122915,-0.0408 -0.133472,-0.01606 -0.223264,-0.107037 -0.0898,-0.09097 -0.143572,-0.184108 -0.177547,-0.248316 -0.03397,-0.06421 -0.04106,-0.08185 -0.09905,-0.144621 -0.05798,-0.06277 -0.245696,0.02077 -0.389137,-0.06092 C 8.422721,12.423208 8.312532,12.393693 8.18962,12.352899 8.066705,12.312099 7.981964,12.305149 7.868168,12.215624 7.754374,12.126094 7.668185,12.09514 7.562063,11.932877 7.455936,11.770612 7.458822,11.818624 7.409102,11.592733 7.359382,11.36685 7.318302,11.373575 7.324532,11.276834 7.330732,11.180084 7.188654,10.951488 7.188654,10.951488 Z"
       id="path54864-7"
       sodipodi:nodetypes="ccccscscccsscccscscccssssssssssscc" /><path
       style="opacity:0.99;fill:#552200;fill-opacity:0.992157;fill-rule:nonzero;stroke:#2b1100;stroke-width:0.034;stroke-dasharray:none;stroke-opacity:1;paint-order:fill markers stroke"
       d="m 7.5487538,9.6180452 c 0,0 -0.30299,0.366698 -0.351469,0.6419858 -0.04848,0.275288 -0.115139,0.428165 -0.102154,0.5156 0.01298,0.08743 -0.06406,0.170368 0.328441,0.165695 0.3925,-0.0047 0.569963,-0.01316 0.637314,-0.04103 0.06734,-0.02787 0.141799,-0.128294 0.163096,-0.345927 0.0213,-0.217635 0.0303,-0.397695 0.0017,-0.5900478 -0.02857,-0.192356 -0.04155,-0.279788 -0.04155,-0.279788 v 0 l -0.08552,-0.09453"
       id="path54866-8" /><path
       style="opacity:0.99;fill:#2b1100;fill-opacity:0.984314;fill-rule:nonzero;stroke:none;stroke-width:0.0340083;stroke-dasharray:none;stroke-opacity:1;paint-order:fill markers stroke"
       d="m 4.5938958,13.019498 c 0,0 -0.0768,1.019677 -0.132105,1.106264 -0.05526,0.08661 -0.257269,0.358364 -0.33783,0.381217 -0.08056,0.02286 -0.269333,0.08181 -0.317424,0.117887 -0.04809,0.03608 -0.05774,-0.197192 -0.0325,-0.253707 0.02524,-0.05653 0.06008,-0.30062 0.0817,-0.45213 0.02162,-0.151508 0.06848,-0.359539 0.112939,-0.610857 0.04446,-0.251314 0.06487,-0.394406 0.07448,-0.461744 0.0096,-0.06734 -0.0085,-0.241689 0.02886,-0.20201 0.03728,0.03969 0.316261,0.131021 0.449739,0.218786 0.133393,0.08789 0.07217,0.156303 0.07217,0.156303 z"
       id="path69535" /><path
       style="opacity:0.99;fill:#e3dedb;fill-opacity:1;fill-rule:nonzero;stroke:none;stroke-width:0.0340083;stroke-dasharray:none;stroke-opacity:1;paint-order:fill markers stroke"
       d="m 4.0443278,12.657648 c 0.01444,-0.04088 -0.07938,-0.105798 -0.07938,-0.105798 0,0 -0.13708,-0.0024 -0.161118,0.04572 -0.024,0.04812 -0.02524,0.05652 -0.08412,0.288601 -0.05888,0.232081 -0.09613,0.43289 -0.121358,0.609652 -0.02519,0.176765 -0.06122,0.609645 -0.06482,0.695018 -0.0036,0.08536 -0.02405,0.288585 -0.0011,0.369149 0.02286,0.08057 0.0397,0.143083 0.09862,0.151496 0.05891,0.0085 0.157521,-0.02047 0.163526,-0.06255 0.006,-0.04208 0.249812,-1.991269 0.249812,-1.991269 z"
       id="path69537" /><path
       style="opacity:0.99;fill:#464b62;fill-opacity:1;fill-rule:nonzero;stroke:none;stroke-width:0.034;stroke-dasharray:none;stroke-opacity:1;paint-order:fill markers stroke"
       d="m 4.6269138,12.950744 -0.212143,1.308214 c 0,0 0.954643,0.2475 1.202145,0.2475 0.247499,0 0.8194629,-0.209109 0.8194629,-0.209109 0.1900465,-0.329169 0.1136874,-0.544165 0.1705311,-0.816248 l 0.106072,-0.636428 0.03536,-0.2475 -0.7425,-0.388929 c 0,0 0.176786,0.530357 0,0.777857 -0.176784,0.2475 -0.424286,0.318215 -0.424286,0.318215 l -0.60107,-0.282858 z"
       id="path70265"
       sodipodi:nodetypes="ccscccccsccc" /><path
       style="opacity:0.99;fill:#464b62;fill-opacity:1;fill-rule:nonzero;stroke:none;stroke-width:0.034;stroke-dasharray:none;stroke-opacity:1;paint-order:fill markers stroke"
       d="m 7.3494148,12.897708 c 0.08839,0.05304 0.265179,0.459643 0.300535,0.530357 0.03536,0.07071 -0.141427,0.406608 -0.176786,0.495001 -0.03536,0.08839 -0.141428,0.37125 -0.212143,0.459642 -0.07071,0.08839 -0.477322,0.300536 -0.530357,0.388929 -0.05304,0.08839 -0.05304,0.194464 -0.05304,0.194464 0,0 0.318214,0.05304 0.636429,0.05304 0.318214,0 0.583393,0 0.671787,0 0.08839,0 0.212143,-0.03536 0.318215,-0.212143 0.106071,-0.176786 0.229819,-0.548036 0.265178,-0.707143 0.03536,-0.159107 0.05304,-0.282857 0.05304,-0.406607 0,-0.12375 -0.282858,-0.583393 -0.353573,-0.689464 -0.07071,-0.106072 -0.159108,-0.176786 -0.176784,-0.2475 -0.01767,-0.07071 -0.742501,0.141428 -0.742501,0.141428 z"
       id="path71701" /><ellipse
       style="opacity:0.99;fill:#000000;fill-opacity:1;fill-rule:nonzero;stroke:#000000;stroke-width:0.0340083;stroke-dasharray:none;stroke-opacity:1;paint-order:fill markers stroke"
       id="ellipse54840-0"
       cx="10.263495"
       cy="6.422255"
       rx="0.2645359"
       ry="0.4749622"
       transform="rotate(3.1810796)" /><ellipse
       style="opacity:0.99;fill:#000000;fill-opacity:1;fill-rule:nonzero;stroke:#000000;stroke-width:0.0269608;stroke-dasharray:none;stroke-opacity:1;paint-order:fill markers stroke"
       id="ellipse54842-1"
       cx="11.933253"
       cy="6.3919134"
       rx="0.19290741"
       ry="0.4093459"
       transform="rotate(3.1810796)" /><ellipse
       style="opacity:0.99;fill:#ffffff;fill-opacity:1;fill-rule:nonzero;stroke:none;stroke-width:0.0340083;stroke-dasharray:none;stroke-opacity:1;paint-order:fill markers stroke"
       id="ellipse54844-3"
       cx="10.278525"
       cy="6.2659388"
       rx="0.18337148"
       ry="0.234475"
       transform="rotate(3.1810796)" /><ellipse
       style="opacity:0.99;fill:#ffffff;fill-opacity:1;fill-rule:nonzero;stroke:none;stroke-width:0.0263852;stroke-dasharray:none;stroke-opacity:1;paint-order:fill markers stroke"
       id="ellipse54846-3"
       cx="11.928868"
       cy="6.2118254"
       rx="0.13607951"
       ry="0.19018912"
       transform="rotate(3.1810796)" /><path
       style="opacity:0.99;fill:#000000;fill-opacity:1;fill-rule:nonzero;stroke:#000000;stroke-width:0.0340083;stroke-dasharray:none;stroke-opacity:1;paint-order:fill markers stroke"
       d="M 9.2196651,5.740278 C 9.7424962,5.3113613 10.19714,5.610454 10.486606,6.129834 c 0.01134,0.012688 0.04969,0.08104 0.04302,0.09271 C 10.522926,6.234231 10.425744,6.141503 10.378388,6.126827 10.032848,5.8231472 9.7618589,5.7465624 9.28203,5.7557709 9.260687,5.7606109 9.196989,5.7690969 9.196989,5.7690969 Z"
       id="path54848-3"
       sodipodi:nodetypes="ccccccc" /><path
       style="opacity:0.99;fill:#000000;fill-opacity:1;fill-rule:nonzero;stroke:#000000;stroke-width:0.0340083;stroke-dasharray:none;stroke-opacity:1;paint-order:fill markers stroke"
       d="m 11.385041,6.3242763 c 0.150369,-0.3279725 0.402009,-0.3626735 0.620974,-0.2304364 -0.222467,0.025522 -0.45119,0.2063704 -0.612972,0.3031343 0.0013,-0.024007 -0.008,-0.072701 -0.008,-0.072701 z"
       id="path54850-8"
       sodipodi:nodetypes="ccccc" /><path
       style="opacity:0.99;fill:none;fill-opacity:1;fill-rule:nonzero;stroke:#000000;stroke-width:0.0340083;stroke-dasharray:none;stroke-opacity:1;paint-order:fill markers stroke"
       d="m 11.03027,7.4276994 c -0.0057,0.025231 -0.01368,0.09291 -0.01108,0.1228612 0.0026,0.029947 0.0257,0.073811 0.07617,0.085131 0.05047,0.01132 0.08772,0.030421 0.116493,0.049054 0.02877,0.018629 0.109889,0.091263 0.112009,0.1297023 0.0021,0.038437 -0.03278,0.1301705 -0.04693,0.1549296 -0.01415,0.024759 0.0083,0.081356 -0.04268,0.078525 -0.05094,-0.00283 -0.130407,-0.028536 -0.155875,-0.029951 -0.02547,-0.00142 -0.122388,-0.019575 -0.122388,-0.019575 l 0.04693,-0.00165 0.07098,0.025233"
       id="path54852-4" /><path
       style="opacity:0.99;fill:none;fill-opacity:1;fill-rule:nonzero;stroke:#000000;stroke-width:0.0340083;stroke-dasharray:none;stroke-opacity:1;paint-order:fill markers stroke"
       d="m 10.636666,8.6107851 c -0.02594,0.00707 -0.376365,0.030177 -0.464089,-2.473e-4 C 10.084854,8.5801168 9.9072867,8.4808317 9.887714,8.4499373 9.8681429,8.4190464 9.7445751,8.3440539 9.7257111,8.3004261 c -0.018863,-0.043624 -0.01839,-0.1287567 -0.01839,-0.1287567 0,0 -0.086547,0.1016366 -0.1039979,0.109182 -0.01745,0.00755 -0.059898,0.00519 -0.059898,0.00519"
       id="path54854-8" /><g
       id="g71705"
       transform="translate(-55.461662,2.1425511)"><path
         style="opacity:0.99;fill:#ff2a2a;fill-opacity:0.962825;fill-rule:nonzero;stroke:#000000;stroke-width:0.034;stroke-dasharray:none;stroke-opacity:1;paint-order:fill markers stroke"
         d="m 65.162117,6.0579509 c 0,0 0.282857,0.99884 0.601072,0.910449 0.318213,-0.08839 0.380091,-0.185627 0.380091,-0.185627 l 0.106071,-0.212141 0.07072,-0.11491 c 0.03064,-0.03064 -1.035756,-0.267241 -1.104371,-0.340535 z"
         id="path54872-3"
         sodipodi:nodetypes="cscccsc" /><path
         style="opacity:0.99;fill:#ffffff;fill-opacity:0.962825;fill-rule:nonzero;stroke:none;stroke-width:0.034;stroke-dasharray:none;stroke-opacity:1;paint-order:fill markers stroke"
         d="m 65.195265,6.1242459 0.09281,0.269601 c 0,0 0.643059,0.274015 0.802167,0.220979 0.159107,-0.05304 0.150269,-0.05303 0.150269,-0.05303 -0.0055,0.0027 0.05399,-0.0439 0.05723,-0.102409 0.001,-0.0184 -1.098488,-0.336468 -1.10248,-0.335139 z"
         id="path54874-4"
         sodipodi:nodetypes="ccscsc" /></g></g></svg>
