<?xml version="1.0" encoding="UTF-8" standalone="no"?>
<!-- Created with Inkscape (http://www.inkscape.org/) -->

<svg
   width="50"
   height="70"
   viewBox="0 0 13.229166 18.520833"
   version="1.1"
   id="svg18473"
   xml:space="preserve"
   inkscape:version="1.2.2 (732a01da63, 2022-12-09)"
   sodipodi:docname="oshosi_move_2.svg"
   xmlns:inkscape="http://www.inkscape.org/namespaces/inkscape"
   xmlns:sodipodi="http://sodipodi.sourceforge.net/DTD/sodipodi-0.dtd"
   xmlns="http://www.w3.org/2000/svg"
   xmlns:svg="http://www.w3.org/2000/svg"><sodipodi:namedview
     id="namedview18475"
     pagecolor="#ffffff"
     bordercolor="#000000"
     borderopacity="0.25"
     inkscape:showpageshadow="2"
     inkscape:pageopacity="0.0"
     inkscape:pagecheckerboard="0"
     inkscape:deskcolor="#d1d1d1"
     inkscape:document-units="mm"
     showgrid="true"
     inkscape:zoom="5.2913967"
     inkscape:cx="35.907344"
     inkscape:cy="37.608218"
     inkscape:window-width="1366"
     inkscape:window-height="705"
     inkscape:window-x="-8"
     inkscape:window-y="-8"
     inkscape:window-maximized="1"
     inkscape:current-layer="g152"><inkscape:grid
       type="xygrid"
       id="grid36773"
       originx="0"
       originy="0" /></sodipodi:namedview><defs
     id="defs18470" /><g
     inkscape:label="Capa 1"
     inkscape:groupmode="layer"
     id="layer1"><g
       id="g689"><g
         id="g152"><path
           style="opacity:0.99;fill:#c87137;fill-opacity:1;fill-rule:nonzero;stroke:none;stroke-width:0.0340083;stroke-dasharray:none;stroke-opacity:1;paint-order:fill markers stroke"
           d="m 7.5027563,6.8648625 c 0,0 -0.1520268,-1.5502612 -0.2100546,-1.5896145 C 7.2346737,5.235895 8.1067308,5.5970904 8.2101169,5.4703638 8.3135036,5.3436372 8.4655808,5.2075728 8.5102724,5.0534997 8.5549644,4.8994266 8.6029924,4.6853229 8.6096644,4.5652651 8.6163344,4.4452038 8.5983354,4.1190456 8.5983354,4.1190456 l 0.00267,-0.048024 c 0,0 1.4727126,0.1541095 2.2183986,0.605011 0.745687,0.4509015 0.78037,0.4769169 0.78037,0.4769169 0,0 0.350844,-0.2454461 0.377524,-0.2921355 0.02668,-0.046689 0.162749,-0.1113835 0.162749,-0.1113835 l 0.137392,0.3448376 c 0,0 -0.03338,1.46738 -0.106089,1.6921559 -0.07271,0.2247726 -0.04202,0.1060493 -0.05737,0.1654127 -0.01534,0.05936 -0.07071,0.4055283 -0.07672,0.5135793 -0.006,0.1080544 0.0027,0.3855215 -0.01535,0.4929088 -0.01801,0.1073838 -0.227458,0.6256336 -0.227458,0.6256336 0,0 -0.366853,0.3168129 -0.452895,0.3481591 -0.08604,0.031346 -0.516255,0.1880809 -0.577618,0.2087548 -0.06136,0.020671 -0.242786,0.034679 -0.302816,0.031342 L 9.8968585,9.1408541 C 9.7768003,9.1341816 9.4553118,9.0681419 9.3485939,9.0381264 9.2418754,9.0081143 8.981084,8.9334008 8.8263421,8.9007128 8.6716008,8.8680317 8.401472,8.7446271 8.28475,8.6779273 8.1680282,8.6112242 7.9452557,8.5024988 7.8985663,8.4758195 7.8518774,8.4491437 7.6471157,8.2330311 7.5770826,8.1930072 7.5070497,8.1529867 7.3463075,8.0115805 7.3129586,7.9615583 7.2796103,7.9115327 7.1542194,7.7841317 7.1542194,7.7841317 l 0.00867,-0.1560748 c 0,0 -0.165417,0.1594073 -0.3401669,0.053354 C 6.6479774,7.5753548 6.385183,7.5366616 6.2958093,7.4112657 6.2064348,7.2858699 6.1130621,7.0157353 6.1157311,6.9677115 c 0.00267,-0.04802 -0.004,-0.1447354 0.013345,-0.2401157 0.017345,-0.09538 0.062036,-0.2494534 0.062036,-0.2494534 0,0 0.078708,-0.1160543 0.227448,-0.1920881 0.1487409,-0.076034 0.1994341,-0.1213886 0.2721364,-0.1293919 0.072703,-0.00802 0.2874718,0.028034 0.2874718,0.028034 0,0 0.1647449,0.069372 0.1974261,0.1314011 0.032681,0.062032 0.099378,0.1620835 0.1327268,0.2121057 0.033348,0.050026 0.1113838,0.1627508 0.1327266,0.2121091 0.021341,0.049355 0.061708,0.1245633 0.061708,0.1245633 z"
           id="path20216-3"
           sodipodi:nodetypes="cssssccsccccsssccscsscccccccccssscsccscscc" /><g
           id="g29143"
           transform="rotate(4.1750557,22.229884,13.563564)"><ellipse
             style="opacity:0.99;fill:#c87137;fill-opacity:0.992157;fill-rule:nonzero;stroke:none;stroke-width:0.171524;stroke-dasharray:none;stroke-opacity:1;paint-order:fill markers stroke"
             id="path4347"
             cx="9.0160713"
             cy="6.6354756"
             rx="2.8518746"
             ry="2.8358848" /><path
             style="opacity:0.99;fill:none;fill-opacity:0.992157;fill-rule:nonzero;stroke:#2b1100;stroke-width:0.38011;stroke-dasharray:none;stroke-opacity:1;paint-order:fill markers stroke"
             id="path5099"
             sodipodi:type="arc"
             sodipodi:cx="8.9980841"
             sodipodi:cy="5.2850561"
             sodipodi:rx="2.7141452"
             sodipodi:ry="0.50697601"
             sodipodi:start="0.28424498"
             sodipodi:end="2.8139227"
             sodipodi:arc-type="arc"
             d="M 11.603321,5.4272288 A 2.7141452,0.50697601 0 0 1 9.0570103,5.7919126 2.7141452,0.50697601 0 0 1 6.4283455,5.4482202"
             sodipodi:open="true" /><path
             style="opacity:0.99;fill:#008000;fill-opacity:0.992157;fill-rule:nonzero;stroke:none;stroke-width:0.0799998;stroke-dasharray:none;stroke-opacity:1;paint-order:fill markers stroke"
             d="M 10.572208,5.3271579 C 10.578584,5.3253877 10.450852,4.1907143 9.9004223,3.7184105 9.4434742,3.3263227 9.6175651,2.7991242 9.4938152,2.7991242 c -0.1237502,0 -0.1060717,0.4242846 0,1.1491078 0.1060713,0.7248197 0.2298212,1.2198214 0.4773214,1.4142844 0.2475004,0.1944631 0.5480354,0.4950017 0.5480354,0.4950017 z"
             id="path12676"
             sodipodi:nodetypes="csscscc" /><path
             style="opacity:0.99;fill:#008000;fill-opacity:0.992157;fill-rule:nonzero;stroke:none;stroke-width:0.0581417;stroke-dasharray:none;stroke-opacity:1;paint-order:fill markers stroke"
             d="m 10.951209,5.1445058 c -0.0035,-0.00177 0.06611,-1.1019525 0.365941,-1.559921 0.248912,-0.3801882 0.15408,-0.891384 0.221491,-0.891384 0.06741,0 0.05778,0.411408 0,1.1142309 -0.05778,0.7028193 -0.125191,1.1827988 -0.260011,1.3713599 -0.134821,0.1885575 -0.298532,0.479976 -0.298532,0.479976 z"
             id="path12786"
             sodipodi:nodetypes="csscscc" /><path
             style="opacity:0.99;fill:#44aa00;fill-opacity:0.992157;fill-rule:nonzero;stroke:none;stroke-width:0.051401;stroke-dasharray:none;stroke-opacity:1;paint-order:fill markers stroke"
             d="M 10.400052,5.2195104 C 10.404148,5.2184482 10.322079,4.4893269 9.9684189,4.1858638 9.6748228,3.9339428 9.7866785,3.5952062 9.7071673,3.5952062 c -0.079511,0 -0.068153,0.2726115 0,0.7383229 0.068153,0.465708 0.1476639,0.7837542 0.3066867,0.9087004 0.159023,0.1249462 0.352122,0.3180461 0.352122,0.3180461 z"
             id="path12792"
             sodipodi:nodetypes="csscscc" /><path
             style="opacity:0.99;fill:#44aa00;fill-opacity:0.992157;fill-rule:nonzero;stroke:none;stroke-width:0.051401;stroke-dasharray:none;stroke-opacity:1;paint-order:fill markers stroke"
             d="m 10.764412,5.0382532 c -0.0041,-0.00106 0.07797,-0.7301835 0.431633,-1.0336465 0.293596,-0.2519211 0.181741,-0.5906577 0.261252,-0.5906577 0.07951,0 0.06815,0.2726115 0,0.738323 -0.06815,0.4657079 -0.147664,0.7837541 -0.306687,0.9087003 -0.159023,0.1249462 -0.352122,0.3180462 -0.352122,0.3180462 z"
             id="path12794"
             sodipodi:nodetypes="csscscc" /><path
             style="opacity:0.99;fill:#008000;fill-opacity:1;fill-rule:nonzero;stroke:none;stroke-width:0.0799998;stroke-dasharray:none;stroke-opacity:1;paint-order:fill markers stroke"
             d="m 10.363466,5.5270626 c 0,0 -0.05053,0.1149834 -0.214056,-0.4197953 C 9.9858833,4.5724922 9.9038233,4.3293408 9.9038233,4.3293408"
             id="path12852"
             sodipodi:nodetypes="ccc" /><path
             style="opacity:0.99;fill:#008000;fill-opacity:1;fill-rule:nonzero;stroke:none;stroke-width:0.0799998;stroke-dasharray:none;stroke-opacity:1;paint-order:fill markers stroke"
             d="m 10.962043,5.1762708 c 0,0 0.05053,0.1149833 0.214057,-0.4197953 0.163526,-0.5347752 0.245586,-0.7779266 0.245586,-0.7779266"
             id="path12962"
             sodipodi:nodetypes="ccc" /><path
             style="opacity:0.99;fill:#0066ff;fill-opacity:0.992157;fill-rule:nonzero;stroke:none;stroke-width:0.106576;stroke-dasharray:none;stroke-opacity:1;paint-order:fill markers stroke"
             d="m 10.242493,4.7751372 c -0.0083,0.00212 -0.5182218,-1.4536401 -0.160497,-2.3793098 0.296973,-0.7684558 0.178347,-1.53060995 0.32019,-1.60767823 0.141843,-0.0770679 0.230804,0.60418933 0.528462,1.56477143 0.297657,0.9605645 0.487518,1.7462764 0.31631,2.1404035 -0.171209,0.3941234 -0.523429,1.0988192 -0.523429,1.0988192 z"
             id="path12788"
             sodipodi:nodetypes="csscscc" /><path
             style="opacity:0.99;fill:#2a7fff;fill-opacity:0.992157;fill-rule:nonzero;stroke:none;stroke-width:0.0718617;stroke-dasharray:none;stroke-opacity:1;paint-order:fill markers stroke"
             d="m 10.396303,4.5816124 c -0.0056,0.00142 -0.349424,-0.9801573 -0.108219,-1.6043148 0.200242,-0.5181527 0.120255,-1.0320533 0.215896,-1.0840166 0.09564,-0.051967 0.155626,0.4073896 0.356331,1.0550875 0.200703,0.6476838 0.328721,1.177474 0.213279,1.4432241 -0.115441,0.2657466 -0.352936,0.7409075 -0.352936,0.7409075 z"
             id="path12790"
             sodipodi:nodetypes="csscscc" /><ellipse
             style="opacity:0.99;fill:#ffff00;fill-opacity:0.992157;fill-rule:nonzero;stroke:none;stroke-width:0.109714;stroke-dasharray:none;stroke-opacity:1;paint-order:fill markers stroke"
             id="path5313"
             cx="10.769589"
             cy="5.4935174"
             rx="0.32620108"
             ry="0.52032417" /><path
             style="opacity:0.99;fill:#5599ff;fill-opacity:1;fill-rule:nonzero;stroke:none;stroke-width:0.0241149;stroke-dasharray:none;stroke-opacity:1;paint-order:fill markers stroke"
             d="m 10.656865,4.4446357 c -7.08e-4,0.00106 -0.225384,-0.8209537 -0.09436,-1.3892604 0.101011,-0.4381385 0.01023,-0.8877444 0.01825,-0.9341031 0.04835,1.1631634 0.08395,1.9157828 0.136747,2.7961099 z"
             id="path12796"
             sodipodi:nodetypes="csccc" /><ellipse
             style="opacity:0.99;fill:#dfdf00;fill-opacity:0.992157;fill-rule:nonzero;stroke:none;stroke-width:0.0776124;stroke-dasharray:none;stroke-opacity:1;paint-order:fill markers stroke"
             id="ellipse12964"
             cx="10.784284"
             cy="5.4877505"
             rx="0.22513951"
             ry="0.37726733" /></g><path
           style="opacity:0.99;fill:#a05a2c;fill-opacity:0.984314;fill-rule:nonzero;stroke:none;stroke-width:0.1;stroke-dasharray:none;stroke-opacity:1;paint-order:fill markers stroke"
           d="m 6.9774803,9.336226 c -0.325018,0.075 -0.550027,0.125005 -0.625031,0.300015 -0.075,0.17501 -0.175009,0.525026 -0.225012,0.675034 -0.05,0.150007 -0.150008,0.525026 -0.150008,0.625031 0,0.100005 -0.150008,0.17501 -0.150008,0.17501 l -0.125006,0.275015 0.200009,0.125004 0.300017,-0.075 c 0,0 0.05,-0.275015 0.05,-0.375019 0,-0.100005 0.250015,-0.487526 0.425023,-0.612534 0.175009,-0.125004 0.487525,-0.575026 0.487525,-0.575026 l -0.0125,-0.212513 z"
           id="path38880"
           sodipodi:nodetypes="csssccccssccc" /><path
           style="opacity:0.99;fill:#434860;fill-opacity:1;fill-rule:nonzero;stroke:none;stroke-width:0.0378975;stroke-dasharray:none;stroke-opacity:1;paint-order:fill markers stroke"
           d="m 6.4943063,11.172293 2.088377,0.936799 c 0,0 0.0945,0.284327 -0.07538,0.392572 -0.169881,0.108248 -0.152254,0.241499 -0.264476,0.287638 -0.112223,0.04613 -0.347251,0.0854 -0.461695,0.07165 -0.114444,-0.01374 -0.403152,-0.0085 -0.543328,-0.06931 -0.140175,-0.06076 -0.255025,-0.111697 -0.378126,-0.197072 -0.123099,-0.08538 -0.642125,-0.340096 -0.649904,-0.549686 -0.0078,-0.209593 0.03796,-0.375639 0.01111,-0.452596 -0.02684,-0.07696 0.03059,-0.592404 0.03059,-0.592404 z"
           id="path20230-8"
           sodipodi:nodetypes="ccscsscsccc" /><path
           style="opacity:0.99;fill:#552200;fill-opacity:0.992157;fill-rule:nonzero;stroke:#2b1100;stroke-width:0.0379556;stroke-dasharray:none;stroke-opacity:1;paint-order:fill markers stroke"
           d="m 4.6267163,14.053112 c 0,0 0.664926,0.831792 0.672129,0.946229 0.07815,-0.02744 0.232439,0.423468 0.171731,0.503486 -0.05648,0.07445 -0.05127,-0.01139 -0.07084,0.05277 -0.01957,0.06419 -0.509698,0.05329 -0.524183,-0.01425 -0.01448,-0.06755 -0.297363,0.01544 -0.377676,-0.135319 -0.08031,-0.150749 -0.175111,-0.356547 -0.300593,-0.612255 -0.125481,-0.255712 -0.195083,-0.466839 -0.230777,-0.533838 -0.0357,-0.067 -0.116806,-0.212188 -0.05708,-0.201 0.05972,0.01119 0.371242,-0.09026 0.54931,-0.09911 0.178068,-0.0088 0.167983,0.09327 0.167983,0.09327 z"
           id="path20236-3"
           sodipodi:nodetypes="ccsssssssccc" /><path
           style="opacity:0.99;fill:#ffffff;fill-opacity:1;fill-rule:nonzero;stroke:#ffffff;stroke-width:0.0379556;stroke-dasharray:none;stroke-opacity:1;paint-order:fill markers stroke"
           d="m 3.8932263,14.089069 c -0.01393,-0.04635 -0.141208,-0.04303 -0.141208,-0.04303 0,0 -0.125074,0.08813 -0.115052,0.147307 0.01003,0.05917 0.01448,0.06755 0.114289,0.315437 0.09981,0.247883 0.198514,0.453344 0.292215,0.629218 0.0937,0.175874 0.346377,0.589612 0.399373,0.668895 0.05299,0.07929 0.389175,-0.02268 0.462833,0.03486 0.07364,0.05756 0.45932,-0.07376 0.517941,-0.104991 0.05863,-0.03122 -0.600695,-0.221156 -0.643907,-0.20156 -0.306563,0.139016 -0.934253,-1.415721 -0.88649,-1.446118 z"
           id="path20238-7"
           sodipodi:nodetypes="ccssscccscc" /><path
           style="opacity:0.99;fill:#2b1100;fill-opacity:0.984314;fill-rule:nonzero;stroke:none;stroke-width:0.0340083;stroke-dasharray:none;stroke-opacity:1;paint-order:fill markers stroke"
           d="m 6.9499523,13.714974 c 0,0 0.506363,0.888388 0.508917,0.991097 0.0025,0.102702 -0.01297,0.440958 -0.06699,0.504945 -0.05402,0.06399 -0.177581,0.218398 -0.197283,0.275198 -0.01971,0.0568 -0.158118,-0.131217 -0.168785,-0.192187 -0.01067,-0.06098 -0.118248,-0.282841 -0.185022,-0.42055 -0.06677,-0.13771 -0.144216,-0.336393 -0.247855,-0.569622 -0.10364,-0.233226 -0.166704,-0.363283 -0.196381,-0.424488 -0.02968,-0.0612 -0.142125,-0.195667 -0.08903,-0.183614 0.05309,0.01207 0.335469,-0.06817 0.495206,-0.07002 0.159737,-0.0017 0.147219,0.08925 0.147219,0.08925 z"
           id="path20240-4" /><path
           style="opacity:0.99;fill:#e3dedb;fill-opacity:1;fill-rule:nonzero;stroke:none;stroke-width:0.0340083;stroke-dasharray:none;stroke-opacity:1;paint-order:fill markers stroke"
           d="m 6.2919933,13.722184 c -0.0109,-0.04196 -0.12496,-0.04335 -0.12496,-0.04335 0,0 -0.114991,0.07465 -0.108034,0.127976 0.007,0.05332 0.01067,0.06097 0.09159,0.286319 0.08092,0.225346 0.1623,0.412667 0.240202,0.573329 0.0779,0.160662 0.290047,0.539712 0.334797,0.612506 0.04475,0.0728 0.141429,0.252702 0.20542,0.306718 0.06399,0.05401 0.112907,0.09644 0.16646,0.07048 0.05355,-0.02595 0.119164,-0.105031 0.100615,-0.143284 -0.01855,-0.03825 -0.906085,-1.790689 -0.906085,-1.790689 z"
           id="path20242-0" /><path
           style="opacity:0.99;fill:#c87137;fill-opacity:0.992157;fill-rule:nonzero;stroke:none;stroke-width:0.0369109;stroke-dasharray:none;stroke-opacity:1;paint-order:fill markers stroke"
           d="m 8.1922884,8.3027864 -0.07583,0.4773027 c 0,0 -0.1719108,0.3691571 0.1060723,0.4283373 0.2779853,0.059184 0.6770678,0.2698833 0.6770678,0.2698833 L 8.9932234,8.930775 c 0,0 -0.1076356,-0.4127836 -0.2753619,-0.487703 C 8.5501355,8.3681491 8.2393888,8.3050873 8.2393888,8.3050873 Z"
           id="path20220-9"
           sodipodi:nodetypes="ccsccscc" /><ellipse
           style="opacity:0.99;fill:#000000;fill-opacity:1;fill-rule:nonzero;stroke:#000000;stroke-width:0.0340083;stroke-dasharray:none;stroke-opacity:1;paint-order:fill markers stroke"
           id="ellipse20244-9"
           cx="10.340754"
           cy="6.2388382"
           rx="0.2645359"
           ry="0.4749622"
           transform="rotate(3.1810796)" /><ellipse
           style="opacity:0.99;fill:#000000;fill-opacity:1;fill-rule:nonzero;stroke:#000000;stroke-width:0.0269608;stroke-dasharray:none;stroke-opacity:1;paint-order:fill markers stroke"
           id="ellipse20246-2"
           cx="12.010511"
           cy="6.2084966"
           rx="0.19290741"
           ry="0.4093459"
           transform="rotate(3.1810796)" /><ellipse
           style="opacity:0.99;fill:#ffffff;fill-opacity:1;fill-rule:nonzero;stroke:none;stroke-width:0.0340083;stroke-dasharray:none;stroke-opacity:1;paint-order:fill markers stroke"
           id="ellipse20248-2"
           cx="10.355784"
           cy="6.0825219"
           rx="0.18337148"
           ry="0.234475"
           transform="rotate(3.1810796)" /><ellipse
           style="opacity:0.99;fill:#ffffff;fill-opacity:1;fill-rule:nonzero;stroke:none;stroke-width:0.0263852;stroke-dasharray:none;stroke-opacity:1;paint-order:fill markers stroke"
           id="ellipse20250-2"
           cx="12.006126"
           cy="6.0284085"
           rx="0.13607951"
           ry="0.19018912"
           transform="rotate(3.1810796)" /><path
           style="opacity:0.99;fill:#000000;fill-opacity:1;fill-rule:nonzero;stroke:#000000;stroke-width:0.0340083;stroke-dasharray:none;stroke-opacity:1;paint-order:fill markers stroke"
           d="m 9.3069826,5.561431 c 0.1193928,-0.089709 0.3024861,-0.2421117 0.392196,-0.2311039 0.08971,0.011015 0.2151049,0.030007 0.3104834,0.047365 0.09538,0.017359 0.228442,0.1150625 0.274797,0.1477451 0.04636,0.032686 0.116053,0.1870947 0.173746,0.2324513 0.05769,0.045357 0.10438,0.180424 0.115719,0.193098 0.01134,0.012688 0.04969,0.08104 0.04302,0.09271 -0.0067,0.011687 -0.103883,-0.081041 -0.151238,-0.095717 -0.04736,-0.014655 -0.201262,-0.1165594 -0.235278,-0.1545782 -0.03402,-0.038019 -0.01967,-0.079372 -0.09288,-0.1165576 -0.0732,-0.037175 -0.2756315,-0.078546 -0.2993098,-0.085884 -0.023676,-0.00734 -0.1197241,-0.012683 -0.1947605,-0.016853 -0.075037,-0.00417 -0.2527909,-0.00199 -0.2741332,0.00282 -0.021343,0.00484 -0.085041,0.013326 -0.085041,0.013326 z"
           id="path20252-5" /><path
           style="opacity:0.99;fill:#000000;fill-opacity:1;fill-rule:nonzero;stroke:#000000;stroke-width:0.0340083;stroke-dasharray:none;stroke-opacity:1;paint-order:fill markers stroke"
           d="m 11.472358,6.1454293 c 0.01368,-0.02935 0.07604,-0.1764186 0.150411,-0.2144354 0.07437,-0.038017 0.205102,-0.1150516 0.235784,-0.1253869 0.03068,-0.010352 0.09605,0.00534 0.148739,0.032348 0.05269,0.027009 0.105717,0.048026 0.08604,0.077038 -0.01968,0.029016 -0.05569,0.027014 -0.140737,0.04035 -0.08504,0.013326 -0.17075,0.038682 -0.2031,0.079034 -0.03235,0.040352 -0.118726,0.077702 -0.157746,0.1297274 -0.03902,0.052022 -0.112723,0.078036 -0.111389,0.054022 0.0013,-0.024007 -0.008,-0.072701 -0.008,-0.072701 z"
           id="path20254-9" /><path
           style="opacity:0.99;fill:none;fill-opacity:1;fill-rule:nonzero;stroke:#000000;stroke-width:0.0340083;stroke-dasharray:none;stroke-opacity:1;paint-order:fill markers stroke"
           d="m 11.117588,7.2488524 c -0.0057,0.025231 -0.01368,0.09291 -0.01108,0.1228612 0.0026,0.029947 0.0257,0.073811 0.07617,0.085131 0.05047,0.01132 0.08772,0.030421 0.116493,0.049054 0.02877,0.018629 0.109889,0.091263 0.11201,0.1297023 0.0021,0.038437 -0.03278,0.1301705 -0.04693,0.1549296 -0.01415,0.024759 0.0083,0.081356 -0.04268,0.078525 -0.05094,-0.00283 -0.130407,-0.028536 -0.155875,-0.029951 -0.02547,-0.00142 -0.122388,-0.019575 -0.122388,-0.019575 l 0.04693,-0.00165 0.07098,0.025233"
           id="path20256-9" /><path
           style="opacity:0.99;fill:none;fill-opacity:1;fill-rule:nonzero;stroke:#000000;stroke-width:0.0340083;stroke-dasharray:none;stroke-opacity:1;paint-order:fill markers stroke"
           d="m 10.723983,8.4319381 c -0.02594,0.00707 -0.376364,0.030177 -0.464088,-2.473e-4 C 10.172171,8.4012698 9.9946042,8.3019847 9.9750315,8.2710903 9.9554604,8.2401994 9.8318926,8.1652069 9.8130286,8.1215791 9.7941652,8.0779548 9.794639,7.9928224 9.794639,7.9928224 c 0,0 -0.086547,0.1016366 -0.1039979,0.109182 -0.01745,0.00755 -0.059898,0.00519 -0.059898,0.00519"
           id="path20258-9" /><path
           style="opacity:0.99;fill:#552200;fill-opacity:0.992157;fill-rule:nonzero;stroke:#2b1100;stroke-width:0.034;stroke-dasharray:none;stroke-opacity:1;paint-order:fill markers stroke"
           d="m 8.0599023,8.832142 c 0,0 -1.750179,1.891606 -1.820891,2.121427 -0.07071,0.229821 0.689464,0.777858 0.954644,0.866252 0.265178,0.08839 0.477318,0.08839 0.742497,0.08839 0.265179,0 0.654108,0.194466 0.866251,0.212144 0.212142,0.01768 0.265178,0.01768 0.265178,0.01768 0,0 -0.05304,-0.742503 -0.05304,-1.166787 0,-0.424284 0,-0.601073 0,-1.007679 0,-0.406607 0.03536,-0.636428 -0.03536,-0.689464 -0.07071,-0.05304 -0.0884,0.26518 -0.265179,0.141427 C 8.5372243,9.291788 8.5195443,9.380182 8.3957963,9.256433 8.2720453,9.132683 8.0599023,8.832145 8.0599023,8.832145 Z"
           id="path37731" /><path
           style="opacity:0.99;fill:#2b1100;fill-opacity:1;fill-rule:nonzero;stroke:none;stroke-width:0.1;stroke-dasharray:none;stroke-opacity:1;paint-order:fill markers stroke"
           d="m 7.1582963,9.763041 c 0,0 -0.316438,-0.346249 -0.298758,-0.416963 0.01768,-0.07071 0.263401,-0.195721 0.493224,-0.248756 0.22982,-0.05304 0.371247,-0.07072 0.371247,-0.07072 h 0.168575 l -0.565713,0.668753 z"
           id="path38098"
           sodipodi:nodetypes="csscccc" /><path
           style="opacity:0.99;fill:#a05a2c;fill-opacity:1;fill-rule:nonzero;stroke:none;stroke-width:0.1;stroke-dasharray:none;stroke-opacity:1;paint-order:fill markers stroke"
           d="m 6.0774323,11.311326 c 0,0 -0.262511,-0.0375 -0.312514,0.06251 -0.05,0.100005 -0.287516,0.412521 -0.18751,0.512526 0.100007,0.100008 0.375019,0.17501 0.475025,0.250015 0.100004,0.075 0.250012,0.175007 0.250012,0.05 0,-0.125007 -0.0033,-0.684988 -0.137507,-0.800042 z"
           id="path38882"
           sodipodi:nodetypes="csssssc" /><path
           style="opacity:0.99;fill:#c87137;fill-opacity:0.992157;fill-rule:nonzero;stroke:none;stroke-width:0.0340083;stroke-dasharray:none;stroke-opacity:1;paint-order:fill markers stroke"
           d="m 7.3205403,10.687631 0.817829,0.06877 c 0,0 -0.03377,0.396428 -0.0313,0.434371 0.0025,0.03794 0.170948,0.343249 0.207073,0.371384 0.03613,0.02812 0.263921,0.249557 0.339225,0.294193 0.0753,0.04464 0.276136,0.203035 0.276136,0.203035 0,0 -0.07901,-0.101552 0.07154,-0.130398 0.150542,-0.02884 0.15236,-0.05945 0.184198,-0.03866 0.03183,0.02078 0.303618,0.09836 0.303618,0.09836 l 0.226563,0.202454 c 0,0 0.120589,0.03788 0.08024,0.120526 -0.04035,0.08265 -0.02072,0.149956 -0.06419,0.126113 -0.04347,-0.02384 -0.157365,-0.134558 -0.157365,-0.134558 l 0.216168,0.218371 0.149372,0.0703 c 0,0 0.1169517,0.09908 0.02092,0.204406 -0.09603,0.105321 -0.236175,0.118254 -0.236175,0.118254 0,0 -0.02202,0.01286 -0.06848,0.118771 -0.04645,0.105905 -0.05678,0.239945 -0.138194,0.218571 -0.08141,-0.02139 -0.153011,-0.0091 -0.201352,0.0093 -0.04834,0.0184 -0.07706,0.104086 -0.128449,0.134105 -0.05139,0.03003 -0.121109,0.129816 -0.225196,0.05276 -0.104087,-0.07706 -0.140211,-0.105187 -0.2443,-0.182247 -0.104086,-0.07706 -0.121824,-0.05685 -0.178807,-0.171265 -0.05698,-0.114414 -0.07907,-0.219673 -0.09135,-0.291271 -0.01228,-0.0716 -0.01351,-0.09057 -0.04906,-0.16828 -0.03554,-0.07771 -0.239945,-0.05678 -0.35079,-0.179125 -0.110846,-0.122345 -0.206356,-0.184716 -0.310442,-0.261772 -0.104088,-0.07706 -0.182446,-0.110064 -0.262688,-0.230586 -0.08024,-0.120526 -0.152494,-0.176793 -0.202784,-0.364042 -0.05029,-0.18725 -0.06251,-0.14073 -0.03938,-0.370867 0.02313,-0.230131 -0.018,-0.236538 0.01806,-0.326524 0.03606,-0.08999 -0.04314,-0.264442 -0.04314,-0.264442 z"
           id="path20224-4"
           sodipodi:nodetypes="ccccscscccsscccscscccssssssssssscc" /><path
           style="opacity:0.99;fill:none;fill-opacity:0.992157;fill-rule:nonzero;stroke:#2b1100;stroke-width:0.034;stroke-dasharray:none;stroke-opacity:1;paint-order:fill markers stroke"
           d="m 7.7770443,9.397856 c 0,0 -0.353571,0.318212 -0.441962,0.583392 -0.08839,0.26518 -0.176786,0.406606 -0.176786,0.495001 0,0.08839 -0.08839,0.159108 0.300537,0.212143 0.388927,0.05304 0.565713,0.07071 0.636425,0.05304 0.07072,-0.01768 0.159108,-0.106072 0.212144,-0.318216 0.05304,-0.212144 0.0884,-0.388929 0.0884,-0.583392 0,-0.194466 0,-0.282857 0,-0.282857 v 0 l -0.07071,-0.106072"
           id="path38096" /><path
           style="opacity:0.99;fill:#24283c;fill-opacity:0.962825;fill-rule:nonzero;stroke:none;stroke-width:0.0340083;stroke-dasharray:none;stroke-opacity:1;paint-order:fill markers stroke"
           d="m 7.6084473,12.819577 c 0,0 0.182176,0.336641 0.18126,0.386211 -9.18e-4,0.04957 -0.02071,0.359176 -0.02071,0.359176 0,0 -0.365862,-0.07095 -0.537595,-0.01139 -0.171735,0.05954 -0.260282,0.05713 -0.333984,0.09952 0.190777,0.901662 0.209031,0.653323 0.407131,0.994531 0.09673,-0.104677 0.03131,0.237735 0.182761,0.09176 0.151451,-0.145963 0.208778,-0.08364 0.360421,-0.161056 0.151647,-0.07742 0.520952,-0.211661 0.520568,-0.348759 0.224165,-0.09968 0.277765,-0.321473 0.259417,-0.410643 -0.01714,-0.08328 -0.05983,-0.694167 -0.05983,-0.694167 l -0.258903,-0.491059 c 0,0 -0.184812,0.199186 -0.216512,0.178186 -0.0317,-0.02102 -0.48402,0.0077 -0.48402,0.0077 z"
           id="path20234-4"
           sodipodi:nodetypes="cscscccscsccccc" /><path
           style="opacity:0.99;fill:#444960;fill-opacity:0.992157;fill-rule:nonzero;stroke:none;stroke-width:0.0340083;stroke-dasharray:none;stroke-opacity:1;paint-order:fill markers stroke"
           d="m 6.2541643,12.075771 c 0,0 -0.170123,0.522157 -0.213352,0.605531 -0.04323,0.08338 -0.319503,0.562705 -0.363897,0.584776 -0.04439,0.02207 -0.294431,0.144757 -0.338825,0.166828 -0.04439,0.02207 -0.615182,0.393792 -0.664738,0.392374 -0.04956,-0.0014 -0.317204,0.03765 -0.317204,0.03765 0.09146,0.31142 0.648785,0.948106 0.841255,0.973324 0.03377,0.004 0.216393,-0.06994 0.269366,-0.136989 0.05297,-0.06705 0.05697,-0.08611 0.153504,-0.09502 0.09653,-0.0089 0.150167,-0.01677 0.303088,-0.161192 0.152921,-0.144427 0.337909,-0.338988 0.393466,-0.394296 0.05555,-0.0553 0.171244,-0.173071 0.203562,-0.33407 0.03232,-0.161002 0.127936,-0.342072 0.122189,-0.39621 -0.0057,-0.05414 0.284523,-0.665818 0.277028,-0.811911 -0.0075,-0.146089 -0.186504,-0.183689 -0.186504,-0.183689 z"
           id="path20232-8"
           sodipodi:nodetypes="cssscccssssssscc" /><path
           style="opacity:0.99;fill:#ff2a2a;fill-opacity:0.962825;fill-rule:nonzero;stroke:#000000;stroke-width:0.034;stroke-dasharray:none;stroke-opacity:1;paint-order:fill markers stroke"
           d="m 9.7752733,8.046656 c 0,0 0.2828567,0.99884 0.6010737,0.910449 0.318212,-0.08839 0.38009,-0.185627 0.38009,-0.185627 l 0.106072,-0.21214 0.07072,-0.114911 C 10.963869,8.413787 9.8974713,8.177186 9.8288563,8.103892 Z"
           id="path54818"
           sodipodi:nodetypes="cscccsc" /><path
           style="opacity:0.99;fill:#ffffff;fill-opacity:0.962825;fill-rule:nonzero;stroke:none;stroke-width:0.034;stroke-dasharray:none;stroke-opacity:1;paint-order:fill markers stroke"
           d="m 9.8084213,8.112951 0.09281,0.269601 c 0,0 0.6430597,0.274015 0.8021677,0.220979 0.159108,-0.05304 0.15027,-0.05303 0.15027,-0.05303 -0.0055,0.0027 0.05399,-0.0439 0.05723,-0.102409 10e-4,-0.0184 -1.0984887,-0.336468 -1.1024817,-0.335138 z"
           id="path54820"
           sodipodi:nodetypes="ccscsc" /></g></g><path
       style="opacity:0.99;fill:#fde0a4;fill-opacity:1;fill-rule:nonzero;stroke:none;stroke-width:0.1;stroke-dasharray:none;stroke-opacity:1;paint-order:fill markers stroke"
       d="m -101.026,40.768853 c 0,0 0.71779,-3.53779 0.541,-3.64386 -0.17679,-0.10607 1.025358,-0.17678 1.308214,-0.56571 0.282858,-0.38893 0.707144,-0.81322 0.813215,-1.27286 0.106072,-0.45964 0.212143,-1.09607 0.212143,-1.44964 0,-0.35358 -0.106071,-1.30822 -0.106071,-1.30822 v -0.14143 c 0,0 4.348927,0.21215 6.611783,1.41429 2.262857,1.20214 2.368929,1.27286 2.368929,1.27286 0,0 0.990002,-0.77786 1.060714,-0.91929 0.07072,-0.14143 0.459645,-0.35357 0.459645,-0.35357 l 0.459642,0.99 c 0,0 0.141428,4.31357 -0.03536,4.98536 -0.176787,0.67178 -0.106071,0.31821 -0.14143,0.495 -0.03536,0.17678 -0.141428,1.20214 -0.141428,1.52035 0,0.31822 0.07071,1.13143 0.03536,1.44965 -0.03536,0.31821 -0.565713,1.87393 -0.565713,1.87393 0,0 -1.025359,0.99 -1.272858,1.09607 -0.247499,0.10607 -1.485,0.63643 -1.661784,0.70714 -0.176787,0.0707 -0.707144,0.14143 -0.883931,0.14143 -0.176784,0 -1.308214,0 -1.661784,0 -0.353571,0 -1.308214,-0.14143 -1.626428,-0.21214 -0.318215,-0.0707 -1.096071,-0.2475 -1.555716,-0.31822 -0.459642,-0.0707 -1.272857,-0.38893 -1.626428,-0.56571 -0.353571,-0.17679 -1.025356,-0.45965 -1.166786,-0.53036 -0.141428,-0.0707 -0.777858,-0.67178 -0.989998,-0.77786 -0.21214,-0.10607 -0.70715,-0.495 -0.81322,-0.63642 -0.10607,-0.14143 -0.495,-0.49501 -0.495,-0.49501 v -0.45964 c 0,0 -0.45964,0.495 -0.99,0.21215 -0.53035,-0.28286 -1.30821,-0.35358 -1.59107,-0.70715 -0.28286,-0.35357 -0.60107,-1.13143 -0.60107,-1.27286 0,-0.14142 -0.0354,-0.42428 0,-0.70714 0.0354,-0.28286 0.14143,-0.7425 0.14143,-0.7425 0,0 0.21214,-0.35357 0.63643,-0.60107 0.42428,-0.2475 0.56571,-0.38893 0.77786,-0.42429 0.21214,-0.0354 0.84857,0.0354 0.84857,0.0354 0,0 0.495,0.17679 0.60107,0.35357 0.10607,0.17679 0.31821,0.45965 0.42428,0.60107 0.10607,0.14143 0.35357,0.45965 0.42429,0.60108 0.0707,0.14142 0.2015,0.35564 0.2015,0.35564 z"
       id="path32083" /><path
       style="opacity:0.99;fill:#ff6600;fill-opacity:1;fill-rule:nonzero;stroke:none;stroke-width:0.1;stroke-dasharray:none;stroke-opacity:1;paint-order:fill markers stroke"
       d="m -103.77615,32.368433 c 0,0 -3.65018,1.85009 -2.70013,4.85024 0.95004,3.00015 1.40007,3.15016 1.40007,3.15016 l 0.15001,-0.05 c 0,0 0.55002,-1.00005 0.80004,-1.10006 0.25001,-0.1 0.60003,-0.30001 0.90004,-0.25001 0.30002,0.05 1.20006,0.35002 1.30007,0.60003 0.1,0.25002 0.50002,0.65003 0.65003,0.85005 0.15001,0.20001 0.35002,0.30001 0.35002,0.30001 0,0 0.25001,-0.90004 0.40002,-1.35007 0.15001,-0.45002 0.20001,-0.65003 0.15001,-1.05005 -0.05,-0.40002 -0.15001,-0.90005 -0.15001,-0.90005 l -0.25001,-0.65003 c 0.955262,0.71155 3.449013,0.57575 2.703689,-2.67943 -0.311283,-1.35952 0.02071,-1.47936 0.02071,-1.47936 0,0 0.375756,-0.24143 1.175798,-0.0914 0.800039,0.15001 1.80009,0.30002 2.350119,0.50003 0.550026,0.20001 1.400071,0.45002 1.800092,0.60003 0.400019,0.15001 1.450073,0.50002 1.700086,0.70003 0.250013,0.20002 0.900046,0.40002 1.150059,0.55003 0.250013,0.15001 0.800039,0.45002 0.800039,0.45002 0,0 0.425022,-0.77504 0.675035,-0.92505 0.250012,-0.15 0.525028,-0.47501 0.525028,-0.47501 l 0.300016,0.075 0.200011,0.77504 -3e-6,0.97505 c 0,0 0.600031,-0.82504 0.850044,-1.27507 0.250013,-0.45002 0.350017,-0.80004 0.60003,-1.30006 0.250013,-0.50003 0.400021,-0.90005 0.400021,-1.35007 0,-0.45003 0.250013,-1.55008 0.150008,-2.30012 -0.100005,-0.75004 -0.100005,-0.90005 -0.250013,-1.20006 -0.150008,-0.30002 -0.150008,-0.55003 -0.250012,-0.75004 -0.100005,-0.20001 -0.20001,-0.50003 -0.20001,-0.50003 0,0 0.05,0.60003 -0.150008,1.10006 -0.200012,0.50003 -0.350017,1.05005 -0.350017,1.05005 0,0 0.150005,-0.95004 -0.35002,-2.50012 -0.500025,-1.55008 -0.350017,-1.70009 -0.350017,-1.70009 v -0.30001 c 0,0 -0.100005,0.75003 -0.700035,1.15005 -0.600032,0.40002 -1.450075,1.05006 -2.000102,1.15006 -0.550029,0.10001 -2.100109,0.45003 -2.500127,0.45003 h -1.750092 c -0.200009,0 -0.700034,-0.10001 -0.700034,-0.10001 0,0 0.750038,0.15001 1.350068,-0.70004 0.60003,-0.85004 0.550029,-0.90004 0.550029,-0.90004 0,0 -0.750038,0.20001 -1.200063,0.20001 h -1.650081 c -0.300017,0 -2.200114,0.55003 -2.550131,0.65003 -0.350018,0.10001 -2.150107,0.50003 -2.550127,1.05005 -0.40003,0.55003 -1.65009,1.55008 -1.75009,1.8001 -0.10001,0.25001 -0.15001,0.35001 -0.45003,1.10005 -0.30001,0.75004 -0.25001,1.15006 -0.35002,1.45008 -0.1,0.30001 -0.25001,0.35002 -0.25001,0.35002 z"
       id="path32085"
       sodipodi:nodetypes="csccsssscssccscssssscsccccsssssscscsccsssscscssssssscc" /><path
       style="opacity:0.99;fill:#fde0a4;fill-opacity:0.992157;fill-rule:nonzero;stroke:none;stroke-width:0.108535;stroke-dasharray:none;stroke-opacity:1;paint-order:fill markers stroke"
       d="m -99.321539,45.497833 v 0.70618 c 0,0 -0.09175,0.83457 0.734045,0.96296 0.825802,0.1284 1.238702,0.321 1.238702,0.321 l 0.09175,-1.32307 c 0,0 -0.734043,-0.21768 -1.2387,-0.41027 -0.504657,-0.1926 -0.550533,-0.44939 -0.550533,-0.44939 z"
       id="path32087"
       sodipodi:nodetypes="ccsccscc" /><path
       style="opacity:0.99;fill:#48a4df;fill-opacity:1;fill-rule:nonzero;stroke:#0055d4;stroke-width:0.1;stroke-dasharray:none;stroke-opacity:1;paint-order:fill markers stroke"
       d="m -101.77604,50.669363 c -0.20001,-0.30002 -1.50008,-1.50008 -1.55008,-1.8501 -0.05,-0.35001 -0.10001,-0.2 0.60003,-0.65003 0.70003,-0.45002 1.35007,-0.80004 1.75009,-0.85004 0.40002,-0.05 1.000048,-0.10001 1.000048,-0.10001 l -1.000048,0.05 c 0,0 0.35001,-0.80003 0.80004,-1.00005 0.45002,-0.20001 0.800038,-0.45002 0.800038,-0.45002 0,0 0.300016,0.45002 0.600032,0.80004 0.300014,0.35002 0.450022,0.70004 0.950048,0.55003 0.500025,-0.15001 0.650033,-0.45002 0.650033,-0.45002 0,0 1.20006,4.40022 0.950048,6.30032 -0.250013,1.90009 0.300016,1.80009 0,1.90009 -0.300014,0.10001 -2.050103,0.05 -2.050103,0.05 0,0 -1.100058,-0.25001 -1.300067,-0.25001 H -100.926 c -0.25001,0 -0.50003,0.25001 -0.75004,0 -0.25001,-0.25002 -0.80004,-0.90005 -0.85004,-1.9501 -0.05,-1.05006 -0.05,-1.15006 0.45002,-1.55008 0.50003,-0.40002 0.70004,-0.40002 0.70004,-0.40002 0,0 0.44144,-0.11465 0.99147,-0.41467 0.550027,-0.30001 1.408649,-1.48543 1.408649,-1.48543 -0.548972,1.05529 -1.329719,1.69338 -2.350119,1.9001 z"
       id="path32089"
       sodipodi:nodetypes="csssccscsscsscssssscsccc" /><path
       style="opacity:0.99;fill:#444960;fill-opacity:1;fill-rule:nonzero;stroke:none;stroke-width:0.1;stroke-dasharray:none;stroke-opacity:1;paint-order:fill markers stroke"
       d="m -103.30112,54.894573 c 0,0 0.50002,2.67514 0.52503,2.95016 0.025,0.27501 0.1,1.90009 0.025,2.0251 -0.075,0.12501 -0.50003,0.82504 -0.57503,0.95005 -0.075,0.125 -0.90005,1.9501 -1.02505,2.0251 -0.12501,0.075 -0.72504,1.07506 -0.72504,1.07506 0,0 0.55002,0.15 0.72504,0.15 0.175,0 1.32506,-0.125 1.65008,-0.17501 0.32501,-0.05 0.70003,-0.05 0.95005,-0.05 0.25001,0 0.55002,0.45002 0.65003,0.45002 0.10001,0 0,-0.37501 0.025,-0.62503 0.025,-0.25001 -0.025,-0.35001 0.20001,-0.52503 0.22501,-0.175 0.45002,-0.15 0.60003,-0.75003 0.15001,-0.60003 0.300016,-1.37507 0.35002,-1.60009 0.05,-0.22501 0.150008,-0.70003 -0.025,-1.15005 -0.17501,-0.45003 -0.22501,-1.05006 -0.32502,-1.17506 -0.1,-0.12501 -0.35002,-2.10011 -0.60003,-2.45013 -0.25001,-0.35002 -0.97505,-1.37507 -0.97505,-1.37507 z"
       id="path32091" /><path
       style="opacity:0.99;fill:#23283b;fill-opacity:1;fill-rule:nonzero;stroke:none;stroke-width:0.1;stroke-dasharray:none;stroke-opacity:1;paint-order:fill markers stroke"
       d="m -98.650885,57.394703 c 0,0 0.850043,1.55008 0.975051,1.62509 0.125005,0.075 0.60003,1.07505 0.60003,1.07505 0,0 0.05,0.85004 -0.05,1.37507 -0.100007,0.52503 -0.300016,1.52508 -0.300016,1.77509 0,0.25001 -0.250013,0.67504 -0.150009,0.67504 0.100005,0 1.000051,0.075 1.600081,0.075 0.600033,0 0.625033,0.15 1.475076,0.025 0.850043,-0.12501 1.100056,-0.1 1.250064,-0.15001 0.150008,-0.05 -0.05,0 -0.175009,-0.40002 -0.125005,-0.40001 -0.05,-0.075 -0.200009,-0.67503 -0.150008,-0.60003 -0.325017,-1.07506 -0.300016,-1.57508 0.025,-0.50003 -0.400021,-2.0251 -0.750038,-2.22512 -0.350018,-0.2 -0.500026,-0.62503 -0.700035,-0.77503 -0.200012,-0.15001 -1.475076,-1.42508 -1.475076,-1.42508 l -0.750038,-0.125 c 0,0 -0.650034,0.52502 -0.750038,0.57503 -0.100005,0.05 -0.300017,0.15 -0.300018,0.15 z"
       id="path32093" /><path
       style="opacity:0.99;fill:#474e61;fill-opacity:1;fill-rule:nonzero;stroke:none;stroke-width:0.1;stroke-dasharray:none;stroke-opacity:1;paint-order:fill markers stroke"
       d="m -102.32607,54.444553 6.175313,0.42502 c 0,0 0.450024,0.65004 0.100004,1.05006 -0.350017,0.40002 -0.700034,0.80004 -0.950047,1.00005 -0.250013,0.20001 -0.725038,0.55003 -1.025051,0.60003 -0.300017,0.05 -0.625034,0.125 -1.025054,0.075 -0.400019,-0.05 -0.900044,0.025 -1.275065,-0.1 -0.37502,-0.12501 -0.82504,-0.075 -1.00005,-0.60003 -0.17501,-0.52503 -0.32502,-1.35007 -0.45002,-1.52508 -0.12501,-0.17501 -0.67504,-0.95005 -0.67504,-0.95005 z"
       id="path32095" /><path
       style="opacity:0.99;fill:#47a3e3;fill-opacity:1;fill-rule:nonzero;stroke:#0055d4;stroke-width:0.1;stroke-dasharray:none;stroke-opacity:1;paint-order:fill markers stroke"
       d="m -105.05121,63.995043 c 0,0 3.00015,-0.20001 3.27517,-0.075 0.27501,0.125 1.15005,0.60003 1.25006,0.82504 0.10001,0.22501 0.35002,0.75004 0.47502,0.87504 0.125011,0.12501 -0.55002,0.25001 -0.72503,0.20001 -0.17501,-0.05 -0.90005,-0.05 -1.35007,-0.05 -0.45002,0 -1.07506,-0.05 -1.8251,-0.075 -0.75003,-0.025 -1.17506,-0.025 -1.37506,-0.025 -0.20002,0 -0.70004,0.12501 -0.60003,0 0.1,-0.12501 0.25001,-0.97505 0.45002,-1.40007 0.20001,-0.42502 0.42502,-0.27501 0.42502,-0.27501 z"
       id="path32097" /><path
       style="opacity:0.99;fill:#e3dedb;fill-opacity:1;fill-rule:nonzero;stroke:none;stroke-width:0.1;stroke-dasharray:none;stroke-opacity:1;paint-order:fill markers stroke"
       d="m -105.87625,65.745133 c -0.12501,-0.025 -0.27502,0.27501 -0.27502,0.27501 0,0 0.05,0.40002 0.20001,0.45002 0.15001,0.05 0.17501,0.05 0.87505,0.12501 0.70003,0.075 1.30006,0.10001 1.82509,0.10001 0.52503,0 1.80009,-0.075 2.0501,-0.10001 0.25002,-0.025 0.85005,-0.05 1.07506,-0.15001 0.225012,-0.1 0.40002,-0.17501 0.40002,-0.35001 0,-0.17501 -0.125005,-0.45003 -0.250012,-0.45003 -0.125008,0 -5.900298,0.10001 -5.900298,0.10001 z"
       id="path32099" /><path
       style="opacity:0.99;fill:#47a3e3;fill-opacity:1;fill-rule:nonzero;stroke:#0055d4;stroke-width:0.1;stroke-dasharray:none;stroke-opacity:1;paint-order:fill markers stroke"
       d="m -97.166568,63.712183 c 0,0 3.000153,-0.20001 3.275169,-0.075 0.275013,0.125 1.150056,0.60003 1.250063,0.82504 0.100005,0.22501 0.350018,0.75004 0.475023,0.87504 0.125007,0.12501 -0.550027,0.25001 -0.725035,0.20001 -0.175012,-0.05 -0.900047,-0.05 -1.350071,-0.05 -0.450022,0 -1.075055,-0.05 -1.825093,-0.075 -0.750039,-0.025 -1.17506,-0.025 -1.375069,-0.025 -0.200012,0 -0.700037,0.12501 -0.60003,0 0.100004,-0.12501 0.250013,-0.97505 0.450022,-1.40007 0.200009,-0.42502 0.425021,-0.27501 0.425021,-0.27501 z"
       id="path32101" /><path
       style="opacity:0.99;fill:#e3dedb;fill-opacity:1;fill-rule:nonzero;stroke:none;stroke-width:0.1;stroke-dasharray:none;stroke-opacity:1;paint-order:fill markers stroke"
       d="m -97.99161,65.462273 c -0.125005,-0.025 -0.275013,0.27501 -0.275013,0.27501 0,0 0.05,0.40002 0.200009,0.45002 0.150008,0.05 0.175008,0.05 0.875046,0.12501 0.700034,0.075 1.300064,0.10001 1.825093,0.10001 0.525026,0 1.80009,-0.075 2.050103,-0.10001 0.250012,-0.025 0.850045,-0.05 1.075055,-0.15001 0.225012,-0.1 0.40002,-0.17501 0.40002,-0.35001 0,-0.17501 -0.125005,-0.45003 -0.250012,-0.45003 -0.125005,0 -5.900301,0.10001 -5.900301,0.10001 z"
       id="path32103" /><ellipse
       style="opacity:0.99;fill:#000000;fill-opacity:1;fill-rule:nonzero;stroke:#000000;stroke-width:0.1;stroke-dasharray:none;stroke-opacity:1;paint-order:fill markers stroke"
       id="ellipse32105"
       cx="-93.767143"
       cy="40.183392"
       rx="0.77785712"
       ry="1.3966072" /><ellipse
       style="opacity:0.99;fill:#000000;fill-opacity:1;fill-rule:nonzero;stroke:#000000;stroke-width:0.0792771;stroke-dasharray:none;stroke-opacity:1;paint-order:fill markers stroke"
       id="ellipse32107"
       cx="-88.857292"
       cy="40.094173"
       rx="0.56723642"
       ry="1.203665" /><ellipse
       style="opacity:0.99;fill:#ffffff;fill-opacity:1;fill-rule:nonzero;stroke:none;stroke-width:0.1;stroke-dasharray:none;stroke-opacity:1;paint-order:fill markers stroke"
       id="ellipse32109"
       cx="-93.722946"
       cy="39.723751"
       rx="0.53919643"
       ry="0.68946427" /><ellipse
       style="opacity:0.99;fill:#ffffff;fill-opacity:1;fill-rule:nonzero;stroke:none;stroke-width:0.0775845;stroke-dasharray:none;stroke-opacity:1;paint-order:fill markers stroke"
       id="ellipse32111"
       cx="-88.870186"
       cy="39.564632"
       rx="0.40013629"
       ry="0.55924344" /><path
       style="opacity:0.99;fill:#000000;fill-opacity:1;fill-rule:nonzero;stroke:#000000;stroke-width:0.1;stroke-dasharray:none;stroke-opacity:1;paint-order:fill markers stroke"
       d="m -95.941607,36.647673 c 0.335891,-0.28286 0.848572,-0.76018 1.11375,-0.7425 0.265179,0.0177 0.636429,0.053 0.919285,0.0884 0.282858,0.0354 0.689464,0.30054 0.830894,0.38893 0.141428,0.0884 0.371251,0.53036 0.548035,0.65411 0.176786,0.12375 0.335893,0.51268 0.37125,0.54804 0.03536,0.0354 0.159107,0.22982 0.141427,0.26517 -0.01767,0.0354 -0.318214,-0.22098 -0.459642,-0.25634 -0.141427,-0.0353 -0.609909,-0.30937 -0.715981,-0.41544 -0.106071,-0.10607 -0.07071,-0.22982 -0.291698,-0.32705 -0.220982,-0.0972 -0.822052,-0.18563 -0.892767,-0.20331 -0.07071,-0.0177 -0.353571,-0.0177 -0.574553,-0.0177 -0.220983,0 -0.742501,0.0354 -0.804376,0.053 -0.06187,0.0177 -0.247499,0.053 -0.247499,0.053 z"
       id="path32113" /><path
       style="opacity:0.99;fill:#000000;fill-opacity:1;fill-rule:nonzero;stroke:#000000;stroke-width:0.1;stroke-dasharray:none;stroke-opacity:1;paint-order:fill markers stroke"
       d="m -89.488927,38.008923 c 0.03536,-0.0884 0.194463,-0.53036 0.406606,-0.65411 0.212143,-0.12375 0.583393,-0.37125 0.671785,-0.4066 0.08839,-0.0354 0.282858,0 0.441965,0.0707 0.159107,0.0707 0.318215,0.12375 0.265179,0.21214 -0.05304,0.0884 -0.159107,0.0884 -0.406609,0.14143 -0.247499,0.053 -0.494999,0.14143 -0.583393,0.26518 -0.08839,0.12375 -0.335891,0.2475 -0.441963,0.40661 -0.106071,0.1591 -0.318214,0.2475 -0.318214,0.17678 0,-0.0707 -0.03536,-0.21214 -0.03536,-0.21214 z"
       id="path32115" /><path
       style="opacity:0.99;fill:none;fill-opacity:1;fill-rule:nonzero;stroke:#000000;stroke-width:0.1;stroke-dasharray:none;stroke-opacity:1;paint-order:fill markers stroke"
       d="m -90.350461,41.306383 c -0.01249,0.075 -0.025,0.27501 -0.01249,0.36252 0.01249,0.0875 0.08751,0.21251 0.237513,0.23751 0.150009,0.025 0.262512,0.075 0.350018,0.12501 0.08751,0.05 0.337518,0.25001 0.350017,0.36252 0.01252,0.1125 -0.075,0.38752 -0.112506,0.46252 -0.0375,0.075 0.0375,0.23751 -0.112504,0.23751 -0.150008,0 -0.387522,-0.0625 -0.462526,-0.0625 -0.075,0 -0.362516,-0.0375 -0.362516,-0.0375 l 0.137507,-0.0125 0.21251,0.0625"
       id="path32117" /><path
       style="opacity:0.99;fill:none;fill-opacity:1;fill-rule:nonzero;stroke:#000000;stroke-width:0.1;stroke-dasharray:none;stroke-opacity:1;paint-order:fill markers stroke"
       d="m -91.31301,44.844063 c -0.075,0.025 -1.100055,0.15001 -1.36257,0.075 -0.262514,-0.075 -0.800039,-0.33752 -0.862544,-0.42503 -0.0625,-0.0875 -0.437523,-0.28751 -0.500025,-0.41252 -0.0625,-0.125 -0.075,-0.37502 -0.075,-0.37502 0,0 -0.237512,0.31252 -0.287515,0.33752 -0.05,0.025 -0.175009,0.025 -0.175009,0.025"
       id="path32119" /><path
       style="opacity:0.99;fill:#fde0a4;fill-opacity:0.992157;fill-rule:nonzero;stroke:none;stroke-width:0.1;stroke-dasharray:none;stroke-opacity:1;paint-order:fill markers stroke"
       d="m -103.37613,48.944273 1.9001,2.0251 c 0,0 -0.97505,0.52503 -1.02505,0.62503 -0.05,0.10001 -0.075,1.12506 -0.025,1.25007 0.05,0.12501 0.30001,1.02505 0.42502,1.25006 0.12501,0.22501 0.40002,0.92505 0.40002,0.92505 0,0 -0.05,-0.37502 0.37502,-0.22501 0.42502,0.15001 0.47502,0.075 0.52503,0.17501 0.05,0.1 0.62503,0.70003 0.62503,0.70003 l 0.275012,0.85005 c 0,0 0.250013,0.27501 0.025,0.42502 -0.225012,0.15001 -0.275012,0.35002 -0.350022,0.22501 -0.075,-0.12501 -0.2,-0.57503 -0.2,-0.57503 l 0.22501,0.87505 0.275011,0.40002 c 0,0 0.150008,0.42502 -0.250011,0.55003 -0.40002,0.125 -0.77504,-0.05 -0.77504,-0.05 0,0 -0.075,0 -0.35002,0.20001 -0.27501,0.20001 -0.50003,0.52503 -0.67503,0.35002 -0.17501,-0.17501 -0.37502,-0.25001 -0.52503,-0.27502 -0.15001,-0.025 -0.35002,0.15001 -0.52503,0.15001 -0.17501,0 -0.50002,0.15001 -0.65003,-0.20001 -0.15001,-0.35002 -0.20001,-0.47502 -0.35002,-0.82504 -0.15001,-0.35002 -0.22501,-0.32502 -0.20001,-0.70004 0.025,-0.37501 0.12501,-0.67503 0.20001,-0.87504 0.075,-0.20001 0.10001,-0.25001 0.12501,-0.50002 0.025,-0.25002 -0.52503,-0.50003 -0.62504,-0.97505 -0.1,-0.47503 -0.25001,-0.77504 -0.40001,-1.12506 -0.15001,-0.35002 -0.30002,-0.55003 -0.32502,-0.97505 -0.025,-0.42502 -0.12501,-0.67504 0.025,-1.22506 0.15001,-0.55003 0.05,-0.45003 0.45002,-1.00006 0.40002,-0.55002 0.57503,-0.72503 0.80004,-0.90004 0.22502,-0.17501 0.60003,-0.55003 0.60003,-0.55003 z"
       id="path32121" /><path
       style="opacity:0.99;fill:#fde0a4;fill-opacity:0.992157;fill-rule:nonzero;stroke:none;stroke-width:0.1;stroke-dasharray:none;stroke-opacity:1;paint-order:fill markers stroke"
       d="m -95.875741,54.294543 c 0,0.10001 -0.175012,0.15001 -0.300017,0.52503 -0.125008,0.37502 -0.100004,0.55003 -0.125008,0.72504 -0.025,0.17501 -0.350017,0.72504 -0.350017,0.72504 0,0 -0.700035,0.37501 -0.275014,0.67503 0.425024,0.30001 0.625031,0.50002 0.750039,0.50002 0.125005,0 0.350017,-0.1 0.525026,-0.32501 0.175009,-0.22501 0.375021,-0.40002 0.525029,-0.72504 0.150005,-0.32502 0.375017,-0.92505 0.375017,-0.92505 0,0 -0.05,0.45003 0.175009,0.62504 0.225012,0.17501 0,0.27501 0.450025,0.15 0.450021,-0.125 0.800039,-0.67503 0.825042,-0.80004 0.025,-0.125 0.225009,-0.47502 0.225009,-0.72503 0,-0.25002 -0.150005,-0.50003 -0.375017,-0.62504 -0.225013,-0.125 -0.750038,-0.1 -1.000051,-0.075 -0.250013,0.025 -1.225063,0.10001 -1.225063,0.10001 z"
       id="path32123"
       sodipodi:nodetypes="csscsssscsssssscc" /><path
       style="opacity:0.99;fill:#fde0a4;fill-opacity:0.992157;fill-rule:nonzero;stroke:none;stroke-width:0.1;stroke-dasharray:none;stroke-opacity:1;paint-order:fill markers stroke"
       d="m -95.725736,57.219693 c 0,0 -0.150005,0.42502 -0.150005,0.57503 0,0.15001 0.375017,0.42502 0.62503,0.52503 0.250013,0.10001 0.825042,0.20001 1.100055,0.025 0.275016,-0.17501 0.475025,-0.55003 0.55003,-0.67503 0.075,-0.12501 0.100004,-0.17501 0.225012,-0.17501 0.125005,0 0.425021,-0.27502 0.425021,-0.42503 0,-0.15 0,-0.27501 0,-0.40002 0,-0.125 0.300014,-0.35001 0.300014,-0.35001 0,0 0.150008,-0.22501 0.150008,-0.50003 0,-0.27501 0.250013,-0.45002 -0.075,-0.50002 -0.325017,-0.05 -0.625031,-0.30002 -0.625031,-0.30002 0,0 -1.800092,-0.075 -1.975101,0.10001 -0.175009,0.175 -0.550029,2.1001 -0.550029,2.1001 z"
       id="path32125" /><path
       style="opacity:0.99;fill:#fde0a4;fill-opacity:1;fill-rule:nonzero;stroke:none;stroke-width:0.1;stroke-dasharray:none;stroke-opacity:1;paint-order:fill markers stroke"
       d="m -101.026,40.768853 c 0,0 0.71779,-3.53779 0.541,-3.64386 -0.17679,-0.10607 1.025358,-0.17678 1.308214,-0.56571 0.282858,-0.38893 0.707144,-0.81322 0.813215,-1.27286 0.106072,-0.45964 0.212143,-1.09607 0.212143,-1.44964 0,-0.35358 -0.106071,-1.30822 -0.106071,-1.30822 v -0.14143 c 0,0 4.348927,0.21215 6.611783,1.41429 2.262857,1.20214 2.368929,1.27286 2.368929,1.27286 0,0 0.990002,-0.77786 1.060714,-0.91929 0.07072,-0.14143 0.459645,-0.35357 0.459645,-0.35357 l 0.459642,0.99 c 0,0 0.141428,4.31357 -0.03536,4.98536 -0.176787,0.67178 -0.106071,0.31821 -0.14143,0.495 -0.03536,0.17678 -0.141428,1.20214 -0.141428,1.52035 0,0.31822 0.07071,1.13143 0.03536,1.44965 -0.03536,0.31821 -0.565713,1.87393 -0.565713,1.87393 0,0 -1.025359,0.99 -1.272858,1.09607 -0.247499,0.10607 -1.485,0.63643 -1.661784,0.70714 -0.176787,0.0707 -0.707144,0.14143 -0.883931,0.14143 -0.176784,0 -1.308214,0 -1.661784,0 -0.353571,0 -1.308214,-0.14143 -1.626428,-0.21214 -0.318215,-0.0707 -1.096071,-0.2475 -1.555716,-0.31822 -0.459642,-0.0707 -1.272857,-0.38893 -1.626428,-0.56571 -0.353571,-0.17679 -1.025356,-0.45965 -1.166786,-0.53036 -0.141428,-0.0707 -0.777858,-0.67178 -0.989998,-0.77786 -0.21214,-0.10607 -0.70715,-0.495 -0.81322,-0.63642 -0.10607,-0.14143 -0.495,-0.49501 -0.495,-0.49501 v -0.45964 c 0,0 -0.45964,0.495 -0.99,0.21215 -0.53035,-0.28286 -1.30821,-0.35358 -1.59107,-0.70715 -0.28286,-0.35357 -0.60107,-1.13143 -0.60107,-1.27286 0,-0.14142 -0.0354,-0.42428 0,-0.70714 0.0354,-0.28286 0.14143,-0.7425 0.14143,-0.7425 0,0 0.21214,-0.35357 0.63643,-0.60107 0.42428,-0.2475 0.56571,-0.38893 0.77786,-0.42429 0.21214,-0.0354 0.84857,0.0354 0.84857,0.0354 0,0 0.495,0.17679 0.60107,0.35357 0.10607,0.17679 0.31821,0.45965 0.42428,0.60107 0.10607,0.14143 0.35357,0.45965 0.42429,0.60108 0.0707,0.14142 0.2015,0.35564 0.2015,0.35564 z"
       id="path37522" /><path
       style="opacity:0.99;fill:#ff6600;fill-opacity:1;fill-rule:nonzero;stroke:none;stroke-width:0.1;stroke-dasharray:none;stroke-opacity:1;paint-order:fill markers stroke"
       d="m -103.77615,32.368433 c 0,0 -3.65018,1.85009 -2.70013,4.85024 0.95004,3.00015 1.40007,3.15016 1.40007,3.15016 l 0.15001,-0.05 c 0,0 0.55002,-1.00005 0.80004,-1.10006 0.25001,-0.1 0.60003,-0.30001 0.90004,-0.25001 0.30002,0.05 1.20006,0.35002 1.30007,0.60003 0.1,0.25002 0.50002,0.65003 0.65003,0.85005 0.15001,0.20001 0.35002,0.30001 0.35002,0.30001 0,0 0.25001,-0.90004 0.40002,-1.35007 0.15001,-0.45002 0.20001,-0.65003 0.15001,-1.05005 -0.05,-0.40002 -0.15001,-0.90005 -0.15001,-0.90005 l -0.25001,-0.65003 c 0.955262,0.71155 3.449013,0.57575 2.703689,-2.67943 -0.311283,-1.35952 0.02071,-1.47936 0.02071,-1.47936 0,0 0.375756,-0.24143 1.175798,-0.0914 0.800039,0.15001 1.80009,0.30002 2.350119,0.50003 0.550026,0.20001 1.400071,0.45002 1.800092,0.60003 0.400019,0.15001 1.450073,0.50002 1.700086,0.70003 0.250013,0.20002 0.900046,0.40002 1.150059,0.55003 0.250013,0.15001 0.800039,0.45002 0.800039,0.45002 0,0 0.425022,-0.77504 0.675035,-0.92505 0.250012,-0.15 0.525028,-0.47501 0.525028,-0.47501 l 0.300016,0.075 0.200011,0.77504 -3e-6,0.97505 c 0,0 0.600031,-0.82504 0.850044,-1.27507 0.250013,-0.45002 0.350017,-0.80004 0.60003,-1.30006 0.250013,-0.50003 0.400021,-0.90005 0.400021,-1.35007 0,-0.45003 0.250013,-1.55008 0.150008,-2.30012 -0.100005,-0.75004 -0.100005,-0.90005 -0.250013,-1.20006 -0.150008,-0.30002 -0.150008,-0.55003 -0.250012,-0.75004 -0.100005,-0.20001 -0.20001,-0.50003 -0.20001,-0.50003 0,0 0.05,0.60003 -0.150008,1.10006 -0.200012,0.50003 -0.350017,1.05005 -0.350017,1.05005 0,0 0.150005,-0.95004 -0.35002,-2.50012 -0.500025,-1.55008 -0.350017,-1.70009 -0.350017,-1.70009 v -0.30001 c 0,0 -0.100005,0.75003 -0.700035,1.15005 -0.600032,0.40002 -1.450075,1.05006 -2.000102,1.15006 -0.550029,0.10001 -2.100109,0.45003 -2.500127,0.45003 h -1.750092 c -0.200009,0 -0.700034,-0.10001 -0.700034,-0.10001 0,0 0.750038,0.15001 1.350068,-0.70004 0.60003,-0.85004 0.550029,-0.90004 0.550029,-0.90004 0,0 -0.750038,0.20001 -1.200063,0.20001 h -1.650081 c -0.300017,0 -2.200114,0.55003 -2.550131,0.65003 -0.350018,0.10001 -2.150107,0.50003 -2.550127,1.05005 -0.40003,0.55003 -1.65009,1.55008 -1.75009,1.8001 -0.10001,0.25001 -0.15001,0.35001 -0.45003,1.10005 -0.30001,0.75004 -0.25001,1.15006 -0.35002,1.45008 -0.1,0.30001 -0.25001,0.35002 -0.25001,0.35002 z"
       id="path37524"
       sodipodi:nodetypes="csccsssscssccscssssscsccccsssssscscsccsssscscssssssscc" /><path
       style="opacity:0.99;fill:#fde0a4;fill-opacity:0.992157;fill-rule:nonzero;stroke:none;stroke-width:0.108535;stroke-dasharray:none;stroke-opacity:1;paint-order:fill markers stroke"
       d="m -99.321539,45.497833 v 0.70618 c 0,0 -0.09175,0.83457 0.734045,0.96296 0.825802,0.1284 1.238702,0.321 1.238702,0.321 l 0.09175,-1.32307 c 0,0 -0.734043,-0.21768 -1.2387,-0.41027 -0.504657,-0.1926 -0.550533,-0.44939 -0.550533,-0.44939 z"
       id="path37526"
       sodipodi:nodetypes="ccsccscc" /><path
       style="opacity:0.99;fill:#48a4df;fill-opacity:1;fill-rule:nonzero;stroke:#0055d4;stroke-width:0.1;stroke-dasharray:none;stroke-opacity:1;paint-order:fill markers stroke"
       d="m -101.77604,50.669363 c -0.20001,-0.30002 -1.50008,-1.50008 -1.55008,-1.8501 -0.05,-0.35001 -0.10001,-0.2 0.60003,-0.65003 0.70003,-0.45002 1.35007,-0.80004 1.75009,-0.85004 0.40002,-0.05 1.000048,-0.10001 1.000048,-0.10001 l -1.000048,0.05 c 0,0 0.35001,-0.80003 0.80004,-1.00005 0.45002,-0.20001 0.800038,-0.45002 0.800038,-0.45002 0,0 0.300016,0.45002 0.600032,0.80004 0.300014,0.35002 0.450022,0.70004 0.950048,0.55003 0.500025,-0.15001 0.650033,-0.45002 0.650033,-0.45002 0,0 1.20006,4.40022 0.950048,6.30032 -0.250013,1.90009 0.300016,1.80009 0,1.90009 -0.300014,0.10001 -2.050103,0.05 -2.050103,0.05 0,0 -1.100058,-0.25001 -1.300067,-0.25001 H -100.926 c -0.25001,0 -0.50003,0.25001 -0.75004,0 -0.25001,-0.25002 -0.80004,-0.90005 -0.85004,-1.9501 -0.05,-1.05006 -0.05,-1.15006 0.45002,-1.55008 0.50003,-0.40002 0.70004,-0.40002 0.70004,-0.40002 0,0 0.44144,-0.11465 0.99147,-0.41467 0.550027,-0.30001 1.408649,-1.48543 1.408649,-1.48543 -0.548972,1.05529 -1.329719,1.69338 -2.350119,1.9001 z"
       id="path37528"
       sodipodi:nodetypes="csssccscsscsscssssscsccc" /><path
       style="opacity:0.99;fill:#444960;fill-opacity:1;fill-rule:nonzero;stroke:none;stroke-width:0.1;stroke-dasharray:none;stroke-opacity:1;paint-order:fill markers stroke"
       d="m -103.30112,54.894573 c 0,0 0.50002,2.67514 0.52503,2.95016 0.025,0.27501 0.1,1.90009 0.025,2.0251 -0.075,0.12501 -0.50003,0.82504 -0.57503,0.95005 -0.075,0.125 -0.90005,1.9501 -1.02505,2.0251 -0.12501,0.075 -0.72504,1.07506 -0.72504,1.07506 0,0 0.55002,0.15 0.72504,0.15 0.175,0 1.32506,-0.125 1.65008,-0.17501 0.32501,-0.05 0.70003,-0.05 0.95005,-0.05 0.25001,0 0.55002,0.45002 0.65003,0.45002 0.10001,0 0,-0.37501 0.025,-0.62503 0.025,-0.25001 -0.025,-0.35001 0.20001,-0.52503 0.22501,-0.175 0.45002,-0.15 0.60003,-0.75003 0.15001,-0.60003 0.300016,-1.37507 0.35002,-1.60009 0.05,-0.22501 0.150008,-0.70003 -0.025,-1.15005 -0.17501,-0.45003 -0.22501,-1.05006 -0.32502,-1.17506 -0.1,-0.12501 -0.35002,-2.10011 -0.60003,-2.45013 -0.25001,-0.35002 -0.97505,-1.37507 -0.97505,-1.37507 z"
       id="path37530" /><path
       style="opacity:0.99;fill:#23283b;fill-opacity:1;fill-rule:nonzero;stroke:none;stroke-width:0.1;stroke-dasharray:none;stroke-opacity:1;paint-order:fill markers stroke"
       d="m -98.650885,57.394703 c 0,0 0.850043,1.55008 0.975051,1.62509 0.125005,0.075 0.60003,1.07505 0.60003,1.07505 0,0 0.05,0.85004 -0.05,1.37507 -0.100007,0.52503 -0.300016,1.52508 -0.300016,1.77509 0,0.25001 -0.250013,0.67504 -0.150009,0.67504 0.100005,0 1.000051,0.075 1.600081,0.075 0.600033,0 0.625033,0.15 1.475076,0.025 0.850043,-0.12501 1.100056,-0.1 1.250064,-0.15001 0.150008,-0.05 -0.05,0 -0.175009,-0.40002 -0.125005,-0.40001 -0.05,-0.075 -0.200009,-0.67503 -0.150008,-0.60003 -0.325017,-1.07506 -0.300016,-1.57508 0.025,-0.50003 -0.400021,-2.0251 -0.750038,-2.22512 -0.350018,-0.2 -0.500026,-0.62503 -0.700035,-0.77503 -0.200012,-0.15001 -1.475076,-1.42508 -1.475076,-1.42508 l -0.750038,-0.125 c 0,0 -0.650034,0.52502 -0.750038,0.57503 -0.100005,0.05 -0.300017,0.15 -0.300018,0.15 z"
       id="path37532" /><path
       style="opacity:0.99;fill:#474e61;fill-opacity:1;fill-rule:nonzero;stroke:none;stroke-width:0.1;stroke-dasharray:none;stroke-opacity:1;paint-order:fill markers stroke"
       d="m -102.32607,54.444553 6.175313,0.42502 c 0,0 0.450024,0.65004 0.100004,1.05006 -0.350017,0.40002 -0.700034,0.80004 -0.950047,1.00005 -0.250013,0.20001 -0.725038,0.55003 -1.025051,0.60003 -0.300017,0.05 -0.625034,0.125 -1.025054,0.075 -0.400019,-0.05 -0.900044,0.025 -1.275065,-0.1 -0.37502,-0.12501 -0.82504,-0.075 -1.00005,-0.60003 -0.17501,-0.52503 -0.32502,-1.35007 -0.45002,-1.52508 -0.12501,-0.17501 -0.67504,-0.95005 -0.67504,-0.95005 z"
       id="path37534" /><path
       style="opacity:0.99;fill:#47a3e3;fill-opacity:1;fill-rule:nonzero;stroke:#0055d4;stroke-width:0.1;stroke-dasharray:none;stroke-opacity:1;paint-order:fill markers stroke"
       d="m -105.05121,63.995043 c 0,0 3.00015,-0.20001 3.27517,-0.075 0.27501,0.125 1.15005,0.60003 1.25006,0.82504 0.10001,0.22501 0.35002,0.75004 0.47502,0.87504 0.125011,0.12501 -0.55002,0.25001 -0.72503,0.20001 -0.17501,-0.05 -0.90005,-0.05 -1.35007,-0.05 -0.45002,0 -1.07506,-0.05 -1.8251,-0.075 -0.75003,-0.025 -1.17506,-0.025 -1.37506,-0.025 -0.20002,0 -0.70004,0.12501 -0.60003,0 0.1,-0.12501 0.25001,-0.97505 0.45002,-1.40007 0.20001,-0.42502 0.42502,-0.27501 0.42502,-0.27501 z"
       id="path37536" /><path
       style="opacity:0.99;fill:#47a3e3;fill-opacity:1;fill-rule:nonzero;stroke:#0055d4;stroke-width:0.1;stroke-dasharray:none;stroke-opacity:1;paint-order:fill markers stroke"
       d="m -97.166568,63.712183 c 0,0 3.000153,-0.20001 3.275169,-0.075 0.275013,0.125 1.150056,0.60003 1.250063,0.82504 0.100005,0.22501 0.350018,0.75004 0.475023,0.87504 0.125007,0.12501 -0.550027,0.25001 -0.725035,0.20001 -0.175012,-0.05 -0.900047,-0.05 -1.350071,-0.05 -0.450022,0 -1.075055,-0.05 -1.825093,-0.075 -0.750039,-0.025 -1.17506,-0.025 -1.375069,-0.025 -0.200012,0 -0.700037,0.12501 -0.60003,0 0.100004,-0.12501 0.250013,-0.97505 0.450022,-1.40007 0.200009,-0.42502 0.425021,-0.27501 0.425021,-0.27501 z"
       id="path37538" /><path
       style="opacity:0.99;fill:#e3dedb;fill-opacity:1;fill-rule:nonzero;stroke:none;stroke-width:0.1;stroke-dasharray:none;stroke-opacity:1;paint-order:fill markers stroke"
       d="m -97.99161,65.462273 c -0.125005,-0.025 -0.275013,0.27501 -0.275013,0.27501 0,0 0.05,0.40002 0.200009,0.45002 0.150008,0.05 0.175008,0.05 0.875046,0.12501 0.700034,0.075 1.300064,0.10001 1.825093,0.10001 0.525026,0 1.80009,-0.075 2.050103,-0.10001 0.250012,-0.025 0.850045,-0.05 1.075055,-0.15001 0.225012,-0.1 0.40002,-0.17501 0.40002,-0.35001 0,-0.17501 -0.125005,-0.45003 -0.250012,-0.45003 -0.125005,0 -5.900301,0.10001 -5.900301,0.10001 z"
       id="path37540" /><ellipse
       style="opacity:0.99;fill:#000000;fill-opacity:1;fill-rule:nonzero;stroke:#000000;stroke-width:0.1;stroke-dasharray:none;stroke-opacity:1;paint-order:fill markers stroke"
       id="ellipse37542"
       cx="-93.767143"
       cy="40.183392"
       rx="0.77785712"
       ry="1.3966072" /><ellipse
       style="opacity:0.99;fill:#000000;fill-opacity:1;fill-rule:nonzero;stroke:#000000;stroke-width:0.0792771;stroke-dasharray:none;stroke-opacity:1;paint-order:fill markers stroke"
       id="ellipse37544"
       cx="-88.857292"
       cy="40.094173"
       rx="0.56723642"
       ry="1.203665" /><ellipse
       style="opacity:0.99;fill:#ffffff;fill-opacity:1;fill-rule:nonzero;stroke:none;stroke-width:0.1;stroke-dasharray:none;stroke-opacity:1;paint-order:fill markers stroke"
       id="ellipse37546"
       cx="-93.722946"
       cy="39.723751"
       rx="0.53919643"
       ry="0.68946427" /><ellipse
       style="opacity:0.99;fill:#ffffff;fill-opacity:1;fill-rule:nonzero;stroke:none;stroke-width:0.0775845;stroke-dasharray:none;stroke-opacity:1;paint-order:fill markers stroke"
       id="ellipse37548"
       cx="-88.870186"
       cy="39.564632"
       rx="0.40013629"
       ry="0.55924344" /><path
       style="opacity:0.99;fill:#000000;fill-opacity:1;fill-rule:nonzero;stroke:#000000;stroke-width:0.1;stroke-dasharray:none;stroke-opacity:1;paint-order:fill markers stroke"
       d="m -95.941607,36.647673 c 0.335891,-0.28286 0.848572,-0.76018 1.11375,-0.7425 0.265179,0.0177 0.636429,0.053 0.919285,0.0884 0.282858,0.0354 0.689464,0.30054 0.830894,0.38893 0.141428,0.0884 0.371251,0.53036 0.548035,0.65411 0.176786,0.12375 0.335893,0.51268 0.37125,0.54804 0.03536,0.0354 0.159107,0.22982 0.141427,0.26517 -0.01767,0.0354 -0.318214,-0.22098 -0.459642,-0.25634 -0.141427,-0.0353 -0.609909,-0.30937 -0.715981,-0.41544 -0.106071,-0.10607 -0.07071,-0.22982 -0.291698,-0.32705 -0.220982,-0.0972 -0.822052,-0.18563 -0.892767,-0.20331 -0.07071,-0.0177 -0.353571,-0.0177 -0.574553,-0.0177 -0.220983,0 -0.742501,0.0354 -0.804376,0.053 -0.06187,0.0177 -0.247499,0.053 -0.247499,0.053 z"
       id="path37550" /><path
       style="opacity:0.99;fill:#000000;fill-opacity:1;fill-rule:nonzero;stroke:#000000;stroke-width:0.1;stroke-dasharray:none;stroke-opacity:1;paint-order:fill markers stroke"
       d="m -89.488927,38.008923 c 0.03536,-0.0884 0.194463,-0.53036 0.406606,-0.65411 0.212143,-0.12375 0.583393,-0.37125 0.671785,-0.4066 0.08839,-0.0354 0.282858,0 0.441965,0.0707 0.159107,0.0707 0.318215,0.12375 0.265179,0.21214 -0.05304,0.0884 -0.159107,0.0884 -0.406609,0.14143 -0.247499,0.053 -0.494999,0.14143 -0.583393,0.26518 -0.08839,0.12375 -0.335891,0.2475 -0.441963,0.40661 -0.106071,0.1591 -0.318214,0.2475 -0.318214,0.17678 0,-0.0707 -0.03536,-0.21214 -0.03536,-0.21214 z"
       id="path37552" /><path
       style="opacity:0.99;fill:none;fill-opacity:1;fill-rule:nonzero;stroke:#000000;stroke-width:0.1;stroke-dasharray:none;stroke-opacity:1;paint-order:fill markers stroke"
       d="m -90.350461,41.306383 c -0.01249,0.075 -0.025,0.27501 -0.01249,0.36252 0.01249,0.0875 0.08751,0.21251 0.237513,0.23751 0.150009,0.025 0.262512,0.075 0.350018,0.12501 0.08751,0.05 0.337518,0.25001 0.350017,0.36252 0.01252,0.1125 -0.075,0.38752 -0.112506,0.46252 -0.0375,0.075 0.0375,0.23751 -0.112504,0.23751 -0.150008,0 -0.387522,-0.0625 -0.462526,-0.0625 -0.075,0 -0.362516,-0.0375 -0.362516,-0.0375 l 0.137507,-0.0125 0.21251,0.0625"
       id="path37554" /><path
       style="opacity:0.99;fill:none;fill-opacity:1;fill-rule:nonzero;stroke:#000000;stroke-width:0.1;stroke-dasharray:none;stroke-opacity:1;paint-order:fill markers stroke"
       d="m -91.31301,44.844063 c -0.075,0.025 -1.100055,0.15001 -1.36257,0.075 -0.262514,-0.075 -0.800039,-0.33752 -0.862544,-0.42503 -0.0625,-0.0875 -0.437523,-0.28751 -0.500025,-0.41252 -0.0625,-0.125 -0.075,-0.37502 -0.075,-0.37502 0,0 -0.237512,0.31252 -0.287515,0.33752 -0.05,0.025 -0.175009,0.025 -0.175009,0.025"
       id="path37556" /><path
       style="opacity:0.99;fill:#fde0a4;fill-opacity:0.992157;fill-rule:nonzero;stroke:none;stroke-width:0.1;stroke-dasharray:none;stroke-opacity:1;paint-order:fill markers stroke"
       d="m -103.37613,48.944273 1.9001,2.0251 c 0,0 -0.97505,0.52503 -1.02505,0.62503 -0.05,0.10001 -0.075,1.12506 -0.025,1.25007 0.05,0.12501 0.30001,1.02505 0.42502,1.25006 0.12501,0.22501 0.40002,0.92505 0.40002,0.92505 0,0 -0.05,-0.37502 0.37502,-0.22501 0.42502,0.15001 0.47502,0.075 0.52503,0.17501 0.05,0.1 0.62503,0.70003 0.62503,0.70003 l 0.275012,0.85005 c 0,0 0.250013,0.27501 0.025,0.42502 -0.225012,0.15001 -0.275012,0.35002 -0.350022,0.22501 -0.075,-0.12501 -0.2,-0.57503 -0.2,-0.57503 l 0.22501,0.87505 0.275011,0.40002 c 0,0 0.150008,0.42502 -0.250011,0.55003 -0.40002,0.125 -0.77504,-0.05 -0.77504,-0.05 0,0 -0.075,0 -0.35002,0.20001 -0.27501,0.20001 -0.50003,0.52503 -0.67503,0.35002 -0.17501,-0.17501 -0.37502,-0.25001 -0.52503,-0.27502 -0.15001,-0.025 -0.35002,0.15001 -0.52503,0.15001 -0.17501,0 -0.50002,0.15001 -0.65003,-0.20001 -0.15001,-0.35002 -0.20001,-0.47502 -0.35002,-0.82504 -0.15001,-0.35002 -0.22501,-0.32502 -0.20001,-0.70004 0.025,-0.37501 0.12501,-0.67503 0.20001,-0.87504 0.075,-0.20001 0.10001,-0.25001 0.12501,-0.50002 0.025,-0.25002 -0.52503,-0.50003 -0.62504,-0.97505 -0.1,-0.47503 -0.25001,-0.77504 -0.40001,-1.12506 -0.15001,-0.35002 -0.30002,-0.55003 -0.32502,-0.97505 -0.025,-0.42502 -0.12501,-0.67504 0.025,-1.22506 0.15001,-0.55003 0.05,-0.45003 0.45002,-1.00006 0.40002,-0.55002 0.57503,-0.72503 0.80004,-0.90004 0.22502,-0.17501 0.60003,-0.55003 0.60003,-0.55003 z"
       id="path37558" /><path
       style="opacity:0.99;fill:#fde0a4;fill-opacity:0.992157;fill-rule:nonzero;stroke:none;stroke-width:0.1;stroke-dasharray:none;stroke-opacity:1;paint-order:fill markers stroke"
       d="m -95.875741,54.294543 c 0,0.10001 -0.175012,0.15001 -0.300017,0.52503 -0.125008,0.37502 -0.100004,0.55003 -0.125008,0.72504 -0.025,0.17501 -0.350017,0.72504 -0.350017,0.72504 0,0 -0.700035,0.37501 -0.275014,0.67503 0.425024,0.30001 0.625031,0.50002 0.750039,0.50002 0.125005,0 0.350017,-0.1 0.525026,-0.32501 0.175009,-0.22501 0.375021,-0.40002 0.525029,-0.72504 0.150005,-0.32502 0.375017,-0.92505 0.375017,-0.92505 0,0 -0.05,0.45003 0.175009,0.62504 0.225012,0.17501 0,0.27501 0.450025,0.15 0.450021,-0.125 0.800039,-0.67503 0.825042,-0.80004 0.025,-0.125 0.225009,-0.47502 0.225009,-0.72503 0,-0.25002 -0.150005,-0.50003 -0.375017,-0.62504 -0.225013,-0.125 -0.750038,-0.1 -1.000051,-0.075 -0.250013,0.025 -1.225063,0.10001 -1.225063,0.10001 z"
       id="path37560"
       sodipodi:nodetypes="csscsssscsssssscc" /><path
       style="opacity:0.99;fill:#fde0a4;fill-opacity:0.992157;fill-rule:nonzero;stroke:none;stroke-width:0.1;stroke-dasharray:none;stroke-opacity:1;paint-order:fill markers stroke"
       d="m -95.725736,57.219693 c 0,0 -0.150005,0.42502 -0.150005,0.57503 0,0.15001 0.375017,0.42502 0.62503,0.52503 0.250013,0.10001 0.825042,0.20001 1.100055,0.025 0.275016,-0.17501 0.475025,-0.55003 0.55003,-0.67503 0.075,-0.12501 0.100004,-0.17501 0.225012,-0.17501 0.125005,0 0.425021,-0.27502 0.425021,-0.42503 0,-0.15 0,-0.27501 0,-0.40002 0,-0.125 0.300014,-0.35001 0.300014,-0.35001 0,0 0.150008,-0.22501 0.150008,-0.50003 0,-0.27501 0.250013,-0.45002 -0.075,-0.50002 -0.325017,-0.05 -0.625031,-0.30002 -0.625031,-0.30002 0,0 -1.800092,-0.075 -1.975101,0.10001 -0.175009,0.175 -0.550029,2.1001 -0.550029,2.1001 z"
       id="path37562" /></g></svg>
