<?xml version="1.0" encoding="UTF-8" standalone="no"?>
<!-- Created with Inkscape (http://www.inkscape.org/) -->

<svg
   width="50"
   height="70"
   viewBox="0 0 13.229166 18.520833"
   version="1.1"
   id="svg18473"
   xml:space="preserve"
   inkscape:version="1.2.2 (732a01da63, 2022-12-09)"
   sodipodi:docname="player_move_5.svg"
   xmlns:inkscape="http://www.inkscape.org/namespaces/inkscape"
   xmlns:sodipodi="http://sodipodi.sourceforge.net/DTD/sodipodi-0.dtd"
   xmlns="http://www.w3.org/2000/svg"
   xmlns:svg="http://www.w3.org/2000/svg"><sodipodi:namedview
     id="namedview18475"
     pagecolor="#ffffff"
     bordercolor="#000000"
     borderopacity="0.25"
     inkscape:showpageshadow="2"
     inkscape:pageopacity="0.0"
     inkscape:pagecheckerboard="0"
     inkscape:deskcolor="#d1d1d1"
     inkscape:document-units="mm"
     showgrid="true"
     inkscape:zoom="7.483165"
     inkscape:cx="18.240945"
     inkscape:cy="31.804724"
     inkscape:window-width="1366"
     inkscape:window-height="705"
     inkscape:window-x="-8"
     inkscape:window-y="-8"
     inkscape:window-maximized="1"
     inkscape:current-layer="layer1"><inkscape:grid
       type="xygrid"
       id="grid36773"
       originx="0"
       originy="0" /></sodipodi:namedview><defs
     id="defs18470" /><g
     inkscape:label="Capa 1"
     inkscape:groupmode="layer"
     id="layer1"><path
       style="opacity:0.99;fill:#fde0a4;fill-opacity:1;fill-rule:nonzero;stroke:none;stroke-width:0.1;stroke-dasharray:none;stroke-opacity:1;paint-order:fill markers stroke"
       d="m -101.026,40.768853 c 0,0 0.71779,-3.53779 0.541,-3.64386 -0.17679,-0.10607 1.025358,-0.17678 1.308214,-0.56571 0.282858,-0.38893 0.707144,-0.81322 0.813215,-1.27286 0.106072,-0.45964 0.212143,-1.09607 0.212143,-1.44964 0,-0.35358 -0.106071,-1.30822 -0.106071,-1.30822 v -0.14143 c 0,0 4.348927,0.21215 6.611783,1.41429 2.262857,1.20214 2.368929,1.27286 2.368929,1.27286 0,0 0.990002,-0.77786 1.060714,-0.91929 0.07072,-0.14143 0.459645,-0.35357 0.459645,-0.35357 l 0.459642,0.99 c 0,0 0.141428,4.31357 -0.03536,4.98536 -0.176787,0.67178 -0.106071,0.31821 -0.14143,0.495 -0.03536,0.17678 -0.141428,1.20214 -0.141428,1.52035 0,0.31822 0.07071,1.13143 0.03536,1.44965 -0.03536,0.31821 -0.565713,1.87393 -0.565713,1.87393 0,0 -1.025359,0.99 -1.272858,1.09607 -0.247499,0.10607 -1.485,0.63643 -1.661784,0.70714 -0.176787,0.0707 -0.707144,0.14143 -0.883931,0.14143 -0.176784,0 -1.308214,0 -1.661784,0 -0.353571,0 -1.308214,-0.14143 -1.626428,-0.21214 -0.318215,-0.0707 -1.096071,-0.2475 -1.555716,-0.31822 -0.459642,-0.0707 -1.272857,-0.38893 -1.626428,-0.56571 -0.353571,-0.17679 -1.025356,-0.45965 -1.166786,-0.53036 -0.141428,-0.0707 -0.777858,-0.67178 -0.989998,-0.77786 -0.21214,-0.10607 -0.70715,-0.495 -0.81322,-0.63642 -0.10607,-0.14143 -0.495,-0.49501 -0.495,-0.49501 v -0.45964 c 0,0 -0.45964,0.495 -0.99,0.21215 -0.53035,-0.28286 -1.30821,-0.35358 -1.59107,-0.70715 -0.28286,-0.35357 -0.60107,-1.13143 -0.60107,-1.27286 0,-0.14142 -0.0354,-0.42428 0,-0.70714 0.0354,-0.28286 0.14143,-0.7425 0.14143,-0.7425 0,0 0.21214,-0.35357 0.63643,-0.60107 0.42428,-0.2475 0.56571,-0.38893 0.77786,-0.42429 0.21214,-0.0354 0.84857,0.0354 0.84857,0.0354 0,0 0.495,0.17679 0.60107,0.35357 0.10607,0.17679 0.31821,0.45965 0.42428,0.60107 0.10607,0.14143 0.35357,0.45965 0.42429,0.60108 0.0707,0.14142 0.2015,0.35564 0.2015,0.35564 z"
       id="path32083" /><path
       style="opacity:0.99;fill:#ff6600;fill-opacity:1;fill-rule:nonzero;stroke:none;stroke-width:0.1;stroke-dasharray:none;stroke-opacity:1;paint-order:fill markers stroke"
       d="m -103.77615,32.368433 c 0,0 -3.65018,1.85009 -2.70013,4.85024 0.95004,3.00015 1.40007,3.15016 1.40007,3.15016 l 0.15001,-0.05 c 0,0 0.55002,-1.00005 0.80004,-1.10006 0.25001,-0.1 0.60003,-0.30001 0.90004,-0.25001 0.30002,0.05 1.20006,0.35002 1.30007,0.60003 0.1,0.25002 0.50002,0.65003 0.65003,0.85005 0.15001,0.20001 0.35002,0.30001 0.35002,0.30001 0,0 0.25001,-0.90004 0.40002,-1.35007 0.15001,-0.45002 0.20001,-0.65003 0.15001,-1.05005 -0.05,-0.40002 -0.15001,-0.90005 -0.15001,-0.90005 l -0.25001,-0.65003 c 0.955262,0.71155 3.449013,0.57575 2.703689,-2.67943 -0.311283,-1.35952 0.02071,-1.47936 0.02071,-1.47936 0,0 0.375756,-0.24143 1.175798,-0.0914 0.800039,0.15001 1.80009,0.30002 2.350119,0.50003 0.550026,0.20001 1.400071,0.45002 1.800092,0.60003 0.400019,0.15001 1.450073,0.50002 1.700086,0.70003 0.250013,0.20002 0.900046,0.40002 1.150059,0.55003 0.250013,0.15001 0.800039,0.45002 0.800039,0.45002 0,0 0.425022,-0.77504 0.675035,-0.92505 0.250012,-0.15 0.525028,-0.47501 0.525028,-0.47501 l 0.300016,0.075 0.200011,0.77504 -3e-6,0.97505 c 0,0 0.600031,-0.82504 0.850044,-1.27507 0.250013,-0.45002 0.350017,-0.80004 0.60003,-1.30006 0.250013,-0.50003 0.400021,-0.90005 0.400021,-1.35007 0,-0.45003 0.250013,-1.55008 0.150008,-2.30012 -0.100005,-0.75004 -0.100005,-0.90005 -0.250013,-1.20006 -0.150008,-0.30002 -0.150008,-0.55003 -0.250012,-0.75004 -0.100005,-0.20001 -0.20001,-0.50003 -0.20001,-0.50003 0,0 0.05,0.60003 -0.150008,1.10006 -0.200012,0.50003 -0.350017,1.05005 -0.350017,1.05005 0,0 0.150005,-0.95004 -0.35002,-2.50012 -0.500025,-1.55008 -0.350017,-1.70009 -0.350017,-1.70009 v -0.30001 c 0,0 -0.100005,0.75003 -0.700035,1.15005 -0.600032,0.40002 -1.450075,1.05006 -2.000102,1.15006 -0.550029,0.10001 -2.100109,0.45003 -2.500127,0.45003 h -1.750092 c -0.200009,0 -0.700034,-0.10001 -0.700034,-0.10001 0,0 0.750038,0.15001 1.350068,-0.70004 0.60003,-0.85004 0.550029,-0.90004 0.550029,-0.90004 0,0 -0.750038,0.20001 -1.200063,0.20001 h -1.650081 c -0.300017,0 -2.200114,0.55003 -2.550131,0.65003 -0.350018,0.10001 -2.150107,0.50003 -2.550127,1.05005 -0.40003,0.55003 -1.65009,1.55008 -1.75009,1.8001 -0.10001,0.25001 -0.15001,0.35001 -0.45003,1.10005 -0.30001,0.75004 -0.25001,1.15006 -0.35002,1.45008 -0.1,0.30001 -0.25001,0.35002 -0.25001,0.35002 z"
       id="path32085"
       sodipodi:nodetypes="csccsssscssccscssssscsccccsssssscscsccsssscscssssssscc" /><path
       style="opacity:0.99;fill:#fde0a4;fill-opacity:0.992157;fill-rule:nonzero;stroke:none;stroke-width:0.108535;stroke-dasharray:none;stroke-opacity:1;paint-order:fill markers stroke"
       d="m -99.321539,45.497833 v 0.70618 c 0,0 -0.09175,0.83457 0.734045,0.96296 0.825802,0.1284 1.238702,0.321 1.238702,0.321 l 0.09175,-1.32307 c 0,0 -0.734043,-0.21768 -1.2387,-0.41027 -0.504657,-0.1926 -0.550533,-0.44939 -0.550533,-0.44939 z"
       id="path32087"
       sodipodi:nodetypes="ccsccscc" /><path
       style="opacity:0.99;fill:#48a4df;fill-opacity:1;fill-rule:nonzero;stroke:#0055d4;stroke-width:0.1;stroke-dasharray:none;stroke-opacity:1;paint-order:fill markers stroke"
       d="m -101.77604,50.669363 c -0.20001,-0.30002 -1.50008,-1.50008 -1.55008,-1.8501 -0.05,-0.35001 -0.10001,-0.2 0.60003,-0.65003 0.70003,-0.45002 1.35007,-0.80004 1.75009,-0.85004 0.40002,-0.05 1.000048,-0.10001 1.000048,-0.10001 l -1.000048,0.05 c 0,0 0.35001,-0.80003 0.80004,-1.00005 0.45002,-0.20001 0.800038,-0.45002 0.800038,-0.45002 0,0 0.300016,0.45002 0.600032,0.80004 0.300014,0.35002 0.450022,0.70004 0.950048,0.55003 0.500025,-0.15001 0.650033,-0.45002 0.650033,-0.45002 0,0 1.20006,4.40022 0.950048,6.30032 -0.250013,1.90009 0.300016,1.80009 0,1.90009 -0.300014,0.10001 -2.050103,0.05 -2.050103,0.05 0,0 -1.100058,-0.25001 -1.300067,-0.25001 H -100.926 c -0.25001,0 -0.50003,0.25001 -0.75004,0 -0.25001,-0.25002 -0.80004,-0.90005 -0.85004,-1.9501 -0.05,-1.05006 -0.05,-1.15006 0.45002,-1.55008 0.50003,-0.40002 0.70004,-0.40002 0.70004,-0.40002 0,0 0.44144,-0.11465 0.99147,-0.41467 0.550027,-0.30001 1.408649,-1.48543 1.408649,-1.48543 -0.548972,1.05529 -1.329719,1.69338 -2.350119,1.9001 z"
       id="path32089"
       sodipodi:nodetypes="csssccscsscsscssssscsccc" /><path
       style="opacity:0.99;fill:#444960;fill-opacity:1;fill-rule:nonzero;stroke:none;stroke-width:0.1;stroke-dasharray:none;stroke-opacity:1;paint-order:fill markers stroke"
       d="m -103.30112,54.894573 c 0,0 0.50002,2.67514 0.52503,2.95016 0.025,0.27501 0.1,1.90009 0.025,2.0251 -0.075,0.12501 -0.50003,0.82504 -0.57503,0.95005 -0.075,0.125 -0.90005,1.9501 -1.02505,2.0251 -0.12501,0.075 -0.72504,1.07506 -0.72504,1.07506 0,0 0.55002,0.15 0.72504,0.15 0.175,0 1.32506,-0.125 1.65008,-0.17501 0.32501,-0.05 0.70003,-0.05 0.95005,-0.05 0.25001,0 0.55002,0.45002 0.65003,0.45002 0.10001,0 0,-0.37501 0.025,-0.62503 0.025,-0.25001 -0.025,-0.35001 0.20001,-0.52503 0.22501,-0.175 0.45002,-0.15 0.60003,-0.75003 0.15001,-0.60003 0.300016,-1.37507 0.35002,-1.60009 0.05,-0.22501 0.150008,-0.70003 -0.025,-1.15005 -0.17501,-0.45003 -0.22501,-1.05006 -0.32502,-1.17506 -0.1,-0.12501 -0.35002,-2.10011 -0.60003,-2.45013 -0.25001,-0.35002 -0.97505,-1.37507 -0.97505,-1.37507 z"
       id="path32091" /><path
       style="opacity:0.99;fill:#23283b;fill-opacity:1;fill-rule:nonzero;stroke:none;stroke-width:0.1;stroke-dasharray:none;stroke-opacity:1;paint-order:fill markers stroke"
       d="m -98.650885,57.394703 c 0,0 0.850043,1.55008 0.975051,1.62509 0.125005,0.075 0.60003,1.07505 0.60003,1.07505 0,0 0.05,0.85004 -0.05,1.37507 -0.100007,0.52503 -0.300016,1.52508 -0.300016,1.77509 0,0.25001 -0.250013,0.67504 -0.150009,0.67504 0.100005,0 1.000051,0.075 1.600081,0.075 0.600033,0 0.625033,0.15 1.475076,0.025 0.850043,-0.12501 1.100056,-0.1 1.250064,-0.15001 0.150008,-0.05 -0.05,0 -0.175009,-0.40002 -0.125005,-0.40001 -0.05,-0.075 -0.200009,-0.67503 -0.150008,-0.60003 -0.325017,-1.07506 -0.300016,-1.57508 0.025,-0.50003 -0.400021,-2.0251 -0.750038,-2.22512 -0.350018,-0.2 -0.500026,-0.62503 -0.700035,-0.77503 -0.200012,-0.15001 -1.475076,-1.42508 -1.475076,-1.42508 l -0.750038,-0.125 c 0,0 -0.650034,0.52502 -0.750038,0.57503 -0.100005,0.05 -0.300017,0.15 -0.300018,0.15 z"
       id="path32093" /><path
       style="opacity:0.99;fill:#474e61;fill-opacity:1;fill-rule:nonzero;stroke:none;stroke-width:0.1;stroke-dasharray:none;stroke-opacity:1;paint-order:fill markers stroke"
       d="m -102.32607,54.444553 6.175313,0.42502 c 0,0 0.450024,0.65004 0.100004,1.05006 -0.350017,0.40002 -0.700034,0.80004 -0.950047,1.00005 -0.250013,0.20001 -0.725038,0.55003 -1.025051,0.60003 -0.300017,0.05 -0.625034,0.125 -1.025054,0.075 -0.400019,-0.05 -0.900044,0.025 -1.275065,-0.1 -0.37502,-0.12501 -0.82504,-0.075 -1.00005,-0.60003 -0.17501,-0.52503 -0.32502,-1.35007 -0.45002,-1.52508 -0.12501,-0.17501 -0.67504,-0.95005 -0.67504,-0.95005 z"
       id="path32095" /><path
       style="opacity:0.99;fill:#47a3e3;fill-opacity:1;fill-rule:nonzero;stroke:#0055d4;stroke-width:0.1;stroke-dasharray:none;stroke-opacity:1;paint-order:fill markers stroke"
       d="m -105.05121,63.995043 c 0,0 3.00015,-0.20001 3.27517,-0.075 0.27501,0.125 1.15005,0.60003 1.25006,0.82504 0.10001,0.22501 0.35002,0.75004 0.47502,0.87504 0.125011,0.12501 -0.55002,0.25001 -0.72503,0.20001 -0.17501,-0.05 -0.90005,-0.05 -1.35007,-0.05 -0.45002,0 -1.07506,-0.05 -1.8251,-0.075 -0.75003,-0.025 -1.17506,-0.025 -1.37506,-0.025 -0.20002,0 -0.70004,0.12501 -0.60003,0 0.1,-0.12501 0.25001,-0.97505 0.45002,-1.40007 0.20001,-0.42502 0.42502,-0.27501 0.42502,-0.27501 z"
       id="path32097" /><path
       style="opacity:0.99;fill:#e3dedb;fill-opacity:1;fill-rule:nonzero;stroke:none;stroke-width:0.1;stroke-dasharray:none;stroke-opacity:1;paint-order:fill markers stroke"
       d="m -105.87625,65.745133 c -0.12501,-0.025 -0.27502,0.27501 -0.27502,0.27501 0,0 0.05,0.40002 0.20001,0.45002 0.15001,0.05 0.17501,0.05 0.87505,0.12501 0.70003,0.075 1.30006,0.10001 1.82509,0.10001 0.52503,0 1.80009,-0.075 2.0501,-0.10001 0.25002,-0.025 0.85005,-0.05 1.07506,-0.15001 0.225012,-0.1 0.40002,-0.17501 0.40002,-0.35001 0,-0.17501 -0.125005,-0.45003 -0.250012,-0.45003 -0.125008,0 -5.900298,0.10001 -5.900298,0.10001 z"
       id="path32099" /><path
       style="opacity:0.99;fill:#47a3e3;fill-opacity:1;fill-rule:nonzero;stroke:#0055d4;stroke-width:0.1;stroke-dasharray:none;stroke-opacity:1;paint-order:fill markers stroke"
       d="m -97.166568,63.712183 c 0,0 3.000153,-0.20001 3.275169,-0.075 0.275013,0.125 1.150056,0.60003 1.250063,0.82504 0.100005,0.22501 0.350018,0.75004 0.475023,0.87504 0.125007,0.12501 -0.550027,0.25001 -0.725035,0.20001 -0.175012,-0.05 -0.900047,-0.05 -1.350071,-0.05 -0.450022,0 -1.075055,-0.05 -1.825093,-0.075 -0.750039,-0.025 -1.17506,-0.025 -1.375069,-0.025 -0.200012,0 -0.700037,0.12501 -0.60003,0 0.100004,-0.12501 0.250013,-0.97505 0.450022,-1.40007 0.200009,-0.42502 0.425021,-0.27501 0.425021,-0.27501 z"
       id="path32101" /><path
       style="opacity:0.99;fill:#e3dedb;fill-opacity:1;fill-rule:nonzero;stroke:none;stroke-width:0.1;stroke-dasharray:none;stroke-opacity:1;paint-order:fill markers stroke"
       d="m -97.99161,65.462273 c -0.125005,-0.025 -0.275013,0.27501 -0.275013,0.27501 0,0 0.05,0.40002 0.200009,0.45002 0.150008,0.05 0.175008,0.05 0.875046,0.12501 0.700034,0.075 1.300064,0.10001 1.825093,0.10001 0.525026,0 1.80009,-0.075 2.050103,-0.10001 0.250012,-0.025 0.850045,-0.05 1.075055,-0.15001 0.225012,-0.1 0.40002,-0.17501 0.40002,-0.35001 0,-0.17501 -0.125005,-0.45003 -0.250012,-0.45003 -0.125005,0 -5.900301,0.10001 -5.900301,0.10001 z"
       id="path32103" /><ellipse
       style="opacity:0.99;fill:#000000;fill-opacity:1;fill-rule:nonzero;stroke:#000000;stroke-width:0.1;stroke-dasharray:none;stroke-opacity:1;paint-order:fill markers stroke"
       id="ellipse32105"
       cx="-93.767143"
       cy="40.183392"
       rx="0.77785712"
       ry="1.3966072" /><ellipse
       style="opacity:0.99;fill:#000000;fill-opacity:1;fill-rule:nonzero;stroke:#000000;stroke-width:0.0792771;stroke-dasharray:none;stroke-opacity:1;paint-order:fill markers stroke"
       id="ellipse32107"
       cx="-88.857292"
       cy="40.094173"
       rx="0.56723642"
       ry="1.203665" /><ellipse
       style="opacity:0.99;fill:#ffffff;fill-opacity:1;fill-rule:nonzero;stroke:none;stroke-width:0.1;stroke-dasharray:none;stroke-opacity:1;paint-order:fill markers stroke"
       id="ellipse32109"
       cx="-93.722946"
       cy="39.723751"
       rx="0.53919643"
       ry="0.68946427" /><ellipse
       style="opacity:0.99;fill:#ffffff;fill-opacity:1;fill-rule:nonzero;stroke:none;stroke-width:0.0775845;stroke-dasharray:none;stroke-opacity:1;paint-order:fill markers stroke"
       id="ellipse32111"
       cx="-88.870186"
       cy="39.564632"
       rx="0.40013629"
       ry="0.55924344" /><path
       style="opacity:0.99;fill:#000000;fill-opacity:1;fill-rule:nonzero;stroke:#000000;stroke-width:0.1;stroke-dasharray:none;stroke-opacity:1;paint-order:fill markers stroke"
       d="m -95.941607,36.647673 c 0.335891,-0.28286 0.848572,-0.76018 1.11375,-0.7425 0.265179,0.0177 0.636429,0.053 0.919285,0.0884 0.282858,0.0354 0.689464,0.30054 0.830894,0.38893 0.141428,0.0884 0.371251,0.53036 0.548035,0.65411 0.176786,0.12375 0.335893,0.51268 0.37125,0.54804 0.03536,0.0354 0.159107,0.22982 0.141427,0.26517 -0.01767,0.0354 -0.318214,-0.22098 -0.459642,-0.25634 -0.141427,-0.0353 -0.609909,-0.30937 -0.715981,-0.41544 -0.106071,-0.10607 -0.07071,-0.22982 -0.291698,-0.32705 -0.220982,-0.0972 -0.822052,-0.18563 -0.892767,-0.20331 -0.07071,-0.0177 -0.353571,-0.0177 -0.574553,-0.0177 -0.220983,0 -0.742501,0.0354 -0.804376,0.053 -0.06187,0.0177 -0.247499,0.053 -0.247499,0.053 z"
       id="path32113" /><path
       style="opacity:0.99;fill:#000000;fill-opacity:1;fill-rule:nonzero;stroke:#000000;stroke-width:0.1;stroke-dasharray:none;stroke-opacity:1;paint-order:fill markers stroke"
       d="m -89.488927,38.008923 c 0.03536,-0.0884 0.194463,-0.53036 0.406606,-0.65411 0.212143,-0.12375 0.583393,-0.37125 0.671785,-0.4066 0.08839,-0.0354 0.282858,0 0.441965,0.0707 0.159107,0.0707 0.318215,0.12375 0.265179,0.21214 -0.05304,0.0884 -0.159107,0.0884 -0.406609,0.14143 -0.247499,0.053 -0.494999,0.14143 -0.583393,0.26518 -0.08839,0.12375 -0.335891,0.2475 -0.441963,0.40661 -0.106071,0.1591 -0.318214,0.2475 -0.318214,0.17678 0,-0.0707 -0.03536,-0.21214 -0.03536,-0.21214 z"
       id="path32115" /><path
       style="opacity:0.99;fill:none;fill-opacity:1;fill-rule:nonzero;stroke:#000000;stroke-width:0.1;stroke-dasharray:none;stroke-opacity:1;paint-order:fill markers stroke"
       d="m -90.350461,41.306383 c -0.01249,0.075 -0.025,0.27501 -0.01249,0.36252 0.01249,0.0875 0.08751,0.21251 0.237513,0.23751 0.150009,0.025 0.262512,0.075 0.350018,0.12501 0.08751,0.05 0.337518,0.25001 0.350017,0.36252 0.01252,0.1125 -0.075,0.38752 -0.112506,0.46252 -0.0375,0.075 0.0375,0.23751 -0.112504,0.23751 -0.150008,0 -0.387522,-0.0625 -0.462526,-0.0625 -0.075,0 -0.362516,-0.0375 -0.362516,-0.0375 l 0.137507,-0.0125 0.21251,0.0625"
       id="path32117" /><path
       style="opacity:0.99;fill:none;fill-opacity:1;fill-rule:nonzero;stroke:#000000;stroke-width:0.1;stroke-dasharray:none;stroke-opacity:1;paint-order:fill markers stroke"
       d="m -91.31301,44.844063 c -0.075,0.025 -1.100055,0.15001 -1.36257,0.075 -0.262514,-0.075 -0.800039,-0.33752 -0.862544,-0.42503 -0.0625,-0.0875 -0.437523,-0.28751 -0.500025,-0.41252 -0.0625,-0.125 -0.075,-0.37502 -0.075,-0.37502 0,0 -0.237512,0.31252 -0.287515,0.33752 -0.05,0.025 -0.175009,0.025 -0.175009,0.025"
       id="path32119" /><path
       style="opacity:0.99;fill:#fde0a4;fill-opacity:0.992157;fill-rule:nonzero;stroke:none;stroke-width:0.1;stroke-dasharray:none;stroke-opacity:1;paint-order:fill markers stroke"
       d="m -103.37613,48.944273 1.9001,2.0251 c 0,0 -0.97505,0.52503 -1.02505,0.62503 -0.05,0.10001 -0.075,1.12506 -0.025,1.25007 0.05,0.12501 0.30001,1.02505 0.42502,1.25006 0.12501,0.22501 0.40002,0.92505 0.40002,0.92505 0,0 -0.05,-0.37502 0.37502,-0.22501 0.42502,0.15001 0.47502,0.075 0.52503,0.17501 0.05,0.1 0.62503,0.70003 0.62503,0.70003 l 0.275012,0.85005 c 0,0 0.250013,0.27501 0.025,0.42502 -0.225012,0.15001 -0.275012,0.35002 -0.350022,0.22501 -0.075,-0.12501 -0.2,-0.57503 -0.2,-0.57503 l 0.22501,0.87505 0.275011,0.40002 c 0,0 0.150008,0.42502 -0.250011,0.55003 -0.40002,0.125 -0.77504,-0.05 -0.77504,-0.05 0,0 -0.075,0 -0.35002,0.20001 -0.27501,0.20001 -0.50003,0.52503 -0.67503,0.35002 -0.17501,-0.17501 -0.37502,-0.25001 -0.52503,-0.27502 -0.15001,-0.025 -0.35002,0.15001 -0.52503,0.15001 -0.17501,0 -0.50002,0.15001 -0.65003,-0.20001 -0.15001,-0.35002 -0.20001,-0.47502 -0.35002,-0.82504 -0.15001,-0.35002 -0.22501,-0.32502 -0.20001,-0.70004 0.025,-0.37501 0.12501,-0.67503 0.20001,-0.87504 0.075,-0.20001 0.10001,-0.25001 0.12501,-0.50002 0.025,-0.25002 -0.52503,-0.50003 -0.62504,-0.97505 -0.1,-0.47503 -0.25001,-0.77504 -0.40001,-1.12506 -0.15001,-0.35002 -0.30002,-0.55003 -0.32502,-0.97505 -0.025,-0.42502 -0.12501,-0.67504 0.025,-1.22506 0.15001,-0.55003 0.05,-0.45003 0.45002,-1.00006 0.40002,-0.55002 0.57503,-0.72503 0.80004,-0.90004 0.22502,-0.17501 0.60003,-0.55003 0.60003,-0.55003 z"
       id="path32121" /><path
       style="opacity:0.99;fill:#fde0a4;fill-opacity:0.992157;fill-rule:nonzero;stroke:none;stroke-width:0.1;stroke-dasharray:none;stroke-opacity:1;paint-order:fill markers stroke"
       d="m -95.875741,54.294543 c 0,0.10001 -0.175012,0.15001 -0.300017,0.52503 -0.125008,0.37502 -0.100004,0.55003 -0.125008,0.72504 -0.025,0.17501 -0.350017,0.72504 -0.350017,0.72504 0,0 -0.700035,0.37501 -0.275014,0.67503 0.425024,0.30001 0.625031,0.50002 0.750039,0.50002 0.125005,0 0.350017,-0.1 0.525026,-0.32501 0.175009,-0.22501 0.375021,-0.40002 0.525029,-0.72504 0.150005,-0.32502 0.375017,-0.92505 0.375017,-0.92505 0,0 -0.05,0.45003 0.175009,0.62504 0.225012,0.17501 0,0.27501 0.450025,0.15 0.450021,-0.125 0.800039,-0.67503 0.825042,-0.80004 0.025,-0.125 0.225009,-0.47502 0.225009,-0.72503 0,-0.25002 -0.150005,-0.50003 -0.375017,-0.62504 -0.225013,-0.125 -0.750038,-0.1 -1.000051,-0.075 -0.250013,0.025 -1.225063,0.10001 -1.225063,0.10001 z"
       id="path32123"
       sodipodi:nodetypes="csscsssscsssssscc" /><path
       style="opacity:0.99;fill:#fde0a4;fill-opacity:0.992157;fill-rule:nonzero;stroke:none;stroke-width:0.1;stroke-dasharray:none;stroke-opacity:1;paint-order:fill markers stroke"
       d="m -95.725736,57.219693 c 0,0 -0.150005,0.42502 -0.150005,0.57503 0,0.15001 0.375017,0.42502 0.62503,0.52503 0.250013,0.10001 0.825042,0.20001 1.100055,0.025 0.275016,-0.17501 0.475025,-0.55003 0.55003,-0.67503 0.075,-0.12501 0.100004,-0.17501 0.225012,-0.17501 0.125005,0 0.425021,-0.27502 0.425021,-0.42503 0,-0.15 0,-0.27501 0,-0.40002 0,-0.125 0.300014,-0.35001 0.300014,-0.35001 0,0 0.150008,-0.22501 0.150008,-0.50003 0,-0.27501 0.250013,-0.45002 -0.075,-0.50002 -0.325017,-0.05 -0.625031,-0.30002 -0.625031,-0.30002 0,0 -1.800092,-0.075 -1.975101,0.10001 -0.175009,0.175 -0.550029,2.1001 -0.550029,2.1001 z"
       id="path32125" /><path
       style="opacity:0.99;fill:#fde0a4;fill-opacity:1;fill-rule:nonzero;stroke:none;stroke-width:0.1;stroke-dasharray:none;stroke-opacity:1;paint-order:fill markers stroke"
       d="m -101.026,40.768853 c 0,0 0.71779,-3.53779 0.541,-3.64386 -0.17679,-0.10607 1.025358,-0.17678 1.308214,-0.56571 0.282858,-0.38893 0.707144,-0.81322 0.813215,-1.27286 0.106072,-0.45964 0.212143,-1.09607 0.212143,-1.44964 0,-0.35358 -0.106071,-1.30822 -0.106071,-1.30822 v -0.14143 c 0,0 4.348927,0.21215 6.611783,1.41429 2.262857,1.20214 2.368929,1.27286 2.368929,1.27286 0,0 0.990002,-0.77786 1.060714,-0.91929 0.07072,-0.14143 0.459645,-0.35357 0.459645,-0.35357 l 0.459642,0.99 c 0,0 0.141428,4.31357 -0.03536,4.98536 -0.176787,0.67178 -0.106071,0.31821 -0.14143,0.495 -0.03536,0.17678 -0.141428,1.20214 -0.141428,1.52035 0,0.31822 0.07071,1.13143 0.03536,1.44965 -0.03536,0.31821 -0.565713,1.87393 -0.565713,1.87393 0,0 -1.025359,0.99 -1.272858,1.09607 -0.247499,0.10607 -1.485,0.63643 -1.661784,0.70714 -0.176787,0.0707 -0.707144,0.14143 -0.883931,0.14143 -0.176784,0 -1.308214,0 -1.661784,0 -0.353571,0 -1.308214,-0.14143 -1.626428,-0.21214 -0.318215,-0.0707 -1.096071,-0.2475 -1.555716,-0.31822 -0.459642,-0.0707 -1.272857,-0.38893 -1.626428,-0.56571 -0.353571,-0.17679 -1.025356,-0.45965 -1.166786,-0.53036 -0.141428,-0.0707 -0.777858,-0.67178 -0.989998,-0.77786 -0.21214,-0.10607 -0.70715,-0.495 -0.81322,-0.63642 -0.10607,-0.14143 -0.495,-0.49501 -0.495,-0.49501 v -0.45964 c 0,0 -0.45964,0.495 -0.99,0.21215 -0.53035,-0.28286 -1.30821,-0.35358 -1.59107,-0.70715 -0.28286,-0.35357 -0.60107,-1.13143 -0.60107,-1.27286 0,-0.14142 -0.0354,-0.42428 0,-0.70714 0.0354,-0.28286 0.14143,-0.7425 0.14143,-0.7425 0,0 0.21214,-0.35357 0.63643,-0.60107 0.42428,-0.2475 0.56571,-0.38893 0.77786,-0.42429 0.21214,-0.0354 0.84857,0.0354 0.84857,0.0354 0,0 0.495,0.17679 0.60107,0.35357 0.10607,0.17679 0.31821,0.45965 0.42428,0.60107 0.10607,0.14143 0.35357,0.45965 0.42429,0.60108 0.0707,0.14142 0.2015,0.35564 0.2015,0.35564 z"
       id="path37522" /><path
       style="opacity:0.99;fill:#ff6600;fill-opacity:1;fill-rule:nonzero;stroke:none;stroke-width:0.1;stroke-dasharray:none;stroke-opacity:1;paint-order:fill markers stroke"
       d="m -103.77615,32.368433 c 0,0 -3.65018,1.85009 -2.70013,4.85024 0.95004,3.00015 1.40007,3.15016 1.40007,3.15016 l 0.15001,-0.05 c 0,0 0.55002,-1.00005 0.80004,-1.10006 0.25001,-0.1 0.60003,-0.30001 0.90004,-0.25001 0.30002,0.05 1.20006,0.35002 1.30007,0.60003 0.1,0.25002 0.50002,0.65003 0.65003,0.85005 0.15001,0.20001 0.35002,0.30001 0.35002,0.30001 0,0 0.25001,-0.90004 0.40002,-1.35007 0.15001,-0.45002 0.20001,-0.65003 0.15001,-1.05005 -0.05,-0.40002 -0.15001,-0.90005 -0.15001,-0.90005 l -0.25001,-0.65003 c 0.955262,0.71155 3.449013,0.57575 2.703689,-2.67943 -0.311283,-1.35952 0.02071,-1.47936 0.02071,-1.47936 0,0 0.375756,-0.24143 1.175798,-0.0914 0.800039,0.15001 1.80009,0.30002 2.350119,0.50003 0.550026,0.20001 1.400071,0.45002 1.800092,0.60003 0.400019,0.15001 1.450073,0.50002 1.700086,0.70003 0.250013,0.20002 0.900046,0.40002 1.150059,0.55003 0.250013,0.15001 0.800039,0.45002 0.800039,0.45002 0,0 0.425022,-0.77504 0.675035,-0.92505 0.250012,-0.15 0.525028,-0.47501 0.525028,-0.47501 l 0.300016,0.075 0.200011,0.77504 -3e-6,0.97505 c 0,0 0.600031,-0.82504 0.850044,-1.27507 0.250013,-0.45002 0.350017,-0.80004 0.60003,-1.30006 0.250013,-0.50003 0.400021,-0.90005 0.400021,-1.35007 0,-0.45003 0.250013,-1.55008 0.150008,-2.30012 -0.100005,-0.75004 -0.100005,-0.90005 -0.250013,-1.20006 -0.150008,-0.30002 -0.150008,-0.55003 -0.250012,-0.75004 -0.100005,-0.20001 -0.20001,-0.50003 -0.20001,-0.50003 0,0 0.05,0.60003 -0.150008,1.10006 -0.200012,0.50003 -0.350017,1.05005 -0.350017,1.05005 0,0 0.150005,-0.95004 -0.35002,-2.50012 -0.500025,-1.55008 -0.350017,-1.70009 -0.350017,-1.70009 v -0.30001 c 0,0 -0.100005,0.75003 -0.700035,1.15005 -0.600032,0.40002 -1.450075,1.05006 -2.000102,1.15006 -0.550029,0.10001 -2.100109,0.45003 -2.500127,0.45003 h -1.750092 c -0.200009,0 -0.700034,-0.10001 -0.700034,-0.10001 0,0 0.750038,0.15001 1.350068,-0.70004 0.60003,-0.85004 0.550029,-0.90004 0.550029,-0.90004 0,0 -0.750038,0.20001 -1.200063,0.20001 h -1.650081 c -0.300017,0 -2.200114,0.55003 -2.550131,0.65003 -0.350018,0.10001 -2.150107,0.50003 -2.550127,1.05005 -0.40003,0.55003 -1.65009,1.55008 -1.75009,1.8001 -0.10001,0.25001 -0.15001,0.35001 -0.45003,1.10005 -0.30001,0.75004 -0.25001,1.15006 -0.35002,1.45008 -0.1,0.30001 -0.25001,0.35002 -0.25001,0.35002 z"
       id="path37524"
       sodipodi:nodetypes="csccsssscssccscssssscsccccsssssscscsccsssscscssssssscc" /><path
       style="opacity:0.99;fill:#fde0a4;fill-opacity:0.992157;fill-rule:nonzero;stroke:none;stroke-width:0.108535;stroke-dasharray:none;stroke-opacity:1;paint-order:fill markers stroke"
       d="m -99.321539,45.497833 v 0.70618 c 0,0 -0.09175,0.83457 0.734045,0.96296 0.825802,0.1284 1.238702,0.321 1.238702,0.321 l 0.09175,-1.32307 c 0,0 -0.734043,-0.21768 -1.2387,-0.41027 -0.504657,-0.1926 -0.550533,-0.44939 -0.550533,-0.44939 z"
       id="path37526"
       sodipodi:nodetypes="ccsccscc" /><path
       style="opacity:0.99;fill:#48a4df;fill-opacity:1;fill-rule:nonzero;stroke:#0055d4;stroke-width:0.1;stroke-dasharray:none;stroke-opacity:1;paint-order:fill markers stroke"
       d="m -101.77604,50.669363 c -0.20001,-0.30002 -1.50008,-1.50008 -1.55008,-1.8501 -0.05,-0.35001 -0.10001,-0.2 0.60003,-0.65003 0.70003,-0.45002 1.35007,-0.80004 1.75009,-0.85004 0.40002,-0.05 1.000048,-0.10001 1.000048,-0.10001 l -1.000048,0.05 c 0,0 0.35001,-0.80003 0.80004,-1.00005 0.45002,-0.20001 0.800038,-0.45002 0.800038,-0.45002 0,0 0.300016,0.45002 0.600032,0.80004 0.300014,0.35002 0.450022,0.70004 0.950048,0.55003 0.500025,-0.15001 0.650033,-0.45002 0.650033,-0.45002 0,0 1.20006,4.40022 0.950048,6.30032 -0.250013,1.90009 0.300016,1.80009 0,1.90009 -0.300014,0.10001 -2.050103,0.05 -2.050103,0.05 0,0 -1.100058,-0.25001 -1.300067,-0.25001 H -100.926 c -0.25001,0 -0.50003,0.25001 -0.75004,0 -0.25001,-0.25002 -0.80004,-0.90005 -0.85004,-1.9501 -0.05,-1.05006 -0.05,-1.15006 0.45002,-1.55008 0.50003,-0.40002 0.70004,-0.40002 0.70004,-0.40002 0,0 0.44144,-0.11465 0.99147,-0.41467 0.550027,-0.30001 1.408649,-1.48543 1.408649,-1.48543 -0.548972,1.05529 -1.329719,1.69338 -2.350119,1.9001 z"
       id="path37528"
       sodipodi:nodetypes="csssccscsscsscssssscsccc" /><path
       style="opacity:0.99;fill:#444960;fill-opacity:1;fill-rule:nonzero;stroke:none;stroke-width:0.1;stroke-dasharray:none;stroke-opacity:1;paint-order:fill markers stroke"
       d="m -103.30112,54.894573 c 0,0 0.50002,2.67514 0.52503,2.95016 0.025,0.27501 0.1,1.90009 0.025,2.0251 -0.075,0.12501 -0.50003,0.82504 -0.57503,0.95005 -0.075,0.125 -0.90005,1.9501 -1.02505,2.0251 -0.12501,0.075 -0.72504,1.07506 -0.72504,1.07506 0,0 0.55002,0.15 0.72504,0.15 0.175,0 1.32506,-0.125 1.65008,-0.17501 0.32501,-0.05 0.70003,-0.05 0.95005,-0.05 0.25001,0 0.55002,0.45002 0.65003,0.45002 0.10001,0 0,-0.37501 0.025,-0.62503 0.025,-0.25001 -0.025,-0.35001 0.20001,-0.52503 0.22501,-0.175 0.45002,-0.15 0.60003,-0.75003 0.15001,-0.60003 0.300016,-1.37507 0.35002,-1.60009 0.05,-0.22501 0.150008,-0.70003 -0.025,-1.15005 -0.17501,-0.45003 -0.22501,-1.05006 -0.32502,-1.17506 -0.1,-0.12501 -0.35002,-2.10011 -0.60003,-2.45013 -0.25001,-0.35002 -0.97505,-1.37507 -0.97505,-1.37507 z"
       id="path37530" /><path
       style="opacity:0.99;fill:#23283b;fill-opacity:1;fill-rule:nonzero;stroke:none;stroke-width:0.1;stroke-dasharray:none;stroke-opacity:1;paint-order:fill markers stroke"
       d="m -98.650885,57.394703 c 0,0 0.850043,1.55008 0.975051,1.62509 0.125005,0.075 0.60003,1.07505 0.60003,1.07505 0,0 0.05,0.85004 -0.05,1.37507 -0.100007,0.52503 -0.300016,1.52508 -0.300016,1.77509 0,0.25001 -0.250013,0.67504 -0.150009,0.67504 0.100005,0 1.000051,0.075 1.600081,0.075 0.600033,0 0.625033,0.15 1.475076,0.025 0.850043,-0.12501 1.100056,-0.1 1.250064,-0.15001 0.150008,-0.05 -0.05,0 -0.175009,-0.40002 -0.125005,-0.40001 -0.05,-0.075 -0.200009,-0.67503 -0.150008,-0.60003 -0.325017,-1.07506 -0.300016,-1.57508 0.025,-0.50003 -0.400021,-2.0251 -0.750038,-2.22512 -0.350018,-0.2 -0.500026,-0.62503 -0.700035,-0.77503 -0.200012,-0.15001 -1.475076,-1.42508 -1.475076,-1.42508 l -0.750038,-0.125 c 0,0 -0.650034,0.52502 -0.750038,0.57503 -0.100005,0.05 -0.300017,0.15 -0.300018,0.15 z"
       id="path37532" /><path
       style="opacity:0.99;fill:#474e61;fill-opacity:1;fill-rule:nonzero;stroke:none;stroke-width:0.1;stroke-dasharray:none;stroke-opacity:1;paint-order:fill markers stroke"
       d="m -102.32607,54.444553 6.175313,0.42502 c 0,0 0.450024,0.65004 0.100004,1.05006 -0.350017,0.40002 -0.700034,0.80004 -0.950047,1.00005 -0.250013,0.20001 -0.725038,0.55003 -1.025051,0.60003 -0.300017,0.05 -0.625034,0.125 -1.025054,0.075 -0.400019,-0.05 -0.900044,0.025 -1.275065,-0.1 -0.37502,-0.12501 -0.82504,-0.075 -1.00005,-0.60003 -0.17501,-0.52503 -0.32502,-1.35007 -0.45002,-1.52508 -0.12501,-0.17501 -0.67504,-0.95005 -0.67504,-0.95005 z"
       id="path37534" /><path
       style="opacity:0.99;fill:#47a3e3;fill-opacity:1;fill-rule:nonzero;stroke:#0055d4;stroke-width:0.1;stroke-dasharray:none;stroke-opacity:1;paint-order:fill markers stroke"
       d="m -105.05121,63.995043 c 0,0 3.00015,-0.20001 3.27517,-0.075 0.27501,0.125 1.15005,0.60003 1.25006,0.82504 0.10001,0.22501 0.35002,0.75004 0.47502,0.87504 0.125011,0.12501 -0.55002,0.25001 -0.72503,0.20001 -0.17501,-0.05 -0.90005,-0.05 -1.35007,-0.05 -0.45002,0 -1.07506,-0.05 -1.8251,-0.075 -0.75003,-0.025 -1.17506,-0.025 -1.37506,-0.025 -0.20002,0 -0.70004,0.12501 -0.60003,0 0.1,-0.12501 0.25001,-0.97505 0.45002,-1.40007 0.20001,-0.42502 0.42502,-0.27501 0.42502,-0.27501 z"
       id="path37536" /><path
       style="opacity:0.99;fill:#47a3e3;fill-opacity:1;fill-rule:nonzero;stroke:#0055d4;stroke-width:0.1;stroke-dasharray:none;stroke-opacity:1;paint-order:fill markers stroke"
       d="m -97.166568,63.712183 c 0,0 3.000153,-0.20001 3.275169,-0.075 0.275013,0.125 1.150056,0.60003 1.250063,0.82504 0.100005,0.22501 0.350018,0.75004 0.475023,0.87504 0.125007,0.12501 -0.550027,0.25001 -0.725035,0.20001 -0.175012,-0.05 -0.900047,-0.05 -1.350071,-0.05 -0.450022,0 -1.075055,-0.05 -1.825093,-0.075 -0.750039,-0.025 -1.17506,-0.025 -1.375069,-0.025 -0.200012,0 -0.700037,0.12501 -0.60003,0 0.100004,-0.12501 0.250013,-0.97505 0.450022,-1.40007 0.200009,-0.42502 0.425021,-0.27501 0.425021,-0.27501 z"
       id="path37538" /><path
       style="opacity:0.99;fill:#e3dedb;fill-opacity:1;fill-rule:nonzero;stroke:none;stroke-width:0.1;stroke-dasharray:none;stroke-opacity:1;paint-order:fill markers stroke"
       d="m -97.99161,65.462273 c -0.125005,-0.025 -0.275013,0.27501 -0.275013,0.27501 0,0 0.05,0.40002 0.200009,0.45002 0.150008,0.05 0.175008,0.05 0.875046,0.12501 0.700034,0.075 1.300064,0.10001 1.825093,0.10001 0.525026,0 1.80009,-0.075 2.050103,-0.10001 0.250012,-0.025 0.850045,-0.05 1.075055,-0.15001 0.225012,-0.1 0.40002,-0.17501 0.40002,-0.35001 0,-0.17501 -0.125005,-0.45003 -0.250012,-0.45003 -0.125005,0 -5.900301,0.10001 -5.900301,0.10001 z"
       id="path37540" /><ellipse
       style="opacity:0.99;fill:#000000;fill-opacity:1;fill-rule:nonzero;stroke:#000000;stroke-width:0.1;stroke-dasharray:none;stroke-opacity:1;paint-order:fill markers stroke"
       id="ellipse37542"
       cx="-93.767143"
       cy="40.183392"
       rx="0.77785712"
       ry="1.3966072" /><ellipse
       style="opacity:0.99;fill:#000000;fill-opacity:1;fill-rule:nonzero;stroke:#000000;stroke-width:0.0792771;stroke-dasharray:none;stroke-opacity:1;paint-order:fill markers stroke"
       id="ellipse37544"
       cx="-88.857292"
       cy="40.094173"
       rx="0.56723642"
       ry="1.203665" /><ellipse
       style="opacity:0.99;fill:#ffffff;fill-opacity:1;fill-rule:nonzero;stroke:none;stroke-width:0.1;stroke-dasharray:none;stroke-opacity:1;paint-order:fill markers stroke"
       id="ellipse37546"
       cx="-93.722946"
       cy="39.723751"
       rx="0.53919643"
       ry="0.68946427" /><ellipse
       style="opacity:0.99;fill:#ffffff;fill-opacity:1;fill-rule:nonzero;stroke:none;stroke-width:0.0775845;stroke-dasharray:none;stroke-opacity:1;paint-order:fill markers stroke"
       id="ellipse37548"
       cx="-88.870186"
       cy="39.564632"
       rx="0.40013629"
       ry="0.55924344" /><path
       style="opacity:0.99;fill:#000000;fill-opacity:1;fill-rule:nonzero;stroke:#000000;stroke-width:0.1;stroke-dasharray:none;stroke-opacity:1;paint-order:fill markers stroke"
       d="m -95.941607,36.647673 c 0.335891,-0.28286 0.848572,-0.76018 1.11375,-0.7425 0.265179,0.0177 0.636429,0.053 0.919285,0.0884 0.282858,0.0354 0.689464,0.30054 0.830894,0.38893 0.141428,0.0884 0.371251,0.53036 0.548035,0.65411 0.176786,0.12375 0.335893,0.51268 0.37125,0.54804 0.03536,0.0354 0.159107,0.22982 0.141427,0.26517 -0.01767,0.0354 -0.318214,-0.22098 -0.459642,-0.25634 -0.141427,-0.0353 -0.609909,-0.30937 -0.715981,-0.41544 -0.106071,-0.10607 -0.07071,-0.22982 -0.291698,-0.32705 -0.220982,-0.0972 -0.822052,-0.18563 -0.892767,-0.20331 -0.07071,-0.0177 -0.353571,-0.0177 -0.574553,-0.0177 -0.220983,0 -0.742501,0.0354 -0.804376,0.053 -0.06187,0.0177 -0.247499,0.053 -0.247499,0.053 z"
       id="path37550" /><path
       style="opacity:0.99;fill:#000000;fill-opacity:1;fill-rule:nonzero;stroke:#000000;stroke-width:0.1;stroke-dasharray:none;stroke-opacity:1;paint-order:fill markers stroke"
       d="m -89.488927,38.008923 c 0.03536,-0.0884 0.194463,-0.53036 0.406606,-0.65411 0.212143,-0.12375 0.583393,-0.37125 0.671785,-0.4066 0.08839,-0.0354 0.282858,0 0.441965,0.0707 0.159107,0.0707 0.318215,0.12375 0.265179,0.21214 -0.05304,0.0884 -0.159107,0.0884 -0.406609,0.14143 -0.247499,0.053 -0.494999,0.14143 -0.583393,0.26518 -0.08839,0.12375 -0.335891,0.2475 -0.441963,0.40661 -0.106071,0.1591 -0.318214,0.2475 -0.318214,0.17678 0,-0.0707 -0.03536,-0.21214 -0.03536,-0.21214 z"
       id="path37552" /><path
       style="opacity:0.99;fill:none;fill-opacity:1;fill-rule:nonzero;stroke:#000000;stroke-width:0.1;stroke-dasharray:none;stroke-opacity:1;paint-order:fill markers stroke"
       d="m -90.350461,41.306383 c -0.01249,0.075 -0.025,0.27501 -0.01249,0.36252 0.01249,0.0875 0.08751,0.21251 0.237513,0.23751 0.150009,0.025 0.262512,0.075 0.350018,0.12501 0.08751,0.05 0.337518,0.25001 0.350017,0.36252 0.01252,0.1125 -0.075,0.38752 -0.112506,0.46252 -0.0375,0.075 0.0375,0.23751 -0.112504,0.23751 -0.150008,0 -0.387522,-0.0625 -0.462526,-0.0625 -0.075,0 -0.362516,-0.0375 -0.362516,-0.0375 l 0.137507,-0.0125 0.21251,0.0625"
       id="path37554" /><path
       style="opacity:0.99;fill:none;fill-opacity:1;fill-rule:nonzero;stroke:#000000;stroke-width:0.1;stroke-dasharray:none;stroke-opacity:1;paint-order:fill markers stroke"
       d="m -91.31301,44.844063 c -0.075,0.025 -1.100055,0.15001 -1.36257,0.075 -0.262514,-0.075 -0.800039,-0.33752 -0.862544,-0.42503 -0.0625,-0.0875 -0.437523,-0.28751 -0.500025,-0.41252 -0.0625,-0.125 -0.075,-0.37502 -0.075,-0.37502 0,0 -0.237512,0.31252 -0.287515,0.33752 -0.05,0.025 -0.175009,0.025 -0.175009,0.025"
       id="path37556" /><path
       style="opacity:0.99;fill:#fde0a4;fill-opacity:0.992157;fill-rule:nonzero;stroke:none;stroke-width:0.1;stroke-dasharray:none;stroke-opacity:1;paint-order:fill markers stroke"
       d="m -103.37613,48.944273 1.9001,2.0251 c 0,0 -0.97505,0.52503 -1.02505,0.62503 -0.05,0.10001 -0.075,1.12506 -0.025,1.25007 0.05,0.12501 0.30001,1.02505 0.42502,1.25006 0.12501,0.22501 0.40002,0.92505 0.40002,0.92505 0,0 -0.05,-0.37502 0.37502,-0.22501 0.42502,0.15001 0.47502,0.075 0.52503,0.17501 0.05,0.1 0.62503,0.70003 0.62503,0.70003 l 0.275012,0.85005 c 0,0 0.250013,0.27501 0.025,0.42502 -0.225012,0.15001 -0.275012,0.35002 -0.350022,0.22501 -0.075,-0.12501 -0.2,-0.57503 -0.2,-0.57503 l 0.22501,0.87505 0.275011,0.40002 c 0,0 0.150008,0.42502 -0.250011,0.55003 -0.40002,0.125 -0.77504,-0.05 -0.77504,-0.05 0,0 -0.075,0 -0.35002,0.20001 -0.27501,0.20001 -0.50003,0.52503 -0.67503,0.35002 -0.17501,-0.17501 -0.37502,-0.25001 -0.52503,-0.27502 -0.15001,-0.025 -0.35002,0.15001 -0.52503,0.15001 -0.17501,0 -0.50002,0.15001 -0.65003,-0.20001 -0.15001,-0.35002 -0.20001,-0.47502 -0.35002,-0.82504 -0.15001,-0.35002 -0.22501,-0.32502 -0.20001,-0.70004 0.025,-0.37501 0.12501,-0.67503 0.20001,-0.87504 0.075,-0.20001 0.10001,-0.25001 0.12501,-0.50002 0.025,-0.25002 -0.52503,-0.50003 -0.62504,-0.97505 -0.1,-0.47503 -0.25001,-0.77504 -0.40001,-1.12506 -0.15001,-0.35002 -0.30002,-0.55003 -0.32502,-0.97505 -0.025,-0.42502 -0.12501,-0.67504 0.025,-1.22506 0.15001,-0.55003 0.05,-0.45003 0.45002,-1.00006 0.40002,-0.55002 0.57503,-0.72503 0.80004,-0.90004 0.22502,-0.17501 0.60003,-0.55003 0.60003,-0.55003 z"
       id="path37558" /><path
       style="opacity:0.99;fill:#fde0a4;fill-opacity:0.992157;fill-rule:nonzero;stroke:none;stroke-width:0.1;stroke-dasharray:none;stroke-opacity:1;paint-order:fill markers stroke"
       d="m -95.875741,54.294543 c 0,0.10001 -0.175012,0.15001 -0.300017,0.52503 -0.125008,0.37502 -0.100004,0.55003 -0.125008,0.72504 -0.025,0.17501 -0.350017,0.72504 -0.350017,0.72504 0,0 -0.700035,0.37501 -0.275014,0.67503 0.425024,0.30001 0.625031,0.50002 0.750039,0.50002 0.125005,0 0.350017,-0.1 0.525026,-0.32501 0.175009,-0.22501 0.375021,-0.40002 0.525029,-0.72504 0.150005,-0.32502 0.375017,-0.92505 0.375017,-0.92505 0,0 -0.05,0.45003 0.175009,0.62504 0.225012,0.17501 0,0.27501 0.450025,0.15 0.450021,-0.125 0.800039,-0.67503 0.825042,-0.80004 0.025,-0.125 0.225009,-0.47502 0.225009,-0.72503 0,-0.25002 -0.150005,-0.50003 -0.375017,-0.62504 -0.225013,-0.125 -0.750038,-0.1 -1.000051,-0.075 -0.250013,0.025 -1.225063,0.10001 -1.225063,0.10001 z"
       id="path37560"
       sodipodi:nodetypes="csscsssscsssssscc" /><path
       style="opacity:0.99;fill:#fde0a4;fill-opacity:0.992157;fill-rule:nonzero;stroke:none;stroke-width:0.1;stroke-dasharray:none;stroke-opacity:1;paint-order:fill markers stroke"
       d="m -95.725736,57.219693 c 0,0 -0.150005,0.42502 -0.150005,0.57503 0,0.15001 0.375017,0.42502 0.62503,0.52503 0.250013,0.10001 0.825042,0.20001 1.100055,0.025 0.275016,-0.17501 0.475025,-0.55003 0.55003,-0.67503 0.075,-0.12501 0.100004,-0.17501 0.225012,-0.17501 0.125005,0 0.425021,-0.27502 0.425021,-0.42503 0,-0.15 0,-0.27501 0,-0.40002 0,-0.125 0.300014,-0.35001 0.300014,-0.35001 0,0 0.150008,-0.22501 0.150008,-0.50003 0,-0.27501 0.250013,-0.45002 -0.075,-0.50002 -0.325017,-0.05 -0.625031,-0.30002 -0.625031,-0.30002 0,0 -1.800092,-0.075 -1.975101,0.10001 -0.175009,0.175 -0.550029,2.1001 -0.550029,2.1001 z"
       id="path37562" /><g
       id="g132"><path
         style="opacity:0.99;fill:#e3dedb;fill-opacity:1;fill-rule:nonzero;stroke:none;stroke-width:0.0340083;stroke-dasharray:none;stroke-opacity:1;paint-order:fill markers stroke"
         d="m 4.9615748,13.794151 c -0.0072,-0.04274 -0.120718,-0.05405 -0.120718,-0.05405 0,0 -0.121047,0.06437 -0.118746,0.118102 0.0023,0.05373 0.0053,0.06166 0.06634,0.293196 0.06102,0.231529 0.12581,0.425215 0.189452,0.592041 0.06364,0.166826 0.242031,0.56288 0.280283,0.639291 0.03825,0.07641 0.118927,0.264039 0.177979,0.323413 0.05905,0.05938 0.104099,0.105889 0.159703,0.08468 0.05561,-0.0212 0.127842,-0.09428 0.112689,-0.133997 -0.01516,-0.03971 -0.746989,-1.862677 -0.746989,-1.862677 z"
         id="path54834" /><path
         style="opacity:0.99;fill:#fde0a4;fill-opacity:0.992157;fill-rule:nonzero;stroke:none;stroke-width:0.0340083;stroke-dasharray:none;stroke-opacity:1;paint-order:fill markers stroke"
         d="m 7.4852108,11.106705 0.78106,-0.252031 c 0,0 0.121765,0.378773 0.138681,0.412826 0.01694,0.03404 0.290124,0.250741 0.334312,0.262757 0.04418,0.01201 0.33976,0.128436 0.426455,0.140566 0.08669,0.01213 0.333085,0.0808 0.333085,0.0808 0,0 -0.112067,-0.06322 0.01569,-0.1479 0.127768,-0.08468 0.117631,-0.113626 0.15503,-0.106721 0.03738,0.0069 0.318061,-0.02637 0.318061,-0.02637 l 0.2871232,0.09939 c 0,0 0.125874,-0.01157 0.120502,0.08027 -0.0053,0.09181 0.03873,0.146342 -0.01057,0.141114 -0.04931,-0.0052 -0.197089,-0.06344 -0.197089,-0.06344 l 0.283676,0.118081 0.16493,0.0072 c 0,0 0.146122,0.04629 0.09816,0.180515 -0.04797,0.134213 -0.17228,0.200207 -0.17228,0.200207 0,0 -0.01535,0.02036 -0.01736,0.135997 -0.002,0.115629 0.04017,0.243278 -0.04318,0.254962 -0.08336,0.01167 -0.144683,0.05063 -0.182183,0.08625 -0.03754,0.0356 -0.03095,0.125753 -0.06677,0.173276 -0.03585,0.04752 -0.06166,0.166483 -0.187412,0.135545 -0.1257612,-0.03094 -0.1699372,-0.04296 -0.2956942,-0.0739 -0.125759,-0.03094 -0.134323,-0.0055 -0.231035,-0.08903 -0.0967,-0.08358 -0.157692,-0.172164 -0.196637,-0.233489 -0.03894,-0.06132 -0.04742,-0.07834 -0.11017,-0.136329 -0.06277,-0.05798 -0.243278,0.04017 -0.392738,-0.02994 -0.149471,-0.07009 -0.261648,-0.09079 -0.387406,-0.121727 -0.12576,-0.03094 -0.210783,-0.03116 -0.331305,-0.111407 -0.120501,-0.08027 -0.208892,-0.10428 -0.327518,-0.257643 -0.11863,-0.153355 -0.111959,-0.105723 -0.179394,-0.326972 -0.06743,-0.221243 -0.107852,-0.211289 -0.109295,-0.308219 -0.0014,-0.09694 -0.141809,-0.227334 -0.141809,-0.227334 z"
         id="path54864"
         sodipodi:nodetypes="ccccscscccsscccscscccssssssssssscc" /><g
         id="g61535"
         transform="translate(26.352946,-27.375864)"><g
           id="g54856"
           transform="matrix(0.33955888,0.01887181,-0.01887181,0.33955888,-21.601285,-5.6957402)"><path
             style="opacity:0.99;fill:#fde0a4;fill-opacity:0.992157;fill-rule:nonzero;stroke:none;stroke-width:0.108535;stroke-dasharray:none;stroke-opacity:1;paint-order:fill markers stroke"
             d="m 16.638755,122.38084 -0.14475,1.4137 c 0.07987,0.004 -0.396768,-0.44403 -0.505386,0.27431 -0.165982,1.0977 2.359148,1.91972 2.70084,1.00914 l 0.403254,-0.98411 c 0,0 -0.383365,-1.19434 -0.888022,-1.38693 -0.504657,-0.1926 -1.427277,-0.32704 -1.427277,-0.32704 z"
             id="path54838"
             sodipodi:nodetypes="ccsccscc" /><path
             style="opacity:0.99;fill:#fde0a4;fill-opacity:1;fill-rule:nonzero;stroke:none;stroke-width:0.1;stroke-dasharray:none;stroke-opacity:1;paint-order:fill markers stroke"
             d="m 14.37971,118.27171 c 0,0 -0.699298,-4.52665 -0.876085,-4.63272 -0.176787,-0.10607 2.442447,0.81208 2.725303,0.42315 0.282858,-0.38893 0.707144,-0.81322 0.813215,-1.27286 0.106072,-0.45964 0.212143,-1.09607 0.212143,-1.44964 0,-0.35358 -0.106071,-1.30822 -0.106071,-1.30822 v -0.14143 c 0,0 4.348927,0.21215 6.611783,1.41429 2.262857,1.20214 2.368929,1.27286 2.368929,1.27286 0,0 0.990002,-0.77786 1.060714,-0.91929 0.07072,-0.14143 0.459645,-0.35357 0.459645,-0.35357 l 0.459642,0.99 c 0,0 0.141428,4.31357 -0.03536,4.98536 -0.176787,0.67178 -0.106071,0.31821 -0.14143,0.495 -0.03536,0.17678 -0.141428,1.20214 -0.141428,1.52035 0,0.31822 0.07071,1.13143 0.03536,1.44965 -0.03536,0.31821 -0.565713,1.87393 -0.565713,1.87393 0,0 -1.025359,0.99 -1.272858,1.09607 -0.247499,0.10607 -1.485,0.63643 -1.661784,0.70714 -0.176787,0.0707 -0.707144,0.14143 -0.883931,0.14143 H 21.78 c -0.353571,0 -1.308214,-0.14143 -1.626428,-0.21214 -0.318215,-0.0707 -1.096071,-0.2475 -1.555716,-0.31822 -0.459642,-0.0707 -1.272857,-0.38893 -1.626428,-0.56571 -0.353571,-0.17679 -1.025356,-0.45965 -1.166786,-0.53036 -0.141428,-0.0707 -0.777857,-0.67178 -0.99,-0.77786 -0.212142,-0.10607 -0.707143,-0.495 -0.813215,-0.63642 -0.106071,-0.14143 -0.494998,-0.49501 -0.494998,-0.49501 v -0.45964 c 0,0 -0.459642,0.495 -0.99,0.21215 -0.530357,-0.28286 -1.308216,-0.35358 -1.591072,-0.70715 -0.282858,-0.35357 -0.601072,-1.13143 -0.601072,-1.27286 0,-0.14142 -0.03536,-0.42428 0,-0.70714 0.03536,-0.28286 0.141428,-0.7425 0.141428,-0.7425 0,0 0.212143,-0.35357 0.636428,-0.60107 0.424286,-0.2475 0.565717,-0.38893 0.77786,-0.42429 0.212143,-0.0354 0.848571,0.0354 0.848571,0.0354 0,0 0.494999,0.17679 0.60107,0.35357 0.106072,0.17679 0.318214,0.45965 0.424286,0.60107 0.106071,0.14143 0.353571,0.45965 0.424286,0.60108 0.07071,0.14142 0.201496,0.35564 0.201496,0.35564 z"
             id="path54836"
             sodipodi:nodetypes="cssssccsccccsssccscsscccccccccssscsccscscc" /><ellipse
             style="opacity:0.99;fill:#000000;fill-opacity:1;fill-rule:nonzero;stroke:#000000;stroke-width:0.1;stroke-dasharray:none;stroke-opacity:1;paint-order:fill markers stroke"
             id="ellipse54840"
             cx="21.638571"
             cy="117.68625"
             rx="0.77785712"
             ry="1.3966072" /><ellipse
             style="opacity:0.99;fill:#000000;fill-opacity:1;fill-rule:nonzero;stroke:#000000;stroke-width:0.0792771;stroke-dasharray:none;stroke-opacity:1;paint-order:fill markers stroke"
             id="ellipse54842"
             cx="26.548426"
             cy="117.59703"
             rx="0.56723642"
             ry="1.203665" /><ellipse
             style="opacity:0.99;fill:#ffffff;fill-opacity:1;fill-rule:nonzero;stroke:none;stroke-width:0.1;stroke-dasharray:none;stroke-opacity:1;paint-order:fill markers stroke"
             id="ellipse54844"
             cx="21.682768"
             cy="117.22661"
             rx="0.53919643"
             ry="0.68946427" /><ellipse
             style="opacity:0.99;fill:#ffffff;fill-opacity:1;fill-rule:nonzero;stroke:none;stroke-width:0.0775845;stroke-dasharray:none;stroke-opacity:1;paint-order:fill markers stroke"
             id="ellipse54846"
             cx="26.535532"
             cy="117.06749"
             rx="0.40013629"
             ry="0.55924344" /><path
             style="opacity:0.99;fill:#000000;fill-opacity:1;fill-rule:nonzero;stroke:#000000;stroke-width:0.1;stroke-dasharray:none;stroke-opacity:1;paint-order:fill markers stroke"
             d="m 19.464107,114.15053 c 1.465008,-1.34458 2.848614,-0.54065 3.783214,0.93698 0.03536,0.0354 0.159107,0.22982 0.141427,0.26517 -1.287499,-0.89577 -2.112487,-1.28858 -3.739017,-1.16684 -0.06187,0.0177 -0.247499,0.053 -0.247499,0.053 z"
             id="path54848"
             sodipodi:nodetypes="cccccc" /><path
             style="opacity:0.99;fill:#000000;fill-opacity:1;fill-rule:nonzero;stroke:#000000;stroke-width:0.1;stroke-dasharray:none;stroke-opacity:1;paint-order:fill markers stroke"
             d="m 25.916787,115.51178 c 0.387957,-0.98744 1.121092,-1.13038 1.785535,-0.77787 -0.648983,0.11123 -1.290987,0.67951 -1.750179,0.99 0,-0.0707 -0.03536,-0.21214 -0.03536,-0.21214 z"
             id="path54850"
             sodipodi:nodetypes="ccccc" /><path
             style="opacity:0.99;fill:none;fill-opacity:1;fill-rule:nonzero;stroke:#000000;stroke-width:0.1;stroke-dasharray:none;stroke-opacity:1;paint-order:fill markers stroke"
             d="m 25.055253,118.80924 c -0.01249,0.075 -0.025,0.27501 -0.01249,0.36252 0.01249,0.0875 0.08751,0.21251 0.237513,0.23751 0.150009,0.025 0.262512,0.075 0.350018,0.12501 0.08751,0.05 0.337518,0.25001 0.350017,0.36252 0.01252,0.1125 -0.075,0.38752 -0.112506,0.46252 -0.0375,0.075 0.0375,0.23751 -0.112504,0.23751 -0.150008,0 -0.387522,-0.0625 -0.462526,-0.0625 -0.075,0 -0.362516,-0.0375 -0.362516,-0.0375 l 0.137507,-0.0125 0.21251,0.0625"
             id="path54852" /><path
             style="opacity:0.99;fill:none;fill-opacity:1;fill-rule:nonzero;stroke:#000000;stroke-width:0.1;stroke-dasharray:none;stroke-opacity:1;paint-order:fill markers stroke"
             d="m 24.092704,122.34692 c -0.075,0.025 -1.100055,0.15001 -1.36257,0.075 -0.262514,-0.075 -0.800039,-0.33752 -0.862544,-0.42503 -0.0625,-0.0875 -0.437523,-0.28751 -0.500025,-0.41252 -0.0625,-0.125 -0.075,-0.37502 -0.075,-0.37502 0,0 -0.237512,0.31252 -0.287515,0.33752 -0.05,0.025 -0.175009,0.025 -0.175009,0.025"
             id="path54854" /></g><path
           style="opacity:0.99;fill:#ff2a2a;fill-opacity:0.962825;fill-rule:nonzero;stroke:#000000;stroke-width:0.034;stroke-dasharray:none;stroke-opacity:1;paint-order:fill markers stroke"
           d="m -16.678011,35.917633 c 0,0 0.282857,0.998841 0.601072,0.91045 0.318213,-0.08839 0.380091,-0.185627 0.380091,-0.185627 l 0.106071,-0.212141 0.07072,-0.11491 c 0.03064,-0.03064 -1.035756,-0.267241 -1.104371,-0.340536 z"
           id="path54872"
           sodipodi:nodetypes="cscccsc" /><path
           style="opacity:0.99;fill:#ffffff;fill-opacity:0.962825;fill-rule:nonzero;stroke:none;stroke-width:0.034;stroke-dasharray:none;stroke-opacity:1;paint-order:fill markers stroke"
           d="m -16.644863,35.983929 0.09281,0.269601 c 0,0 0.643059,0.274015 0.802167,0.220979 0.159107,-0.05304 0.150269,-0.05303 0.150269,-0.05303 -0.0055,0.0027 0.05399,-0.0439 0.05723,-0.102409 10e-4,-0.0184 -1.098488,-0.336467 -1.10248,-0.335138 z"
           id="path54874"
           sodipodi:nodetypes="ccscsc" /></g><path
         style="opacity:0.99;fill:#ff6600;fill-opacity:0.992157;fill-rule:nonzero;stroke:none;stroke-width:0.0372524;stroke-dasharray:none;stroke-opacity:1;paint-order:fill markers stroke"
         d="m 6.3697168,4.4355134 c 0.07845,0.03731 -0.982662,0.488742 -0.996246,1.824244 -0.01165,1.144973 0.517612,1.184547 0.516572,1.184824 l 0.218103,0.134789 c 0,0 0.04018,-0.529722 0.132428,-0.567339 0.09225,-0.03761 0.221387,-0.112837 0.332082,-0.09402 0.110696,0.0188 0.442777,0.131647 0.479674,0.225678 0.0369,0.09404 0.184491,0.244487 0.239838,0.319719 0.05535,0.07523 0.129142,0.112837 0.129142,0.112837 0,0 0.09225,-0.338518 0.147593,-0.507781 0.05534,-0.169259 0.07379,-0.244488 0.05534,-0.39494 -0.01844,-0.150454 -0.05534,-0.338521 -0.05534,-0.338521 l -0.09225,-0.244489 c 0.352456,0.267626 1.464363,0.298003 1.189367,-0.926316 -0.114851,-0.511333 -0.118509,-0.483558 -0.118509,-0.483558 0,0 -0.01538,0.0292 0.279803,0.08564 0.295184,0.05643 0.739167,0.162848 0.942107,0.238072 0.202938,0.07523 0.4915702,0.09426 0.6391622,0.150677 0.147592,0.05642 0.435016,0.188066 0.527261,0.263295 0.09225,0.07523 0.380938,0.321961 0.473183,0.37838 0.09225,0.05642 0.357241,0.08855 0.357241,0.08855 0,0 0.229027,-0.407644 0.321271,-0.464067 0.09225,-0.05642 0.04809,0.01779 0.04809,0.01779 l -0.0096,0.02821 0.07904,0.09217 -0.07546,0.477891 c 0,0 0.602256,-0.438951 0.694501,-0.608213 0.09225,-0.169259 0.220471,-0.427744 0.312716,-0.615809 0.09225,-0.188069 0.0038,-0.486489 0.0038,-0.655749 -10e-4,-0.349185 -0.05625,-0.889081 -0.06118,-1.068817 -0.21984,0.434144 -0.112132,0.212735 -0.286593,0.691487 0,0 0.08273,-0.581925 -0.101752,-1.164931 -0.198916,-0.507992 0.462277,-0.391274 -0.01534,-0.393113 -0.997895,0.81892 -1.25133,0.529722 -2.260086,0.815648 -0.0713,0.02021 -0.346511,-0.137302 -0.346511,-0.137302 0,0 0.200763,0.118111 0.422151,-0.201606 0.221388,-0.319712 0.244404,-0.4415 0.244404,-0.4415 -1.8721032,0.405292 -3.2009882,-0.005 -3.9457342,1.961914 -0.110694,0.282099 -0.11033,0.02936 -0.147229,0.14222 -0.0369,0.11284 -0.182665,0.208445 -0.182665,0.208445 z"
         id="path54824"
         sodipodi:nodetypes="csccsssscssccscssssscsccccsscccccccsccscc" /><path
         style="opacity:0.99;fill:#24283c;fill-opacity:0.956863;fill-rule:nonzero;stroke:none;stroke-width:0.034;stroke-dasharray:none;stroke-opacity:1;paint-order:fill markers stroke"
         d="m 8.1615098,12.989857 c -0.03536,0.0442 -0.07071,0.530357 -0.106072,0.609911 -0.03536,0.07955 -0.318214,0.61875 -0.353571,0.654107 -0.03536,0.03536 -0.37125,0.256339 -0.486161,0.327054 -0.11491,0.07071 -0.36241,0.265178 -0.441964,0.309375 -0.07955,0.0442 -0.327054,0.106071 -0.388929,0.05303 -0.06188,-0.05303 -0.167946,-0.11491 -0.150268,-0.220982 0.01768,-0.106071 0.477322,-0.503838 0.671786,-0.760178 0.194465,-0.25634 0.530358,-0.883929 0.530358,-0.883929 z"
         id="path78694" /><path
         style="opacity:0.99;fill:#0088aa;fill-opacity:1;fill-rule:nonzero;stroke:none;stroke-width:0.034;stroke-dasharray:none;stroke-opacity:1;paint-order:fill markers stroke"
         d="m 6.0192738,14.88432 -0.120621,0.713126 c 0,0 0.450803,0.114911 0.503839,0.09723 0.05304,-0.01768 0.441964,-0.0088 0.441964,-0.0088 0,0 0.114911,-0.327054 -0.12375,-0.486161 -0.23866,-0.159144 -0.483876,-0.400363 -0.483876,-0.400363 z"
         id="path82553"
         sodipodi:nodetypes="ccscccc" /><path
         style="opacity:0.99;fill:#e2ddda;fill-opacity:1;fill-rule:nonzero;stroke:none;stroke-width:0.034;stroke-dasharray:none;stroke-opacity:1;paint-order:fill markers stroke"
         d="m 5.8898128,15.535571 -0.03536,0.212143 c 0,0 0.08839,0.07955 0.159107,0.106072 0.07071,0.02652 0.362411,0.03536 0.441965,0.03536 0.07955,0 0.353571,-0.0088 0.353571,-0.0088 h 0.06188 l -0.02652,-0.203303 c 0,0 -0.291696,0.01768 -0.335893,0.01768 -0.0442,0 -0.132589,0.02652 -0.229821,0 -0.09723,-0.02652 -0.229821,-0.07071 -0.282857,-0.08839 -0.05304,-0.01768 -0.106072,-0.07071 -0.106072,-0.07071 z"
         id="path83148" /><path
         style="opacity:0.99;fill:#434860;fill-opacity:1;fill-rule:nonzero;stroke:none;stroke-width:0.0397993;stroke-dasharray:none;stroke-opacity:1;paint-order:fill markers stroke"
         d="m 6.3651768,11.402372 c 0.791018,0.580751 1.412432,0.794618 2.2362,0.818639 0,0 0.332609,0.08834 0.169079,0.224697 -0.163525,0.136358 -0.293627,0.439463 -0.406556,0.504564 -0.112931,0.06509 -0.573043,0.238707 -0.699964,0.245246 -0.12692,0.0065 -0.226875,-0.03144 -0.390836,-0.06673 -0.163953,-0.03524 -0.298507,-0.06525 -0.448679,-0.12772 -0.150171,-0.06247 -0.762984,-0.222241 -0.811959,-0.427221 -0.049,-0.204978 -0.03142,-0.376474 -0.07546,-0.447533 -0.04403,-0.07106 0.118668,-0.876106 0.118668,-0.876106 z"
         id="path54826"
         sodipodi:nodetypes="ccscsscsccc" /><path
         style="opacity:0.99;fill:#46a5e4;fill-opacity:1;fill-rule:nonzero;stroke:#0066ff;stroke-width:0.034;stroke-dasharray:none;stroke-opacity:1;paint-order:fill markers stroke"
         d="m 8.0356798,9.0699294 c 0,0 -1.840767,1.8035696 -1.922656,2.0296496 -0.08189,0.226081 0.65052,0.810708 0.911049,0.911991 0.260529,0.101279 0.472414,0.111674 0.737275,0.124668 0.264859,0.01299 0.643793,0.226284 0.854815,0.254337 0.211022,0.02805 0.263994,0.03065 0.263994,0.03065 0,0 0.04224,-0.691625 0.04543,-1.115899 l 0.0081,-1.058551 c 0.0031,-0.4065946 -0.0066,-0.6368536 -0.07458,-0.6932906 -0.06804,-0.05644 -0.02821,0.263453 -0.198708,0.131186 -0.170512,-0.132265 -0.192501,-0.044847 -0.310038,-0.174507 -0.117538,-0.129665 -0.314699,-0.440237 -0.314699,-0.440237 z"
         id="path54858"
         sodipodi:nodetypes="csssscssssscc" /><path
         style="opacity:0.99;fill:#46a4e4;fill-opacity:0.984314;fill-rule:nonzero;stroke:none;stroke-width:0.0340083;stroke-dasharray:none;stroke-opacity:1;paint-order:fill markers stroke"
         d="m 5.6176688,13.844167 c 0,0 0.427219,0.929043 0.420833,1.031583 -0.0063,0.102539 -0.05125,0.438163 -0.110631,0.49721 -0.05937,0.05906 -0.195898,0.202133 -0.220458,0.257009 -0.02457,0.05487 -0.146114,-0.144464 -0.151436,-0.206136 -0.0053,-0.06168 -0.09321,-0.292048 -0.147763,-0.435042 -0.05455,-0.142989 -0.114427,-0.347656 -0.1974,-0.589011 -0.08297,-0.241352 -0.134492,-0.376401 -0.158736,-0.439954 -0.02425,-0.06355 -0.124578,-0.207279 -0.07273,-0.190658 0.05184,0.01663 0.340126,-0.03875 0.499419,-0.02671 0.159277,0.01219 0.138913,0.101703 0.138913,0.101703 z"
         id="path54832" /><path
         style="opacity:0.99;fill:#43485f;fill-opacity:0.976471;fill-rule:nonzero;stroke:none;stroke-width:0.034;stroke-dasharray:none;stroke-opacity:1;paint-order:fill markers stroke"
         d="m 6.4287798,13.169742 c 0,0.100005 0,0.337518 0,0.337518 0,0 -0.362518,0.225011 -0.612531,0.225011 -0.250013,0 -0.337517,0 -0.337517,0 0,0 0.0875,0.262513 0.150008,0.350018 0.0625,0.0875 0.287514,0.762539 0.325016,0.812541 0.0375,0.05 0,0.162509 0.20001,0.025 0.200011,-0.137507 0.487525,-0.262513 0.625032,-0.375019 0.137507,-0.112506 0.250013,-0.262514 0.350018,-0.437523 0.100005,-0.175008 0.150008,-0.175008 0.162508,-0.387519 0.0125,-0.212511 0.05,-0.325017 -0.0375,-0.462524 -0.0875,-0.137507 -0.112505,-0.262513 -0.187509,-0.287515 -0.075,-0.025 -0.637533,0.20001 -0.637533,0.20001 z"
         id="path77725" /><path
         style="opacity:0.99;fill:#fde0a4;fill-opacity:0.992157;fill-rule:nonzero;stroke:none;stroke-width:0.0340083;stroke-dasharray:none;stroke-opacity:1;paint-order:fill markers stroke"
         d="m 6.6883128,10.004132 0.551118,0.608146 c 0,0 -0.295107,0.266848 -0.319183,0.296278 -0.02403,0.02945 -0.109133,0.367606 -0.101906,0.412822 0.0072,0.04522 0.02276,0.362509 0.04738,0.446516 0.02461,0.084 0.06343,0.336829 0.06343,0.336829 0,0 0.0115,-0.128157 0.141255,-0.04656 0.129757,0.0816 0.151962,0.06047 0.161062,0.09738 0.0091,0.03691 0.154923,0.279028 0.154923,0.279028 l 0.02757,0.302586 c 0,0 0.06235,0.109955 -0.02357,0.142859 -0.08587,0.03296 -0.117436,0.09553 -0.132954,0.04846 -0.01553,-0.0471 -0.02328,-0.205734 -0.02328,-0.205734 l 0.0091,0.307134 0.06128,0.153294 c 0,0 0.01794,0.152233 -0.124129,0.163747 -0.142067,0.01145 -0.253365,-0.07463 -0.253365,-0.07463 0,0 -0.02486,-0.0057 -0.131097,0.04014 -0.106191,0.0458 -0.205193,0.136726 -0.250147,0.06555 -0.04494,-0.07117 -0.105677,-0.111037 -0.153578,-0.130552 -0.0479,-0.01956 -0.127353,0.02355 -0.185399,0.01045 -0.05806,-0.01311 -0.177105,0.01233 -0.200654,-0.115044 -0.02355,-0.12735 -0.03077,-0.172559 -0.05433,-0.299906 -0.02356,-0.127359 -0.05029,-0.124677 -0.01393,-0.247206 0.03638,-0.122533 0.09205,-0.214555 0.131928,-0.27528 0.0399,-0.06071 0.05191,-0.07544 0.07891,-0.156514 0.02702,-0.08106 -0.136727,-0.205194 -0.134322,-0.370267 0.0024,-0.165075 -0.02489,-0.27583 -0.04844,-0.403179 -0.02357,-0.12734 -0.05834,-0.204923 -0.0348,-0.347789 0.02356,-0.14286 0.0091,-0.233298 0.100031,-0.404523 0.091,-0.171216 0.05026,-0.145571 0.224155,-0.298079 0.17389,-0.152506 0.148188,-0.185245 0.235933,-0.226452 0.08776,-0.04121 0.148836,-0.2227956 0.148836,-0.2227956 z"
         id="path61541"
         sodipodi:nodetypes="ccccscscccsscccscscccssssssssssscc" /><path
         style="opacity:0.99;fill:#45a3e1;fill-opacity:1;fill-rule:nonzero;stroke:#0066ff;stroke-width:0.034;stroke-dasharray:none;stroke-opacity:1;paint-order:fill markers stroke"
         d="m 7.5538378,9.5945594 c -0.175009,-0.025 -0.800041,0.100005 -0.950049,0.275014 -0.150007,0.1750086 0.05,0.4750236 0.05,0.4750236 0,0 0.275014,0.57503 0.475024,0.57503 0.200011,0 0.550029,-0.450024 0.550029,-0.450024 l 0.275016,-0.312514 C 7.8557148,9.9285914 7.7361238,9.7541434 7.5538378,9.5945594 Z"
         id="path75116"
         sodipodi:nodetypes="cscsccc" /></g></g></svg>
