<?xml version="1.0" encoding="UTF-8" standalone="no"?>
<!-- Created with Inkscape (http://www.inkscape.org/) -->

<svg
   width="50"
   height="70"
   viewBox="0 0 13.229166 18.520833"
   version="1.1"
   id="svg18473"
   xml:space="preserve"
   inkscape:version="1.2.2 (732a01da63, 2022-12-09)"
   sodipodi:docname="oshosi_ataque1.svg"
   xmlns:inkscape="http://www.inkscape.org/namespaces/inkscape"
   xmlns:sodipodi="http://sodipodi.sourceforge.net/DTD/sodipodi-0.dtd"
   xmlns="http://www.w3.org/2000/svg"
   xmlns:svg="http://www.w3.org/2000/svg"><sodipodi:namedview
     id="namedview18475"
     pagecolor="#ffffff"
     bordercolor="#000000"
     borderopacity="0.25"
     inkscape:showpageshadow="2"
     inkscape:pageopacity="0.0"
     inkscape:pagecheckerboard="0"
     inkscape:deskcolor="#d1d1d1"
     inkscape:document-units="mm"
     showgrid="true"
     inkscape:zoom="16"
     inkscape:cx="15.9375"
     inkscape:cy="31.6875"
     inkscape:window-width="1366"
     inkscape:window-height="705"
     inkscape:window-x="-8"
     inkscape:window-y="-8"
     inkscape:window-maximized="1"
     inkscape:current-layer="g32875"
     showguides="true"><inkscape:grid
       type="xygrid"
       id="grid36773"
       originx="0"
       originy="0" /><sodipodi:guide
       position="0.91928567,17.177262"
       orientation="0,-1"
       id="guide2266"
       inkscape:locked="false" /></sodipodi:namedview><defs
     id="defs18470" /><g
     inkscape:label="Capa 1"
     inkscape:groupmode="layer"
     id="layer1"><g
       id="g32875"
       transform="matrix(0.35404553,0,0,0.35404553,0.19039912,-34.874894)"><path
         style="opacity:0.99;fill:#fde0a4;fill-opacity:0.992157;fill-rule:nonzero;stroke:none;stroke-width:0.108535;stroke-dasharray:none;stroke-opacity:1;paint-order:fill markers stroke"
         d="m 16.084175,123.00069 v 0.70618 c 0,0 -0.09175,0.83457 0.734045,0.96296 0.825802,0.1284 1.238702,0.321 1.238702,0.321 l 0.09175,-1.32307 c 0,0 -0.734043,-0.21768 -1.2387,-0.41027 -0.504657,-0.1926 -0.550533,-0.44939 -0.550533,-0.44939 z"
         id="path20220"
         sodipodi:nodetypes="ccsccscc" /><path
         style="opacity:0.99;fill:#444960;fill-opacity:1;fill-rule:nonzero;stroke:none;stroke-width:0.1;stroke-dasharray:none;stroke-opacity:1;paint-order:fill markers stroke"
         d="m 12.528288,132.2562 c 0,0 0.07633,2.81637 0.101333,3.09139 0.025,0.27501 -0.147152,1.86478 -0.222156,1.98979 -0.075,0.12501 -0.25287,0.86035 -0.327874,0.98536 -0.075,0.125 -0.900046,1.9501 -1.025051,2.0251 -0.125008,0.075 -0.725038,1.07506 -0.725038,1.07506 0,0 0.550027,0.15 0.725038,0.15 0.175009,0 1.325068,-0.125 1.650082,-0.17501 0.325017,-0.05 0.700037,-0.05 0.95005,-0.05 0.250012,0 0.550026,0.45002 0.650033,0.45002 0.100005,0 0,-0.37501 0.025,-0.62503 0.025,-0.25001 -0.025,-0.35001 0.200009,-0.52503 0.225012,-0.175 0.308792,-0.22062 0.4588,-0.82065 0.150006,-0.60003 0.229398,-1.23384 0.279402,-1.45886 0.05,-0.22501 0.150008,-0.75299 -0.025,-1.20301 -0.175011,-0.45003 -0.17205,-1.10302 -0.272054,-1.22802 -0.100008,-0.12501 -0.191134,-2.0648 -0.441147,-2.41482 -0.250013,-0.35002 -0.975048,-1.37507 -0.975048,-1.37507 z"
         id="path20232"
         sodipodi:nodetypes="csssscscssscssssscc" /><path
         style="opacity:0.99;fill:#23283b;fill-opacity:1;fill-rule:nonzero;stroke:none;stroke-width:0.1;stroke-dasharray:none;stroke-opacity:1;paint-order:fill markers stroke"
         d="m 16.754829,134.89756 c 0,0 0.850043,1.55008 0.975051,1.62509 0.125005,0.075 0.60003,1.07505 0.60003,1.07505 0,0 0.05,0.85004 -0.05,1.37507 -0.100007,0.52503 -0.300016,1.52508 -0.300016,1.77509 0,0.25001 -0.250013,0.67504 -0.150009,0.67504 0.100005,0 1.000051,0.075 1.600081,0.075 0.600033,0 0.625033,0.15 1.475076,0.025 0.850043,-0.12501 1.100056,-0.1 1.250064,-0.15001 0.150008,-0.05 -0.05,0 -0.175009,-0.40002 -0.125005,-0.40001 -0.13827,-0.075 -0.288279,-0.67503 -0.150008,-0.60003 -0.342671,-1.00444 -0.31767,-1.50446 0.025,-0.50003 -0.435329,-2.00745 -0.785346,-2.20747 -0.350018,-0.2 -0.358794,-0.7133 -0.558803,-0.8633 -0.200012,-0.15001 -1.475076,-1.42508 -1.475076,-1.42508 l -0.750038,-0.125 c 0,0 -0.650034,0.52502 -0.750038,0.57503 l -0.300017,0.15 z"
         id="path20234"
         sodipodi:nodetypes="cscsssscsssscsccccc" /><path
         style="opacity:0.99;fill:#474e61;fill-opacity:1;fill-rule:nonzero;stroke:none;stroke-width:0.1;stroke-dasharray:none;stroke-opacity:1;paint-order:fill markers stroke"
         d="m 13.079643,131.94741 6.175314,0.42502 c 0,0 0.450024,0.65004 0.100004,1.05006 -0.350017,0.40002 -0.700034,0.80004 -0.950047,1.00005 -0.250013,0.20001 -0.725038,0.55003 -1.025051,0.60003 -0.300017,0.05 -0.625034,0.125 -1.025054,0.075 -0.400019,-0.05 -0.900044,0.025 -1.275065,-0.1 -0.375017,-0.12501 -0.825042,-0.075 -1.000051,-0.60003 -0.175008,-0.52503 -0.325016,-1.35007 -0.450021,-1.52508 -0.125008,-0.17501 -0.675037,-0.95005 -0.675037,-0.95005 z"
         id="path20230" /><path
         style="opacity:0.99;fill:#552200;fill-opacity:1;fill-rule:nonzero;stroke:#2b1100;stroke-width:0.1;stroke-dasharray:none;stroke-opacity:1;paint-order:fill markers stroke"
         d="m 10.354503,141.4979 c 0,0 3.000153,-0.20001 3.275169,-0.075 0.275013,0.125 1.150056,0.60003 1.250063,0.82504 0.100005,0.22501 0.350018,0.75004 0.475023,0.87504 0.125007,0.12501 -0.550027,0.25001 -0.725035,0.20001 -0.175012,-0.05 -0.900047,-0.05 -1.350071,-0.05 -0.450022,0 -1.075055,-0.05 -1.825093,-0.075 -0.750039,-0.025 -1.17506,-0.025 -1.375069,-0.025 -0.2000122,0 -0.7000372,0.12501 -0.6000302,0 0.100004,-0.12501 0.250013,-0.97505 0.450022,-1.40007 0.2000092,-0.42502 0.4250212,-0.27501 0.4250212,-0.27501 z"
         id="path20236" /><path
         style="opacity:0.99;fill:#e3dedb;fill-opacity:1;fill-rule:nonzero;stroke:none;stroke-width:0.1;stroke-dasharray:none;stroke-opacity:1;paint-order:fill markers stroke"
         d="m 9.5294608,143.24799 c -0.125005,-0.025 -0.275013,0.27501 -0.275013,0.27501 0,0 0.05,0.40002 0.200009,0.45002 0.150008,0.05 0.175008,0.05 0.8750462,0.12501 0.700034,0.075 1.300064,0.10001 1.825093,0.10001 0.525026,0 1.80009,-0.075 2.050103,-0.10001 0.250012,-0.025 0.850045,-0.05 1.075055,-0.15001 0.225012,-0.1 0.40002,-0.17501 0.40002,-0.35001 0,-0.17501 -0.125005,-0.45003 -0.250012,-0.45003 -0.125005,0 -5.9003012,0.10001 -5.9003012,0.10001 z"
         id="path20238" /><path
         style="opacity:0.99;fill:#2b1100;fill-opacity:1;fill-rule:nonzero;stroke:#2b1100;stroke-width:0.1;stroke-dasharray:none;stroke-opacity:1;paint-order:fill markers stroke"
         d="m 18.239146,141.21504 c 0,0 3.000153,-0.20001 3.275169,-0.075 0.275013,0.125 1.150056,0.60003 1.250063,0.82504 0.100005,0.22501 0.350018,0.75004 0.475023,0.87504 0.125007,0.12501 -0.550027,0.25001 -0.725035,0.20001 -0.175012,-0.05 -0.900047,-0.05 -1.350071,-0.05 -0.450022,0 -1.075055,-0.05 -1.825093,-0.075 -0.750039,-0.025 -1.17506,-0.025 -1.375069,-0.025 -0.200012,0 -0.700037,0.12501 -0.60003,0 0.100004,-0.12501 0.250013,-0.97505 0.450022,-1.40007 0.200009,-0.42502 0.425021,-0.27501 0.425021,-0.27501 z"
         id="path20240" /><path
         style="opacity:0.99;fill:#e3dedb;fill-opacity:1;fill-rule:nonzero;stroke:none;stroke-width:0.1;stroke-dasharray:none;stroke-opacity:1;paint-order:fill markers stroke"
         d="m 17.414104,142.96513 c -0.125005,-0.025 -0.275013,0.27501 -0.275013,0.27501 0,0 0.05,0.40002 0.200009,0.45002 0.150008,0.05 0.175008,0.05 0.875046,0.12501 0.700034,0.075 1.300064,0.10001 1.825093,0.10001 0.525026,0 1.80009,-0.075 2.050103,-0.10001 0.250012,-0.025 0.850045,-0.05 1.075055,-0.15001 0.225012,-0.1 0.40002,-0.17501 0.40002,-0.35001 0,-0.17501 -0.125005,-0.45003 -0.250012,-0.45003 -0.125005,0 -5.900301,0.10001 -5.900301,0.10001 z"
         id="path20242" /><path
         style="opacity:0.99;fill:#a05a2c;fill-opacity:0.97647059;fill-rule:nonzero;stroke:none;stroke-width:0.1;stroke-dasharray:none;stroke-opacity:1;paint-order:fill markers stroke"
         d="m 19.529973,131.7974 c 0,0.10001 -0.175012,0.15001 -0.300017,0.52503 -0.125008,0.37502 -0.100004,0.55003 -0.125008,0.72504 -0.025,0.17501 -0.350017,0.72504 -0.350017,0.72504 0,0 -0.700035,0.37501 -0.275014,0.67503 0.425024,0.30001 0.625031,0.50002 0.750039,0.50002 0.125005,0 0.350017,-0.1 0.525026,-0.32501 0.175009,-0.22501 0.375021,-0.40002 0.525029,-0.72504 0.150005,-0.32502 0.375017,-0.92505 0.375017,-0.92505 0,0 -0.05,0.45003 0.175009,0.62504 0.225012,0.17501 0,0.27501 0.450025,0.15 0.450021,-0.125 0.800039,-0.67503 0.825042,-0.80004 0.025,-0.125 0.225009,-0.47502 0.225009,-0.72503 0,-0.25002 -0.150005,-0.50003 -0.375017,-0.62504 -0.225013,-0.125 -0.750038,-0.1 -1.000051,-0.075 -0.250013,0.025 -1.225063,0.10001 -1.225063,0.10001 z"
         id="path20226"
         sodipodi:nodetypes="csscsssscsssssscc" /><path
         style="opacity:0.99;fill:#a05a2c;fill-opacity:0.97647059;fill-rule:nonzero;stroke:none;stroke-width:0.1;stroke-dasharray:none;stroke-opacity:1;paint-order:fill markers stroke"
         d="m 19.679978,134.72255 c 0,0 -0.150005,0.42502 -0.150005,0.57503 0,0.15001 0.375017,0.42502 0.62503,0.52503 0.250013,0.10001 0.825042,0.20001 1.100055,0.025 0.275016,-0.17501 0.475025,-0.55003 0.55003,-0.67503 0.075,-0.12501 0.100004,-0.17501 0.225012,-0.17501 0.125005,0 0.425021,-0.27502 0.425021,-0.42503 0,-0.15 0,-0.27501 0,-0.40002 0,-0.125 0.300014,-0.35001 0.300014,-0.35001 0,0 0.150008,-0.22501 0.150008,-0.50003 0,-0.27501 0.250013,-0.45002 -0.075,-0.50002 -0.325017,-0.05 -0.625031,-0.30002 -0.625031,-0.30002 0,0 -1.800092,-0.075 -1.975101,0.10001 -0.175009,0.175 -0.550029,2.1001 -0.550029,2.1001 z"
         id="path20228" /><g
         id="g17714"
         transform="translate(-65.128628,-11.713688)"><g
           id="g17606"
           transform="matrix(2.8244955,0,0,2.8244955,-17.485619,97.374125)"><g
             id="g17666"><ellipse
               style="opacity:0.99;fill:#c87137;fill-opacity:0.992157;fill-rule:nonzero;stroke:none;stroke-width:0.171524;stroke-dasharray:none;stroke-opacity:1;paint-order:fill markers stroke"
               id="path4347"
               cx="36.481922"
               cy="10.172644"
               rx="2.8518746"
               ry="2.8358848" /><path
               style="opacity:0.99;fill:#c87137;fill-opacity:1;fill-rule:nonzero;stroke:none;stroke-width:0.0354046;stroke-dasharray:none;stroke-opacity:1;paint-order:fill markers stroke"
               d="m 34.377575,11.546033 c 0,0 0.254131,-1.252539 0.19154,-1.290092 -0.06259,-0.03755 0.363023,-0.06259 0.463167,-0.200287 0.100145,-0.1376993 0.250361,-0.2879172 0.287915,-0.4506507 0.03755,-0.1627335 0.07511,-0.3880587 0.07511,-0.5132386 0,-0.1251834 -0.03755,-0.4631694 -0.03755,-0.4631694 v -0.050073 c 0,0 1.539718,0.075111 2.340872,0.500723 0.801154,0.4256123 0.838709,0.4506504 0.838709,0.4506504 0,0 0.350505,-0.2753979 0.375541,-0.3254705 0.02504,-0.050073 0.162735,-0.1251799 0.162735,-0.1251799 l 0.162734,0.3505051 c 0,0 0.05007,1.5272006 -0.01252,1.7650446 -0.06259,0.237841 -0.03755,0.112661 -0.05007,0.175253 -0.01252,0.06259 -0.05007,0.425612 -0.05007,0.538273 0,0.112664 0.02504,0.400577 0.01252,0.513242 -0.01252,0.112661 -0.200288,0.663456 -0.200288,0.663456 0,0 -0.363023,0.350505 -0.450649,0.388059 -0.08763,0.03755 -0.525758,0.225325 -0.588348,0.25036 -0.06259,0.02503 -0.250361,0.05007 -0.312951,0.05007 -0.06259,0 -0.463168,0 -0.588348,0 -0.12518,0 -0.463167,-0.05007 -0.575829,-0.07511 -0.112663,-0.02503 -0.388059,-0.08763 -0.550794,-0.112664 -0.162735,-0.02503 -0.45065,-0.137699 -0.57583,-0.200287 -0.12518,-0.06259 -0.363023,-0.162737 -0.413095,-0.187772 -0.05007,-0.02503 -0.275397,-0.23784 -0.350505,-0.275398 -0.07511,-0.03755 -0.250361,-0.175252 -0.287915,-0.225321 -0.03755,-0.05007 -0.175252,-0.175256 -0.175252,-0.175256 v -0.162734 c 0,0 -0.162735,0.175253 -0.350505,0.07511 -0.187771,-0.100145 -0.463168,-0.125184 -0.563312,-0.250363 -0.100145,-0.12518 -0.212807,-0.400578 -0.212807,-0.450651 0,-0.05007 -0.01252,-0.150214 0,-0.25036 0.01252,-0.100145 0.05007,-0.262878 0.05007,-0.262878 0,0 0.07511,-0.12518 0.225324,-0.212806 0.150217,-0.08763 0.20029,-0.137699 0.275398,-0.150218 0.07511,-0.01253 0.300433,0.01253 0.300433,0.01253 0,0 0.175252,0.06259 0.212806,0.12518 0.03755,0.06259 0.112662,0.162737 0.150217,0.212806 0.03755,0.05007 0.12518,0.162737 0.150216,0.212809 0.02504,0.05007 0.07134,0.125913 0.07134,0.125913 z"
               id="path20216-0" /><path
               style="opacity:0.99;fill:#c87137;fill-opacity:0.992157;fill-rule:nonzero;stroke:none;stroke-width:0.0384263;stroke-dasharray:none;stroke-opacity:1;paint-order:fill markers stroke"
               d="m 34.981033,13.220307 v 0.25002 c 0,0 -0.03248,0.295476 0.259885,0.340932 0.292372,0.04546 0.438557,0.113648 0.438557,0.113648 l 0.03248,-0.468427 c 0,0 -0.259885,-0.07707 -0.438556,-0.145254 -0.178672,-0.06819 -0.194914,-0.159104 -0.194914,-0.159104 z"
               id="path20220-5"
               sodipodi:nodetypes="ccsccscc" /><path
               style="opacity:0.99;fill:none;fill-opacity:0.992157;fill-rule:nonzero;stroke:#2b1100;stroke-width:0.38011;stroke-dasharray:none;stroke-opacity:1;paint-order:fill markers stroke"
               id="path5099"
               sodipodi:type="arc"
               sodipodi:cx="36.463936"
               sodipodi:cy="8.8222237"
               sodipodi:rx="2.7141452"
               sodipodi:ry="0.50697601"
               sodipodi:start="0.28424498"
               sodipodi:end="2.8139227"
               sodipodi:arc-type="arc"
               d="M 39.069172,8.9643964 A 2.7141452,0.50697601 0 0 1 36.522862,9.3290802 2.7141452,0.50697601 0 0 1 33.894197,8.9853877"
               sodipodi:open="true" /><path
               style="opacity:0.99;fill:#008000;fill-opacity:0.992157;fill-rule:nonzero;stroke:none;stroke-width:0.0799998;stroke-dasharray:none;stroke-opacity:1;paint-order:fill markers stroke"
               d="m 38.03806,8.8643259 c 0.0064,-0.00177 -0.121356,-1.1364436 -0.671786,-1.6087474 -0.456948,-0.3920878 -0.282857,-0.9192863 -0.406607,-0.9192863 -0.12375,0 -0.106072,0.4242846 0,1.1491078 0.106071,0.7248197 0.229821,1.2198214 0.477321,1.4142844 0.247501,0.1944631 0.548036,0.4950017 0.548036,0.4950017 z"
               id="path12676"
               sodipodi:nodetypes="csscscc" /><path
               style="opacity:0.99;fill:#008000;fill-opacity:0.992157;fill-rule:nonzero;stroke:none;stroke-width:0.0581417;stroke-dasharray:none;stroke-opacity:1;paint-order:fill markers stroke"
               d="m 38.41706,8.6816738 c -0.0035,-0.00177 0.06611,-1.1019525 0.365942,-1.559921 0.248912,-0.3801882 0.15408,-0.891384 0.22149,-0.891384 0.06741,0 0.05778,0.411408 0,1.1142309 -0.05778,0.7028193 -0.12519,1.1827988 -0.26001,1.3713599 -0.134821,0.1885575 -0.298532,0.479976 -0.298532,0.479976 z"
               id="path12786"
               sodipodi:nodetypes="csscscc" /><path
               style="opacity:0.99;fill:#44aa00;fill-opacity:0.992157;fill-rule:nonzero;stroke:none;stroke-width:0.051401;stroke-dasharray:none;stroke-opacity:1;paint-order:fill markers stroke"
               d="M 37.865904,8.7566784 C 37.87,8.7556162 37.787931,8.0264949 37.434271,7.7230318 37.140675,7.4711108 37.25253,7.1323742 37.173019,7.1323742 c -0.07951,0 -0.06815,0.2726115 0,0.7383229 0.06815,0.465708 0.147664,0.7837542 0.306687,0.9087004 0.159023,0.1249462 0.352122,0.3180461 0.352122,0.3180461 z"
               id="path12792"
               sodipodi:nodetypes="csscscc" /><path
               style="opacity:0.99;fill:#44aa00;fill-opacity:0.992157;fill-rule:nonzero;stroke:none;stroke-width:0.051401;stroke-dasharray:none;stroke-opacity:1;paint-order:fill markers stroke"
               d="m 38.230264,8.5754212 c -0.0041,-0.00106 0.07797,-0.7301835 0.431633,-1.0336465 0.293596,-0.2519211 0.181741,-0.5906577 0.261252,-0.5906577 0.07951,0 0.06815,0.2726115 0,0.738323 -0.06815,0.4657079 -0.147664,0.7837541 -0.306687,0.9087003 -0.159023,0.1249462 -0.352122,0.3180462 -0.352122,0.3180462 z"
               id="path12794"
               sodipodi:nodetypes="csscscc" /><path
               style="opacity:0.99;fill:#008000;fill-opacity:1;fill-rule:nonzero;stroke:none;stroke-width:0.0799998;stroke-dasharray:none;stroke-opacity:1;paint-order:fill markers stroke"
               d="m 37.829318,9.0642306 c 0,0 -0.05053,0.1149834 -0.214056,-0.4197953 C 37.451735,8.1096602 37.369675,7.8665088 37.369675,7.8665088"
               id="path12852"
               sodipodi:nodetypes="ccc" /><path
               style="opacity:0.99;fill:#008000;fill-opacity:1;fill-rule:nonzero;stroke:none;stroke-width:0.0799998;stroke-dasharray:none;stroke-opacity:1;paint-order:fill markers stroke"
               d="m 38.427895,8.7134388 c 0,0 0.05053,0.1149833 0.214057,-0.4197953 0.163526,-0.5347752 0.245586,-0.7779266 0.245586,-0.7779266"
               id="path12962"
               sodipodi:nodetypes="ccc" /><path
               style="opacity:0.99;fill:#0066ff;fill-opacity:0.992157;fill-rule:nonzero;stroke:none;stroke-width:0.106576;stroke-dasharray:none;stroke-opacity:1;paint-order:fill markers stroke"
               d="m 37.708345,8.3123052 c -0.0083,0.00212 -0.518222,-1.4536401 -0.160497,-2.3793098 0.296973,-0.7684558 0.178347,-1.53061 0.320189,-1.6076782 0.141843,-0.077068 0.230805,0.6041893 0.528463,1.5647714 0.297657,0.9605645 0.487518,1.7462764 0.31631,2.1404035 -0.171209,0.3941234 -0.523429,1.0988192 -0.523429,1.0988192 z"
               id="path12788"
               sodipodi:nodetypes="csscscc" /><path
               style="opacity:0.99;fill:#2a7fff;fill-opacity:0.992157;fill-rule:nonzero;stroke:none;stroke-width:0.0718617;stroke-dasharray:none;stroke-opacity:1;paint-order:fill markers stroke"
               d="m 37.862155,8.1187804 c -0.0056,0.00142 -0.349425,-0.9801573 -0.108219,-1.6043148 0.200241,-0.5181527 0.120255,-1.0320533 0.215896,-1.0840166 0.09564,-0.051967 0.155626,0.4073896 0.35633,1.0550875 0.200704,0.6476838 0.328722,1.177474 0.21328,1.4432241 C 38.424,8.1945072 38.186506,8.6696681 38.186506,8.6696681 Z"
               id="path12790"
               sodipodi:nodetypes="csscscc" /><ellipse
               style="opacity:0.99;fill:#ffff00;fill-opacity:0.992157;fill-rule:nonzero;stroke:none;stroke-width:0.109714;stroke-dasharray:none;stroke-opacity:1;paint-order:fill markers stroke"
               id="path5313"
               cx="38.235443"
               cy="9.0306854"
               rx="0.32620108"
               ry="0.52032417" /><path
               style="opacity:0.99;fill:#5599ff;fill-opacity:1;fill-rule:nonzero;stroke:none;stroke-width:0.0241149;stroke-dasharray:none;stroke-opacity:1;paint-order:fill markers stroke"
               d="m 38.122717,7.9818037 c -7.09e-4,0.00106 -0.225384,-0.8209537 -0.09436,-1.3892604 0.101011,-0.4381385 0.01024,-0.8877444 0.01825,-0.9341031 0.04835,1.1631634 0.08395,1.9157828 0.136747,2.7961099 z"
               id="path12796"
               sodipodi:nodetypes="csccc" /><ellipse
               style="opacity:0.99;fill:#dfdf00;fill-opacity:0.992157;fill-rule:nonzero;stroke:none;stroke-width:0.0776124;stroke-dasharray:none;stroke-opacity:1;paint-order:fill markers stroke"
               id="ellipse12964"
               cx="38.250134"
               cy="9.0249186"
               rx="0.22513951"
               ry="0.37726733" /></g></g><g
           id="g17639"
           transform="translate(65.259675,11.777815)"><path
             style="opacity:0.99;fill:#000000;fill-opacity:1;fill-rule:nonzero;stroke:#000000;stroke-width:0.1;stroke-dasharray:none;stroke-opacity:1;paint-order:fill markers stroke"
             d="m 19.464107,114.15053 c 1.843698,-1.6886 2.866636,0.003 4.124373,1.25208 -1.513098,1.60637 -1.257688,-1.39035 -4.186248,-1.16377 z"
             id="path20252"
             sodipodi:nodetypes="cccc" /><path
             style="opacity:0.99;fill:#000000;fill-opacity:1;fill-rule:nonzero;stroke:#000000;stroke-width:0.1;stroke-dasharray:none;stroke-opacity:1;paint-order:fill markers stroke"
             d="m 27.958305,114.66329 c 0.625226,0.60018 -1.479558,1.52409 -2.210494,1.59891 -0.202223,0.0207 -0.45263,-0.18392 -0.355536,-0.59838 0.845753,-0.60004 1.918256,-1.02476 2.56603,-1.00053 z"
             id="path20254"
             sodipodi:nodetypes="cscc" /><path
             style="opacity:0.99;fill:none;fill-opacity:1;fill-rule:nonzero;stroke:#000000;stroke-width:0.1;stroke-dasharray:none;stroke-opacity:1;paint-order:fill markers stroke"
             d="m 25.055253,118.80924 c -0.01249,0.075 -0.025,0.27501 -0.01249,0.36252 0.01249,0.0875 0.08751,0.21251 0.237513,0.23751 0.150009,0.025 0.262512,0.075 0.350018,0.12501 0.08751,0.05 0.337518,0.25001 0.350017,0.36252 0.01252,0.1125 -0.075,0.38752 -0.112506,0.46252 -0.0375,0.075 0.0375,0.23751 -0.112504,0.23751 -0.150008,0 -0.387522,-0.0625 -0.462526,-0.0625 -0.075,0 -0.362516,-0.0375 -0.362516,-0.0375 l 0.137507,-0.0125 0.21251,0.0625"
             id="path20256" /><g
             id="g5642"
             transform="matrix(2.2740921,0.42801485,-0.42801485,2.2740921,8.3148875,99.277382)"><g
               id="g14148"><path
                 style="opacity:0.99;fill:#550000;fill-opacity:0.992157;fill-rule:nonzero;stroke:#2b1100;stroke-width:0.0199435;stroke-dasharray:none;stroke-opacity:1;paint-order:fill markers stroke"
                 d="m 7.7096886,8.0230299 c 0,0 -0.5894613,0.1424741 -0.5272694,0.5705024 0.062195,0.428028 0.1029554,0.4778843 0.1568286,0.5080281 0.053873,0.030144 0.8223668,0.2853669 1.0348057,0.017244 C 8.4648944,9.0041525 8.5079854,8.9190873 8.5258023,8.8545486 8.5496518,8.7681574 8.5282141,8.7185464 8.5153979,8.6839844 8.4930072,8.6236024 8.4509053,8.5501105 8.4509053,8.5501105 l 0.1113885,-0.210232 0.051101,-0.1024846 0.1981791,-0.101333 c 0,0 -0.5723333,0.1936692 -0.8955753,0.012807 C 7.5927559,7.9680057 7.7096898,8.0230303 7.7096898,8.0230303 Z"
                 id="path2322-3"
                 sodipodi:nodetypes="ccssssccccscc" /><path
                 style="opacity:0.99;fill:#ffffff;fill-opacity:0.992157;fill-rule:nonzero;stroke:none;stroke-width:0.0199435;stroke-dasharray:none;stroke-opacity:1;paint-order:fill markers stroke"
                 d="m 7.6924971,8.0289731 -0.1943335,0.086288 c 0,0 0.176589,0.3792404 0.5363891,0.3683376 L 8.3943523,8.472696 8.5067704,8.4381045 C 8.5951393,8.1971332 8.6388355,8.2078531 8.7041133,8.1772591 8.1793594,8.3050229 7.9643359,8.2202461 7.6924971,8.0289731 Z"
                 id="path3106-2"
                 sodipodi:nodetypes="ccscccc" /><path
                 style="opacity:0.99;fill:#ff2a2a;fill-opacity:0.992157;fill-rule:nonzero;stroke:#2b1100;stroke-width:0.0199435;stroke-dasharray:none;stroke-opacity:1;paint-order:fill markers stroke"
                 d="m 7.2242396,8.4109538 c 0,0 0.5804629,0.033502 0.7949009,0.3865117 0.2144383,0.353009 0.1776921,0.3740607 0.1776921,0.3740607 l 0.040764,0.049855 -0.2271712,0.00813 c -0.2456567,0.013533 -0.471448,-0.089484 -0.7053383,-0.144985 0,0 -0.1895576,-0.4160691 -0.080847,-0.6735735 z"
                 id="path3108-3"
                 sodipodi:nodetypes="csccccsc" /></g></g><g
             id="g15668"
             transform="matrix(2.5851987,1.1377708,-1.1377708,2.5851987,11.103148,93.778295)"><path
               style="opacity:0.99;fill:#000000;fill-opacity:0.992157;fill-rule:nonzero;stroke:none;stroke-width:0.0152703;stroke-dasharray:none;stroke-opacity:1;paint-order:fill markers stroke"
               d="m 6.0468578,6.0830891 c 0,0 0.2559863,-0.1715442 0.5078802,-0.0391 0.2518945,0.1324446 0.2624206,0.1935469 0.2624206,0.1935469 l 0.071628,0.050575 c 0,0 -0.3386097,-0.073949 -0.4091181,-0.015019 -0.070507,0.058932 -0.2831213,0.2762372 -0.2831213,0.2762372 0,0 -0.045764,0.043374 -0.00941,0.048404 0.036357,0.00503 0.093733,-0.017758 0.135336,-0.057193 0.041603,-0.039431 0.1127636,-0.1226722 0.1659791,-0.1415194 0.053214,-0.018853 0.1957864,-0.043412 0.2240407,-0.038597 0.028253,0.00481 0.2137654,0.042221 0.2459623,0.051193 0.032196,0.00897 0.047534,0.041822 0.080818,0.010274 0.033284,-0.031545 0.034802,-0.08827 0.034802,-0.08827 -0.047576,-0.053975 -0.054645,-0.065192 -0.0666,-0.086932 0,0 -0.1016538,-0.1405825 -0.1564236,-0.2150344 C 6.7962861,5.9572052 6.7384422,5.8461792 6.6381256,5.8069992 6.5378087,5.7678188 6.43771,5.7205347 6.2896751,5.7976609 6.1416403,5.8747868 6.0317345,6.0421373 6.0317345,6.0421373 Z"
               id="path3110-3"
               sodipodi:nodetypes="csccscsscsssccssscc" /><path
               style="opacity:0.99;fill:#000000;fill-opacity:0.992157;fill-rule:nonzero;stroke:none;stroke-width:0.0152703;stroke-dasharray:none;stroke-opacity:1;paint-order:fill markers stroke"
               d="m 8.2315561,5.8725043 c 0.042307,-0.2958945 0.060714,-0.049463 0.091744,-0.4583117 0.00727,-0.027723 0.1116447,-0.1816852 0.1307135,-0.1956476 0.019069,-0.013964 0.086892,-0.060176 0.1456841,-0.022241 0.05879,0.037936 0.1050052,0.1057591 0.1050052,0.1057591 l -0.012373,0.060754 c 0,0 -0.059977,-0.056023 -0.1024396,-0.038715 -0.042464,0.017312 -0.1395697,0.1435471 -0.150965,0.191522 -0.011394,0.047974 -0.050111,0.1504141 -0.050111,0.1504141 l 0.1922739,-0.059801 c 0,0 0.1193449,0.019445 0.08966,0.037735 -0.029686,0.018287 -0.191091,0.077888 -0.24948,0.1016878 -0.058389,0.023799 -0.048351,0.093987 -0.048351,0.093987 0,0 -0.040099,0.053484 -0.061332,0.062138 -0.021232,0.00866 -0.080025,-0.029282 -0.080025,-0.029283 z"
               id="path3112-5"
               sodipodi:nodetypes="ccssccssccsscssc" /></g></g></g><path
         style="opacity:0.99;fill:#552200;fill-opacity:1;fill-rule:nonzero;stroke:#2b1100;stroke-width:0.101943;stroke-dasharray:none;stroke-opacity:1;paint-order:fill markers stroke"
         d="m 13.519089,128.26782 c -0.203898,-0.30585 0.965029,-0.53662 0.914057,-0.89344 -0.05097,-0.35681 -1.705394,-0.73836 -0.99176,-1.19713 0.864327,-1.39393 0.256381,-1.21329 1.708867,-2.39513 0.458764,-0.2039 0.815581,-0.45877 0.815581,-0.45877 0,0 0.305844,0.45877 0.611689,0.81559 0.305842,0.35681 0.458764,0.71363 0.968504,0.56071 0.509738,-0.15292 0.66266,-0.45876 0.66266,-0.45876 0.24022,-0.0801 2.04337,4.21237 0.968504,6.42271 -0.854395,1.75697 0.305844,1.83506 0,1.937 -0.305842,0.10195 -2.089929,0.051 -2.089929,0.051 0,0 -1.121428,-0.25486 -1.325322,-0.25486 h -1.376296 c -0.254869,0 -1.564537,0.84602 -1.819406,0.59115 -0.25487,-0.25488 0.239213,-1.50869 0.188241,-2.57914 -0.05097,-1.07046 -0.05097,-1.1724 0.458764,-1.58019 0.50974,-0.40779 0.713634,-0.40779 0.713634,-0.40779 0,0 0.450021,-0.11688 1.010735,-0.42273 0.560712,-0.30583 1.436014,-1.51428 1.436014,-1.51428 -0.559636,1.07579 -1.355555,1.72627 -2.395774,1.93701 z"
         id="path20222"
         sodipodi:nodetypes="cscccsscsscssssscsccc" /><path
         style="opacity:0.99;fill:#c87137;fill-opacity:0.992157;fill-rule:nonzero;stroke:none;stroke-width:0.1;stroke-dasharray:none;stroke-opacity:1;paint-order:fill markers stroke"
         d="m 12.601731,128.55855 2.559978,0.69923 c 0,0 -0.05139,0.92826 0.02082,1.01362 0.07225,0.0854 1.00452,0.51218 1.139118,0.51548 0.134611,0.003 1.06034,0.1281 1.316397,0.10185 0.256084,-0.0261 1.007835,-0.003 1.007835,-0.003 0,0 -0.364369,-0.10184 -0.05906,-0.43333 0.305312,-0.33156 0.256078,-0.40706 0.367701,-0.41362 0.111579,-0.007 0.889661,-0.29868 0.889661,-0.29868 l 0.889648,0.0821 c 0,0 0.351265,-0.1214 0.4005,0.14447 0.04922,0.26591 0.213352,0.39066 0.06891,0.41035 -0.144399,0.02 -0.607322,-0.0427 -0.607322,-0.0427 l 0.892921,0.13794 0.476014,-0.0952 c 0,0 0.449753,0.0296 0.407054,0.4465 -0.04267,0.41693 -0.351306,0.69265 -0.351306,0.69265 0,0 -0.02987,0.0689 0.04591,0.40051 0.07549,0.33157 0.285576,0.66644 0.05577,0.75833 -0.229814,0.0919 -0.377522,0.24622 -0.45963,0.37421 -0.08203,0.12808 -2e-5,0.38082 -0.06894,0.54168 -0.06894,0.16085 -0.05907,0.5187 -0.439936,0.51865 -0.380807,-4e-5 -0.515394,-0.003 -0.896202,-0.003 -0.380816,-4e-5 -0.387376,0.0788 -0.722223,-0.092 -0.334827,-0.17072 -0.571182,-0.38084 -0.725467,-0.52858 -0.154286,-0.14773 -0.190382,-0.19041 -0.410324,-0.31188 -0.219947,-0.12149 -0.666438,0.28555 -1.142435,0.19034 -0.476016,-0.0952 -0.810862,-0.0756 -1.191667,-0.0756 -0.380816,-4e-5 -0.623727,0.0592 -1.024241,-0.0854 -0.40049,-0.14446 -0.669691,-0.15104 -1.116114,-0.50561 -0.446452,-0.35459 -0.39394,-0.22326 -0.74188,-0.80763 -0.347935,-0.58436 -0.439844,-0.81417 -0.512041,-1.08994 -0.103965,-0.25156 0.02263,-1.98764 -0.06945,-2.24174 z"
         id="path20224"
         sodipodi:nodetypes="ccscccccccccccccccscccccsccccsscc" /><path
         style="opacity:0.99;fill:#552200;fill-opacity:0.99215686;fill-rule:nonzero;stroke:#2b1100;stroke-width:0.066511;stroke-dasharray:none;stroke-opacity:1;paint-order:fill markers stroke"
         d="m 14.119618,124.96117 c 0,0 -0.526607,0.49752 -0.59655,0.60389 -0.06994,0.10638 -0.40096,0.83221 -0.40096,0.83221 l -0.412659,1.80327 c 0,0 -0.139956,0.21268 -0.03336,0.31798 0.106572,0.10527 0.636613,0.17265 0.796252,0.29525 0.159647,0.1226 1.485937,0.48522 1.820163,0.28898 0.334255,-0.19622 0.788663,-0.94054 0.822703,-1.15257 0.03401,-0.21206 0.275109,-1.20218 0.149046,-1.60745 -0.126063,-0.40528 -0.323606,-0.95136 -0.323606,-0.95136"
         id="path3136" /></g><path
       style="opacity:0.99;fill:#fde0a4;fill-opacity:1;fill-rule:nonzero;stroke:none;stroke-width:0.1;stroke-dasharray:none;stroke-opacity:1;paint-order:fill markers stroke"
       d="m -101.026,40.768853 c 0,0 0.71779,-3.53779 0.541,-3.64386 -0.17679,-0.10607 1.025358,-0.17678 1.308214,-0.56571 0.282858,-0.38893 0.707144,-0.81322 0.813215,-1.27286 0.106072,-0.45964 0.212143,-1.09607 0.212143,-1.44964 0,-0.35358 -0.106071,-1.30822 -0.106071,-1.30822 v -0.14143 c 0,0 4.348927,0.21215 6.611783,1.41429 2.262857,1.20214 2.368929,1.27286 2.368929,1.27286 0,0 0.990002,-0.77786 1.060714,-0.91929 0.07072,-0.14143 0.459645,-0.35357 0.459645,-0.35357 l 0.459642,0.99 c 0,0 0.141428,4.31357 -0.03536,4.98536 -0.176787,0.67178 -0.106071,0.31821 -0.14143,0.495 -0.03536,0.17678 -0.141428,1.20214 -0.141428,1.52035 0,0.31822 0.07071,1.13143 0.03536,1.44965 -0.03536,0.31821 -0.565713,1.87393 -0.565713,1.87393 0,0 -1.025359,0.99 -1.272858,1.09607 -0.247499,0.10607 -1.485,0.63643 -1.661784,0.70714 -0.176787,0.0707 -0.707144,0.14143 -0.883931,0.14143 -0.176784,0 -1.308214,0 -1.661784,0 -0.353571,0 -1.308214,-0.14143 -1.626428,-0.21214 -0.318215,-0.0707 -1.096071,-0.2475 -1.555716,-0.31822 -0.459642,-0.0707 -1.272857,-0.38893 -1.626428,-0.56571 -0.353571,-0.17679 -1.025356,-0.45965 -1.166786,-0.53036 -0.141428,-0.0707 -0.777858,-0.67178 -0.989998,-0.77786 -0.21214,-0.10607 -0.70715,-0.495 -0.81322,-0.63642 -0.10607,-0.14143 -0.495,-0.49501 -0.495,-0.49501 v -0.45964 c 0,0 -0.45964,0.495 -0.99,0.21215 -0.53035,-0.28286 -1.30821,-0.35358 -1.59107,-0.70715 -0.28286,-0.35357 -0.60107,-1.13143 -0.60107,-1.27286 0,-0.14142 -0.0354,-0.42428 0,-0.70714 0.0354,-0.28286 0.14143,-0.7425 0.14143,-0.7425 0,0 0.21214,-0.35357 0.63643,-0.60107 0.42428,-0.2475 0.56571,-0.38893 0.77786,-0.42429 0.21214,-0.0354 0.84857,0.0354 0.84857,0.0354 0,0 0.495,0.17679 0.60107,0.35357 0.10607,0.17679 0.31821,0.45965 0.42428,0.60107 0.10607,0.14143 0.35357,0.45965 0.42429,0.60108 0.0707,0.14142 0.2015,0.35564 0.2015,0.35564 z"
       id="path32083" /><path
       style="opacity:0.99;fill:#ff6600;fill-opacity:1;fill-rule:nonzero;stroke:none;stroke-width:0.1;stroke-dasharray:none;stroke-opacity:1;paint-order:fill markers stroke"
       d="m -103.77615,32.368433 c 0,0 -3.65018,1.85009 -2.70013,4.85024 0.95004,3.00015 1.40007,3.15016 1.40007,3.15016 l 0.15001,-0.05 c 0,0 0.55002,-1.00005 0.80004,-1.10006 0.25001,-0.1 0.60003,-0.30001 0.90004,-0.25001 0.30002,0.05 1.20006,0.35002 1.30007,0.60003 0.1,0.25002 0.50002,0.65003 0.65003,0.85005 0.15001,0.20001 0.35002,0.30001 0.35002,0.30001 0,0 0.25001,-0.90004 0.40002,-1.35007 0.15001,-0.45002 0.20001,-0.65003 0.15001,-1.05005 -0.05,-0.40002 -0.15001,-0.90005 -0.15001,-0.90005 l -0.25001,-0.65003 c 0.955262,0.71155 3.449013,0.57575 2.703689,-2.67943 -0.311283,-1.35952 0.02071,-1.47936 0.02071,-1.47936 0,0 0.375756,-0.24143 1.175798,-0.0914 0.800039,0.15001 1.80009,0.30002 2.350119,0.50003 0.550026,0.20001 1.400071,0.45002 1.800092,0.60003 0.400019,0.15001 1.450073,0.50002 1.700086,0.70003 0.250013,0.20002 0.900046,0.40002 1.150059,0.55003 0.250013,0.15001 0.800039,0.45002 0.800039,0.45002 0,0 0.425022,-0.77504 0.675035,-0.92505 0.250012,-0.15 0.525028,-0.47501 0.525028,-0.47501 l 0.300016,0.075 0.200011,0.77504 -3e-6,0.97505 c 0,0 0.600031,-0.82504 0.850044,-1.27507 0.250013,-0.45002 0.350017,-0.80004 0.60003,-1.30006 0.250013,-0.50003 0.400021,-0.90005 0.400021,-1.35007 0,-0.45003 0.250013,-1.55008 0.150008,-2.30012 -0.100005,-0.75004 -0.100005,-0.90005 -0.250013,-1.20006 -0.150008,-0.30002 -0.150008,-0.55003 -0.250012,-0.75004 -0.100005,-0.20001 -0.20001,-0.50003 -0.20001,-0.50003 0,0 0.05,0.60003 -0.150008,1.10006 -0.200012,0.50003 -0.350017,1.05005 -0.350017,1.05005 0,0 0.150005,-0.95004 -0.35002,-2.50012 -0.500025,-1.55008 -0.350017,-1.70009 -0.350017,-1.70009 v -0.30001 c 0,0 -0.100005,0.75003 -0.700035,1.15005 -0.600032,0.40002 -1.450075,1.05006 -2.000102,1.15006 -0.550029,0.10001 -2.100109,0.45003 -2.500127,0.45003 h -1.750092 c -0.200009,0 -0.700034,-0.10001 -0.700034,-0.10001 0,0 0.750038,0.15001 1.350068,-0.70004 0.60003,-0.85004 0.550029,-0.90004 0.550029,-0.90004 0,0 -0.750038,0.20001 -1.200063,0.20001 h -1.650081 c -0.300017,0 -2.200114,0.55003 -2.550131,0.65003 -0.350018,0.10001 -2.150107,0.50003 -2.550127,1.05005 -0.40003,0.55003 -1.65009,1.55008 -1.75009,1.8001 -0.10001,0.25001 -0.15001,0.35001 -0.45003,1.10005 -0.30001,0.75004 -0.25001,1.15006 -0.35002,1.45008 -0.1,0.30001 -0.25001,0.35002 -0.25001,0.35002 z"
       id="path32085"
       sodipodi:nodetypes="csccsssscssccscssssscsccccsssssscscsccsssscscssssssscc" /><path
       style="opacity:0.99;fill:#fde0a4;fill-opacity:0.992157;fill-rule:nonzero;stroke:none;stroke-width:0.108535;stroke-dasharray:none;stroke-opacity:1;paint-order:fill markers stroke"
       d="m -99.321539,45.497833 v 0.70618 c 0,0 -0.09175,0.83457 0.734045,0.96296 0.825802,0.1284 1.238702,0.321 1.238702,0.321 l 0.09175,-1.32307 c 0,0 -0.734043,-0.21768 -1.2387,-0.41027 -0.504657,-0.1926 -0.550533,-0.44939 -0.550533,-0.44939 z"
       id="path32087"
       sodipodi:nodetypes="ccsccscc" /><path
       style="opacity:0.99;fill:#48a4df;fill-opacity:1;fill-rule:nonzero;stroke:#0055d4;stroke-width:0.1;stroke-dasharray:none;stroke-opacity:1;paint-order:fill markers stroke"
       d="m -101.77604,50.669363 c -0.20001,-0.30002 -1.50008,-1.50008 -1.55008,-1.8501 -0.05,-0.35001 -0.10001,-0.2 0.60003,-0.65003 0.70003,-0.45002 1.35007,-0.80004 1.75009,-0.85004 0.40002,-0.05 1.000048,-0.10001 1.000048,-0.10001 l -1.000048,0.05 c 0,0 0.35001,-0.80003 0.80004,-1.00005 0.45002,-0.20001 0.800038,-0.45002 0.800038,-0.45002 0,0 0.300016,0.45002 0.600032,0.80004 0.300014,0.35002 0.450022,0.70004 0.950048,0.55003 0.500025,-0.15001 0.650033,-0.45002 0.650033,-0.45002 0,0 1.20006,4.40022 0.950048,6.30032 -0.250013,1.90009 0.300016,1.80009 0,1.90009 -0.300014,0.10001 -2.050103,0.05 -2.050103,0.05 0,0 -1.100058,-0.25001 -1.300067,-0.25001 H -100.926 c -0.25001,0 -0.50003,0.25001 -0.75004,0 -0.25001,-0.25002 -0.80004,-0.90005 -0.85004,-1.9501 -0.05,-1.05006 -0.05,-1.15006 0.45002,-1.55008 0.50003,-0.40002 0.70004,-0.40002 0.70004,-0.40002 0,0 0.44144,-0.11465 0.99147,-0.41467 0.550027,-0.30001 1.408649,-1.48543 1.408649,-1.48543 -0.548972,1.05529 -1.329719,1.69338 -2.350119,1.9001 z"
       id="path32089"
       sodipodi:nodetypes="csssccscsscsscssssscsccc" /><path
       style="opacity:0.99;fill:#444960;fill-opacity:1;fill-rule:nonzero;stroke:none;stroke-width:0.1;stroke-dasharray:none;stroke-opacity:1;paint-order:fill markers stroke"
       d="m -103.30112,54.894573 c 0,0 0.50002,2.67514 0.52503,2.95016 0.025,0.27501 0.1,1.90009 0.025,2.0251 -0.075,0.12501 -0.50003,0.82504 -0.57503,0.95005 -0.075,0.125 -0.90005,1.9501 -1.02505,2.0251 -0.12501,0.075 -0.72504,1.07506 -0.72504,1.07506 0,0 0.55002,0.15 0.72504,0.15 0.175,0 1.32506,-0.125 1.65008,-0.17501 0.32501,-0.05 0.70003,-0.05 0.95005,-0.05 0.25001,0 0.55002,0.45002 0.65003,0.45002 0.10001,0 0,-0.37501 0.025,-0.62503 0.025,-0.25001 -0.025,-0.35001 0.20001,-0.52503 0.22501,-0.175 0.45002,-0.15 0.60003,-0.75003 0.15001,-0.60003 0.300016,-1.37507 0.35002,-1.60009 0.05,-0.22501 0.150008,-0.70003 -0.025,-1.15005 -0.17501,-0.45003 -0.22501,-1.05006 -0.32502,-1.17506 -0.1,-0.12501 -0.35002,-2.10011 -0.60003,-2.45013 -0.25001,-0.35002 -0.97505,-1.37507 -0.97505,-1.37507 z"
       id="path32091" /><path
       style="opacity:0.99;fill:#23283b;fill-opacity:1;fill-rule:nonzero;stroke:none;stroke-width:0.1;stroke-dasharray:none;stroke-opacity:1;paint-order:fill markers stroke"
       d="m -98.650885,57.394703 c 0,0 0.850043,1.55008 0.975051,1.62509 0.125005,0.075 0.60003,1.07505 0.60003,1.07505 0,0 0.05,0.85004 -0.05,1.37507 -0.100007,0.52503 -0.300016,1.52508 -0.300016,1.77509 0,0.25001 -0.250013,0.67504 -0.150009,0.67504 0.100005,0 1.000051,0.075 1.600081,0.075 0.600033,0 0.625033,0.15 1.475076,0.025 0.850043,-0.12501 1.100056,-0.1 1.250064,-0.15001 0.150008,-0.05 -0.05,0 -0.175009,-0.40002 -0.125005,-0.40001 -0.05,-0.075 -0.200009,-0.67503 -0.150008,-0.60003 -0.325017,-1.07506 -0.300016,-1.57508 0.025,-0.50003 -0.400021,-2.0251 -0.750038,-2.22512 -0.350018,-0.2 -0.500026,-0.62503 -0.700035,-0.77503 -0.200012,-0.15001 -1.475076,-1.42508 -1.475076,-1.42508 l -0.750038,-0.125 c 0,0 -0.650034,0.52502 -0.750038,0.57503 -0.100005,0.05 -0.300017,0.15 -0.300018,0.15 z"
       id="path32093" /><path
       style="opacity:0.99;fill:#474e61;fill-opacity:1;fill-rule:nonzero;stroke:none;stroke-width:0.1;stroke-dasharray:none;stroke-opacity:1;paint-order:fill markers stroke"
       d="m -102.32607,54.444553 6.175313,0.42502 c 0,0 0.450024,0.65004 0.100004,1.05006 -0.350017,0.40002 -0.700034,0.80004 -0.950047,1.00005 -0.250013,0.20001 -0.725038,0.55003 -1.025051,0.60003 -0.300017,0.05 -0.625034,0.125 -1.025054,0.075 -0.400019,-0.05 -0.900044,0.025 -1.275065,-0.1 -0.37502,-0.12501 -0.82504,-0.075 -1.00005,-0.60003 -0.17501,-0.52503 -0.32502,-1.35007 -0.45002,-1.52508 -0.12501,-0.17501 -0.67504,-0.95005 -0.67504,-0.95005 z"
       id="path32095" /><path
       style="opacity:0.99;fill:#47a3e3;fill-opacity:1;fill-rule:nonzero;stroke:#0055d4;stroke-width:0.1;stroke-dasharray:none;stroke-opacity:1;paint-order:fill markers stroke"
       d="m -105.05121,63.995043 c 0,0 3.00015,-0.20001 3.27517,-0.075 0.27501,0.125 1.15005,0.60003 1.25006,0.82504 0.10001,0.22501 0.35002,0.75004 0.47502,0.87504 0.125011,0.12501 -0.55002,0.25001 -0.72503,0.20001 -0.17501,-0.05 -0.90005,-0.05 -1.35007,-0.05 -0.45002,0 -1.07506,-0.05 -1.8251,-0.075 -0.75003,-0.025 -1.17506,-0.025 -1.37506,-0.025 -0.20002,0 -0.70004,0.12501 -0.60003,0 0.1,-0.12501 0.25001,-0.97505 0.45002,-1.40007 0.20001,-0.42502 0.42502,-0.27501 0.42502,-0.27501 z"
       id="path32097" /><path
       style="opacity:0.99;fill:#e3dedb;fill-opacity:1;fill-rule:nonzero;stroke:none;stroke-width:0.1;stroke-dasharray:none;stroke-opacity:1;paint-order:fill markers stroke"
       d="m -105.87625,65.745133 c -0.12501,-0.025 -0.27502,0.27501 -0.27502,0.27501 0,0 0.05,0.40002 0.20001,0.45002 0.15001,0.05 0.17501,0.05 0.87505,0.12501 0.70003,0.075 1.30006,0.10001 1.82509,0.10001 0.52503,0 1.80009,-0.075 2.0501,-0.10001 0.25002,-0.025 0.85005,-0.05 1.07506,-0.15001 0.225012,-0.1 0.40002,-0.17501 0.40002,-0.35001 0,-0.17501 -0.125005,-0.45003 -0.250012,-0.45003 -0.125008,0 -5.900298,0.10001 -5.900298,0.10001 z"
       id="path32099" /><path
       style="opacity:0.99;fill:#47a3e3;fill-opacity:1;fill-rule:nonzero;stroke:#0055d4;stroke-width:0.1;stroke-dasharray:none;stroke-opacity:1;paint-order:fill markers stroke"
       d="m -97.166568,63.712183 c 0,0 3.000153,-0.20001 3.275169,-0.075 0.275013,0.125 1.150056,0.60003 1.250063,0.82504 0.100005,0.22501 0.350018,0.75004 0.475023,0.87504 0.125007,0.12501 -0.550027,0.25001 -0.725035,0.20001 -0.175012,-0.05 -0.900047,-0.05 -1.350071,-0.05 -0.450022,0 -1.075055,-0.05 -1.825093,-0.075 -0.750039,-0.025 -1.17506,-0.025 -1.375069,-0.025 -0.200012,0 -0.700037,0.12501 -0.60003,0 0.100004,-0.12501 0.250013,-0.97505 0.450022,-1.40007 0.200009,-0.42502 0.425021,-0.27501 0.425021,-0.27501 z"
       id="path32101" /><path
       style="opacity:0.99;fill:#e3dedb;fill-opacity:1;fill-rule:nonzero;stroke:none;stroke-width:0.1;stroke-dasharray:none;stroke-opacity:1;paint-order:fill markers stroke"
       d="m -97.99161,65.462273 c -0.125005,-0.025 -0.275013,0.27501 -0.275013,0.27501 0,0 0.05,0.40002 0.200009,0.45002 0.150008,0.05 0.175008,0.05 0.875046,0.12501 0.700034,0.075 1.300064,0.10001 1.825093,0.10001 0.525026,0 1.80009,-0.075 2.050103,-0.10001 0.250012,-0.025 0.850045,-0.05 1.075055,-0.15001 0.225012,-0.1 0.40002,-0.17501 0.40002,-0.35001 0,-0.17501 -0.125005,-0.45003 -0.250012,-0.45003 -0.125005,0 -5.900301,0.10001 -5.900301,0.10001 z"
       id="path32103" /><ellipse
       style="opacity:0.99;fill:#000000;fill-opacity:1;fill-rule:nonzero;stroke:#000000;stroke-width:0.1;stroke-dasharray:none;stroke-opacity:1;paint-order:fill markers stroke"
       id="ellipse32105"
       cx="-93.767143"
       cy="40.183392"
       rx="0.77785712"
       ry="1.3966072" /><ellipse
       style="opacity:0.99;fill:#000000;fill-opacity:1;fill-rule:nonzero;stroke:#000000;stroke-width:0.0792771;stroke-dasharray:none;stroke-opacity:1;paint-order:fill markers stroke"
       id="ellipse32107"
       cx="-88.857292"
       cy="40.094173"
       rx="0.56723642"
       ry="1.203665" /><ellipse
       style="opacity:0.99;fill:#ffffff;fill-opacity:1;fill-rule:nonzero;stroke:none;stroke-width:0.1;stroke-dasharray:none;stroke-opacity:1;paint-order:fill markers stroke"
       id="ellipse32109"
       cx="-93.722946"
       cy="39.723751"
       rx="0.53919643"
       ry="0.68946427" /><ellipse
       style="opacity:0.99;fill:#ffffff;fill-opacity:1;fill-rule:nonzero;stroke:none;stroke-width:0.0775845;stroke-dasharray:none;stroke-opacity:1;paint-order:fill markers stroke"
       id="ellipse32111"
       cx="-88.870186"
       cy="39.564632"
       rx="0.40013629"
       ry="0.55924344" /><path
       style="opacity:0.99;fill:#000000;fill-opacity:1;fill-rule:nonzero;stroke:#000000;stroke-width:0.1;stroke-dasharray:none;stroke-opacity:1;paint-order:fill markers stroke"
       d="m -95.941607,36.647673 c 0.335891,-0.28286 0.848572,-0.76018 1.11375,-0.7425 0.265179,0.0177 0.636429,0.053 0.919285,0.0884 0.282858,0.0354 0.689464,0.30054 0.830894,0.38893 0.141428,0.0884 0.371251,0.53036 0.548035,0.65411 0.176786,0.12375 0.335893,0.51268 0.37125,0.54804 0.03536,0.0354 0.159107,0.22982 0.141427,0.26517 -0.01767,0.0354 -0.318214,-0.22098 -0.459642,-0.25634 -0.141427,-0.0353 -0.609909,-0.30937 -0.715981,-0.41544 -0.106071,-0.10607 -0.07071,-0.22982 -0.291698,-0.32705 -0.220982,-0.0972 -0.822052,-0.18563 -0.892767,-0.20331 -0.07071,-0.0177 -0.353571,-0.0177 -0.574553,-0.0177 -0.220983,0 -0.742501,0.0354 -0.804376,0.053 -0.06187,0.0177 -0.247499,0.053 -0.247499,0.053 z"
       id="path32113" /><path
       style="opacity:0.99;fill:#000000;fill-opacity:1;fill-rule:nonzero;stroke:#000000;stroke-width:0.1;stroke-dasharray:none;stroke-opacity:1;paint-order:fill markers stroke"
       d="m -89.488927,38.008923 c 0.03536,-0.0884 0.194463,-0.53036 0.406606,-0.65411 0.212143,-0.12375 0.583393,-0.37125 0.671785,-0.4066 0.08839,-0.0354 0.282858,0 0.441965,0.0707 0.159107,0.0707 0.318215,0.12375 0.265179,0.21214 -0.05304,0.0884 -0.159107,0.0884 -0.406609,0.14143 -0.247499,0.053 -0.494999,0.14143 -0.583393,0.26518 -0.08839,0.12375 -0.335891,0.2475 -0.441963,0.40661 -0.106071,0.1591 -0.318214,0.2475 -0.318214,0.17678 0,-0.0707 -0.03536,-0.21214 -0.03536,-0.21214 z"
       id="path32115" /><path
       style="opacity:0.99;fill:none;fill-opacity:1;fill-rule:nonzero;stroke:#000000;stroke-width:0.1;stroke-dasharray:none;stroke-opacity:1;paint-order:fill markers stroke"
       d="m -90.350461,41.306383 c -0.01249,0.075 -0.025,0.27501 -0.01249,0.36252 0.01249,0.0875 0.08751,0.21251 0.237513,0.23751 0.150009,0.025 0.262512,0.075 0.350018,0.12501 0.08751,0.05 0.337518,0.25001 0.350017,0.36252 0.01252,0.1125 -0.075,0.38752 -0.112506,0.46252 -0.0375,0.075 0.0375,0.23751 -0.112504,0.23751 -0.150008,0 -0.387522,-0.0625 -0.462526,-0.0625 -0.075,0 -0.362516,-0.0375 -0.362516,-0.0375 l 0.137507,-0.0125 0.21251,0.0625"
       id="path32117" /><path
       style="opacity:0.99;fill:none;fill-opacity:1;fill-rule:nonzero;stroke:#000000;stroke-width:0.1;stroke-dasharray:none;stroke-opacity:1;paint-order:fill markers stroke"
       d="m -91.31301,44.844063 c -0.075,0.025 -1.100055,0.15001 -1.36257,0.075 -0.262514,-0.075 -0.800039,-0.33752 -0.862544,-0.42503 -0.0625,-0.0875 -0.437523,-0.28751 -0.500025,-0.41252 -0.0625,-0.125 -0.075,-0.37502 -0.075,-0.37502 0,0 -0.237512,0.31252 -0.287515,0.33752 -0.05,0.025 -0.175009,0.025 -0.175009,0.025"
       id="path32119" /><path
       style="opacity:0.99;fill:#fde0a4;fill-opacity:0.992157;fill-rule:nonzero;stroke:none;stroke-width:0.1;stroke-dasharray:none;stroke-opacity:1;paint-order:fill markers stroke"
       d="m -103.37613,48.944273 1.9001,2.0251 c 0,0 -0.97505,0.52503 -1.02505,0.62503 -0.05,0.10001 -0.075,1.12506 -0.025,1.25007 0.05,0.12501 0.30001,1.02505 0.42502,1.25006 0.12501,0.22501 0.40002,0.92505 0.40002,0.92505 0,0 -0.05,-0.37502 0.37502,-0.22501 0.42502,0.15001 0.47502,0.075 0.52503,0.17501 0.05,0.1 0.62503,0.70003 0.62503,0.70003 l 0.275012,0.85005 c 0,0 0.250013,0.27501 0.025,0.42502 -0.225012,0.15001 -0.275012,0.35002 -0.350022,0.22501 -0.075,-0.12501 -0.2,-0.57503 -0.2,-0.57503 l 0.22501,0.87505 0.275011,0.40002 c 0,0 0.150008,0.42502 -0.250011,0.55003 -0.40002,0.125 -0.77504,-0.05 -0.77504,-0.05 0,0 -0.075,0 -0.35002,0.20001 -0.27501,0.20001 -0.50003,0.52503 -0.67503,0.35002 -0.17501,-0.17501 -0.37502,-0.25001 -0.52503,-0.27502 -0.15001,-0.025 -0.35002,0.15001 -0.52503,0.15001 -0.17501,0 -0.50002,0.15001 -0.65003,-0.20001 -0.15001,-0.35002 -0.20001,-0.47502 -0.35002,-0.82504 -0.15001,-0.35002 -0.22501,-0.32502 -0.20001,-0.70004 0.025,-0.37501 0.12501,-0.67503 0.20001,-0.87504 0.075,-0.20001 0.10001,-0.25001 0.12501,-0.50002 0.025,-0.25002 -0.52503,-0.50003 -0.62504,-0.97505 -0.1,-0.47503 -0.25001,-0.77504 -0.40001,-1.12506 -0.15001,-0.35002 -0.30002,-0.55003 -0.32502,-0.97505 -0.025,-0.42502 -0.12501,-0.67504 0.025,-1.22506 0.15001,-0.55003 0.05,-0.45003 0.45002,-1.00006 0.40002,-0.55002 0.57503,-0.72503 0.80004,-0.90004 0.22502,-0.17501 0.60003,-0.55003 0.60003,-0.55003 z"
       id="path32121" /><path
       style="opacity:0.99;fill:#fde0a4;fill-opacity:0.992157;fill-rule:nonzero;stroke:none;stroke-width:0.1;stroke-dasharray:none;stroke-opacity:1;paint-order:fill markers stroke"
       d="m -95.875741,54.294543 c 0,0.10001 -0.175012,0.15001 -0.300017,0.52503 -0.125008,0.37502 -0.100004,0.55003 -0.125008,0.72504 -0.025,0.17501 -0.350017,0.72504 -0.350017,0.72504 0,0 -0.700035,0.37501 -0.275014,0.67503 0.425024,0.30001 0.625031,0.50002 0.750039,0.50002 0.125005,0 0.350017,-0.1 0.525026,-0.32501 0.175009,-0.22501 0.375021,-0.40002 0.525029,-0.72504 0.150005,-0.32502 0.375017,-0.92505 0.375017,-0.92505 0,0 -0.05,0.45003 0.175009,0.62504 0.225012,0.17501 0,0.27501 0.450025,0.15 0.450021,-0.125 0.800039,-0.67503 0.825042,-0.80004 0.025,-0.125 0.225009,-0.47502 0.225009,-0.72503 0,-0.25002 -0.150005,-0.50003 -0.375017,-0.62504 -0.225013,-0.125 -0.750038,-0.1 -1.000051,-0.075 -0.250013,0.025 -1.225063,0.10001 -1.225063,0.10001 z"
       id="path32123"
       sodipodi:nodetypes="csscsssscsssssscc" /><path
       style="opacity:0.99;fill:#fde0a4;fill-opacity:0.992157;fill-rule:nonzero;stroke:none;stroke-width:0.1;stroke-dasharray:none;stroke-opacity:1;paint-order:fill markers stroke"
       d="m -95.725736,57.219693 c 0,0 -0.150005,0.42502 -0.150005,0.57503 0,0.15001 0.375017,0.42502 0.62503,0.52503 0.250013,0.10001 0.825042,0.20001 1.100055,0.025 0.275016,-0.17501 0.475025,-0.55003 0.55003,-0.67503 0.075,-0.12501 0.100004,-0.17501 0.225012,-0.17501 0.125005,0 0.425021,-0.27502 0.425021,-0.42503 0,-0.15 0,-0.27501 0,-0.40002 0,-0.125 0.300014,-0.35001 0.300014,-0.35001 0,0 0.150008,-0.22501 0.150008,-0.50003 0,-0.27501 0.250013,-0.45002 -0.075,-0.50002 -0.325017,-0.05 -0.625031,-0.30002 -0.625031,-0.30002 0,0 -1.800092,-0.075 -1.975101,0.10001 -0.175009,0.175 -0.550029,2.1001 -0.550029,2.1001 z"
       id="path32125" /><path
       style="opacity:0.99;fill:#fde0a4;fill-opacity:1;fill-rule:nonzero;stroke:none;stroke-width:0.1;stroke-dasharray:none;stroke-opacity:1;paint-order:fill markers stroke"
       d="m -101.026,40.768853 c 0,0 0.71779,-3.53779 0.541,-3.64386 -0.17679,-0.10607 1.025358,-0.17678 1.308214,-0.56571 0.282858,-0.38893 0.707144,-0.81322 0.813215,-1.27286 0.106072,-0.45964 0.212143,-1.09607 0.212143,-1.44964 0,-0.35358 -0.106071,-1.30822 -0.106071,-1.30822 v -0.14143 c 0,0 4.348927,0.21215 6.611783,1.41429 2.262857,1.20214 2.368929,1.27286 2.368929,1.27286 0,0 0.990002,-0.77786 1.060714,-0.91929 0.07072,-0.14143 0.459645,-0.35357 0.459645,-0.35357 l 0.459642,0.99 c 0,0 0.141428,4.31357 -0.03536,4.98536 -0.176787,0.67178 -0.106071,0.31821 -0.14143,0.495 -0.03536,0.17678 -0.141428,1.20214 -0.141428,1.52035 0,0.31822 0.07071,1.13143 0.03536,1.44965 -0.03536,0.31821 -0.565713,1.87393 -0.565713,1.87393 0,0 -1.025359,0.99 -1.272858,1.09607 -0.247499,0.10607 -1.485,0.63643 -1.661784,0.70714 -0.176787,0.0707 -0.707144,0.14143 -0.883931,0.14143 -0.176784,0 -1.308214,0 -1.661784,0 -0.353571,0 -1.308214,-0.14143 -1.626428,-0.21214 -0.318215,-0.0707 -1.096071,-0.2475 -1.555716,-0.31822 -0.459642,-0.0707 -1.272857,-0.38893 -1.626428,-0.56571 -0.353571,-0.17679 -1.025356,-0.45965 -1.166786,-0.53036 -0.141428,-0.0707 -0.777858,-0.67178 -0.989998,-0.77786 -0.21214,-0.10607 -0.70715,-0.495 -0.81322,-0.63642 -0.10607,-0.14143 -0.495,-0.49501 -0.495,-0.49501 v -0.45964 c 0,0 -0.45964,0.495 -0.99,0.21215 -0.53035,-0.28286 -1.30821,-0.35358 -1.59107,-0.70715 -0.28286,-0.35357 -0.60107,-1.13143 -0.60107,-1.27286 0,-0.14142 -0.0354,-0.42428 0,-0.70714 0.0354,-0.28286 0.14143,-0.7425 0.14143,-0.7425 0,0 0.21214,-0.35357 0.63643,-0.60107 0.42428,-0.2475 0.56571,-0.38893 0.77786,-0.42429 0.21214,-0.0354 0.84857,0.0354 0.84857,0.0354 0,0 0.495,0.17679 0.60107,0.35357 0.10607,0.17679 0.31821,0.45965 0.42428,0.60107 0.10607,0.14143 0.35357,0.45965 0.42429,0.60108 0.0707,0.14142 0.2015,0.35564 0.2015,0.35564 z"
       id="path37522" /><path
       style="opacity:0.99;fill:#ff6600;fill-opacity:1;fill-rule:nonzero;stroke:none;stroke-width:0.1;stroke-dasharray:none;stroke-opacity:1;paint-order:fill markers stroke"
       d="m -103.77615,32.368433 c 0,0 -3.65018,1.85009 -2.70013,4.85024 0.95004,3.00015 1.40007,3.15016 1.40007,3.15016 l 0.15001,-0.05 c 0,0 0.55002,-1.00005 0.80004,-1.10006 0.25001,-0.1 0.60003,-0.30001 0.90004,-0.25001 0.30002,0.05 1.20006,0.35002 1.30007,0.60003 0.1,0.25002 0.50002,0.65003 0.65003,0.85005 0.15001,0.20001 0.35002,0.30001 0.35002,0.30001 0,0 0.25001,-0.90004 0.40002,-1.35007 0.15001,-0.45002 0.20001,-0.65003 0.15001,-1.05005 -0.05,-0.40002 -0.15001,-0.90005 -0.15001,-0.90005 l -0.25001,-0.65003 c 0.955262,0.71155 3.449013,0.57575 2.703689,-2.67943 -0.311283,-1.35952 0.02071,-1.47936 0.02071,-1.47936 0,0 0.375756,-0.24143 1.175798,-0.0914 0.800039,0.15001 1.80009,0.30002 2.350119,0.50003 0.550026,0.20001 1.400071,0.45002 1.800092,0.60003 0.400019,0.15001 1.450073,0.50002 1.700086,0.70003 0.250013,0.20002 0.900046,0.40002 1.150059,0.55003 0.250013,0.15001 0.800039,0.45002 0.800039,0.45002 0,0 0.425022,-0.77504 0.675035,-0.92505 0.250012,-0.15 0.525028,-0.47501 0.525028,-0.47501 l 0.300016,0.075 0.200011,0.77504 -3e-6,0.97505 c 0,0 0.600031,-0.82504 0.850044,-1.27507 0.250013,-0.45002 0.350017,-0.80004 0.60003,-1.30006 0.250013,-0.50003 0.400021,-0.90005 0.400021,-1.35007 0,-0.45003 0.250013,-1.55008 0.150008,-2.30012 -0.100005,-0.75004 -0.100005,-0.90005 -0.250013,-1.20006 -0.150008,-0.30002 -0.150008,-0.55003 -0.250012,-0.75004 -0.100005,-0.20001 -0.20001,-0.50003 -0.20001,-0.50003 0,0 0.05,0.60003 -0.150008,1.10006 -0.200012,0.50003 -0.350017,1.05005 -0.350017,1.05005 0,0 0.150005,-0.95004 -0.35002,-2.50012 -0.500025,-1.55008 -0.350017,-1.70009 -0.350017,-1.70009 v -0.30001 c 0,0 -0.100005,0.75003 -0.700035,1.15005 -0.600032,0.40002 -1.450075,1.05006 -2.000102,1.15006 -0.550029,0.10001 -2.100109,0.45003 -2.500127,0.45003 h -1.750092 c -0.200009,0 -0.700034,-0.10001 -0.700034,-0.10001 0,0 0.750038,0.15001 1.350068,-0.70004 0.60003,-0.85004 0.550029,-0.90004 0.550029,-0.90004 0,0 -0.750038,0.20001 -1.200063,0.20001 h -1.650081 c -0.300017,0 -2.200114,0.55003 -2.550131,0.65003 -0.350018,0.10001 -2.150107,0.50003 -2.550127,1.05005 -0.40003,0.55003 -1.65009,1.55008 -1.75009,1.8001 -0.10001,0.25001 -0.15001,0.35001 -0.45003,1.10005 -0.30001,0.75004 -0.25001,1.15006 -0.35002,1.45008 -0.1,0.30001 -0.25001,0.35002 -0.25001,0.35002 z"
       id="path37524"
       sodipodi:nodetypes="csccsssscssccscssssscsccccsssssscscsccsssscscssssssscc" /><path
       style="opacity:0.99;fill:#fde0a4;fill-opacity:0.992157;fill-rule:nonzero;stroke:none;stroke-width:0.108535;stroke-dasharray:none;stroke-opacity:1;paint-order:fill markers stroke"
       d="m -99.321539,45.497833 v 0.70618 c 0,0 -0.09175,0.83457 0.734045,0.96296 0.825802,0.1284 1.238702,0.321 1.238702,0.321 l 0.09175,-1.32307 c 0,0 -0.734043,-0.21768 -1.2387,-0.41027 -0.504657,-0.1926 -0.550533,-0.44939 -0.550533,-0.44939 z"
       id="path37526"
       sodipodi:nodetypes="ccsccscc" /><path
       style="opacity:0.99;fill:#48a4df;fill-opacity:1;fill-rule:nonzero;stroke:#0055d4;stroke-width:0.1;stroke-dasharray:none;stroke-opacity:1;paint-order:fill markers stroke"
       d="m -101.77604,50.669363 c -0.20001,-0.30002 -1.50008,-1.50008 -1.55008,-1.8501 -0.05,-0.35001 -0.10001,-0.2 0.60003,-0.65003 0.70003,-0.45002 1.35007,-0.80004 1.75009,-0.85004 0.40002,-0.05 1.000048,-0.10001 1.000048,-0.10001 l -1.000048,0.05 c 0,0 0.35001,-0.80003 0.80004,-1.00005 0.45002,-0.20001 0.800038,-0.45002 0.800038,-0.45002 0,0 0.300016,0.45002 0.600032,0.80004 0.300014,0.35002 0.450022,0.70004 0.950048,0.55003 0.500025,-0.15001 0.650033,-0.45002 0.650033,-0.45002 0,0 1.20006,4.40022 0.950048,6.30032 -0.250013,1.90009 0.300016,1.80009 0,1.90009 -0.300014,0.10001 -2.050103,0.05 -2.050103,0.05 0,0 -1.100058,-0.25001 -1.300067,-0.25001 H -100.926 c -0.25001,0 -0.50003,0.25001 -0.75004,0 -0.25001,-0.25002 -0.80004,-0.90005 -0.85004,-1.9501 -0.05,-1.05006 -0.05,-1.15006 0.45002,-1.55008 0.50003,-0.40002 0.70004,-0.40002 0.70004,-0.40002 0,0 0.44144,-0.11465 0.99147,-0.41467 0.550027,-0.30001 1.408649,-1.48543 1.408649,-1.48543 -0.548972,1.05529 -1.329719,1.69338 -2.350119,1.9001 z"
       id="path37528"
       sodipodi:nodetypes="csssccscsscsscssssscsccc" /><path
       style="opacity:0.99;fill:#444960;fill-opacity:1;fill-rule:nonzero;stroke:none;stroke-width:0.1;stroke-dasharray:none;stroke-opacity:1;paint-order:fill markers stroke"
       d="m -103.30112,54.894573 c 0,0 0.50002,2.67514 0.52503,2.95016 0.025,0.27501 0.1,1.90009 0.025,2.0251 -0.075,0.12501 -0.50003,0.82504 -0.57503,0.95005 -0.075,0.125 -0.90005,1.9501 -1.02505,2.0251 -0.12501,0.075 -0.72504,1.07506 -0.72504,1.07506 0,0 0.55002,0.15 0.72504,0.15 0.175,0 1.32506,-0.125 1.65008,-0.17501 0.32501,-0.05 0.70003,-0.05 0.95005,-0.05 0.25001,0 0.55002,0.45002 0.65003,0.45002 0.10001,0 0,-0.37501 0.025,-0.62503 0.025,-0.25001 -0.025,-0.35001 0.20001,-0.52503 0.22501,-0.175 0.45002,-0.15 0.60003,-0.75003 0.15001,-0.60003 0.300016,-1.37507 0.35002,-1.60009 0.05,-0.22501 0.150008,-0.70003 -0.025,-1.15005 -0.17501,-0.45003 -0.22501,-1.05006 -0.32502,-1.17506 -0.1,-0.12501 -0.35002,-2.10011 -0.60003,-2.45013 -0.25001,-0.35002 -0.97505,-1.37507 -0.97505,-1.37507 z"
       id="path37530" /><path
       style="opacity:0.99;fill:#23283b;fill-opacity:1;fill-rule:nonzero;stroke:none;stroke-width:0.1;stroke-dasharray:none;stroke-opacity:1;paint-order:fill markers stroke"
       d="m -98.650885,57.394703 c 0,0 0.850043,1.55008 0.975051,1.62509 0.125005,0.075 0.60003,1.07505 0.60003,1.07505 0,0 0.05,0.85004 -0.05,1.37507 -0.100007,0.52503 -0.300016,1.52508 -0.300016,1.77509 0,0.25001 -0.250013,0.67504 -0.150009,0.67504 0.100005,0 1.000051,0.075 1.600081,0.075 0.600033,0 0.625033,0.15 1.475076,0.025 0.850043,-0.12501 1.100056,-0.1 1.250064,-0.15001 0.150008,-0.05 -0.05,0 -0.175009,-0.40002 -0.125005,-0.40001 -0.05,-0.075 -0.200009,-0.67503 -0.150008,-0.60003 -0.325017,-1.07506 -0.300016,-1.57508 0.025,-0.50003 -0.400021,-2.0251 -0.750038,-2.22512 -0.350018,-0.2 -0.500026,-0.62503 -0.700035,-0.77503 -0.200012,-0.15001 -1.475076,-1.42508 -1.475076,-1.42508 l -0.750038,-0.125 c 0,0 -0.650034,0.52502 -0.750038,0.57503 -0.100005,0.05 -0.300017,0.15 -0.300018,0.15 z"
       id="path37532" /><path
       style="opacity:0.99;fill:#474e61;fill-opacity:1;fill-rule:nonzero;stroke:none;stroke-width:0.1;stroke-dasharray:none;stroke-opacity:1;paint-order:fill markers stroke"
       d="m -102.32607,54.444553 6.175313,0.42502 c 0,0 0.450024,0.65004 0.100004,1.05006 -0.350017,0.40002 -0.700034,0.80004 -0.950047,1.00005 -0.250013,0.20001 -0.725038,0.55003 -1.025051,0.60003 -0.300017,0.05 -0.625034,0.125 -1.025054,0.075 -0.400019,-0.05 -0.900044,0.025 -1.275065,-0.1 -0.37502,-0.12501 -0.82504,-0.075 -1.00005,-0.60003 -0.17501,-0.52503 -0.32502,-1.35007 -0.45002,-1.52508 -0.12501,-0.17501 -0.67504,-0.95005 -0.67504,-0.95005 z"
       id="path37534" /><path
       style="opacity:0.99;fill:#47a3e3;fill-opacity:1;fill-rule:nonzero;stroke:#0055d4;stroke-width:0.1;stroke-dasharray:none;stroke-opacity:1;paint-order:fill markers stroke"
       d="m -105.05121,63.995043 c 0,0 3.00015,-0.20001 3.27517,-0.075 0.27501,0.125 1.15005,0.60003 1.25006,0.82504 0.10001,0.22501 0.35002,0.75004 0.47502,0.87504 0.125011,0.12501 -0.55002,0.25001 -0.72503,0.20001 -0.17501,-0.05 -0.90005,-0.05 -1.35007,-0.05 -0.45002,0 -1.07506,-0.05 -1.8251,-0.075 -0.75003,-0.025 -1.17506,-0.025 -1.37506,-0.025 -0.20002,0 -0.70004,0.12501 -0.60003,0 0.1,-0.12501 0.25001,-0.97505 0.45002,-1.40007 0.20001,-0.42502 0.42502,-0.27501 0.42502,-0.27501 z"
       id="path37536" /><path
       style="opacity:0.99;fill:#47a3e3;fill-opacity:1;fill-rule:nonzero;stroke:#0055d4;stroke-width:0.1;stroke-dasharray:none;stroke-opacity:1;paint-order:fill markers stroke"
       d="m -97.166568,63.712183 c 0,0 3.000153,-0.20001 3.275169,-0.075 0.275013,0.125 1.150056,0.60003 1.250063,0.82504 0.100005,0.22501 0.350018,0.75004 0.475023,0.87504 0.125007,0.12501 -0.550027,0.25001 -0.725035,0.20001 -0.175012,-0.05 -0.900047,-0.05 -1.350071,-0.05 -0.450022,0 -1.075055,-0.05 -1.825093,-0.075 -0.750039,-0.025 -1.17506,-0.025 -1.375069,-0.025 -0.200012,0 -0.700037,0.12501 -0.60003,0 0.100004,-0.12501 0.250013,-0.97505 0.450022,-1.40007 0.200009,-0.42502 0.425021,-0.27501 0.425021,-0.27501 z"
       id="path37538" /><path
       style="opacity:0.99;fill:#e3dedb;fill-opacity:1;fill-rule:nonzero;stroke:none;stroke-width:0.1;stroke-dasharray:none;stroke-opacity:1;paint-order:fill markers stroke"
       d="m -97.99161,65.462273 c -0.125005,-0.025 -0.275013,0.27501 -0.275013,0.27501 0,0 0.05,0.40002 0.200009,0.45002 0.150008,0.05 0.175008,0.05 0.875046,0.12501 0.700034,0.075 1.300064,0.10001 1.825093,0.10001 0.525026,0 1.80009,-0.075 2.050103,-0.10001 0.250012,-0.025 0.850045,-0.05 1.075055,-0.15001 0.225012,-0.1 0.40002,-0.17501 0.40002,-0.35001 0,-0.17501 -0.125005,-0.45003 -0.250012,-0.45003 -0.125005,0 -5.900301,0.10001 -5.900301,0.10001 z"
       id="path37540" /><ellipse
       style="opacity:0.99;fill:#000000;fill-opacity:1;fill-rule:nonzero;stroke:#000000;stroke-width:0.1;stroke-dasharray:none;stroke-opacity:1;paint-order:fill markers stroke"
       id="ellipse37542"
       cx="-93.767143"
       cy="40.183392"
       rx="0.77785712"
       ry="1.3966072" /><ellipse
       style="opacity:0.99;fill:#000000;fill-opacity:1;fill-rule:nonzero;stroke:#000000;stroke-width:0.0792771;stroke-dasharray:none;stroke-opacity:1;paint-order:fill markers stroke"
       id="ellipse37544"
       cx="-88.857292"
       cy="40.094173"
       rx="0.56723642"
       ry="1.203665" /><ellipse
       style="opacity:0.99;fill:#ffffff;fill-opacity:1;fill-rule:nonzero;stroke:none;stroke-width:0.1;stroke-dasharray:none;stroke-opacity:1;paint-order:fill markers stroke"
       id="ellipse37546"
       cx="-93.722946"
       cy="39.723751"
       rx="0.53919643"
       ry="0.68946427" /><ellipse
       style="opacity:0.99;fill:#ffffff;fill-opacity:1;fill-rule:nonzero;stroke:none;stroke-width:0.0775845;stroke-dasharray:none;stroke-opacity:1;paint-order:fill markers stroke"
       id="ellipse37548"
       cx="-88.870186"
       cy="39.564632"
       rx="0.40013629"
       ry="0.55924344" /><path
       style="opacity:0.99;fill:#000000;fill-opacity:1;fill-rule:nonzero;stroke:#000000;stroke-width:0.1;stroke-dasharray:none;stroke-opacity:1;paint-order:fill markers stroke"
       d="m -95.941607,36.647673 c 0.335891,-0.28286 0.848572,-0.76018 1.11375,-0.7425 0.265179,0.0177 0.636429,0.053 0.919285,0.0884 0.282858,0.0354 0.689464,0.30054 0.830894,0.38893 0.141428,0.0884 0.371251,0.53036 0.548035,0.65411 0.176786,0.12375 0.335893,0.51268 0.37125,0.54804 0.03536,0.0354 0.159107,0.22982 0.141427,0.26517 -0.01767,0.0354 -0.318214,-0.22098 -0.459642,-0.25634 -0.141427,-0.0353 -0.609909,-0.30937 -0.715981,-0.41544 -0.106071,-0.10607 -0.07071,-0.22982 -0.291698,-0.32705 -0.220982,-0.0972 -0.822052,-0.18563 -0.892767,-0.20331 -0.07071,-0.0177 -0.353571,-0.0177 -0.574553,-0.0177 -0.220983,0 -0.742501,0.0354 -0.804376,0.053 -0.06187,0.0177 -0.247499,0.053 -0.247499,0.053 z"
       id="path37550" /><path
       style="opacity:0.99;fill:#000000;fill-opacity:1;fill-rule:nonzero;stroke:#000000;stroke-width:0.1;stroke-dasharray:none;stroke-opacity:1;paint-order:fill markers stroke"
       d="m -89.488927,38.008923 c 0.03536,-0.0884 0.194463,-0.53036 0.406606,-0.65411 0.212143,-0.12375 0.583393,-0.37125 0.671785,-0.4066 0.08839,-0.0354 0.282858,0 0.441965,0.0707 0.159107,0.0707 0.318215,0.12375 0.265179,0.21214 -0.05304,0.0884 -0.159107,0.0884 -0.406609,0.14143 -0.247499,0.053 -0.494999,0.14143 -0.583393,0.26518 -0.08839,0.12375 -0.335891,0.2475 -0.441963,0.40661 -0.106071,0.1591 -0.318214,0.2475 -0.318214,0.17678 0,-0.0707 -0.03536,-0.21214 -0.03536,-0.21214 z"
       id="path37552" /><path
       style="opacity:0.99;fill:none;fill-opacity:1;fill-rule:nonzero;stroke:#000000;stroke-width:0.1;stroke-dasharray:none;stroke-opacity:1;paint-order:fill markers stroke"
       d="m -90.350461,41.306383 c -0.01249,0.075 -0.025,0.27501 -0.01249,0.36252 0.01249,0.0875 0.08751,0.21251 0.237513,0.23751 0.150009,0.025 0.262512,0.075 0.350018,0.12501 0.08751,0.05 0.337518,0.25001 0.350017,0.36252 0.01252,0.1125 -0.075,0.38752 -0.112506,0.46252 -0.0375,0.075 0.0375,0.23751 -0.112504,0.23751 -0.150008,0 -0.387522,-0.0625 -0.462526,-0.0625 -0.075,0 -0.362516,-0.0375 -0.362516,-0.0375 l 0.137507,-0.0125 0.21251,0.0625"
       id="path37554" /><path
       style="opacity:0.99;fill:none;fill-opacity:1;fill-rule:nonzero;stroke:#000000;stroke-width:0.1;stroke-dasharray:none;stroke-opacity:1;paint-order:fill markers stroke"
       d="m -91.31301,44.844063 c -0.075,0.025 -1.100055,0.15001 -1.36257,0.075 -0.262514,-0.075 -0.800039,-0.33752 -0.862544,-0.42503 -0.0625,-0.0875 -0.437523,-0.28751 -0.500025,-0.41252 -0.0625,-0.125 -0.075,-0.37502 -0.075,-0.37502 0,0 -0.237512,0.31252 -0.287515,0.33752 -0.05,0.025 -0.175009,0.025 -0.175009,0.025"
       id="path37556" /><path
       style="opacity:0.99;fill:#fde0a4;fill-opacity:0.992157;fill-rule:nonzero;stroke:none;stroke-width:0.1;stroke-dasharray:none;stroke-opacity:1;paint-order:fill markers stroke"
       d="m -103.37613,48.944273 1.9001,2.0251 c 0,0 -0.97505,0.52503 -1.02505,0.62503 -0.05,0.10001 -0.075,1.12506 -0.025,1.25007 0.05,0.12501 0.30001,1.02505 0.42502,1.25006 0.12501,0.22501 0.40002,0.92505 0.40002,0.92505 0,0 -0.05,-0.37502 0.37502,-0.22501 0.42502,0.15001 0.47502,0.075 0.52503,0.17501 0.05,0.1 0.62503,0.70003 0.62503,0.70003 l 0.275012,0.85005 c 0,0 0.250013,0.27501 0.025,0.42502 -0.225012,0.15001 -0.275012,0.35002 -0.350022,0.22501 -0.075,-0.12501 -0.2,-0.57503 -0.2,-0.57503 l 0.22501,0.87505 0.275011,0.40002 c 0,0 0.150008,0.42502 -0.250011,0.55003 -0.40002,0.125 -0.77504,-0.05 -0.77504,-0.05 0,0 -0.075,0 -0.35002,0.20001 -0.27501,0.20001 -0.50003,0.52503 -0.67503,0.35002 -0.17501,-0.17501 -0.37502,-0.25001 -0.52503,-0.27502 -0.15001,-0.025 -0.35002,0.15001 -0.52503,0.15001 -0.17501,0 -0.50002,0.15001 -0.65003,-0.20001 -0.15001,-0.35002 -0.20001,-0.47502 -0.35002,-0.82504 -0.15001,-0.35002 -0.22501,-0.32502 -0.20001,-0.70004 0.025,-0.37501 0.12501,-0.67503 0.20001,-0.87504 0.075,-0.20001 0.10001,-0.25001 0.12501,-0.50002 0.025,-0.25002 -0.52503,-0.50003 -0.62504,-0.97505 -0.1,-0.47503 -0.25001,-0.77504 -0.40001,-1.12506 -0.15001,-0.35002 -0.30002,-0.55003 -0.32502,-0.97505 -0.025,-0.42502 -0.12501,-0.67504 0.025,-1.22506 0.15001,-0.55003 0.05,-0.45003 0.45002,-1.00006 0.40002,-0.55002 0.57503,-0.72503 0.80004,-0.90004 0.22502,-0.17501 0.60003,-0.55003 0.60003,-0.55003 z"
       id="path37558" /><path
       style="opacity:0.99;fill:#fde0a4;fill-opacity:0.992157;fill-rule:nonzero;stroke:none;stroke-width:0.1;stroke-dasharray:none;stroke-opacity:1;paint-order:fill markers stroke"
       d="m -95.875741,54.294543 c 0,0.10001 -0.175012,0.15001 -0.300017,0.52503 -0.125008,0.37502 -0.100004,0.55003 -0.125008,0.72504 -0.025,0.17501 -0.350017,0.72504 -0.350017,0.72504 0,0 -0.700035,0.37501 -0.275014,0.67503 0.425024,0.30001 0.625031,0.50002 0.750039,0.50002 0.125005,0 0.350017,-0.1 0.525026,-0.32501 0.175009,-0.22501 0.375021,-0.40002 0.525029,-0.72504 0.150005,-0.32502 0.375017,-0.92505 0.375017,-0.92505 0,0 -0.05,0.45003 0.175009,0.62504 0.225012,0.17501 0,0.27501 0.450025,0.15 0.450021,-0.125 0.800039,-0.67503 0.825042,-0.80004 0.025,-0.125 0.225009,-0.47502 0.225009,-0.72503 0,-0.25002 -0.150005,-0.50003 -0.375017,-0.62504 -0.225013,-0.125 -0.750038,-0.1 -1.000051,-0.075 -0.250013,0.025 -1.225063,0.10001 -1.225063,0.10001 z"
       id="path37560"
       sodipodi:nodetypes="csscsssscsssssscc" /><path
       style="opacity:0.99;fill:#fde0a4;fill-opacity:0.992157;fill-rule:nonzero;stroke:none;stroke-width:0.1;stroke-dasharray:none;stroke-opacity:1;paint-order:fill markers stroke"
       d="m -95.725736,57.219693 c 0,0 -0.150005,0.42502 -0.150005,0.57503 0,0.15001 0.375017,0.42502 0.62503,0.52503 0.250013,0.10001 0.825042,0.20001 1.100055,0.025 0.275016,-0.17501 0.475025,-0.55003 0.55003,-0.67503 0.075,-0.12501 0.100004,-0.17501 0.225012,-0.17501 0.125005,0 0.425021,-0.27502 0.425021,-0.42503 0,-0.15 0,-0.27501 0,-0.40002 0,-0.125 0.300014,-0.35001 0.300014,-0.35001 0,0 0.150008,-0.22501 0.150008,-0.50003 0,-0.27501 0.250013,-0.45002 -0.075,-0.50002 -0.325017,-0.05 -0.625031,-0.30002 -0.625031,-0.30002 0,0 -1.800092,-0.075 -1.975101,0.10001 -0.175009,0.175 -0.550029,2.1001 -0.550029,2.1001 z"
       id="path37562" /><path
       style="opacity:0.99;fill:none;fill-opacity:0.992157;fill-rule:nonzero;stroke:#2b1100;stroke-width:0.02354792;stroke-dasharray:none;stroke-opacity:1;paint-order:fill markers stroke"
       d="m -5.1252614,7.7878973 c 0,0 -0.6875351,-0.2000104 -0.8750446,0.275014 -0.1875096,0.4750242 -0.1750089,0.550028 -0.1375071,0.6125311 0.037502,0.062503 0.6750344,0.7750397 1.0500535,0.6250321 0.3750193,-0.1500077 0.3875198,-0.2875148 0.4000206,-0.3625186 0.012502,-0.075004 0.012502,-0.1750089 0.012502,-0.1750089 l 0.2375122,-0.1500077 0.1125056,-0.075004 0.2625135,0.012502 c 0,0 -0.7000357,-0.1375069 -0.9250471,-0.512526 C -5.2127649,7.662892 -5.1252604,7.7878984 -5.1252604,7.7878984 Z"
       id="path2322" /><path
       style="opacity:0.99;fill:none;fill-opacity:0.992157;fill-rule:nonzero;stroke:#2b1100;stroke-width:0.0235479;stroke-dasharray:none;stroke-opacity:1;paint-order:fill markers stroke"
       d="m -5.1627635,7.7628961 -0.2250114,0.012501 c 0,0 -0.050003,0.4750242 0.3250168,0.6750344 0.3750191,0.2000102 0.3750191,0.2000102 0.3750191,0.2000102 l 0.1625081,0.050002 0.2250115,-0.1500076 -0.550028,-0.3500178 z"
       id="path3106" /><path
       style="opacity:0.99;fill:none;fill-opacity:0.992157;fill-rule:nonzero;stroke:#2b1100;stroke-width:0.0235479;stroke-dasharray:none;stroke-opacity:1;paint-order:fill markers stroke"
       d="m -5.8502983,7.9004029 c 0,0 0.5750293,0.3750191 0.5875298,0.8625441 0.012501,0.4875249 -0.037502,0.4875249 -0.037502,0.4875249 l 0.012501,0.075004 L -5.5252814,9.2004696 -6.162814,8.6379408 c 0,0 0.050002,-0.5375275 0.3125157,-0.7375379 z"
       id="path3108" /><path
       style="opacity:0.99;fill:none;fill-opacity:0.992157;fill-rule:nonzero;stroke:#2b1100;stroke-width:0.0235479;stroke-dasharray:none;stroke-opacity:1;paint-order:fill markers stroke"
       d="m -5.2328571,6.0814285 c 0,0 0.4684821,0.079554 0.6099108,0.495 0.1414286,0.4154463 0.088393,0.4949999 0.088393,0.4949999 l 0.026518,0.1325894 c 0,0 -0.3005357,-0.4419643 -0.4419642,-0.4508035 -0.1414288,-0.00884 -0.6099109,0.00884 -0.6099109,0.00884 0,0 -0.097232,0 -0.061875,0.044196 0.035357,0.044196 0.1237498,0.079553 0.2121429,0.079553 0.088393,0 0.2563392,-0.017679 0.3358928,0.017679 0.079554,0.035357 0.2651786,0.1591072 0.2916965,0.1944642 0.026518,0.035357 0.1944642,0.2740179 0.2209821,0.3182144 0.026518,0.044196 0.00884,0.097232 0.079554,0.097232 0.070714,0 0.1325893,-0.061875 0.1325893,-0.061875 0,0 0.070714,-0.044196 0.1060712,-0.044196 0.035357,0 0.097232,0 0.097232,0 0,0 0.061875,-0.1060715 0.026518,-0.1149109 -0.035357,-0.00884 -0.185625,-0.00884 -0.185625,-0.00884 H -4.33125 c 0,0 0.035357,-0.2651786 0.053036,-0.4066071 0.017679,-0.1414285 0.070714,-0.3270536 0,-0.4773213 -0.070714,-0.150268 -0.1325893,-0.3093752 -0.3800893,-0.3800893 -0.2475,-0.070714 -0.5480357,0 -0.5480357,0 z"
       id="path3110" /><path
       style="opacity:0.99;fill:none;fill-opacity:0.992157;fill-rule:nonzero;stroke:#2b1100;stroke-width:0.0235479;stroke-dasharray:none;stroke-opacity:1;paint-order:fill markers stroke"
       d="m -3.5091965,7.6636607 c 0.017679,-0.061875 0.088393,-0.079554 0.079554,-0.2033038 -0.00884,-0.1237498 -0.00884,-0.1237498 -0.00884,-0.1237498 0,0 0.1237498,0.088393 0.1149106,0.1591072 -0.00884,0.070714 0.1856251,-0.397768 0.2121429,-0.4331251 0.026518,-0.035357 0.2651787,-0.1944642 0.3005358,-0.2033037 0.035357,-0.00884 0.1591071,-0.035357 0.2209821,0.053036 0.061875,0.088393 0.088393,0.2121429 0.088393,0.2121429 l -0.053036,0.079554 c 0,0 -0.053036,-0.1149107 -0.1237499,-0.1149107 -0.070714,0 -0.2828573,0.1237499 -0.3270536,0.1856251 -0.044196,0.061875 -0.1591072,0.1856247 -0.1591072,0.1856247 l 0.3093749,0.026518 c 0,0 0.1591072,0.097232 0.1060715,0.1060715 -0.053036,0.00884 -0.3182141,0 -0.4154464,0 -0.097232,0 -0.1237501,0.1060714 -0.1237501,0.1060714 0,0 -0.088393,0.053036 -0.1237499,0.053036 -0.035357,0 -0.097232,-0.088393 -0.097232,-0.088394 z"
       id="path3112" /></g></svg>
